<?xml version="1.0" encoding="utf-8" standalone="no"?>
<!DOCTYPE svg PUBLIC "-//W3C//DTD SVG 1.1//EN"
  "http://www.w3.org/Graphics/SVG/1.1/DTD/svg11.dtd">
<!-- Created with matplotlib (http://matplotlib.org/) -->
<svg height="216pt" version="1.1" viewBox="0 0 864 216" width="864pt" xmlns="http://www.w3.org/2000/svg" xmlns:xlink="http://www.w3.org/1999/xlink">
 <defs>
  <style type="text/css">
*{stroke-linecap:butt;stroke-linejoin:round;}
  </style>
 </defs>
 <g id="figure_1">
  <g id="patch_1">
   <path d="M 0 216 
L 864 216 
L 864 0 
L 0 0 
z
" style="fill:#ffffff;"/>
  </g>
  <g id="axes_1">
   <g id="patch_2">
    <path d="M 108 151.2 
L 271.716381 151.2 
L 271.716381 43.2 
L 108 43.2 
z
" style="fill:#ffffff;"/>
   </g>
   <g id="matplotlib.axis_1">
    <g id="xtick_1">
     <g id="line2d_1">
      <defs>
       <path d="M 0 0 
L 0 6 
" id="m490e62205a" style="stroke:#262626;"/>
      </defs>
      <g>
       <use style="fill:#262626;stroke:#262626;" x="115.441654" xlink:href="#m490e62205a" y="151.2"/>
      </g>
     </g>
     <g id="text_1">
      <!-- 0 -->
      <defs>
       <path d="M 31.78125 66.40625 
Q 24.171875 66.40625 20.328125 58.90625 
Q 16.5 51.421875 16.5 36.375 
Q 16.5 21.390625 20.328125 13.890625 
Q 24.171875 6.390625 31.78125 6.390625 
Q 39.453125 6.390625 43.28125 13.890625 
Q 47.125 21.390625 47.125 36.375 
Q 47.125 51.421875 43.28125 58.90625 
Q 39.453125 66.40625 31.78125 66.40625 
M 31.78125 74.21875 
Q 44.046875 74.21875 50.515625 64.515625 
Q 56.984375 54.828125 56.984375 36.375 
Q 56.984375 17.96875 50.515625 8.265625 
Q 44.046875 -1.421875 31.78125 -1.421875 
Q 19.53125 -1.421875 13.0625 8.265625 
Q 6.59375 17.96875 6.59375 36.375 
Q 6.59375 54.828125 13.0625 64.515625 
Q 19.53125 74.21875 31.78125 74.21875 
" id="DejaVuSans-30"/>
      </defs>
      <g style="fill:#262626;" transform="translate(111.306029 174.077969)scale(0.13 -0.13)">
       <use xlink:href="#DejaVuSans-30"/>
      </g>
     </g>
    </g>
    <g id="xtick_2">
     <g id="line2d_2">
      <g>
       <use style="fill:#262626;stroke:#262626;" x="178.774877" xlink:href="#m490e62205a" y="151.2"/>
      </g>
     </g>
     <g id="text_2">
      <!-- 20 -->
      <defs>
       <path d="M 19.1875 8.296875 
L 53.609375 8.296875 
L 53.609375 0 
L 7.328125 0 
L 7.328125 8.296875 
Q 12.9375 14.109375 22.625 23.890625 
Q 32.328125 33.6875 34.8125 36.53125 
Q 39.546875 41.84375 41.421875 45.53125 
Q 43.3125 49.21875 43.3125 52.78125 
Q 43.3125 58.59375 39.234375 62.25 
Q 35.15625 65.921875 28.609375 65.921875 
Q 23.96875 65.921875 18.8125 64.3125 
Q 13.671875 62.703125 7.8125 59.421875 
L 7.8125 69.390625 
Q 13.765625 71.78125 18.9375 73 
Q 24.125 74.21875 28.421875 74.21875 
Q 39.75 74.21875 46.484375 68.546875 
Q 53.21875 62.890625 53.21875 53.421875 
Q 53.21875 48.921875 51.53125 44.890625 
Q 49.859375 40.875 45.40625 35.40625 
Q 44.1875 33.984375 37.640625 27.21875 
Q 31.109375 20.453125 19.1875 8.296875 
" id="DejaVuSans-32"/>
      </defs>
      <g style="fill:#262626;" transform="translate(170.503627 174.077969)scale(0.13 -0.13)">
       <use xlink:href="#DejaVuSans-32"/>
       <use x="63.623047" xlink:href="#DejaVuSans-30"/>
      </g>
     </g>
    </g>
    <g id="xtick_3">
     <g id="line2d_3">
      <g>
       <use style="fill:#262626;stroke:#262626;" x="242.1081" xlink:href="#m490e62205a" y="151.2"/>
      </g>
     </g>
     <g id="text_3">
      <!-- 40 -->
      <defs>
       <path d="M 37.796875 64.3125 
L 12.890625 25.390625 
L 37.796875 25.390625 
z
M 35.203125 72.90625 
L 47.609375 72.90625 
L 47.609375 25.390625 
L 58.015625 25.390625 
L 58.015625 17.1875 
L 47.609375 17.1875 
L 47.609375 0 
L 37.796875 0 
L 37.796875 17.1875 
L 4.890625 17.1875 
L 4.890625 26.703125 
z
" id="DejaVuSans-34"/>
      </defs>
      <g style="fill:#262626;" transform="translate(233.83685 174.077969)scale(0.13 -0.13)">
       <use xlink:href="#DejaVuSans-34"/>
       <use x="63.623047" xlink:href="#DejaVuSans-30"/>
      </g>
     </g>
    </g>
    <g id="text_4">
     <!-- $d \ [km]$ -->
     <defs>
      <path d="M 41.796875 8.203125 
Q 38.1875 3.46875 33.25 1.015625 
Q 28.328125 -1.421875 22.3125 -1.421875 
Q 14.109375 -1.421875 9.34375 4.171875 
Q 4.59375 9.765625 4.59375 19.484375 
Q 4.59375 27.59375 7.46875 34.9375 
Q 10.359375 42.28125 15.828125 48.09375 
Q 19.4375 51.953125 23.96875 53.96875 
Q 28.515625 56 33.5 56 
Q 38.765625 56 42.796875 53.453125 
Q 46.828125 50.921875 49.03125 46.1875 
L 54.890625 75.984375 
L 63.921875 75.984375 
L 49.125 0 
L 40.09375 0 
z
M 13.921875 21.09375 
Q 13.921875 14.015625 17.109375 10.0625 
Q 20.3125 6.109375 25.984375 6.109375 
Q 30.171875 6.109375 33.765625 8.125 
Q 37.359375 10.15625 40.09375 14.109375 
Q 42.96875 18.21875 44.625 23.578125 
Q 46.296875 28.953125 46.296875 34.1875 
Q 46.296875 40.96875 43.09375 44.765625 
Q 39.890625 48.578125 34.28125 48.578125 
Q 30.03125 48.578125 26.359375 46.578125 
Q 22.703125 44.578125 20.125 40.828125 
Q 17.28125 36.765625 15.59375 31.390625 
Q 13.921875 26.03125 13.921875 21.09375 
" id="DejaVuSans-Oblique-64"/>
      <path d="M 8.59375 75.984375 
L 29.296875 75.984375 
L 29.296875 69 
L 17.578125 69 
L 17.578125 -6.203125 
L 29.296875 -6.203125 
L 29.296875 -13.1875 
L 8.59375 -13.1875 
z
" id="DejaVuSans-5b"/>
      <path d="M 18.3125 75.984375 
L 27.296875 75.984375 
L 18.703125 31.6875 
L 49.515625 54.6875 
L 61.1875 54.6875 
L 26.8125 28.515625 
L 51.90625 0 
L 41.015625 0 
L 17.671875 26.703125 
L 12.5 0 
L 3.515625 0 
z
" id="DejaVuSans-Oblique-6b"/>
      <path d="M 89.796875 33.015625 
L 83.40625 0 
L 74.421875 0 
L 80.71875 32.71875 
Q 81.109375 34.8125 81.296875 36.328125 
Q 81.5 37.84375 81.5 38.921875 
Q 81.5 43.3125 79.046875 45.75 
Q 76.609375 48.1875 72.21875 48.1875 
Q 65.671875 48.1875 60.546875 43.28125 
Q 55.421875 38.375 53.90625 30.515625 
L 47.90625 0 
L 38.921875 0 
L 45.3125 32.71875 
Q 45.703125 34.515625 45.890625 36.046875 
Q 46.09375 37.59375 46.09375 38.8125 
Q 46.09375 43.265625 43.65625 45.71875 
Q 41.21875 48.1875 36.921875 48.1875 
Q 30.28125 48.1875 25.140625 43.28125 
Q 20.015625 38.375 18.5 30.515625 
L 12.5 0 
L 3.515625 0 
L 14.203125 54.6875 
L 23.1875 54.6875 
L 21.484375 46.1875 
Q 25.140625 50.984375 30.046875 53.484375 
Q 34.96875 56 40.578125 56 
Q 46.53125 56 50.359375 52.875 
Q 54.203125 49.75 54.984375 44.1875 
Q 59.078125 49.953125 64.46875 52.96875 
Q 69.875 56 75.875 56 
Q 82.90625 56 86.734375 51.953125 
Q 90.578125 47.90625 90.578125 40.484375 
Q 90.578125 38.875 90.375 36.9375 
Q 90.1875 35.015625 89.796875 33.015625 
" id="DejaVuSans-Oblique-6d"/>
      <path d="M 30.421875 75.984375 
L 30.421875 -13.1875 
L 9.71875 -13.1875 
L 9.71875 -6.203125 
L 21.390625 -6.203125 
L 21.390625 69 
L 9.71875 69 
L 9.71875 75.984375 
z
" id="DejaVuSans-5d"/>
     </defs>
     <g style="fill:#262626;" transform="translate(166.263191 191.647328)scale(0.143 -0.143)">
      <use transform="translate(0 0.015625)" xlink:href="#DejaVuSans-Oblique-64"/>
      <use transform="translate(95.946941 0.015625)" xlink:href="#DejaVuSans-5b"/>
      <use transform="translate(134.960613 0.015625)" xlink:href="#DejaVuSans-Oblique-6b"/>
      <use transform="translate(192.870769 0.015625)" xlink:href="#DejaVuSans-Oblique-6d"/>
      <use transform="translate(290.282878 0.015625)" xlink:href="#DejaVuSans-5d"/>
     </g>
    </g>
   </g>
   <g id="matplotlib.axis_2">
    <g id="ytick_1">
     <g id="line2d_4">
      <defs>
       <path d="M 0 0 
L -6 0 
" id="me4450d3618" style="stroke:#262626;"/>
      </defs>
      <g>
       <use style="fill:#262626;stroke:#262626;" x="108" xlink:href="#me4450d3618" y="146.290909"/>
      </g>
     </g>
     <g id="text_5">
      <!-- 0.0 -->
      <defs>
       <path d="M 10.6875 12.40625 
L 21 12.40625 
L 21 0 
L 10.6875 0 
z
" id="DejaVuSans-2e"/>
      </defs>
      <g style="fill:#262626;" transform="translate(74.325937 151.229893)scale(0.13 -0.13)">
       <use xlink:href="#DejaVuSans-30"/>
       <use x="63.623047" xlink:href="#DejaVuSans-2e"/>
       <use x="95.410156" xlink:href="#DejaVuSans-30"/>
      </g>
     </g>
    </g>
    <g id="ytick_2">
     <g id="line2d_5">
      <g>
       <use style="fill:#262626;stroke:#262626;" x="108" xlink:href="#me4450d3618" y="97.2"/>
      </g>
     </g>
     <g id="text_6">
      <!-- 0.5 -->
      <defs>
       <path d="M 10.796875 72.90625 
L 49.515625 72.90625 
L 49.515625 64.59375 
L 19.828125 64.59375 
L 19.828125 46.734375 
Q 21.96875 47.46875 24.109375 47.828125 
Q 26.265625 48.1875 28.421875 48.1875 
Q 40.625 48.1875 47.75 41.5 
Q 54.890625 34.8125 54.890625 23.390625 
Q 54.890625 11.625 47.5625 5.09375 
Q 40.234375 -1.421875 26.90625 -1.421875 
Q 22.3125 -1.421875 17.546875 -0.640625 
Q 12.796875 0.140625 7.71875 1.703125 
L 7.71875 11.625 
Q 12.109375 9.234375 16.796875 8.0625 
Q 21.484375 6.890625 26.703125 6.890625 
Q 35.15625 6.890625 40.078125 11.328125 
Q 45.015625 15.765625 45.015625 23.390625 
Q 45.015625 31 40.078125 35.4375 
Q 35.15625 39.890625 26.703125 39.890625 
Q 22.75 39.890625 18.8125 39.015625 
Q 14.890625 38.140625 10.796875 36.28125 
z
" id="DejaVuSans-35"/>
      </defs>
      <g style="fill:#262626;" transform="translate(74.325937 102.138984)scale(0.13 -0.13)">
       <use xlink:href="#DejaVuSans-30"/>
       <use x="63.623047" xlink:href="#DejaVuSans-2e"/>
       <use x="95.410156" xlink:href="#DejaVuSans-35"/>
      </g>
     </g>
    </g>
    <g id="ytick_3">
     <g id="line2d_6">
      <g>
       <use style="fill:#262626;stroke:#262626;" x="108" xlink:href="#me4450d3618" y="48.109091"/>
      </g>
     </g>
     <g id="text_7">
      <!-- 1.0 -->
      <defs>
       <path d="M 12.40625 8.296875 
L 28.515625 8.296875 
L 28.515625 63.921875 
L 10.984375 60.40625 
L 10.984375 69.390625 
L 28.421875 72.90625 
L 38.28125 72.90625 
L 38.28125 8.296875 
L 54.390625 8.296875 
L 54.390625 0 
L 12.40625 0 
z
" id="DejaVuSans-31"/>
      </defs>
      <g style="fill:#262626;" transform="translate(74.325937 53.048075)scale(0.13 -0.13)">
       <use xlink:href="#DejaVuSans-31"/>
       <use x="63.623047" xlink:href="#DejaVuSans-2e"/>
       <use x="95.410156" xlink:href="#DejaVuSans-30"/>
      </g>
     </g>
    </g>
    <g id="text_8">
     <!-- $\hat x_{\cdot}(d)$ -->
     <defs>
      <path d="M -28.609375 79.984375 
L -21.390625 79.984375 
L -9.421875 61.625 
L -16.21875 61.625 
L -25 73.578125 
L -33.796875 61.625 
L -40.578125 61.625 
z
M -25 56 
z
" id="DejaVuSans-302"/>
      <path d="M 60.015625 54.6875 
L 34.90625 27.875 
L 50.296875 0 
L 39.984375 0 
L 28.421875 21.6875 
L 8.296875 0 
L -2.59375 0 
L 24.3125 28.8125 
L 10.015625 54.6875 
L 20.3125 54.6875 
L 30.8125 34.90625 
L 49.125 54.6875 
z
" id="DejaVuSans-Oblique-78"/>
      <path d="M 10.6875 40.921875 
L 21 40.921875 
L 21 28.515625 
L 10.6875 28.515625 
z
" id="DejaVuSans-22c5"/>
      <path d="M 31 75.875 
Q 24.46875 64.65625 21.28125 53.65625 
Q 18.109375 42.671875 18.109375 31.390625 
Q 18.109375 20.125 21.3125 9.0625 
Q 24.515625 -2 31 -13.1875 
L 23.1875 -13.1875 
Q 15.875 -1.703125 12.234375 9.375 
Q 8.59375 20.453125 8.59375 31.390625 
Q 8.59375 42.28125 12.203125 53.3125 
Q 15.828125 64.359375 23.1875 75.875 
z
" id="DejaVuSans-28"/>
      <path d="M 8.015625 75.875 
L 15.828125 75.875 
Q 23.140625 64.359375 26.78125 53.3125 
Q 30.421875 42.28125 30.421875 31.390625 
Q 30.421875 20.453125 26.78125 9.375 
Q 23.140625 -1.703125 15.828125 -13.1875 
L 8.015625 -13.1875 
Q 14.5 -2 17.703125 9.0625 
Q 20.90625 20.125 20.90625 31.390625 
Q 20.90625 42.671875 17.703125 53.65625 
Q 14.5 64.65625 8.015625 75.875 
" id="DejaVuSans-29"/>
     </defs>
     <g style="fill:#262626;" transform="translate(67.351984 113.7165)rotate(-90)scale(0.143 -0.143)">
      <use transform="translate(64.226562 12.015625)" xlink:href="#DejaVuSans-302"/>
      <use transform="translate(0 0.828125)" xlink:href="#DejaVuSans-Oblique-78"/>
      <use transform="translate(63.550781 -15.578125)scale(0.7)" xlink:href="#DejaVuSans-22c5"/>
      <use transform="translate(88.536133 0.828125)" xlink:href="#DejaVuSans-28"/>
      <use transform="translate(127.549805 0.828125)" xlink:href="#DejaVuSans-Oblique-64"/>
      <use transform="translate(191.026367 0.828125)" xlink:href="#DejaVuSans-29"/>
     </g>
    </g>
   </g>
   <g id="line2d_7">
    <path clip-path="url(#pc63c70070a)" d="M 115.441654 146.290909 
L 118.608315 146.290909 
L 121.774976 80.455027 
L 124.941637 59.859781 
L 128.108298 51.518156 
L 131.274959 48.109091 
L 134.441621 57.637636 
L 137.608282 70.657718 
L 140.774943 83.281415 
L 143.941604 63.159109 
L 147.108265 57.128001 
L 150.274926 58.162913 
L 153.441587 61.710521 
L 156.608249 65.503653 
L 159.77491 66.657035 
L 162.941571 67.567361 
L 166.108232 81.508402 
L 169.274893 93.445675 
L 172.441554 100.922449 
L 175.608216 97.642675 
L 178.774877 101.884467 
L 181.941538 115.169282 
L 185.108199 129.433976 
L 188.27486 107.338615 
L 191.441521 115.322891 
L 194.608182 117.999975 
L 197.774844 116.84658 
L 200.941505 112.206227 
L 204.108166 118.638251 
L 207.274827 122.888544 
L 210.441488 122.948514 
L 213.608149 121.585298 
L 216.77481 124.960987 
L 219.941472 133.68947 
L 223.108133 130.78791 
L 226.274794 129.723537 
L 229.441455 137.133105 
L 232.608116 135.408771 
L 235.774777 134.336217 
L 238.941439 137.365663 
L 242.1081 138.062416 
L 245.274761 134.486614 
L 248.441422 141.773373 
L 251.608083 140.650594 
L 254.774744 138.64099 
L 257.941405 141.15073 
L 261.108067 136.540091 
L 264.274728 138.234397 
" style="fill:none;opacity:0.4;stroke:#000000;stroke-linecap:round;stroke-width:2;"/>
   </g>
   <g id="line2d_8">
    <path clip-path="url(#pc63c70070a)" d="M 115.441654 146.290909 
L 118.608315 146.290909 
L 121.774976 80.502061 
L 124.941637 48.109091 
L 128.108298 56.679642 
L 131.274959 59.085227 
L 134.441621 94.504433 
L 137.608282 113.011735 
L 140.774943 113.570297 
L 143.941604 114.087083 
L 147.108265 114.656207 
L 150.274926 124.97239 
L 153.441587 127.459921 
L 156.608249 127.96164 
L 159.77491 131.52432 
L 162.941571 133.657019 
L 166.108232 133.774809 
L 169.274893 135.520918 
L 172.441554 139.251793 
L 175.608216 140.313478 
L 178.774877 141.933809 
L 181.941538 143.91761 
L 185.108199 144.796164 
L 188.27486 142.628533 
L 191.441521 143.021118 
L 194.608182 143.264403 
L 197.774844 143.599319 
L 200.941505 143.468616 
L 204.108166 143.489101 
L 207.274827 143.930992 
L 210.441488 144.393624 
L 213.608149 144.531018 
L 216.77481 145.168623 
L 219.941472 145.279824 
L 223.108133 145.058164 
L 226.274794 145.088939 
L 229.441455 145.683021 
L 232.608116 145.741732 
L 235.774777 145.688763 
L 238.941439 145.796465 
L 242.1081 145.720268 
L 245.274761 145.714591 
L 248.441422 145.930043 
L 251.608083 145.946639 
L 254.774744 145.832126 
L 257.941405 145.807652 
L 261.108067 145.50845 
L 264.274728 145.421801 
" style="fill:none;opacity:0.4;stroke:#008000;stroke-linecap:round;stroke-width:2;"/>
   </g>
   <g id="line2d_9">
    <path clip-path="url(#pc63c70070a)" d="M 115.441654 146.290909 
L 118.608315 146.290909 
L 121.774976 83.285338 
L 124.941637 48.109091 
L 128.108298 66.758097 
L 131.274959 66.797519 
L 134.441621 71.367477 
L 137.608282 89.669815 
L 140.774943 94.324498 
L 143.941604 85.071315 
L 147.108265 86.229252 
L 150.274926 88.214675 
L 153.441587 98.810165 
L 156.608249 101.380443 
L 159.77491 111.224348 
L 162.941571 112.933119 
L 166.108232 114.716165 
L 169.274893 119.428058 
L 172.441554 122.983134 
L 175.608216 127.445391 
L 178.774877 131.517245 
L 181.941538 135.071546 
L 185.108199 136.026304 
L 188.27486 129.147022 
L 191.441521 130.082875 
L 194.608182 132.665679 
L 197.774844 132.621574 
L 200.941505 133.003381 
L 204.108166 133.750122 
L 207.274827 135.691954 
L 210.441488 136.551411 
L 213.608149 136.201922 
L 216.77481 137.361384 
L 219.941472 140.918903 
L 223.108133 140.571682 
L 226.274794 141.609253 
L 229.441455 142.911432 
L 232.608116 141.664129 
L 235.774777 142.396762 
L 238.941439 143.356745 
L 242.1081 143.573599 
L 245.274761 143.171958 
L 248.441422 144.009516 
L 251.608083 143.727367 
L 254.774744 143.004409 
L 257.941405 143.789259 
L 261.108067 142.862844 
L 264.274728 142.683497 
" style="fill:none;opacity:0.9;stroke:#ffa500;stroke-linecap:round;stroke-width:2;"/>
   </g>
   <g id="line2d_10">
    <path clip-path="url(#pc63c70070a)" d="M 115.441654 48.109091 
L 118.608315 48.109091 
L 121.774976 77.738066 
L 124.941637 51.970703 
L 128.108298 69.428433 
L 131.274959 71.98376 
L 134.441621 80.296659 
L 137.608282 86.994242 
L 140.774943 94.442886 
L 143.941604 87.707276 
L 147.108265 89.417345 
L 150.274926 96.80214 
L 153.441587 103.060446 
L 156.608249 105.489166 
L 159.77491 112.065572 
L 162.941571 112.697511 
L 166.108232 115.053141 
L 169.274893 117.984857 
L 172.441554 122.970801 
L 175.608216 125.959348 
L 178.774877 130.114116 
L 181.941538 132.794753 
L 185.108199 135.779186 
L 188.27486 129.657967 
L 191.441521 130.575687 
L 194.608182 132.614247 
L 197.774844 132.967348 
L 200.941505 132.800714 
L 204.108166 133.443545 
L 207.274827 135.926413 
L 210.441488 137.27497 
L 213.608149 136.769256 
L 216.77481 137.695735 
L 219.941472 140.730964 
L 223.108133 139.663581 
L 226.274794 141.673599 
L 229.441455 143.171266 
L 232.608116 142.139825 
L 235.774777 142.388388 
L 238.941439 142.668401 
L 242.1081 143.553339 
L 245.274761 142.764002 
L 248.441422 143.912429 
L 251.608083 143.528417 
L 254.774744 143.103746 
L 257.941405 144.055416 
L 261.108067 143.168667 
L 264.274728 142.802882 
" style="fill:none;stroke:#ffa500;stroke-dasharray:8.4,3.6;stroke-dashoffset:0;stroke-width:3;"/>
   </g>
   <g id="patch_3">
    <path d="M 108 151.2 
L 108 43.2 
" style="fill:none;stroke:#262626;stroke-linecap:square;stroke-linejoin:miter;stroke-width:1.25;"/>
   </g>
   <g id="patch_4">
    <path d="M 271.716381 151.2 
L 271.716381 43.2 
" style="fill:none;stroke:#262626;stroke-linecap:square;stroke-linejoin:miter;stroke-width:1.25;"/>
   </g>
   <g id="patch_5">
    <path d="M 108 151.2 
L 271.716381 151.2 
" style="fill:none;stroke:#262626;stroke-linecap:square;stroke-linejoin:miter;stroke-width:1.25;"/>
   </g>
   <g id="patch_6">
    <path d="M 108 43.2 
L 271.716381 43.2 
" style="fill:none;stroke:#262626;stroke-linecap:square;stroke-linejoin:miter;stroke-width:1.25;"/>
   </g>
   <g id="text_9">
    <!-- paris -->
    <defs>
     <path d="M 18.109375 8.203125 
L 18.109375 -20.796875 
L 9.078125 -20.796875 
L 9.078125 54.6875 
L 18.109375 54.6875 
L 18.109375 46.390625 
Q 20.953125 51.265625 25.265625 53.625 
Q 29.59375 56 35.59375 56 
Q 45.5625 56 51.78125 48.09375 
Q 58.015625 40.1875 58.015625 27.296875 
Q 58.015625 14.40625 51.78125 6.484375 
Q 45.5625 -1.421875 35.59375 -1.421875 
Q 29.59375 -1.421875 25.265625 0.953125 
Q 20.953125 3.328125 18.109375 8.203125 
M 48.6875 27.296875 
Q 48.6875 37.203125 44.609375 42.84375 
Q 40.53125 48.484375 33.40625 48.484375 
Q 26.265625 48.484375 22.1875 42.84375 
Q 18.109375 37.203125 18.109375 27.296875 
Q 18.109375 17.390625 22.1875 11.75 
Q 26.265625 6.109375 33.40625 6.109375 
Q 40.53125 6.109375 44.609375 11.75 
Q 48.6875 17.390625 48.6875 27.296875 
" id="DejaVuSans-70"/>
     <path d="M 34.28125 27.484375 
Q 23.390625 27.484375 19.1875 25 
Q 14.984375 22.515625 14.984375 16.5 
Q 14.984375 11.71875 18.140625 8.90625 
Q 21.296875 6.109375 26.703125 6.109375 
Q 34.1875 6.109375 38.703125 11.40625 
Q 43.21875 16.703125 43.21875 25.484375 
L 43.21875 27.484375 
z
M 52.203125 31.203125 
L 52.203125 0 
L 43.21875 0 
L 43.21875 8.296875 
Q 40.140625 3.328125 35.546875 0.953125 
Q 30.953125 -1.421875 24.3125 -1.421875 
Q 15.921875 -1.421875 10.953125 3.296875 
Q 6 8.015625 6 15.921875 
Q 6 25.140625 12.171875 29.828125 
Q 18.359375 34.515625 30.609375 34.515625 
L 43.21875 34.515625 
L 43.21875 35.40625 
Q 43.21875 41.609375 39.140625 45 
Q 35.0625 48.390625 27.6875 48.390625 
Q 23 48.390625 18.546875 47.265625 
Q 14.109375 46.140625 10.015625 43.890625 
L 10.015625 52.203125 
Q 14.9375 54.109375 19.578125 55.046875 
Q 24.21875 56 28.609375 56 
Q 40.484375 56 46.34375 49.84375 
Q 52.203125 43.703125 52.203125 31.203125 
" id="DejaVuSans-61"/>
     <path d="M 41.109375 46.296875 
Q 39.59375 47.171875 37.8125 47.578125 
Q 36.03125 48 33.890625 48 
Q 26.265625 48 22.1875 43.046875 
Q 18.109375 38.09375 18.109375 28.8125 
L 18.109375 0 
L 9.078125 0 
L 9.078125 54.6875 
L 18.109375 54.6875 
L 18.109375 46.1875 
Q 20.953125 51.171875 25.484375 53.578125 
Q 30.03125 56 36.53125 56 
Q 37.453125 56 38.578125 55.875 
Q 39.703125 55.765625 41.0625 55.515625 
z
" id="DejaVuSans-72"/>
     <path d="M 9.421875 54.6875 
L 18.40625 54.6875 
L 18.40625 0 
L 9.421875 0 
z
M 9.421875 75.984375 
L 18.40625 75.984375 
L 18.40625 64.59375 
L 9.421875 64.59375 
z
" id="DejaVuSans-69"/>
     <path d="M 44.28125 53.078125 
L 44.28125 44.578125 
Q 40.484375 46.53125 36.375 47.5 
Q 32.28125 48.484375 27.875 48.484375 
Q 21.1875 48.484375 17.84375 46.4375 
Q 14.5 44.390625 14.5 40.28125 
Q 14.5 37.15625 16.890625 35.375 
Q 19.28125 33.59375 26.515625 31.984375 
L 29.59375 31.296875 
Q 39.15625 29.25 43.1875 25.515625 
Q 47.21875 21.78125 47.21875 15.09375 
Q 47.21875 7.46875 41.1875 3.015625 
Q 35.15625 -1.421875 24.609375 -1.421875 
Q 20.21875 -1.421875 15.453125 -0.5625 
Q 10.6875 0.296875 5.421875 2 
L 5.421875 11.28125 
Q 10.40625 8.6875 15.234375 7.390625 
Q 20.0625 6.109375 24.8125 6.109375 
Q 31.15625 6.109375 34.5625 8.28125 
Q 37.984375 10.453125 37.984375 14.40625 
Q 37.984375 18.0625 35.515625 20.015625 
Q 33.0625 21.96875 24.703125 23.78125 
L 21.578125 24.515625 
Q 13.234375 26.265625 9.515625 29.90625 
Q 5.8125 33.546875 5.8125 39.890625 
Q 5.8125 47.609375 11.28125 51.796875 
Q 16.75 56 26.8125 56 
Q 31.78125 56 36.171875 55.265625 
Q 40.578125 54.546875 44.28125 53.078125 
" id="DejaVuSans-73"/>
    </defs>
    <g style="fill:#262626;" transform="translate(170.689691 37.2)scale(0.156 -0.156)">
     <use xlink:href="#DejaVuSans-70"/>
     <use x="63.476562" xlink:href="#DejaVuSans-61"/>
     <use x="124.755859" xlink:href="#DejaVuSans-72"/>
     <use x="165.869141" xlink:href="#DejaVuSans-69"/>
     <use x="193.652344" xlink:href="#DejaVuSans-73"/>
    </g>
   </g>
   <g id="legend_1">
    <g id="line2d_11">
     <path d="M 194.294506 51.298437 
L 214.294506 51.298437 
" style="fill:none;opacity:0.4;stroke:#000000;stroke-linecap:round;stroke-width:2;"/>
    </g>
    <g id="line2d_12"/>
    <g id="text_10">
     <!-- bldg -->
     <defs>
      <path d="M 48.6875 27.296875 
Q 48.6875 37.203125 44.609375 42.84375 
Q 40.53125 48.484375 33.40625 48.484375 
Q 26.265625 48.484375 22.1875 42.84375 
Q 18.109375 37.203125 18.109375 27.296875 
Q 18.109375 17.390625 22.1875 11.75 
Q 26.265625 6.109375 33.40625 6.109375 
Q 40.53125 6.109375 44.609375 11.75 
Q 48.6875 17.390625 48.6875 27.296875 
M 18.109375 46.390625 
Q 20.953125 51.265625 25.265625 53.625 
Q 29.59375 56 35.59375 56 
Q 45.5625 56 51.78125 48.09375 
Q 58.015625 40.1875 58.015625 27.296875 
Q 58.015625 14.40625 51.78125 6.484375 
Q 45.5625 -1.421875 35.59375 -1.421875 
Q 29.59375 -1.421875 25.265625 0.953125 
Q 20.953125 3.328125 18.109375 8.203125 
L 18.109375 0 
L 9.078125 0 
L 9.078125 75.984375 
L 18.109375 75.984375 
z
" id="DejaVuSans-62"/>
      <path d="M 9.421875 75.984375 
L 18.40625 75.984375 
L 18.40625 0 
L 9.421875 0 
z
" id="DejaVuSans-6c"/>
      <path d="M 45.40625 46.390625 
L 45.40625 75.984375 
L 54.390625 75.984375 
L 54.390625 0 
L 45.40625 0 
L 45.40625 8.203125 
Q 42.578125 3.328125 38.25 0.953125 
Q 33.9375 -1.421875 27.875 -1.421875 
Q 17.96875 -1.421875 11.734375 6.484375 
Q 5.515625 14.40625 5.515625 27.296875 
Q 5.515625 40.1875 11.734375 48.09375 
Q 17.96875 56 27.875 56 
Q 33.9375 56 38.25 53.625 
Q 42.578125 51.265625 45.40625 46.390625 
M 14.796875 27.296875 
Q 14.796875 17.390625 18.875 11.75 
Q 22.953125 6.109375 30.078125 6.109375 
Q 37.203125 6.109375 41.296875 11.75 
Q 45.40625 17.390625 45.40625 27.296875 
Q 45.40625 37.203125 41.296875 42.84375 
Q 37.203125 48.484375 30.078125 48.484375 
Q 22.953125 48.484375 18.875 42.84375 
Q 14.796875 37.203125 14.796875 27.296875 
" id="DejaVuSans-64"/>
      <path d="M 45.40625 27.984375 
Q 45.40625 37.75 41.375 43.109375 
Q 37.359375 48.484375 30.078125 48.484375 
Q 22.859375 48.484375 18.828125 43.109375 
Q 14.796875 37.75 14.796875 27.984375 
Q 14.796875 18.265625 18.828125 12.890625 
Q 22.859375 7.515625 30.078125 7.515625 
Q 37.359375 7.515625 41.375 12.890625 
Q 45.40625 18.265625 45.40625 27.984375 
M 54.390625 6.78125 
Q 54.390625 -7.171875 48.1875 -13.984375 
Q 42 -20.796875 29.203125 -20.796875 
Q 24.46875 -20.796875 20.265625 -20.09375 
Q 16.0625 -19.390625 12.109375 -17.921875 
L 12.109375 -9.1875 
Q 16.0625 -11.328125 19.921875 -12.34375 
Q 23.78125 -13.375 27.78125 -13.375 
Q 36.625 -13.375 41.015625 -8.765625 
Q 45.40625 -4.15625 45.40625 5.171875 
L 45.40625 9.625 
Q 42.625 4.78125 38.28125 2.390625 
Q 33.9375 0 27.875 0 
Q 17.828125 0 11.671875 7.65625 
Q 5.515625 15.328125 5.515625 27.984375 
Q 5.515625 40.671875 11.671875 48.328125 
Q 17.828125 56 27.875 56 
Q 33.9375 56 38.28125 53.609375 
Q 42.625 51.21875 45.40625 46.390625 
L 45.40625 54.6875 
L 54.390625 54.6875 
z
" id="DejaVuSans-67"/>
     </defs>
     <g style="fill:#262626;" transform="translate(222.294506 54.798437)scale(0.1 -0.1)">
      <use xlink:href="#DejaVuSans-62"/>
      <use x="63.476562" xlink:href="#DejaVuSans-6c"/>
      <use x="91.259766" xlink:href="#DejaVuSans-64"/>
      <use x="154.736328" xlink:href="#DejaVuSans-67"/>
     </g>
    </g>
    <g id="line2d_13">
     <path d="M 194.294506 65.976562 
L 214.294506 65.976562 
" style="fill:none;opacity:0.4;stroke:#008000;stroke-linecap:round;stroke-width:2;"/>
    </g>
    <g id="line2d_14"/>
    <g id="text_11">
     <!-- pop -->
     <defs>
      <path d="M 30.609375 48.390625 
Q 23.390625 48.390625 19.1875 42.75 
Q 14.984375 37.109375 14.984375 27.296875 
Q 14.984375 17.484375 19.15625 11.84375 
Q 23.34375 6.203125 30.609375 6.203125 
Q 37.796875 6.203125 41.984375 11.859375 
Q 46.1875 17.53125 46.1875 27.296875 
Q 46.1875 37.015625 41.984375 42.703125 
Q 37.796875 48.390625 30.609375 48.390625 
M 30.609375 56 
Q 42.328125 56 49.015625 48.375 
Q 55.71875 40.765625 55.71875 27.296875 
Q 55.71875 13.875 49.015625 6.21875 
Q 42.328125 -1.421875 30.609375 -1.421875 
Q 18.84375 -1.421875 12.171875 6.21875 
Q 5.515625 13.875 5.515625 27.296875 
Q 5.515625 40.765625 12.171875 48.375 
Q 18.84375 56 30.609375 56 
" id="DejaVuSans-6f"/>
     </defs>
     <g style="fill:#262626;" transform="translate(222.294506 69.476562)scale(0.1 -0.1)">
      <use xlink:href="#DejaVuSans-70"/>
      <use x="63.476562" xlink:href="#DejaVuSans-6f"/>
      <use x="124.658203" xlink:href="#DejaVuSans-70"/>
     </g>
    </g>
    <g id="line2d_15">
     <path d="M 194.294506 80.654687 
L 214.294506 80.654687 
" style="fill:none;opacity:0.9;stroke:#ffa500;stroke-linecap:round;stroke-width:2;"/>
    </g>
    <g id="line2d_16"/>
    <g id="text_12">
     <!-- lum -->
     <defs>
      <path d="M 8.5 21.578125 
L 8.5 54.6875 
L 17.484375 54.6875 
L 17.484375 21.921875 
Q 17.484375 14.15625 20.5 10.265625 
Q 23.53125 6.390625 29.59375 6.390625 
Q 36.859375 6.390625 41.078125 11.03125 
Q 45.3125 15.671875 45.3125 23.6875 
L 45.3125 54.6875 
L 54.296875 54.6875 
L 54.296875 0 
L 45.3125 0 
L 45.3125 8.40625 
Q 42.046875 3.421875 37.71875 1 
Q 33.40625 -1.421875 27.6875 -1.421875 
Q 18.265625 -1.421875 13.375 4.4375 
Q 8.5 10.296875 8.5 21.578125 
M 31.109375 56 
z
" id="DejaVuSans-75"/>
      <path d="M 52 44.1875 
Q 55.375 50.25 60.0625 53.125 
Q 64.75 56 71.09375 56 
Q 79.640625 56 84.28125 50.015625 
Q 88.921875 44.046875 88.921875 33.015625 
L 88.921875 0 
L 79.890625 0 
L 79.890625 32.71875 
Q 79.890625 40.578125 77.09375 44.375 
Q 74.3125 48.1875 68.609375 48.1875 
Q 61.625 48.1875 57.5625 43.546875 
Q 53.515625 38.921875 53.515625 30.90625 
L 53.515625 0 
L 44.484375 0 
L 44.484375 32.71875 
Q 44.484375 40.625 41.703125 44.40625 
Q 38.921875 48.1875 33.109375 48.1875 
Q 26.21875 48.1875 22.15625 43.53125 
Q 18.109375 38.875 18.109375 30.90625 
L 18.109375 0 
L 9.078125 0 
L 9.078125 54.6875 
L 18.109375 54.6875 
L 18.109375 46.1875 
Q 21.1875 51.21875 25.484375 53.609375 
Q 29.78125 56 35.6875 56 
Q 41.65625 56 45.828125 52.96875 
Q 50 49.953125 52 44.1875 
" id="DejaVuSans-6d"/>
     </defs>
     <g style="fill:#262626;" transform="translate(222.294506 84.154687)scale(0.1 -0.1)">
      <use xlink:href="#DejaVuSans-6c"/>
      <use x="27.783203" xlink:href="#DejaVuSans-75"/>
      <use x="91.162109" xlink:href="#DejaVuSans-6d"/>
     </g>
    </g>
    <g id="line2d_17">
     <path d="M 194.294506 95.332812 
L 214.294506 95.332812 
" style="fill:none;stroke:#ffa500;stroke-dasharray:8.4,3.6;stroke-dashoffset:0;stroke-width:3;"/>
    </g>
    <g id="line2d_18"/>
    <g id="text_13">
     <!-- lum-pred -->
     <defs>
      <path d="M 4.890625 31.390625 
L 31.203125 31.390625 
L 31.203125 23.390625 
L 4.890625 23.390625 
z
" id="DejaVuSans-2d"/>
      <path d="M 56.203125 29.59375 
L 56.203125 25.203125 
L 14.890625 25.203125 
Q 15.484375 15.921875 20.484375 11.0625 
Q 25.484375 6.203125 34.421875 6.203125 
Q 39.59375 6.203125 44.453125 7.46875 
Q 49.3125 8.734375 54.109375 11.28125 
L 54.109375 2.78125 
Q 49.265625 0.734375 44.1875 -0.34375 
Q 39.109375 -1.421875 33.890625 -1.421875 
Q 20.796875 -1.421875 13.15625 6.1875 
Q 5.515625 13.8125 5.515625 26.8125 
Q 5.515625 40.234375 12.765625 48.109375 
Q 20.015625 56 32.328125 56 
Q 43.359375 56 49.78125 48.890625 
Q 56.203125 41.796875 56.203125 29.59375 
M 47.21875 32.234375 
Q 47.125 39.59375 43.09375 43.984375 
Q 39.0625 48.390625 32.421875 48.390625 
Q 24.90625 48.390625 20.390625 44.140625 
Q 15.875 39.890625 15.1875 32.171875 
z
" id="DejaVuSans-65"/>
     </defs>
     <g style="fill:#262626;" transform="translate(222.294506 98.832812)scale(0.1 -0.1)">
      <use xlink:href="#DejaVuSans-6c"/>
      <use x="27.783203" xlink:href="#DejaVuSans-75"/>
      <use x="91.162109" xlink:href="#DejaVuSans-6d"/>
      <use x="188.574219" xlink:href="#DejaVuSans-2d"/>
      <use x="224.658203" xlink:href="#DejaVuSans-70"/>
      <use x="288.134766" xlink:href="#DejaVuSans-72"/>
      <use x="329.216797" xlink:href="#DejaVuSans-65"/>
      <use x="390.740234" xlink:href="#DejaVuSans-64"/>
     </g>
    </g>
   </g>
  </g>
  <g id="axes_2">
   <g id="patch_7">
    <path d="M 276.627873 151.2 
L 440.344254 151.2 
L 440.344254 43.2 
L 276.627873 43.2 
z
" style="fill:#ffffff;"/>
   </g>
   <g id="matplotlib.axis_3">
    <g id="xtick_4">
     <g id="line2d_19">
      <g>
       <use style="fill:#262626;stroke:#262626;" x="284.069527" xlink:href="#m490e62205a" y="151.2"/>
      </g>
     </g>
     <g id="text_14">
      <!-- 0 -->
      <g style="fill:#262626;" transform="translate(279.933902 174.077969)scale(0.13 -0.13)">
       <use xlink:href="#DejaVuSans-30"/>
      </g>
     </g>
    </g>
    <g id="xtick_5">
     <g id="line2d_20">
      <g>
       <use style="fill:#262626;stroke:#262626;" x="347.40275" xlink:href="#m490e62205a" y="151.2"/>
      </g>
     </g>
     <g id="text_15">
      <!-- 20 -->
      <g style="fill:#262626;" transform="translate(339.1315 174.077969)scale(0.13 -0.13)">
       <use xlink:href="#DejaVuSans-32"/>
       <use x="63.623047" xlink:href="#DejaVuSans-30"/>
      </g>
     </g>
    </g>
    <g id="xtick_6">
     <g id="line2d_21">
      <g>
       <use style="fill:#262626;stroke:#262626;" x="410.735973" xlink:href="#m490e62205a" y="151.2"/>
      </g>
     </g>
     <g id="text_16">
      <!-- 40 -->
      <g style="fill:#262626;" transform="translate(402.464723 174.077969)scale(0.13 -0.13)">
       <use xlink:href="#DejaVuSans-34"/>
       <use x="63.623047" xlink:href="#DejaVuSans-30"/>
      </g>
     </g>
    </g>
    <g id="text_17">
     <!-- $d \ [km]$ -->
     <g style="fill:#262626;" transform="translate(334.891064 191.647328)scale(0.143 -0.143)">
      <use transform="translate(0 0.015625)" xlink:href="#DejaVuSans-Oblique-64"/>
      <use transform="translate(95.946941 0.015625)" xlink:href="#DejaVuSans-5b"/>
      <use transform="translate(134.960613 0.015625)" xlink:href="#DejaVuSans-Oblique-6b"/>
      <use transform="translate(192.870769 0.015625)" xlink:href="#DejaVuSans-Oblique-6d"/>
      <use transform="translate(290.282878 0.015625)" xlink:href="#DejaVuSans-5d"/>
     </g>
    </g>
   </g>
   <g id="matplotlib.axis_4">
    <g id="ytick_4">
     <g id="line2d_22">
      <g>
       <use style="fill:#262626;stroke:#262626;" x="276.627873" xlink:href="#me4450d3618" y="146.290909"/>
      </g>
     </g>
    </g>
    <g id="ytick_5">
     <g id="line2d_23">
      <g>
       <use style="fill:#262626;stroke:#262626;" x="276.627873" xlink:href="#me4450d3618" y="97.2"/>
      </g>
     </g>
    </g>
    <g id="ytick_6">
     <g id="line2d_24">
      <g>
       <use style="fill:#262626;stroke:#262626;" x="276.627873" xlink:href="#me4450d3618" y="48.109091"/>
      </g>
     </g>
    </g>
   </g>
   <g id="line2d_25">
    <path clip-path="url(#pe04652861a)" d="M 284.069527 146.290909 
L 287.236188 146.290909 
L 290.402849 100.870459 
L 293.56951 146.290909 
L 296.736171 146.290909 
L 299.902832 146.290909 
L 303.069493 112.205548 
L 306.236155 136.657409 
L 309.402816 82.700308 
L 312.569477 92.851175 
L 315.736138 48.109091 
L 318.902799 82.487188 
L 322.06946 69.225602 
L 325.236122 62.30331 
L 328.402783 90.433712 
L 331.569444 97.016889 
L 334.736105 141.528381 
L 337.902766 120.029997 
L 341.069427 130.950797 
L 344.236088 120.729697 
L 347.40275 124.656852 
L 350.569411 129.058246 
L 353.736072 121.520951 
L 356.902733 138.94111 
L 360.069394 144.184499 
L 363.236055 142.867059 
L 366.402716 135.00178 
L 369.569378 136.319498 
L 372.736039 139.287068 
L 375.9027 146.290909 
L 379.069361 146.290909 
L 382.236022 146.238272 
L 385.402683 137.071398 
L 388.569344 137.177362 
L 391.736006 135.945087 
L 394.902667 139.603413 
L 398.069328 136.372783 
L 401.235989 141.148476 
L 404.40265 138.547065 
L 407.569311 145.452889 
L 410.735973 137.078649 
L 413.902634 141.604336 
L 417.069295 137.967146 
L 420.235956 146.242766 
L 423.402617 146.070095 
L 426.569278 146.290909 
L 429.735939 146.147111 
L 432.902601 130.437253 
" style="fill:none;opacity:0.4;stroke:#000000;stroke-linecap:round;stroke-width:2;"/>
   </g>
   <g id="line2d_26">
    <path clip-path="url(#pe04652861a)" d="M 284.069527 146.290909 
L 287.236188 146.290909 
L 290.402849 146.290909 
L 293.56951 89.603211 
L 296.736171 48.109091 
L 299.902832 99.856384 
L 303.069493 51.220916 
L 306.236155 91.21095 
L 309.402816 129.841354 
L 312.569477 123.844693 
L 315.736138 115.770657 
L 318.902799 54.388978 
L 322.06946 58.342666 
L 325.236122 63.573146 
L 328.402783 89.737726 
L 331.569444 96.263275 
L 334.736105 101.506157 
L 337.902766 136.293744 
L 341.069427 126.942714 
L 344.236088 123.61583 
L 347.40275 133.900025 
L 350.569411 122.014159 
L 353.736072 125.36616 
L 356.902733 131.293395 
L 360.069394 145.27214 
L 363.236055 137.482359 
L 366.402716 132.318589 
L 369.569378 143.70243 
L 372.736039 145.591789 
L 375.9027 145.744153 
L 379.069361 143.104665 
L 382.236022 119.718551 
L 385.402683 138.378993 
L 388.569344 143.449664 
L 391.736006 145.93262 
L 394.902667 145.801096 
L 398.069328 145.960999 
L 401.235989 145.727051 
L 404.40265 137.120885 
L 407.569311 123.256618 
L 410.735973 132.573447 
L 413.902634 145.74595 
L 417.069295 141.676102 
L 420.235956 139.910082 
L 423.402617 140.750361 
L 426.569278 139.082486 
L 429.735939 131.653336 
L 432.902601 138.312989 
" style="fill:none;opacity:0.4;stroke:#008000;stroke-linecap:round;stroke-width:2;"/>
   </g>
   <g id="line2d_27">
    <path clip-path="url(#pe04652861a)" d="M 284.069527 146.290909 
L 287.236188 146.290909 
L 290.402849 134.857591 
L 293.56951 143.537515 
L 296.736171 146.290909 
L 299.902832 145.705931 
L 303.069493 137.098949 
L 306.236155 126.75574 
L 309.402816 75.223908 
L 312.569477 89.007989 
L 315.736138 56.517798 
L 318.902799 48.109091 
L 322.06946 67.817111 
L 325.236122 67.316007 
L 328.402783 84.670621 
L 331.569444 82.845041 
L 334.736105 104.967144 
L 337.902766 130.067028 
L 341.069427 128.909368 
L 344.236088 142.217373 
L 347.40275 141.007235 
L 350.569411 128.818789 
L 353.736072 127.390186 
L 356.902733 131.6872 
L 360.069394 144.624515 
L 363.236055 144.626687 
L 366.402716 141.985929 
L 369.569378 140.361498 
L 372.736039 140.5438 
L 375.9027 142.304239 
L 379.069361 144.192418 
L 382.236022 142.888937 
L 385.402683 139.206682 
L 388.569344 139.30868 
L 391.736006 139.428457 
L 394.902667 144.81627 
L 398.069328 143.925977 
L 401.235989 144.036448 
L 404.40265 136.911973 
L 407.569311 143.617307 
L 410.735973 142.655752 
L 413.902634 135.861913 
L 417.069295 130.271316 
L 420.235956 144.232934 
L 423.402617 142.993654 
L 426.569278 143.323473 
L 429.735939 142.984975 
L 432.902601 140.000862 
" style="fill:none;opacity:0.9;stroke:#ffa500;stroke-linecap:round;stroke-width:2;"/>
   </g>
   <g id="line2d_28">
    <path clip-path="url(#pe04652861a)" d="M 284.069527 48.109091 
L 287.236188 48.109091 
L 290.402849 128.551944 
L 293.56951 139.223308 
L 296.736171 75.351425 
L 299.902832 143.670558 
L 303.069493 133.824052 
L 306.236155 124.679225 
L 309.402816 103.424688 
L 312.569477 107.412775 
L 315.736138 71.202823 
L 318.902799 72.845502 
L 322.06946 86.562097 
L 325.236122 91.074951 
L 328.402783 93.991742 
L 331.569444 98.599188 
L 334.736105 115.663325 
L 337.902766 129.901497 
L 341.069427 130.197319 
L 344.236088 138.877808 
L 347.40275 139.360993 
L 350.569411 130.62611 
L 353.736072 131.759047 
L 356.902733 134.340433 
L 360.069394 143.978714 
L 363.236055 143.428575 
L 366.402716 141.831832 
L 369.569378 141.054634 
L 372.736039 142.331494 
L 375.9027 142.714908 
L 379.069361 143.840546 
L 382.236022 142.443207 
L 385.402683 140.84876 
L 388.569344 141.348767 
L 391.736006 141.494009 
L 394.902667 144.523334 
L 398.069328 144.02883 
L 401.235989 143.81073 
L 404.40265 139.410447 
L 407.569311 143.401832 
L 410.735973 142.741636 
L 413.902634 138.196147 
L 417.069295 137.661298 
L 420.235956 144.241292 
L 423.402617 143.095291 
L 426.569278 142.979722 
L 429.735939 143.344479 
L 432.902601 141.579106 
" style="fill:none;stroke:#ffa500;stroke-dasharray:8.4,3.6;stroke-dashoffset:0;stroke-width:3;"/>
   </g>
   <g id="patch_8">
    <path d="M 276.627873 151.2 
L 276.627873 43.2 
" style="fill:none;stroke:#262626;stroke-linecap:square;stroke-linejoin:miter;stroke-width:1.25;"/>
   </g>
   <g id="patch_9">
    <path d="M 440.344254 151.2 
L 440.344254 43.2 
" style="fill:none;stroke:#262626;stroke-linecap:square;stroke-linejoin:miter;stroke-width:1.25;"/>
   </g>
   <g id="patch_10">
    <path d="M 276.627873 151.2 
L 440.344254 151.2 
" style="fill:none;stroke:#262626;stroke-linecap:square;stroke-linejoin:miter;stroke-width:1.25;"/>
   </g>
   <g id="patch_11">
    <path d="M 276.627873 43.2 
L 440.344254 43.2 
" style="fill:none;stroke:#262626;stroke-linecap:square;stroke-linejoin:miter;stroke-width:1.25;"/>
   </g>
   <g id="text_18">
    <!-- barcelona -->
    <defs>
     <path d="M 48.78125 52.59375 
L 48.78125 44.1875 
Q 44.96875 46.296875 41.140625 47.34375 
Q 37.3125 48.390625 33.40625 48.390625 
Q 24.65625 48.390625 19.8125 42.84375 
Q 14.984375 37.3125 14.984375 27.296875 
Q 14.984375 17.28125 19.8125 11.734375 
Q 24.65625 6.203125 33.40625 6.203125 
Q 37.3125 6.203125 41.140625 7.25 
Q 44.96875 8.296875 48.78125 10.40625 
L 48.78125 2.09375 
Q 45.015625 0.34375 40.984375 -0.53125 
Q 36.96875 -1.421875 32.421875 -1.421875 
Q 20.0625 -1.421875 12.78125 6.34375 
Q 5.515625 14.109375 5.515625 27.296875 
Q 5.515625 40.671875 12.859375 48.328125 
Q 20.21875 56 33.015625 56 
Q 37.15625 56 41.109375 55.140625 
Q 45.0625 54.296875 48.78125 52.59375 
" id="DejaVuSans-63"/>
     <path d="M 54.890625 33.015625 
L 54.890625 0 
L 45.90625 0 
L 45.90625 32.71875 
Q 45.90625 40.484375 42.875 44.328125 
Q 39.84375 48.1875 33.796875 48.1875 
Q 26.515625 48.1875 22.3125 43.546875 
Q 18.109375 38.921875 18.109375 30.90625 
L 18.109375 0 
L 9.078125 0 
L 9.078125 54.6875 
L 18.109375 54.6875 
L 18.109375 46.1875 
Q 21.34375 51.125 25.703125 53.5625 
Q 30.078125 56 35.796875 56 
Q 45.21875 56 50.046875 50.171875 
Q 54.890625 44.34375 54.890625 33.015625 
" id="DejaVuSans-6e"/>
    </defs>
    <g style="fill:#262626;" transform="translate(319.799282 37.2)scale(0.156 -0.156)">
     <use xlink:href="#DejaVuSans-62"/>
     <use x="63.476562" xlink:href="#DejaVuSans-61"/>
     <use x="124.755859" xlink:href="#DejaVuSans-72"/>
     <use x="165.837891" xlink:href="#DejaVuSans-63"/>
     <use x="220.818359" xlink:href="#DejaVuSans-65"/>
     <use x="282.341797" xlink:href="#DejaVuSans-6c"/>
     <use x="310.125" xlink:href="#DejaVuSans-6f"/>
     <use x="371.306641" xlink:href="#DejaVuSans-6e"/>
     <use x="434.685547" xlink:href="#DejaVuSans-61"/>
    </g>
   </g>
  </g>
  <g id="axes_3">
   <g id="patch_12">
    <path d="M 445.255746 151.2 
L 608.972127 151.2 
L 608.972127 43.2 
L 445.255746 43.2 
z
" style="fill:#ffffff;"/>
   </g>
   <g id="matplotlib.axis_5">
    <g id="xtick_7">
     <g id="line2d_29">
      <g>
       <use style="fill:#262626;stroke:#262626;" x="452.697399" xlink:href="#m490e62205a" y="151.2"/>
      </g>
     </g>
     <g id="text_19">
      <!-- 0 -->
      <g style="fill:#262626;" transform="translate(448.561774 174.077969)scale(0.13 -0.13)">
       <use xlink:href="#DejaVuSans-30"/>
      </g>
     </g>
    </g>
    <g id="xtick_8">
     <g id="line2d_30">
      <g>
       <use style="fill:#262626;stroke:#262626;" x="516.030622" xlink:href="#m490e62205a" y="151.2"/>
      </g>
     </g>
     <g id="text_20">
      <!-- 20 -->
      <g style="fill:#262626;" transform="translate(507.759372 174.077969)scale(0.13 -0.13)">
       <use xlink:href="#DejaVuSans-32"/>
       <use x="63.623047" xlink:href="#DejaVuSans-30"/>
      </g>
     </g>
    </g>
    <g id="xtick_9">
     <g id="line2d_31">
      <g>
       <use style="fill:#262626;stroke:#262626;" x="579.363845" xlink:href="#m490e62205a" y="151.2"/>
      </g>
     </g>
     <g id="text_21">
      <!-- 40 -->
      <g style="fill:#262626;" transform="translate(571.092595 174.077969)scale(0.13 -0.13)">
       <use xlink:href="#DejaVuSans-34"/>
       <use x="63.623047" xlink:href="#DejaVuSans-30"/>
      </g>
     </g>
    </g>
    <g id="text_22">
     <!-- $d \ [km]$ -->
     <g style="fill:#262626;" transform="translate(503.518936 191.647328)scale(0.143 -0.143)">
      <use transform="translate(0 0.015625)" xlink:href="#DejaVuSans-Oblique-64"/>
      <use transform="translate(95.946941 0.015625)" xlink:href="#DejaVuSans-5b"/>
      <use transform="translate(134.960613 0.015625)" xlink:href="#DejaVuSans-Oblique-6b"/>
      <use transform="translate(192.870769 0.015625)" xlink:href="#DejaVuSans-Oblique-6d"/>
      <use transform="translate(290.282878 0.015625)" xlink:href="#DejaVuSans-5d"/>
     </g>
    </g>
   </g>
   <g id="matplotlib.axis_6">
    <g id="ytick_7">
     <g id="line2d_32">
      <g>
       <use style="fill:#262626;stroke:#262626;" x="445.255746" xlink:href="#me4450d3618" y="146.290909"/>
      </g>
     </g>
    </g>
    <g id="ytick_8">
     <g id="line2d_33">
      <g>
       <use style="fill:#262626;stroke:#262626;" x="445.255746" xlink:href="#me4450d3618" y="97.2"/>
      </g>
     </g>
    </g>
    <g id="ytick_9">
     <g id="line2d_34">
      <g>
       <use style="fill:#262626;stroke:#262626;" x="445.255746" xlink:href="#me4450d3618" y="48.109091"/>
      </g>
     </g>
    </g>
   </g>
   <g id="line2d_35">
    <path clip-path="url(#p7690b0cc2c)" d="M 452.697399 146.290909 
L 455.864061 146.290909 
L 459.030722 146.290909 
L 462.197383 146.290909 
L 465.364044 129.927273 
L 468.530705 91.722271 
L 471.697366 48.109091 
L 474.864027 67.584854 
L 478.030689 53.276555 
L 481.19735 60.073333 
L 484.364011 63.786182 
L 487.530672 102.857959 
L 490.697333 93.299127 
L 493.863994 88.284552 
L 497.030656 106.193025 
L 500.197317 111.905846 
L 503.363978 109.19707 
L 506.530639 121.223211 
L 509.6973 93.600012 
L 512.863961 59.64881 
L 516.030622 65.374963 
L 519.197284 83.351676 
L 522.363945 109.574194 
L 525.530606 102.256478 
L 528.697267 111.634311 
L 531.863928 117.050949 
L 535.030589 114.968311 
L 538.19725 122.022097 
L 541.363912 136.215311 
L 544.530573 134.455637 
L 547.697234 127.147443 
L 550.863895 130.664127 
L 554.030556 127.131795 
L 557.197217 133.705088 
L 560.363878 134.40992 
L 563.53054 137.097865 
L 566.697201 133.632701 
L 569.863862 130.202825 
L 573.030523 140.136541 
L 576.197184 144.472375 
L 579.363845 144.453142 
L 582.530507 141.465895 
L 585.697168 144.56014 
L 588.863829 140.264183 
L 592.03049 144.620716 
L 595.197151 146.290909 
L 598.363812 145.112727 
L 601.530473 145.741128 
" style="fill:none;opacity:0.4;stroke:#000000;stroke-linecap:round;stroke-width:2;"/>
   </g>
   <g id="line2d_36">
    <path clip-path="url(#p7690b0cc2c)" d="M 452.697399 146.290909 
L 455.864061 146.290909 
L 459.030722 146.290909 
L 462.197383 146.104473 
L 465.364044 134.884626 
L 468.530705 104.652563 
L 471.697366 70.67444 
L 474.864027 61.405797 
L 478.030689 57.208498 
L 481.19735 48.109091 
L 484.364011 76.093525 
L 487.530672 101.44853 
L 490.697333 101.64504 
L 493.863994 102.728878 
L 497.030656 109.982656 
L 500.197317 108.230954 
L 503.363978 115.852701 
L 506.530639 112.621722 
L 509.6973 107.363323 
L 512.863961 103.792439 
L 516.030622 110.508531 
L 519.197284 121.067554 
L 522.363945 129.293908 
L 525.530606 119.704075 
L 528.697267 127.910873 
L 531.863928 129.702671 
L 535.030589 130.797281 
L 538.19725 136.051472 
L 541.363912 141.983358 
L 544.530573 142.776885 
L 547.697234 141.670361 
L 550.863895 138.478269 
L 554.030556 135.810104 
L 557.197217 140.7596 
L 560.363878 142.489354 
L 563.53054 143.675882 
L 566.697201 143.068507 
L 569.863862 143.71257 
L 573.030523 145.743495 
L 576.197184 145.820049 
L 579.363845 145.289312 
L 582.530507 144.010492 
L 585.697168 145.081544 
L 588.863829 145.075977 
L 592.03049 145.670603 
L 595.197151 145.852333 
L 598.363812 145.609484 
L 601.530473 145.62971 
" style="fill:none;opacity:0.4;stroke:#008000;stroke-linecap:round;stroke-width:2;"/>
   </g>
   <g id="line2d_37">
    <path clip-path="url(#p7690b0cc2c)" d="M 452.697399 146.290909 
L 455.864061 146.290909 
L 459.030722 142.807761 
L 462.197383 141.923962 
L 465.364044 130.70226 
L 468.530705 105.419898 
L 471.697366 67.7259 
L 474.864027 48.109091 
L 478.030689 49.980755 
L 481.19735 70.683402 
L 484.364011 63.530296 
L 487.530672 82.64392 
L 490.697333 92.527436 
L 493.863994 85.141355 
L 497.030656 99.039655 
L 500.197317 109.243538 
L 503.363978 109.546751 
L 506.530639 114.635927 
L 509.6973 104.075276 
L 512.863961 98.36581 
L 516.030622 87.824874 
L 519.197284 98.082403 
L 522.363945 114.911669 
L 525.530606 119.172508 
L 528.697267 117.949768 
L 531.863928 119.462387 
L 535.030589 119.392222 
L 538.19725 123.554227 
L 541.363912 129.632478 
L 544.530573 128.571637 
L 547.697234 129.22039 
L 550.863895 131.303666 
L 554.030556 133.244726 
L 557.197217 137.434846 
L 560.363878 137.187313 
L 563.53054 139.320073 
L 566.697201 140.384595 
L 569.863862 138.876807 
L 573.030523 141.450481 
L 576.197184 143.203706 
L 579.363845 144.105293 
L 582.530507 144.743078 
L 585.697168 144.879256 
L 588.863829 144.844845 
L 592.03049 144.537032 
L 595.197151 145.445317 
L 598.363812 145.408459 
L 601.530473 145.303164 
" style="fill:none;opacity:0.9;stroke:#ffa500;stroke-linecap:round;stroke-width:2;"/>
   </g>
   <g id="line2d_38">
    <path clip-path="url(#p7690b0cc2c)" d="M 452.697399 48.109091 
L 455.864061 48.109091 
L 459.030722 137.180912 
L 462.197383 139.069298 
L 465.364044 130.529915 
L 468.530705 99.749541 
L 471.697366 68.01814 
L 474.864027 54.459852 
L 478.030689 58.133725 
L 481.19735 68.530815 
L 484.364011 67.636829 
L 487.530672 86.391192 
L 490.697333 92.605706 
L 493.863994 92.403444 
L 497.030656 101.381268 
L 500.197317 104.832213 
L 503.363978 106.467101 
L 506.530639 116.552431 
L 509.6973 104.084871 
L 512.863961 97.733512 
L 516.030622 94.843942 
L 519.197284 99.768956 
L 522.363945 113.457021 
L 525.530606 118.504323 
L 528.697267 121.099293 
L 531.863928 123.329279 
L 535.030589 122.181394 
L 538.19725 128.070678 
L 541.363912 131.995908 
L 544.530573 132.281583 
L 547.697234 132.274237 
L 550.863895 133.911574 
L 554.030556 135.030388 
L 557.197217 137.807028 
L 560.363878 138.353473 
L 563.53054 139.423965 
L 566.697201 140.466759 
L 569.863862 139.852962 
L 573.030523 142.154556 
L 576.197184 143.463546 
L 579.363845 143.785551 
L 582.530507 144.418597 
L 585.697168 144.605198 
L 588.863829 144.531528 
L 592.03049 144.3636 
L 595.197151 145.384953 
L 598.363812 145.276639 
L 601.530473 145.359285 
" style="fill:none;stroke:#ffa500;stroke-dasharray:8.4,3.6;stroke-dashoffset:0;stroke-width:3;"/>
   </g>
   <g id="patch_13">
    <path d="M 445.255746 151.2 
L 445.255746 43.2 
" style="fill:none;stroke:#262626;stroke-linecap:square;stroke-linejoin:miter;stroke-width:1.25;"/>
   </g>
   <g id="patch_14">
    <path d="M 608.972127 151.2 
L 608.972127 43.2 
" style="fill:none;stroke:#262626;stroke-linecap:square;stroke-linejoin:miter;stroke-width:1.25;"/>
   </g>
   <g id="patch_15">
    <path d="M 445.255746 151.2 
L 608.972127 151.2 
" style="fill:none;stroke:#262626;stroke-linecap:square;stroke-linejoin:miter;stroke-width:1.25;"/>
   </g>
   <g id="patch_16">
    <path d="M 445.255746 43.2 
L 608.972127 43.2 
" style="fill:none;stroke:#262626;stroke-linecap:square;stroke-linejoin:miter;stroke-width:1.25;"/>
   </g>
   <g id="text_23">
    <!-- rio de janeiro -->
    <defs>
     <path id="DejaVuSans-20"/>
     <path d="M 9.421875 54.6875 
L 18.40625 54.6875 
L 18.40625 -0.984375 
Q 18.40625 -11.421875 14.421875 -16.109375 
Q 10.453125 -20.796875 1.609375 -20.796875 
L -1.8125 -20.796875 
L -1.8125 -13.1875 
L 0.59375 -13.1875 
Q 5.71875 -13.1875 7.5625 -10.8125 
Q 9.421875 -8.453125 9.421875 -0.984375 
z
M 9.421875 75.984375 
L 18.40625 75.984375 
L 18.40625 64.59375 
L 9.421875 64.59375 
z
" id="DejaVuSans-6a"/>
    </defs>
    <g style="fill:#262626;" transform="translate(475.42553 37.2)scale(0.156 -0.156)">
     <use xlink:href="#DejaVuSans-72"/>
     <use x="41.113281" xlink:href="#DejaVuSans-69"/>
     <use x="68.896484" xlink:href="#DejaVuSans-6f"/>
     <use x="130.078125" xlink:href="#DejaVuSans-20"/>
     <use x="161.865234" xlink:href="#DejaVuSans-64"/>
     <use x="225.341797" xlink:href="#DejaVuSans-65"/>
     <use x="286.865234" xlink:href="#DejaVuSans-20"/>
     <use x="318.652344" xlink:href="#DejaVuSans-6a"/>
     <use x="346.435547" xlink:href="#DejaVuSans-61"/>
     <use x="407.714844" xlink:href="#DejaVuSans-6e"/>
     <use x="471.09375" xlink:href="#DejaVuSans-65"/>
     <use x="532.617188" xlink:href="#DejaVuSans-69"/>
     <use x="560.400391" xlink:href="#DejaVuSans-72"/>
     <use x="601.482422" xlink:href="#DejaVuSans-6f"/>
    </g>
   </g>
  </g>
  <g id="axes_4">
   <g id="patch_17">
    <path d="M 613.883619 151.2 
L 777.6 151.2 
L 777.6 43.2 
L 613.883619 43.2 
z
" style="fill:#ffffff;"/>
   </g>
   <g id="matplotlib.axis_7">
    <g id="xtick_10">
     <g id="line2d_39">
      <g>
       <use style="fill:#262626;stroke:#262626;" x="621.325272" xlink:href="#m490e62205a" y="151.2"/>
      </g>
     </g>
     <g id="text_24">
      <!-- 0 -->
      <g style="fill:#262626;" transform="translate(617.189647 174.077969)scale(0.13 -0.13)">
       <use xlink:href="#DejaVuSans-30"/>
      </g>
     </g>
    </g>
    <g id="xtick_11">
     <g id="line2d_40">
      <g>
       <use style="fill:#262626;stroke:#262626;" x="684.658495" xlink:href="#m490e62205a" y="151.2"/>
      </g>
     </g>
     <g id="text_25">
      <!-- 20 -->
      <g style="fill:#262626;" transform="translate(676.387245 174.077969)scale(0.13 -0.13)">
       <use xlink:href="#DejaVuSans-32"/>
       <use x="63.623047" xlink:href="#DejaVuSans-30"/>
      </g>
     </g>
    </g>
    <g id="xtick_12">
     <g id="line2d_41">
      <g>
       <use style="fill:#262626;stroke:#262626;" x="747.991718" xlink:href="#m490e62205a" y="151.2"/>
      </g>
     </g>
     <g id="text_26">
      <!-- 40 -->
      <g style="fill:#262626;" transform="translate(739.720468 174.077969)scale(0.13 -0.13)">
       <use xlink:href="#DejaVuSans-34"/>
       <use x="63.623047" xlink:href="#DejaVuSans-30"/>
      </g>
     </g>
    </g>
    <g id="text_27">
     <!-- $d \ [km]$ -->
     <g style="fill:#262626;" transform="translate(672.146809 191.647328)scale(0.143 -0.143)">
      <use transform="translate(0 0.015625)" xlink:href="#DejaVuSans-Oblique-64"/>
      <use transform="translate(95.946941 0.015625)" xlink:href="#DejaVuSans-5b"/>
      <use transform="translate(134.960613 0.015625)" xlink:href="#DejaVuSans-Oblique-6b"/>
      <use transform="translate(192.870769 0.015625)" xlink:href="#DejaVuSans-Oblique-6d"/>
      <use transform="translate(290.282878 0.015625)" xlink:href="#DejaVuSans-5d"/>
     </g>
    </g>
   </g>
   <g id="matplotlib.axis_8">
    <g id="ytick_10">
     <g id="line2d_42">
      <g>
       <use style="fill:#262626;stroke:#262626;" x="613.883619" xlink:href="#me4450d3618" y="146.290909"/>
      </g>
     </g>
    </g>
    <g id="ytick_11">
     <g id="line2d_43">
      <g>
       <use style="fill:#262626;stroke:#262626;" x="613.883619" xlink:href="#me4450d3618" y="97.2"/>
      </g>
     </g>
    </g>
    <g id="ytick_12">
     <g id="line2d_44">
      <g>
       <use style="fill:#262626;stroke:#262626;" x="613.883619" xlink:href="#me4450d3618" y="48.109091"/>
      </g>
     </g>
    </g>
   </g>
   <g id="line2d_45">
    <path clip-path="url(#p0e59c6340a)" d="M 621.325272 146.290909 
L 624.491933 146.290909 
L 627.658595 63.849352 
L 630.825256 48.968632 
L 633.991917 48.109091 
L 637.158578 68.744531 
L 640.325239 76.591922 
L 643.4919 105.923721 
L 646.658561 146.290909 
L 649.825223 146.290909 
L 652.991884 146.290909 
L 656.158545 146.290909 
L 659.325206 132.42115 
L 662.491867 141.613598 
L 665.658528 131.321816 
L 668.82519 137.847783 
L 671.991851 128.768951 
L 675.158512 111.487593 
L 678.325173 111.26128 
L 681.491834 114.290098 
L 684.658495 136.313177 
L 687.825156 124.701181 
L 690.991818 120.621331 
L 694.158479 118.684407 
L 697.32514 131.630606 
L 700.491801 113.539846 
L 703.658462 128.703711 
L 706.825123 143.061239 
L 709.991784 128.897175 
L 713.158446 133.307329 
L 716.325107 135.890901 
L 719.491768 138.813779 
L 722.658429 141.238622 
L 725.82509 135.660533 
L 728.991751 142.008496 
L 732.158413 137.187486 
L 735.325074 141.366455 
L 738.491735 140.027854 
L 741.658396 136.838999 
L 744.825057 134.956681 
L 747.991718 135.041849 
L 751.158379 132.818183 
L 754.325041 141.221526 
L 757.491702 143.917504 
L 760.658363 146.290909 
L 763.825024 146.185385 
L 766.991685 145.062572 
L 770.158346 146.290909 
" style="fill:none;opacity:0.4;stroke:#000000;stroke-linecap:round;stroke-width:2;"/>
   </g>
   <g id="line2d_46">
    <path clip-path="url(#p0e59c6340a)" d="M 621.325272 146.290909 
L 624.491933 146.290909 
L 627.658595 64.478141 
L 630.825256 48.109091 
L 633.991917 60.697531 
L 637.158578 94.532886 
L 640.325239 114.56709 
L 643.4919 133.853678 
L 646.658561 146.185035 
L 649.825223 146.290909 
L 652.991884 145.767762 
L 656.158545 144.673447 
L 659.325206 143.978021 
L 662.491867 143.649437 
L 665.658528 142.120152 
L 668.82519 143.522882 
L 671.991851 142.744575 
L 675.158512 139.45727 
L 678.325173 138.70408 
L 681.491834 139.575356 
L 684.658495 140.932464 
L 687.825156 141.550942 
L 690.991818 141.453632 
L 694.158479 138.041297 
L 697.32514 138.561567 
L 700.491801 138.936055 
L 703.658462 142.783201 
L 706.825123 142.764086 
L 709.991784 141.625138 
L 713.158446 141.116016 
L 716.325107 143.500656 
L 719.491768 144.74907 
L 722.658429 144.581773 
L 725.82509 144.96045 
L 728.991751 144.776486 
L 732.158413 144.448548 
L 735.325074 144.955566 
L 738.491735 144.87611 
L 741.658396 144.361323 
L 744.825057 144.383208 
L 747.991718 143.946006 
L 751.158379 144.415337 
L 754.325041 145.071052 
L 757.491702 146.171293 
L 760.658363 146.143102 
L 763.825024 146.231358 
L 766.991685 146.122631 
L 770.158346 146.234606 
" style="fill:none;opacity:0.4;stroke:#008000;stroke-linecap:round;stroke-width:2;"/>
   </g>
   <g id="line2d_47">
    <path clip-path="url(#p0e59c6340a)" d="M 621.325272 146.290909 
L 624.491933 146.290909 
L 627.658595 75.502161 
L 630.825256 48.109091 
L 633.991917 55.713196 
L 637.158578 84.914831 
L 640.325239 100.999797 
L 643.4919 126.738411 
L 646.658561 143.174929 
L 649.825223 145.02608 
L 652.991884 142.742389 
L 656.158545 143.880191 
L 659.325206 142.502333 
L 662.491867 142.693398 
L 665.658528 137.983808 
L 668.82519 139.492622 
L 671.991851 141.511234 
L 675.158512 137.526497 
L 678.325173 137.077183 
L 681.491834 138.384304 
L 684.658495 135.298624 
L 687.825156 133.747411 
L 690.991818 128.491805 
L 694.158479 129.714773 
L 697.32514 132.409166 
L 700.491801 130.529426 
L 703.658462 140.639559 
L 706.825123 142.122046 
L 709.991784 138.781546 
L 713.158446 136.45155 
L 716.325107 141.127136 
L 719.491768 143.827149 
L 722.658429 143.903464 
L 725.82509 142.416734 
L 728.991751 142.997826 
L 732.158413 142.09926 
L 735.325074 142.932702 
L 738.491735 144.299254 
L 741.658396 143.00625 
L 744.825057 142.48148 
L 747.991718 142.710173 
L 751.158379 144.20526 
L 754.325041 144.213493 
L 757.491702 145.630855 
L 760.658363 145.919736 
L 763.825024 145.896703 
L 766.991685 145.940846 
L 770.158346 146.121244 
" style="fill:none;opacity:0.9;stroke:#ffa500;stroke-linecap:round;stroke-width:2;"/>
   </g>
   <g id="line2d_48">
    <path clip-path="url(#p0e59c6340a)" d="M 621.325272 48.109091 
L 624.491933 48.109091 
L 627.658595 69.686154 
L 630.825256 52.053188 
L 633.991917 59.424774 
L 637.158578 81.863349 
L 640.325239 99.189635 
L 643.4919 124.098509 
L 646.658561 143.02652 
L 649.825223 142.281465 
L 652.991884 142.220574 
L 656.158545 141.962658 
L 659.325206 141.571909 
L 662.491867 141.651586 
L 665.658528 137.812136 
L 668.82519 138.851829 
L 671.991851 139.752861 
L 675.158512 134.619858 
L 678.325173 134.719485 
L 681.491834 135.675254 
L 684.658495 134.520253 
L 687.825156 133.474867 
L 690.991818 128.614651 
L 694.158479 130.570451 
L 697.32514 135.241543 
L 700.491801 131.1751 
L 703.658462 139.195263 
L 706.825123 141.749415 
L 709.991784 138.608094 
L 713.158446 137.189545 
L 716.325107 141.136777 
L 719.491768 143.09839 
L 722.658429 143.115341 
L 725.82509 141.887069 
L 728.991751 142.849675 
L 732.158413 142.042166 
L 735.325074 142.757352 
L 738.491735 143.54194 
L 741.658396 142.807381 
L 744.825057 142.371297 
L 747.991718 142.628132 
L 751.158379 143.534798 
L 754.325041 143.870043 
L 757.491702 145.338007 
L 760.658363 145.832914 
L 763.825024 145.79121 
L 766.991685 145.753546 
L 770.158346 145.974284 
" style="fill:none;stroke:#ffa500;stroke-dasharray:8.4,3.6;stroke-dashoffset:0;stroke-width:3;"/>
   </g>
   <g id="patch_18">
    <path d="M 613.883619 151.2 
L 613.883619 43.2 
" style="fill:none;stroke:#262626;stroke-linecap:square;stroke-linejoin:miter;stroke-width:1.25;"/>
   </g>
   <g id="patch_19">
    <path d="M 777.6 151.2 
L 777.6 43.2 
" style="fill:none;stroke:#262626;stroke-linecap:square;stroke-linejoin:miter;stroke-width:1.25;"/>
   </g>
   <g id="patch_20">
    <path d="M 613.883619 151.2 
L 777.6 151.2 
" style="fill:none;stroke:#262626;stroke-linecap:square;stroke-linejoin:miter;stroke-width:1.25;"/>
   </g>
   <g id="patch_21">
    <path d="M 613.883619 43.2 
L 777.6 43.2 
" style="fill:none;stroke:#262626;stroke-linecap:square;stroke-linejoin:miter;stroke-width:1.25;"/>
   </g>
   <g id="text_28">
    <!-- san francisco -->
    <defs>
     <path d="M 37.109375 75.984375 
L 37.109375 68.5 
L 28.515625 68.5 
Q 23.6875 68.5 21.796875 66.546875 
Q 19.921875 64.59375 19.921875 59.515625 
L 19.921875 54.6875 
L 34.71875 54.6875 
L 34.71875 47.703125 
L 19.921875 47.703125 
L 19.921875 0 
L 10.890625 0 
L 10.890625 47.703125 
L 2.296875 47.703125 
L 2.296875 54.6875 
L 10.890625 54.6875 
L 10.890625 58.5 
Q 10.890625 67.625 15.140625 71.796875 
Q 19.390625 75.984375 28.609375 75.984375 
z
" id="DejaVuSans-66"/>
    </defs>
    <g style="fill:#262626;" transform="translate(644.220372 37.2)scale(0.156 -0.156)">
     <use xlink:href="#DejaVuSans-73"/>
     <use x="52.099609" xlink:href="#DejaVuSans-61"/>
     <use x="113.378906" xlink:href="#DejaVuSans-6e"/>
     <use x="176.757812" xlink:href="#DejaVuSans-20"/>
     <use x="208.544922" xlink:href="#DejaVuSans-66"/>
     <use x="243.75" xlink:href="#DejaVuSans-72"/>
     <use x="284.863281" xlink:href="#DejaVuSans-61"/>
     <use x="346.142578" xlink:href="#DejaVuSans-6e"/>
     <use x="409.521484" xlink:href="#DejaVuSans-63"/>
     <use x="464.501953" xlink:href="#DejaVuSans-69"/>
     <use x="492.285156" xlink:href="#DejaVuSans-73"/>
     <use x="544.384766" xlink:href="#DejaVuSans-63"/>
     <use x="599.365234" xlink:href="#DejaVuSans-6f"/>
    </g>
   </g>
  </g>
  <g id="text_29">
   <!-- Benchmark luminosity profile -->
   <defs>
    <path d="M 19.671875 34.8125 
L 19.671875 8.109375 
L 35.5 8.109375 
Q 43.453125 8.109375 47.28125 11.40625 
Q 51.125 14.703125 51.125 21.484375 
Q 51.125 28.328125 47.28125 31.5625 
Q 43.453125 34.8125 35.5 34.8125 
z
M 19.671875 64.796875 
L 19.671875 42.828125 
L 34.28125 42.828125 
Q 41.5 42.828125 45.03125 45.53125 
Q 48.578125 48.25 48.578125 53.8125 
Q 48.578125 59.328125 45.03125 62.0625 
Q 41.5 64.796875 34.28125 64.796875 
z
M 9.8125 72.90625 
L 35.015625 72.90625 
Q 46.296875 72.90625 52.390625 68.21875 
Q 58.5 63.53125 58.5 54.890625 
Q 58.5 48.1875 55.375 44.234375 
Q 52.25 40.28125 46.1875 39.3125 
Q 53.46875 37.75 57.5 32.78125 
Q 61.53125 27.828125 61.53125 20.40625 
Q 61.53125 10.640625 54.890625 5.3125 
Q 48.25 0 35.984375 0 
L 9.8125 0 
z
" id="DejaVuSans-42"/>
    <path d="M 54.890625 33.015625 
L 54.890625 0 
L 45.90625 0 
L 45.90625 32.71875 
Q 45.90625 40.484375 42.875 44.328125 
Q 39.84375 48.1875 33.796875 48.1875 
Q 26.515625 48.1875 22.3125 43.546875 
Q 18.109375 38.921875 18.109375 30.90625 
L 18.109375 0 
L 9.078125 0 
L 9.078125 75.984375 
L 18.109375 75.984375 
L 18.109375 46.1875 
Q 21.34375 51.125 25.703125 53.5625 
Q 30.078125 56 35.796875 56 
Q 45.21875 56 50.046875 50.171875 
Q 54.890625 44.34375 54.890625 33.015625 
" id="DejaVuSans-68"/>
    <path d="M 9.078125 75.984375 
L 18.109375 75.984375 
L 18.109375 31.109375 
L 44.921875 54.6875 
L 56.390625 54.6875 
L 27.390625 29.109375 
L 57.625 0 
L 45.90625 0 
L 18.109375 26.703125 
L 18.109375 0 
L 9.078125 0 
z
" id="DejaVuSans-6b"/>
    <path d="M 18.3125 70.21875 
L 18.3125 54.6875 
L 36.8125 54.6875 
L 36.8125 47.703125 
L 18.3125 47.703125 
L 18.3125 18.015625 
Q 18.3125 11.328125 20.140625 9.421875 
Q 21.96875 7.515625 27.59375 7.515625 
L 36.8125 7.515625 
L 36.8125 0 
L 27.59375 0 
Q 17.1875 0 13.234375 3.875 
Q 9.28125 7.765625 9.28125 18.015625 
L 9.28125 47.703125 
L 2.6875 47.703125 
L 2.6875 54.6875 
L 9.28125 54.6875 
L 9.28125 70.21875 
z
" id="DejaVuSans-74"/>
    <path d="M 32.171875 -5.078125 
Q 28.375 -14.84375 24.75 -17.8125 
Q 21.140625 -20.796875 15.09375 -20.796875 
L 7.90625 -20.796875 
L 7.90625 -13.28125 
L 13.1875 -13.28125 
Q 16.890625 -13.28125 18.9375 -11.515625 
Q 21 -9.765625 23.484375 -3.21875 
L 25.09375 0.875 
L 2.984375 54.6875 
L 12.5 54.6875 
L 29.59375 11.921875 
L 46.6875 54.6875 
L 56.203125 54.6875 
z
" id="DejaVuSans-79"/>
   </defs>
   <g style="fill:#262626;" transform="translate(314.37125 16.4775)scale(0.16 -0.16)">
    <use xlink:href="#DejaVuSans-42"/>
    <use x="68.603516" xlink:href="#DejaVuSans-65"/>
    <use x="130.126953" xlink:href="#DejaVuSans-6e"/>
    <use x="193.505859" xlink:href="#DejaVuSans-63"/>
    <use x="248.486328" xlink:href="#DejaVuSans-68"/>
    <use x="311.865234" xlink:href="#DejaVuSans-6d"/>
    <use x="409.277344" xlink:href="#DejaVuSans-61"/>
    <use x="470.556641" xlink:href="#DejaVuSans-72"/>
    <use x="511.669922" xlink:href="#DejaVuSans-6b"/>
    <use x="569.580078" xlink:href="#DejaVuSans-20"/>
    <use x="601.367188" xlink:href="#DejaVuSans-6c"/>
    <use x="629.150391" xlink:href="#DejaVuSans-75"/>
    <use x="692.529297" xlink:href="#DejaVuSans-6d"/>
    <use x="789.941406" xlink:href="#DejaVuSans-69"/>
    <use x="817.724609" xlink:href="#DejaVuSans-6e"/>
    <use x="881.103516" xlink:href="#DejaVuSans-6f"/>
    <use x="942.285156" xlink:href="#DejaVuSans-73"/>
    <use x="994.384766" xlink:href="#DejaVuSans-69"/>
    <use x="1022.167969" xlink:href="#DejaVuSans-74"/>
    <use x="1061.376953" xlink:href="#DejaVuSans-79"/>
    <use x="1120.556641" xlink:href="#DejaVuSans-20"/>
    <use x="1152.34375" xlink:href="#DejaVuSans-70"/>
    <use x="1215.820312" xlink:href="#DejaVuSans-72"/>
    <use x="1256.902344" xlink:href="#DejaVuSans-6f"/>
    <use x="1318.083984" xlink:href="#DejaVuSans-66"/>
    <use x="1353.289062" xlink:href="#DejaVuSans-69"/>
    <use x="1381.072266" xlink:href="#DejaVuSans-6c"/>
    <use x="1408.855469" xlink:href="#DejaVuSans-65"/>
   </g>
  </g>
 </g>
 <defs>
  <clipPath id="pc63c70070a">
   <rect height="108" width="163.716381" x="108" y="43.2"/>
  </clipPath>
  <clipPath id="pe04652861a">
   <rect height="108" width="163.716381" x="276.627873" y="43.2"/>
  </clipPath>
  <clipPath id="p7690b0cc2c">
   <rect height="108" width="163.716381" x="445.255746" y="43.2"/>
  </clipPath>
  <clipPath id="p0e59c6340a">
   <rect height="108" width="163.716381" x="613.883619" y="43.2"/>
  </clipPath>
 </defs>
</svg>
