<?xml version="1.0" encoding="utf-8" standalone="no"?>
<!DOCTYPE svg PUBLIC "-//W3C//DTD SVG 1.1//EN"
  "http://www.w3.org/Graphics/SVG/1.1/DTD/svg11.dtd">
<!-- Created with matplotlib (http://matplotlib.org/) -->
<svg height="216pt" version="1.1" viewBox="0 0 648 216" width="648pt" xmlns="http://www.w3.org/2000/svg" xmlns:xlink="http://www.w3.org/1999/xlink">
 <defs>
  <style type="text/css">
*{stroke-linecap:butt;stroke-linejoin:round;}
  </style>
 </defs>
 <g id="figure_1">
  <g id="patch_1">
   <path d="M 0 216 
L 648 216 
L 648 0 
L 0 0 
z
" style="fill:#ffffff;"/>
  </g>
  <g id="axes_1">
   <g id="patch_2">
    <path d="M 81 151.2 
L 245.117647 151.2 
L 245.117647 43.2 
L 81 43.2 
z
" style="fill:#ffffff;"/>
   </g>
   <g id="matplotlib.axis_1">
    <g id="xtick_1">
     <g id="line2d_1">
      <defs>
       <path d="M 0 0 
L 0 6 
" id="mbe3514ff3d" style="stroke:#262626;"/>
      </defs>
      <g>
       <use style="fill:#262626;stroke:#262626;" x="88.459893" xlink:href="#mbe3514ff3d" y="151.2"/>
      </g>
     </g>
     <g id="text_1">
      <!-- 0 -->
      <defs>
       <path d="M 31.78125 66.40625 
Q 24.171875 66.40625 20.328125 58.90625 
Q 16.5 51.421875 16.5 36.375 
Q 16.5 21.390625 20.328125 13.890625 
Q 24.171875 6.390625 31.78125 6.390625 
Q 39.453125 6.390625 43.28125 13.890625 
Q 47.125 21.390625 47.125 36.375 
Q 47.125 51.421875 43.28125 58.90625 
Q 39.453125 66.40625 31.78125 66.40625 
M 31.78125 74.21875 
Q 44.046875 74.21875 50.515625 64.515625 
Q 56.984375 54.828125 56.984375 36.375 
Q 56.984375 17.96875 50.515625 8.265625 
Q 44.046875 -1.421875 31.78125 -1.421875 
Q 19.53125 -1.421875 13.0625 8.265625 
Q 6.59375 17.96875 6.59375 36.375 
Q 6.59375 54.828125 13.0625 64.515625 
Q 19.53125 74.21875 31.78125 74.21875 
" id="DejaVuSans-30"/>
      </defs>
      <g style="fill:#262626;" transform="translate(84.324268 174.077969)scale(0.13 -0.13)">
       <use xlink:href="#DejaVuSans-30"/>
      </g>
     </g>
    </g>
    <g id="xtick_2">
     <g id="line2d_2">
      <g>
       <use style="fill:#262626;stroke:#262626;" x="151.948345" xlink:href="#mbe3514ff3d" y="151.2"/>
      </g>
     </g>
     <g id="text_2">
      <!-- 20 -->
      <defs>
       <path d="M 19.1875 8.296875 
L 53.609375 8.296875 
L 53.609375 0 
L 7.328125 0 
L 7.328125 8.296875 
Q 12.9375 14.109375 22.625 23.890625 
Q 32.328125 33.6875 34.8125 36.53125 
Q 39.546875 41.84375 41.421875 45.53125 
Q 43.3125 49.21875 43.3125 52.78125 
Q 43.3125 58.59375 39.234375 62.25 
Q 35.15625 65.921875 28.609375 65.921875 
Q 23.96875 65.921875 18.8125 64.3125 
Q 13.671875 62.703125 7.8125 59.421875 
L 7.8125 69.390625 
Q 13.765625 71.78125 18.9375 73 
Q 24.125 74.21875 28.421875 74.21875 
Q 39.75 74.21875 46.484375 68.546875 
Q 53.21875 62.890625 53.21875 53.421875 
Q 53.21875 48.921875 51.53125 44.890625 
Q 49.859375 40.875 45.40625 35.40625 
Q 44.1875 33.984375 37.640625 27.21875 
Q 31.109375 20.453125 19.1875 8.296875 
" id="DejaVuSans-32"/>
      </defs>
      <g style="fill:#262626;" transform="translate(143.677095 174.077969)scale(0.13 -0.13)">
       <use xlink:href="#DejaVuSans-32"/>
       <use x="63.623047" xlink:href="#DejaVuSans-30"/>
      </g>
     </g>
    </g>
    <g id="xtick_3">
     <g id="line2d_3">
      <g>
       <use style="fill:#262626;stroke:#262626;" x="215.436796" xlink:href="#mbe3514ff3d" y="151.2"/>
      </g>
     </g>
     <g id="text_3">
      <!-- 40 -->
      <defs>
       <path d="M 37.796875 64.3125 
L 12.890625 25.390625 
L 37.796875 25.390625 
z
M 35.203125 72.90625 
L 47.609375 72.90625 
L 47.609375 25.390625 
L 58.015625 25.390625 
L 58.015625 17.1875 
L 47.609375 17.1875 
L 47.609375 0 
L 37.796875 0 
L 37.796875 17.1875 
L 4.890625 17.1875 
L 4.890625 26.703125 
z
" id="DejaVuSans-34"/>
      </defs>
      <g style="fill:#262626;" transform="translate(207.165546 174.077969)scale(0.13 -0.13)">
       <use xlink:href="#DejaVuSans-34"/>
       <use x="63.623047" xlink:href="#DejaVuSans-30"/>
      </g>
     </g>
    </g>
    <g id="text_4">
     <!-- $d \ [km]$ -->
     <defs>
      <path d="M 41.796875 8.203125 
Q 38.1875 3.46875 33.25 1.015625 
Q 28.328125 -1.421875 22.3125 -1.421875 
Q 14.109375 -1.421875 9.34375 4.171875 
Q 4.59375 9.765625 4.59375 19.484375 
Q 4.59375 27.59375 7.46875 34.9375 
Q 10.359375 42.28125 15.828125 48.09375 
Q 19.4375 51.953125 23.96875 53.96875 
Q 28.515625 56 33.5 56 
Q 38.765625 56 42.796875 53.453125 
Q 46.828125 50.921875 49.03125 46.1875 
L 54.890625 75.984375 
L 63.921875 75.984375 
L 49.125 0 
L 40.09375 0 
z
M 13.921875 21.09375 
Q 13.921875 14.015625 17.109375 10.0625 
Q 20.3125 6.109375 25.984375 6.109375 
Q 30.171875 6.109375 33.765625 8.125 
Q 37.359375 10.15625 40.09375 14.109375 
Q 42.96875 18.21875 44.625 23.578125 
Q 46.296875 28.953125 46.296875 34.1875 
Q 46.296875 40.96875 43.09375 44.765625 
Q 39.890625 48.578125 34.28125 48.578125 
Q 30.03125 48.578125 26.359375 46.578125 
Q 22.703125 44.578125 20.125 40.828125 
Q 17.28125 36.765625 15.59375 31.390625 
Q 13.921875 26.03125 13.921875 21.09375 
" id="DejaVuSans-Oblique-64"/>
      <path d="M 8.59375 75.984375 
L 29.296875 75.984375 
L 29.296875 69 
L 17.578125 69 
L 17.578125 -6.203125 
L 29.296875 -6.203125 
L 29.296875 -13.1875 
L 8.59375 -13.1875 
z
" id="DejaVuSans-5b"/>
      <path d="M 18.3125 75.984375 
L 27.296875 75.984375 
L 18.703125 31.6875 
L 49.515625 54.6875 
L 61.1875 54.6875 
L 26.8125 28.515625 
L 51.90625 0 
L 41.015625 0 
L 17.671875 26.703125 
L 12.5 0 
L 3.515625 0 
z
" id="DejaVuSans-Oblique-6b"/>
      <path d="M 89.796875 33.015625 
L 83.40625 0 
L 74.421875 0 
L 80.71875 32.71875 
Q 81.109375 34.8125 81.296875 36.328125 
Q 81.5 37.84375 81.5 38.921875 
Q 81.5 43.3125 79.046875 45.75 
Q 76.609375 48.1875 72.21875 48.1875 
Q 65.671875 48.1875 60.546875 43.28125 
Q 55.421875 38.375 53.90625 30.515625 
L 47.90625 0 
L 38.921875 0 
L 45.3125 32.71875 
Q 45.703125 34.515625 45.890625 36.046875 
Q 46.09375 37.59375 46.09375 38.8125 
Q 46.09375 43.265625 43.65625 45.71875 
Q 41.21875 48.1875 36.921875 48.1875 
Q 30.28125 48.1875 25.140625 43.28125 
Q 20.015625 38.375 18.5 30.515625 
L 12.5 0 
L 3.515625 0 
L 14.203125 54.6875 
L 23.1875 54.6875 
L 21.484375 46.1875 
Q 25.140625 50.984375 30.046875 53.484375 
Q 34.96875 56 40.578125 56 
Q 46.53125 56 50.359375 52.875 
Q 54.203125 49.75 54.984375 44.1875 
Q 59.078125 49.953125 64.46875 52.96875 
Q 69.875 56 75.875 56 
Q 82.90625 56 86.734375 51.953125 
Q 90.578125 47.90625 90.578125 40.484375 
Q 90.578125 38.875 90.375 36.9375 
Q 90.1875 35.015625 89.796875 33.015625 
" id="DejaVuSans-Oblique-6d"/>
      <path d="M 30.421875 75.984375 
L 30.421875 -13.1875 
L 9.71875 -13.1875 
L 9.71875 -6.203125 
L 21.390625 -6.203125 
L 21.390625 69 
L 9.71875 69 
L 9.71875 75.984375 
z
" id="DejaVuSans-5d"/>
     </defs>
     <g style="fill:#262626;" transform="translate(139.463824 191.647328)scale(0.143 -0.143)">
      <use transform="translate(0 0.015625)" xlink:href="#DejaVuSans-Oblique-64"/>
      <use transform="translate(95.946941 0.015625)" xlink:href="#DejaVuSans-5b"/>
      <use transform="translate(134.960613 0.015625)" xlink:href="#DejaVuSans-Oblique-6b"/>
      <use transform="translate(192.870769 0.015625)" xlink:href="#DejaVuSans-Oblique-6d"/>
      <use transform="translate(290.282878 0.015625)" xlink:href="#DejaVuSans-5d"/>
     </g>
    </g>
   </g>
   <g id="matplotlib.axis_2">
    <g id="ytick_1">
     <g id="line2d_4">
      <defs>
       <path d="M 0 0 
L -6 0 
" id="mb98887103e" style="stroke:#262626;"/>
      </defs>
      <g>
       <use style="fill:#262626;stroke:#262626;" x="81" xlink:href="#mb98887103e" y="146.290909"/>
      </g>
     </g>
     <g id="text_5">
      <!-- 0.0 -->
      <defs>
       <path d="M 10.6875 12.40625 
L 21 12.40625 
L 21 0 
L 10.6875 0 
z
" id="DejaVuSans-2e"/>
      </defs>
      <g style="fill:#262626;" transform="translate(47.325937 151.229893)scale(0.13 -0.13)">
       <use xlink:href="#DejaVuSans-30"/>
       <use x="63.623047" xlink:href="#DejaVuSans-2e"/>
       <use x="95.410156" xlink:href="#DejaVuSans-30"/>
      </g>
     </g>
    </g>
    <g id="ytick_2">
     <g id="line2d_5">
      <g>
       <use style="fill:#262626;stroke:#262626;" x="81" xlink:href="#mb98887103e" y="97.2"/>
      </g>
     </g>
     <g id="text_6">
      <!-- 0.5 -->
      <defs>
       <path d="M 10.796875 72.90625 
L 49.515625 72.90625 
L 49.515625 64.59375 
L 19.828125 64.59375 
L 19.828125 46.734375 
Q 21.96875 47.46875 24.109375 47.828125 
Q 26.265625 48.1875 28.421875 48.1875 
Q 40.625 48.1875 47.75 41.5 
Q 54.890625 34.8125 54.890625 23.390625 
Q 54.890625 11.625 47.5625 5.09375 
Q 40.234375 -1.421875 26.90625 -1.421875 
Q 22.3125 -1.421875 17.546875 -0.640625 
Q 12.796875 0.140625 7.71875 1.703125 
L 7.71875 11.625 
Q 12.109375 9.234375 16.796875 8.0625 
Q 21.484375 6.890625 26.703125 6.890625 
Q 35.15625 6.890625 40.078125 11.328125 
Q 45.015625 15.765625 45.015625 23.390625 
Q 45.015625 31 40.078125 35.4375 
Q 35.15625 39.890625 26.703125 39.890625 
Q 22.75 39.890625 18.8125 39.015625 
Q 14.890625 38.140625 10.796875 36.28125 
z
" id="DejaVuSans-35"/>
      </defs>
      <g style="fill:#262626;" transform="translate(47.325937 102.138984)scale(0.13 -0.13)">
       <use xlink:href="#DejaVuSans-30"/>
       <use x="63.623047" xlink:href="#DejaVuSans-2e"/>
       <use x="95.410156" xlink:href="#DejaVuSans-35"/>
      </g>
     </g>
    </g>
    <g id="ytick_3">
     <g id="line2d_6">
      <g>
       <use style="fill:#262626;stroke:#262626;" x="81" xlink:href="#mb98887103e" y="48.109091"/>
      </g>
     </g>
     <g id="text_7">
      <!-- 1.0 -->
      <defs>
       <path d="M 12.40625 8.296875 
L 28.515625 8.296875 
L 28.515625 63.921875 
L 10.984375 60.40625 
L 10.984375 69.390625 
L 28.421875 72.90625 
L 38.28125 72.90625 
L 38.28125 8.296875 
L 54.390625 8.296875 
L 54.390625 0 
L 12.40625 0 
z
" id="DejaVuSans-31"/>
      </defs>
      <g style="fill:#262626;" transform="translate(47.325937 53.048075)scale(0.13 -0.13)">
       <use xlink:href="#DejaVuSans-31"/>
       <use x="63.623047" xlink:href="#DejaVuSans-2e"/>
       <use x="95.410156" xlink:href="#DejaVuSans-30"/>
      </g>
     </g>
    </g>
    <g id="text_8">
     <!-- $\hat x_{\cdot}(d)$ -->
     <defs>
      <path d="M -28.609375 79.984375 
L -21.390625 79.984375 
L -9.421875 61.625 
L -16.21875 61.625 
L -25 73.578125 
L -33.796875 61.625 
L -40.578125 61.625 
z
M -25 56 
z
" id="DejaVuSans-302"/>
      <path d="M 60.015625 54.6875 
L 34.90625 27.875 
L 50.296875 0 
L 39.984375 0 
L 28.421875 21.6875 
L 8.296875 0 
L -2.59375 0 
L 24.3125 28.8125 
L 10.015625 54.6875 
L 20.3125 54.6875 
L 30.8125 34.90625 
L 49.125 54.6875 
z
" id="DejaVuSans-Oblique-78"/>
      <path d="M 10.6875 40.921875 
L 21 40.921875 
L 21 28.515625 
L 10.6875 28.515625 
z
" id="DejaVuSans-22c5"/>
      <path d="M 31 75.875 
Q 24.46875 64.65625 21.28125 53.65625 
Q 18.109375 42.671875 18.109375 31.390625 
Q 18.109375 20.125 21.3125 9.0625 
Q 24.515625 -2 31 -13.1875 
L 23.1875 -13.1875 
Q 15.875 -1.703125 12.234375 9.375 
Q 8.59375 20.453125 8.59375 31.390625 
Q 8.59375 42.28125 12.203125 53.3125 
Q 15.828125 64.359375 23.1875 75.875 
z
" id="DejaVuSans-28"/>
      <path d="M 8.015625 75.875 
L 15.828125 75.875 
Q 23.140625 64.359375 26.78125 53.3125 
Q 30.421875 42.28125 30.421875 31.390625 
Q 30.421875 20.453125 26.78125 9.375 
Q 23.140625 -1.703125 15.828125 -13.1875 
L 8.015625 -13.1875 
Q 14.5 -2 17.703125 9.0625 
Q 20.90625 20.125 20.90625 31.390625 
Q 20.90625 42.671875 17.703125 53.65625 
Q 14.5 64.65625 8.015625 75.875 
" id="DejaVuSans-29"/>
     </defs>
     <g style="fill:#262626;" transform="translate(40.351984 113.7165)rotate(-90)scale(0.143 -0.143)">
      <use transform="translate(64.226562 12.015625)" xlink:href="#DejaVuSans-302"/>
      <use transform="translate(0 0.828125)" xlink:href="#DejaVuSans-Oblique-78"/>
      <use transform="translate(63.550781 -15.578125)scale(0.7)" xlink:href="#DejaVuSans-22c5"/>
      <use transform="translate(88.536133 0.828125)" xlink:href="#DejaVuSans-28"/>
      <use transform="translate(127.549805 0.828125)" xlink:href="#DejaVuSans-Oblique-64"/>
      <use transform="translate(191.026367 0.828125)" xlink:href="#DejaVuSans-29"/>
     </g>
    </g>
   </g>
   <g id="line2d_7">
    <path clip-path="url(#pd50d8ec797)" d="M 88.459893 146.290909 
L 91.634316 146.290909 
L 94.808738 48.109091 
L 97.983161 53.129643 
L 101.157583 58.927628 
L 104.332006 49.290711 
L 107.506428 49.417862 
L 110.680851 48.727733 
L 113.855274 66.068741 
L 117.029696 53.230891 
L 120.204119 57.50348 
L 123.378541 52.05973 
L 126.552964 70.813382 
L 129.727387 59.746266 
L 132.901809 64.45529 
L 136.076232 61.781588 
L 139.250654 72.154245 
L 142.425077 74.993422 
L 145.599499 70.218386 
L 148.773922 72.513241 
L 151.948345 77.572049 
L 155.122767 75.580969 
L 158.29719 84.584682 
L 161.471612 77.628159 
L 164.646035 82.102757 
L 167.820457 84.312733 
L 170.99488 100.816787 
L 174.169303 103.632662 
L 177.343725 96.043694 
L 180.518148 98.29947 
L 183.69257 93.91095 
L 186.866993 98.612044 
L 190.041415 115.394241 
L 193.215838 109.414416 
L 196.390261 112.225428 
L 199.564683 115.045102 
L 202.739106 123.559521 
L 205.913528 130.502427 
L 209.087951 123.421764 
L 212.262373 120.386361 
L 215.436796 119.039011 
L 218.611219 116.10196 
L 221.785641 104.869664 
L 224.960064 112.841684 
L 228.134486 113.524263 
L 231.308909 114.359691 
L 234.483331 117.305473 
L 237.657754 112.459314 
" style="fill:none;opacity:0.4;stroke:#000000;stroke-linecap:round;stroke-width:2;"/>
   </g>
   <g id="line2d_8">
    <path clip-path="url(#pd50d8ec797)" d="M 88.459893 146.290909 
L 91.634316 146.290909 
L 94.808738 59.244854 
L 97.983161 62.573483 
L 101.157583 61.063013 
L 104.332006 48.109091 
L 107.506428 62.536488 
L 110.680851 76.209915 
L 113.855274 85.686162 
L 117.029696 76.110049 
L 120.204119 61.137183 
L 123.378541 56.954485 
L 126.552964 65.555707 
L 129.727387 61.813994 
L 132.901809 68.874353 
L 136.076232 81.701423 
L 139.250654 79.088781 
L 142.425077 71.143759 
L 145.599499 76.818247 
L 148.773922 91.830053 
L 151.948345 95.238852 
L 155.122767 93.842239 
L 158.29719 105.423508 
L 161.471612 114.38944 
L 164.646035 116.435898 
L 167.820457 117.123472 
L 170.99488 119.259552 
L 174.169303 124.756981 
L 177.343725 121.289242 
L 180.518148 122.042669 
L 183.69257 125.270219 
L 186.866993 126.266457 
L 190.041415 126.717227 
L 193.215838 127.693844 
L 196.390261 128.597515 
L 199.564683 122.682328 
L 202.739106 121.874404 
L 205.913528 125.438652 
L 209.087951 129.974342 
L 212.262373 135.66848 
L 215.436796 138.675714 
L 218.611219 135.188522 
L 221.785641 135.570116 
L 224.960064 137.878215 
L 228.134486 138.808627 
L 231.308909 136.352587 
L 234.483331 138.314119 
L 237.657754 132.57643 
" style="fill:none;opacity:0.4;stroke:#008000;stroke-linecap:round;stroke-width:2;"/>
   </g>
   <g id="line2d_9">
    <path clip-path="url(#pd50d8ec797)" d="M 88.459893 146.290909 
L 91.634316 146.290909 
L 94.808738 77.834595 
L 97.983161 76.49665 
L 101.157583 56.283206 
L 104.332006 65.242237 
L 107.506428 48.109091 
L 110.680851 63.026097 
L 113.855274 63.518951 
L 117.029696 58.058706 
L 120.204119 59.544149 
L 123.378541 59.258238 
L 126.552964 65.87893 
L 129.727387 80.623209 
L 132.901809 78.382089 
L 136.076232 76.177866 
L 139.250654 82.733172 
L 142.425077 91.802807 
L 145.599499 94.752051 
L 148.773922 99.101466 
L 151.948345 101.651432 
L 155.122767 105.976078 
L 158.29719 107.690907 
L 161.471612 105.567952 
L 164.646035 103.92455 
L 167.820457 102.727905 
L 170.99488 104.836481 
L 174.169303 106.057821 
L 177.343725 108.649675 
L 180.518148 103.278083 
L 183.69257 105.430431 
L 186.866993 107.120774 
L 190.041415 115.583727 
L 193.215838 116.515137 
L 196.390261 118.360238 
L 199.564683 120.892622 
L 202.739106 124.300679 
L 205.913528 125.362749 
L 209.087951 121.963478 
L 212.262373 113.191509 
L 215.436796 114.963887 
L 218.611219 112.517581 
L 221.785641 107.392552 
L 224.960064 107.93466 
L 228.134486 111.313315 
L 231.308909 111.458127 
L 234.483331 111.756427 
L 237.657754 113.881826 
" style="fill:none;opacity:0.9;stroke:#ffa500;stroke-linecap:round;stroke-width:2;"/>
   </g>
   <g id="line2d_10">
    <path clip-path="url(#pd50d8ec797)" d="M 88.459893 48.109091 
L 91.634316 48.109091 
L 94.808738 91.636402 
L 97.983161 85.712941 
L 101.157583 60.430482 
L 104.332006 67.482531 
L 107.506428 61.75874 
L 110.680851 66.874314 
L 113.855274 71.73603 
L 117.029696 66.517004 
L 120.204119 67.058039 
L 123.378541 64.655895 
L 126.552964 67.789884 
L 129.727387 77.897624 
L 132.901809 80.318927 
L 136.076232 82.199286 
L 139.250654 82.2572 
L 142.425077 88.392831 
L 145.599499 93.685826 
L 148.773922 97.600893 
L 151.948345 98.653989 
L 155.122767 101.963479 
L 158.29719 106.586149 
L 161.471612 106.763046 
L 164.646035 106.527147 
L 167.820457 104.946634 
L 170.99488 108.11807 
L 174.169303 109.183835 
L 177.343725 111.759611 
L 180.518148 107.957545 
L 183.69257 108.654639 
L 186.866993 112.80548 
L 190.041415 120.273956 
L 193.215838 122.442483 
L 196.390261 122.154957 
L 199.564683 123.738867 
L 202.739106 129.888632 
L 205.913528 130.025361 
L 209.087951 124.373504 
L 212.262373 124.88092 
L 215.436796 126.24678 
L 218.611219 120.984583 
L 221.785641 125.196813 
L 224.960064 122.254169 
L 228.134486 123.91569 
L 231.308909 126.682773 
L 234.483331 122.427856 
L 237.657754 125.523305 
" style="fill:none;stroke:#ffa500;stroke-dasharray:8.4,3.6;stroke-dashoffset:0;stroke-width:3;"/>
   </g>
   <g id="patch_3">
    <path d="M 81 151.2 
L 81 43.2 
" style="fill:none;stroke:#262626;stroke-linecap:square;stroke-linejoin:miter;stroke-width:1.25;"/>
   </g>
   <g id="patch_4">
    <path d="M 245.117647 151.2 
L 245.117647 43.2 
" style="fill:none;stroke:#262626;stroke-linecap:square;stroke-linejoin:miter;stroke-width:1.25;"/>
   </g>
   <g id="patch_5">
    <path d="M 81 151.2 
L 245.117647 151.2 
" style="fill:none;stroke:#262626;stroke-linecap:square;stroke-linejoin:miter;stroke-width:1.25;"/>
   </g>
   <g id="patch_6">
    <path d="M 81 43.2 
L 245.117647 43.2 
" style="fill:none;stroke:#262626;stroke-linecap:square;stroke-linejoin:miter;stroke-width:1.25;"/>
   </g>
   <g id="text_9">
    <!-- shanghai -->
    <defs>
     <path d="M 44.28125 53.078125 
L 44.28125 44.578125 
Q 40.484375 46.53125 36.375 47.5 
Q 32.28125 48.484375 27.875 48.484375 
Q 21.1875 48.484375 17.84375 46.4375 
Q 14.5 44.390625 14.5 40.28125 
Q 14.5 37.15625 16.890625 35.375 
Q 19.28125 33.59375 26.515625 31.984375 
L 29.59375 31.296875 
Q 39.15625 29.25 43.1875 25.515625 
Q 47.21875 21.78125 47.21875 15.09375 
Q 47.21875 7.46875 41.1875 3.015625 
Q 35.15625 -1.421875 24.609375 -1.421875 
Q 20.21875 -1.421875 15.453125 -0.5625 
Q 10.6875 0.296875 5.421875 2 
L 5.421875 11.28125 
Q 10.40625 8.6875 15.234375 7.390625 
Q 20.0625 6.109375 24.8125 6.109375 
Q 31.15625 6.109375 34.5625 8.28125 
Q 37.984375 10.453125 37.984375 14.40625 
Q 37.984375 18.0625 35.515625 20.015625 
Q 33.0625 21.96875 24.703125 23.78125 
L 21.578125 24.515625 
Q 13.234375 26.265625 9.515625 29.90625 
Q 5.8125 33.546875 5.8125 39.890625 
Q 5.8125 47.609375 11.28125 51.796875 
Q 16.75 56 26.8125 56 
Q 31.78125 56 36.171875 55.265625 
Q 40.578125 54.546875 44.28125 53.078125 
" id="DejaVuSans-73"/>
     <path d="M 54.890625 33.015625 
L 54.890625 0 
L 45.90625 0 
L 45.90625 32.71875 
Q 45.90625 40.484375 42.875 44.328125 
Q 39.84375 48.1875 33.796875 48.1875 
Q 26.515625 48.1875 22.3125 43.546875 
Q 18.109375 38.921875 18.109375 30.90625 
L 18.109375 0 
L 9.078125 0 
L 9.078125 75.984375 
L 18.109375 75.984375 
L 18.109375 46.1875 
Q 21.34375 51.125 25.703125 53.5625 
Q 30.078125 56 35.796875 56 
Q 45.21875 56 50.046875 50.171875 
Q 54.890625 44.34375 54.890625 33.015625 
" id="DejaVuSans-68"/>
     <path d="M 34.28125 27.484375 
Q 23.390625 27.484375 19.1875 25 
Q 14.984375 22.515625 14.984375 16.5 
Q 14.984375 11.71875 18.140625 8.90625 
Q 21.296875 6.109375 26.703125 6.109375 
Q 34.1875 6.109375 38.703125 11.40625 
Q 43.21875 16.703125 43.21875 25.484375 
L 43.21875 27.484375 
z
M 52.203125 31.203125 
L 52.203125 0 
L 43.21875 0 
L 43.21875 8.296875 
Q 40.140625 3.328125 35.546875 0.953125 
Q 30.953125 -1.421875 24.3125 -1.421875 
Q 15.921875 -1.421875 10.953125 3.296875 
Q 6 8.015625 6 15.921875 
Q 6 25.140625 12.171875 29.828125 
Q 18.359375 34.515625 30.609375 34.515625 
L 43.21875 34.515625 
L 43.21875 35.40625 
Q 43.21875 41.609375 39.140625 45 
Q 35.0625 48.390625 27.6875 48.390625 
Q 23 48.390625 18.546875 47.265625 
Q 14.109375 46.140625 10.015625 43.890625 
L 10.015625 52.203125 
Q 14.9375 54.109375 19.578125 55.046875 
Q 24.21875 56 28.609375 56 
Q 40.484375 56 46.34375 49.84375 
Q 52.203125 43.703125 52.203125 31.203125 
" id="DejaVuSans-61"/>
     <path d="M 54.890625 33.015625 
L 54.890625 0 
L 45.90625 0 
L 45.90625 32.71875 
Q 45.90625 40.484375 42.875 44.328125 
Q 39.84375 48.1875 33.796875 48.1875 
Q 26.515625 48.1875 22.3125 43.546875 
Q 18.109375 38.921875 18.109375 30.90625 
L 18.109375 0 
L 9.078125 0 
L 9.078125 54.6875 
L 18.109375 54.6875 
L 18.109375 46.1875 
Q 21.34375 51.125 25.703125 53.5625 
Q 30.078125 56 35.796875 56 
Q 45.21875 56 50.046875 50.171875 
Q 54.890625 44.34375 54.890625 33.015625 
" id="DejaVuSans-6e"/>
     <path d="M 45.40625 27.984375 
Q 45.40625 37.75 41.375 43.109375 
Q 37.359375 48.484375 30.078125 48.484375 
Q 22.859375 48.484375 18.828125 43.109375 
Q 14.796875 37.75 14.796875 27.984375 
Q 14.796875 18.265625 18.828125 12.890625 
Q 22.859375 7.515625 30.078125 7.515625 
Q 37.359375 7.515625 41.375 12.890625 
Q 45.40625 18.265625 45.40625 27.984375 
M 54.390625 6.78125 
Q 54.390625 -7.171875 48.1875 -13.984375 
Q 42 -20.796875 29.203125 -20.796875 
Q 24.46875 -20.796875 20.265625 -20.09375 
Q 16.0625 -19.390625 12.109375 -17.921875 
L 12.109375 -9.1875 
Q 16.0625 -11.328125 19.921875 -12.34375 
Q 23.78125 -13.375 27.78125 -13.375 
Q 36.625 -13.375 41.015625 -8.765625 
Q 45.40625 -4.15625 45.40625 5.171875 
L 45.40625 9.625 
Q 42.625 4.78125 38.28125 2.390625 
Q 33.9375 0 27.875 0 
Q 17.828125 0 11.671875 7.65625 
Q 5.515625 15.328125 5.515625 27.984375 
Q 5.515625 40.671875 11.671875 48.328125 
Q 17.828125 56 27.875 56 
Q 33.9375 56 38.28125 53.609375 
Q 42.625 51.21875 45.40625 46.390625 
L 45.40625 54.6875 
L 54.390625 54.6875 
z
" id="DejaVuSans-67"/>
     <path d="M 9.421875 54.6875 
L 18.40625 54.6875 
L 18.40625 0 
L 9.421875 0 
z
M 9.421875 75.984375 
L 18.40625 75.984375 
L 18.40625 64.59375 
L 9.421875 64.59375 
z
" id="DejaVuSans-69"/>
    </defs>
    <g style="fill:#262626;" transform="translate(127.487167 37.2)scale(0.156 -0.156)">
     <use xlink:href="#DejaVuSans-73"/>
     <use x="52.099609" xlink:href="#DejaVuSans-68"/>
     <use x="115.478516" xlink:href="#DejaVuSans-61"/>
     <use x="176.757812" xlink:href="#DejaVuSans-6e"/>
     <use x="240.136719" xlink:href="#DejaVuSans-67"/>
     <use x="303.613281" xlink:href="#DejaVuSans-68"/>
     <use x="366.992188" xlink:href="#DejaVuSans-61"/>
     <use x="428.271484" xlink:href="#DejaVuSans-69"/>
    </g>
   </g>
   <g id="legend_1">
    <g id="line2d_11">
     <path d="M 167.695772 51.298437 
L 187.695772 51.298437 
" style="fill:none;opacity:0.4;stroke:#000000;stroke-linecap:round;stroke-width:2;"/>
    </g>
    <g id="line2d_12"/>
    <g id="text_10">
     <!-- bldg -->
     <defs>
      <path d="M 48.6875 27.296875 
Q 48.6875 37.203125 44.609375 42.84375 
Q 40.53125 48.484375 33.40625 48.484375 
Q 26.265625 48.484375 22.1875 42.84375 
Q 18.109375 37.203125 18.109375 27.296875 
Q 18.109375 17.390625 22.1875 11.75 
Q 26.265625 6.109375 33.40625 6.109375 
Q 40.53125 6.109375 44.609375 11.75 
Q 48.6875 17.390625 48.6875 27.296875 
M 18.109375 46.390625 
Q 20.953125 51.265625 25.265625 53.625 
Q 29.59375 56 35.59375 56 
Q 45.5625 56 51.78125 48.09375 
Q 58.015625 40.1875 58.015625 27.296875 
Q 58.015625 14.40625 51.78125 6.484375 
Q 45.5625 -1.421875 35.59375 -1.421875 
Q 29.59375 -1.421875 25.265625 0.953125 
Q 20.953125 3.328125 18.109375 8.203125 
L 18.109375 0 
L 9.078125 0 
L 9.078125 75.984375 
L 18.109375 75.984375 
z
" id="DejaVuSans-62"/>
      <path d="M 9.421875 75.984375 
L 18.40625 75.984375 
L 18.40625 0 
L 9.421875 0 
z
" id="DejaVuSans-6c"/>
      <path d="M 45.40625 46.390625 
L 45.40625 75.984375 
L 54.390625 75.984375 
L 54.390625 0 
L 45.40625 0 
L 45.40625 8.203125 
Q 42.578125 3.328125 38.25 0.953125 
Q 33.9375 -1.421875 27.875 -1.421875 
Q 17.96875 -1.421875 11.734375 6.484375 
Q 5.515625 14.40625 5.515625 27.296875 
Q 5.515625 40.1875 11.734375 48.09375 
Q 17.96875 56 27.875 56 
Q 33.9375 56 38.25 53.625 
Q 42.578125 51.265625 45.40625 46.390625 
M 14.796875 27.296875 
Q 14.796875 17.390625 18.875 11.75 
Q 22.953125 6.109375 30.078125 6.109375 
Q 37.203125 6.109375 41.296875 11.75 
Q 45.40625 17.390625 45.40625 27.296875 
Q 45.40625 37.203125 41.296875 42.84375 
Q 37.203125 48.484375 30.078125 48.484375 
Q 22.953125 48.484375 18.875 42.84375 
Q 14.796875 37.203125 14.796875 27.296875 
" id="DejaVuSans-64"/>
     </defs>
     <g style="fill:#262626;" transform="translate(195.695772 54.798437)scale(0.1 -0.1)">
      <use xlink:href="#DejaVuSans-62"/>
      <use x="63.476562" xlink:href="#DejaVuSans-6c"/>
      <use x="91.259766" xlink:href="#DejaVuSans-64"/>
      <use x="154.736328" xlink:href="#DejaVuSans-67"/>
     </g>
    </g>
    <g id="line2d_13">
     <path d="M 167.695772 65.976562 
L 187.695772 65.976562 
" style="fill:none;opacity:0.4;stroke:#008000;stroke-linecap:round;stroke-width:2;"/>
    </g>
    <g id="line2d_14"/>
    <g id="text_11">
     <!-- pop -->
     <defs>
      <path d="M 18.109375 8.203125 
L 18.109375 -20.796875 
L 9.078125 -20.796875 
L 9.078125 54.6875 
L 18.109375 54.6875 
L 18.109375 46.390625 
Q 20.953125 51.265625 25.265625 53.625 
Q 29.59375 56 35.59375 56 
Q 45.5625 56 51.78125 48.09375 
Q 58.015625 40.1875 58.015625 27.296875 
Q 58.015625 14.40625 51.78125 6.484375 
Q 45.5625 -1.421875 35.59375 -1.421875 
Q 29.59375 -1.421875 25.265625 0.953125 
Q 20.953125 3.328125 18.109375 8.203125 
M 48.6875 27.296875 
Q 48.6875 37.203125 44.609375 42.84375 
Q 40.53125 48.484375 33.40625 48.484375 
Q 26.265625 48.484375 22.1875 42.84375 
Q 18.109375 37.203125 18.109375 27.296875 
Q 18.109375 17.390625 22.1875 11.75 
Q 26.265625 6.109375 33.40625 6.109375 
Q 40.53125 6.109375 44.609375 11.75 
Q 48.6875 17.390625 48.6875 27.296875 
" id="DejaVuSans-70"/>
      <path d="M 30.609375 48.390625 
Q 23.390625 48.390625 19.1875 42.75 
Q 14.984375 37.109375 14.984375 27.296875 
Q 14.984375 17.484375 19.15625 11.84375 
Q 23.34375 6.203125 30.609375 6.203125 
Q 37.796875 6.203125 41.984375 11.859375 
Q 46.1875 17.53125 46.1875 27.296875 
Q 46.1875 37.015625 41.984375 42.703125 
Q 37.796875 48.390625 30.609375 48.390625 
M 30.609375 56 
Q 42.328125 56 49.015625 48.375 
Q 55.71875 40.765625 55.71875 27.296875 
Q 55.71875 13.875 49.015625 6.21875 
Q 42.328125 -1.421875 30.609375 -1.421875 
Q 18.84375 -1.421875 12.171875 6.21875 
Q 5.515625 13.875 5.515625 27.296875 
Q 5.515625 40.765625 12.171875 48.375 
Q 18.84375 56 30.609375 56 
" id="DejaVuSans-6f"/>
     </defs>
     <g style="fill:#262626;" transform="translate(195.695772 69.476562)scale(0.1 -0.1)">
      <use xlink:href="#DejaVuSans-70"/>
      <use x="63.476562" xlink:href="#DejaVuSans-6f"/>
      <use x="124.658203" xlink:href="#DejaVuSans-70"/>
     </g>
    </g>
    <g id="line2d_15">
     <path d="M 167.695772 80.654687 
L 187.695772 80.654687 
" style="fill:none;opacity:0.9;stroke:#ffa500;stroke-linecap:round;stroke-width:2;"/>
    </g>
    <g id="line2d_16"/>
    <g id="text_12">
     <!-- lum -->
     <defs>
      <path d="M 8.5 21.578125 
L 8.5 54.6875 
L 17.484375 54.6875 
L 17.484375 21.921875 
Q 17.484375 14.15625 20.5 10.265625 
Q 23.53125 6.390625 29.59375 6.390625 
Q 36.859375 6.390625 41.078125 11.03125 
Q 45.3125 15.671875 45.3125 23.6875 
L 45.3125 54.6875 
L 54.296875 54.6875 
L 54.296875 0 
L 45.3125 0 
L 45.3125 8.40625 
Q 42.046875 3.421875 37.71875 1 
Q 33.40625 -1.421875 27.6875 -1.421875 
Q 18.265625 -1.421875 13.375 4.4375 
Q 8.5 10.296875 8.5 21.578125 
M 31.109375 56 
z
" id="DejaVuSans-75"/>
      <path d="M 52 44.1875 
Q 55.375 50.25 60.0625 53.125 
Q 64.75 56 71.09375 56 
Q 79.640625 56 84.28125 50.015625 
Q 88.921875 44.046875 88.921875 33.015625 
L 88.921875 0 
L 79.890625 0 
L 79.890625 32.71875 
Q 79.890625 40.578125 77.09375 44.375 
Q 74.3125 48.1875 68.609375 48.1875 
Q 61.625 48.1875 57.5625 43.546875 
Q 53.515625 38.921875 53.515625 30.90625 
L 53.515625 0 
L 44.484375 0 
L 44.484375 32.71875 
Q 44.484375 40.625 41.703125 44.40625 
Q 38.921875 48.1875 33.109375 48.1875 
Q 26.21875 48.1875 22.15625 43.53125 
Q 18.109375 38.875 18.109375 30.90625 
L 18.109375 0 
L 9.078125 0 
L 9.078125 54.6875 
L 18.109375 54.6875 
L 18.109375 46.1875 
Q 21.1875 51.21875 25.484375 53.609375 
Q 29.78125 56 35.6875 56 
Q 41.65625 56 45.828125 52.96875 
Q 50 49.953125 52 44.1875 
" id="DejaVuSans-6d"/>
     </defs>
     <g style="fill:#262626;" transform="translate(195.695772 84.154687)scale(0.1 -0.1)">
      <use xlink:href="#DejaVuSans-6c"/>
      <use x="27.783203" xlink:href="#DejaVuSans-75"/>
      <use x="91.162109" xlink:href="#DejaVuSans-6d"/>
     </g>
    </g>
    <g id="line2d_17">
     <path d="M 167.695772 95.332812 
L 187.695772 95.332812 
" style="fill:none;stroke:#ffa500;stroke-dasharray:8.4,3.6;stroke-dashoffset:0;stroke-width:3;"/>
    </g>
    <g id="line2d_18"/>
    <g id="text_13">
     <!-- lum-pred -->
     <defs>
      <path d="M 4.890625 31.390625 
L 31.203125 31.390625 
L 31.203125 23.390625 
L 4.890625 23.390625 
z
" id="DejaVuSans-2d"/>
      <path d="M 41.109375 46.296875 
Q 39.59375 47.171875 37.8125 47.578125 
Q 36.03125 48 33.890625 48 
Q 26.265625 48 22.1875 43.046875 
Q 18.109375 38.09375 18.109375 28.8125 
L 18.109375 0 
L 9.078125 0 
L 9.078125 54.6875 
L 18.109375 54.6875 
L 18.109375 46.1875 
Q 20.953125 51.171875 25.484375 53.578125 
Q 30.03125 56 36.53125 56 
Q 37.453125 56 38.578125 55.875 
Q 39.703125 55.765625 41.0625 55.515625 
z
" id="DejaVuSans-72"/>
      <path d="M 56.203125 29.59375 
L 56.203125 25.203125 
L 14.890625 25.203125 
Q 15.484375 15.921875 20.484375 11.0625 
Q 25.484375 6.203125 34.421875 6.203125 
Q 39.59375 6.203125 44.453125 7.46875 
Q 49.3125 8.734375 54.109375 11.28125 
L 54.109375 2.78125 
Q 49.265625 0.734375 44.1875 -0.34375 
Q 39.109375 -1.421875 33.890625 -1.421875 
Q 20.796875 -1.421875 13.15625 6.1875 
Q 5.515625 13.8125 5.515625 26.8125 
Q 5.515625 40.234375 12.765625 48.109375 
Q 20.015625 56 32.328125 56 
Q 43.359375 56 49.78125 48.890625 
Q 56.203125 41.796875 56.203125 29.59375 
M 47.21875 32.234375 
Q 47.125 39.59375 43.09375 43.984375 
Q 39.0625 48.390625 32.421875 48.390625 
Q 24.90625 48.390625 20.390625 44.140625 
Q 15.875 39.890625 15.1875 32.171875 
z
" id="DejaVuSans-65"/>
     </defs>
     <g style="fill:#262626;" transform="translate(195.695772 98.832812)scale(0.1 -0.1)">
      <use xlink:href="#DejaVuSans-6c"/>
      <use x="27.783203" xlink:href="#DejaVuSans-75"/>
      <use x="91.162109" xlink:href="#DejaVuSans-6d"/>
      <use x="188.574219" xlink:href="#DejaVuSans-2d"/>
      <use x="224.658203" xlink:href="#DejaVuSans-70"/>
      <use x="288.134766" xlink:href="#DejaVuSans-72"/>
      <use x="329.216797" xlink:href="#DejaVuSans-65"/>
      <use x="390.740234" xlink:href="#DejaVuSans-64"/>
     </g>
    </g>
   </g>
  </g>
  <g id="axes_2">
   <g id="patch_7">
    <path d="M 250.041176 151.2 
L 414.158824 151.2 
L 414.158824 43.2 
L 250.041176 43.2 
z
" style="fill:#ffffff;"/>
   </g>
   <g id="matplotlib.axis_3">
    <g id="xtick_4">
     <g id="line2d_19">
      <g>
       <use style="fill:#262626;stroke:#262626;" x="257.50107" xlink:href="#mbe3514ff3d" y="151.2"/>
      </g>
     </g>
     <g id="text_14">
      <!-- 0 -->
      <g style="fill:#262626;" transform="translate(253.365445 174.077969)scale(0.13 -0.13)">
       <use xlink:href="#DejaVuSans-30"/>
      </g>
     </g>
    </g>
    <g id="xtick_5">
     <g id="line2d_20">
      <g>
       <use style="fill:#262626;stroke:#262626;" x="320.989521" xlink:href="#mbe3514ff3d" y="151.2"/>
      </g>
     </g>
     <g id="text_15">
      <!-- 20 -->
      <g style="fill:#262626;" transform="translate(312.718271 174.077969)scale(0.13 -0.13)">
       <use xlink:href="#DejaVuSans-32"/>
       <use x="63.623047" xlink:href="#DejaVuSans-30"/>
      </g>
     </g>
    </g>
    <g id="xtick_6">
     <g id="line2d_21">
      <g>
       <use style="fill:#262626;stroke:#262626;" x="384.477972" xlink:href="#mbe3514ff3d" y="151.2"/>
      </g>
     </g>
     <g id="text_16">
      <!-- 40 -->
      <g style="fill:#262626;" transform="translate(376.206722 174.077969)scale(0.13 -0.13)">
       <use xlink:href="#DejaVuSans-34"/>
       <use x="63.623047" xlink:href="#DejaVuSans-30"/>
      </g>
     </g>
    </g>
    <g id="text_17">
     <!-- $d \ [km]$ -->
     <g style="fill:#262626;" transform="translate(308.505 191.647328)scale(0.143 -0.143)">
      <use transform="translate(0 0.015625)" xlink:href="#DejaVuSans-Oblique-64"/>
      <use transform="translate(95.946941 0.015625)" xlink:href="#DejaVuSans-5b"/>
      <use transform="translate(134.960613 0.015625)" xlink:href="#DejaVuSans-Oblique-6b"/>
      <use transform="translate(192.870769 0.015625)" xlink:href="#DejaVuSans-Oblique-6d"/>
      <use transform="translate(290.282878 0.015625)" xlink:href="#DejaVuSans-5d"/>
     </g>
    </g>
   </g>
   <g id="matplotlib.axis_4">
    <g id="ytick_4">
     <g id="line2d_22">
      <g>
       <use style="fill:#262626;stroke:#262626;" x="250.041176" xlink:href="#mb98887103e" y="146.290909"/>
      </g>
     </g>
    </g>
    <g id="ytick_5">
     <g id="line2d_23">
      <g>
       <use style="fill:#262626;stroke:#262626;" x="250.041176" xlink:href="#mb98887103e" y="97.2"/>
      </g>
     </g>
    </g>
    <g id="ytick_6">
     <g id="line2d_24">
      <g>
       <use style="fill:#262626;stroke:#262626;" x="250.041176" xlink:href="#mb98887103e" y="48.109091"/>
      </g>
     </g>
    </g>
   </g>
   <g id="line2d_25">
    <path clip-path="url(#pc00c091069)" d="M 257.50107 146.290909 
L 260.675492 146.290909 
L 263.849915 100.870459 
L 267.024337 146.290909 
L 270.19876 146.290909 
L 273.373182 146.290909 
L 276.547605 112.205548 
L 279.722028 136.657409 
L 282.89645 82.700308 
L 286.070873 92.851175 
L 289.245295 48.109091 
L 292.419718 82.487188 
L 295.59414 69.225602 
L 298.768563 62.30331 
L 301.942986 90.433712 
L 305.117408 97.016889 
L 308.291831 141.528381 
L 311.466253 120.029997 
L 314.640676 130.950797 
L 317.815098 120.729697 
L 320.989521 124.656852 
L 324.163944 129.058246 
L 327.338366 121.520951 
L 330.512789 138.94111 
L 333.687211 144.184499 
L 336.861634 142.867059 
L 340.036056 135.00178 
L 343.210479 136.319498 
L 346.384902 139.287068 
L 349.559324 146.290909 
L 352.733747 146.290909 
L 355.908169 146.238272 
L 359.082592 137.071398 
L 362.257014 137.177362 
L 365.431437 135.945087 
L 368.60586 139.603413 
L 371.780282 136.372783 
L 374.954705 141.148476 
L 378.129127 138.547065 
L 381.30355 145.452889 
L 384.477972 137.078649 
L 387.652395 141.604336 
L 390.826818 137.967146 
L 394.00124 146.242766 
L 397.175663 146.070095 
L 400.350085 146.290909 
L 403.524508 146.147111 
L 406.69893 130.437253 
" style="fill:none;opacity:0.4;stroke:#000000;stroke-linecap:round;stroke-width:2;"/>
   </g>
   <g id="line2d_26">
    <path clip-path="url(#pc00c091069)" d="M 257.50107 146.290909 
L 260.675492 146.290909 
L 263.849915 146.290909 
L 267.024337 89.603211 
L 270.19876 48.109091 
L 273.373182 99.856384 
L 276.547605 51.220916 
L 279.722028 91.21095 
L 282.89645 129.841354 
L 286.070873 123.844693 
L 289.245295 115.770657 
L 292.419718 54.388978 
L 295.59414 58.342666 
L 298.768563 63.573146 
L 301.942986 89.737726 
L 305.117408 96.263275 
L 308.291831 101.506157 
L 311.466253 136.293744 
L 314.640676 126.942714 
L 317.815098 123.61583 
L 320.989521 133.900025 
L 324.163944 122.014159 
L 327.338366 125.36616 
L 330.512789 131.293395 
L 333.687211 145.27214 
L 336.861634 137.482359 
L 340.036056 132.318589 
L 343.210479 143.70243 
L 346.384902 145.591789 
L 349.559324 145.744153 
L 352.733747 143.104665 
L 355.908169 119.718551 
L 359.082592 138.378993 
L 362.257014 143.449664 
L 365.431437 145.93262 
L 368.60586 145.801096 
L 371.780282 145.960999 
L 374.954705 145.727051 
L 378.129127 137.120885 
L 381.30355 123.256618 
L 384.477972 132.573447 
L 387.652395 145.74595 
L 390.826818 141.676102 
L 394.00124 139.910082 
L 397.175663 140.750361 
L 400.350085 139.082486 
L 403.524508 131.653336 
L 406.69893 138.312989 
" style="fill:none;opacity:0.4;stroke:#008000;stroke-linecap:round;stroke-width:2;"/>
   </g>
   <g id="line2d_27">
    <path clip-path="url(#pc00c091069)" d="M 257.50107 146.290909 
L 260.675492 146.290909 
L 263.849915 134.857591 
L 267.024337 143.537515 
L 270.19876 146.290909 
L 273.373182 145.705931 
L 276.547605 137.098949 
L 279.722028 126.75574 
L 282.89645 75.223908 
L 286.070873 89.007989 
L 289.245295 56.517798 
L 292.419718 48.109091 
L 295.59414 67.817111 
L 298.768563 67.316007 
L 301.942986 84.670621 
L 305.117408 82.845041 
L 308.291831 104.967144 
L 311.466253 130.067028 
L 314.640676 128.909368 
L 317.815098 142.217373 
L 320.989521 141.007235 
L 324.163944 128.818789 
L 327.338366 127.390186 
L 330.512789 131.6872 
L 333.687211 144.624515 
L 336.861634 144.626687 
L 340.036056 141.985929 
L 343.210479 140.361498 
L 346.384902 140.5438 
L 349.559324 142.304239 
L 352.733747 144.192418 
L 355.908169 142.888937 
L 359.082592 139.206682 
L 362.257014 139.30868 
L 365.431437 139.428457 
L 368.60586 144.81627 
L 371.780282 143.925977 
L 374.954705 144.036448 
L 378.129127 136.911973 
L 381.30355 143.617307 
L 384.477972 142.655752 
L 387.652395 135.861913 
L 390.826818 130.271316 
L 394.00124 144.232934 
L 397.175663 142.993654 
L 400.350085 143.323473 
L 403.524508 142.984975 
L 406.69893 140.000862 
" style="fill:none;opacity:0.9;stroke:#ffa500;stroke-linecap:round;stroke-width:2;"/>
   </g>
   <g id="line2d_28">
    <path clip-path="url(#pc00c091069)" d="M 257.50107 48.109091 
L 260.675492 48.109091 
L 263.849915 128.551944 
L 267.024337 139.223308 
L 270.19876 75.351425 
L 273.373182 143.670558 
L 276.547605 133.824052 
L 279.722028 124.679225 
L 282.89645 103.424688 
L 286.070873 107.412775 
L 289.245295 71.202823 
L 292.419718 72.845502 
L 295.59414 86.562097 
L 298.768563 91.074951 
L 301.942986 93.991742 
L 305.117408 98.599188 
L 308.291831 115.663325 
L 311.466253 129.901497 
L 314.640676 130.197319 
L 317.815098 138.877808 
L 320.989521 139.360993 
L 324.163944 130.62611 
L 327.338366 131.759047 
L 330.512789 134.340433 
L 333.687211 143.978714 
L 336.861634 143.428575 
L 340.036056 141.831832 
L 343.210479 141.054634 
L 346.384902 142.331494 
L 349.559324 142.714908 
L 352.733747 143.840546 
L 355.908169 142.443207 
L 359.082592 140.84876 
L 362.257014 141.348767 
L 365.431437 141.494009 
L 368.60586 144.523334 
L 371.780282 144.02883 
L 374.954705 143.81073 
L 378.129127 139.410447 
L 381.30355 143.401832 
L 384.477972 142.741636 
L 387.652395 138.196147 
L 390.826818 137.661298 
L 394.00124 144.241292 
L 397.175663 143.095291 
L 400.350085 142.979722 
L 403.524508 143.344479 
L 406.69893 141.579106 
" style="fill:none;stroke:#ffa500;stroke-dasharray:8.4,3.6;stroke-dashoffset:0;stroke-width:3;"/>
   </g>
   <g id="patch_8">
    <path d="M 250.041176 151.2 
L 250.041176 43.2 
" style="fill:none;stroke:#262626;stroke-linecap:square;stroke-linejoin:miter;stroke-width:1.25;"/>
   </g>
   <g id="patch_9">
    <path d="M 414.158824 151.2 
L 414.158824 43.2 
" style="fill:none;stroke:#262626;stroke-linecap:square;stroke-linejoin:miter;stroke-width:1.25;"/>
   </g>
   <g id="patch_10">
    <path d="M 250.041176 151.2 
L 414.158824 151.2 
" style="fill:none;stroke:#262626;stroke-linecap:square;stroke-linejoin:miter;stroke-width:1.25;"/>
   </g>
   <g id="patch_11">
    <path d="M 250.041176 43.2 
L 414.158824 43.2 
" style="fill:none;stroke:#262626;stroke-linecap:square;stroke-linejoin:miter;stroke-width:1.25;"/>
   </g>
   <g id="text_18">
    <!-- barcelona -->
    <defs>
     <path d="M 48.78125 52.59375 
L 48.78125 44.1875 
Q 44.96875 46.296875 41.140625 47.34375 
Q 37.3125 48.390625 33.40625 48.390625 
Q 24.65625 48.390625 19.8125 42.84375 
Q 14.984375 37.3125 14.984375 27.296875 
Q 14.984375 17.28125 19.8125 11.734375 
Q 24.65625 6.203125 33.40625 6.203125 
Q 37.3125 6.203125 41.140625 7.25 
Q 44.96875 8.296875 48.78125 10.40625 
L 48.78125 2.09375 
Q 45.015625 0.34375 40.984375 -0.53125 
Q 36.96875 -1.421875 32.421875 -1.421875 
Q 20.0625 -1.421875 12.78125 6.34375 
Q 5.515625 14.109375 5.515625 27.296875 
Q 5.515625 40.671875 12.859375 48.328125 
Q 20.21875 56 33.015625 56 
Q 37.15625 56 41.109375 55.140625 
Q 45.0625 54.296875 48.78125 52.59375 
" id="DejaVuSans-63"/>
    </defs>
    <g style="fill:#262626;" transform="translate(293.413219 37.2)scale(0.156 -0.156)">
     <use xlink:href="#DejaVuSans-62"/>
     <use x="63.476562" xlink:href="#DejaVuSans-61"/>
     <use x="124.755859" xlink:href="#DejaVuSans-72"/>
     <use x="165.837891" xlink:href="#DejaVuSans-63"/>
     <use x="220.818359" xlink:href="#DejaVuSans-65"/>
     <use x="282.341797" xlink:href="#DejaVuSans-6c"/>
     <use x="310.125" xlink:href="#DejaVuSans-6f"/>
     <use x="371.306641" xlink:href="#DejaVuSans-6e"/>
     <use x="434.685547" xlink:href="#DejaVuSans-61"/>
    </g>
   </g>
   <g id="legend_2">
    <g id="line2d_29">
     <path d="M 336.736949 51.298437 
L 356.736949 51.298437 
" style="fill:none;opacity:0.4;stroke:#000000;stroke-linecap:round;stroke-width:2;"/>
    </g>
    <g id="line2d_30"/>
    <g id="text_19">
     <!-- bldg -->
     <g style="fill:#262626;" transform="translate(364.736949 54.798437)scale(0.1 -0.1)">
      <use xlink:href="#DejaVuSans-62"/>
      <use x="63.476562" xlink:href="#DejaVuSans-6c"/>
      <use x="91.259766" xlink:href="#DejaVuSans-64"/>
      <use x="154.736328" xlink:href="#DejaVuSans-67"/>
     </g>
    </g>
    <g id="line2d_31">
     <path d="M 336.736949 65.976562 
L 356.736949 65.976562 
" style="fill:none;opacity:0.4;stroke:#008000;stroke-linecap:round;stroke-width:2;"/>
    </g>
    <g id="line2d_32"/>
    <g id="text_20">
     <!-- pop -->
     <g style="fill:#262626;" transform="translate(364.736949 69.476562)scale(0.1 -0.1)">
      <use xlink:href="#DejaVuSans-70"/>
      <use x="63.476562" xlink:href="#DejaVuSans-6f"/>
      <use x="124.658203" xlink:href="#DejaVuSans-70"/>
     </g>
    </g>
    <g id="line2d_33">
     <path d="M 336.736949 80.654687 
L 356.736949 80.654687 
" style="fill:none;opacity:0.9;stroke:#ffa500;stroke-linecap:round;stroke-width:2;"/>
    </g>
    <g id="line2d_34"/>
    <g id="text_21">
     <!-- lum -->
     <g style="fill:#262626;" transform="translate(364.736949 84.154687)scale(0.1 -0.1)">
      <use xlink:href="#DejaVuSans-6c"/>
      <use x="27.783203" xlink:href="#DejaVuSans-75"/>
      <use x="91.162109" xlink:href="#DejaVuSans-6d"/>
     </g>
    </g>
    <g id="line2d_35">
     <path d="M 336.736949 95.332812 
L 356.736949 95.332812 
" style="fill:none;stroke:#ffa500;stroke-dasharray:8.4,3.6;stroke-dashoffset:0;stroke-width:3;"/>
    </g>
    <g id="line2d_36"/>
    <g id="text_22">
     <!-- lum-pred -->
     <g style="fill:#262626;" transform="translate(364.736949 98.832812)scale(0.1 -0.1)">
      <use xlink:href="#DejaVuSans-6c"/>
      <use x="27.783203" xlink:href="#DejaVuSans-75"/>
      <use x="91.162109" xlink:href="#DejaVuSans-6d"/>
      <use x="188.574219" xlink:href="#DejaVuSans-2d"/>
      <use x="224.658203" xlink:href="#DejaVuSans-70"/>
      <use x="288.134766" xlink:href="#DejaVuSans-72"/>
      <use x="329.216797" xlink:href="#DejaVuSans-65"/>
      <use x="390.740234" xlink:href="#DejaVuSans-64"/>
     </g>
    </g>
   </g>
  </g>
  <g id="axes_3">
   <g id="patch_12">
    <path d="M 419.082353 151.2 
L 583.2 151.2 
L 583.2 43.2 
L 419.082353 43.2 
z
" style="fill:#ffffff;"/>
   </g>
   <g id="matplotlib.axis_5">
    <g id="xtick_7">
     <g id="line2d_37">
      <g>
       <use style="fill:#262626;stroke:#262626;" x="426.542246" xlink:href="#mbe3514ff3d" y="151.2"/>
      </g>
     </g>
     <g id="text_23">
      <!-- 0 -->
      <g style="fill:#262626;" transform="translate(422.406621 174.077969)scale(0.13 -0.13)">
       <use xlink:href="#DejaVuSans-30"/>
      </g>
     </g>
    </g>
    <g id="xtick_8">
     <g id="line2d_38">
      <g>
       <use style="fill:#262626;stroke:#262626;" x="490.030697" xlink:href="#mbe3514ff3d" y="151.2"/>
      </g>
     </g>
     <g id="text_24">
      <!-- 20 -->
      <g style="fill:#262626;" transform="translate(481.759447 174.077969)scale(0.13 -0.13)">
       <use xlink:href="#DejaVuSans-32"/>
       <use x="63.623047" xlink:href="#DejaVuSans-30"/>
      </g>
     </g>
    </g>
    <g id="xtick_9">
     <g id="line2d_39">
      <g>
       <use style="fill:#262626;stroke:#262626;" x="553.519149" xlink:href="#mbe3514ff3d" y="151.2"/>
      </g>
     </g>
     <g id="text_25">
      <!-- 40 -->
      <g style="fill:#262626;" transform="translate(545.247899 174.077969)scale(0.13 -0.13)">
       <use xlink:href="#DejaVuSans-34"/>
       <use x="63.623047" xlink:href="#DejaVuSans-30"/>
      </g>
     </g>
    </g>
    <g id="text_26">
     <!-- $d \ [km]$ -->
     <g style="fill:#262626;" transform="translate(477.546176 191.647328)scale(0.143 -0.143)">
      <use transform="translate(0 0.015625)" xlink:href="#DejaVuSans-Oblique-64"/>
      <use transform="translate(95.946941 0.015625)" xlink:href="#DejaVuSans-5b"/>
      <use transform="translate(134.960613 0.015625)" xlink:href="#DejaVuSans-Oblique-6b"/>
      <use transform="translate(192.870769 0.015625)" xlink:href="#DejaVuSans-Oblique-6d"/>
      <use transform="translate(290.282878 0.015625)" xlink:href="#DejaVuSans-5d"/>
     </g>
    </g>
   </g>
   <g id="matplotlib.axis_6">
    <g id="ytick_7">
     <g id="line2d_40">
      <g>
       <use style="fill:#262626;stroke:#262626;" x="419.082353" xlink:href="#mb98887103e" y="146.290909"/>
      </g>
     </g>
    </g>
    <g id="ytick_8">
     <g id="line2d_41">
      <g>
       <use style="fill:#262626;stroke:#262626;" x="419.082353" xlink:href="#mb98887103e" y="97.2"/>
      </g>
     </g>
    </g>
    <g id="ytick_9">
     <g id="line2d_42">
      <g>
       <use style="fill:#262626;stroke:#262626;" x="419.082353" xlink:href="#mb98887103e" y="48.109091"/>
      </g>
     </g>
    </g>
   </g>
   <g id="line2d_43">
    <path clip-path="url(#p75e4ea6c5f)" d="M 426.542246 146.290909 
L 429.716669 146.290909 
L 432.891091 63.849352 
L 436.065514 48.968632 
L 439.239936 48.109091 
L 442.414359 68.744531 
L 445.588781 76.591922 
L 448.763204 105.923721 
L 451.937627 146.290909 
L 455.112049 146.290909 
L 458.286472 146.290909 
L 461.460894 146.290909 
L 464.635317 132.42115 
L 467.809739 141.613598 
L 470.984162 131.321816 
L 474.158585 137.847783 
L 477.333007 128.768951 
L 480.50743 111.487593 
L 483.681852 111.26128 
L 486.856275 114.290098 
L 490.030697 136.313177 
L 493.20512 124.701181 
L 496.379543 120.621331 
L 499.553965 118.684407 
L 502.728388 131.630606 
L 505.90281 113.539846 
L 509.077233 128.703711 
L 512.251655 143.061239 
L 515.426078 128.897175 
L 518.600501 133.307329 
L 521.774923 135.890901 
L 524.949346 138.813779 
L 528.123768 141.238622 
L 531.298191 135.660533 
L 534.472613 142.008496 
L 537.647036 137.187486 
L 540.821459 141.366455 
L 543.995881 140.027854 
L 547.170304 136.838999 
L 550.344726 134.956681 
L 553.519149 135.041849 
L 556.693572 132.818183 
L 559.867994 141.221526 
L 563.042417 143.917504 
L 566.216839 146.290909 
L 569.391262 146.185385 
L 572.565684 145.062572 
L 575.740107 146.290909 
" style="fill:none;opacity:0.4;stroke:#000000;stroke-linecap:round;stroke-width:2;"/>
   </g>
   <g id="line2d_44">
    <path clip-path="url(#p75e4ea6c5f)" d="M 426.542246 146.290909 
L 429.716669 146.290909 
L 432.891091 64.478141 
L 436.065514 48.109091 
L 439.239936 60.697531 
L 442.414359 94.532886 
L 445.588781 114.56709 
L 448.763204 133.853678 
L 451.937627 146.185035 
L 455.112049 146.290909 
L 458.286472 145.767762 
L 461.460894 144.673447 
L 464.635317 143.978021 
L 467.809739 143.649437 
L 470.984162 142.120152 
L 474.158585 143.522882 
L 477.333007 142.744575 
L 480.50743 139.45727 
L 483.681852 138.70408 
L 486.856275 139.575356 
L 490.030697 140.932464 
L 493.20512 141.550942 
L 496.379543 141.453632 
L 499.553965 138.041297 
L 502.728388 138.561567 
L 505.90281 138.936055 
L 509.077233 142.783201 
L 512.251655 142.764086 
L 515.426078 141.625138 
L 518.600501 141.116016 
L 521.774923 143.500656 
L 524.949346 144.74907 
L 528.123768 144.581773 
L 531.298191 144.96045 
L 534.472613 144.776486 
L 537.647036 144.448548 
L 540.821459 144.955566 
L 543.995881 144.87611 
L 547.170304 144.361323 
L 550.344726 144.383208 
L 553.519149 143.946006 
L 556.693572 144.415337 
L 559.867994 145.071052 
L 563.042417 146.171293 
L 566.216839 146.143102 
L 569.391262 146.231358 
L 572.565684 146.122631 
L 575.740107 146.234606 
" style="fill:none;opacity:0.4;stroke:#008000;stroke-linecap:round;stroke-width:2;"/>
   </g>
   <g id="line2d_45">
    <path clip-path="url(#p75e4ea6c5f)" d="M 426.542246 146.290909 
L 429.716669 146.290909 
L 432.891091 75.502161 
L 436.065514 48.109091 
L 439.239936 55.713196 
L 442.414359 84.914831 
L 445.588781 100.999797 
L 448.763204 126.738411 
L 451.937627 143.174929 
L 455.112049 145.02608 
L 458.286472 142.742389 
L 461.460894 143.880191 
L 464.635317 142.502333 
L 467.809739 142.693398 
L 470.984162 137.983808 
L 474.158585 139.492622 
L 477.333007 141.511234 
L 480.50743 137.526497 
L 483.681852 137.077183 
L 486.856275 138.384304 
L 490.030697 135.298624 
L 493.20512 133.747411 
L 496.379543 128.491805 
L 499.553965 129.714773 
L 502.728388 132.409166 
L 505.90281 130.529426 
L 509.077233 140.639559 
L 512.251655 142.122046 
L 515.426078 138.781546 
L 518.600501 136.45155 
L 521.774923 141.127136 
L 524.949346 143.827149 
L 528.123768 143.903464 
L 531.298191 142.416734 
L 534.472613 142.997826 
L 537.647036 142.09926 
L 540.821459 142.932702 
L 543.995881 144.299254 
L 547.170304 143.00625 
L 550.344726 142.48148 
L 553.519149 142.710173 
L 556.693572 144.20526 
L 559.867994 144.213493 
L 563.042417 145.630855 
L 566.216839 145.919736 
L 569.391262 145.896703 
L 572.565684 145.940846 
L 575.740107 146.121244 
" style="fill:none;opacity:0.9;stroke:#ffa500;stroke-linecap:round;stroke-width:2;"/>
   </g>
   <g id="line2d_46">
    <path clip-path="url(#p75e4ea6c5f)" d="M 426.542246 48.109091 
L 429.716669 48.109091 
L 432.891091 69.686154 
L 436.065514 52.053188 
L 439.239936 59.424774 
L 442.414359 81.863349 
L 445.588781 99.189635 
L 448.763204 124.098509 
L 451.937627 143.02652 
L 455.112049 142.281465 
L 458.286472 142.220574 
L 461.460894 141.962658 
L 464.635317 141.571909 
L 467.809739 141.651586 
L 470.984162 137.812136 
L 474.158585 138.851829 
L 477.333007 139.752861 
L 480.50743 134.619858 
L 483.681852 134.719485 
L 486.856275 135.675254 
L 490.030697 134.520253 
L 493.20512 133.474867 
L 496.379543 128.614651 
L 499.553965 130.570451 
L 502.728388 135.241543 
L 505.90281 131.1751 
L 509.077233 139.195263 
L 512.251655 141.749415 
L 515.426078 138.608094 
L 518.600501 137.189545 
L 521.774923 141.136777 
L 524.949346 143.09839 
L 528.123768 143.115341 
L 531.298191 141.887069 
L 534.472613 142.849675 
L 537.647036 142.042166 
L 540.821459 142.757352 
L 543.995881 143.54194 
L 547.170304 142.807381 
L 550.344726 142.371297 
L 553.519149 142.628132 
L 556.693572 143.534798 
L 559.867994 143.870043 
L 563.042417 145.338007 
L 566.216839 145.832914 
L 569.391262 145.79121 
L 572.565684 145.753546 
L 575.740107 145.974284 
" style="fill:none;stroke:#ffa500;stroke-dasharray:8.4,3.6;stroke-dashoffset:0;stroke-width:3;"/>
   </g>
   <g id="patch_13">
    <path d="M 419.082353 151.2 
L 419.082353 43.2 
" style="fill:none;stroke:#262626;stroke-linecap:square;stroke-linejoin:miter;stroke-width:1.25;"/>
   </g>
   <g id="patch_14">
    <path d="M 583.2 151.2 
L 583.2 43.2 
" style="fill:none;stroke:#262626;stroke-linecap:square;stroke-linejoin:miter;stroke-width:1.25;"/>
   </g>
   <g id="patch_15">
    <path d="M 419.082353 151.2 
L 583.2 151.2 
" style="fill:none;stroke:#262626;stroke-linecap:square;stroke-linejoin:miter;stroke-width:1.25;"/>
   </g>
   <g id="patch_16">
    <path d="M 419.082353 43.2 
L 583.2 43.2 
" style="fill:none;stroke:#262626;stroke-linecap:square;stroke-linejoin:miter;stroke-width:1.25;"/>
   </g>
   <g id="text_27">
    <!-- san francisco -->
    <defs>
     <path id="DejaVuSans-20"/>
     <path d="M 37.109375 75.984375 
L 37.109375 68.5 
L 28.515625 68.5 
Q 23.6875 68.5 21.796875 66.546875 
Q 19.921875 64.59375 19.921875 59.515625 
L 19.921875 54.6875 
L 34.71875 54.6875 
L 34.71875 47.703125 
L 19.921875 47.703125 
L 19.921875 0 
L 10.890625 0 
L 10.890625 47.703125 
L 2.296875 47.703125 
L 2.296875 54.6875 
L 10.890625 54.6875 
L 10.890625 58.5 
Q 10.890625 67.625 15.140625 71.796875 
Q 19.390625 75.984375 28.609375 75.984375 
z
" id="DejaVuSans-66"/>
    </defs>
    <g style="fill:#262626;" transform="translate(449.619739 37.2)scale(0.156 -0.156)">
     <use xlink:href="#DejaVuSans-73"/>
     <use x="52.099609" xlink:href="#DejaVuSans-61"/>
     <use x="113.378906" xlink:href="#DejaVuSans-6e"/>
     <use x="176.757812" xlink:href="#DejaVuSans-20"/>
     <use x="208.544922" xlink:href="#DejaVuSans-66"/>
     <use x="243.75" xlink:href="#DejaVuSans-72"/>
     <use x="284.863281" xlink:href="#DejaVuSans-61"/>
     <use x="346.142578" xlink:href="#DejaVuSans-6e"/>
     <use x="409.521484" xlink:href="#DejaVuSans-63"/>
     <use x="464.501953" xlink:href="#DejaVuSans-69"/>
     <use x="492.285156" xlink:href="#DejaVuSans-73"/>
     <use x="544.384766" xlink:href="#DejaVuSans-63"/>
     <use x="599.365234" xlink:href="#DejaVuSans-6f"/>
    </g>
   </g>
  </g>
  <g id="text_28">
   <!-- Benchmark luminosity profile -->
   <defs>
    <path d="M 19.671875 34.8125 
L 19.671875 8.109375 
L 35.5 8.109375 
Q 43.453125 8.109375 47.28125 11.40625 
Q 51.125 14.703125 51.125 21.484375 
Q 51.125 28.328125 47.28125 31.5625 
Q 43.453125 34.8125 35.5 34.8125 
z
M 19.671875 64.796875 
L 19.671875 42.828125 
L 34.28125 42.828125 
Q 41.5 42.828125 45.03125 45.53125 
Q 48.578125 48.25 48.578125 53.8125 
Q 48.578125 59.328125 45.03125 62.0625 
Q 41.5 64.796875 34.28125 64.796875 
z
M 9.8125 72.90625 
L 35.015625 72.90625 
Q 46.296875 72.90625 52.390625 68.21875 
Q 58.5 63.53125 58.5 54.890625 
Q 58.5 48.1875 55.375 44.234375 
Q 52.25 40.28125 46.1875 39.3125 
Q 53.46875 37.75 57.5 32.78125 
Q 61.53125 27.828125 61.53125 20.40625 
Q 61.53125 10.640625 54.890625 5.3125 
Q 48.25 0 35.984375 0 
L 9.8125 0 
z
" id="DejaVuSans-42"/>
    <path d="M 9.078125 75.984375 
L 18.109375 75.984375 
L 18.109375 31.109375 
L 44.921875 54.6875 
L 56.390625 54.6875 
L 27.390625 29.109375 
L 57.625 0 
L 45.90625 0 
L 18.109375 26.703125 
L 18.109375 0 
L 9.078125 0 
z
" id="DejaVuSans-6b"/>
    <path d="M 18.3125 70.21875 
L 18.3125 54.6875 
L 36.8125 54.6875 
L 36.8125 47.703125 
L 18.3125 47.703125 
L 18.3125 18.015625 
Q 18.3125 11.328125 20.140625 9.421875 
Q 21.96875 7.515625 27.59375 7.515625 
L 36.8125 7.515625 
L 36.8125 0 
L 27.59375 0 
Q 17.1875 0 13.234375 3.875 
Q 9.28125 7.765625 9.28125 18.015625 
L 9.28125 47.703125 
L 2.6875 47.703125 
L 2.6875 54.6875 
L 9.28125 54.6875 
L 9.28125 70.21875 
z
" id="DejaVuSans-74"/>
    <path d="M 32.171875 -5.078125 
Q 28.375 -14.84375 24.75 -17.8125 
Q 21.140625 -20.796875 15.09375 -20.796875 
L 7.90625 -20.796875 
L 7.90625 -13.28125 
L 13.1875 -13.28125 
Q 16.890625 -13.28125 18.9375 -11.515625 
Q 21 -9.765625 23.484375 -3.21875 
L 25.09375 0.875 
L 2.984375 54.6875 
L 12.5 54.6875 
L 29.59375 11.921875 
L 46.6875 54.6875 
L 56.203125 54.6875 
z
" id="DejaVuSans-79"/>
   </defs>
   <g style="fill:#262626;" transform="translate(206.37125 16.4775)scale(0.16 -0.16)">
    <use xlink:href="#DejaVuSans-42"/>
    <use x="68.603516" xlink:href="#DejaVuSans-65"/>
    <use x="130.126953" xlink:href="#DejaVuSans-6e"/>
    <use x="193.505859" xlink:href="#DejaVuSans-63"/>
    <use x="248.486328" xlink:href="#DejaVuSans-68"/>
    <use x="311.865234" xlink:href="#DejaVuSans-6d"/>
    <use x="409.277344" xlink:href="#DejaVuSans-61"/>
    <use x="470.556641" xlink:href="#DejaVuSans-72"/>
    <use x="511.669922" xlink:href="#DejaVuSans-6b"/>
    <use x="569.580078" xlink:href="#DejaVuSans-20"/>
    <use x="601.367188" xlink:href="#DejaVuSans-6c"/>
    <use x="629.150391" xlink:href="#DejaVuSans-75"/>
    <use x="692.529297" xlink:href="#DejaVuSans-6d"/>
    <use x="789.941406" xlink:href="#DejaVuSans-69"/>
    <use x="817.724609" xlink:href="#DejaVuSans-6e"/>
    <use x="881.103516" xlink:href="#DejaVuSans-6f"/>
    <use x="942.285156" xlink:href="#DejaVuSans-73"/>
    <use x="994.384766" xlink:href="#DejaVuSans-69"/>
    <use x="1022.167969" xlink:href="#DejaVuSans-74"/>
    <use x="1061.376953" xlink:href="#DejaVuSans-79"/>
    <use x="1120.556641" xlink:href="#DejaVuSans-20"/>
    <use x="1152.34375" xlink:href="#DejaVuSans-70"/>
    <use x="1215.820312" xlink:href="#DejaVuSans-72"/>
    <use x="1256.902344" xlink:href="#DejaVuSans-6f"/>
    <use x="1318.083984" xlink:href="#DejaVuSans-66"/>
    <use x="1353.289062" xlink:href="#DejaVuSans-69"/>
    <use x="1381.072266" xlink:href="#DejaVuSans-6c"/>
    <use x="1408.855469" xlink:href="#DejaVuSans-65"/>
   </g>
  </g>
 </g>
 <defs>
  <clipPath id="pd50d8ec797">
   <rect height="108" width="164.117647" x="81" y="43.2"/>
  </clipPath>
  <clipPath id="pc00c091069">
   <rect height="108" width="164.117647" x="250.041176" y="43.2"/>
  </clipPath>
  <clipPath id="p75e4ea6c5f">
   <rect height="108" width="164.117647" x="419.082353" y="43.2"/>
  </clipPath>
 </defs>
</svg>
