<?xml version="1.0" encoding="utf-8" standalone="no"?>
<!DOCTYPE svg PUBLIC "-//W3C//DTD SVG 1.1//EN"
  "http://www.w3.org/Graphics/SVG/1.1/DTD/svg11.dtd">
<!-- Created with matplotlib (http://matplotlib.org/) -->
<svg height="504pt" version="1.1" viewBox="0 0 432 504" width="432pt" xmlns="http://www.w3.org/2000/svg" xmlns:xlink="http://www.w3.org/1999/xlink">
 <defs>
  <style type="text/css">
*{stroke-linecap:butt;stroke-linejoin:round;}
  </style>
 </defs>
 <g id="figure_1">
  <g id="patch_1">
   <path d="M 0 504 
L 432 504 
L 432 0 
L 0 0 
z
" style="fill:#ffffff;"/>
  </g>
  <g id="axes_1">
   <g id="patch_2">
    <path d="M 54 179.080851 
L 217.317073 179.080851 
L 217.317073 50.4 
L 54 50.4 
z
" style="fill:#ffffff;"/>
   </g>
   <g id="matplotlib.axis_1">
    <g id="xtick_1">
     <g id="line2d_1">
      <defs>
       <path d="M 0 0 
L 0 6 
" id="maf6c6b9903" style="stroke:#262626;"/>
      </defs>
      <g>
       <use style="fill:#262626;stroke:#262626;" x="61.423503" xlink:href="#maf6c6b9903" y="179.080851"/>
      </g>
     </g>
    </g>
    <g id="xtick_2">
     <g id="line2d_2">
      <g>
       <use style="fill:#262626;stroke:#262626;" x="124.602255" xlink:href="#maf6c6b9903" y="179.080851"/>
      </g>
     </g>
    </g>
    <g id="xtick_3">
     <g id="line2d_3">
      <g>
       <use style="fill:#262626;stroke:#262626;" x="187.781007" xlink:href="#maf6c6b9903" y="179.080851"/>
      </g>
     </g>
    </g>
    <g id="text_1">
     <!-- $d \ [km]$ -->
     <defs>
      <path d="M 41.796875 8.203125 
Q 38.1875 3.46875 33.25 1.015625 
Q 28.328125 -1.421875 22.3125 -1.421875 
Q 14.109375 -1.421875 9.34375 4.171875 
Q 4.59375 9.765625 4.59375 19.484375 
Q 4.59375 27.59375 7.46875 34.9375 
Q 10.359375 42.28125 15.828125 48.09375 
Q 19.4375 51.953125 23.96875 53.96875 
Q 28.515625 56 33.5 56 
Q 38.765625 56 42.796875 53.453125 
Q 46.828125 50.921875 49.03125 46.1875 
L 54.890625 75.984375 
L 63.921875 75.984375 
L 49.125 0 
L 40.09375 0 
z
M 13.921875 21.09375 
Q 13.921875 14.015625 17.109375 10.0625 
Q 20.3125 6.109375 25.984375 6.109375 
Q 30.171875 6.109375 33.765625 8.125 
Q 37.359375 10.15625 40.09375 14.109375 
Q 42.96875 18.21875 44.625 23.578125 
Q 46.296875 28.953125 46.296875 34.1875 
Q 46.296875 40.96875 43.09375 44.765625 
Q 39.890625 48.578125 34.28125 48.578125 
Q 30.03125 48.578125 26.359375 46.578125 
Q 22.703125 44.578125 20.125 40.828125 
Q 17.28125 36.765625 15.59375 31.390625 
Q 13.921875 26.03125 13.921875 21.09375 
" id="DejaVuSans-Oblique-64"/>
      <path d="M 8.59375 75.984375 
L 29.296875 75.984375 
L 29.296875 69 
L 17.578125 69 
L 17.578125 -6.203125 
L 29.296875 -6.203125 
L 29.296875 -13.1875 
L 8.59375 -13.1875 
z
" id="DejaVuSans-5b"/>
      <path d="M 18.3125 75.984375 
L 27.296875 75.984375 
L 18.703125 31.6875 
L 49.515625 54.6875 
L 61.1875 54.6875 
L 26.8125 28.515625 
L 51.90625 0 
L 41.015625 0 
L 17.671875 26.703125 
L 12.5 0 
L 3.515625 0 
z
" id="DejaVuSans-Oblique-6b"/>
      <path d="M 89.796875 33.015625 
L 83.40625 0 
L 74.421875 0 
L 80.71875 32.71875 
Q 81.109375 34.8125 81.296875 36.328125 
Q 81.5 37.84375 81.5 38.921875 
Q 81.5 43.3125 79.046875 45.75 
Q 76.609375 48.1875 72.21875 48.1875 
Q 65.671875 48.1875 60.546875 43.28125 
Q 55.421875 38.375 53.90625 30.515625 
L 47.90625 0 
L 38.921875 0 
L 45.3125 32.71875 
Q 45.703125 34.515625 45.890625 36.046875 
Q 46.09375 37.59375 46.09375 38.8125 
Q 46.09375 43.265625 43.65625 45.71875 
Q 41.21875 48.1875 36.921875 48.1875 
Q 30.28125 48.1875 25.140625 43.28125 
Q 20.015625 38.375 18.5 30.515625 
L 12.5 0 
L 3.515625 0 
L 14.203125 54.6875 
L 23.1875 54.6875 
L 21.484375 46.1875 
Q 25.140625 50.984375 30.046875 53.484375 
Q 34.96875 56 40.578125 56 
Q 46.53125 56 50.359375 52.875 
Q 54.203125 49.75 54.984375 44.1875 
Q 59.078125 49.953125 64.46875 52.96875 
Q 69.875 56 75.875 56 
Q 82.90625 56 86.734375 51.953125 
Q 90.578125 47.90625 90.578125 40.484375 
Q 90.578125 38.875 90.375 36.9375 
Q 90.1875 35.015625 89.796875 33.015625 
" id="DejaVuSans-Oblique-6d"/>
      <path d="M 30.421875 75.984375 
L 30.421875 -13.1875 
L 9.71875 -13.1875 
L 9.71875 -6.203125 
L 21.390625 -6.203125 
L 21.390625 69 
L 9.71875 69 
L 9.71875 75.984375 
z
" id="DejaVuSans-5d"/>
     </defs>
     <g style="fill:#262626;" transform="translate(112.063537 193.946617)scale(0.143 -0.143)">
      <use transform="translate(0 0.015625)" xlink:href="#DejaVuSans-Oblique-64"/>
      <use transform="translate(95.946941 0.015625)" xlink:href="#DejaVuSans-5b"/>
      <use transform="translate(134.960613 0.015625)" xlink:href="#DejaVuSans-Oblique-6b"/>
      <use transform="translate(192.870769 0.015625)" xlink:href="#DejaVuSans-Oblique-6d"/>
      <use transform="translate(290.282878 0.015625)" xlink:href="#DejaVuSans-5d"/>
     </g>
    </g>
   </g>
   <g id="matplotlib.axis_2">
    <g id="ytick_1">
     <g id="line2d_4">
      <defs>
       <path d="M 0 0 
L -6 0 
" id="md4c45fe2c9" style="stroke:#262626;"/>
      </defs>
      <g>
       <use style="fill:#262626;stroke:#262626;" x="54" xlink:href="#md4c45fe2c9" y="173.231721"/>
      </g>
     </g>
     <g id="text_2">
      <!-- 0.0 -->
      <defs>
       <path d="M 31.78125 66.40625 
Q 24.171875 66.40625 20.328125 58.90625 
Q 16.5 51.421875 16.5 36.375 
Q 16.5 21.390625 20.328125 13.890625 
Q 24.171875 6.390625 31.78125 6.390625 
Q 39.453125 6.390625 43.28125 13.890625 
Q 47.125 21.390625 47.125 36.375 
Q 47.125 51.421875 43.28125 58.90625 
Q 39.453125 66.40625 31.78125 66.40625 
M 31.78125 74.21875 
Q 44.046875 74.21875 50.515625 64.515625 
Q 56.984375 54.828125 56.984375 36.375 
Q 56.984375 17.96875 50.515625 8.265625 
Q 44.046875 -1.421875 31.78125 -1.421875 
Q 19.53125 -1.421875 13.0625 8.265625 
Q 6.59375 17.96875 6.59375 36.375 
Q 6.59375 54.828125 13.0625 64.515625 
Q 19.53125 74.21875 31.78125 74.21875 
" id="DejaVuSans-30"/>
       <path d="M 10.6875 12.40625 
L 21 12.40625 
L 21 0 
L 10.6875 0 
z
" id="DejaVuSans-2e"/>
      </defs>
      <g style="fill:#262626;" transform="translate(20.325937 178.170706)scale(0.13 -0.13)">
       <use xlink:href="#DejaVuSans-30"/>
       <use x="63.623047" xlink:href="#DejaVuSans-2e"/>
       <use x="95.410156" xlink:href="#DejaVuSans-30"/>
      </g>
     </g>
    </g>
    <g id="ytick_2">
     <g id="line2d_5">
      <g>
       <use style="fill:#262626;stroke:#262626;" x="54" xlink:href="#md4c45fe2c9" y="114.740426"/>
      </g>
     </g>
     <g id="text_3">
      <!-- 0.5 -->
      <defs>
       <path d="M 10.796875 72.90625 
L 49.515625 72.90625 
L 49.515625 64.59375 
L 19.828125 64.59375 
L 19.828125 46.734375 
Q 21.96875 47.46875 24.109375 47.828125 
Q 26.265625 48.1875 28.421875 48.1875 
Q 40.625 48.1875 47.75 41.5 
Q 54.890625 34.8125 54.890625 23.390625 
Q 54.890625 11.625 47.5625 5.09375 
Q 40.234375 -1.421875 26.90625 -1.421875 
Q 22.3125 -1.421875 17.546875 -0.640625 
Q 12.796875 0.140625 7.71875 1.703125 
L 7.71875 11.625 
Q 12.109375 9.234375 16.796875 8.0625 
Q 21.484375 6.890625 26.703125 6.890625 
Q 35.15625 6.890625 40.078125 11.328125 
Q 45.015625 15.765625 45.015625 23.390625 
Q 45.015625 31 40.078125 35.4375 
Q 35.15625 39.890625 26.703125 39.890625 
Q 22.75 39.890625 18.8125 39.015625 
Q 14.890625 38.140625 10.796875 36.28125 
z
" id="DejaVuSans-35"/>
      </defs>
      <g style="fill:#262626;" transform="translate(20.325937 119.67941)scale(0.13 -0.13)">
       <use xlink:href="#DejaVuSans-30"/>
       <use x="63.623047" xlink:href="#DejaVuSans-2e"/>
       <use x="95.410156" xlink:href="#DejaVuSans-35"/>
      </g>
     </g>
    </g>
    <g id="ytick_3">
     <g id="line2d_6">
      <g>
       <use style="fill:#262626;stroke:#262626;" x="54" xlink:href="#md4c45fe2c9" y="56.24913"/>
      </g>
     </g>
     <g id="text_4">
      <!-- 1.0 -->
      <defs>
       <path d="M 12.40625 8.296875 
L 28.515625 8.296875 
L 28.515625 63.921875 
L 10.984375 60.40625 
L 10.984375 69.390625 
L 28.421875 72.90625 
L 38.28125 72.90625 
L 38.28125 8.296875 
L 54.390625 8.296875 
L 54.390625 0 
L 12.40625 0 
z
" id="DejaVuSans-31"/>
      </defs>
      <g style="fill:#262626;" transform="translate(20.325937 61.188114)scale(0.13 -0.13)">
       <use xlink:href="#DejaVuSans-31"/>
       <use x="63.623047" xlink:href="#DejaVuSans-2e"/>
       <use x="95.410156" xlink:href="#DejaVuSans-30"/>
      </g>
     </g>
    </g>
    <g id="text_5">
     <!-- $\hat x_{\cdot}(d)$ -->
     <defs>
      <path d="M -28.609375 79.984375 
L -21.390625 79.984375 
L -9.421875 61.625 
L -16.21875 61.625 
L -25 73.578125 
L -33.796875 61.625 
L -40.578125 61.625 
z
M -25 56 
z
" id="DejaVuSans-302"/>
      <path d="M 60.015625 54.6875 
L 34.90625 27.875 
L 50.296875 0 
L 39.984375 0 
L 28.421875 21.6875 
L 8.296875 0 
L -2.59375 0 
L 24.3125 28.8125 
L 10.015625 54.6875 
L 20.3125 54.6875 
L 30.8125 34.90625 
L 49.125 54.6875 
z
" id="DejaVuSans-Oblique-78"/>
      <path d="M 10.6875 40.921875 
L 21 40.921875 
L 21 28.515625 
L 10.6875 28.515625 
z
" id="DejaVuSans-22c5"/>
      <path d="M 31 75.875 
Q 24.46875 64.65625 21.28125 53.65625 
Q 18.109375 42.671875 18.109375 31.390625 
Q 18.109375 20.125 21.3125 9.0625 
Q 24.515625 -2 31 -13.1875 
L 23.1875 -13.1875 
Q 15.875 -1.703125 12.234375 9.375 
Q 8.59375 20.453125 8.59375 31.390625 
Q 8.59375 42.28125 12.203125 53.3125 
Q 15.828125 64.359375 23.1875 75.875 
z
" id="DejaVuSans-28"/>
      <path d="M 8.015625 75.875 
L 15.828125 75.875 
Q 23.140625 64.359375 26.78125 53.3125 
Q 30.421875 42.28125 30.421875 31.390625 
Q 30.421875 20.453125 26.78125 9.375 
Q 23.140625 -1.703125 15.828125 -13.1875 
L 8.015625 -13.1875 
Q 14.5 -2 17.703125 9.0625 
Q 20.90625 20.125 20.90625 31.390625 
Q 20.90625 42.671875 17.703125 53.65625 
Q 14.5 64.65625 8.015625 75.875 
" id="DejaVuSans-29"/>
     </defs>
     <g style="fill:#262626;" transform="translate(13.351984 131.256926)rotate(-90)scale(0.143 -0.143)">
      <use transform="translate(64.226562 12.015625)" xlink:href="#DejaVuSans-302"/>
      <use transform="translate(0 0.828125)" xlink:href="#DejaVuSans-Oblique-78"/>
      <use transform="translate(63.550781 -15.578125)scale(0.7)" xlink:href="#DejaVuSans-22c5"/>
      <use transform="translate(88.536133 0.828125)" xlink:href="#DejaVuSans-28"/>
      <use transform="translate(127.549805 0.828125)" xlink:href="#DejaVuSans-Oblique-64"/>
      <use transform="translate(191.026367 0.828125)" xlink:href="#DejaVuSans-29"/>
     </g>
    </g>
   </g>
   <g id="line2d_7">
    <path clip-path="url(#pd451e67fac)" d="M 61.423503 173.231721 
L 64.582441 173.231721 
L 67.741378 94.788968 
L 70.900316 70.249952 
L 74.059254 60.310994 
L 77.218191 56.24913 
L 80.377129 67.602289 
L 83.536066 83.115579 
L 86.695004 98.15658 
L 89.853942 74.181066 
L 93.012879 66.995065 
L 96.171817 68.228152 
L 99.330754 72.455089 
L 102.489692 76.974565 
L 105.64863 78.348808 
L 108.807567 79.433452 
L 111.966505 96.044054 
L 115.125442 110.267187 
L 118.28438 119.175684 
L 121.443317 115.267868 
L 124.602255 120.321918 
L 127.761193 136.150634 
L 130.92013 153.146866 
L 134.079068 126.820478 
L 137.238005 136.333658 
L 140.396943 139.523374 
L 143.555881 138.149117 
L 146.714818 132.620185 
L 149.873756 140.283873 
L 153.032693 145.348052 
L 156.191631 145.419506 
L 159.350568 143.795249 
L 162.509506 147.817347 
L 165.668444 158.217241 
L 168.827381 154.760063 
L 171.986319 153.491874 
L 175.145256 162.320295 
L 178.304194 160.265769 
L 181.463132 158.987833 
L 184.622069 162.597386 
L 187.781007 163.42756 
L 190.939944 159.167029 
L 194.098882 167.849126 
L 197.25782 166.511346 
L 200.416757 164.116925 
L 203.575695 167.107253 
L 206.734632 161.613726 
L 209.89357 163.632473 
" style="fill:none;opacity:0.4;stroke:#000000;stroke-linecap:round;stroke-width:2;"/>
   </g>
   <g id="line2d_8">
    <path clip-path="url(#pd451e67fac)" d="M 61.423503 173.231721 
L 64.582441 173.231721 
L 67.741378 94.845009 
L 70.900316 56.24913 
L 74.059254 66.46085 
L 77.218191 69.327078 
L 80.377129 111.528686 
L 83.536066 133.579939 
L 86.695004 134.245461 
L 89.853942 134.861206 
L 93.012879 135.539311 
L 96.171817 147.830933 
L 99.330754 150.7948 
L 102.489692 151.392592 
L 105.64863 155.637488 
L 108.807567 158.178575 
L 111.966505 158.318921 
L 115.125442 160.399392 
L 118.28438 164.84469 
L 121.443317 166.109676 
L 124.602255 168.040283 
L 127.761193 170.403961 
L 130.92013 171.450749 
L 134.079068 168.86804 
L 137.238005 169.335801 
L 140.396943 169.625672 
L 143.555881 170.02472 
L 146.714818 169.86899 
L 149.873756 169.893397 
L 153.032693 170.419906 
L 156.191631 170.971127 
L 159.350568 171.134829 
L 162.509506 171.894529 
L 165.668444 172.027024 
L 168.827381 171.762919 
L 171.986319 171.799587 
L 175.145256 172.507429 
L 178.304194 172.577383 
L 181.463132 172.51427 
L 184.622069 172.642597 
L 187.781007 172.551809 
L 190.939944 172.545044 
L 194.098882 172.801753 
L 197.25782 172.821527 
L 200.416757 172.685087 
L 203.575695 172.655925 
L 206.734632 172.29943 
L 209.89357 172.196188 
" style="fill:none;opacity:0.4;stroke:#008000;stroke-linecap:round;stroke-width:2;"/>
   </g>
   <g id="line2d_9">
    <path clip-path="url(#pd451e67fac)" d="M 61.423503 173.231721 
L 64.582441 173.231721 
L 67.741378 98.161254 
L 70.900316 56.24913 
L 74.059254 78.469222 
L 77.218191 78.516193 
L 80.377129 83.961249 
L 83.536066 105.76829 
L 86.695004 111.314296 
L 89.853942 100.289226 
L 93.012879 101.668897 
L 96.171817 104.034507 
L 99.330754 116.65892 
L 102.489692 119.721379 
L 105.64863 131.450287 
L 108.807567 133.486269 
L 111.966505 135.61075 
L 115.125442 141.224921 
L 118.28438 145.460756 
L 121.443317 150.777487 
L 124.602255 155.629058 
L 127.761193 159.86397 
L 130.92013 161.001553 
L 134.079068 152.804962 
L 137.238005 153.920021 
L 140.396943 156.997405 
L 143.555881 156.944854 
L 146.714818 157.399773 
L 149.873756 158.289508 
L 153.032693 160.603179 
L 156.191631 161.627213 
L 159.350568 161.2108 
L 162.509506 162.592287 
L 165.668444 166.831033 
L 168.827381 166.417324 
L 171.986319 167.653578 
L 175.145256 169.20511 
L 178.304194 167.718962 
L 181.463132 168.591886 
L 184.622069 169.735696 
L 187.781007 169.994076 
L 190.939944 169.515524 
L 194.098882 170.513466 
L 197.25782 170.177289 
L 200.416757 169.315892 
L 203.575695 170.251032 
L 206.734632 169.147219 
L 209.89357 168.933528 
" style="fill:none;opacity:0.9;stroke:#ffa500;stroke-linecap:round;stroke-width:2;"/>
   </g>
   <g id="line2d_10">
    <path clip-path="url(#pd451e67fac)" d="M 61.423503 56.24913 
L 64.582441 56.24913 
L 67.741378 91.551738 
L 70.900316 60.850199 
L 74.059254 81.650898 
L 77.218191 84.695544 
L 80.377129 94.600274 
L 83.536066 102.580373 
L 86.695004 111.455353 
L 89.853942 103.429946 
L 93.012879 105.467475 
L 96.171817 114.26638 
L 99.330754 121.723085 
L 102.489692 124.616879 
L 105.64863 132.452597 
L 108.807567 133.205545 
L 111.966505 136.012253 
L 115.125442 139.505361 
L 118.28438 145.44606 
L 121.443317 149.006883 
L 124.602255 153.957245 
L 127.761193 157.151195 
L 130.92013 160.707116 
L 134.079068 153.413748 
L 137.238005 154.507202 
L 140.396943 156.936124 
L 143.555881 157.35684 
L 146.714818 157.158298 
L 149.873756 157.924224 
L 153.032693 160.882535 
L 156.191631 162.489326 
L 159.350568 161.886774 
L 162.509506 162.990663 
L 165.668444 166.607107 
L 168.827381 165.33533 
L 171.986319 167.730246 
L 175.145256 169.5147 
L 178.304194 168.285749 
L 181.463132 168.581909 
L 184.622069 168.915542 
L 187.781007 169.969936 
L 190.939944 169.029449 
L 194.098882 170.397787 
L 197.25782 169.940242 
L 200.416757 169.434251 
L 203.575695 170.568156 
L 206.734632 169.511603 
L 209.89357 169.075774 
" style="fill:none;stroke:#ffa500;stroke-dasharray:8.4,3.6;stroke-dashoffset:0;stroke-width:3;"/>
   </g>
   <g id="patch_3">
    <path d="M 54 179.080851 
L 54 50.4 
" style="fill:none;stroke:#262626;stroke-linecap:square;stroke-linejoin:miter;stroke-width:1.25;"/>
   </g>
   <g id="patch_4">
    <path d="M 217.317073 179.080851 
L 217.317073 50.4 
" style="fill:none;stroke:#262626;stroke-linecap:square;stroke-linejoin:miter;stroke-width:1.25;"/>
   </g>
   <g id="patch_5">
    <path d="M 54 179.080851 
L 217.317073 179.080851 
" style="fill:none;stroke:#262626;stroke-linecap:square;stroke-linejoin:miter;stroke-width:1.25;"/>
   </g>
   <g id="patch_6">
    <path d="M 54 50.4 
L 217.317073 50.4 
" style="fill:none;stroke:#262626;stroke-linecap:square;stroke-linejoin:miter;stroke-width:1.25;"/>
   </g>
   <g id="text_6">
    <!-- paris -->
    <defs>
     <path d="M 18.109375 8.203125 
L 18.109375 -20.796875 
L 9.078125 -20.796875 
L 9.078125 54.6875 
L 18.109375 54.6875 
L 18.109375 46.390625 
Q 20.953125 51.265625 25.265625 53.625 
Q 29.59375 56 35.59375 56 
Q 45.5625 56 51.78125 48.09375 
Q 58.015625 40.1875 58.015625 27.296875 
Q 58.015625 14.40625 51.78125 6.484375 
Q 45.5625 -1.421875 35.59375 -1.421875 
Q 29.59375 -1.421875 25.265625 0.953125 
Q 20.953125 3.328125 18.109375 8.203125 
M 48.6875 27.296875 
Q 48.6875 37.203125 44.609375 42.84375 
Q 40.53125 48.484375 33.40625 48.484375 
Q 26.265625 48.484375 22.1875 42.84375 
Q 18.109375 37.203125 18.109375 27.296875 
Q 18.109375 17.390625 22.1875 11.75 
Q 26.265625 6.109375 33.40625 6.109375 
Q 40.53125 6.109375 44.609375 11.75 
Q 48.6875 17.390625 48.6875 27.296875 
" id="DejaVuSans-70"/>
     <path d="M 34.28125 27.484375 
Q 23.390625 27.484375 19.1875 25 
Q 14.984375 22.515625 14.984375 16.5 
Q 14.984375 11.71875 18.140625 8.90625 
Q 21.296875 6.109375 26.703125 6.109375 
Q 34.1875 6.109375 38.703125 11.40625 
Q 43.21875 16.703125 43.21875 25.484375 
L 43.21875 27.484375 
z
M 52.203125 31.203125 
L 52.203125 0 
L 43.21875 0 
L 43.21875 8.296875 
Q 40.140625 3.328125 35.546875 0.953125 
Q 30.953125 -1.421875 24.3125 -1.421875 
Q 15.921875 -1.421875 10.953125 3.296875 
Q 6 8.015625 6 15.921875 
Q 6 25.140625 12.171875 29.828125 
Q 18.359375 34.515625 30.609375 34.515625 
L 43.21875 34.515625 
L 43.21875 35.40625 
Q 43.21875 41.609375 39.140625 45 
Q 35.0625 48.390625 27.6875 48.390625 
Q 23 48.390625 18.546875 47.265625 
Q 14.109375 46.140625 10.015625 43.890625 
L 10.015625 52.203125 
Q 14.9375 54.109375 19.578125 55.046875 
Q 24.21875 56 28.609375 56 
Q 40.484375 56 46.34375 49.84375 
Q 52.203125 43.703125 52.203125 31.203125 
" id="DejaVuSans-61"/>
     <path d="M 41.109375 46.296875 
Q 39.59375 47.171875 37.8125 47.578125 
Q 36.03125 48 33.890625 48 
Q 26.265625 48 22.1875 43.046875 
Q 18.109375 38.09375 18.109375 28.8125 
L 18.109375 0 
L 9.078125 0 
L 9.078125 54.6875 
L 18.109375 54.6875 
L 18.109375 46.1875 
Q 20.953125 51.171875 25.484375 53.578125 
Q 30.03125 56 36.53125 56 
Q 37.453125 56 38.578125 55.875 
Q 39.703125 55.765625 41.0625 55.515625 
z
" id="DejaVuSans-72"/>
     <path d="M 9.421875 54.6875 
L 18.40625 54.6875 
L 18.40625 0 
L 9.421875 0 
z
M 9.421875 75.984375 
L 18.40625 75.984375 
L 18.40625 64.59375 
L 9.421875 64.59375 
z
" id="DejaVuSans-69"/>
     <path d="M 44.28125 53.078125 
L 44.28125 44.578125 
Q 40.484375 46.53125 36.375 47.5 
Q 32.28125 48.484375 27.875 48.484375 
Q 21.1875 48.484375 17.84375 46.4375 
Q 14.5 44.390625 14.5 40.28125 
Q 14.5 37.15625 16.890625 35.375 
Q 19.28125 33.59375 26.515625 31.984375 
L 29.59375 31.296875 
Q 39.15625 29.25 43.1875 25.515625 
Q 47.21875 21.78125 47.21875 15.09375 
Q 47.21875 7.46875 41.1875 3.015625 
Q 35.15625 -1.421875 24.609375 -1.421875 
Q 20.21875 -1.421875 15.453125 -0.5625 
Q 10.6875 0.296875 5.421875 2 
L 5.421875 11.28125 
Q 10.40625 8.6875 15.234375 7.390625 
Q 20.0625 6.109375 24.8125 6.109375 
Q 31.15625 6.109375 34.5625 8.28125 
Q 37.984375 10.453125 37.984375 14.40625 
Q 37.984375 18.0625 35.515625 20.015625 
Q 33.0625 21.96875 24.703125 23.78125 
L 21.578125 24.515625 
Q 13.234375 26.265625 9.515625 29.90625 
Q 5.8125 33.546875 5.8125 39.890625 
Q 5.8125 47.609375 11.28125 51.796875 
Q 16.75 56 26.8125 56 
Q 31.78125 56 36.171875 55.265625 
Q 40.578125 54.546875 44.28125 53.078125 
" id="DejaVuSans-73"/>
    </defs>
    <g style="fill:#262626;" transform="translate(116.490037 44.4)scale(0.156 -0.156)">
     <use xlink:href="#DejaVuSans-70"/>
     <use x="63.476562" xlink:href="#DejaVuSans-61"/>
     <use x="124.755859" xlink:href="#DejaVuSans-72"/>
     <use x="165.869141" xlink:href="#DejaVuSans-69"/>
     <use x="193.652344" xlink:href="#DejaVuSans-73"/>
    </g>
   </g>
   <g id="legend_1">
    <g id="line2d_11">
     <path d="M 139.895198 58.498437 
L 159.895198 58.498437 
" style="fill:none;opacity:0.4;stroke:#000000;stroke-linecap:round;stroke-width:2;"/>
    </g>
    <g id="line2d_12"/>
    <g id="text_7">
     <!-- bldg -->
     <defs>
      <path d="M 48.6875 27.296875 
Q 48.6875 37.203125 44.609375 42.84375 
Q 40.53125 48.484375 33.40625 48.484375 
Q 26.265625 48.484375 22.1875 42.84375 
Q 18.109375 37.203125 18.109375 27.296875 
Q 18.109375 17.390625 22.1875 11.75 
Q 26.265625 6.109375 33.40625 6.109375 
Q 40.53125 6.109375 44.609375 11.75 
Q 48.6875 17.390625 48.6875 27.296875 
M 18.109375 46.390625 
Q 20.953125 51.265625 25.265625 53.625 
Q 29.59375 56 35.59375 56 
Q 45.5625 56 51.78125 48.09375 
Q 58.015625 40.1875 58.015625 27.296875 
Q 58.015625 14.40625 51.78125 6.484375 
Q 45.5625 -1.421875 35.59375 -1.421875 
Q 29.59375 -1.421875 25.265625 0.953125 
Q 20.953125 3.328125 18.109375 8.203125 
L 18.109375 0 
L 9.078125 0 
L 9.078125 75.984375 
L 18.109375 75.984375 
z
" id="DejaVuSans-62"/>
      <path d="M 9.421875 75.984375 
L 18.40625 75.984375 
L 18.40625 0 
L 9.421875 0 
z
" id="DejaVuSans-6c"/>
      <path d="M 45.40625 46.390625 
L 45.40625 75.984375 
L 54.390625 75.984375 
L 54.390625 0 
L 45.40625 0 
L 45.40625 8.203125 
Q 42.578125 3.328125 38.25 0.953125 
Q 33.9375 -1.421875 27.875 -1.421875 
Q 17.96875 -1.421875 11.734375 6.484375 
Q 5.515625 14.40625 5.515625 27.296875 
Q 5.515625 40.1875 11.734375 48.09375 
Q 17.96875 56 27.875 56 
Q 33.9375 56 38.25 53.625 
Q 42.578125 51.265625 45.40625 46.390625 
M 14.796875 27.296875 
Q 14.796875 17.390625 18.875 11.75 
Q 22.953125 6.109375 30.078125 6.109375 
Q 37.203125 6.109375 41.296875 11.75 
Q 45.40625 17.390625 45.40625 27.296875 
Q 45.40625 37.203125 41.296875 42.84375 
Q 37.203125 48.484375 30.078125 48.484375 
Q 22.953125 48.484375 18.875 42.84375 
Q 14.796875 37.203125 14.796875 27.296875 
" id="DejaVuSans-64"/>
      <path d="M 45.40625 27.984375 
Q 45.40625 37.75 41.375 43.109375 
Q 37.359375 48.484375 30.078125 48.484375 
Q 22.859375 48.484375 18.828125 43.109375 
Q 14.796875 37.75 14.796875 27.984375 
Q 14.796875 18.265625 18.828125 12.890625 
Q 22.859375 7.515625 30.078125 7.515625 
Q 37.359375 7.515625 41.375 12.890625 
Q 45.40625 18.265625 45.40625 27.984375 
M 54.390625 6.78125 
Q 54.390625 -7.171875 48.1875 -13.984375 
Q 42 -20.796875 29.203125 -20.796875 
Q 24.46875 -20.796875 20.265625 -20.09375 
Q 16.0625 -19.390625 12.109375 -17.921875 
L 12.109375 -9.1875 
Q 16.0625 -11.328125 19.921875 -12.34375 
Q 23.78125 -13.375 27.78125 -13.375 
Q 36.625 -13.375 41.015625 -8.765625 
Q 45.40625 -4.15625 45.40625 5.171875 
L 45.40625 9.625 
Q 42.625 4.78125 38.28125 2.390625 
Q 33.9375 0 27.875 0 
Q 17.828125 0 11.671875 7.65625 
Q 5.515625 15.328125 5.515625 27.984375 
Q 5.515625 40.671875 11.671875 48.328125 
Q 17.828125 56 27.875 56 
Q 33.9375 56 38.28125 53.609375 
Q 42.625 51.21875 45.40625 46.390625 
L 45.40625 54.6875 
L 54.390625 54.6875 
z
" id="DejaVuSans-67"/>
     </defs>
     <g style="fill:#262626;" transform="translate(167.895198 61.998437)scale(0.1 -0.1)">
      <use xlink:href="#DejaVuSans-62"/>
      <use x="63.476562" xlink:href="#DejaVuSans-6c"/>
      <use x="91.259766" xlink:href="#DejaVuSans-64"/>
      <use x="154.736328" xlink:href="#DejaVuSans-67"/>
     </g>
    </g>
    <g id="line2d_13">
     <path d="M 139.895198 73.176562 
L 159.895198 73.176562 
" style="fill:none;opacity:0.4;stroke:#008000;stroke-linecap:round;stroke-width:2;"/>
    </g>
    <g id="line2d_14"/>
    <g id="text_8">
     <!-- pop -->
     <defs>
      <path d="M 30.609375 48.390625 
Q 23.390625 48.390625 19.1875 42.75 
Q 14.984375 37.109375 14.984375 27.296875 
Q 14.984375 17.484375 19.15625 11.84375 
Q 23.34375 6.203125 30.609375 6.203125 
Q 37.796875 6.203125 41.984375 11.859375 
Q 46.1875 17.53125 46.1875 27.296875 
Q 46.1875 37.015625 41.984375 42.703125 
Q 37.796875 48.390625 30.609375 48.390625 
M 30.609375 56 
Q 42.328125 56 49.015625 48.375 
Q 55.71875 40.765625 55.71875 27.296875 
Q 55.71875 13.875 49.015625 6.21875 
Q 42.328125 -1.421875 30.609375 -1.421875 
Q 18.84375 -1.421875 12.171875 6.21875 
Q 5.515625 13.875 5.515625 27.296875 
Q 5.515625 40.765625 12.171875 48.375 
Q 18.84375 56 30.609375 56 
" id="DejaVuSans-6f"/>
     </defs>
     <g style="fill:#262626;" transform="translate(167.895198 76.676562)scale(0.1 -0.1)">
      <use xlink:href="#DejaVuSans-70"/>
      <use x="63.476562" xlink:href="#DejaVuSans-6f"/>
      <use x="124.658203" xlink:href="#DejaVuSans-70"/>
     </g>
    </g>
    <g id="line2d_15">
     <path d="M 139.895198 87.854687 
L 159.895198 87.854687 
" style="fill:none;opacity:0.9;stroke:#ffa500;stroke-linecap:round;stroke-width:2;"/>
    </g>
    <g id="line2d_16"/>
    <g id="text_9">
     <!-- lum -->
     <defs>
      <path d="M 8.5 21.578125 
L 8.5 54.6875 
L 17.484375 54.6875 
L 17.484375 21.921875 
Q 17.484375 14.15625 20.5 10.265625 
Q 23.53125 6.390625 29.59375 6.390625 
Q 36.859375 6.390625 41.078125 11.03125 
Q 45.3125 15.671875 45.3125 23.6875 
L 45.3125 54.6875 
L 54.296875 54.6875 
L 54.296875 0 
L 45.3125 0 
L 45.3125 8.40625 
Q 42.046875 3.421875 37.71875 1 
Q 33.40625 -1.421875 27.6875 -1.421875 
Q 18.265625 -1.421875 13.375 4.4375 
Q 8.5 10.296875 8.5 21.578125 
M 31.109375 56 
z
" id="DejaVuSans-75"/>
      <path d="M 52 44.1875 
Q 55.375 50.25 60.0625 53.125 
Q 64.75 56 71.09375 56 
Q 79.640625 56 84.28125 50.015625 
Q 88.921875 44.046875 88.921875 33.015625 
L 88.921875 0 
L 79.890625 0 
L 79.890625 32.71875 
Q 79.890625 40.578125 77.09375 44.375 
Q 74.3125 48.1875 68.609375 48.1875 
Q 61.625 48.1875 57.5625 43.546875 
Q 53.515625 38.921875 53.515625 30.90625 
L 53.515625 0 
L 44.484375 0 
L 44.484375 32.71875 
Q 44.484375 40.625 41.703125 44.40625 
Q 38.921875 48.1875 33.109375 48.1875 
Q 26.21875 48.1875 22.15625 43.53125 
Q 18.109375 38.875 18.109375 30.90625 
L 18.109375 0 
L 9.078125 0 
L 9.078125 54.6875 
L 18.109375 54.6875 
L 18.109375 46.1875 
Q 21.1875 51.21875 25.484375 53.609375 
Q 29.78125 56 35.6875 56 
Q 41.65625 56 45.828125 52.96875 
Q 50 49.953125 52 44.1875 
" id="DejaVuSans-6d"/>
     </defs>
     <g style="fill:#262626;" transform="translate(167.895198 91.354687)scale(0.1 -0.1)">
      <use xlink:href="#DejaVuSans-6c"/>
      <use x="27.783203" xlink:href="#DejaVuSans-75"/>
      <use x="91.162109" xlink:href="#DejaVuSans-6d"/>
     </g>
    </g>
    <g id="line2d_17">
     <path d="M 139.895198 102.532812 
L 159.895198 102.532812 
" style="fill:none;stroke:#ffa500;stroke-dasharray:8.4,3.6;stroke-dashoffset:0;stroke-width:3;"/>
    </g>
    <g id="line2d_18"/>
    <g id="text_10">
     <!-- lum-pred -->
     <defs>
      <path d="M 4.890625 31.390625 
L 31.203125 31.390625 
L 31.203125 23.390625 
L 4.890625 23.390625 
z
" id="DejaVuSans-2d"/>
      <path d="M 56.203125 29.59375 
L 56.203125 25.203125 
L 14.890625 25.203125 
Q 15.484375 15.921875 20.484375 11.0625 
Q 25.484375 6.203125 34.421875 6.203125 
Q 39.59375 6.203125 44.453125 7.46875 
Q 49.3125 8.734375 54.109375 11.28125 
L 54.109375 2.78125 
Q 49.265625 0.734375 44.1875 -0.34375 
Q 39.109375 -1.421875 33.890625 -1.421875 
Q 20.796875 -1.421875 13.15625 6.1875 
Q 5.515625 13.8125 5.515625 26.8125 
Q 5.515625 40.234375 12.765625 48.109375 
Q 20.015625 56 32.328125 56 
Q 43.359375 56 49.78125 48.890625 
Q 56.203125 41.796875 56.203125 29.59375 
M 47.21875 32.234375 
Q 47.125 39.59375 43.09375 43.984375 
Q 39.0625 48.390625 32.421875 48.390625 
Q 24.90625 48.390625 20.390625 44.140625 
Q 15.875 39.890625 15.1875 32.171875 
z
" id="DejaVuSans-65"/>
     </defs>
     <g style="fill:#262626;" transform="translate(167.895198 106.032812)scale(0.1 -0.1)">
      <use xlink:href="#DejaVuSans-6c"/>
      <use x="27.783203" xlink:href="#DejaVuSans-75"/>
      <use x="91.162109" xlink:href="#DejaVuSans-6d"/>
      <use x="188.574219" xlink:href="#DejaVuSans-2d"/>
      <use x="224.658203" xlink:href="#DejaVuSans-70"/>
      <use x="288.134766" xlink:href="#DejaVuSans-72"/>
      <use x="329.216797" xlink:href="#DejaVuSans-65"/>
      <use x="390.740234" xlink:href="#DejaVuSans-64"/>
     </g>
    </g>
   </g>
  </g>
  <g id="axes_2">
   <g id="patch_7">
    <path d="M 225.482927 179.080851 
L 388.8 179.080851 
L 388.8 50.4 
L 225.482927 50.4 
z
" style="fill:#ffffff;"/>
   </g>
   <g id="matplotlib.axis_3">
    <g id="xtick_4">
     <g id="line2d_19">
      <g>
       <use style="fill:#262626;stroke:#262626;" x="232.90643" xlink:href="#maf6c6b9903" y="179.080851"/>
      </g>
     </g>
    </g>
    <g id="xtick_5">
     <g id="line2d_20">
      <g>
       <use style="fill:#262626;stroke:#262626;" x="296.085182" xlink:href="#maf6c6b9903" y="179.080851"/>
      </g>
     </g>
    </g>
    <g id="xtick_6">
     <g id="line2d_21">
      <g>
       <use style="fill:#262626;stroke:#262626;" x="359.263934" xlink:href="#maf6c6b9903" y="179.080851"/>
      </g>
     </g>
    </g>
    <g id="text_11">
     <!-- $d \ [km]$ -->
     <g style="fill:#262626;" transform="translate(283.546463 193.946617)scale(0.143 -0.143)">
      <use transform="translate(0 0.015625)" xlink:href="#DejaVuSans-Oblique-64"/>
      <use transform="translate(95.946941 0.015625)" xlink:href="#DejaVuSans-5b"/>
      <use transform="translate(134.960613 0.015625)" xlink:href="#DejaVuSans-Oblique-6b"/>
      <use transform="translate(192.870769 0.015625)" xlink:href="#DejaVuSans-Oblique-6d"/>
      <use transform="translate(290.282878 0.015625)" xlink:href="#DejaVuSans-5d"/>
     </g>
    </g>
   </g>
   <g id="matplotlib.axis_4">
    <g id="ytick_4">
     <g id="line2d_22">
      <g>
       <use style="fill:#262626;stroke:#262626;" x="225.482927" xlink:href="#md4c45fe2c9" y="173.231721"/>
      </g>
     </g>
    </g>
    <g id="ytick_5">
     <g id="line2d_23">
      <g>
       <use style="fill:#262626;stroke:#262626;" x="225.482927" xlink:href="#md4c45fe2c9" y="114.740426"/>
      </g>
     </g>
    </g>
    <g id="ytick_6">
     <g id="line2d_24">
      <g>
       <use style="fill:#262626;stroke:#262626;" x="225.482927" xlink:href="#md4c45fe2c9" y="56.24913"/>
      </g>
     </g>
    </g>
   </g>
   <g id="line2d_25">
    <path clip-path="url(#pbf7473c76c)" d="M 232.90643 173.231721 
L 236.065368 173.231721 
L 239.224305 119.113739 
L 242.383243 173.231721 
L 245.54218 173.231721 
L 248.701118 173.231721 
L 251.860056 132.619376 
L 255.018993 161.753508 
L 258.177931 97.464197 
L 261.336868 109.558847 
L 264.495806 56.24913 
L 267.654744 97.210267 
L 270.813681 81.409228 
L 273.972619 73.161391 
L 277.131556 106.678465 
L 280.290494 114.52225 
L 283.449432 167.55722 
L 286.608369 141.942124 
L 289.767307 154.954141 
L 292.926244 142.775809 
L 296.085182 147.454973 
L 299.244119 152.699187 
L 302.403057 143.718579 
L 305.561995 164.474514 
L 308.720932 170.721956 
L 311.87987 169.152241 
L 315.038807 159.780844 
L 318.197745 161.350891 
L 321.356683 164.886719 
L 324.51562 173.231721 
L 327.674558 173.231721 
L 330.833495 173.169005 
L 333.992433 162.246773 
L 337.15137 162.373027 
L 340.310308 160.904784 
L 343.469246 165.26364 
L 346.628183 161.414379 
L 349.787121 167.104567 
L 352.946058 164.005013 
L 356.104996 172.23323 
L 359.263934 162.255412 
L 362.422871 167.647719 
L 365.581809 163.314046 
L 368.740746 173.17436 
L 371.899684 172.968624 
L 375.058622 173.231721 
L 378.217559 173.060388 
L 381.376497 154.342258 
" style="fill:none;opacity:0.4;stroke:#000000;stroke-linecap:round;stroke-width:2;"/>
   </g>
   <g id="line2d_26">
    <path clip-path="url(#pbf7473c76c)" d="M 232.90643 173.231721 
L 236.065368 173.231721 
L 239.224305 173.231721 
L 242.383243 105.688932 
L 245.54218 56.24913 
L 248.701118 117.905479 
L 251.860056 59.956836 
L 255.018993 107.604537 
L 258.177931 153.632251 
L 261.336868 146.487294 
L 264.495806 136.867166 
L 267.654744 63.731548 
L 270.813681 68.442325 
L 273.972619 74.674386 
L 277.131556 105.849205 
L 280.290494 113.624328 
L 283.449432 119.871166 
L 286.608369 161.320205 
L 289.767307 150.178553 
L 292.926244 146.214606 
L 296.085182 158.468115 
L 299.244119 144.306232 
L 302.403057 148.300105 
L 305.561995 155.362343 
L 308.720932 172.017869 
L 311.87987 162.736427 
L 315.038807 156.583851 
L 318.197745 170.147576 
L 321.356683 172.398727 
L 324.51562 172.580267 
L 327.674558 169.435346 
L 330.833495 141.571039 
L 333.992433 163.804757 
L 337.15137 169.846409 
L 340.310308 172.804824 
L 343.469246 172.648114 
L 346.628183 172.838637 
L 349.787121 172.559891 
L 352.946058 162.305735 
L 356.104996 145.786608 
L 359.263934 156.887511 
L 362.422871 172.582408 
L 365.581809 167.733228 
L 368.740746 165.629034 
L 371.899684 166.630218 
L 375.058622 164.642963 
L 378.217559 155.791208 
L 381.376497 163.726115 
" style="fill:none;opacity:0.4;stroke:#008000;stroke-linecap:round;stroke-width:2;"/>
   </g>
   <g id="line2d_27">
    <path clip-path="url(#pbf7473c76c)" d="M 232.90643 173.231721 
L 236.065368 173.231721 
L 239.224305 159.609044 
L 242.383243 169.951082 
L 245.54218 173.231721 
L 248.701118 172.534726 
L 251.860056 162.279598 
L 255.018993 149.955775 
L 258.177931 88.556145 
L 261.336868 104.979731 
L 264.495806 66.268014 
L 267.654744 56.24913 
L 270.813681 79.731026 
L 273.972619 79.133965 
L 277.131556 99.811803 
L 280.290494 97.636645 
L 283.449432 123.994895 
L 286.608369 153.901139 
L 289.767307 152.521801 
L 292.926244 168.378147 
L 296.085182 166.93628 
L 299.244119 152.413877 
L 302.403057 150.71171 
L 305.561995 155.831558 
L 308.720932 171.246231 
L 311.87987 171.248818 
L 315.038807 168.102383 
L 318.197745 166.166892 
L 321.356683 166.384102 
L 324.51562 168.481647 
L 327.674558 170.731392 
L 330.833495 169.178308 
L 333.992433 164.790941 
L 337.15137 164.91247 
L 340.310308 165.055183 
L 343.469246 171.474705 
L 346.628183 170.41393 
L 349.787121 170.545555 
L 352.946058 162.056819 
L 356.104996 170.046154 
L 359.263934 168.900471 
L 362.422871 160.805683 
L 365.581809 154.144546 
L 368.740746 170.779666 
L 371.899684 169.303077 
L 375.058622 169.696053 
L 378.217559 169.292736 
L 381.376497 165.737197 
" style="fill:none;opacity:0.9;stroke:#ffa500;stroke-linecap:round;stroke-width:2;"/>
   </g>
   <g id="line2d_28">
    <path clip-path="url(#pbf7473c76c)" d="M 232.90643 56.24913 
L 236.065368 56.24913 
L 239.224305 152.095934 
L 242.383243 164.81075 
L 245.54218 88.708081 
L 248.701118 170.109601 
L 251.860056 158.377594 
L 255.018993 147.481629 
L 258.177931 122.157075 
L 261.336868 126.908839 
L 264.495806 83.765066 
L 267.654744 85.722301 
L 270.813681 102.065478 
L 273.972619 107.442495 
L 277.131556 110.91782 
L 280.290494 116.407543 
L 283.449432 136.739281 
L 286.608369 153.703911 
L 289.767307 154.05638 
L 292.926244 164.39909 
L 296.085182 164.9748 
L 299.244119 154.56728 
L 302.403057 155.917162 
L 305.561995 158.992856 
L 308.720932 170.476766 
L 311.87987 169.821281 
L 315.038807 167.918779 
L 318.197745 166.992756 
L 321.356683 168.514121 
L 324.51562 168.970954 
L 327.674558 170.31214 
L 330.833495 168.647225 
L 333.992433 166.747459 
L 337.15137 167.343211 
L 340.310308 167.516266 
L 343.469246 171.125675 
L 346.628183 170.536478 
L 349.787121 170.276615 
L 352.946058 165.033724 
L 356.104996 169.789417 
L 359.263934 169.002801 
L 362.422871 163.586899 
L 365.581809 162.949631 
L 368.740746 170.789624 
L 371.899684 169.424177 
L 375.058622 169.286477 
L 378.217559 169.721081 
L 381.376497 167.617658 
" style="fill:none;stroke:#ffa500;stroke-dasharray:8.4,3.6;stroke-dashoffset:0;stroke-width:3;"/>
   </g>
   <g id="patch_8">
    <path d="M 225.482927 179.080851 
L 225.482927 50.4 
" style="fill:none;stroke:#262626;stroke-linecap:square;stroke-linejoin:miter;stroke-width:1.25;"/>
   </g>
   <g id="patch_9">
    <path d="M 388.8 179.080851 
L 388.8 50.4 
" style="fill:none;stroke:#262626;stroke-linecap:square;stroke-linejoin:miter;stroke-width:1.25;"/>
   </g>
   <g id="patch_10">
    <path d="M 225.482927 179.080851 
L 388.8 179.080851 
" style="fill:none;stroke:#262626;stroke-linecap:square;stroke-linejoin:miter;stroke-width:1.25;"/>
   </g>
   <g id="patch_11">
    <path d="M 225.482927 50.4 
L 388.8 50.4 
" style="fill:none;stroke:#262626;stroke-linecap:square;stroke-linejoin:miter;stroke-width:1.25;"/>
   </g>
   <g id="text_12">
    <!-- barcelona -->
    <defs>
     <path d="M 48.78125 52.59375 
L 48.78125 44.1875 
Q 44.96875 46.296875 41.140625 47.34375 
Q 37.3125 48.390625 33.40625 48.390625 
Q 24.65625 48.390625 19.8125 42.84375 
Q 14.984375 37.3125 14.984375 27.296875 
Q 14.984375 17.28125 19.8125 11.734375 
Q 24.65625 6.203125 33.40625 6.203125 
Q 37.3125 6.203125 41.140625 7.25 
Q 44.96875 8.296875 48.78125 10.40625 
L 48.78125 2.09375 
Q 45.015625 0.34375 40.984375 -0.53125 
Q 36.96875 -1.421875 32.421875 -1.421875 
Q 20.0625 -1.421875 12.78125 6.34375 
Q 5.515625 14.109375 5.515625 27.296875 
Q 5.515625 40.671875 12.859375 48.328125 
Q 20.21875 56 33.015625 56 
Q 37.15625 56 41.109375 55.140625 
Q 45.0625 54.296875 48.78125 52.59375 
" id="DejaVuSans-63"/>
     <path d="M 54.890625 33.015625 
L 54.890625 0 
L 45.90625 0 
L 45.90625 32.71875 
Q 45.90625 40.484375 42.875 44.328125 
Q 39.84375 48.1875 33.796875 48.1875 
Q 26.515625 48.1875 22.3125 43.546875 
Q 18.109375 38.921875 18.109375 30.90625 
L 18.109375 0 
L 9.078125 0 
L 9.078125 54.6875 
L 18.109375 54.6875 
L 18.109375 46.1875 
Q 21.34375 51.125 25.703125 53.5625 
Q 30.078125 56 35.796875 56 
Q 45.21875 56 50.046875 50.171875 
Q 54.890625 44.34375 54.890625 33.015625 
" id="DejaVuSans-6e"/>
    </defs>
    <g style="fill:#262626;" transform="translate(268.454682 44.4)scale(0.156 -0.156)">
     <use xlink:href="#DejaVuSans-62"/>
     <use x="63.476562" xlink:href="#DejaVuSans-61"/>
     <use x="124.755859" xlink:href="#DejaVuSans-72"/>
     <use x="165.837891" xlink:href="#DejaVuSans-63"/>
     <use x="220.818359" xlink:href="#DejaVuSans-65"/>
     <use x="282.341797" xlink:href="#DejaVuSans-6c"/>
     <use x="310.125" xlink:href="#DejaVuSans-6f"/>
     <use x="371.306641" xlink:href="#DejaVuSans-6e"/>
     <use x="434.685547" xlink:href="#DejaVuSans-61"/>
    </g>
   </g>
  </g>
  <g id="axes_3">
   <g id="patch_12">
    <path d="M 54 352.8 
L 217.317073 352.8 
L 217.317073 224.119149 
L 54 224.119149 
z
" style="fill:#ffffff;"/>
   </g>
   <g id="matplotlib.axis_5">
    <g id="xtick_7">
     <g id="line2d_29">
      <g>
       <use style="fill:#262626;stroke:#262626;" x="61.423503" xlink:href="#maf6c6b9903" y="352.8"/>
      </g>
     </g>
     <g id="text_13">
      <!-- 0 -->
      <g style="fill:#262626;" transform="translate(57.287878 375.677969)scale(0.13 -0.13)">
       <use xlink:href="#DejaVuSans-30"/>
      </g>
     </g>
    </g>
    <g id="xtick_8">
     <g id="line2d_30">
      <g>
       <use style="fill:#262626;stroke:#262626;" x="124.602255" xlink:href="#maf6c6b9903" y="352.8"/>
      </g>
     </g>
     <g id="text_14">
      <!-- 20 -->
      <defs>
       <path d="M 19.1875 8.296875 
L 53.609375 8.296875 
L 53.609375 0 
L 7.328125 0 
L 7.328125 8.296875 
Q 12.9375 14.109375 22.625 23.890625 
Q 32.328125 33.6875 34.8125 36.53125 
Q 39.546875 41.84375 41.421875 45.53125 
Q 43.3125 49.21875 43.3125 52.78125 
Q 43.3125 58.59375 39.234375 62.25 
Q 35.15625 65.921875 28.609375 65.921875 
Q 23.96875 65.921875 18.8125 64.3125 
Q 13.671875 62.703125 7.8125 59.421875 
L 7.8125 69.390625 
Q 13.765625 71.78125 18.9375 73 
Q 24.125 74.21875 28.421875 74.21875 
Q 39.75 74.21875 46.484375 68.546875 
Q 53.21875 62.890625 53.21875 53.421875 
Q 53.21875 48.921875 51.53125 44.890625 
Q 49.859375 40.875 45.40625 35.40625 
Q 44.1875 33.984375 37.640625 27.21875 
Q 31.109375 20.453125 19.1875 8.296875 
" id="DejaVuSans-32"/>
      </defs>
      <g style="fill:#262626;" transform="translate(116.331005 375.677969)scale(0.13 -0.13)">
       <use xlink:href="#DejaVuSans-32"/>
       <use x="63.623047" xlink:href="#DejaVuSans-30"/>
      </g>
     </g>
    </g>
    <g id="xtick_9">
     <g id="line2d_31">
      <g>
       <use style="fill:#262626;stroke:#262626;" x="187.781007" xlink:href="#maf6c6b9903" y="352.8"/>
      </g>
     </g>
     <g id="text_15">
      <!-- 40 -->
      <defs>
       <path d="M 37.796875 64.3125 
L 12.890625 25.390625 
L 37.796875 25.390625 
z
M 35.203125 72.90625 
L 47.609375 72.90625 
L 47.609375 25.390625 
L 58.015625 25.390625 
L 58.015625 17.1875 
L 47.609375 17.1875 
L 47.609375 0 
L 37.796875 0 
L 37.796875 17.1875 
L 4.890625 17.1875 
L 4.890625 26.703125 
z
" id="DejaVuSans-34"/>
      </defs>
      <g style="fill:#262626;" transform="translate(179.509757 375.677969)scale(0.13 -0.13)">
       <use xlink:href="#DejaVuSans-34"/>
       <use x="63.623047" xlink:href="#DejaVuSans-30"/>
      </g>
     </g>
    </g>
    <g id="text_16">
     <!-- $d \ [km]$ -->
     <g style="fill:#262626;" transform="translate(112.063537 393.247328)scale(0.143 -0.143)">
      <use transform="translate(0 0.015625)" xlink:href="#DejaVuSans-Oblique-64"/>
      <use transform="translate(95.946941 0.015625)" xlink:href="#DejaVuSans-5b"/>
      <use transform="translate(134.960613 0.015625)" xlink:href="#DejaVuSans-Oblique-6b"/>
      <use transform="translate(192.870769 0.015625)" xlink:href="#DejaVuSans-Oblique-6d"/>
      <use transform="translate(290.282878 0.015625)" xlink:href="#DejaVuSans-5d"/>
     </g>
    </g>
   </g>
   <g id="matplotlib.axis_6">
    <g id="ytick_7">
     <g id="line2d_32">
      <g>
       <use style="fill:#262626;stroke:#262626;" x="54" xlink:href="#md4c45fe2c9" y="346.95087"/>
      </g>
     </g>
     <g id="text_17">
      <!-- 0.0 -->
      <g style="fill:#262626;" transform="translate(20.325937 351.889855)scale(0.13 -0.13)">
       <use xlink:href="#DejaVuSans-30"/>
       <use x="63.623047" xlink:href="#DejaVuSans-2e"/>
       <use x="95.410156" xlink:href="#DejaVuSans-30"/>
      </g>
     </g>
    </g>
    <g id="ytick_8">
     <g id="line2d_33">
      <g>
       <use style="fill:#262626;stroke:#262626;" x="54" xlink:href="#md4c45fe2c9" y="288.459574"/>
      </g>
     </g>
     <g id="text_18">
      <!-- 0.5 -->
      <g style="fill:#262626;" transform="translate(20.325937 293.398559)scale(0.13 -0.13)">
       <use xlink:href="#DejaVuSans-30"/>
       <use x="63.623047" xlink:href="#DejaVuSans-2e"/>
       <use x="95.410156" xlink:href="#DejaVuSans-35"/>
      </g>
     </g>
    </g>
    <g id="ytick_9">
     <g id="line2d_34">
      <g>
       <use style="fill:#262626;stroke:#262626;" x="54" xlink:href="#md4c45fe2c9" y="229.968279"/>
      </g>
     </g>
     <g id="text_19">
      <!-- 1.0 -->
      <g style="fill:#262626;" transform="translate(20.325937 234.907263)scale(0.13 -0.13)">
       <use xlink:href="#DejaVuSans-31"/>
       <use x="63.623047" xlink:href="#DejaVuSans-2e"/>
       <use x="95.410156" xlink:href="#DejaVuSans-30"/>
      </g>
     </g>
    </g>
   </g>
   <g id="line2d_35">
    <path clip-path="url(#pb1717a85c3)" d="M 61.423503 346.95087 
L 64.582441 346.95087 
L 67.741378 346.95087 
L 70.900316 346.95087 
L 74.059254 327.453772 
L 77.218191 281.932919 
L 80.377129 229.968279 
L 83.536066 253.173444 
L 86.695004 236.125257 
L 89.853942 244.223545 
L 93.012879 248.647365 
L 96.171817 295.200972 
L 99.330754 283.811726 
L 102.489692 277.836913 
L 105.64863 299.174668 
L 108.807567 305.981433 
L 111.966505 302.753956 
L 115.125442 317.082975 
L 118.28438 284.170227 
L 121.443317 243.717732 
L 124.602255 250.540381 
L 127.761193 271.959444 
L 130.92013 303.203295 
L 134.079068 294.484314 
L 137.238005 305.657902 
L 140.396943 312.111769 
L 143.555881 309.630328 
L 146.714818 318.034838 
L 149.873756 334.945902 
L 153.032693 332.84927 
L 156.191631 324.141634 
L 159.350568 328.331726 
L 162.509506 324.12299 
L 165.668444 331.954998 
L 168.827381 332.794798 
L 171.986319 335.997457 
L 175.145256 331.86875 
L 178.304194 327.782089 
L 181.463132 339.618006 
L 184.622069 344.784107 
L 187.781007 344.761191 
L 190.939944 341.201918 
L 194.098882 344.888677 
L 197.25782 339.77009 
L 200.416757 344.960853 
L 203.575695 346.95087 
L 206.734632 345.547079 
L 209.89357 346.295812 
" style="fill:none;opacity:0.4;stroke:#000000;stroke-linecap:round;stroke-width:2;"/>
   </g>
   <g id="line2d_36">
    <path clip-path="url(#pb1717a85c3)" d="M 61.423503 346.95087 
L 64.582441 346.95087 
L 67.741378 346.95087 
L 70.900316 346.728733 
L 74.059254 333.360406 
L 77.218191 297.339224 
L 80.377129 256.854652 
L 83.536066 245.811163 
L 86.695004 240.810125 
L 89.853942 229.968279 
L 93.012879 263.311433 
L 96.171817 293.521653 
L 99.330754 293.755792 
L 102.489692 295.047174 
L 105.64863 303.689973 
L 108.807567 301.602839 
L 111.966505 310.684069 
L 115.125442 306.834392 
L 118.28438 300.569065 
L 121.443317 296.314396 
L 124.602255 304.316547 
L 127.761193 316.897511 
L 130.92013 326.699124 
L 134.079068 315.272941 
L 137.238005 325.051252 
L 140.396943 327.186161 
L 143.555881 328.490377 
L 146.714818 334.75069 
L 149.873756 341.818469 
L 153.032693 342.763948 
L 156.191631 341.445536 
L 159.350568 337.642193 
L 162.509506 334.463102 
L 165.668444 340.360374 
L 168.827381 342.421358 
L 171.986319 343.835093 
L 175.145256 343.111413 
L 178.304194 343.878807 
L 181.463132 346.298633 
L 184.622069 346.389845 
L 187.781007 345.757478 
L 190.939944 344.233778 
L 194.098882 345.509925 
L 197.25782 345.503292 
L 200.416757 346.211783 
L 203.575695 346.428312 
L 206.734632 346.13896 
L 209.89357 346.163059 
" style="fill:none;opacity:0.4;stroke:#008000;stroke-linecap:round;stroke-width:2;"/>
   </g>
   <g id="line2d_37">
    <path clip-path="url(#pb1717a85c3)" d="M 61.423503 346.95087 
L 64.582441 346.95087 
L 67.741378 342.800736 
L 70.900316 341.747699 
L 74.059254 328.377161 
L 77.218191 298.253496 
L 80.377129 253.341498 
L 83.536066 229.968279 
L 86.695004 232.198346 
L 89.853942 256.86533 
L 93.012879 248.34248 
L 96.171817 271.11616 
L 99.330754 282.892265 
L 102.489692 274.091827 
L 105.64863 290.651504 
L 108.807567 302.809322 
L 111.966505 303.170597 
L 115.125442 309.234297 
L 118.28438 296.651393 
L 121.443317 289.848624 
L 124.602255 277.289212 
L 127.761193 289.510948 
L 130.92013 309.56284 
L 134.079068 314.639585 
L 137.238005 313.182703 
L 140.396943 314.984972 
L 143.555881 314.901371 
L 146.714818 319.860356 
L 149.873756 327.102527 
L 153.032693 325.838547 
L 156.191631 326.611528 
L 159.350568 329.093729 
L 162.509506 331.406482 
L 165.668444 336.398965 
L 168.827381 336.104033 
L 171.986319 338.645194 
L 175.145256 339.91356 
L 178.304194 338.117046 
L 181.463132 341.183551 
L 184.622069 343.272501 
L 187.781007 344.346732 
L 190.939944 345.106646 
L 194.098882 345.2689 
L 197.25782 345.2279 
L 200.416757 344.861145 
L 203.575695 345.943356 
L 206.734632 345.899441 
L 209.89357 345.773983 
" style="fill:none;opacity:0.9;stroke:#ffa500;stroke-linecap:round;stroke-width:2;"/>
   </g>
   <g id="line2d_38">
    <path clip-path="url(#pb1717a85c3)" d="M 61.423503 229.968279 
L 64.582441 229.968279 
L 67.741378 336.096406 
L 70.900316 338.346397 
L 74.059254 328.171814 
L 77.218191 291.497325 
L 80.377129 253.689698 
L 83.536066 237.535143 
L 86.695004 241.912523 
L 89.853942 254.300545 
L 93.012879 253.235371 
L 96.171817 275.580995 
L 99.330754 282.985522 
L 102.489692 282.744529 
L 105.64863 293.44151 
L 108.807567 297.553275 
L 111.966505 299.501226 
L 115.125442 311.51779 
L 118.28438 296.662826 
L 121.443317 289.095248 
L 124.602255 285.652357 
L 127.761193 291.520459 
L 130.92013 307.829642 
L 134.079068 313.843449 
L 137.238005 316.935328 
L 140.396943 319.592333 
L 143.555881 318.22464 
L 146.714818 325.241659 
L 149.873756 329.918529 
L 153.032693 330.258907 
L 156.191631 330.250155 
L 159.350568 332.201024 
L 162.509506 333.534079 
L 165.668444 336.842416 
L 168.827381 337.4935 
L 171.986319 338.768979 
L 175.145256 340.011457 
L 178.304194 339.280125 
L 181.463132 342.02245 
L 184.622069 343.582097 
L 187.781007 343.965763 
L 190.939944 344.720031 
L 194.098882 344.942363 
L 197.25782 344.854586 
L 200.416757 344.654502 
L 203.575695 345.871433 
L 206.734632 345.742378 
L 209.89357 345.840851 
" style="fill:none;stroke:#ffa500;stroke-dasharray:8.4,3.6;stroke-dashoffset:0;stroke-width:3;"/>
   </g>
   <g id="patch_13">
    <path d="M 54 352.8 
L 54 224.119149 
" style="fill:none;stroke:#262626;stroke-linecap:square;stroke-linejoin:miter;stroke-width:1.25;"/>
   </g>
   <g id="patch_14">
    <path d="M 217.317073 352.8 
L 217.317073 224.119149 
" style="fill:none;stroke:#262626;stroke-linecap:square;stroke-linejoin:miter;stroke-width:1.25;"/>
   </g>
   <g id="patch_15">
    <path d="M 54 352.8 
L 217.317073 352.8 
" style="fill:none;stroke:#262626;stroke-linecap:square;stroke-linejoin:miter;stroke-width:1.25;"/>
   </g>
   <g id="patch_16">
    <path d="M 54 224.119149 
L 217.317073 224.119149 
" style="fill:none;stroke:#262626;stroke-linecap:square;stroke-linejoin:miter;stroke-width:1.25;"/>
   </g>
   <g id="text_20">
    <!-- rio de janeiro -->
    <defs>
     <path id="DejaVuSans-20"/>
     <path d="M 9.421875 54.6875 
L 18.40625 54.6875 
L 18.40625 -0.984375 
Q 18.40625 -11.421875 14.421875 -16.109375 
Q 10.453125 -20.796875 1.609375 -20.796875 
L -1.8125 -20.796875 
L -1.8125 -13.1875 
L 0.59375 -13.1875 
Q 5.71875 -13.1875 7.5625 -10.8125 
Q 9.421875 -8.453125 9.421875 -0.984375 
z
M 9.421875 75.984375 
L 18.40625 75.984375 
L 18.40625 64.59375 
L 9.421875 64.59375 
z
" id="DejaVuSans-6a"/>
    </defs>
    <g style="fill:#262626;" transform="translate(83.97013 218.119149)scale(0.156 -0.156)">
     <use xlink:href="#DejaVuSans-72"/>
     <use x="41.113281" xlink:href="#DejaVuSans-69"/>
     <use x="68.896484" xlink:href="#DejaVuSans-6f"/>
     <use x="130.078125" xlink:href="#DejaVuSans-20"/>
     <use x="161.865234" xlink:href="#DejaVuSans-64"/>
     <use x="225.341797" xlink:href="#DejaVuSans-65"/>
     <use x="286.865234" xlink:href="#DejaVuSans-20"/>
     <use x="318.652344" xlink:href="#DejaVuSans-6a"/>
     <use x="346.435547" xlink:href="#DejaVuSans-61"/>
     <use x="407.714844" xlink:href="#DejaVuSans-6e"/>
     <use x="471.09375" xlink:href="#DejaVuSans-65"/>
     <use x="532.617188" xlink:href="#DejaVuSans-69"/>
     <use x="560.400391" xlink:href="#DejaVuSans-72"/>
     <use x="601.482422" xlink:href="#DejaVuSans-6f"/>
    </g>
   </g>
  </g>
  <g id="axes_4">
   <g id="patch_17">
    <path d="M 225.482927 352.8 
L 388.8 352.8 
L 388.8 224.119149 
L 225.482927 224.119149 
z
" style="fill:#ffffff;"/>
   </g>
   <g id="matplotlib.axis_7">
    <g id="xtick_10">
     <g id="line2d_39">
      <g>
       <use style="fill:#262626;stroke:#262626;" x="232.90643" xlink:href="#maf6c6b9903" y="352.8"/>
      </g>
     </g>
     <g id="text_21">
      <!-- 0 -->
      <g style="fill:#262626;" transform="translate(228.770805 375.677969)scale(0.13 -0.13)">
       <use xlink:href="#DejaVuSans-30"/>
      </g>
     </g>
    </g>
    <g id="xtick_11">
     <g id="line2d_40">
      <g>
       <use style="fill:#262626;stroke:#262626;" x="296.085182" xlink:href="#maf6c6b9903" y="352.8"/>
      </g>
     </g>
     <g id="text_22">
      <!-- 20 -->
      <g style="fill:#262626;" transform="translate(287.813932 375.677969)scale(0.13 -0.13)">
       <use xlink:href="#DejaVuSans-32"/>
       <use x="63.623047" xlink:href="#DejaVuSans-30"/>
      </g>
     </g>
    </g>
    <g id="xtick_12">
     <g id="line2d_41">
      <g>
       <use style="fill:#262626;stroke:#262626;" x="359.263934" xlink:href="#maf6c6b9903" y="352.8"/>
      </g>
     </g>
     <g id="text_23">
      <!-- 40 -->
      <g style="fill:#262626;" transform="translate(350.992684 375.677969)scale(0.13 -0.13)">
       <use xlink:href="#DejaVuSans-34"/>
       <use x="63.623047" xlink:href="#DejaVuSans-30"/>
      </g>
     </g>
    </g>
    <g id="text_24">
     <!-- $d \ [km]$ -->
     <g style="fill:#262626;" transform="translate(283.546463 393.247328)scale(0.143 -0.143)">
      <use transform="translate(0 0.015625)" xlink:href="#DejaVuSans-Oblique-64"/>
      <use transform="translate(95.946941 0.015625)" xlink:href="#DejaVuSans-5b"/>
      <use transform="translate(134.960613 0.015625)" xlink:href="#DejaVuSans-Oblique-6b"/>
      <use transform="translate(192.870769 0.015625)" xlink:href="#DejaVuSans-Oblique-6d"/>
      <use transform="translate(290.282878 0.015625)" xlink:href="#DejaVuSans-5d"/>
     </g>
    </g>
   </g>
   <g id="matplotlib.axis_8">
    <g id="ytick_10">
     <g id="line2d_42">
      <g>
       <use style="fill:#262626;stroke:#262626;" x="225.482927" xlink:href="#md4c45fe2c9" y="346.95087"/>
      </g>
     </g>
    </g>
    <g id="ytick_11">
     <g id="line2d_43">
      <g>
       <use style="fill:#262626;stroke:#262626;" x="225.482927" xlink:href="#md4c45fe2c9" y="288.459574"/>
      </g>
     </g>
    </g>
    <g id="ytick_12">
     <g id="line2d_44">
      <g>
       <use style="fill:#262626;stroke:#262626;" x="225.482927" xlink:href="#md4c45fe2c9" y="229.968279"/>
      </g>
     </g>
    </g>
   </g>
   <g id="line2d_45">
    <path clip-path="url(#pd2840861f5)" d="M 232.90643 346.95087 
L 236.065368 346.95087 
L 239.224305 248.722632 
L 242.383243 230.992413 
L 245.54218 229.968279 
L 248.701118 254.555186 
L 251.860056 263.905269 
L 255.018993 298.853795 
L 258.177931 346.95087 
L 261.336868 346.95087 
L 264.495806 346.95087 
L 267.654744 346.95087 
L 270.813681 330.4252 
L 273.972619 341.377904 
L 277.131556 329.115355 
L 280.290494 336.890976 
L 283.449432 326.073644 
L 286.608369 305.483089 
L 289.767307 305.21344 
L 292.926244 308.822244 
L 296.085182 335.062508 
L 299.244119 321.226939 
L 302.403057 316.365841 
L 305.561995 314.058017 
L 308.720932 329.483275 
L 311.87987 307.928327 
L 315.038807 325.995911 
L 318.197745 343.102752 
L 321.356683 326.226421 
L 324.51562 331.481073 
L 327.674558 334.559371 
L 330.833495 338.04195 
L 333.992433 340.931124 
L 337.15137 334.28489 
L 340.310308 341.84842 
L 343.469246 336.104239 
L 346.628183 341.083436 
L 349.787121 339.488507 
L 352.946058 335.689021 
L 356.104996 333.446259 
L 359.263934 333.547735 
L 362.422871 330.89826 
L 365.581809 340.910755 
L 368.740746 344.122984 
L 371.899684 346.95087 
L 375.058622 346.82514 
L 378.217559 345.487319 
L 381.376497 346.95087 
" style="fill:none;opacity:0.4;stroke:#000000;stroke-linecap:round;stroke-width:2;"/>
   </g>
   <g id="line2d_46">
    <path clip-path="url(#pd2840861f5)" d="M 232.90643 346.95087 
L 236.065368 346.95087 
L 239.224305 249.471828 
L 242.383243 229.968279 
L 245.54218 244.967271 
L 248.701118 285.281736 
L 251.860056 309.152278 
L 255.018993 332.132042 
L 258.177931 346.824723 
L 261.336868 346.95087 
L 264.495806 346.327546 
L 267.654744 345.023681 
L 270.813681 344.195088 
L 273.972619 343.803585 
L 277.131556 341.981457 
L 280.290494 343.652796 
L 283.449432 342.725451 
L 286.608369 338.808662 
L 289.767307 337.911244 
L 292.926244 338.94936 
L 296.085182 340.56634 
L 299.244119 341.303249 
L 302.403057 341.187307 
L 305.561995 337.121545 
L 308.720932 337.741441 
L 311.87987 338.18764 
L 315.038807 342.771473 
L 318.197745 342.748699 
L 321.356683 341.391654 
L 324.51562 340.785041 
L 327.674558 343.626314 
L 330.833495 345.113785 
L 333.992433 344.914453 
L 337.15137 345.365642 
L 340.310308 345.146451 
L 343.469246 344.755717 
L 346.628183 345.359824 
L 349.787121 345.265152 
L 352.946058 344.651789 
L 356.104996 344.677865 
L 359.263934 344.156943 
L 362.422871 344.716146 
L 365.581809 345.497424 
L 368.740746 346.808349 
L 371.899684 346.77476 
L 375.058622 346.879916 
L 378.217559 346.750369 
L 381.376497 346.883786 
" style="fill:none;opacity:0.4;stroke:#008000;stroke-linecap:round;stroke-width:2;"/>
   </g>
   <g id="line2d_47">
    <path clip-path="url(#pd2840861f5)" d="M 232.90643 346.95087 
L 236.065368 346.95087 
L 239.224305 262.60683 
L 242.383243 229.968279 
L 245.54218 239.028489 
L 248.701118 273.821927 
L 251.860056 292.986993 
L 255.018993 323.654277 
L 258.177931 343.238214 
L 261.336868 345.44384 
L 264.495806 342.722847 
L 267.654744 344.078526 
L 270.813681 342.436823 
L 273.972619 342.664474 
L 277.131556 337.053047 
L 280.290494 338.850783 
L 283.449432 341.255939 
L 286.608369 336.508166 
L 289.767307 335.972814 
L 292.926244 337.530235 
L 296.085182 333.853679 
L 299.244119 332.005426 
L 302.403057 325.743427 
L 305.561995 327.20058 
L 308.720932 330.410922 
L 311.87987 328.171231 
L 315.038807 340.217346 
L 318.197745 341.983714 
L 321.356683 338.003544 
L 324.51562 335.227378 
L 327.674558 340.79829 
L 330.833495 344.015326 
L 333.992433 344.106255 
L 337.15137 342.334833 
L 340.310308 343.027197 
L 343.469246 341.956565 
L 346.628183 342.949603 
L 349.787121 344.577835 
L 352.946058 343.037234 
L 356.104996 342.411977 
L 359.263934 342.684461 
L 362.422871 344.465842 
L 365.581809 344.475652 
L 368.740746 346.164422 
L 371.899684 346.508621 
L 375.058622 346.481178 
L 378.217559 346.533774 
L 381.376497 346.748716 
" style="fill:none;opacity:0.9;stroke:#ffa500;stroke-linecap:round;stroke-width:2;"/>
   </g>
   <g id="line2d_48">
    <path clip-path="url(#pd2840861f5)" d="M 232.90643 229.968279 
L 236.065368 229.968279 
L 239.224305 255.67712 
L 242.383243 234.667628 
L 245.54218 243.450794 
L 248.701118 270.186118 
L 251.860056 290.830203 
L 255.018993 320.508862 
L 258.177931 343.061385 
L 261.336868 342.173661 
L 264.495806 342.10111 
L 267.654744 341.793805 
L 270.813681 341.328233 
L 273.972619 341.423166 
L 277.131556 336.848503 
L 280.290494 338.087286 
L 283.449432 339.160855 
L 286.608369 333.044938 
L 289.767307 333.163642 
L 292.926244 334.302431 
L 296.085182 332.926259 
L 299.244119 331.680692 
L 302.403057 325.889797 
L 305.561995 328.220112 
L 308.720932 333.785668 
L 311.87987 328.940544 
L 315.038807 338.496484 
L 318.197745 341.539729 
L 321.356683 337.796878 
L 324.51562 336.106691 
L 327.674558 340.809777 
L 330.833495 343.147017 
L 333.992433 343.167214 
L 337.15137 341.703742 
L 340.310308 342.850677 
L 343.469246 341.888538 
L 346.628183 342.740675 
L 349.787121 343.675503 
L 352.946058 342.800284 
L 356.104996 342.280695 
L 359.263934 342.586711 
L 362.422871 343.666994 
L 365.581809 344.066434 
L 368.740746 345.815497 
L 371.899684 346.405174 
L 375.058622 346.355484 
L 378.217559 346.310608 
L 381.376497 346.573614 
" style="fill:none;stroke:#ffa500;stroke-dasharray:8.4,3.6;stroke-dashoffset:0;stroke-width:3;"/>
   </g>
   <g id="patch_18">
    <path d="M 225.482927 352.8 
L 225.482927 224.119149 
" style="fill:none;stroke:#262626;stroke-linecap:square;stroke-linejoin:miter;stroke-width:1.25;"/>
   </g>
   <g id="patch_19">
    <path d="M 388.8 352.8 
L 388.8 224.119149 
" style="fill:none;stroke:#262626;stroke-linecap:square;stroke-linejoin:miter;stroke-width:1.25;"/>
   </g>
   <g id="patch_20">
    <path d="M 225.482927 352.8 
L 388.8 352.8 
" style="fill:none;stroke:#262626;stroke-linecap:square;stroke-linejoin:miter;stroke-width:1.25;"/>
   </g>
   <g id="patch_21">
    <path d="M 225.482927 224.119149 
L 388.8 224.119149 
" style="fill:none;stroke:#262626;stroke-linecap:square;stroke-linejoin:miter;stroke-width:1.25;"/>
   </g>
   <g id="text_25">
    <!-- san francisco -->
    <defs>
     <path d="M 37.109375 75.984375 
L 37.109375 68.5 
L 28.515625 68.5 
Q 23.6875 68.5 21.796875 66.546875 
Q 19.921875 64.59375 19.921875 59.515625 
L 19.921875 54.6875 
L 34.71875 54.6875 
L 34.71875 47.703125 
L 19.921875 47.703125 
L 19.921875 0 
L 10.890625 0 
L 10.890625 47.703125 
L 2.296875 47.703125 
L 2.296875 54.6875 
L 10.890625 54.6875 
L 10.890625 58.5 
Q 10.890625 67.625 15.140625 71.796875 
Q 19.390625 75.984375 28.609375 75.984375 
z
" id="DejaVuSans-66"/>
    </defs>
    <g style="fill:#262626;" transform="translate(255.620026 218.119149)scale(0.156 -0.156)">
     <use xlink:href="#DejaVuSans-73"/>
     <use x="52.099609" xlink:href="#DejaVuSans-61"/>
     <use x="113.378906" xlink:href="#DejaVuSans-6e"/>
     <use x="176.757812" xlink:href="#DejaVuSans-20"/>
     <use x="208.544922" xlink:href="#DejaVuSans-66"/>
     <use x="243.75" xlink:href="#DejaVuSans-72"/>
     <use x="284.863281" xlink:href="#DejaVuSans-61"/>
     <use x="346.142578" xlink:href="#DejaVuSans-6e"/>
     <use x="409.521484" xlink:href="#DejaVuSans-63"/>
     <use x="464.501953" xlink:href="#DejaVuSans-69"/>
     <use x="492.285156" xlink:href="#DejaVuSans-73"/>
     <use x="544.384766" xlink:href="#DejaVuSans-63"/>
     <use x="599.365234" xlink:href="#DejaVuSans-6f"/>
    </g>
   </g>
  </g>
  <g id="text_26">
   <!-- Benchmark luminosity profile -->
   <defs>
    <path d="M 19.671875 34.8125 
L 19.671875 8.109375 
L 35.5 8.109375 
Q 43.453125 8.109375 47.28125 11.40625 
Q 51.125 14.703125 51.125 21.484375 
Q 51.125 28.328125 47.28125 31.5625 
Q 43.453125 34.8125 35.5 34.8125 
z
M 19.671875 64.796875 
L 19.671875 42.828125 
L 34.28125 42.828125 
Q 41.5 42.828125 45.03125 45.53125 
Q 48.578125 48.25 48.578125 53.8125 
Q 48.578125 59.328125 45.03125 62.0625 
Q 41.5 64.796875 34.28125 64.796875 
z
M 9.8125 72.90625 
L 35.015625 72.90625 
Q 46.296875 72.90625 52.390625 68.21875 
Q 58.5 63.53125 58.5 54.890625 
Q 58.5 48.1875 55.375 44.234375 
Q 52.25 40.28125 46.1875 39.3125 
Q 53.46875 37.75 57.5 32.78125 
Q 61.53125 27.828125 61.53125 20.40625 
Q 61.53125 10.640625 54.890625 5.3125 
Q 48.25 0 35.984375 0 
L 9.8125 0 
z
" id="DejaVuSans-42"/>
    <path d="M 54.890625 33.015625 
L 54.890625 0 
L 45.90625 0 
L 45.90625 32.71875 
Q 45.90625 40.484375 42.875 44.328125 
Q 39.84375 48.1875 33.796875 48.1875 
Q 26.515625 48.1875 22.3125 43.546875 
Q 18.109375 38.921875 18.109375 30.90625 
L 18.109375 0 
L 9.078125 0 
L 9.078125 75.984375 
L 18.109375 75.984375 
L 18.109375 46.1875 
Q 21.34375 51.125 25.703125 53.5625 
Q 30.078125 56 35.796875 56 
Q 45.21875 56 50.046875 50.171875 
Q 54.890625 44.34375 54.890625 33.015625 
" id="DejaVuSans-68"/>
    <path d="M 9.078125 75.984375 
L 18.109375 75.984375 
L 18.109375 31.109375 
L 44.921875 54.6875 
L 56.390625 54.6875 
L 27.390625 29.109375 
L 57.625 0 
L 45.90625 0 
L 18.109375 26.703125 
L 18.109375 0 
L 9.078125 0 
z
" id="DejaVuSans-6b"/>
    <path d="M 18.3125 70.21875 
L 18.3125 54.6875 
L 36.8125 54.6875 
L 36.8125 47.703125 
L 18.3125 47.703125 
L 18.3125 18.015625 
Q 18.3125 11.328125 20.140625 9.421875 
Q 21.96875 7.515625 27.59375 7.515625 
L 36.8125 7.515625 
L 36.8125 0 
L 27.59375 0 
Q 17.1875 0 13.234375 3.875 
Q 9.28125 7.765625 9.28125 18.015625 
L 9.28125 47.703125 
L 2.6875 47.703125 
L 2.6875 54.6875 
L 9.28125 54.6875 
L 9.28125 70.21875 
z
" id="DejaVuSans-74"/>
    <path d="M 32.171875 -5.078125 
Q 28.375 -14.84375 24.75 -17.8125 
Q 21.140625 -20.796875 15.09375 -20.796875 
L 7.90625 -20.796875 
L 7.90625 -13.28125 
L 13.1875 -13.28125 
Q 16.890625 -13.28125 18.9375 -11.515625 
Q 21 -9.765625 23.484375 -3.21875 
L 25.09375 0.875 
L 2.984375 54.6875 
L 12.5 54.6875 
L 29.59375 11.921875 
L 46.6875 54.6875 
L 56.203125 54.6875 
z
" id="DejaVuSans-79"/>
   </defs>
   <g style="fill:#262626;" transform="translate(98.37125 22.2375)scale(0.16 -0.16)">
    <use xlink:href="#DejaVuSans-42"/>
    <use x="68.603516" xlink:href="#DejaVuSans-65"/>
    <use x="130.126953" xlink:href="#DejaVuSans-6e"/>
    <use x="193.505859" xlink:href="#DejaVuSans-63"/>
    <use x="248.486328" xlink:href="#DejaVuSans-68"/>
    <use x="311.865234" xlink:href="#DejaVuSans-6d"/>
    <use x="409.277344" xlink:href="#DejaVuSans-61"/>
    <use x="470.556641" xlink:href="#DejaVuSans-72"/>
    <use x="511.669922" xlink:href="#DejaVuSans-6b"/>
    <use x="569.580078" xlink:href="#DejaVuSans-20"/>
    <use x="601.367188" xlink:href="#DejaVuSans-6c"/>
    <use x="629.150391" xlink:href="#DejaVuSans-75"/>
    <use x="692.529297" xlink:href="#DejaVuSans-6d"/>
    <use x="789.941406" xlink:href="#DejaVuSans-69"/>
    <use x="817.724609" xlink:href="#DejaVuSans-6e"/>
    <use x="881.103516" xlink:href="#DejaVuSans-6f"/>
    <use x="942.285156" xlink:href="#DejaVuSans-73"/>
    <use x="994.384766" xlink:href="#DejaVuSans-69"/>
    <use x="1022.167969" xlink:href="#DejaVuSans-74"/>
    <use x="1061.376953" xlink:href="#DejaVuSans-79"/>
    <use x="1120.556641" xlink:href="#DejaVuSans-20"/>
    <use x="1152.34375" xlink:href="#DejaVuSans-70"/>
    <use x="1215.820312" xlink:href="#DejaVuSans-72"/>
    <use x="1256.902344" xlink:href="#DejaVuSans-6f"/>
    <use x="1318.083984" xlink:href="#DejaVuSans-66"/>
    <use x="1353.289062" xlink:href="#DejaVuSans-69"/>
    <use x="1381.072266" xlink:href="#DejaVuSans-6c"/>
    <use x="1408.855469" xlink:href="#DejaVuSans-65"/>
   </g>
  </g>
 </g>
 <defs>
  <clipPath id="pd451e67fac">
   <rect height="128.680851" width="163.317073" x="54" y="50.4"/>
  </clipPath>
  <clipPath id="pbf7473c76c">
   <rect height="128.680851" width="163.317073" x="225.482927" y="50.4"/>
  </clipPath>
  <clipPath id="pb1717a85c3">
   <rect height="128.680851" width="163.317073" x="54" y="224.119149"/>
  </clipPath>
  <clipPath id="pd2840861f5">
   <rect height="128.680851" width="163.317073" x="225.482927" y="224.119149"/>
  </clipPath>
 </defs>
</svg>
