<?xml version="1.0" encoding="utf-8" standalone="no"?>
<!DOCTYPE svg PUBLIC "-//W3C//DTD SVG 1.1//EN"
  "http://www.w3.org/Graphics/SVG/1.1/DTD/svg11.dtd">
<!-- Created with matplotlib (http://matplotlib.org/) -->
<svg height="400pt" version="1.1" viewBox="0 0 416 400" width="416pt" xmlns="http://www.w3.org/2000/svg" xmlns:xlink="http://www.w3.org/1999/xlink">
 <defs>
  <style type="text/css">
*{stroke-linecap:butt;stroke-linejoin:round;}
  </style>
 </defs>
 <g id="figure_1">
  <g id="patch_1">
   <path d="M 0 400.541281 
L 416.732313 400.541281 
L 416.732313 0 
L 0 0 
z
" style="fill:#ffffff;"/>
  </g>
  <g id="axes_1">
   <g id="patch_2">
    <path d="M 68.732313 181.92 
L 232.049386 181.92 
L 232.049386 47.52 
L 68.732313 47.52 
z
" style="fill:#ffffff;"/>
   </g>
   <g id="matplotlib.axis_1">
    <g id="xtick_1">
     <g id="line2d_1">
      <defs>
       <path d="M 0 0 
L 0 6 
" id="m68a890ff26" style="stroke:#262626;"/>
      </defs>
      <g>
       <use style="fill:#262626;stroke:#262626;" x="76.155816" xlink:href="#m68a890ff26" y="181.92"/>
      </g>
     </g>
    </g>
    <g id="xtick_2">
     <g id="line2d_2">
      <g>
       <use style="fill:#262626;stroke:#262626;" x="139.334568" xlink:href="#m68a890ff26" y="181.92"/>
      </g>
     </g>
    </g>
    <g id="xtick_3">
     <g id="line2d_3">
      <g>
       <use style="fill:#262626;stroke:#262626;" x="202.513319" xlink:href="#m68a890ff26" y="181.92"/>
      </g>
     </g>
    </g>
   </g>
   <g id="matplotlib.axis_2">
    <g id="ytick_1">
     <g id="line2d_4">
      <defs>
       <path d="M 0 0 
L -6 0 
" id="mda8e448482" style="stroke:#262626;"/>
      </defs>
      <g>
       <use style="fill:#262626;stroke:#262626;" x="68.732313" xlink:href="#mda8e448482" y="175.810909"/>
      </g>
     </g>
     <g id="text_1">
      <!-- 0.00 -->
      <defs>
       <path d="M 31.78125 66.40625 
Q 24.171875 66.40625 20.328125 58.90625 
Q 16.5 51.421875 16.5 36.375 
Q 16.5 21.390625 20.328125 13.890625 
Q 24.171875 6.390625 31.78125 6.390625 
Q 39.453125 6.390625 43.28125 13.890625 
Q 47.125 21.390625 47.125 36.375 
Q 47.125 51.421875 43.28125 58.90625 
Q 39.453125 66.40625 31.78125 66.40625 
M 31.78125 74.21875 
Q 44.046875 74.21875 50.515625 64.515625 
Q 56.984375 54.828125 56.984375 36.375 
Q 56.984375 17.96875 50.515625 8.265625 
Q 44.046875 -1.421875 31.78125 -1.421875 
Q 19.53125 -1.421875 13.0625 8.265625 
Q 6.59375 17.96875 6.59375 36.375 
Q 6.59375 54.828125 13.0625 64.515625 
Q 19.53125 74.21875 31.78125 74.21875 
" id="DejaVuSans-30"/>
       <path d="M 10.6875 12.40625 
L 21 12.40625 
L 21 0 
L 10.6875 0 
z
" id="DejaVuSans-2e"/>
      </defs>
      <g style="fill:#262626;" transform="translate(26.787 180.749893)scale(0.13 -0.13)">
       <use xlink:href="#DejaVuSans-30"/>
       <use x="63.623047" xlink:href="#DejaVuSans-2e"/>
       <use x="95.410156" xlink:href="#DejaVuSans-30"/>
       <use x="159.033203" xlink:href="#DejaVuSans-30"/>
      </g>
     </g>
    </g>
    <g id="ytick_2">
     <g id="line2d_5">
      <g>
       <use style="fill:#262626;stroke:#262626;" x="68.732313" xlink:href="#mda8e448482" y="145.265455"/>
      </g>
     </g>
     <g id="text_2">
      <!-- 0.25 -->
      <defs>
       <path d="M 19.1875 8.296875 
L 53.609375 8.296875 
L 53.609375 0 
L 7.328125 0 
L 7.328125 8.296875 
Q 12.9375 14.109375 22.625 23.890625 
Q 32.328125 33.6875 34.8125 36.53125 
Q 39.546875 41.84375 41.421875 45.53125 
Q 43.3125 49.21875 43.3125 52.78125 
Q 43.3125 58.59375 39.234375 62.25 
Q 35.15625 65.921875 28.609375 65.921875 
Q 23.96875 65.921875 18.8125 64.3125 
Q 13.671875 62.703125 7.8125 59.421875 
L 7.8125 69.390625 
Q 13.765625 71.78125 18.9375 73 
Q 24.125 74.21875 28.421875 74.21875 
Q 39.75 74.21875 46.484375 68.546875 
Q 53.21875 62.890625 53.21875 53.421875 
Q 53.21875 48.921875 51.53125 44.890625 
Q 49.859375 40.875 45.40625 35.40625 
Q 44.1875 33.984375 37.640625 27.21875 
Q 31.109375 20.453125 19.1875 8.296875 
" id="DejaVuSans-32"/>
       <path d="M 10.796875 72.90625 
L 49.515625 72.90625 
L 49.515625 64.59375 
L 19.828125 64.59375 
L 19.828125 46.734375 
Q 21.96875 47.46875 24.109375 47.828125 
Q 26.265625 48.1875 28.421875 48.1875 
Q 40.625 48.1875 47.75 41.5 
Q 54.890625 34.8125 54.890625 23.390625 
Q 54.890625 11.625 47.5625 5.09375 
Q 40.234375 -1.421875 26.90625 -1.421875 
Q 22.3125 -1.421875 17.546875 -0.640625 
Q 12.796875 0.140625 7.71875 1.703125 
L 7.71875 11.625 
Q 12.109375 9.234375 16.796875 8.0625 
Q 21.484375 6.890625 26.703125 6.890625 
Q 35.15625 6.890625 40.078125 11.328125 
Q 45.015625 15.765625 45.015625 23.390625 
Q 45.015625 31 40.078125 35.4375 
Q 35.15625 39.890625 26.703125 39.890625 
Q 22.75 39.890625 18.8125 39.015625 
Q 14.890625 38.140625 10.796875 36.28125 
z
" id="DejaVuSans-35"/>
      </defs>
      <g style="fill:#262626;" transform="translate(26.787 150.204439)scale(0.13 -0.13)">
       <use xlink:href="#DejaVuSans-30"/>
       <use x="63.623047" xlink:href="#DejaVuSans-2e"/>
       <use x="95.410156" xlink:href="#DejaVuSans-32"/>
       <use x="159.033203" xlink:href="#DejaVuSans-35"/>
      </g>
     </g>
    </g>
    <g id="ytick_3">
     <g id="line2d_6">
      <g>
       <use style="fill:#262626;stroke:#262626;" x="68.732313" xlink:href="#mda8e448482" y="114.72"/>
      </g>
     </g>
     <g id="text_3">
      <!-- 0.50 -->
      <g style="fill:#262626;" transform="translate(26.787 119.658984)scale(0.13 -0.13)">
       <use xlink:href="#DejaVuSans-30"/>
       <use x="63.623047" xlink:href="#DejaVuSans-2e"/>
       <use x="95.410156" xlink:href="#DejaVuSans-35"/>
       <use x="159.033203" xlink:href="#DejaVuSans-30"/>
      </g>
     </g>
    </g>
    <g id="ytick_4">
     <g id="line2d_7">
      <g>
       <use style="fill:#262626;stroke:#262626;" x="68.732313" xlink:href="#mda8e448482" y="84.174545"/>
      </g>
     </g>
     <g id="text_4">
      <!-- 0.75 -->
      <defs>
       <path d="M 8.203125 72.90625 
L 55.078125 72.90625 
L 55.078125 68.703125 
L 28.609375 0 
L 18.3125 0 
L 43.21875 64.59375 
L 8.203125 64.59375 
z
" id="DejaVuSans-37"/>
      </defs>
      <g style="fill:#262626;" transform="translate(26.787 89.11353)scale(0.13 -0.13)">
       <use xlink:href="#DejaVuSans-30"/>
       <use x="63.623047" xlink:href="#DejaVuSans-2e"/>
       <use x="95.410156" xlink:href="#DejaVuSans-37"/>
       <use x="159.033203" xlink:href="#DejaVuSans-35"/>
      </g>
     </g>
    </g>
    <g id="ytick_5">
     <g id="line2d_8">
      <g>
       <use style="fill:#262626;stroke:#262626;" x="68.732313" xlink:href="#mda8e448482" y="53.629091"/>
      </g>
     </g>
     <g id="text_5">
      <!-- 1.00 -->
      <defs>
       <path d="M 12.40625 8.296875 
L 28.515625 8.296875 
L 28.515625 63.921875 
L 10.984375 60.40625 
L 10.984375 69.390625 
L 28.421875 72.90625 
L 38.28125 72.90625 
L 38.28125 8.296875 
L 54.390625 8.296875 
L 54.390625 0 
L 12.40625 0 
z
" id="DejaVuSans-31"/>
      </defs>
      <g style="fill:#262626;" transform="translate(26.787 58.568075)scale(0.13 -0.13)">
       <use xlink:href="#DejaVuSans-31"/>
       <use x="63.623047" xlink:href="#DejaVuSans-2e"/>
       <use x="95.410156" xlink:href="#DejaVuSans-30"/>
       <use x="159.033203" xlink:href="#DejaVuSans-30"/>
      </g>
     </g>
    </g>
    <g id="text_6">
     <!-- $\hat x_{\cdot}(d)$ -->
     <defs>
      <path d="M -28.609375 79.984375 
L -21.390625 79.984375 
L -9.421875 61.625 
L -16.21875 61.625 
L -25 73.578125 
L -33.796875 61.625 
L -40.578125 61.625 
z
M -25 56 
z
" id="DejaVuSans-302"/>
      <path d="M 60.015625 54.6875 
L 34.90625 27.875 
L 50.296875 0 
L 39.984375 0 
L 28.421875 21.6875 
L 8.296875 0 
L -2.59375 0 
L 24.3125 28.8125 
L 10.015625 54.6875 
L 20.3125 54.6875 
L 30.8125 34.90625 
L 49.125 54.6875 
z
" id="DejaVuSans-Oblique-78"/>
      <path d="M 10.6875 40.921875 
L 21 40.921875 
L 21 28.515625 
L 10.6875 28.515625 
z
" id="DejaVuSans-22c5"/>
      <path d="M 31 75.875 
Q 24.46875 64.65625 21.28125 53.65625 
Q 18.109375 42.671875 18.109375 31.390625 
Q 18.109375 20.125 21.3125 9.0625 
Q 24.515625 -2 31 -13.1875 
L 23.1875 -13.1875 
Q 15.875 -1.703125 12.234375 9.375 
Q 8.59375 20.453125 8.59375 31.390625 
Q 8.59375 42.28125 12.203125 53.3125 
Q 15.828125 64.359375 23.1875 75.875 
z
" id="DejaVuSans-28"/>
      <path d="M 41.796875 8.203125 
Q 38.1875 3.46875 33.25 1.015625 
Q 28.328125 -1.421875 22.3125 -1.421875 
Q 14.109375 -1.421875 9.34375 4.171875 
Q 4.59375 9.765625 4.59375 19.484375 
Q 4.59375 27.59375 7.46875 34.9375 
Q 10.359375 42.28125 15.828125 48.09375 
Q 19.4375 51.953125 23.96875 53.96875 
Q 28.515625 56 33.5 56 
Q 38.765625 56 42.796875 53.453125 
Q 46.828125 50.921875 49.03125 46.1875 
L 54.890625 75.984375 
L 63.921875 75.984375 
L 49.125 0 
L 40.09375 0 
z
M 13.921875 21.09375 
Q 13.921875 14.015625 17.109375 10.0625 
Q 20.3125 6.109375 25.984375 6.109375 
Q 30.171875 6.109375 33.765625 8.125 
Q 37.359375 10.15625 40.09375 14.109375 
Q 42.96875 18.21875 44.625 23.578125 
Q 46.296875 28.953125 46.296875 34.1875 
Q 46.296875 40.96875 43.09375 44.765625 
Q 39.890625 48.578125 34.28125 48.578125 
Q 30.03125 48.578125 26.359375 46.578125 
Q 22.703125 44.578125 20.125 40.828125 
Q 17.28125 36.765625 15.59375 31.390625 
Q 13.921875 26.03125 13.921875 21.09375 
" id="DejaVuSans-Oblique-64"/>
      <path d="M 8.015625 75.875 
L 15.828125 75.875 
Q 23.140625 64.359375 26.78125 53.3125 
Q 30.421875 42.28125 30.421875 31.390625 
Q 30.421875 20.453125 26.78125 9.375 
Q 23.140625 -1.703125 15.828125 -13.1875 
L 8.015625 -13.1875 
Q 14.5 -2 17.703125 9.0625 
Q 20.90625 20.125 20.90625 31.390625 
Q 20.90625 42.671875 17.703125 53.65625 
Q 14.5 64.65625 8.015625 75.875 
" id="DejaVuSans-29"/>
     </defs>
     <g style="fill:#262626;" transform="translate(19.813047 131.2365)rotate(-90)scale(0.143 -0.143)">
      <use transform="translate(64.226562 12.015625)" xlink:href="#DejaVuSans-302"/>
      <use transform="translate(0 0.828125)" xlink:href="#DejaVuSans-Oblique-78"/>
      <use transform="translate(63.550781 -15.578125)scale(0.7)" xlink:href="#DejaVuSans-22c5"/>
      <use transform="translate(88.536133 0.828125)" xlink:href="#DejaVuSans-28"/>
      <use transform="translate(127.549805 0.828125)" xlink:href="#DejaVuSans-Oblique-64"/>
      <use transform="translate(191.026367 0.828125)" xlink:href="#DejaVuSans-29"/>
     </g>
    </g>
   </g>
   <g id="line2d_9">
    <path clip-path="url(#pdbb0634efc)" d="M 76.155816 175.810909 
L 79.314753 175.810909 
L 82.473691 93.881811 
L 85.632629 68.252172 
L 88.791566 57.871483 
L 91.950504 53.629091 
L 95.109441 65.486836 
L 98.268379 81.689605 
L 101.427317 97.399095 
L 104.586254 72.358003 
L 107.745192 64.852623 
L 110.904129 66.140514 
L 114.063067 70.555315 
L 117.222004 75.275657 
L 120.380942 76.710977 
L 123.53988 77.843827 
L 126.698817 95.192679 
L 129.857755 110.047951 
L 133.016692 119.352381 
L 136.17563 115.270885 
L 139.334568 120.549559 
L 142.493505 137.081773 
L 145.652443 154.833393 
L 148.81138 127.336943 
L 151.970318 137.272931 
L 155.129255 140.604413 
L 158.288193 139.169078 
L 161.447131 133.394415 
L 164.606068 141.398712 
L 167.765006 146.687966 
L 170.923943 146.762596 
L 174.082881 145.066149 
L 177.241819 149.267007 
L 180.400756 160.129118 
L 183.559694 156.518288 
L 186.718631 155.193735 
L 189.877569 164.414531 
L 193.036506 162.268692 
L 196.195444 160.933959 
L 199.354382 164.703936 
L 202.513319 165.571007 
L 205.672257 161.121119 
L 208.831194 170.189087 
L 211.990132 168.791851 
L 215.14907 166.29101 
L 218.308007 169.414242 
L 221.466945 163.676558 
L 224.625882 165.785027 
" style="fill:none;opacity:0.4;stroke:#000000;stroke-linecap:round;stroke-width:2;"/>
   </g>
   <g id="line2d_10">
    <path clip-path="url(#pdbb0634efc)" d="M 76.155816 175.810909 
L 79.314753 175.810909 
L 82.473691 93.940343 
L 85.632629 53.629091 
L 88.791566 64.294666 
L 91.950504 67.288282 
L 95.109441 111.365516 
L 98.268379 134.396825 
L 101.427317 135.091926 
L 104.586254 135.735037 
L 107.745192 136.44328 
L 110.904129 149.281197 
L 114.063067 152.376791 
L 117.222004 153.001152 
L 120.380942 157.434709 
L 123.53988 160.088734 
L 126.698817 160.235318 
L 129.857755 162.408254 
L 133.016692 167.05112 
L 136.17563 168.372329 
L 139.334568 170.38874 
L 142.493505 172.857471 
L 145.652443 173.950782 
L 148.81138 171.253286 
L 151.970318 171.741836 
L 155.129255 172.044591 
L 158.288193 172.461374 
L 161.447131 172.298722 
L 164.606068 172.324215 
L 167.765006 172.874124 
L 170.923943 173.449843 
L 174.082881 173.620822 
L 177.241819 174.414286 
L 180.400756 174.552669 
L 183.559694 174.276827 
L 186.718631 174.315124 
L 189.877569 175.054426 
L 193.036506 175.127489 
L 196.195444 175.061571 
L 199.354382 175.195601 
L 202.513319 175.100778 
L 205.672257 175.093713 
L 208.831194 175.361831 
L 211.990132 175.382484 
L 215.14907 175.23998 
L 218.308007 175.209522 
L 221.466945 174.837182 
L 224.625882 174.729352 
" style="fill:none;opacity:0.4;stroke:#008000;stroke-linecap:round;stroke-width:2;"/>
   </g>
   <g id="line2d_11">
    <path clip-path="url(#pdbb0634efc)" d="M 76.155816 175.810909 
L 79.314753 175.810909 
L 82.473691 97.403977 
L 85.632629 53.629091 
L 88.791566 76.836743 
L 91.950504 76.885801 
L 95.109441 82.572861 
L 98.268379 105.349103 
L 101.427317 111.141598 
L 104.586254 99.626525 
L 107.745192 101.067514 
L 110.904129 103.538263 
L 114.063067 116.723761 
L 117.222004 119.922329 
L 120.380942 132.172522 
L 123.53988 134.298992 
L 126.698817 136.517894 
L 129.857755 142.381584 
L 133.016692 146.805678 
L 136.17563 152.358709 
L 139.334568 157.425905 
L 142.493505 161.849035 
L 145.652443 163.037178 
L 148.81138 154.476294 
L 151.970318 155.64091 
L 155.129255 158.855067 
L 158.288193 158.800181 
L 161.447131 159.275318 
L 164.606068 160.204597 
L 167.765006 162.621098 
L 170.923943 163.690645 
L 174.082881 163.255725 
L 177.241819 164.698611 
L 180.400756 169.125746 
L 183.559694 168.693649 
L 186.718631 169.984848 
L 189.877569 171.605338 
L 193.036506 170.053139 
L 196.195444 170.964859 
L 199.354382 172.159504 
L 202.513319 172.429368 
L 205.672257 171.929548 
L 208.831194 172.971843 
L 211.990132 172.620724 
L 215.14907 171.721042 
L 218.308007 172.697744 
L 221.466945 171.544873 
L 224.625882 171.321685 
" style="fill:none;opacity:0.9;stroke:#ffa500;stroke-linecap:round;stroke-width:2;"/>
   </g>
   <g id="line2d_12">
    <path clip-path="url(#pdbb0634efc)" d="M 76.155816 53.629091 
L 79.314753 53.629091 
L 82.473691 90.500704 
L 85.632629 58.434653 
L 88.791566 80.159827 
L 91.950504 83.339791 
L 95.109441 93.684731 
L 98.268379 102.019501 
L 101.427317 111.288925 
L 104.586254 102.906832 
L 107.745192 105.034919 
L 110.904129 114.224886 
L 114.063067 122.012999 
L 117.222004 125.035407 
L 120.380942 133.219379 
L 123.53988 134.005791 
L 126.698817 136.937242 
L 129.857755 140.5856 
L 133.016692 146.79033 
L 136.17563 150.509411 
L 139.334568 155.679789 
L 142.493505 159.015693 
L 145.652443 162.729654 
L 148.81138 155.112137 
L 151.970318 156.254189 
L 155.129255 158.791063 
L 158.288193 159.230477 
L 161.447131 159.023111 
L 164.606068 159.823079 
L 167.765006 162.91287 
L 170.923943 164.591074 
L 174.082881 163.961741 
L 177.241819 165.114692 
L 180.400756 168.891867 
L 183.559694 167.563567 
L 186.718631 170.064923 
L 189.877569 171.928686 
L 193.036506 170.645115 
L 196.195444 170.954438 
L 199.354382 171.302899 
L 202.513319 172.404155 
L 205.672257 171.421869 
L 208.831194 172.851022 
L 211.990132 172.373142 
L 215.14907 171.844662 
L 218.308007 173.028963 
L 221.466945 171.925452 
L 224.625882 171.470253 
" style="fill:none;stroke:#ffa500;stroke-dasharray:8.4,3.6;stroke-dashoffset:0;stroke-width:3;"/>
   </g>
   <g id="patch_3">
    <path d="M 68.732313 181.92 
L 68.732313 47.52 
" style="fill:none;stroke:#262626;stroke-linecap:square;stroke-linejoin:miter;stroke-width:1.25;"/>
   </g>
   <g id="patch_4">
    <path d="M 232.049386 181.92 
L 232.049386 47.52 
" style="fill:none;stroke:#262626;stroke-linecap:square;stroke-linejoin:miter;stroke-width:1.25;"/>
   </g>
   <g id="patch_5">
    <path d="M 68.732313 181.92 
L 232.049386 181.92 
" style="fill:none;stroke:#262626;stroke-linecap:square;stroke-linejoin:miter;stroke-width:1.25;"/>
   </g>
   <g id="patch_6">
    <path d="M 68.732313 47.52 
L 232.049386 47.52 
" style="fill:none;stroke:#262626;stroke-linecap:square;stroke-linejoin:miter;stroke-width:1.25;"/>
   </g>
   <g id="text_7">
    <!-- paris -->
    <defs>
     <path d="M 18.109375 8.203125 
L 18.109375 -20.796875 
L 9.078125 -20.796875 
L 9.078125 54.6875 
L 18.109375 54.6875 
L 18.109375 46.390625 
Q 20.953125 51.265625 25.265625 53.625 
Q 29.59375 56 35.59375 56 
Q 45.5625 56 51.78125 48.09375 
Q 58.015625 40.1875 58.015625 27.296875 
Q 58.015625 14.40625 51.78125 6.484375 
Q 45.5625 -1.421875 35.59375 -1.421875 
Q 29.59375 -1.421875 25.265625 0.953125 
Q 20.953125 3.328125 18.109375 8.203125 
M 48.6875 27.296875 
Q 48.6875 37.203125 44.609375 42.84375 
Q 40.53125 48.484375 33.40625 48.484375 
Q 26.265625 48.484375 22.1875 42.84375 
Q 18.109375 37.203125 18.109375 27.296875 
Q 18.109375 17.390625 22.1875 11.75 
Q 26.265625 6.109375 33.40625 6.109375 
Q 40.53125 6.109375 44.609375 11.75 
Q 48.6875 17.390625 48.6875 27.296875 
" id="DejaVuSans-70"/>
     <path d="M 34.28125 27.484375 
Q 23.390625 27.484375 19.1875 25 
Q 14.984375 22.515625 14.984375 16.5 
Q 14.984375 11.71875 18.140625 8.90625 
Q 21.296875 6.109375 26.703125 6.109375 
Q 34.1875 6.109375 38.703125 11.40625 
Q 43.21875 16.703125 43.21875 25.484375 
L 43.21875 27.484375 
z
M 52.203125 31.203125 
L 52.203125 0 
L 43.21875 0 
L 43.21875 8.296875 
Q 40.140625 3.328125 35.546875 0.953125 
Q 30.953125 -1.421875 24.3125 -1.421875 
Q 15.921875 -1.421875 10.953125 3.296875 
Q 6 8.015625 6 15.921875 
Q 6 25.140625 12.171875 29.828125 
Q 18.359375 34.515625 30.609375 34.515625 
L 43.21875 34.515625 
L 43.21875 35.40625 
Q 43.21875 41.609375 39.140625 45 
Q 35.0625 48.390625 27.6875 48.390625 
Q 23 48.390625 18.546875 47.265625 
Q 14.109375 46.140625 10.015625 43.890625 
L 10.015625 52.203125 
Q 14.9375 54.109375 19.578125 55.046875 
Q 24.21875 56 28.609375 56 
Q 40.484375 56 46.34375 49.84375 
Q 52.203125 43.703125 52.203125 31.203125 
" id="DejaVuSans-61"/>
     <path d="M 41.109375 46.296875 
Q 39.59375 47.171875 37.8125 47.578125 
Q 36.03125 48 33.890625 48 
Q 26.265625 48 22.1875 43.046875 
Q 18.109375 38.09375 18.109375 28.8125 
L 18.109375 0 
L 9.078125 0 
L 9.078125 54.6875 
L 18.109375 54.6875 
L 18.109375 46.1875 
Q 20.953125 51.171875 25.484375 53.578125 
Q 30.03125 56 36.53125 56 
Q 37.453125 56 38.578125 55.875 
Q 39.703125 55.765625 41.0625 55.515625 
z
" id="DejaVuSans-72"/>
     <path d="M 9.421875 54.6875 
L 18.40625 54.6875 
L 18.40625 0 
L 9.421875 0 
z
M 9.421875 75.984375 
L 18.40625 75.984375 
L 18.40625 64.59375 
L 9.421875 64.59375 
z
" id="DejaVuSans-69"/>
     <path d="M 44.28125 53.078125 
L 44.28125 44.578125 
Q 40.484375 46.53125 36.375 47.5 
Q 32.28125 48.484375 27.875 48.484375 
Q 21.1875 48.484375 17.84375 46.4375 
Q 14.5 44.390625 14.5 40.28125 
Q 14.5 37.15625 16.890625 35.375 
Q 19.28125 33.59375 26.515625 31.984375 
L 29.59375 31.296875 
Q 39.15625 29.25 43.1875 25.515625 
Q 47.21875 21.78125 47.21875 15.09375 
Q 47.21875 7.46875 41.1875 3.015625 
Q 35.15625 -1.421875 24.609375 -1.421875 
Q 20.21875 -1.421875 15.453125 -0.5625 
Q 10.6875 0.296875 5.421875 2 
L 5.421875 11.28125 
Q 10.40625 8.6875 15.234375 7.390625 
Q 20.0625 6.109375 24.8125 6.109375 
Q 31.15625 6.109375 34.5625 8.28125 
Q 37.984375 10.453125 37.984375 14.40625 
Q 37.984375 18.0625 35.515625 20.015625 
Q 33.0625 21.96875 24.703125 23.78125 
L 21.578125 24.515625 
Q 13.234375 26.265625 9.515625 29.90625 
Q 5.8125 33.546875 5.8125 39.890625 
Q 5.8125 47.609375 11.28125 51.796875 
Q 16.75 56 26.8125 56 
Q 31.78125 56 36.171875 55.265625 
Q 40.578125 54.546875 44.28125 53.078125 
" id="DejaVuSans-73"/>
    </defs>
    <g style="fill:#262626;" transform="translate(131.222349 41.52)scale(0.156 -0.156)">
     <use xlink:href="#DejaVuSans-70"/>
     <use x="63.476562" xlink:href="#DejaVuSans-61"/>
     <use x="124.755859" xlink:href="#DejaVuSans-72"/>
     <use x="165.869141" xlink:href="#DejaVuSans-69"/>
     <use x="193.652344" xlink:href="#DejaVuSans-73"/>
    </g>
   </g>
   <g id="legend_1">
    <g id="line2d_13">
     <path d="M 154.627511 55.618437 
L 174.627511 55.618437 
" style="fill:none;opacity:0.4;stroke:#000000;stroke-linecap:round;stroke-width:2;"/>
    </g>
    <g id="line2d_14"/>
    <g id="text_8">
     <!-- bldg -->
     <defs>
      <path d="M 48.6875 27.296875 
Q 48.6875 37.203125 44.609375 42.84375 
Q 40.53125 48.484375 33.40625 48.484375 
Q 26.265625 48.484375 22.1875 42.84375 
Q 18.109375 37.203125 18.109375 27.296875 
Q 18.109375 17.390625 22.1875 11.75 
Q 26.265625 6.109375 33.40625 6.109375 
Q 40.53125 6.109375 44.609375 11.75 
Q 48.6875 17.390625 48.6875 27.296875 
M 18.109375 46.390625 
Q 20.953125 51.265625 25.265625 53.625 
Q 29.59375 56 35.59375 56 
Q 45.5625 56 51.78125 48.09375 
Q 58.015625 40.1875 58.015625 27.296875 
Q 58.015625 14.40625 51.78125 6.484375 
Q 45.5625 -1.421875 35.59375 -1.421875 
Q 29.59375 -1.421875 25.265625 0.953125 
Q 20.953125 3.328125 18.109375 8.203125 
L 18.109375 0 
L 9.078125 0 
L 9.078125 75.984375 
L 18.109375 75.984375 
z
" id="DejaVuSans-62"/>
      <path d="M 9.421875 75.984375 
L 18.40625 75.984375 
L 18.40625 0 
L 9.421875 0 
z
" id="DejaVuSans-6c"/>
      <path d="M 45.40625 46.390625 
L 45.40625 75.984375 
L 54.390625 75.984375 
L 54.390625 0 
L 45.40625 0 
L 45.40625 8.203125 
Q 42.578125 3.328125 38.25 0.953125 
Q 33.9375 -1.421875 27.875 -1.421875 
Q 17.96875 -1.421875 11.734375 6.484375 
Q 5.515625 14.40625 5.515625 27.296875 
Q 5.515625 40.1875 11.734375 48.09375 
Q 17.96875 56 27.875 56 
Q 33.9375 56 38.25 53.625 
Q 42.578125 51.265625 45.40625 46.390625 
M 14.796875 27.296875 
Q 14.796875 17.390625 18.875 11.75 
Q 22.953125 6.109375 30.078125 6.109375 
Q 37.203125 6.109375 41.296875 11.75 
Q 45.40625 17.390625 45.40625 27.296875 
Q 45.40625 37.203125 41.296875 42.84375 
Q 37.203125 48.484375 30.078125 48.484375 
Q 22.953125 48.484375 18.875 42.84375 
Q 14.796875 37.203125 14.796875 27.296875 
" id="DejaVuSans-64"/>
      <path d="M 45.40625 27.984375 
Q 45.40625 37.75 41.375 43.109375 
Q 37.359375 48.484375 30.078125 48.484375 
Q 22.859375 48.484375 18.828125 43.109375 
Q 14.796875 37.75 14.796875 27.984375 
Q 14.796875 18.265625 18.828125 12.890625 
Q 22.859375 7.515625 30.078125 7.515625 
Q 37.359375 7.515625 41.375 12.890625 
Q 45.40625 18.265625 45.40625 27.984375 
M 54.390625 6.78125 
Q 54.390625 -7.171875 48.1875 -13.984375 
Q 42 -20.796875 29.203125 -20.796875 
Q 24.46875 -20.796875 20.265625 -20.09375 
Q 16.0625 -19.390625 12.109375 -17.921875 
L 12.109375 -9.1875 
Q 16.0625 -11.328125 19.921875 -12.34375 
Q 23.78125 -13.375 27.78125 -13.375 
Q 36.625 -13.375 41.015625 -8.765625 
Q 45.40625 -4.15625 45.40625 5.171875 
L 45.40625 9.625 
Q 42.625 4.78125 38.28125 2.390625 
Q 33.9375 0 27.875 0 
Q 17.828125 0 11.671875 7.65625 
Q 5.515625 15.328125 5.515625 27.984375 
Q 5.515625 40.671875 11.671875 48.328125 
Q 17.828125 56 27.875 56 
Q 33.9375 56 38.28125 53.609375 
Q 42.625 51.21875 45.40625 46.390625 
L 45.40625 54.6875 
L 54.390625 54.6875 
z
" id="DejaVuSans-67"/>
     </defs>
     <g style="fill:#262626;" transform="translate(182.627511 59.118437)scale(0.1 -0.1)">
      <use xlink:href="#DejaVuSans-62"/>
      <use x="63.476562" xlink:href="#DejaVuSans-6c"/>
      <use x="91.259766" xlink:href="#DejaVuSans-64"/>
      <use x="154.736328" xlink:href="#DejaVuSans-67"/>
     </g>
    </g>
    <g id="line2d_15">
     <path d="M 154.627511 70.296562 
L 174.627511 70.296562 
" style="fill:none;opacity:0.4;stroke:#008000;stroke-linecap:round;stroke-width:2;"/>
    </g>
    <g id="line2d_16"/>
    <g id="text_9">
     <!-- pop -->
     <defs>
      <path d="M 30.609375 48.390625 
Q 23.390625 48.390625 19.1875 42.75 
Q 14.984375 37.109375 14.984375 27.296875 
Q 14.984375 17.484375 19.15625 11.84375 
Q 23.34375 6.203125 30.609375 6.203125 
Q 37.796875 6.203125 41.984375 11.859375 
Q 46.1875 17.53125 46.1875 27.296875 
Q 46.1875 37.015625 41.984375 42.703125 
Q 37.796875 48.390625 30.609375 48.390625 
M 30.609375 56 
Q 42.328125 56 49.015625 48.375 
Q 55.71875 40.765625 55.71875 27.296875 
Q 55.71875 13.875 49.015625 6.21875 
Q 42.328125 -1.421875 30.609375 -1.421875 
Q 18.84375 -1.421875 12.171875 6.21875 
Q 5.515625 13.875 5.515625 27.296875 
Q 5.515625 40.765625 12.171875 48.375 
Q 18.84375 56 30.609375 56 
" id="DejaVuSans-6f"/>
     </defs>
     <g style="fill:#262626;" transform="translate(182.627511 73.796562)scale(0.1 -0.1)">
      <use xlink:href="#DejaVuSans-70"/>
      <use x="63.476562" xlink:href="#DejaVuSans-6f"/>
      <use x="124.658203" xlink:href="#DejaVuSans-70"/>
     </g>
    </g>
    <g id="line2d_17">
     <path d="M 154.627511 84.974687 
L 174.627511 84.974687 
" style="fill:none;opacity:0.9;stroke:#ffa500;stroke-linecap:round;stroke-width:2;"/>
    </g>
    <g id="line2d_18"/>
    <g id="text_10">
     <!-- lum -->
     <defs>
      <path d="M 8.5 21.578125 
L 8.5 54.6875 
L 17.484375 54.6875 
L 17.484375 21.921875 
Q 17.484375 14.15625 20.5 10.265625 
Q 23.53125 6.390625 29.59375 6.390625 
Q 36.859375 6.390625 41.078125 11.03125 
Q 45.3125 15.671875 45.3125 23.6875 
L 45.3125 54.6875 
L 54.296875 54.6875 
L 54.296875 0 
L 45.3125 0 
L 45.3125 8.40625 
Q 42.046875 3.421875 37.71875 1 
Q 33.40625 -1.421875 27.6875 -1.421875 
Q 18.265625 -1.421875 13.375 4.4375 
Q 8.5 10.296875 8.5 21.578125 
M 31.109375 56 
z
" id="DejaVuSans-75"/>
      <path d="M 52 44.1875 
Q 55.375 50.25 60.0625 53.125 
Q 64.75 56 71.09375 56 
Q 79.640625 56 84.28125 50.015625 
Q 88.921875 44.046875 88.921875 33.015625 
L 88.921875 0 
L 79.890625 0 
L 79.890625 32.71875 
Q 79.890625 40.578125 77.09375 44.375 
Q 74.3125 48.1875 68.609375 48.1875 
Q 61.625 48.1875 57.5625 43.546875 
Q 53.515625 38.921875 53.515625 30.90625 
L 53.515625 0 
L 44.484375 0 
L 44.484375 32.71875 
Q 44.484375 40.625 41.703125 44.40625 
Q 38.921875 48.1875 33.109375 48.1875 
Q 26.21875 48.1875 22.15625 43.53125 
Q 18.109375 38.875 18.109375 30.90625 
L 18.109375 0 
L 9.078125 0 
L 9.078125 54.6875 
L 18.109375 54.6875 
L 18.109375 46.1875 
Q 21.1875 51.21875 25.484375 53.609375 
Q 29.78125 56 35.6875 56 
Q 41.65625 56 45.828125 52.96875 
Q 50 49.953125 52 44.1875 
" id="DejaVuSans-6d"/>
     </defs>
     <g style="fill:#262626;" transform="translate(182.627511 88.474687)scale(0.1 -0.1)">
      <use xlink:href="#DejaVuSans-6c"/>
      <use x="27.783203" xlink:href="#DejaVuSans-75"/>
      <use x="91.162109" xlink:href="#DejaVuSans-6d"/>
     </g>
    </g>
    <g id="line2d_19">
     <path d="M 154.627511 99.652812 
L 174.627511 99.652812 
" style="fill:none;stroke:#ffa500;stroke-dasharray:8.4,3.6;stroke-dashoffset:0;stroke-width:3;"/>
    </g>
    <g id="line2d_20"/>
    <g id="text_11">
     <!-- lum-pred -->
     <defs>
      <path d="M 4.890625 31.390625 
L 31.203125 31.390625 
L 31.203125 23.390625 
L 4.890625 23.390625 
z
" id="DejaVuSans-2d"/>
      <path d="M 56.203125 29.59375 
L 56.203125 25.203125 
L 14.890625 25.203125 
Q 15.484375 15.921875 20.484375 11.0625 
Q 25.484375 6.203125 34.421875 6.203125 
Q 39.59375 6.203125 44.453125 7.46875 
Q 49.3125 8.734375 54.109375 11.28125 
L 54.109375 2.78125 
Q 49.265625 0.734375 44.1875 -0.34375 
Q 39.109375 -1.421875 33.890625 -1.421875 
Q 20.796875 -1.421875 13.15625 6.1875 
Q 5.515625 13.8125 5.515625 26.8125 
Q 5.515625 40.234375 12.765625 48.109375 
Q 20.015625 56 32.328125 56 
Q 43.359375 56 49.78125 48.890625 
Q 56.203125 41.796875 56.203125 29.59375 
M 47.21875 32.234375 
Q 47.125 39.59375 43.09375 43.984375 
Q 39.0625 48.390625 32.421875 48.390625 
Q 24.90625 48.390625 20.390625 44.140625 
Q 15.875 39.890625 15.1875 32.171875 
z
" id="DejaVuSans-65"/>
     </defs>
     <g style="fill:#262626;" transform="translate(182.627511 103.152812)scale(0.1 -0.1)">
      <use xlink:href="#DejaVuSans-6c"/>
      <use x="27.783203" xlink:href="#DejaVuSans-75"/>
      <use x="91.162109" xlink:href="#DejaVuSans-6d"/>
      <use x="188.574219" xlink:href="#DejaVuSans-2d"/>
      <use x="224.658203" xlink:href="#DejaVuSans-70"/>
      <use x="288.134766" xlink:href="#DejaVuSans-72"/>
      <use x="329.216797" xlink:href="#DejaVuSans-65"/>
      <use x="390.740234" xlink:href="#DejaVuSans-64"/>
     </g>
    </g>
   </g>
  </g>
  <g id="axes_2">
   <g id="patch_7">
    <path d="M 240.215239 181.92 
L 403.532313 181.92 
L 403.532313 47.52 
L 240.215239 47.52 
z
" style="fill:#ffffff;"/>
   </g>
   <g id="matplotlib.axis_3">
    <g id="xtick_4">
     <g id="line2d_21">
      <g>
       <use style="fill:#262626;stroke:#262626;" x="247.638743" xlink:href="#m68a890ff26" y="181.92"/>
      </g>
     </g>
    </g>
    <g id="xtick_5">
     <g id="line2d_22">
      <g>
       <use style="fill:#262626;stroke:#262626;" x="310.817494" xlink:href="#m68a890ff26" y="181.92"/>
      </g>
     </g>
    </g>
    <g id="xtick_6">
     <g id="line2d_23">
      <g>
       <use style="fill:#262626;stroke:#262626;" x="373.996246" xlink:href="#m68a890ff26" y="181.92"/>
      </g>
     </g>
    </g>
   </g>
   <g id="matplotlib.axis_4">
    <g id="ytick_6">
     <g id="line2d_24">
      <g>
       <use style="fill:#262626;stroke:#262626;" x="240.215239" xlink:href="#mda8e448482" y="175.810909"/>
      </g>
     </g>
    </g>
    <g id="ytick_7">
     <g id="line2d_25">
      <g>
       <use style="fill:#262626;stroke:#262626;" x="240.215239" xlink:href="#mda8e448482" y="145.265455"/>
      </g>
     </g>
    </g>
    <g id="ytick_8">
     <g id="line2d_26">
      <g>
       <use style="fill:#262626;stroke:#262626;" x="240.215239" xlink:href="#mda8e448482" y="114.72"/>
      </g>
     </g>
    </g>
    <g id="ytick_9">
     <g id="line2d_27">
      <g>
       <use style="fill:#262626;stroke:#262626;" x="240.215239" xlink:href="#mda8e448482" y="84.174545"/>
      </g>
     </g>
    </g>
    <g id="ytick_10">
     <g id="line2d_28">
      <g>
       <use style="fill:#262626;stroke:#262626;" x="240.215239" xlink:href="#mda8e448482" y="53.629091"/>
      </g>
     </g>
    </g>
   </g>
   <g id="line2d_29">
    <path clip-path="url(#pc31727edf3)" d="M 247.638743 175.810909 
L 250.79768 175.810909 
L 253.956618 119.287683 
L 257.115555 175.810909 
L 260.274493 175.810909 
L 263.433431 175.810909 
L 266.592368 133.393571 
L 269.751306 163.822553 
L 272.910243 96.675939 
L 276.069181 109.308129 
L 279.228119 53.629091 
L 282.387056 96.410723 
L 285.545994 79.907416 
L 288.704931 71.293008 
L 291.863869 106.299731 
L 295.022806 114.492128 
L 298.181744 169.884208 
L 301.340682 143.130662 
L 304.499619 156.720992 
L 307.658557 144.0014 
L 310.817494 148.888527 
L 313.976432 154.365818 
L 317.13537 144.986072 
L 320.294307 166.664492 
L 323.453245 173.189598 
L 326.612182 171.550118 
L 329.77112 161.762215 
L 332.930057 163.402042 
L 336.088995 167.095018 
L 339.247933 175.810909 
L 342.40687 175.810909 
L 345.565808 175.745406 
L 348.724745 164.33774 
L 351.883683 164.469606 
L 355.042621 162.936108 
L 358.201558 167.488691 
L 361.360496 163.468352 
L 364.519433 169.411436 
L 367.678371 166.174125 
L 370.837308 174.76804 
L 373.996246 164.346764 
L 377.155184 169.978729 
L 380.314121 165.452448 
L 383.473059 175.750998 
L 386.631996 175.536118 
L 389.790934 175.810909 
L 392.949872 175.631961 
L 396.108809 156.081914 
" style="fill:none;opacity:0.4;stroke:#000000;stroke-linecap:round;stroke-width:2;"/>
   </g>
   <g id="line2d_30">
    <path clip-path="url(#pc31727edf3)" d="M 247.638743 175.810909 
L 250.79768 175.810909 
L 253.956618 175.810909 
L 257.115555 105.266218 
L 260.274493 53.629091 
L 263.433431 118.025722 
L 266.592368 57.501584 
L 269.751306 107.266961 
L 272.910243 155.340351 
L 276.069181 147.877841 
L 279.228119 137.830151 
L 282.387056 61.444062 
L 285.545994 66.364206 
L 288.704931 72.873248 
L 291.863869 105.433614 
L 295.022806 113.554298 
L 298.181744 120.078773 
L 301.340682 163.369992 
L 304.499619 151.733156 
L 307.658557 147.593033 
L 310.817494 160.391142 
L 313.976432 145.599842 
L 317.13537 149.771221 
L 320.294307 157.147336 
L 323.453245 174.543107 
L 326.612182 164.849158 
L 329.77112 158.423133 
L 332.930057 172.58969 
L 336.088995 174.940892 
L 339.247933 175.130501 
L 342.40687 171.845806 
L 345.565808 142.743085 
L 348.724745 165.964969 
L 351.883683 172.275138 
L 355.042621 175.365038 
L 358.201558 175.201364 
L 361.360496 175.400355 
L 364.519433 175.109219 
L 367.678371 164.399323 
L 370.837308 147.146013 
L 373.996246 158.740289 
L 377.155184 175.132738 
L 380.314121 170.068038 
L 383.473059 167.870325 
L 386.631996 168.916005 
L 389.790934 166.840428 
L 392.949872 157.595262 
L 396.108809 165.882831 
" style="fill:none;opacity:0.4;stroke:#008000;stroke-linecap:round;stroke-width:2;"/>
   </g>
   <g id="line2d_31">
    <path clip-path="url(#pc31727edf3)" d="M 247.638743 175.810909 
L 250.79768 175.810909 
L 253.956618 161.582779 
L 257.115555 172.384463 
L 260.274493 175.810909 
L 263.433431 175.082936 
L 266.592368 164.372025 
L 269.751306 151.500476 
L 272.910243 87.371974 
L 276.069181 104.525497 
L 279.228119 64.093259 
L 282.387056 53.629091 
L 285.545994 78.154627 
L 288.704931 77.531031 
L 291.863869 99.127884 
L 295.022806 96.856051 
L 298.181744 124.385779 
L 301.340682 155.62119 
L 304.499619 154.180547 
L 307.658557 170.74162 
L 310.817494 169.23567 
L 313.976432 154.067827 
L 317.13537 152.290009 
L 320.294307 157.637405 
L 323.453245 173.737175 
L 326.612182 173.739877 
L 329.77112 170.4536 
L 332.930057 168.432087 
L 336.088995 168.658951 
L 339.247933 170.84972 
L 342.40687 173.199454 
L 345.565808 171.577343 
L 348.724745 166.994982 
L 351.883683 167.121913 
L 355.042621 167.270969 
L 358.201558 173.975803 
L 361.360496 172.867882 
L 364.519433 173.005357 
L 367.678371 164.139344 
L 370.837308 172.48376 
L 373.996246 171.287158 
L 377.155184 162.832603 
L 380.314121 155.875415 
L 383.473059 173.249874 
L 386.631996 171.707658 
L 389.790934 172.1181 
L 392.949872 171.696858 
L 396.108809 167.983295 
" style="fill:none;opacity:0.9;stroke:#ffa500;stroke-linecap:round;stroke-width:2;"/>
   </g>
   <g id="line2d_32">
    <path clip-path="url(#pc31727edf3)" d="M 247.638743 53.629091 
L 250.79768 53.629091 
L 253.956618 153.735753 
L 257.115555 167.015673 
L 260.274493 87.530663 
L 263.433431 172.550027 
L 266.592368 160.296598 
L 269.751306 148.916369 
L 272.910243 122.466278 
L 276.069181 127.429231 
L 279.228119 82.367958 
L 282.387056 84.412181 
L 285.545994 101.481721 
L 288.704931 107.097717 
L 291.863869 110.727501 
L 295.022806 116.461212 
L 298.181744 137.696582 
L 301.340682 155.415196 
L 304.499619 155.78333 
L 307.658557 166.585717 
L 310.817494 167.187014 
L 313.976432 156.316937 
L 317.13537 157.726814 
L 320.294307 160.939205 
L 323.453245 172.933511 
L 326.612182 172.248894 
L 329.77112 170.261836 
L 332.930057 169.294656 
L 336.088995 170.883637 
L 339.247933 171.360774 
L 342.40687 172.761569 
L 345.565808 171.022658 
L 348.724745 169.038457 
L 351.883683 169.660687 
L 355.042621 169.841434 
L 358.201558 173.611261 
L 361.360496 172.995877 
L 364.519433 172.724465 
L 367.678371 167.248556 
L 370.837308 172.215614 
L 373.996246 171.394036 
L 377.155184 165.737428 
L 380.314121 165.071837 
L 383.473059 173.260274 
L 386.631996 171.83414 
L 389.790934 171.690321 
L 392.949872 172.14424 
L 396.108809 169.947332 
" style="fill:none;stroke:#ffa500;stroke-dasharray:8.4,3.6;stroke-dashoffset:0;stroke-width:3;"/>
   </g>
   <g id="patch_8">
    <path d="M 240.215239 181.92 
L 240.215239 47.52 
" style="fill:none;stroke:#262626;stroke-linecap:square;stroke-linejoin:miter;stroke-width:1.25;"/>
   </g>
   <g id="patch_9">
    <path d="M 403.532313 181.92 
L 403.532313 47.52 
" style="fill:none;stroke:#262626;stroke-linecap:square;stroke-linejoin:miter;stroke-width:1.25;"/>
   </g>
   <g id="patch_10">
    <path d="M 240.215239 181.92 
L 403.532313 181.92 
" style="fill:none;stroke:#262626;stroke-linecap:square;stroke-linejoin:miter;stroke-width:1.25;"/>
   </g>
   <g id="patch_11">
    <path d="M 240.215239 47.52 
L 403.532313 47.52 
" style="fill:none;stroke:#262626;stroke-linecap:square;stroke-linejoin:miter;stroke-width:1.25;"/>
   </g>
   <g id="text_12">
    <!-- barcelona -->
    <defs>
     <path d="M 48.78125 52.59375 
L 48.78125 44.1875 
Q 44.96875 46.296875 41.140625 47.34375 
Q 37.3125 48.390625 33.40625 48.390625 
Q 24.65625 48.390625 19.8125 42.84375 
Q 14.984375 37.3125 14.984375 27.296875 
Q 14.984375 17.28125 19.8125 11.734375 
Q 24.65625 6.203125 33.40625 6.203125 
Q 37.3125 6.203125 41.140625 7.25 
Q 44.96875 8.296875 48.78125 10.40625 
L 48.78125 2.09375 
Q 45.015625 0.34375 40.984375 -0.53125 
Q 36.96875 -1.421875 32.421875 -1.421875 
Q 20.0625 -1.421875 12.78125 6.34375 
Q 5.515625 14.109375 5.515625 27.296875 
Q 5.515625 40.671875 12.859375 48.328125 
Q 20.21875 56 33.015625 56 
Q 37.15625 56 41.109375 55.140625 
Q 45.0625 54.296875 48.78125 52.59375 
" id="DejaVuSans-63"/>
     <path d="M 54.890625 33.015625 
L 54.890625 0 
L 45.90625 0 
L 45.90625 32.71875 
Q 45.90625 40.484375 42.875 44.328125 
Q 39.84375 48.1875 33.796875 48.1875 
Q 26.515625 48.1875 22.3125 43.546875 
Q 18.109375 38.921875 18.109375 30.90625 
L 18.109375 0 
L 9.078125 0 
L 9.078125 54.6875 
L 18.109375 54.6875 
L 18.109375 46.1875 
Q 21.34375 51.125 25.703125 53.5625 
Q 30.078125 56 35.796875 56 
Q 45.21875 56 50.046875 50.171875 
Q 54.890625 44.34375 54.890625 33.015625 
" id="DejaVuSans-6e"/>
    </defs>
    <g style="fill:#262626;" transform="translate(283.186995 41.52)scale(0.156 -0.156)">
     <use xlink:href="#DejaVuSans-62"/>
     <use x="63.476562" xlink:href="#DejaVuSans-61"/>
     <use x="124.755859" xlink:href="#DejaVuSans-72"/>
     <use x="165.837891" xlink:href="#DejaVuSans-63"/>
     <use x="220.818359" xlink:href="#DejaVuSans-65"/>
     <use x="282.341797" xlink:href="#DejaVuSans-6c"/>
     <use x="310.125" xlink:href="#DejaVuSans-6f"/>
     <use x="371.306641" xlink:href="#DejaVuSans-6e"/>
     <use x="434.685547" xlink:href="#DejaVuSans-61"/>
    </g>
   </g>
  </g>
  <g id="axes_3">
   <g id="patch_12">
    <path d="M 68.732313 349.92 
L 232.049386 349.92 
L 232.049386 215.52 
L 68.732313 215.52 
z
" style="fill:#ffffff;"/>
   </g>
   <g id="matplotlib.axis_5">
    <g id="xtick_7">
     <g id="line2d_33">
      <g>
       <use style="fill:#262626;stroke:#262626;" x="76.155816" xlink:href="#m68a890ff26" y="349.92"/>
      </g>
     </g>
     <g id="text_13">
      <!-- 0 -->
      <g style="fill:#262626;" transform="translate(72.020191 372.797969)scale(0.13 -0.13)">
       <use xlink:href="#DejaVuSans-30"/>
      </g>
     </g>
    </g>
    <g id="xtick_8">
     <g id="line2d_34">
      <g>
       <use style="fill:#262626;stroke:#262626;" x="139.334568" xlink:href="#m68a890ff26" y="349.92"/>
      </g>
     </g>
     <g id="text_14">
      <!-- 20 -->
      <g style="fill:#262626;" transform="translate(131.063318 372.797969)scale(0.13 -0.13)">
       <use xlink:href="#DejaVuSans-32"/>
       <use x="63.623047" xlink:href="#DejaVuSans-30"/>
      </g>
     </g>
    </g>
    <g id="xtick_9">
     <g id="line2d_35">
      <g>
       <use style="fill:#262626;stroke:#262626;" x="202.513319" xlink:href="#m68a890ff26" y="349.92"/>
      </g>
     </g>
     <g id="text_15">
      <!-- 40 -->
      <defs>
       <path d="M 37.796875 64.3125 
L 12.890625 25.390625 
L 37.796875 25.390625 
z
M 35.203125 72.90625 
L 47.609375 72.90625 
L 47.609375 25.390625 
L 58.015625 25.390625 
L 58.015625 17.1875 
L 47.609375 17.1875 
L 47.609375 0 
L 37.796875 0 
L 37.796875 17.1875 
L 4.890625 17.1875 
L 4.890625 26.703125 
z
" id="DejaVuSans-34"/>
      </defs>
      <g style="fill:#262626;" transform="translate(194.242069 372.797969)scale(0.13 -0.13)">
       <use xlink:href="#DejaVuSans-34"/>
       <use x="63.623047" xlink:href="#DejaVuSans-30"/>
      </g>
     </g>
    </g>
    <g id="text_16">
     <!-- $d \ [km]$ -->
     <defs>
      <path d="M 8.59375 75.984375 
L 29.296875 75.984375 
L 29.296875 69 
L 17.578125 69 
L 17.578125 -6.203125 
L 29.296875 -6.203125 
L 29.296875 -13.1875 
L 8.59375 -13.1875 
z
" id="DejaVuSans-5b"/>
      <path d="M 18.3125 75.984375 
L 27.296875 75.984375 
L 18.703125 31.6875 
L 49.515625 54.6875 
L 61.1875 54.6875 
L 26.8125 28.515625 
L 51.90625 0 
L 41.015625 0 
L 17.671875 26.703125 
L 12.5 0 
L 3.515625 0 
z
" id="DejaVuSans-Oblique-6b"/>
      <path d="M 89.796875 33.015625 
L 83.40625 0 
L 74.421875 0 
L 80.71875 32.71875 
Q 81.109375 34.8125 81.296875 36.328125 
Q 81.5 37.84375 81.5 38.921875 
Q 81.5 43.3125 79.046875 45.75 
Q 76.609375 48.1875 72.21875 48.1875 
Q 65.671875 48.1875 60.546875 43.28125 
Q 55.421875 38.375 53.90625 30.515625 
L 47.90625 0 
L 38.921875 0 
L 45.3125 32.71875 
Q 45.703125 34.515625 45.890625 36.046875 
Q 46.09375 37.59375 46.09375 38.8125 
Q 46.09375 43.265625 43.65625 45.71875 
Q 41.21875 48.1875 36.921875 48.1875 
Q 30.28125 48.1875 25.140625 43.28125 
Q 20.015625 38.375 18.5 30.515625 
L 12.5 0 
L 3.515625 0 
L 14.203125 54.6875 
L 23.1875 54.6875 
L 21.484375 46.1875 
Q 25.140625 50.984375 30.046875 53.484375 
Q 34.96875 56 40.578125 56 
Q 46.53125 56 50.359375 52.875 
Q 54.203125 49.75 54.984375 44.1875 
Q 59.078125 49.953125 64.46875 52.96875 
Q 69.875 56 75.875 56 
Q 82.90625 56 86.734375 51.953125 
Q 90.578125 47.90625 90.578125 40.484375 
Q 90.578125 38.875 90.375 36.9375 
Q 90.1875 35.015625 89.796875 33.015625 
" id="DejaVuSans-Oblique-6d"/>
      <path d="M 30.421875 75.984375 
L 30.421875 -13.1875 
L 9.71875 -13.1875 
L 9.71875 -6.203125 
L 21.390625 -6.203125 
L 21.390625 69 
L 9.71875 69 
L 9.71875 75.984375 
z
" id="DejaVuSans-5d"/>
     </defs>
     <g style="fill:#262626;" transform="translate(126.795849 390.367328)scale(0.143 -0.143)">
      <use transform="translate(0 0.015625)" xlink:href="#DejaVuSans-Oblique-64"/>
      <use transform="translate(95.946941 0.015625)" xlink:href="#DejaVuSans-5b"/>
      <use transform="translate(134.960613 0.015625)" xlink:href="#DejaVuSans-Oblique-6b"/>
      <use transform="translate(192.870769 0.015625)" xlink:href="#DejaVuSans-Oblique-6d"/>
      <use transform="translate(290.282878 0.015625)" xlink:href="#DejaVuSans-5d"/>
     </g>
    </g>
   </g>
   <g id="matplotlib.axis_6">
    <g id="ytick_11">
     <g id="line2d_36">
      <g>
       <use style="fill:#262626;stroke:#262626;" x="68.732313" xlink:href="#mda8e448482" y="343.810909"/>
      </g>
     </g>
     <g id="text_17">
      <!-- 0.00 -->
      <g style="fill:#262626;" transform="translate(26.787 348.749893)scale(0.13 -0.13)">
       <use xlink:href="#DejaVuSans-30"/>
       <use x="63.623047" xlink:href="#DejaVuSans-2e"/>
       <use x="95.410156" xlink:href="#DejaVuSans-30"/>
       <use x="159.033203" xlink:href="#DejaVuSans-30"/>
      </g>
     </g>
    </g>
    <g id="ytick_12">
     <g id="line2d_37">
      <g>
       <use style="fill:#262626;stroke:#262626;" x="68.732313" xlink:href="#mda8e448482" y="313.265455"/>
      </g>
     </g>
     <g id="text_18">
      <!-- 0.25 -->
      <g style="fill:#262626;" transform="translate(26.787 318.204439)scale(0.13 -0.13)">
       <use xlink:href="#DejaVuSans-30"/>
       <use x="63.623047" xlink:href="#DejaVuSans-2e"/>
       <use x="95.410156" xlink:href="#DejaVuSans-32"/>
       <use x="159.033203" xlink:href="#DejaVuSans-35"/>
      </g>
     </g>
    </g>
    <g id="ytick_13">
     <g id="line2d_38">
      <g>
       <use style="fill:#262626;stroke:#262626;" x="68.732313" xlink:href="#mda8e448482" y="282.72"/>
      </g>
     </g>
     <g id="text_19">
      <!-- 0.50 -->
      <g style="fill:#262626;" transform="translate(26.787 287.658984)scale(0.13 -0.13)">
       <use xlink:href="#DejaVuSans-30"/>
       <use x="63.623047" xlink:href="#DejaVuSans-2e"/>
       <use x="95.410156" xlink:href="#DejaVuSans-35"/>
       <use x="159.033203" xlink:href="#DejaVuSans-30"/>
      </g>
     </g>
    </g>
    <g id="ytick_14">
     <g id="line2d_39">
      <g>
       <use style="fill:#262626;stroke:#262626;" x="68.732313" xlink:href="#mda8e448482" y="252.174545"/>
      </g>
     </g>
     <g id="text_20">
      <!-- 0.75 -->
      <g style="fill:#262626;" transform="translate(26.787 257.11353)scale(0.13 -0.13)">
       <use xlink:href="#DejaVuSans-30"/>
       <use x="63.623047" xlink:href="#DejaVuSans-2e"/>
       <use x="95.410156" xlink:href="#DejaVuSans-37"/>
       <use x="159.033203" xlink:href="#DejaVuSans-35"/>
      </g>
     </g>
    </g>
    <g id="ytick_15">
     <g id="line2d_40">
      <g>
       <use style="fill:#262626;stroke:#262626;" x="68.732313" xlink:href="#mda8e448482" y="221.629091"/>
      </g>
     </g>
     <g id="text_21">
      <!-- 1.00 -->
      <g style="fill:#262626;" transform="translate(26.787 226.568075)scale(0.13 -0.13)">
       <use xlink:href="#DejaVuSans-31"/>
       <use x="63.623047" xlink:href="#DejaVuSans-2e"/>
       <use x="95.410156" xlink:href="#DejaVuSans-30"/>
       <use x="159.033203" xlink:href="#DejaVuSans-30"/>
      </g>
     </g>
    </g>
    <g id="text_22">
     <!-- $\hat x_{\cdot}(d)$ -->
     <g style="fill:#262626;" transform="translate(19.813047 299.2365)rotate(-90)scale(0.143 -0.143)">
      <use transform="translate(64.226562 12.015625)" xlink:href="#DejaVuSans-302"/>
      <use transform="translate(0 0.828125)" xlink:href="#DejaVuSans-Oblique-78"/>
      <use transform="translate(63.550781 -15.578125)scale(0.7)" xlink:href="#DejaVuSans-22c5"/>
      <use transform="translate(88.536133 0.828125)" xlink:href="#DejaVuSans-28"/>
      <use transform="translate(127.549805 0.828125)" xlink:href="#DejaVuSans-Oblique-64"/>
      <use transform="translate(191.026367 0.828125)" xlink:href="#DejaVuSans-29"/>
     </g>
    </g>
   </g>
   <g id="line2d_41">
    <path clip-path="url(#p29bac69dec)" d="M 76.155816 343.810909 
L 79.314753 343.810909 
L 82.473691 343.810909 
L 85.632629 343.810909 
L 88.791566 323.447273 
L 91.950504 275.903271 
L 95.109441 221.629091 
L 98.268379 245.865597 
L 101.427317 228.059713 
L 104.586254 236.517925 
L 107.745192 241.138359 
L 110.904129 289.761016 
L 114.063067 277.86558 
L 117.222004 271.62522 
L 120.380942 293.91132 
L 123.53988 301.020608 
L 126.698817 297.649687 
L 129.857755 312.615551 
L 133.016692 278.240015 
L 136.17563 235.989631 
L 139.334568 243.115509 
L 142.493505 265.48653 
L 145.652443 298.118997 
L 148.81138 289.012506 
L 151.970318 300.682698 
L 155.129255 307.423403 
L 158.288193 304.831676 
L 161.447131 313.60972 
L 164.606068 331.272387 
L 167.765006 329.082571 
L 170.923943 319.987929 
L 174.082881 324.364247 
L 177.241819 319.968457 
L 180.400756 328.148554 
L 183.559694 329.025678 
L 186.718631 332.370677 
L 189.877569 328.058473 
L 193.036506 323.790182 
L 196.195444 336.15214 
L 199.354382 341.547845 
L 202.513319 341.52391 
L 205.672257 337.806448 
L 208.831194 341.657063 
L 211.990132 336.310983 
L 215.14907 341.732446 
L 218.308007 343.810909 
L 221.466945 342.344727 
L 224.625882 343.126737 
" style="fill:none;opacity:0.4;stroke:#000000;stroke-linecap:round;stroke-width:2;"/>
   </g>
   <g id="line2d_42">
    <path clip-path="url(#p29bac69dec)" d="M 76.155816 343.810909 
L 79.314753 343.810909 
L 82.473691 343.810909 
L 85.632629 343.578899 
L 88.791566 329.616424 
L 91.950504 291.9943 
L 95.109441 249.710414 
L 98.268379 238.176103 
L 101.427317 232.952798 
L 104.586254 221.629091 
L 107.745192 256.454164 
L 110.904129 288.00706 
L 114.063067 288.251605 
L 117.222004 289.600381 
L 120.380942 298.627305 
L 123.53988 296.44741 
L 126.698817 305.93225 
L 129.857755 301.911476 
L 133.016692 295.36769 
L 136.17563 290.923925 
L 139.334568 299.281727 
L 142.493505 312.421844 
L 145.652443 322.659085 
L 148.81138 310.725071 
L 151.970318 320.937975 
L 155.129255 323.167768 
L 158.288193 324.529949 
L 161.447131 331.068499 
L 164.606068 338.450401 
L 167.765006 339.437901 
L 170.923943 338.060893 
L 174.082881 334.088513 
L 177.241819 330.768129 
L 180.400756 336.927502 
L 183.559694 339.080085 
L 186.718631 340.556653 
L 189.877569 339.800809 
L 193.036506 340.602309 
L 196.195444 343.129683 
L 199.354382 343.224949 
L 202.513319 342.564477 
L 205.672257 340.973057 
L 208.831194 342.305921 
L 211.990132 342.298994 
L 215.14907 343.038973 
L 218.308007 343.265126 
L 221.466945 342.962913 
L 224.625882 342.988084 
" style="fill:none;opacity:0.4;stroke:#008000;stroke-linecap:round;stroke-width:2;"/>
   </g>
   <g id="line2d_43">
    <path clip-path="url(#p29bac69dec)" d="M 76.155816 343.810909 
L 79.314753 343.810909 
L 82.473691 339.476324 
L 85.632629 338.376486 
L 88.791566 324.411702 
L 91.950504 292.949207 
L 95.109441 246.041121 
L 98.268379 221.629091 
L 101.427317 223.958273 
L 104.586254 249.721567 
L 107.745192 240.819924 
L 110.904129 264.605768 
L 114.063067 276.905254 
L 117.222004 267.713686 
L 120.380942 285.009348 
L 123.53988 297.707514 
L 126.698817 298.084846 
L 129.857755 304.418043 
L 133.016692 291.275899 
L 136.17563 284.170785 
L 139.334568 271.053177 
L 142.493505 283.818101 
L 145.652443 304.761189 
L 148.81138 310.063566 
L 151.970318 308.541934 
L 155.129255 310.424304 
L 158.288193 310.336988 
L 161.447131 315.516371 
L 164.606068 323.080417 
L 167.765006 321.76026 
L 170.923943 322.567596 
L 174.082881 325.160117 
L 177.241819 327.575659 
L 180.400756 332.79003 
L 183.559694 332.48199 
L 186.718631 335.136091 
L 189.877569 336.46083 
L 193.036506 334.58447 
L 196.195444 337.787265 
L 199.354382 339.969057 
L 202.513319 341.091032 
L 205.672257 341.884719 
L 208.831194 342.054185 
L 211.990132 342.011362 
L 215.14907 341.628307 
L 218.308007 342.758616 
L 221.466945 342.712749 
L 224.625882 342.581715 
" style="fill:none;opacity:0.9;stroke:#ffa500;stroke-linecap:round;stroke-width:2;"/>
   </g>
   <g id="line2d_44">
    <path clip-path="url(#p29bac69dec)" d="M 76.155816 221.629091 
L 79.314753 221.629091 
L 82.473691 332.474024 
L 85.632629 334.824015 
L 88.791566 324.197228 
L 91.950504 285.892762 
L 95.109441 246.404796 
L 98.268379 229.532261 
L 101.427317 234.104191 
L 104.586254 247.042792 
L 107.745192 245.930276 
L 110.904129 269.26904 
L 114.063067 277.002657 
L 117.222004 276.750952 
L 120.380942 287.923355 
L 123.53988 292.217865 
L 126.698817 294.252392 
L 129.857755 306.803025 
L 133.016692 291.28784 
L 136.17563 283.383926 
L 139.334568 279.788017 
L 142.493505 285.916924 
L 145.652443 302.950959 
L 148.81138 309.232047 
L 151.970318 312.461343 
L 155.129255 315.236437 
L 158.288193 313.807957 
L 161.447131 321.136844 
L 164.606068 326.021575 
L 167.765006 326.377081 
L 170.923943 326.36794 
L 174.082881 328.405514 
L 177.241819 329.797816 
L 180.400756 333.25319 
L 183.559694 333.933211 
L 186.718631 335.265378 
L 189.877569 336.563078 
L 193.036506 335.799242 
L 196.195444 338.663448 
L 199.354382 340.292412 
L 202.513319 340.69313 
L 205.672257 341.480921 
L 208.831194 341.713135 
L 211.990132 341.621457 
L 215.14907 341.41248 
L 218.308007 342.683497 
L 221.466945 342.548706 
L 224.625882 342.651555 
" style="fill:none;stroke:#ffa500;stroke-dasharray:8.4,3.6;stroke-dashoffset:0;stroke-width:3;"/>
   </g>
   <g id="patch_13">
    <path d="M 68.732313 349.92 
L 68.732313 215.52 
" style="fill:none;stroke:#262626;stroke-linecap:square;stroke-linejoin:miter;stroke-width:1.25;"/>
   </g>
   <g id="patch_14">
    <path d="M 232.049386 349.92 
L 232.049386 215.52 
" style="fill:none;stroke:#262626;stroke-linecap:square;stroke-linejoin:miter;stroke-width:1.25;"/>
   </g>
   <g id="patch_15">
    <path d="M 68.732313 349.92 
L 232.049386 349.92 
" style="fill:none;stroke:#262626;stroke-linecap:square;stroke-linejoin:miter;stroke-width:1.25;"/>
   </g>
   <g id="patch_16">
    <path d="M 68.732313 215.52 
L 232.049386 215.52 
" style="fill:none;stroke:#262626;stroke-linecap:square;stroke-linejoin:miter;stroke-width:1.25;"/>
   </g>
   <g id="text_23">
    <!-- rio de janeiro -->
    <defs>
     <path id="DejaVuSans-20"/>
     <path d="M 9.421875 54.6875 
L 18.40625 54.6875 
L 18.40625 -0.984375 
Q 18.40625 -11.421875 14.421875 -16.109375 
Q 10.453125 -20.796875 1.609375 -20.796875 
L -1.8125 -20.796875 
L -1.8125 -13.1875 
L 0.59375 -13.1875 
Q 5.71875 -13.1875 7.5625 -10.8125 
Q 9.421875 -8.453125 9.421875 -0.984375 
z
M 9.421875 75.984375 
L 18.40625 75.984375 
L 18.40625 64.59375 
L 9.421875 64.59375 
z
" id="DejaVuSans-6a"/>
    </defs>
    <g style="fill:#262626;" transform="translate(98.702443 209.52)scale(0.156 -0.156)">
     <use xlink:href="#DejaVuSans-72"/>
     <use x="41.113281" xlink:href="#DejaVuSans-69"/>
     <use x="68.896484" xlink:href="#DejaVuSans-6f"/>
     <use x="130.078125" xlink:href="#DejaVuSans-20"/>
     <use x="161.865234" xlink:href="#DejaVuSans-64"/>
     <use x="225.341797" xlink:href="#DejaVuSans-65"/>
     <use x="286.865234" xlink:href="#DejaVuSans-20"/>
     <use x="318.652344" xlink:href="#DejaVuSans-6a"/>
     <use x="346.435547" xlink:href="#DejaVuSans-61"/>
     <use x="407.714844" xlink:href="#DejaVuSans-6e"/>
     <use x="471.09375" xlink:href="#DejaVuSans-65"/>
     <use x="532.617188" xlink:href="#DejaVuSans-69"/>
     <use x="560.400391" xlink:href="#DejaVuSans-72"/>
     <use x="601.482422" xlink:href="#DejaVuSans-6f"/>
    </g>
   </g>
  </g>
  <g id="axes_4">
   <g id="patch_17">
    <path d="M 240.215239 349.92 
L 403.532313 349.92 
L 403.532313 215.52 
L 240.215239 215.52 
z
" style="fill:#ffffff;"/>
   </g>
   <g id="matplotlib.axis_7">
    <g id="xtick_10">
     <g id="line2d_45">
      <g>
       <use style="fill:#262626;stroke:#262626;" x="247.638743" xlink:href="#m68a890ff26" y="349.92"/>
      </g>
     </g>
     <g id="text_24">
      <!-- 0 -->
      <g style="fill:#262626;" transform="translate(243.503118 372.797969)scale(0.13 -0.13)">
       <use xlink:href="#DejaVuSans-30"/>
      </g>
     </g>
    </g>
    <g id="xtick_11">
     <g id="line2d_46">
      <g>
       <use style="fill:#262626;stroke:#262626;" x="310.817494" xlink:href="#m68a890ff26" y="349.92"/>
      </g>
     </g>
     <g id="text_25">
      <!-- 20 -->
      <g style="fill:#262626;" transform="translate(302.546244 372.797969)scale(0.13 -0.13)">
       <use xlink:href="#DejaVuSans-32"/>
       <use x="63.623047" xlink:href="#DejaVuSans-30"/>
      </g>
     </g>
    </g>
    <g id="xtick_12">
     <g id="line2d_47">
      <g>
       <use style="fill:#262626;stroke:#262626;" x="373.996246" xlink:href="#m68a890ff26" y="349.92"/>
      </g>
     </g>
     <g id="text_26">
      <!-- 40 -->
      <g style="fill:#262626;" transform="translate(365.724996 372.797969)scale(0.13 -0.13)">
       <use xlink:href="#DejaVuSans-34"/>
       <use x="63.623047" xlink:href="#DejaVuSans-30"/>
      </g>
     </g>
    </g>
    <g id="text_27">
     <!-- $d \ [km]$ -->
     <g style="fill:#262626;" transform="translate(298.278776 390.367328)scale(0.143 -0.143)">
      <use transform="translate(0 0.015625)" xlink:href="#DejaVuSans-Oblique-64"/>
      <use transform="translate(95.946941 0.015625)" xlink:href="#DejaVuSans-5b"/>
      <use transform="translate(134.960613 0.015625)" xlink:href="#DejaVuSans-Oblique-6b"/>
      <use transform="translate(192.870769 0.015625)" xlink:href="#DejaVuSans-Oblique-6d"/>
      <use transform="translate(290.282878 0.015625)" xlink:href="#DejaVuSans-5d"/>
     </g>
    </g>
   </g>
   <g id="matplotlib.axis_8">
    <g id="ytick_16">
     <g id="line2d_48">
      <g>
       <use style="fill:#262626;stroke:#262626;" x="240.215239" xlink:href="#mda8e448482" y="343.810909"/>
      </g>
     </g>
    </g>
    <g id="ytick_17">
     <g id="line2d_49">
      <g>
       <use style="fill:#262626;stroke:#262626;" x="240.215239" xlink:href="#mda8e448482" y="313.265455"/>
      </g>
     </g>
    </g>
    <g id="ytick_18">
     <g id="line2d_50">
      <g>
       <use style="fill:#262626;stroke:#262626;" x="240.215239" xlink:href="#mda8e448482" y="282.72"/>
      </g>
     </g>
    </g>
    <g id="ytick_19">
     <g id="line2d_51">
      <g>
       <use style="fill:#262626;stroke:#262626;" x="240.215239" xlink:href="#mda8e448482" y="252.174545"/>
      </g>
     </g>
    </g>
    <g id="ytick_20">
     <g id="line2d_52">
      <g>
       <use style="fill:#262626;stroke:#262626;" x="240.215239" xlink:href="#mda8e448482" y="221.629091"/>
      </g>
     </g>
    </g>
   </g>
   <g id="line2d_53">
    <path clip-path="url(#pfaa1cc7350)" d="M 247.638743 343.810909 
L 250.79768 343.810909 
L 253.956618 241.216971 
L 257.115555 222.698742 
L 260.274493 221.629091 
L 263.433431 247.30875 
L 266.592368 257.074392 
L 269.751306 293.576186 
L 272.910243 343.810909 
L 276.069181 343.810909 
L 279.228119 343.810909 
L 282.387056 343.810909 
L 285.545994 326.550765 
L 288.704931 337.990255 
L 291.863869 325.182704 
L 295.022806 333.303908 
L 298.181744 322.005806 
L 301.340682 300.500116 
L 304.499619 300.218482 
L 307.658557 303.987677 
L 310.817494 331.394175 
L 313.976432 316.943692 
L 317.13537 311.866545 
L 320.294307 309.456151 
L 323.453245 325.566976 
L 326.612182 303.05403 
L 329.77112 321.924619 
L 332.930057 339.791763 
L 336.088995 322.165373 
L 339.247933 327.653565 
L 342.40687 330.868677 
L 345.565808 334.506036 
L 348.724745 337.523619 
L 351.883683 330.581996 
L 355.042621 338.481683 
L 358.201558 332.482205 
L 361.360496 337.6827 
L 364.519433 336.016885 
L 367.678371 332.048533 
L 370.837308 329.706092 
L 373.996246 329.812079 
L 377.155184 327.04485 
L 380.314121 337.502344 
L 383.473059 340.857339 
L 386.631996 343.810909 
L 389.790934 343.67959 
L 392.949872 342.282311 
L 396.108809 343.810909 
" style="fill:none;opacity:0.4;stroke:#000000;stroke-linecap:round;stroke-width:2;"/>
   </g>
   <g id="line2d_54">
    <path clip-path="url(#pfaa1cc7350)" d="M 247.638743 343.810909 
L 250.79768 343.810909 
L 253.956618 241.999464 
L 257.115555 221.629091 
L 260.274493 237.294705 
L 263.433431 279.400924 
L 266.592368 304.332379 
L 269.751306 328.333466 
L 272.910243 343.679155 
L 276.069181 343.810909 
L 279.228119 343.159881 
L 282.387056 341.798067 
L 285.545994 340.932648 
L 288.704931 340.523744 
L 291.863869 338.620633 
L 295.022806 340.366253 
L 298.181744 339.397693 
L 301.340682 335.306825 
L 304.499619 334.369521 
L 307.658557 335.453776 
L 310.817494 337.142621 
L 313.976432 337.912283 
L 317.13537 337.791187 
L 320.294307 333.544725 
L 323.453245 334.192172 
L 326.612182 334.658201 
L 329.77112 339.445761 
L 332.930057 339.421974 
L 336.088995 338.004616 
L 339.247933 337.371043 
L 342.40687 340.338594 
L 345.565808 341.892176 
L 348.724745 341.683984 
L 351.883683 342.155226 
L 355.042621 341.926293 
L 358.201558 341.518193 
L 361.360496 342.149149 
L 364.519433 342.05027 
L 367.678371 341.409647 
L 370.837308 341.436881 
L 373.996246 340.892808 
L 377.155184 341.476864 
L 380.314121 342.292865 
L 383.473059 343.662054 
L 386.631996 343.626972 
L 389.790934 343.736801 
L 392.949872 343.601497 
L 396.108809 343.740843 
" style="fill:none;opacity:0.4;stroke:#008000;stroke-linecap:round;stroke-width:2;"/>
   </g>
   <g id="line2d_55">
    <path clip-path="url(#pfaa1cc7350)" d="M 247.638743 343.810909 
L 250.79768 343.810909 
L 253.956618 255.718245 
L 257.115555 221.629091 
L 260.274493 231.091977 
L 263.433431 267.43179 
L 266.592368 287.448637 
L 269.751306 319.478912 
L 272.910243 339.933245 
L 276.069181 342.2369 
L 279.228119 339.394973 
L 282.387056 340.810905 
L 285.545994 339.096237 
L 288.704931 339.334006 
L 291.863869 333.473183 
L 295.022806 335.350818 
L 298.181744 337.86287 
L 301.340682 332.904085 
L 304.499619 332.344939 
L 307.658557 333.971579 
L 310.817494 330.13162 
L 313.976432 328.201223 
L 317.13537 321.660913 
L 320.294307 323.182828 
L 323.453245 326.535851 
L 326.612182 324.196619 
L 329.77112 336.778117 
L 332.930057 338.62299 
L 336.088995 334.465923 
L 339.247933 331.566373 
L 342.40687 337.384881 
L 345.565808 340.744896 
L 348.724745 340.839866 
L 351.883683 338.989714 
L 355.042621 339.71285 
L 358.201558 338.594635 
L 361.360496 339.631807 
L 364.519433 341.332405 
L 367.678371 339.723333 
L 370.837308 339.070287 
L 373.996246 339.354881 
L 377.155184 341.215435 
L 380.314121 341.225681 
L 383.473059 342.989508 
L 386.631996 343.349004 
L 389.790934 343.320341 
L 392.949872 343.375275 
L 396.108809 343.59977 
" style="fill:none;opacity:0.9;stroke:#ffa500;stroke-linecap:round;stroke-width:2;"/>
   </g>
   <g id="line2d_56">
    <path clip-path="url(#pfaa1cc7350)" d="M 247.638743 221.629091 
L 250.79768 221.629091 
L 253.956618 248.480547 
L 257.115555 226.5373 
L 260.274493 235.710829 
L 263.433431 263.63439 
L 266.592368 285.19599 
L 269.751306 316.1937 
L 272.910243 339.748558 
L 276.069181 338.821379 
L 279.228119 338.745604 
L 282.387056 338.42464 
L 285.545994 337.938376 
L 288.704931 338.037529 
L 291.863869 333.259547 
L 295.022806 334.553387 
L 298.181744 335.674671 
L 301.340682 329.286935 
L 304.499619 329.410915 
L 307.658557 330.600316 
L 310.817494 329.162982 
L 313.976432 327.862056 
L 317.13537 321.813788 
L 320.294307 324.247672 
L 323.453245 330.060587 
L 326.612182 325.000124 
L 329.77112 334.980772 
L 332.930057 338.159272 
L 336.088995 334.250072 
L 339.247933 332.484767 
L 342.40687 337.396878 
L 345.565808 339.837996 
L 348.724745 339.85909 
L 351.883683 338.330575 
L 355.042621 339.528485 
L 358.201558 338.523585 
L 361.360496 339.413594 
L 364.519433 340.38997 
L 367.678371 339.475852 
L 370.837308 338.93317 
L 373.996246 339.252787 
L 377.155184 340.381082 
L 380.314121 340.798275 
L 383.473059 342.625075 
L 386.631996 343.240959 
L 389.790934 343.189061 
L 392.949872 343.142191 
L 396.108809 343.416886 
" style="fill:none;stroke:#ffa500;stroke-dasharray:8.4,3.6;stroke-dashoffset:0;stroke-width:3;"/>
   </g>
   <g id="patch_18">
    <path d="M 240.215239 349.92 
L 240.215239 215.52 
" style="fill:none;stroke:#262626;stroke-linecap:square;stroke-linejoin:miter;stroke-width:1.25;"/>
   </g>
   <g id="patch_19">
    <path d="M 403.532313 349.92 
L 403.532313 215.52 
" style="fill:none;stroke:#262626;stroke-linecap:square;stroke-linejoin:miter;stroke-width:1.25;"/>
   </g>
   <g id="patch_20">
    <path d="M 240.215239 349.92 
L 403.532313 349.92 
" style="fill:none;stroke:#262626;stroke-linecap:square;stroke-linejoin:miter;stroke-width:1.25;"/>
   </g>
   <g id="patch_21">
    <path d="M 240.215239 215.52 
L 403.532313 215.52 
" style="fill:none;stroke:#262626;stroke-linecap:square;stroke-linejoin:miter;stroke-width:1.25;"/>
   </g>
   <g id="text_28">
    <!-- san francisco -->
    <defs>
     <path d="M 37.109375 75.984375 
L 37.109375 68.5 
L 28.515625 68.5 
Q 23.6875 68.5 21.796875 66.546875 
Q 19.921875 64.59375 19.921875 59.515625 
L 19.921875 54.6875 
L 34.71875 54.6875 
L 34.71875 47.703125 
L 19.921875 47.703125 
L 19.921875 0 
L 10.890625 0 
L 10.890625 47.703125 
L 2.296875 47.703125 
L 2.296875 54.6875 
L 10.890625 54.6875 
L 10.890625 58.5 
Q 10.890625 67.625 15.140625 71.796875 
Q 19.390625 75.984375 28.609375 75.984375 
z
" id="DejaVuSans-66"/>
    </defs>
    <g style="fill:#262626;" transform="translate(270.352338 209.52)scale(0.156 -0.156)">
     <use xlink:href="#DejaVuSans-73"/>
     <use x="52.099609" xlink:href="#DejaVuSans-61"/>
     <use x="113.378906" xlink:href="#DejaVuSans-6e"/>
     <use x="176.757812" xlink:href="#DejaVuSans-20"/>
     <use x="208.544922" xlink:href="#DejaVuSans-66"/>
     <use x="243.75" xlink:href="#DejaVuSans-72"/>
     <use x="284.863281" xlink:href="#DejaVuSans-61"/>
     <use x="346.142578" xlink:href="#DejaVuSans-6e"/>
     <use x="409.521484" xlink:href="#DejaVuSans-63"/>
     <use x="464.501953" xlink:href="#DejaVuSans-69"/>
     <use x="492.285156" xlink:href="#DejaVuSans-73"/>
     <use x="544.384766" xlink:href="#DejaVuSans-63"/>
     <use x="599.365234" xlink:href="#DejaVuSans-6f"/>
    </g>
   </g>
  </g>
  <g id="text_29">
   <!-- Benchmark luminosity profile -->
   <defs>
    <path d="M 19.671875 34.8125 
L 19.671875 8.109375 
L 35.5 8.109375 
Q 43.453125 8.109375 47.28125 11.40625 
Q 51.125 14.703125 51.125 21.484375 
Q 51.125 28.328125 47.28125 31.5625 
Q 43.453125 34.8125 35.5 34.8125 
z
M 19.671875 64.796875 
L 19.671875 42.828125 
L 34.28125 42.828125 
Q 41.5 42.828125 45.03125 45.53125 
Q 48.578125 48.25 48.578125 53.8125 
Q 48.578125 59.328125 45.03125 62.0625 
Q 41.5 64.796875 34.28125 64.796875 
z
M 9.8125 72.90625 
L 35.015625 72.90625 
Q 46.296875 72.90625 52.390625 68.21875 
Q 58.5 63.53125 58.5 54.890625 
Q 58.5 48.1875 55.375 44.234375 
Q 52.25 40.28125 46.1875 39.3125 
Q 53.46875 37.75 57.5 32.78125 
Q 61.53125 27.828125 61.53125 20.40625 
Q 61.53125 10.640625 54.890625 5.3125 
Q 48.25 0 35.984375 0 
L 9.8125 0 
z
" id="DejaVuSans-42"/>
    <path d="M 54.890625 33.015625 
L 54.890625 0 
L 45.90625 0 
L 45.90625 32.71875 
Q 45.90625 40.484375 42.875 44.328125 
Q 39.84375 48.1875 33.796875 48.1875 
Q 26.515625 48.1875 22.3125 43.546875 
Q 18.109375 38.921875 18.109375 30.90625 
L 18.109375 0 
L 9.078125 0 
L 9.078125 75.984375 
L 18.109375 75.984375 
L 18.109375 46.1875 
Q 21.34375 51.125 25.703125 53.5625 
Q 30.078125 56 35.796875 56 
Q 45.21875 56 50.046875 50.171875 
Q 54.890625 44.34375 54.890625 33.015625 
" id="DejaVuSans-68"/>
    <path d="M 9.078125 75.984375 
L 18.109375 75.984375 
L 18.109375 31.109375 
L 44.921875 54.6875 
L 56.390625 54.6875 
L 27.390625 29.109375 
L 57.625 0 
L 45.90625 0 
L 18.109375 26.703125 
L 18.109375 0 
L 9.078125 0 
z
" id="DejaVuSans-6b"/>
    <path d="M 18.3125 70.21875 
L 18.3125 54.6875 
L 36.8125 54.6875 
L 36.8125 47.703125 
L 18.3125 47.703125 
L 18.3125 18.015625 
Q 18.3125 11.328125 20.140625 9.421875 
Q 21.96875 7.515625 27.59375 7.515625 
L 36.8125 7.515625 
L 36.8125 0 
L 27.59375 0 
Q 17.1875 0 13.234375 3.875 
Q 9.28125 7.765625 9.28125 18.015625 
L 9.28125 47.703125 
L 2.6875 47.703125 
L 2.6875 54.6875 
L 9.28125 54.6875 
L 9.28125 70.21875 
z
" id="DejaVuSans-74"/>
    <path d="M 32.171875 -5.078125 
Q 28.375 -14.84375 24.75 -17.8125 
Q 21.140625 -20.796875 15.09375 -20.796875 
L 7.90625 -20.796875 
L 7.90625 -13.28125 
L 13.1875 -13.28125 
Q 16.890625 -13.28125 18.9375 -11.515625 
Q 21 -9.765625 23.484375 -3.21875 
L 25.09375 0.875 
L 2.984375 54.6875 
L 12.5 54.6875 
L 29.59375 11.921875 
L 46.6875 54.6875 
L 56.203125 54.6875 
z
" id="DejaVuSans-79"/>
   </defs>
   <g style="fill:#262626;" transform="translate(113.103563 19.3575)scale(0.16 -0.16)">
    <use xlink:href="#DejaVuSans-42"/>
    <use x="68.603516" xlink:href="#DejaVuSans-65"/>
    <use x="130.126953" xlink:href="#DejaVuSans-6e"/>
    <use x="193.505859" xlink:href="#DejaVuSans-63"/>
    <use x="248.486328" xlink:href="#DejaVuSans-68"/>
    <use x="311.865234" xlink:href="#DejaVuSans-6d"/>
    <use x="409.277344" xlink:href="#DejaVuSans-61"/>
    <use x="470.556641" xlink:href="#DejaVuSans-72"/>
    <use x="511.669922" xlink:href="#DejaVuSans-6b"/>
    <use x="569.580078" xlink:href="#DejaVuSans-20"/>
    <use x="601.367188" xlink:href="#DejaVuSans-6c"/>
    <use x="629.150391" xlink:href="#DejaVuSans-75"/>
    <use x="692.529297" xlink:href="#DejaVuSans-6d"/>
    <use x="789.941406" xlink:href="#DejaVuSans-69"/>
    <use x="817.724609" xlink:href="#DejaVuSans-6e"/>
    <use x="881.103516" xlink:href="#DejaVuSans-6f"/>
    <use x="942.285156" xlink:href="#DejaVuSans-73"/>
    <use x="994.384766" xlink:href="#DejaVuSans-69"/>
    <use x="1022.167969" xlink:href="#DejaVuSans-74"/>
    <use x="1061.376953" xlink:href="#DejaVuSans-79"/>
    <use x="1120.556641" xlink:href="#DejaVuSans-20"/>
    <use x="1152.34375" xlink:href="#DejaVuSans-70"/>
    <use x="1215.820312" xlink:href="#DejaVuSans-72"/>
    <use x="1256.902344" xlink:href="#DejaVuSans-6f"/>
    <use x="1318.083984" xlink:href="#DejaVuSans-66"/>
    <use x="1353.289062" xlink:href="#DejaVuSans-69"/>
    <use x="1381.072266" xlink:href="#DejaVuSans-6c"/>
    <use x="1408.855469" xlink:href="#DejaVuSans-65"/>
   </g>
  </g>
 </g>
 <defs>
  <clipPath id="pdbb0634efc">
   <rect height="134.4" width="163.317073" x="68.732313" y="47.52"/>
  </clipPath>
  <clipPath id="pc31727edf3">
   <rect height="134.4" width="163.317073" x="240.215239" y="47.52"/>
  </clipPath>
  <clipPath id="p29bac69dec">
   <rect height="134.4" width="163.317073" x="68.732313" y="215.52"/>
  </clipPath>
  <clipPath id="pfaa1cc7350">
   <rect height="134.4" width="163.317073" x="240.215239" y="215.52"/>
  </clipPath>
 </defs>
</svg>
