<?xml version="1.0" encoding="utf-8" standalone="no"?>
<!DOCTYPE svg PUBLIC "-//W3C//DTD SVG 1.1//EN"
  "http://www.w3.org/Graphics/SVG/1.1/DTD/svg11.dtd">
<!-- Created with matplotlib (http://matplotlib.org/) -->
<svg height="400pt" version="1.1" viewBox="0 0 408 400" width="408pt" xmlns="http://www.w3.org/2000/svg" xmlns:xlink="http://www.w3.org/1999/xlink">
 <defs>
  <style type="text/css">
*{stroke-linecap:butt;stroke-linejoin:round;}
  </style>
 </defs>
 <g id="figure_1">
  <g id="patch_1">
   <path d="M 0 400.541281 
L 408.461063 400.541281 
L 408.461063 0 
L 0 0 
z
" style="fill:#ffffff;"/>
  </g>
  <g id="axes_1">
   <g id="patch_2">
    <path d="M 60.461063 176.200851 
L 223.778136 176.200851 
L 223.778136 47.52 
L 60.461063 47.52 
z
" style="fill:#ffffff;"/>
   </g>
   <g id="matplotlib.axis_1">
    <g id="xtick_1">
     <g id="line2d_1">
      <defs>
       <path d="M 0 0 
L 0 6 
" id="m78bb869ecc" style="stroke:#262626;"/>
      </defs>
      <g>
       <use style="fill:#262626;stroke:#262626;" x="67.884566" xlink:href="#m78bb869ecc" y="176.200851"/>
      </g>
     </g>
    </g>
    <g id="xtick_2">
     <g id="line2d_2">
      <g>
       <use style="fill:#262626;stroke:#262626;" x="131.063318" xlink:href="#m78bb869ecc" y="176.200851"/>
      </g>
     </g>
    </g>
    <g id="xtick_3">
     <g id="line2d_3">
      <g>
       <use style="fill:#262626;stroke:#262626;" x="194.242069" xlink:href="#m78bb869ecc" y="176.200851"/>
      </g>
     </g>
    </g>
   </g>
   <g id="matplotlib.axis_2">
    <g id="ytick_1">
     <g id="line2d_4">
      <defs>
       <path d="M 0 0 
L -6 0 
" id="m568c1256b4" style="stroke:#262626;"/>
      </defs>
      <g>
       <use style="fill:#262626;stroke:#262626;" x="60.461063" xlink:href="#m568c1256b4" y="170.351721"/>
      </g>
     </g>
     <g id="text_1">
      <!-- 0.0 -->
      <defs>
       <path d="M 31.78125 66.40625 
Q 24.171875 66.40625 20.328125 58.90625 
Q 16.5 51.421875 16.5 36.375 
Q 16.5 21.390625 20.328125 13.890625 
Q 24.171875 6.390625 31.78125 6.390625 
Q 39.453125 6.390625 43.28125 13.890625 
Q 47.125 21.390625 47.125 36.375 
Q 47.125 51.421875 43.28125 58.90625 
Q 39.453125 66.40625 31.78125 66.40625 
M 31.78125 74.21875 
Q 44.046875 74.21875 50.515625 64.515625 
Q 56.984375 54.828125 56.984375 36.375 
Q 56.984375 17.96875 50.515625 8.265625 
Q 44.046875 -1.421875 31.78125 -1.421875 
Q 19.53125 -1.421875 13.0625 8.265625 
Q 6.59375 17.96875 6.59375 36.375 
Q 6.59375 54.828125 13.0625 64.515625 
Q 19.53125 74.21875 31.78125 74.21875 
" id="DejaVuSans-30"/>
       <path d="M 10.6875 12.40625 
L 21 12.40625 
L 21 0 
L 10.6875 0 
z
" id="DejaVuSans-2e"/>
      </defs>
      <g style="fill:#262626;" transform="translate(26.787 175.290706)scale(0.13 -0.13)">
       <use xlink:href="#DejaVuSans-30"/>
       <use x="63.623047" xlink:href="#DejaVuSans-2e"/>
       <use x="95.410156" xlink:href="#DejaVuSans-30"/>
      </g>
     </g>
    </g>
    <g id="ytick_2">
     <g id="line2d_5">
      <g>
       <use style="fill:#262626;stroke:#262626;" x="60.461063" xlink:href="#m568c1256b4" y="111.860426"/>
      </g>
     </g>
     <g id="text_2">
      <!-- 0.5 -->
      <defs>
       <path d="M 10.796875 72.90625 
L 49.515625 72.90625 
L 49.515625 64.59375 
L 19.828125 64.59375 
L 19.828125 46.734375 
Q 21.96875 47.46875 24.109375 47.828125 
Q 26.265625 48.1875 28.421875 48.1875 
Q 40.625 48.1875 47.75 41.5 
Q 54.890625 34.8125 54.890625 23.390625 
Q 54.890625 11.625 47.5625 5.09375 
Q 40.234375 -1.421875 26.90625 -1.421875 
Q 22.3125 -1.421875 17.546875 -0.640625 
Q 12.796875 0.140625 7.71875 1.703125 
L 7.71875 11.625 
Q 12.109375 9.234375 16.796875 8.0625 
Q 21.484375 6.890625 26.703125 6.890625 
Q 35.15625 6.890625 40.078125 11.328125 
Q 45.015625 15.765625 45.015625 23.390625 
Q 45.015625 31 40.078125 35.4375 
Q 35.15625 39.890625 26.703125 39.890625 
Q 22.75 39.890625 18.8125 39.015625 
Q 14.890625 38.140625 10.796875 36.28125 
z
" id="DejaVuSans-35"/>
      </defs>
      <g style="fill:#262626;" transform="translate(26.787 116.79941)scale(0.13 -0.13)">
       <use xlink:href="#DejaVuSans-30"/>
       <use x="63.623047" xlink:href="#DejaVuSans-2e"/>
       <use x="95.410156" xlink:href="#DejaVuSans-35"/>
      </g>
     </g>
    </g>
    <g id="ytick_3">
     <g id="line2d_6">
      <g>
       <use style="fill:#262626;stroke:#262626;" x="60.461063" xlink:href="#m568c1256b4" y="53.36913"/>
      </g>
     </g>
     <g id="text_3">
      <!-- 1.0 -->
      <defs>
       <path d="M 12.40625 8.296875 
L 28.515625 8.296875 
L 28.515625 63.921875 
L 10.984375 60.40625 
L 10.984375 69.390625 
L 28.421875 72.90625 
L 38.28125 72.90625 
L 38.28125 8.296875 
L 54.390625 8.296875 
L 54.390625 0 
L 12.40625 0 
z
" id="DejaVuSans-31"/>
      </defs>
      <g style="fill:#262626;" transform="translate(26.787 58.308114)scale(0.13 -0.13)">
       <use xlink:href="#DejaVuSans-31"/>
       <use x="63.623047" xlink:href="#DejaVuSans-2e"/>
       <use x="95.410156" xlink:href="#DejaVuSans-30"/>
      </g>
     </g>
    </g>
    <g id="text_4">
     <!-- $\hat x_{\cdot}(d)$ -->
     <defs>
      <path d="M -28.609375 79.984375 
L -21.390625 79.984375 
L -9.421875 61.625 
L -16.21875 61.625 
L -25 73.578125 
L -33.796875 61.625 
L -40.578125 61.625 
z
M -25 56 
z
" id="DejaVuSans-302"/>
      <path d="M 60.015625 54.6875 
L 34.90625 27.875 
L 50.296875 0 
L 39.984375 0 
L 28.421875 21.6875 
L 8.296875 0 
L -2.59375 0 
L 24.3125 28.8125 
L 10.015625 54.6875 
L 20.3125 54.6875 
L 30.8125 34.90625 
L 49.125 54.6875 
z
" id="DejaVuSans-Oblique-78"/>
      <path d="M 10.6875 40.921875 
L 21 40.921875 
L 21 28.515625 
L 10.6875 28.515625 
z
" id="DejaVuSans-22c5"/>
      <path d="M 31 75.875 
Q 24.46875 64.65625 21.28125 53.65625 
Q 18.109375 42.671875 18.109375 31.390625 
Q 18.109375 20.125 21.3125 9.0625 
Q 24.515625 -2 31 -13.1875 
L 23.1875 -13.1875 
Q 15.875 -1.703125 12.234375 9.375 
Q 8.59375 20.453125 8.59375 31.390625 
Q 8.59375 42.28125 12.203125 53.3125 
Q 15.828125 64.359375 23.1875 75.875 
z
" id="DejaVuSans-28"/>
      <path d="M 41.796875 8.203125 
Q 38.1875 3.46875 33.25 1.015625 
Q 28.328125 -1.421875 22.3125 -1.421875 
Q 14.109375 -1.421875 9.34375 4.171875 
Q 4.59375 9.765625 4.59375 19.484375 
Q 4.59375 27.59375 7.46875 34.9375 
Q 10.359375 42.28125 15.828125 48.09375 
Q 19.4375 51.953125 23.96875 53.96875 
Q 28.515625 56 33.5 56 
Q 38.765625 56 42.796875 53.453125 
Q 46.828125 50.921875 49.03125 46.1875 
L 54.890625 75.984375 
L 63.921875 75.984375 
L 49.125 0 
L 40.09375 0 
z
M 13.921875 21.09375 
Q 13.921875 14.015625 17.109375 10.0625 
Q 20.3125 6.109375 25.984375 6.109375 
Q 30.171875 6.109375 33.765625 8.125 
Q 37.359375 10.15625 40.09375 14.109375 
Q 42.96875 18.21875 44.625 23.578125 
Q 46.296875 28.953125 46.296875 34.1875 
Q 46.296875 40.96875 43.09375 44.765625 
Q 39.890625 48.578125 34.28125 48.578125 
Q 30.03125 48.578125 26.359375 46.578125 
Q 22.703125 44.578125 20.125 40.828125 
Q 17.28125 36.765625 15.59375 31.390625 
Q 13.921875 26.03125 13.921875 21.09375 
" id="DejaVuSans-Oblique-64"/>
      <path d="M 8.015625 75.875 
L 15.828125 75.875 
Q 23.140625 64.359375 26.78125 53.3125 
Q 30.421875 42.28125 30.421875 31.390625 
Q 30.421875 20.453125 26.78125 9.375 
Q 23.140625 -1.703125 15.828125 -13.1875 
L 8.015625 -13.1875 
Q 14.5 -2 17.703125 9.0625 
Q 20.90625 20.125 20.90625 31.390625 
Q 20.90625 42.671875 17.703125 53.65625 
Q 14.5 64.65625 8.015625 75.875 
" id="DejaVuSans-29"/>
     </defs>
     <g style="fill:#262626;" transform="translate(19.813047 128.376926)rotate(-90)scale(0.143 -0.143)">
      <use transform="translate(64.226562 12.015625)" xlink:href="#DejaVuSans-302"/>
      <use transform="translate(0 0.828125)" xlink:href="#DejaVuSans-Oblique-78"/>
      <use transform="translate(63.550781 -15.578125)scale(0.7)" xlink:href="#DejaVuSans-22c5"/>
      <use transform="translate(88.536133 0.828125)" xlink:href="#DejaVuSans-28"/>
      <use transform="translate(127.549805 0.828125)" xlink:href="#DejaVuSans-Oblique-64"/>
      <use transform="translate(191.026367 0.828125)" xlink:href="#DejaVuSans-29"/>
     </g>
    </g>
   </g>
   <g id="line2d_7">
    <path clip-path="url(#pf8dc6d0adf)" d="M 67.884566 170.351721 
L 71.043503 170.351721 
L 74.202441 91.908968 
L 77.361379 67.369952 
L 80.520316 57.430994 
L 83.679254 53.36913 
L 86.838191 64.722289 
L 89.997129 80.235579 
L 93.156067 95.27658 
L 96.315004 71.301066 
L 99.473942 64.115065 
L 102.632879 65.348152 
L 105.791817 69.575089 
L 108.950754 74.094565 
L 112.109692 75.468808 
L 115.26863 76.553452 
L 118.427567 93.164054 
L 121.586505 107.387187 
L 124.745442 116.295684 
L 127.90438 112.387868 
L 131.063318 117.441918 
L 134.222255 133.270634 
L 137.381193 150.266866 
L 140.54013 123.940478 
L 143.699068 133.453658 
L 146.858005 136.643374 
L 150.016943 135.269117 
L 153.175881 129.740185 
L 156.334818 137.403873 
L 159.493756 142.468052 
L 162.652693 142.539506 
L 165.811631 140.915249 
L 168.970569 144.937347 
L 172.129506 155.337241 
L 175.288444 151.880063 
L 178.447381 150.611874 
L 181.606319 159.440295 
L 184.765256 157.385769 
L 187.924194 156.107833 
L 191.083132 159.717386 
L 194.242069 160.54756 
L 197.401007 156.287029 
L 200.559944 164.969126 
L 203.718882 163.631346 
L 206.87782 161.236925 
L 210.036757 164.227253 
L 213.195695 158.733726 
L 216.354632 160.752473 
" style="fill:none;opacity:0.4;stroke:#000000;stroke-linecap:round;stroke-width:2;"/>
   </g>
   <g id="line2d_8">
    <path clip-path="url(#pf8dc6d0adf)" d="M 67.884566 170.351721 
L 71.043503 170.351721 
L 74.202441 91.965009 
L 77.361379 53.36913 
L 80.520316 63.58085 
L 83.679254 66.447078 
L 86.838191 108.648686 
L 89.997129 130.699939 
L 93.156067 131.365461 
L 96.315004 131.981206 
L 99.473942 132.659311 
L 102.632879 144.950933 
L 105.791817 147.9148 
L 108.950754 148.512592 
L 112.109692 152.757488 
L 115.26863 155.298575 
L 118.427567 155.438921 
L 121.586505 157.519392 
L 124.745442 161.96469 
L 127.90438 163.229676 
L 131.063318 165.160283 
L 134.222255 167.523961 
L 137.381193 168.570749 
L 140.54013 165.98804 
L 143.699068 166.455801 
L 146.858005 166.745672 
L 150.016943 167.14472 
L 153.175881 166.98899 
L 156.334818 167.013397 
L 159.493756 167.539906 
L 162.652693 168.091127 
L 165.811631 168.254829 
L 168.970569 169.014529 
L 172.129506 169.147024 
L 175.288444 168.882919 
L 178.447381 168.919587 
L 181.606319 169.627429 
L 184.765256 169.697383 
L 187.924194 169.63427 
L 191.083132 169.762597 
L 194.242069 169.671809 
L 197.401007 169.665044 
L 200.559944 169.921753 
L 203.718882 169.941527 
L 206.87782 169.805087 
L 210.036757 169.775925 
L 213.195695 169.41943 
L 216.354632 169.316188 
" style="fill:none;opacity:0.4;stroke:#008000;stroke-linecap:round;stroke-width:2;"/>
   </g>
   <g id="line2d_9">
    <path clip-path="url(#pf8dc6d0adf)" d="M 67.884566 170.351721 
L 71.043503 170.351721 
L 74.202441 95.281254 
L 77.361379 53.36913 
L 80.520316 75.589222 
L 83.679254 75.636193 
L 86.838191 81.081249 
L 89.997129 102.88829 
L 93.156067 108.434296 
L 96.315004 97.409226 
L 99.473942 98.788897 
L 102.632879 101.154507 
L 105.791817 113.77892 
L 108.950754 116.841379 
L 112.109692 128.570287 
L 115.26863 130.606269 
L 118.427567 132.73075 
L 121.586505 138.344921 
L 124.745442 142.580756 
L 127.90438 147.897487 
L 131.063318 152.749058 
L 134.222255 156.98397 
L 137.381193 158.121553 
L 140.54013 149.924962 
L 143.699068 151.040021 
L 146.858005 154.117405 
L 150.016943 154.064854 
L 153.175881 154.519773 
L 156.334818 155.409508 
L 159.493756 157.723179 
L 162.652693 158.747213 
L 165.811631 158.3308 
L 168.970569 159.712287 
L 172.129506 163.951033 
L 175.288444 163.537324 
L 178.447381 164.773578 
L 181.606319 166.32511 
L 184.765256 164.838962 
L 187.924194 165.711886 
L 191.083132 166.855696 
L 194.242069 167.114076 
L 197.401007 166.635524 
L 200.559944 167.633466 
L 203.718882 167.297289 
L 206.87782 166.435892 
L 210.036757 167.371032 
L 213.195695 166.267219 
L 216.354632 166.053528 
" style="fill:none;opacity:0.9;stroke:#ffa500;stroke-linecap:round;stroke-width:2;"/>
   </g>
   <g id="line2d_10">
    <path clip-path="url(#pf8dc6d0adf)" d="M 67.884566 53.36913 
L 71.043503 53.36913 
L 74.202441 88.671738 
L 77.361379 57.970199 
L 80.520316 78.770898 
L 83.679254 81.815544 
L 86.838191 91.720274 
L 89.997129 99.700373 
L 93.156067 108.575353 
L 96.315004 100.549946 
L 99.473942 102.587475 
L 102.632879 111.38638 
L 105.791817 118.843085 
L 108.950754 121.736879 
L 112.109692 129.572597 
L 115.26863 130.325545 
L 118.427567 133.132253 
L 121.586505 136.625361 
L 124.745442 142.56606 
L 127.90438 146.126883 
L 131.063318 151.077245 
L 134.222255 154.271195 
L 137.381193 157.827116 
L 140.54013 150.533748 
L 143.699068 151.627202 
L 146.858005 154.056124 
L 150.016943 154.47684 
L 153.175881 154.278298 
L 156.334818 155.044224 
L 159.493756 158.002535 
L 162.652693 159.609326 
L 165.811631 159.006774 
L 168.970569 160.110663 
L 172.129506 163.727107 
L 175.288444 162.45533 
L 178.447381 164.850246 
L 181.606319 166.6347 
L 184.765256 165.405749 
L 187.924194 165.701909 
L 191.083132 166.035542 
L 194.242069 167.089936 
L 197.401007 166.149449 
L 200.559944 167.517787 
L 203.718882 167.060242 
L 206.87782 166.554251 
L 210.036757 167.688156 
L 213.195695 166.631603 
L 216.354632 166.195774 
" style="fill:none;stroke:#ffa500;stroke-dasharray:8.4,3.6;stroke-dashoffset:0;stroke-width:3;"/>
   </g>
   <g id="patch_3">
    <path d="M 60.461063 176.200851 
L 60.461063 47.52 
" style="fill:none;stroke:#262626;stroke-linecap:square;stroke-linejoin:miter;stroke-width:1.25;"/>
   </g>
   <g id="patch_4">
    <path d="M 223.778136 176.200851 
L 223.778136 47.52 
" style="fill:none;stroke:#262626;stroke-linecap:square;stroke-linejoin:miter;stroke-width:1.25;"/>
   </g>
   <g id="patch_5">
    <path d="M 60.461063 176.200851 
L 223.778136 176.200851 
" style="fill:none;stroke:#262626;stroke-linecap:square;stroke-linejoin:miter;stroke-width:1.25;"/>
   </g>
   <g id="patch_6">
    <path d="M 60.461063 47.52 
L 223.778136 47.52 
" style="fill:none;stroke:#262626;stroke-linecap:square;stroke-linejoin:miter;stroke-width:1.25;"/>
   </g>
   <g id="text_5">
    <!-- paris -->
    <defs>
     <path d="M 18.109375 8.203125 
L 18.109375 -20.796875 
L 9.078125 -20.796875 
L 9.078125 54.6875 
L 18.109375 54.6875 
L 18.109375 46.390625 
Q 20.953125 51.265625 25.265625 53.625 
Q 29.59375 56 35.59375 56 
Q 45.5625 56 51.78125 48.09375 
Q 58.015625 40.1875 58.015625 27.296875 
Q 58.015625 14.40625 51.78125 6.484375 
Q 45.5625 -1.421875 35.59375 -1.421875 
Q 29.59375 -1.421875 25.265625 0.953125 
Q 20.953125 3.328125 18.109375 8.203125 
M 48.6875 27.296875 
Q 48.6875 37.203125 44.609375 42.84375 
Q 40.53125 48.484375 33.40625 48.484375 
Q 26.265625 48.484375 22.1875 42.84375 
Q 18.109375 37.203125 18.109375 27.296875 
Q 18.109375 17.390625 22.1875 11.75 
Q 26.265625 6.109375 33.40625 6.109375 
Q 40.53125 6.109375 44.609375 11.75 
Q 48.6875 17.390625 48.6875 27.296875 
" id="DejaVuSans-70"/>
     <path d="M 34.28125 27.484375 
Q 23.390625 27.484375 19.1875 25 
Q 14.984375 22.515625 14.984375 16.5 
Q 14.984375 11.71875 18.140625 8.90625 
Q 21.296875 6.109375 26.703125 6.109375 
Q 34.1875 6.109375 38.703125 11.40625 
Q 43.21875 16.703125 43.21875 25.484375 
L 43.21875 27.484375 
z
M 52.203125 31.203125 
L 52.203125 0 
L 43.21875 0 
L 43.21875 8.296875 
Q 40.140625 3.328125 35.546875 0.953125 
Q 30.953125 -1.421875 24.3125 -1.421875 
Q 15.921875 -1.421875 10.953125 3.296875 
Q 6 8.015625 6 15.921875 
Q 6 25.140625 12.171875 29.828125 
Q 18.359375 34.515625 30.609375 34.515625 
L 43.21875 34.515625 
L 43.21875 35.40625 
Q 43.21875 41.609375 39.140625 45 
Q 35.0625 48.390625 27.6875 48.390625 
Q 23 48.390625 18.546875 47.265625 
Q 14.109375 46.140625 10.015625 43.890625 
L 10.015625 52.203125 
Q 14.9375 54.109375 19.578125 55.046875 
Q 24.21875 56 28.609375 56 
Q 40.484375 56 46.34375 49.84375 
Q 52.203125 43.703125 52.203125 31.203125 
" id="DejaVuSans-61"/>
     <path d="M 41.109375 46.296875 
Q 39.59375 47.171875 37.8125 47.578125 
Q 36.03125 48 33.890625 48 
Q 26.265625 48 22.1875 43.046875 
Q 18.109375 38.09375 18.109375 28.8125 
L 18.109375 0 
L 9.078125 0 
L 9.078125 54.6875 
L 18.109375 54.6875 
L 18.109375 46.1875 
Q 20.953125 51.171875 25.484375 53.578125 
Q 30.03125 56 36.53125 56 
Q 37.453125 56 38.578125 55.875 
Q 39.703125 55.765625 41.0625 55.515625 
z
" id="DejaVuSans-72"/>
     <path d="M 9.421875 54.6875 
L 18.40625 54.6875 
L 18.40625 0 
L 9.421875 0 
z
M 9.421875 75.984375 
L 18.40625 75.984375 
L 18.40625 64.59375 
L 9.421875 64.59375 
z
" id="DejaVuSans-69"/>
     <path d="M 44.28125 53.078125 
L 44.28125 44.578125 
Q 40.484375 46.53125 36.375 47.5 
Q 32.28125 48.484375 27.875 48.484375 
Q 21.1875 48.484375 17.84375 46.4375 
Q 14.5 44.390625 14.5 40.28125 
Q 14.5 37.15625 16.890625 35.375 
Q 19.28125 33.59375 26.515625 31.984375 
L 29.59375 31.296875 
Q 39.15625 29.25 43.1875 25.515625 
Q 47.21875 21.78125 47.21875 15.09375 
Q 47.21875 7.46875 41.1875 3.015625 
Q 35.15625 -1.421875 24.609375 -1.421875 
Q 20.21875 -1.421875 15.453125 -0.5625 
Q 10.6875 0.296875 5.421875 2 
L 5.421875 11.28125 
Q 10.40625 8.6875 15.234375 7.390625 
Q 20.0625 6.109375 24.8125 6.109375 
Q 31.15625 6.109375 34.5625 8.28125 
Q 37.984375 10.453125 37.984375 14.40625 
Q 37.984375 18.0625 35.515625 20.015625 
Q 33.0625 21.96875 24.703125 23.78125 
L 21.578125 24.515625 
Q 13.234375 26.265625 9.515625 29.90625 
Q 5.8125 33.546875 5.8125 39.890625 
Q 5.8125 47.609375 11.28125 51.796875 
Q 16.75 56 26.8125 56 
Q 31.78125 56 36.171875 55.265625 
Q 40.578125 54.546875 44.28125 53.078125 
" id="DejaVuSans-73"/>
    </defs>
    <g style="fill:#262626;" transform="translate(122.951099 41.52)scale(0.156 -0.156)">
     <use xlink:href="#DejaVuSans-70"/>
     <use x="63.476562" xlink:href="#DejaVuSans-61"/>
     <use x="124.755859" xlink:href="#DejaVuSans-72"/>
     <use x="165.869141" xlink:href="#DejaVuSans-69"/>
     <use x="193.652344" xlink:href="#DejaVuSans-73"/>
    </g>
   </g>
   <g id="legend_1">
    <g id="line2d_11">
     <path d="M 146.356261 55.618437 
L 166.356261 55.618437 
" style="fill:none;opacity:0.4;stroke:#000000;stroke-linecap:round;stroke-width:2;"/>
    </g>
    <g id="line2d_12"/>
    <g id="text_6">
     <!-- bldg -->
     <defs>
      <path d="M 48.6875 27.296875 
Q 48.6875 37.203125 44.609375 42.84375 
Q 40.53125 48.484375 33.40625 48.484375 
Q 26.265625 48.484375 22.1875 42.84375 
Q 18.109375 37.203125 18.109375 27.296875 
Q 18.109375 17.390625 22.1875 11.75 
Q 26.265625 6.109375 33.40625 6.109375 
Q 40.53125 6.109375 44.609375 11.75 
Q 48.6875 17.390625 48.6875 27.296875 
M 18.109375 46.390625 
Q 20.953125 51.265625 25.265625 53.625 
Q 29.59375 56 35.59375 56 
Q 45.5625 56 51.78125 48.09375 
Q 58.015625 40.1875 58.015625 27.296875 
Q 58.015625 14.40625 51.78125 6.484375 
Q 45.5625 -1.421875 35.59375 -1.421875 
Q 29.59375 -1.421875 25.265625 0.953125 
Q 20.953125 3.328125 18.109375 8.203125 
L 18.109375 0 
L 9.078125 0 
L 9.078125 75.984375 
L 18.109375 75.984375 
z
" id="DejaVuSans-62"/>
      <path d="M 9.421875 75.984375 
L 18.40625 75.984375 
L 18.40625 0 
L 9.421875 0 
z
" id="DejaVuSans-6c"/>
      <path d="M 45.40625 46.390625 
L 45.40625 75.984375 
L 54.390625 75.984375 
L 54.390625 0 
L 45.40625 0 
L 45.40625 8.203125 
Q 42.578125 3.328125 38.25 0.953125 
Q 33.9375 -1.421875 27.875 -1.421875 
Q 17.96875 -1.421875 11.734375 6.484375 
Q 5.515625 14.40625 5.515625 27.296875 
Q 5.515625 40.1875 11.734375 48.09375 
Q 17.96875 56 27.875 56 
Q 33.9375 56 38.25 53.625 
Q 42.578125 51.265625 45.40625 46.390625 
M 14.796875 27.296875 
Q 14.796875 17.390625 18.875 11.75 
Q 22.953125 6.109375 30.078125 6.109375 
Q 37.203125 6.109375 41.296875 11.75 
Q 45.40625 17.390625 45.40625 27.296875 
Q 45.40625 37.203125 41.296875 42.84375 
Q 37.203125 48.484375 30.078125 48.484375 
Q 22.953125 48.484375 18.875 42.84375 
Q 14.796875 37.203125 14.796875 27.296875 
" id="DejaVuSans-64"/>
      <path d="M 45.40625 27.984375 
Q 45.40625 37.75 41.375 43.109375 
Q 37.359375 48.484375 30.078125 48.484375 
Q 22.859375 48.484375 18.828125 43.109375 
Q 14.796875 37.75 14.796875 27.984375 
Q 14.796875 18.265625 18.828125 12.890625 
Q 22.859375 7.515625 30.078125 7.515625 
Q 37.359375 7.515625 41.375 12.890625 
Q 45.40625 18.265625 45.40625 27.984375 
M 54.390625 6.78125 
Q 54.390625 -7.171875 48.1875 -13.984375 
Q 42 -20.796875 29.203125 -20.796875 
Q 24.46875 -20.796875 20.265625 -20.09375 
Q 16.0625 -19.390625 12.109375 -17.921875 
L 12.109375 -9.1875 
Q 16.0625 -11.328125 19.921875 -12.34375 
Q 23.78125 -13.375 27.78125 -13.375 
Q 36.625 -13.375 41.015625 -8.765625 
Q 45.40625 -4.15625 45.40625 5.171875 
L 45.40625 9.625 
Q 42.625 4.78125 38.28125 2.390625 
Q 33.9375 0 27.875 0 
Q 17.828125 0 11.671875 7.65625 
Q 5.515625 15.328125 5.515625 27.984375 
Q 5.515625 40.671875 11.671875 48.328125 
Q 17.828125 56 27.875 56 
Q 33.9375 56 38.28125 53.609375 
Q 42.625 51.21875 45.40625 46.390625 
L 45.40625 54.6875 
L 54.390625 54.6875 
z
" id="DejaVuSans-67"/>
     </defs>
     <g style="fill:#262626;" transform="translate(174.356261 59.118437)scale(0.1 -0.1)">
      <use xlink:href="#DejaVuSans-62"/>
      <use x="63.476562" xlink:href="#DejaVuSans-6c"/>
      <use x="91.259766" xlink:href="#DejaVuSans-64"/>
      <use x="154.736328" xlink:href="#DejaVuSans-67"/>
     </g>
    </g>
    <g id="line2d_13">
     <path d="M 146.356261 70.296562 
L 166.356261 70.296562 
" style="fill:none;opacity:0.4;stroke:#008000;stroke-linecap:round;stroke-width:2;"/>
    </g>
    <g id="line2d_14"/>
    <g id="text_7">
     <!-- pop -->
     <defs>
      <path d="M 30.609375 48.390625 
Q 23.390625 48.390625 19.1875 42.75 
Q 14.984375 37.109375 14.984375 27.296875 
Q 14.984375 17.484375 19.15625 11.84375 
Q 23.34375 6.203125 30.609375 6.203125 
Q 37.796875 6.203125 41.984375 11.859375 
Q 46.1875 17.53125 46.1875 27.296875 
Q 46.1875 37.015625 41.984375 42.703125 
Q 37.796875 48.390625 30.609375 48.390625 
M 30.609375 56 
Q 42.328125 56 49.015625 48.375 
Q 55.71875 40.765625 55.71875 27.296875 
Q 55.71875 13.875 49.015625 6.21875 
Q 42.328125 -1.421875 30.609375 -1.421875 
Q 18.84375 -1.421875 12.171875 6.21875 
Q 5.515625 13.875 5.515625 27.296875 
Q 5.515625 40.765625 12.171875 48.375 
Q 18.84375 56 30.609375 56 
" id="DejaVuSans-6f"/>
     </defs>
     <g style="fill:#262626;" transform="translate(174.356261 73.796562)scale(0.1 -0.1)">
      <use xlink:href="#DejaVuSans-70"/>
      <use x="63.476562" xlink:href="#DejaVuSans-6f"/>
      <use x="124.658203" xlink:href="#DejaVuSans-70"/>
     </g>
    </g>
    <g id="line2d_15">
     <path d="M 146.356261 84.974687 
L 166.356261 84.974687 
" style="fill:none;opacity:0.9;stroke:#ffa500;stroke-linecap:round;stroke-width:2;"/>
    </g>
    <g id="line2d_16"/>
    <g id="text_8">
     <!-- lum -->
     <defs>
      <path d="M 8.5 21.578125 
L 8.5 54.6875 
L 17.484375 54.6875 
L 17.484375 21.921875 
Q 17.484375 14.15625 20.5 10.265625 
Q 23.53125 6.390625 29.59375 6.390625 
Q 36.859375 6.390625 41.078125 11.03125 
Q 45.3125 15.671875 45.3125 23.6875 
L 45.3125 54.6875 
L 54.296875 54.6875 
L 54.296875 0 
L 45.3125 0 
L 45.3125 8.40625 
Q 42.046875 3.421875 37.71875 1 
Q 33.40625 -1.421875 27.6875 -1.421875 
Q 18.265625 -1.421875 13.375 4.4375 
Q 8.5 10.296875 8.5 21.578125 
M 31.109375 56 
z
" id="DejaVuSans-75"/>
      <path d="M 52 44.1875 
Q 55.375 50.25 60.0625 53.125 
Q 64.75 56 71.09375 56 
Q 79.640625 56 84.28125 50.015625 
Q 88.921875 44.046875 88.921875 33.015625 
L 88.921875 0 
L 79.890625 0 
L 79.890625 32.71875 
Q 79.890625 40.578125 77.09375 44.375 
Q 74.3125 48.1875 68.609375 48.1875 
Q 61.625 48.1875 57.5625 43.546875 
Q 53.515625 38.921875 53.515625 30.90625 
L 53.515625 0 
L 44.484375 0 
L 44.484375 32.71875 
Q 44.484375 40.625 41.703125 44.40625 
Q 38.921875 48.1875 33.109375 48.1875 
Q 26.21875 48.1875 22.15625 43.53125 
Q 18.109375 38.875 18.109375 30.90625 
L 18.109375 0 
L 9.078125 0 
L 9.078125 54.6875 
L 18.109375 54.6875 
L 18.109375 46.1875 
Q 21.1875 51.21875 25.484375 53.609375 
Q 29.78125 56 35.6875 56 
Q 41.65625 56 45.828125 52.96875 
Q 50 49.953125 52 44.1875 
" id="DejaVuSans-6d"/>
     </defs>
     <g style="fill:#262626;" transform="translate(174.356261 88.474687)scale(0.1 -0.1)">
      <use xlink:href="#DejaVuSans-6c"/>
      <use x="27.783203" xlink:href="#DejaVuSans-75"/>
      <use x="91.162109" xlink:href="#DejaVuSans-6d"/>
     </g>
    </g>
    <g id="line2d_17">
     <path d="M 146.356261 99.652812 
L 166.356261 99.652812 
" style="fill:none;stroke:#ffa500;stroke-dasharray:8.4,3.6;stroke-dashoffset:0;stroke-width:3;"/>
    </g>
    <g id="line2d_18"/>
    <g id="text_9">
     <!-- lum-pred -->
     <defs>
      <path d="M 4.890625 31.390625 
L 31.203125 31.390625 
L 31.203125 23.390625 
L 4.890625 23.390625 
z
" id="DejaVuSans-2d"/>
      <path d="M 56.203125 29.59375 
L 56.203125 25.203125 
L 14.890625 25.203125 
Q 15.484375 15.921875 20.484375 11.0625 
Q 25.484375 6.203125 34.421875 6.203125 
Q 39.59375 6.203125 44.453125 7.46875 
Q 49.3125 8.734375 54.109375 11.28125 
L 54.109375 2.78125 
Q 49.265625 0.734375 44.1875 -0.34375 
Q 39.109375 -1.421875 33.890625 -1.421875 
Q 20.796875 -1.421875 13.15625 6.1875 
Q 5.515625 13.8125 5.515625 26.8125 
Q 5.515625 40.234375 12.765625 48.109375 
Q 20.015625 56 32.328125 56 
Q 43.359375 56 49.78125 48.890625 
Q 56.203125 41.796875 56.203125 29.59375 
M 47.21875 32.234375 
Q 47.125 39.59375 43.09375 43.984375 
Q 39.0625 48.390625 32.421875 48.390625 
Q 24.90625 48.390625 20.390625 44.140625 
Q 15.875 39.890625 15.1875 32.171875 
z
" id="DejaVuSans-65"/>
     </defs>
     <g style="fill:#262626;" transform="translate(174.356261 103.152812)scale(0.1 -0.1)">
      <use xlink:href="#DejaVuSans-6c"/>
      <use x="27.783203" xlink:href="#DejaVuSans-75"/>
      <use x="91.162109" xlink:href="#DejaVuSans-6d"/>
      <use x="188.574219" xlink:href="#DejaVuSans-2d"/>
      <use x="224.658203" xlink:href="#DejaVuSans-70"/>
      <use x="288.134766" xlink:href="#DejaVuSans-72"/>
      <use x="329.216797" xlink:href="#DejaVuSans-65"/>
      <use x="390.740234" xlink:href="#DejaVuSans-64"/>
     </g>
    </g>
   </g>
  </g>
  <g id="axes_2">
   <g id="patch_7">
    <path d="M 231.943989 176.200851 
L 395.261063 176.200851 
L 395.261063 47.52 
L 231.943989 47.52 
z
" style="fill:#ffffff;"/>
   </g>
   <g id="matplotlib.axis_3">
    <g id="xtick_4">
     <g id="line2d_19">
      <g>
       <use style="fill:#262626;stroke:#262626;" x="239.367493" xlink:href="#m78bb869ecc" y="176.200851"/>
      </g>
     </g>
    </g>
    <g id="xtick_5">
     <g id="line2d_20">
      <g>
       <use style="fill:#262626;stroke:#262626;" x="302.546244" xlink:href="#m78bb869ecc" y="176.200851"/>
      </g>
     </g>
    </g>
    <g id="xtick_6">
     <g id="line2d_21">
      <g>
       <use style="fill:#262626;stroke:#262626;" x="365.724996" xlink:href="#m78bb869ecc" y="176.200851"/>
      </g>
     </g>
    </g>
   </g>
   <g id="matplotlib.axis_4">
    <g id="ytick_4">
     <g id="line2d_22">
      <g>
       <use style="fill:#262626;stroke:#262626;" x="231.943989" xlink:href="#m568c1256b4" y="170.351721"/>
      </g>
     </g>
    </g>
    <g id="ytick_5">
     <g id="line2d_23">
      <g>
       <use style="fill:#262626;stroke:#262626;" x="231.943989" xlink:href="#m568c1256b4" y="111.860426"/>
      </g>
     </g>
    </g>
    <g id="ytick_6">
     <g id="line2d_24">
      <g>
       <use style="fill:#262626;stroke:#262626;" x="231.943989" xlink:href="#m568c1256b4" y="53.36913"/>
      </g>
     </g>
    </g>
   </g>
   <g id="line2d_25">
    <path clip-path="url(#p3a811eadbc)" d="M 239.367493 170.351721 
L 242.52643 170.351721 
L 245.685368 116.233739 
L 248.844305 170.351721 
L 252.003243 170.351721 
L 255.162181 170.351721 
L 258.321118 129.739376 
L 261.480056 158.873508 
L 264.638993 94.584197 
L 267.797931 106.678847 
L 270.956869 53.36913 
L 274.115806 94.330267 
L 277.274744 78.529228 
L 280.433681 70.281391 
L 283.592619 103.798465 
L 286.751556 111.64225 
L 289.910494 164.67722 
L 293.069432 139.062124 
L 296.228369 152.074141 
L 299.387307 139.895809 
L 302.546244 144.574973 
L 305.705182 149.819187 
L 308.86412 140.838579 
L 312.023057 161.594514 
L 315.181995 167.841956 
L 318.340932 166.272241 
L 321.49987 156.900844 
L 324.658807 158.470891 
L 327.817745 162.006719 
L 330.976683 170.351721 
L 334.13562 170.351721 
L 337.294558 170.289005 
L 340.453495 159.366773 
L 343.612433 159.493027 
L 346.771371 158.024784 
L 349.930308 162.38364 
L 353.089246 158.534379 
L 356.248183 164.224567 
L 359.407121 161.125013 
L 362.566058 169.35323 
L 365.724996 159.375412 
L 368.883934 164.767719 
L 372.042871 160.434046 
L 375.201809 170.29436 
L 378.360746 170.088624 
L 381.519684 170.351721 
L 384.678622 170.180388 
L 387.837559 151.462258 
" style="fill:none;opacity:0.4;stroke:#000000;stroke-linecap:round;stroke-width:2;"/>
   </g>
   <g id="line2d_26">
    <path clip-path="url(#p3a811eadbc)" d="M 239.367493 170.351721 
L 242.52643 170.351721 
L 245.685368 170.351721 
L 248.844305 102.808932 
L 252.003243 53.36913 
L 255.162181 115.025479 
L 258.321118 57.076836 
L 261.480056 104.724537 
L 264.638993 150.752251 
L 267.797931 143.607294 
L 270.956869 133.987166 
L 274.115806 60.851548 
L 277.274744 65.562325 
L 280.433681 71.794386 
L 283.592619 102.969205 
L 286.751556 110.744328 
L 289.910494 116.991166 
L 293.069432 158.440205 
L 296.228369 147.298553 
L 299.387307 143.334606 
L 302.546244 155.588115 
L 305.705182 141.426232 
L 308.86412 145.420105 
L 312.023057 152.482343 
L 315.181995 169.137869 
L 318.340932 159.856427 
L 321.49987 153.703851 
L 324.658807 167.267576 
L 327.817745 169.518727 
L 330.976683 169.700267 
L 334.13562 166.555346 
L 337.294558 138.691039 
L 340.453495 160.924757 
L 343.612433 166.966409 
L 346.771371 169.924824 
L 349.930308 169.768114 
L 353.089246 169.958637 
L 356.248183 169.679891 
L 359.407121 159.425735 
L 362.566058 142.906608 
L 365.724996 154.007511 
L 368.883934 169.702408 
L 372.042871 164.853228 
L 375.201809 162.749034 
L 378.360746 163.750218 
L 381.519684 161.762963 
L 384.678622 152.911208 
L 387.837559 160.846115 
" style="fill:none;opacity:0.4;stroke:#008000;stroke-linecap:round;stroke-width:2;"/>
   </g>
   <g id="line2d_27">
    <path clip-path="url(#p3a811eadbc)" d="M 239.367493 170.351721 
L 242.52643 170.351721 
L 245.685368 156.729044 
L 248.844305 167.071082 
L 252.003243 170.351721 
L 255.162181 169.654726 
L 258.321118 159.399598 
L 261.480056 147.075775 
L 264.638993 85.676145 
L 267.797931 102.099731 
L 270.956869 63.388014 
L 274.115806 53.36913 
L 277.274744 76.851026 
L 280.433681 76.253965 
L 283.592619 96.931803 
L 286.751556 94.756645 
L 289.910494 121.114895 
L 293.069432 151.021139 
L 296.228369 149.641801 
L 299.387307 165.498147 
L 302.546244 164.05628 
L 305.705182 149.533877 
L 308.86412 147.83171 
L 312.023057 152.951558 
L 315.181995 168.366231 
L 318.340932 168.368818 
L 321.49987 165.222383 
L 324.658807 163.286892 
L 327.817745 163.504102 
L 330.976683 165.601647 
L 334.13562 167.851392 
L 337.294558 166.298308 
L 340.453495 161.910941 
L 343.612433 162.03247 
L 346.771371 162.175183 
L 349.930308 168.594705 
L 353.089246 167.53393 
L 356.248183 167.665555 
L 359.407121 159.176819 
L 362.566058 167.166154 
L 365.724996 166.020471 
L 368.883934 157.925683 
L 372.042871 151.264546 
L 375.201809 167.899666 
L 378.360746 166.423077 
L 381.519684 166.816053 
L 384.678622 166.412736 
L 387.837559 162.857197 
" style="fill:none;opacity:0.9;stroke:#ffa500;stroke-linecap:round;stroke-width:2;"/>
   </g>
   <g id="line2d_28">
    <path clip-path="url(#p3a811eadbc)" d="M 239.367493 53.36913 
L 242.52643 53.36913 
L 245.685368 149.215934 
L 248.844305 161.93075 
L 252.003243 85.828081 
L 255.162181 167.229601 
L 258.321118 155.497594 
L 261.480056 144.601629 
L 264.638993 119.277075 
L 267.797931 124.028839 
L 270.956869 80.885066 
L 274.115806 82.842301 
L 277.274744 99.185478 
L 280.433681 104.562495 
L 283.592619 108.03782 
L 286.751556 113.527543 
L 289.910494 133.859281 
L 293.069432 150.823911 
L 296.228369 151.17638 
L 299.387307 161.51909 
L 302.546244 162.0948 
L 305.705182 151.68728 
L 308.86412 153.037162 
L 312.023057 156.112856 
L 315.181995 167.596766 
L 318.340932 166.941281 
L 321.49987 165.038779 
L 324.658807 164.112756 
L 327.817745 165.634121 
L 330.976683 166.090954 
L 334.13562 167.43214 
L 337.294558 165.767225 
L 340.453495 163.867459 
L 343.612433 164.463211 
L 346.771371 164.636266 
L 349.930308 168.245675 
L 353.089246 167.656478 
L 356.248183 167.396615 
L 359.407121 162.153724 
L 362.566058 166.909417 
L 365.724996 166.122801 
L 368.883934 160.706899 
L 372.042871 160.069631 
L 375.201809 167.909624 
L 378.360746 166.544177 
L 381.519684 166.406477 
L 384.678622 166.841081 
L 387.837559 164.737658 
" style="fill:none;stroke:#ffa500;stroke-dasharray:8.4,3.6;stroke-dashoffset:0;stroke-width:3;"/>
   </g>
   <g id="patch_8">
    <path d="M 231.943989 176.200851 
L 231.943989 47.52 
" style="fill:none;stroke:#262626;stroke-linecap:square;stroke-linejoin:miter;stroke-width:1.25;"/>
   </g>
   <g id="patch_9">
    <path d="M 395.261063 176.200851 
L 395.261063 47.52 
" style="fill:none;stroke:#262626;stroke-linecap:square;stroke-linejoin:miter;stroke-width:1.25;"/>
   </g>
   <g id="patch_10">
    <path d="M 231.943989 176.200851 
L 395.261063 176.200851 
" style="fill:none;stroke:#262626;stroke-linecap:square;stroke-linejoin:miter;stroke-width:1.25;"/>
   </g>
   <g id="patch_11">
    <path d="M 231.943989 47.52 
L 395.261063 47.52 
" style="fill:none;stroke:#262626;stroke-linecap:square;stroke-linejoin:miter;stroke-width:1.25;"/>
   </g>
   <g id="text_10">
    <!-- barcelona -->
    <defs>
     <path d="M 48.78125 52.59375 
L 48.78125 44.1875 
Q 44.96875 46.296875 41.140625 47.34375 
Q 37.3125 48.390625 33.40625 48.390625 
Q 24.65625 48.390625 19.8125 42.84375 
Q 14.984375 37.3125 14.984375 27.296875 
Q 14.984375 17.28125 19.8125 11.734375 
Q 24.65625 6.203125 33.40625 6.203125 
Q 37.3125 6.203125 41.140625 7.25 
Q 44.96875 8.296875 48.78125 10.40625 
L 48.78125 2.09375 
Q 45.015625 0.34375 40.984375 -0.53125 
Q 36.96875 -1.421875 32.421875 -1.421875 
Q 20.0625 -1.421875 12.78125 6.34375 
Q 5.515625 14.109375 5.515625 27.296875 
Q 5.515625 40.671875 12.859375 48.328125 
Q 20.21875 56 33.015625 56 
Q 37.15625 56 41.109375 55.140625 
Q 45.0625 54.296875 48.78125 52.59375 
" id="DejaVuSans-63"/>
     <path d="M 54.890625 33.015625 
L 54.890625 0 
L 45.90625 0 
L 45.90625 32.71875 
Q 45.90625 40.484375 42.875 44.328125 
Q 39.84375 48.1875 33.796875 48.1875 
Q 26.515625 48.1875 22.3125 43.546875 
Q 18.109375 38.921875 18.109375 30.90625 
L 18.109375 0 
L 9.078125 0 
L 9.078125 54.6875 
L 18.109375 54.6875 
L 18.109375 46.1875 
Q 21.34375 51.125 25.703125 53.5625 
Q 30.078125 56 35.796875 56 
Q 45.21875 56 50.046875 50.171875 
Q 54.890625 44.34375 54.890625 33.015625 
" id="DejaVuSans-6e"/>
    </defs>
    <g style="fill:#262626;" transform="translate(274.915745 41.52)scale(0.156 -0.156)">
     <use xlink:href="#DejaVuSans-62"/>
     <use x="63.476562" xlink:href="#DejaVuSans-61"/>
     <use x="124.755859" xlink:href="#DejaVuSans-72"/>
     <use x="165.837891" xlink:href="#DejaVuSans-63"/>
     <use x="220.818359" xlink:href="#DejaVuSans-65"/>
     <use x="282.341797" xlink:href="#DejaVuSans-6c"/>
     <use x="310.125" xlink:href="#DejaVuSans-6f"/>
     <use x="371.306641" xlink:href="#DejaVuSans-6e"/>
     <use x="434.685547" xlink:href="#DejaVuSans-61"/>
    </g>
   </g>
  </g>
  <g id="axes_3">
   <g id="patch_12">
    <path d="M 60.461063 349.92 
L 223.778136 349.92 
L 223.778136 221.239149 
L 60.461063 221.239149 
z
" style="fill:#ffffff;"/>
   </g>
   <g id="matplotlib.axis_5">
    <g id="xtick_7">
     <g id="line2d_29">
      <g>
       <use style="fill:#262626;stroke:#262626;" x="67.884566" xlink:href="#m78bb869ecc" y="349.92"/>
      </g>
     </g>
     <g id="text_11">
      <!-- 0 -->
      <g style="fill:#262626;" transform="translate(63.748941 372.797969)scale(0.13 -0.13)">
       <use xlink:href="#DejaVuSans-30"/>
      </g>
     </g>
    </g>
    <g id="xtick_8">
     <g id="line2d_30">
      <g>
       <use style="fill:#262626;stroke:#262626;" x="131.063318" xlink:href="#m78bb869ecc" y="349.92"/>
      </g>
     </g>
     <g id="text_12">
      <!-- 20 -->
      <defs>
       <path d="M 19.1875 8.296875 
L 53.609375 8.296875 
L 53.609375 0 
L 7.328125 0 
L 7.328125 8.296875 
Q 12.9375 14.109375 22.625 23.890625 
Q 32.328125 33.6875 34.8125 36.53125 
Q 39.546875 41.84375 41.421875 45.53125 
Q 43.3125 49.21875 43.3125 52.78125 
Q 43.3125 58.59375 39.234375 62.25 
Q 35.15625 65.921875 28.609375 65.921875 
Q 23.96875 65.921875 18.8125 64.3125 
Q 13.671875 62.703125 7.8125 59.421875 
L 7.8125 69.390625 
Q 13.765625 71.78125 18.9375 73 
Q 24.125 74.21875 28.421875 74.21875 
Q 39.75 74.21875 46.484375 68.546875 
Q 53.21875 62.890625 53.21875 53.421875 
Q 53.21875 48.921875 51.53125 44.890625 
Q 49.859375 40.875 45.40625 35.40625 
Q 44.1875 33.984375 37.640625 27.21875 
Q 31.109375 20.453125 19.1875 8.296875 
" id="DejaVuSans-32"/>
      </defs>
      <g style="fill:#262626;" transform="translate(122.792068 372.797969)scale(0.13 -0.13)">
       <use xlink:href="#DejaVuSans-32"/>
       <use x="63.623047" xlink:href="#DejaVuSans-30"/>
      </g>
     </g>
    </g>
    <g id="xtick_9">
     <g id="line2d_31">
      <g>
       <use style="fill:#262626;stroke:#262626;" x="194.242069" xlink:href="#m78bb869ecc" y="349.92"/>
      </g>
     </g>
     <g id="text_13">
      <!-- 40 -->
      <defs>
       <path d="M 37.796875 64.3125 
L 12.890625 25.390625 
L 37.796875 25.390625 
z
M 35.203125 72.90625 
L 47.609375 72.90625 
L 47.609375 25.390625 
L 58.015625 25.390625 
L 58.015625 17.1875 
L 47.609375 17.1875 
L 47.609375 0 
L 37.796875 0 
L 37.796875 17.1875 
L 4.890625 17.1875 
L 4.890625 26.703125 
z
" id="DejaVuSans-34"/>
      </defs>
      <g style="fill:#262626;" transform="translate(185.970819 372.797969)scale(0.13 -0.13)">
       <use xlink:href="#DejaVuSans-34"/>
       <use x="63.623047" xlink:href="#DejaVuSans-30"/>
      </g>
     </g>
    </g>
    <g id="text_14">
     <!-- $d \ [km]$ -->
     <defs>
      <path d="M 8.59375 75.984375 
L 29.296875 75.984375 
L 29.296875 69 
L 17.578125 69 
L 17.578125 -6.203125 
L 29.296875 -6.203125 
L 29.296875 -13.1875 
L 8.59375 -13.1875 
z
" id="DejaVuSans-5b"/>
      <path d="M 18.3125 75.984375 
L 27.296875 75.984375 
L 18.703125 31.6875 
L 49.515625 54.6875 
L 61.1875 54.6875 
L 26.8125 28.515625 
L 51.90625 0 
L 41.015625 0 
L 17.671875 26.703125 
L 12.5 0 
L 3.515625 0 
z
" id="DejaVuSans-Oblique-6b"/>
      <path d="M 89.796875 33.015625 
L 83.40625 0 
L 74.421875 0 
L 80.71875 32.71875 
Q 81.109375 34.8125 81.296875 36.328125 
Q 81.5 37.84375 81.5 38.921875 
Q 81.5 43.3125 79.046875 45.75 
Q 76.609375 48.1875 72.21875 48.1875 
Q 65.671875 48.1875 60.546875 43.28125 
Q 55.421875 38.375 53.90625 30.515625 
L 47.90625 0 
L 38.921875 0 
L 45.3125 32.71875 
Q 45.703125 34.515625 45.890625 36.046875 
Q 46.09375 37.59375 46.09375 38.8125 
Q 46.09375 43.265625 43.65625 45.71875 
Q 41.21875 48.1875 36.921875 48.1875 
Q 30.28125 48.1875 25.140625 43.28125 
Q 20.015625 38.375 18.5 30.515625 
L 12.5 0 
L 3.515625 0 
L 14.203125 54.6875 
L 23.1875 54.6875 
L 21.484375 46.1875 
Q 25.140625 50.984375 30.046875 53.484375 
Q 34.96875 56 40.578125 56 
Q 46.53125 56 50.359375 52.875 
Q 54.203125 49.75 54.984375 44.1875 
Q 59.078125 49.953125 64.46875 52.96875 
Q 69.875 56 75.875 56 
Q 82.90625 56 86.734375 51.953125 
Q 90.578125 47.90625 90.578125 40.484375 
Q 90.578125 38.875 90.375 36.9375 
Q 90.1875 35.015625 89.796875 33.015625 
" id="DejaVuSans-Oblique-6d"/>
      <path d="M 30.421875 75.984375 
L 30.421875 -13.1875 
L 9.71875 -13.1875 
L 9.71875 -6.203125 
L 21.390625 -6.203125 
L 21.390625 69 
L 9.71875 69 
L 9.71875 75.984375 
z
" id="DejaVuSans-5d"/>
     </defs>
     <g style="fill:#262626;" transform="translate(118.524599 390.367328)scale(0.143 -0.143)">
      <use transform="translate(0 0.015625)" xlink:href="#DejaVuSans-Oblique-64"/>
      <use transform="translate(95.946941 0.015625)" xlink:href="#DejaVuSans-5b"/>
      <use transform="translate(134.960613 0.015625)" xlink:href="#DejaVuSans-Oblique-6b"/>
      <use transform="translate(192.870769 0.015625)" xlink:href="#DejaVuSans-Oblique-6d"/>
      <use transform="translate(290.282878 0.015625)" xlink:href="#DejaVuSans-5d"/>
     </g>
    </g>
   </g>
   <g id="matplotlib.axis_6">
    <g id="ytick_7">
     <g id="line2d_32">
      <g>
       <use style="fill:#262626;stroke:#262626;" x="60.461063" xlink:href="#m568c1256b4" y="344.07087"/>
      </g>
     </g>
     <g id="text_15">
      <!-- 0.0 -->
      <g style="fill:#262626;" transform="translate(26.787 349.009855)scale(0.13 -0.13)">
       <use xlink:href="#DejaVuSans-30"/>
       <use x="63.623047" xlink:href="#DejaVuSans-2e"/>
       <use x="95.410156" xlink:href="#DejaVuSans-30"/>
      </g>
     </g>
    </g>
    <g id="ytick_8">
     <g id="line2d_33">
      <g>
       <use style="fill:#262626;stroke:#262626;" x="60.461063" xlink:href="#m568c1256b4" y="285.579574"/>
      </g>
     </g>
     <g id="text_16">
      <!-- 0.5 -->
      <g style="fill:#262626;" transform="translate(26.787 290.518559)scale(0.13 -0.13)">
       <use xlink:href="#DejaVuSans-30"/>
       <use x="63.623047" xlink:href="#DejaVuSans-2e"/>
       <use x="95.410156" xlink:href="#DejaVuSans-35"/>
      </g>
     </g>
    </g>
    <g id="ytick_9">
     <g id="line2d_34">
      <g>
       <use style="fill:#262626;stroke:#262626;" x="60.461063" xlink:href="#m568c1256b4" y="227.088279"/>
      </g>
     </g>
     <g id="text_17">
      <!-- 1.0 -->
      <g style="fill:#262626;" transform="translate(26.787 232.027263)scale(0.13 -0.13)">
       <use xlink:href="#DejaVuSans-31"/>
       <use x="63.623047" xlink:href="#DejaVuSans-2e"/>
       <use x="95.410156" xlink:href="#DejaVuSans-30"/>
      </g>
     </g>
    </g>
    <g id="text_18">
     <!-- $\hat x_{\cdot}(d)$ -->
     <g style="fill:#262626;" transform="translate(19.813047 302.096074)rotate(-90)scale(0.143 -0.143)">
      <use transform="translate(64.226562 12.015625)" xlink:href="#DejaVuSans-302"/>
      <use transform="translate(0 0.828125)" xlink:href="#DejaVuSans-Oblique-78"/>
      <use transform="translate(63.550781 -15.578125)scale(0.7)" xlink:href="#DejaVuSans-22c5"/>
      <use transform="translate(88.536133 0.828125)" xlink:href="#DejaVuSans-28"/>
      <use transform="translate(127.549805 0.828125)" xlink:href="#DejaVuSans-Oblique-64"/>
      <use transform="translate(191.026367 0.828125)" xlink:href="#DejaVuSans-29"/>
     </g>
    </g>
   </g>
   <g id="line2d_35">
    <path clip-path="url(#pfda2c810d5)" d="M 67.884566 344.07087 
L 71.043503 344.07087 
L 74.202441 344.07087 
L 77.361379 344.07087 
L 80.520316 324.573772 
L 83.679254 279.052919 
L 86.838191 227.088279 
L 89.997129 250.293444 
L 93.156067 233.245257 
L 96.315004 241.343545 
L 99.473942 245.767365 
L 102.632879 292.320972 
L 105.791817 280.931726 
L 108.950754 274.956913 
L 112.109692 296.294668 
L 115.26863 303.101433 
L 118.427567 299.873956 
L 121.586505 314.202975 
L 124.745442 281.290227 
L 127.90438 240.837732 
L 131.063318 247.660381 
L 134.222255 269.079444 
L 137.381193 300.323295 
L 140.54013 291.604314 
L 143.699068 302.777902 
L 146.858005 309.231769 
L 150.016943 306.750328 
L 153.175881 315.154838 
L 156.334818 332.065902 
L 159.493756 329.96927 
L 162.652693 321.261634 
L 165.811631 325.451726 
L 168.970569 321.24299 
L 172.129506 329.074998 
L 175.288444 329.914798 
L 178.447381 333.117457 
L 181.606319 328.98875 
L 184.765256 324.902089 
L 187.924194 336.738006 
L 191.083132 341.904107 
L 194.242069 341.881191 
L 197.401007 338.321918 
L 200.559944 342.008677 
L 203.718882 336.89009 
L 206.87782 342.080853 
L 210.036757 344.07087 
L 213.195695 342.667079 
L 216.354632 343.415812 
" style="fill:none;opacity:0.4;stroke:#000000;stroke-linecap:round;stroke-width:2;"/>
   </g>
   <g id="line2d_36">
    <path clip-path="url(#pfda2c810d5)" d="M 67.884566 344.07087 
L 71.043503 344.07087 
L 74.202441 344.07087 
L 77.361379 343.848733 
L 80.520316 330.480406 
L 83.679254 294.459224 
L 86.838191 253.974652 
L 89.997129 242.931163 
L 93.156067 237.930125 
L 96.315004 227.088279 
L 99.473942 260.431433 
L 102.632879 290.641653 
L 105.791817 290.875792 
L 108.950754 292.167174 
L 112.109692 300.809973 
L 115.26863 298.722839 
L 118.427567 307.804069 
L 121.586505 303.954392 
L 124.745442 297.689065 
L 127.90438 293.434396 
L 131.063318 301.436547 
L 134.222255 314.017511 
L 137.381193 323.819124 
L 140.54013 312.392941 
L 143.699068 322.171252 
L 146.858005 324.306161 
L 150.016943 325.610377 
L 153.175881 331.87069 
L 156.334818 338.938469 
L 159.493756 339.883948 
L 162.652693 338.565536 
L 165.811631 334.762193 
L 168.970569 331.583102 
L 172.129506 337.480374 
L 175.288444 339.541358 
L 178.447381 340.955093 
L 181.606319 340.231413 
L 184.765256 340.998807 
L 187.924194 343.418633 
L 191.083132 343.509845 
L 194.242069 342.877478 
L 197.401007 341.353778 
L 200.559944 342.629925 
L 203.718882 342.623292 
L 206.87782 343.331783 
L 210.036757 343.548312 
L 213.195695 343.25896 
L 216.354632 343.283059 
" style="fill:none;opacity:0.4;stroke:#008000;stroke-linecap:round;stroke-width:2;"/>
   </g>
   <g id="line2d_37">
    <path clip-path="url(#pfda2c810d5)" d="M 67.884566 344.07087 
L 71.043503 344.07087 
L 74.202441 339.920736 
L 77.361379 338.867699 
L 80.520316 325.497161 
L 83.679254 295.373496 
L 86.838191 250.461498 
L 89.997129 227.088279 
L 93.156067 229.318346 
L 96.315004 253.98533 
L 99.473942 245.46248 
L 102.632879 268.23616 
L 105.791817 280.012265 
L 108.950754 271.211827 
L 112.109692 287.771504 
L 115.26863 299.929322 
L 118.427567 300.290597 
L 121.586505 306.354297 
L 124.745442 293.771393 
L 127.90438 286.968624 
L 131.063318 274.409212 
L 134.222255 286.630948 
L 137.381193 306.68284 
L 140.54013 311.759585 
L 143.699068 310.302703 
L 146.858005 312.104972 
L 150.016943 312.021371 
L 153.175881 316.980356 
L 156.334818 324.222527 
L 159.493756 322.958547 
L 162.652693 323.731528 
L 165.811631 326.213729 
L 168.970569 328.526482 
L 172.129506 333.518965 
L 175.288444 333.224033 
L 178.447381 335.765194 
L 181.606319 337.03356 
L 184.765256 335.237046 
L 187.924194 338.303551 
L 191.083132 340.392501 
L 194.242069 341.466732 
L 197.401007 342.226646 
L 200.559944 342.3889 
L 203.718882 342.3479 
L 206.87782 341.981145 
L 210.036757 343.063356 
L 213.195695 343.019441 
L 216.354632 342.893983 
" style="fill:none;opacity:0.9;stroke:#ffa500;stroke-linecap:round;stroke-width:2;"/>
   </g>
   <g id="line2d_38">
    <path clip-path="url(#pfda2c810d5)" d="M 67.884566 227.088279 
L 71.043503 227.088279 
L 74.202441 333.216406 
L 77.361379 335.466397 
L 80.520316 325.291814 
L 83.679254 288.617325 
L 86.838191 250.809698 
L 89.997129 234.655143 
L 93.156067 239.032523 
L 96.315004 251.420545 
L 99.473942 250.355371 
L 102.632879 272.700995 
L 105.791817 280.105522 
L 108.950754 279.864529 
L 112.109692 290.56151 
L 115.26863 294.673275 
L 118.427567 296.621226 
L 121.586505 308.63779 
L 124.745442 293.782826 
L 127.90438 286.215248 
L 131.063318 282.772357 
L 134.222255 288.640459 
L 137.381193 304.949642 
L 140.54013 310.963449 
L 143.699068 314.055328 
L 146.858005 316.712333 
L 150.016943 315.34464 
L 153.175881 322.361659 
L 156.334818 327.038529 
L 159.493756 327.378907 
L 162.652693 327.370155 
L 165.811631 329.321024 
L 168.970569 330.654079 
L 172.129506 333.962416 
L 175.288444 334.6135 
L 178.447381 335.888979 
L 181.606319 337.131457 
L 184.765256 336.400125 
L 187.924194 339.14245 
L 191.083132 340.702097 
L 194.242069 341.085763 
L 197.401007 341.840031 
L 200.559944 342.062363 
L 203.718882 341.974586 
L 206.87782 341.774502 
L 210.036757 342.991433 
L 213.195695 342.862378 
L 216.354632 342.960851 
" style="fill:none;stroke:#ffa500;stroke-dasharray:8.4,3.6;stroke-dashoffset:0;stroke-width:3;"/>
   </g>
   <g id="patch_13">
    <path d="M 60.461063 349.92 
L 60.461063 221.239149 
" style="fill:none;stroke:#262626;stroke-linecap:square;stroke-linejoin:miter;stroke-width:1.25;"/>
   </g>
   <g id="patch_14">
    <path d="M 223.778136 349.92 
L 223.778136 221.239149 
" style="fill:none;stroke:#262626;stroke-linecap:square;stroke-linejoin:miter;stroke-width:1.25;"/>
   </g>
   <g id="patch_15">
    <path d="M 60.461063 349.92 
L 223.778136 349.92 
" style="fill:none;stroke:#262626;stroke-linecap:square;stroke-linejoin:miter;stroke-width:1.25;"/>
   </g>
   <g id="patch_16">
    <path d="M 60.461063 221.239149 
L 223.778136 221.239149 
" style="fill:none;stroke:#262626;stroke-linecap:square;stroke-linejoin:miter;stroke-width:1.25;"/>
   </g>
   <g id="text_19">
    <!-- rio de janeiro -->
    <defs>
     <path id="DejaVuSans-20"/>
     <path d="M 9.421875 54.6875 
L 18.40625 54.6875 
L 18.40625 -0.984375 
Q 18.40625 -11.421875 14.421875 -16.109375 
Q 10.453125 -20.796875 1.609375 -20.796875 
L -1.8125 -20.796875 
L -1.8125 -13.1875 
L 0.59375 -13.1875 
Q 5.71875 -13.1875 7.5625 -10.8125 
Q 9.421875 -8.453125 9.421875 -0.984375 
z
M 9.421875 75.984375 
L 18.40625 75.984375 
L 18.40625 64.59375 
L 9.421875 64.59375 
z
" id="DejaVuSans-6a"/>
    </defs>
    <g style="fill:#262626;" transform="translate(90.431193 215.239149)scale(0.156 -0.156)">
     <use xlink:href="#DejaVuSans-72"/>
     <use x="41.113281" xlink:href="#DejaVuSans-69"/>
     <use x="68.896484" xlink:href="#DejaVuSans-6f"/>
     <use x="130.078125" xlink:href="#DejaVuSans-20"/>
     <use x="161.865234" xlink:href="#DejaVuSans-64"/>
     <use x="225.341797" xlink:href="#DejaVuSans-65"/>
     <use x="286.865234" xlink:href="#DejaVuSans-20"/>
     <use x="318.652344" xlink:href="#DejaVuSans-6a"/>
     <use x="346.435547" xlink:href="#DejaVuSans-61"/>
     <use x="407.714844" xlink:href="#DejaVuSans-6e"/>
     <use x="471.09375" xlink:href="#DejaVuSans-65"/>
     <use x="532.617188" xlink:href="#DejaVuSans-69"/>
     <use x="560.400391" xlink:href="#DejaVuSans-72"/>
     <use x="601.482422" xlink:href="#DejaVuSans-6f"/>
    </g>
   </g>
  </g>
  <g id="axes_4">
   <g id="patch_17">
    <path d="M 231.943989 349.92 
L 395.261063 349.92 
L 395.261063 221.239149 
L 231.943989 221.239149 
z
" style="fill:#ffffff;"/>
   </g>
   <g id="matplotlib.axis_7">
    <g id="xtick_10">
     <g id="line2d_39">
      <g>
       <use style="fill:#262626;stroke:#262626;" x="239.367493" xlink:href="#m78bb869ecc" y="349.92"/>
      </g>
     </g>
     <g id="text_20">
      <!-- 0 -->
      <g style="fill:#262626;" transform="translate(235.231868 372.797969)scale(0.13 -0.13)">
       <use xlink:href="#DejaVuSans-30"/>
      </g>
     </g>
    </g>
    <g id="xtick_11">
     <g id="line2d_40">
      <g>
       <use style="fill:#262626;stroke:#262626;" x="302.546244" xlink:href="#m78bb869ecc" y="349.92"/>
      </g>
     </g>
     <g id="text_21">
      <!-- 20 -->
      <g style="fill:#262626;" transform="translate(294.274994 372.797969)scale(0.13 -0.13)">
       <use xlink:href="#DejaVuSans-32"/>
       <use x="63.623047" xlink:href="#DejaVuSans-30"/>
      </g>
     </g>
    </g>
    <g id="xtick_12">
     <g id="line2d_41">
      <g>
       <use style="fill:#262626;stroke:#262626;" x="365.724996" xlink:href="#m78bb869ecc" y="349.92"/>
      </g>
     </g>
     <g id="text_22">
      <!-- 40 -->
      <g style="fill:#262626;" transform="translate(357.453746 372.797969)scale(0.13 -0.13)">
       <use xlink:href="#DejaVuSans-34"/>
       <use x="63.623047" xlink:href="#DejaVuSans-30"/>
      </g>
     </g>
    </g>
    <g id="text_23">
     <!-- $d \ [km]$ -->
     <g style="fill:#262626;" transform="translate(290.007526 390.367328)scale(0.143 -0.143)">
      <use transform="translate(0 0.015625)" xlink:href="#DejaVuSans-Oblique-64"/>
      <use transform="translate(95.946941 0.015625)" xlink:href="#DejaVuSans-5b"/>
      <use transform="translate(134.960613 0.015625)" xlink:href="#DejaVuSans-Oblique-6b"/>
      <use transform="translate(192.870769 0.015625)" xlink:href="#DejaVuSans-Oblique-6d"/>
      <use transform="translate(290.282878 0.015625)" xlink:href="#DejaVuSans-5d"/>
     </g>
    </g>
   </g>
   <g id="matplotlib.axis_8">
    <g id="ytick_10">
     <g id="line2d_42">
      <g>
       <use style="fill:#262626;stroke:#262626;" x="231.943989" xlink:href="#m568c1256b4" y="344.07087"/>
      </g>
     </g>
    </g>
    <g id="ytick_11">
     <g id="line2d_43">
      <g>
       <use style="fill:#262626;stroke:#262626;" x="231.943989" xlink:href="#m568c1256b4" y="285.579574"/>
      </g>
     </g>
    </g>
    <g id="ytick_12">
     <g id="line2d_44">
      <g>
       <use style="fill:#262626;stroke:#262626;" x="231.943989" xlink:href="#m568c1256b4" y="227.088279"/>
      </g>
     </g>
    </g>
   </g>
   <g id="line2d_45">
    <path clip-path="url(#p6293e0db18)" d="M 239.367493 344.07087 
L 242.52643 344.07087 
L 245.685368 245.842632 
L 248.844305 228.112413 
L 252.003243 227.088279 
L 255.162181 251.675186 
L 258.321118 261.025269 
L 261.480056 295.973795 
L 264.638993 344.07087 
L 267.797931 344.07087 
L 270.956869 344.07087 
L 274.115806 344.07087 
L 277.274744 327.5452 
L 280.433681 338.497904 
L 283.592619 326.235355 
L 286.751556 334.010976 
L 289.910494 323.193644 
L 293.069432 302.603089 
L 296.228369 302.33344 
L 299.387307 305.942244 
L 302.546244 332.182508 
L 305.705182 318.346939 
L 308.86412 313.485841 
L 312.023057 311.178017 
L 315.181995 326.603275 
L 318.340932 305.048327 
L 321.49987 323.115911 
L 324.658807 340.222752 
L 327.817745 323.346421 
L 330.976683 328.601073 
L 334.13562 331.679371 
L 337.294558 335.16195 
L 340.453495 338.051124 
L 343.612433 331.40489 
L 346.771371 338.96842 
L 349.930308 333.224239 
L 353.089246 338.203436 
L 356.248183 336.608507 
L 359.407121 332.809021 
L 362.566058 330.566259 
L 365.724996 330.667735 
L 368.883934 328.01826 
L 372.042871 338.030755 
L 375.201809 341.242984 
L 378.360746 344.07087 
L 381.519684 343.94514 
L 384.678622 342.607319 
L 387.837559 344.07087 
" style="fill:none;opacity:0.4;stroke:#000000;stroke-linecap:round;stroke-width:2;"/>
   </g>
   <g id="line2d_46">
    <path clip-path="url(#p6293e0db18)" d="M 239.367493 344.07087 
L 242.52643 344.07087 
L 245.685368 246.591828 
L 248.844305 227.088279 
L 252.003243 242.087271 
L 255.162181 282.401736 
L 258.321118 306.272278 
L 261.480056 329.252042 
L 264.638993 343.944723 
L 267.797931 344.07087 
L 270.956869 343.447546 
L 274.115806 342.143681 
L 277.274744 341.315088 
L 280.433681 340.923585 
L 283.592619 339.101457 
L 286.751556 340.772796 
L 289.910494 339.845451 
L 293.069432 335.928662 
L 296.228369 335.031244 
L 299.387307 336.06936 
L 302.546244 337.68634 
L 305.705182 338.423249 
L 308.86412 338.307307 
L 312.023057 334.241545 
L 315.181995 334.861441 
L 318.340932 335.30764 
L 321.49987 339.891473 
L 324.658807 339.868699 
L 327.817745 338.511654 
L 330.976683 337.905041 
L 334.13562 340.746314 
L 337.294558 342.233785 
L 340.453495 342.034453 
L 343.612433 342.485642 
L 346.771371 342.266451 
L 349.930308 341.875717 
L 353.089246 342.479824 
L 356.248183 342.385152 
L 359.407121 341.771789 
L 362.566058 341.797865 
L 365.724996 341.276943 
L 368.883934 341.836146 
L 372.042871 342.617424 
L 375.201809 343.928349 
L 378.360746 343.89476 
L 381.519684 343.999916 
L 384.678622 343.870369 
L 387.837559 344.003786 
" style="fill:none;opacity:0.4;stroke:#008000;stroke-linecap:round;stroke-width:2;"/>
   </g>
   <g id="line2d_47">
    <path clip-path="url(#p6293e0db18)" d="M 239.367493 344.07087 
L 242.52643 344.07087 
L 245.685368 259.72683 
L 248.844305 227.088279 
L 252.003243 236.148489 
L 255.162181 270.941927 
L 258.321118 290.106993 
L 261.480056 320.774277 
L 264.638993 340.358214 
L 267.797931 342.56384 
L 270.956869 339.842847 
L 274.115806 341.198526 
L 277.274744 339.556823 
L 280.433681 339.784474 
L 283.592619 334.173047 
L 286.751556 335.970783 
L 289.910494 338.375939 
L 293.069432 333.628166 
L 296.228369 333.092814 
L 299.387307 334.650235 
L 302.546244 330.973679 
L 305.705182 329.125426 
L 308.86412 322.863427 
L 312.023057 324.32058 
L 315.181995 327.530922 
L 318.340932 325.291231 
L 321.49987 337.337346 
L 324.658807 339.103714 
L 327.817745 335.123544 
L 330.976683 332.347378 
L 334.13562 337.91829 
L 337.294558 341.135326 
L 340.453495 341.226255 
L 343.612433 339.454833 
L 346.771371 340.147197 
L 349.930308 339.076565 
L 353.089246 340.069603 
L 356.248183 341.697835 
L 359.407121 340.157234 
L 362.566058 339.531977 
L 365.724996 339.804461 
L 368.883934 341.585842 
L 372.042871 341.595652 
L 375.201809 343.284422 
L 378.360746 343.628621 
L 381.519684 343.601178 
L 384.678622 343.653774 
L 387.837559 343.868716 
" style="fill:none;opacity:0.9;stroke:#ffa500;stroke-linecap:round;stroke-width:2;"/>
   </g>
   <g id="line2d_48">
    <path clip-path="url(#p6293e0db18)" d="M 239.367493 227.088279 
L 242.52643 227.088279 
L 245.685368 252.79712 
L 248.844305 231.787628 
L 252.003243 240.570794 
L 255.162181 267.306118 
L 258.321118 287.950203 
L 261.480056 317.628862 
L 264.638993 340.181385 
L 267.797931 339.293661 
L 270.956869 339.22111 
L 274.115806 338.913805 
L 277.274744 338.448233 
L 280.433681 338.543166 
L 283.592619 333.968503 
L 286.751556 335.207286 
L 289.910494 336.280855 
L 293.069432 330.164938 
L 296.228369 330.283642 
L 299.387307 331.422431 
L 302.546244 330.046259 
L 305.705182 328.800692 
L 308.86412 323.009797 
L 312.023057 325.340112 
L 315.181995 330.905668 
L 318.340932 326.060544 
L 321.49987 335.616484 
L 324.658807 338.659729 
L 327.817745 334.916878 
L 330.976683 333.226691 
L 334.13562 337.929777 
L 337.294558 340.267017 
L 340.453495 340.287214 
L 343.612433 338.823742 
L 346.771371 339.970677 
L 349.930308 339.008538 
L 353.089246 339.860675 
L 356.248183 340.795503 
L 359.407121 339.920284 
L 362.566058 339.400695 
L 365.724996 339.706711 
L 368.883934 340.786994 
L 372.042871 341.186434 
L 375.201809 342.935497 
L 378.360746 343.525174 
L 381.519684 343.475484 
L 384.678622 343.430608 
L 387.837559 343.693614 
" style="fill:none;stroke:#ffa500;stroke-dasharray:8.4,3.6;stroke-dashoffset:0;stroke-width:3;"/>
   </g>
   <g id="patch_18">
    <path d="M 231.943989 349.92 
L 231.943989 221.239149 
" style="fill:none;stroke:#262626;stroke-linecap:square;stroke-linejoin:miter;stroke-width:1.25;"/>
   </g>
   <g id="patch_19">
    <path d="M 395.261063 349.92 
L 395.261063 221.239149 
" style="fill:none;stroke:#262626;stroke-linecap:square;stroke-linejoin:miter;stroke-width:1.25;"/>
   </g>
   <g id="patch_20">
    <path d="M 231.943989 349.92 
L 395.261063 349.92 
" style="fill:none;stroke:#262626;stroke-linecap:square;stroke-linejoin:miter;stroke-width:1.25;"/>
   </g>
   <g id="patch_21">
    <path d="M 231.943989 221.239149 
L 395.261063 221.239149 
" style="fill:none;stroke:#262626;stroke-linecap:square;stroke-linejoin:miter;stroke-width:1.25;"/>
   </g>
   <g id="text_24">
    <!-- san francisco -->
    <defs>
     <path d="M 37.109375 75.984375 
L 37.109375 68.5 
L 28.515625 68.5 
Q 23.6875 68.5 21.796875 66.546875 
Q 19.921875 64.59375 19.921875 59.515625 
L 19.921875 54.6875 
L 34.71875 54.6875 
L 34.71875 47.703125 
L 19.921875 47.703125 
L 19.921875 0 
L 10.890625 0 
L 10.890625 47.703125 
L 2.296875 47.703125 
L 2.296875 54.6875 
L 10.890625 54.6875 
L 10.890625 58.5 
Q 10.890625 67.625 15.140625 71.796875 
Q 19.390625 75.984375 28.609375 75.984375 
z
" id="DejaVuSans-66"/>
    </defs>
    <g style="fill:#262626;" transform="translate(262.081088 215.239149)scale(0.156 -0.156)">
     <use xlink:href="#DejaVuSans-73"/>
     <use x="52.099609" xlink:href="#DejaVuSans-61"/>
     <use x="113.378906" xlink:href="#DejaVuSans-6e"/>
     <use x="176.757812" xlink:href="#DejaVuSans-20"/>
     <use x="208.544922" xlink:href="#DejaVuSans-66"/>
     <use x="243.75" xlink:href="#DejaVuSans-72"/>
     <use x="284.863281" xlink:href="#DejaVuSans-61"/>
     <use x="346.142578" xlink:href="#DejaVuSans-6e"/>
     <use x="409.521484" xlink:href="#DejaVuSans-63"/>
     <use x="464.501953" xlink:href="#DejaVuSans-69"/>
     <use x="492.285156" xlink:href="#DejaVuSans-73"/>
     <use x="544.384766" xlink:href="#DejaVuSans-63"/>
     <use x="599.365234" xlink:href="#DejaVuSans-6f"/>
    </g>
   </g>
  </g>
  <g id="text_25">
   <!-- Benchmark luminosity profile -->
   <defs>
    <path d="M 19.671875 34.8125 
L 19.671875 8.109375 
L 35.5 8.109375 
Q 43.453125 8.109375 47.28125 11.40625 
Q 51.125 14.703125 51.125 21.484375 
Q 51.125 28.328125 47.28125 31.5625 
Q 43.453125 34.8125 35.5 34.8125 
z
M 19.671875 64.796875 
L 19.671875 42.828125 
L 34.28125 42.828125 
Q 41.5 42.828125 45.03125 45.53125 
Q 48.578125 48.25 48.578125 53.8125 
Q 48.578125 59.328125 45.03125 62.0625 
Q 41.5 64.796875 34.28125 64.796875 
z
M 9.8125 72.90625 
L 35.015625 72.90625 
Q 46.296875 72.90625 52.390625 68.21875 
Q 58.5 63.53125 58.5 54.890625 
Q 58.5 48.1875 55.375 44.234375 
Q 52.25 40.28125 46.1875 39.3125 
Q 53.46875 37.75 57.5 32.78125 
Q 61.53125 27.828125 61.53125 20.40625 
Q 61.53125 10.640625 54.890625 5.3125 
Q 48.25 0 35.984375 0 
L 9.8125 0 
z
" id="DejaVuSans-42"/>
    <path d="M 54.890625 33.015625 
L 54.890625 0 
L 45.90625 0 
L 45.90625 32.71875 
Q 45.90625 40.484375 42.875 44.328125 
Q 39.84375 48.1875 33.796875 48.1875 
Q 26.515625 48.1875 22.3125 43.546875 
Q 18.109375 38.921875 18.109375 30.90625 
L 18.109375 0 
L 9.078125 0 
L 9.078125 75.984375 
L 18.109375 75.984375 
L 18.109375 46.1875 
Q 21.34375 51.125 25.703125 53.5625 
Q 30.078125 56 35.796875 56 
Q 45.21875 56 50.046875 50.171875 
Q 54.890625 44.34375 54.890625 33.015625 
" id="DejaVuSans-68"/>
    <path d="M 9.078125 75.984375 
L 18.109375 75.984375 
L 18.109375 31.109375 
L 44.921875 54.6875 
L 56.390625 54.6875 
L 27.390625 29.109375 
L 57.625 0 
L 45.90625 0 
L 18.109375 26.703125 
L 18.109375 0 
L 9.078125 0 
z
" id="DejaVuSans-6b"/>
    <path d="M 18.3125 70.21875 
L 18.3125 54.6875 
L 36.8125 54.6875 
L 36.8125 47.703125 
L 18.3125 47.703125 
L 18.3125 18.015625 
Q 18.3125 11.328125 20.140625 9.421875 
Q 21.96875 7.515625 27.59375 7.515625 
L 36.8125 7.515625 
L 36.8125 0 
L 27.59375 0 
Q 17.1875 0 13.234375 3.875 
Q 9.28125 7.765625 9.28125 18.015625 
L 9.28125 47.703125 
L 2.6875 47.703125 
L 2.6875 54.6875 
L 9.28125 54.6875 
L 9.28125 70.21875 
z
" id="DejaVuSans-74"/>
    <path d="M 32.171875 -5.078125 
Q 28.375 -14.84375 24.75 -17.8125 
Q 21.140625 -20.796875 15.09375 -20.796875 
L 7.90625 -20.796875 
L 7.90625 -13.28125 
L 13.1875 -13.28125 
Q 16.890625 -13.28125 18.9375 -11.515625 
Q 21 -9.765625 23.484375 -3.21875 
L 25.09375 0.875 
L 2.984375 54.6875 
L 12.5 54.6875 
L 29.59375 11.921875 
L 46.6875 54.6875 
L 56.203125 54.6875 
z
" id="DejaVuSans-79"/>
   </defs>
   <g style="fill:#262626;" transform="translate(104.832313 19.3575)scale(0.16 -0.16)">
    <use xlink:href="#DejaVuSans-42"/>
    <use x="68.603516" xlink:href="#DejaVuSans-65"/>
    <use x="130.126953" xlink:href="#DejaVuSans-6e"/>
    <use x="193.505859" xlink:href="#DejaVuSans-63"/>
    <use x="248.486328" xlink:href="#DejaVuSans-68"/>
    <use x="311.865234" xlink:href="#DejaVuSans-6d"/>
    <use x="409.277344" xlink:href="#DejaVuSans-61"/>
    <use x="470.556641" xlink:href="#DejaVuSans-72"/>
    <use x="511.669922" xlink:href="#DejaVuSans-6b"/>
    <use x="569.580078" xlink:href="#DejaVuSans-20"/>
    <use x="601.367188" xlink:href="#DejaVuSans-6c"/>
    <use x="629.150391" xlink:href="#DejaVuSans-75"/>
    <use x="692.529297" xlink:href="#DejaVuSans-6d"/>
    <use x="789.941406" xlink:href="#DejaVuSans-69"/>
    <use x="817.724609" xlink:href="#DejaVuSans-6e"/>
    <use x="881.103516" xlink:href="#DejaVuSans-6f"/>
    <use x="942.285156" xlink:href="#DejaVuSans-73"/>
    <use x="994.384766" xlink:href="#DejaVuSans-69"/>
    <use x="1022.167969" xlink:href="#DejaVuSans-74"/>
    <use x="1061.376953" xlink:href="#DejaVuSans-79"/>
    <use x="1120.556641" xlink:href="#DejaVuSans-20"/>
    <use x="1152.34375" xlink:href="#DejaVuSans-70"/>
    <use x="1215.820312" xlink:href="#DejaVuSans-72"/>
    <use x="1256.902344" xlink:href="#DejaVuSans-6f"/>
    <use x="1318.083984" xlink:href="#DejaVuSans-66"/>
    <use x="1353.289062" xlink:href="#DejaVuSans-69"/>
    <use x="1381.072266" xlink:href="#DejaVuSans-6c"/>
    <use x="1408.855469" xlink:href="#DejaVuSans-65"/>
   </g>
  </g>
 </g>
 <defs>
  <clipPath id="pf8dc6d0adf">
   <rect height="128.680851" width="163.317073" x="60.461063" y="47.52"/>
  </clipPath>
  <clipPath id="p3a811eadbc">
   <rect height="128.680851" width="163.317073" x="231.943989" y="47.52"/>
  </clipPath>
  <clipPath id="pfda2c810d5">
   <rect height="128.680851" width="163.317073" x="60.461063" y="221.239149"/>
  </clipPath>
  <clipPath id="p6293e0db18">
   <rect height="128.680851" width="163.317073" x="231.943989" y="221.239149"/>
  </clipPath>
 </defs>
</svg>
