<?xml version="1.0" encoding="utf-8" standalone="no"?>
<!DOCTYPE svg PUBLIC "-//W3C//DTD SVG 1.1//EN"
  "http://www.w3.org/Graphics/SVG/1.1/DTD/svg11.dtd">
<!-- Created with matplotlib (http://matplotlib.org/) -->
<svg height="504pt" version="1.1" viewBox="0 0 432 504" width="432pt" xmlns="http://www.w3.org/2000/svg" xmlns:xlink="http://www.w3.org/1999/xlink">
 <defs>
  <style type="text/css">
*{stroke-linecap:butt;stroke-linejoin:round;}
  </style>
 </defs>
 <g id="figure_1">
  <g id="patch_1">
   <path d="M 0 504 
L 432 504 
L 432 0 
L 0 0 
z
" style="fill:#ffffff;"/>
  </g>
  <g id="axes_1">
   <g id="patch_2">
    <path d="M 54 184.8 
L 217.317073 184.8 
L 217.317073 50.4 
L 54 50.4 
z
" style="fill:#ffffff;"/>
   </g>
   <g id="matplotlib.axis_1">
    <g id="xtick_1">
     <g id="line2d_1">
      <defs>
       <path d="M 0 0 
L 0 6 
" id="m2ba24d24f7" style="stroke:#262626;"/>
      </defs>
      <g>
       <use style="fill:#262626;stroke:#262626;" x="61.423503" xlink:href="#m2ba24d24f7" y="184.8"/>
      </g>
     </g>
    </g>
    <g id="xtick_2">
     <g id="line2d_2">
      <g>
       <use style="fill:#262626;stroke:#262626;" x="124.602255" xlink:href="#m2ba24d24f7" y="184.8"/>
      </g>
     </g>
    </g>
    <g id="xtick_3">
     <g id="line2d_3">
      <g>
       <use style="fill:#262626;stroke:#262626;" x="187.781007" xlink:href="#m2ba24d24f7" y="184.8"/>
      </g>
     </g>
    </g>
   </g>
   <g id="matplotlib.axis_2">
    <g id="ytick_1">
     <g id="line2d_4">
      <defs>
       <path d="M 0 0 
L -6 0 
" id="mf54fde6c64" style="stroke:#262626;"/>
      </defs>
      <g>
       <use style="fill:#262626;stroke:#262626;" x="54" xlink:href="#mf54fde6c64" y="178.690909"/>
      </g>
     </g>
     <g id="text_1">
      <!-- 0.00 -->
      <defs>
       <path d="M 31.78125 66.40625 
Q 24.171875 66.40625 20.328125 58.90625 
Q 16.5 51.421875 16.5 36.375 
Q 16.5 21.390625 20.328125 13.890625 
Q 24.171875 6.390625 31.78125 6.390625 
Q 39.453125 6.390625 43.28125 13.890625 
Q 47.125 21.390625 47.125 36.375 
Q 47.125 51.421875 43.28125 58.90625 
Q 39.453125 66.40625 31.78125 66.40625 
M 31.78125 74.21875 
Q 44.046875 74.21875 50.515625 64.515625 
Q 56.984375 54.828125 56.984375 36.375 
Q 56.984375 17.96875 50.515625 8.265625 
Q 44.046875 -1.421875 31.78125 -1.421875 
Q 19.53125 -1.421875 13.0625 8.265625 
Q 6.59375 17.96875 6.59375 36.375 
Q 6.59375 54.828125 13.0625 64.515625 
Q 19.53125 74.21875 31.78125 74.21875 
" id="DejaVuSans-30"/>
       <path d="M 10.6875 12.40625 
L 21 12.40625 
L 21 0 
L 10.6875 0 
z
" id="DejaVuSans-2e"/>
      </defs>
      <g style="fill:#262626;" transform="translate(12.054688 183.629893)scale(0.13 -0.13)">
       <use xlink:href="#DejaVuSans-30"/>
       <use x="63.623047" xlink:href="#DejaVuSans-2e"/>
       <use x="95.410156" xlink:href="#DejaVuSans-30"/>
       <use x="159.033203" xlink:href="#DejaVuSans-30"/>
      </g>
     </g>
    </g>
    <g id="ytick_2">
     <g id="line2d_5">
      <g>
       <use style="fill:#262626;stroke:#262626;" x="54" xlink:href="#mf54fde6c64" y="148.145455"/>
      </g>
     </g>
     <g id="text_2">
      <!-- 0.25 -->
      <defs>
       <path d="M 19.1875 8.296875 
L 53.609375 8.296875 
L 53.609375 0 
L 7.328125 0 
L 7.328125 8.296875 
Q 12.9375 14.109375 22.625 23.890625 
Q 32.328125 33.6875 34.8125 36.53125 
Q 39.546875 41.84375 41.421875 45.53125 
Q 43.3125 49.21875 43.3125 52.78125 
Q 43.3125 58.59375 39.234375 62.25 
Q 35.15625 65.921875 28.609375 65.921875 
Q 23.96875 65.921875 18.8125 64.3125 
Q 13.671875 62.703125 7.8125 59.421875 
L 7.8125 69.390625 
Q 13.765625 71.78125 18.9375 73 
Q 24.125 74.21875 28.421875 74.21875 
Q 39.75 74.21875 46.484375 68.546875 
Q 53.21875 62.890625 53.21875 53.421875 
Q 53.21875 48.921875 51.53125 44.890625 
Q 49.859375 40.875 45.40625 35.40625 
Q 44.1875 33.984375 37.640625 27.21875 
Q 31.109375 20.453125 19.1875 8.296875 
" id="DejaVuSans-32"/>
       <path d="M 10.796875 72.90625 
L 49.515625 72.90625 
L 49.515625 64.59375 
L 19.828125 64.59375 
L 19.828125 46.734375 
Q 21.96875 47.46875 24.109375 47.828125 
Q 26.265625 48.1875 28.421875 48.1875 
Q 40.625 48.1875 47.75 41.5 
Q 54.890625 34.8125 54.890625 23.390625 
Q 54.890625 11.625 47.5625 5.09375 
Q 40.234375 -1.421875 26.90625 -1.421875 
Q 22.3125 -1.421875 17.546875 -0.640625 
Q 12.796875 0.140625 7.71875 1.703125 
L 7.71875 11.625 
Q 12.109375 9.234375 16.796875 8.0625 
Q 21.484375 6.890625 26.703125 6.890625 
Q 35.15625 6.890625 40.078125 11.328125 
Q 45.015625 15.765625 45.015625 23.390625 
Q 45.015625 31 40.078125 35.4375 
Q 35.15625 39.890625 26.703125 39.890625 
Q 22.75 39.890625 18.8125 39.015625 
Q 14.890625 38.140625 10.796875 36.28125 
z
" id="DejaVuSans-35"/>
      </defs>
      <g style="fill:#262626;" transform="translate(12.054688 153.084439)scale(0.13 -0.13)">
       <use xlink:href="#DejaVuSans-30"/>
       <use x="63.623047" xlink:href="#DejaVuSans-2e"/>
       <use x="95.410156" xlink:href="#DejaVuSans-32"/>
       <use x="159.033203" xlink:href="#DejaVuSans-35"/>
      </g>
     </g>
    </g>
    <g id="ytick_3">
     <g id="line2d_6">
      <g>
       <use style="fill:#262626;stroke:#262626;" x="54" xlink:href="#mf54fde6c64" y="117.6"/>
      </g>
     </g>
     <g id="text_3">
      <!-- 0.50 -->
      <g style="fill:#262626;" transform="translate(12.054688 122.538984)scale(0.13 -0.13)">
       <use xlink:href="#DejaVuSans-30"/>
       <use x="63.623047" xlink:href="#DejaVuSans-2e"/>
       <use x="95.410156" xlink:href="#DejaVuSans-35"/>
       <use x="159.033203" xlink:href="#DejaVuSans-30"/>
      </g>
     </g>
    </g>
    <g id="ytick_4">
     <g id="line2d_7">
      <g>
       <use style="fill:#262626;stroke:#262626;" x="54" xlink:href="#mf54fde6c64" y="87.054545"/>
      </g>
     </g>
     <g id="text_4">
      <!-- 0.75 -->
      <defs>
       <path d="M 8.203125 72.90625 
L 55.078125 72.90625 
L 55.078125 68.703125 
L 28.609375 0 
L 18.3125 0 
L 43.21875 64.59375 
L 8.203125 64.59375 
z
" id="DejaVuSans-37"/>
      </defs>
      <g style="fill:#262626;" transform="translate(12.054688 91.99353)scale(0.13 -0.13)">
       <use xlink:href="#DejaVuSans-30"/>
       <use x="63.623047" xlink:href="#DejaVuSans-2e"/>
       <use x="95.410156" xlink:href="#DejaVuSans-37"/>
       <use x="159.033203" xlink:href="#DejaVuSans-35"/>
      </g>
     </g>
    </g>
    <g id="ytick_5">
     <g id="line2d_8">
      <g>
       <use style="fill:#262626;stroke:#262626;" x="54" xlink:href="#mf54fde6c64" y="56.509091"/>
      </g>
     </g>
     <g id="text_5">
      <!-- 1.00 -->
      <defs>
       <path d="M 12.40625 8.296875 
L 28.515625 8.296875 
L 28.515625 63.921875 
L 10.984375 60.40625 
L 10.984375 69.390625 
L 28.421875 72.90625 
L 38.28125 72.90625 
L 38.28125 8.296875 
L 54.390625 8.296875 
L 54.390625 0 
L 12.40625 0 
z
" id="DejaVuSans-31"/>
      </defs>
      <g style="fill:#262626;" transform="translate(12.054688 61.448075)scale(0.13 -0.13)">
       <use xlink:href="#DejaVuSans-31"/>
       <use x="63.623047" xlink:href="#DejaVuSans-2e"/>
       <use x="95.410156" xlink:href="#DejaVuSans-30"/>
       <use x="159.033203" xlink:href="#DejaVuSans-30"/>
      </g>
     </g>
    </g>
    <g id="text_6">
     <!-- $\hat x_{\cdot}(d)$ -->
     <defs>
      <path d="M -28.609375 79.984375 
L -21.390625 79.984375 
L -9.421875 61.625 
L -16.21875 61.625 
L -25 73.578125 
L -33.796875 61.625 
L -40.578125 61.625 
z
M -25 56 
z
" id="DejaVuSans-302"/>
      <path d="M 60.015625 54.6875 
L 34.90625 27.875 
L 50.296875 0 
L 39.984375 0 
L 28.421875 21.6875 
L 8.296875 0 
L -2.59375 0 
L 24.3125 28.8125 
L 10.015625 54.6875 
L 20.3125 54.6875 
L 30.8125 34.90625 
L 49.125 54.6875 
z
" id="DejaVuSans-Oblique-78"/>
      <path d="M 10.6875 40.921875 
L 21 40.921875 
L 21 28.515625 
L 10.6875 28.515625 
z
" id="DejaVuSans-22c5"/>
      <path d="M 31 75.875 
Q 24.46875 64.65625 21.28125 53.65625 
Q 18.109375 42.671875 18.109375 31.390625 
Q 18.109375 20.125 21.3125 9.0625 
Q 24.515625 -2 31 -13.1875 
L 23.1875 -13.1875 
Q 15.875 -1.703125 12.234375 9.375 
Q 8.59375 20.453125 8.59375 31.390625 
Q 8.59375 42.28125 12.203125 53.3125 
Q 15.828125 64.359375 23.1875 75.875 
z
" id="DejaVuSans-28"/>
      <path d="M 41.796875 8.203125 
Q 38.1875 3.46875 33.25 1.015625 
Q 28.328125 -1.421875 22.3125 -1.421875 
Q 14.109375 -1.421875 9.34375 4.171875 
Q 4.59375 9.765625 4.59375 19.484375 
Q 4.59375 27.59375 7.46875 34.9375 
Q 10.359375 42.28125 15.828125 48.09375 
Q 19.4375 51.953125 23.96875 53.96875 
Q 28.515625 56 33.5 56 
Q 38.765625 56 42.796875 53.453125 
Q 46.828125 50.921875 49.03125 46.1875 
L 54.890625 75.984375 
L 63.921875 75.984375 
L 49.125 0 
L 40.09375 0 
z
M 13.921875 21.09375 
Q 13.921875 14.015625 17.109375 10.0625 
Q 20.3125 6.109375 25.984375 6.109375 
Q 30.171875 6.109375 33.765625 8.125 
Q 37.359375 10.15625 40.09375 14.109375 
Q 42.96875 18.21875 44.625 23.578125 
Q 46.296875 28.953125 46.296875 34.1875 
Q 46.296875 40.96875 43.09375 44.765625 
Q 39.890625 48.578125 34.28125 48.578125 
Q 30.03125 48.578125 26.359375 46.578125 
Q 22.703125 44.578125 20.125 40.828125 
Q 17.28125 36.765625 15.59375 31.390625 
Q 13.921875 26.03125 13.921875 21.09375 
" id="DejaVuSans-Oblique-64"/>
      <path d="M 8.015625 75.875 
L 15.828125 75.875 
Q 23.140625 64.359375 26.78125 53.3125 
Q 30.421875 42.28125 30.421875 31.390625 
Q 30.421875 20.453125 26.78125 9.375 
Q 23.140625 -1.703125 15.828125 -13.1875 
L 8.015625 -13.1875 
Q 14.5 -2 17.703125 9.0625 
Q 20.90625 20.125 20.90625 31.390625 
Q 20.90625 42.671875 17.703125 53.65625 
Q 14.5 64.65625 8.015625 75.875 
" id="DejaVuSans-29"/>
     </defs>
     <g style="fill:#262626;" transform="translate(5.080734 134.1165)rotate(-90)scale(0.143 -0.143)">
      <use transform="translate(64.226562 12.015625)" xlink:href="#DejaVuSans-302"/>
      <use transform="translate(0 0.828125)" xlink:href="#DejaVuSans-Oblique-78"/>
      <use transform="translate(63.550781 -15.578125)scale(0.7)" xlink:href="#DejaVuSans-22c5"/>
      <use transform="translate(88.536133 0.828125)" xlink:href="#DejaVuSans-28"/>
      <use transform="translate(127.549805 0.828125)" xlink:href="#DejaVuSans-Oblique-64"/>
      <use transform="translate(191.026367 0.828125)" xlink:href="#DejaVuSans-29"/>
     </g>
    </g>
   </g>
   <g id="line2d_9">
    <path clip-path="url(#p8b6e539f36)" d="M 61.423503 178.690909 
L 64.582441 178.690909 
L 67.741378 96.761811 
L 70.900316 71.132172 
L 74.059254 60.751483 
L 77.218191 56.509091 
L 80.377129 68.366836 
L 83.536066 84.569605 
L 86.695004 100.279095 
L 89.853942 75.238003 
L 93.012879 67.732623 
L 96.171817 69.020514 
L 99.330754 73.435315 
L 102.489692 78.155657 
L 105.64863 79.590977 
L 108.807567 80.723827 
L 111.966505 98.072679 
L 115.125442 112.927951 
L 118.28438 122.232381 
L 121.443317 118.150885 
L 124.602255 123.429559 
L 127.761193 139.961773 
L 130.92013 157.713393 
L 134.079068 130.216943 
L 137.238005 140.152931 
L 140.396943 143.484413 
L 143.555881 142.049078 
L 146.714818 136.274415 
L 149.873756 144.278712 
L 153.032693 149.567966 
L 156.191631 149.642596 
L 159.350568 147.946149 
L 162.509506 152.147007 
L 165.668444 163.009118 
L 168.827381 159.398288 
L 171.986319 158.073735 
L 175.145256 167.294531 
L 178.304194 165.148692 
L 181.463132 163.813959 
L 184.622069 167.583936 
L 187.781007 168.451007 
L 190.939944 164.001119 
L 194.098882 173.069087 
L 197.25782 171.671851 
L 200.416757 169.17101 
L 203.575695 172.294242 
L 206.734632 166.556558 
L 209.89357 168.665027 
" style="fill:none;opacity:0.4;stroke:#000000;stroke-linecap:round;stroke-width:2;"/>
   </g>
   <g id="line2d_10">
    <path clip-path="url(#p8b6e539f36)" d="M 61.423503 178.690909 
L 64.582441 178.690909 
L 67.741378 96.820343 
L 70.900316 56.509091 
L 74.059254 67.174666 
L 77.218191 70.168282 
L 80.377129 114.245516 
L 83.536066 137.276825 
L 86.695004 137.971926 
L 89.853942 138.615037 
L 93.012879 139.32328 
L 96.171817 152.161197 
L 99.330754 155.256791 
L 102.489692 155.881152 
L 105.64863 160.314709 
L 108.807567 162.968734 
L 111.966505 163.115318 
L 115.125442 165.288254 
L 118.28438 169.93112 
L 121.443317 171.252329 
L 124.602255 173.26874 
L 127.761193 175.737471 
L 130.92013 176.830782 
L 134.079068 174.133286 
L 137.238005 174.621836 
L 140.396943 174.924591 
L 143.555881 175.341374 
L 146.714818 175.178722 
L 149.873756 175.204215 
L 153.032693 175.754124 
L 156.191631 176.329843 
L 159.350568 176.500822 
L 162.509506 177.294286 
L 165.668444 177.432669 
L 168.827381 177.156827 
L 171.986319 177.195124 
L 175.145256 177.934426 
L 178.304194 178.007489 
L 181.463132 177.941571 
L 184.622069 178.075601 
L 187.781007 177.980778 
L 190.939944 177.973713 
L 194.098882 178.241831 
L 197.25782 178.262484 
L 200.416757 178.11998 
L 203.575695 178.089522 
L 206.734632 177.717182 
L 209.89357 177.609352 
" style="fill:none;opacity:0.4;stroke:#008000;stroke-linecap:round;stroke-width:2;"/>
   </g>
   <g id="line2d_11">
    <path clip-path="url(#p8b6e539f36)" d="M 61.423503 178.690909 
L 64.582441 178.690909 
L 67.741378 100.283977 
L 70.900316 56.509091 
L 74.059254 79.716743 
L 77.218191 79.765801 
L 80.377129 85.452861 
L 83.536066 108.229103 
L 86.695004 114.021598 
L 89.853942 102.506525 
L 93.012879 103.947514 
L 96.171817 106.418263 
L 99.330754 119.603761 
L 102.489692 122.802329 
L 105.64863 135.052522 
L 108.807567 137.178992 
L 111.966505 139.397894 
L 115.125442 145.261584 
L 118.28438 149.685678 
L 121.443317 155.238709 
L 124.602255 160.305905 
L 127.761193 164.729035 
L 130.92013 165.917178 
L 134.079068 157.356294 
L 137.238005 158.52091 
L 140.396943 161.735067 
L 143.555881 161.680181 
L 146.714818 162.155318 
L 149.873756 163.084597 
L 153.032693 165.501098 
L 156.191631 166.570645 
L 159.350568 166.135725 
L 162.509506 167.578611 
L 165.668444 172.005746 
L 168.827381 171.573649 
L 171.986319 172.864848 
L 175.145256 174.485338 
L 178.304194 172.933139 
L 181.463132 173.844859 
L 184.622069 175.039504 
L 187.781007 175.309368 
L 190.939944 174.809548 
L 194.098882 175.851843 
L 197.25782 175.500724 
L 200.416757 174.601042 
L 203.575695 175.577744 
L 206.734632 174.424873 
L 209.89357 174.201685 
" style="fill:none;opacity:0.9;stroke:#ffa500;stroke-linecap:round;stroke-width:2;"/>
   </g>
   <g id="line2d_12">
    <path clip-path="url(#p8b6e539f36)" d="M 61.423503 56.509091 
L 64.582441 56.509091 
L 67.741378 93.380704 
L 70.900316 61.314653 
L 74.059254 83.039827 
L 77.218191 86.219791 
L 80.377129 96.564731 
L 83.536066 104.899501 
L 86.695004 114.168925 
L 89.853942 105.786832 
L 93.012879 107.914919 
L 96.171817 117.104886 
L 99.330754 124.892999 
L 102.489692 127.915407 
L 105.64863 136.099379 
L 108.807567 136.885791 
L 111.966505 139.817242 
L 115.125442 143.4656 
L 118.28438 149.67033 
L 121.443317 153.389411 
L 124.602255 158.559789 
L 127.761193 161.895693 
L 130.92013 165.609654 
L 134.079068 157.992137 
L 137.238005 159.134189 
L 140.396943 161.671063 
L 143.555881 162.110477 
L 146.714818 161.903111 
L 149.873756 162.703079 
L 153.032693 165.79287 
L 156.191631 167.471074 
L 159.350568 166.841741 
L 162.509506 167.994692 
L 165.668444 171.771867 
L 168.827381 170.443567 
L 171.986319 172.944923 
L 175.145256 174.808686 
L 178.304194 173.525115 
L 181.463132 173.834438 
L 184.622069 174.182899 
L 187.781007 175.284155 
L 190.939944 174.301869 
L 194.098882 175.731022 
L 197.25782 175.253142 
L 200.416757 174.724662 
L 203.575695 175.908963 
L 206.734632 174.805452 
L 209.89357 174.350253 
" style="fill:none;stroke:#ffa500;stroke-dasharray:8.4,3.6;stroke-dashoffset:0;stroke-width:3;"/>
   </g>
   <g id="patch_3">
    <path d="M 54 184.8 
L 54 50.4 
" style="fill:none;stroke:#262626;stroke-linecap:square;stroke-linejoin:miter;stroke-width:1.25;"/>
   </g>
   <g id="patch_4">
    <path d="M 217.317073 184.8 
L 217.317073 50.4 
" style="fill:none;stroke:#262626;stroke-linecap:square;stroke-linejoin:miter;stroke-width:1.25;"/>
   </g>
   <g id="patch_5">
    <path d="M 54 184.8 
L 217.317073 184.8 
" style="fill:none;stroke:#262626;stroke-linecap:square;stroke-linejoin:miter;stroke-width:1.25;"/>
   </g>
   <g id="patch_6">
    <path d="M 54 50.4 
L 217.317073 50.4 
" style="fill:none;stroke:#262626;stroke-linecap:square;stroke-linejoin:miter;stroke-width:1.25;"/>
   </g>
   <g id="text_7">
    <!-- paris -->
    <defs>
     <path d="M 18.109375 8.203125 
L 18.109375 -20.796875 
L 9.078125 -20.796875 
L 9.078125 54.6875 
L 18.109375 54.6875 
L 18.109375 46.390625 
Q 20.953125 51.265625 25.265625 53.625 
Q 29.59375 56 35.59375 56 
Q 45.5625 56 51.78125 48.09375 
Q 58.015625 40.1875 58.015625 27.296875 
Q 58.015625 14.40625 51.78125 6.484375 
Q 45.5625 -1.421875 35.59375 -1.421875 
Q 29.59375 -1.421875 25.265625 0.953125 
Q 20.953125 3.328125 18.109375 8.203125 
M 48.6875 27.296875 
Q 48.6875 37.203125 44.609375 42.84375 
Q 40.53125 48.484375 33.40625 48.484375 
Q 26.265625 48.484375 22.1875 42.84375 
Q 18.109375 37.203125 18.109375 27.296875 
Q 18.109375 17.390625 22.1875 11.75 
Q 26.265625 6.109375 33.40625 6.109375 
Q 40.53125 6.109375 44.609375 11.75 
Q 48.6875 17.390625 48.6875 27.296875 
" id="DejaVuSans-70"/>
     <path d="M 34.28125 27.484375 
Q 23.390625 27.484375 19.1875 25 
Q 14.984375 22.515625 14.984375 16.5 
Q 14.984375 11.71875 18.140625 8.90625 
Q 21.296875 6.109375 26.703125 6.109375 
Q 34.1875 6.109375 38.703125 11.40625 
Q 43.21875 16.703125 43.21875 25.484375 
L 43.21875 27.484375 
z
M 52.203125 31.203125 
L 52.203125 0 
L 43.21875 0 
L 43.21875 8.296875 
Q 40.140625 3.328125 35.546875 0.953125 
Q 30.953125 -1.421875 24.3125 -1.421875 
Q 15.921875 -1.421875 10.953125 3.296875 
Q 6 8.015625 6 15.921875 
Q 6 25.140625 12.171875 29.828125 
Q 18.359375 34.515625 30.609375 34.515625 
L 43.21875 34.515625 
L 43.21875 35.40625 
Q 43.21875 41.609375 39.140625 45 
Q 35.0625 48.390625 27.6875 48.390625 
Q 23 48.390625 18.546875 47.265625 
Q 14.109375 46.140625 10.015625 43.890625 
L 10.015625 52.203125 
Q 14.9375 54.109375 19.578125 55.046875 
Q 24.21875 56 28.609375 56 
Q 40.484375 56 46.34375 49.84375 
Q 52.203125 43.703125 52.203125 31.203125 
" id="DejaVuSans-61"/>
     <path d="M 41.109375 46.296875 
Q 39.59375 47.171875 37.8125 47.578125 
Q 36.03125 48 33.890625 48 
Q 26.265625 48 22.1875 43.046875 
Q 18.109375 38.09375 18.109375 28.8125 
L 18.109375 0 
L 9.078125 0 
L 9.078125 54.6875 
L 18.109375 54.6875 
L 18.109375 46.1875 
Q 20.953125 51.171875 25.484375 53.578125 
Q 30.03125 56 36.53125 56 
Q 37.453125 56 38.578125 55.875 
Q 39.703125 55.765625 41.0625 55.515625 
z
" id="DejaVuSans-72"/>
     <path d="M 9.421875 54.6875 
L 18.40625 54.6875 
L 18.40625 0 
L 9.421875 0 
z
M 9.421875 75.984375 
L 18.40625 75.984375 
L 18.40625 64.59375 
L 9.421875 64.59375 
z
" id="DejaVuSans-69"/>
     <path d="M 44.28125 53.078125 
L 44.28125 44.578125 
Q 40.484375 46.53125 36.375 47.5 
Q 32.28125 48.484375 27.875 48.484375 
Q 21.1875 48.484375 17.84375 46.4375 
Q 14.5 44.390625 14.5 40.28125 
Q 14.5 37.15625 16.890625 35.375 
Q 19.28125 33.59375 26.515625 31.984375 
L 29.59375 31.296875 
Q 39.15625 29.25 43.1875 25.515625 
Q 47.21875 21.78125 47.21875 15.09375 
Q 47.21875 7.46875 41.1875 3.015625 
Q 35.15625 -1.421875 24.609375 -1.421875 
Q 20.21875 -1.421875 15.453125 -0.5625 
Q 10.6875 0.296875 5.421875 2 
L 5.421875 11.28125 
Q 10.40625 8.6875 15.234375 7.390625 
Q 20.0625 6.109375 24.8125 6.109375 
Q 31.15625 6.109375 34.5625 8.28125 
Q 37.984375 10.453125 37.984375 14.40625 
Q 37.984375 18.0625 35.515625 20.015625 
Q 33.0625 21.96875 24.703125 23.78125 
L 21.578125 24.515625 
Q 13.234375 26.265625 9.515625 29.90625 
Q 5.8125 33.546875 5.8125 39.890625 
Q 5.8125 47.609375 11.28125 51.796875 
Q 16.75 56 26.8125 56 
Q 31.78125 56 36.171875 55.265625 
Q 40.578125 54.546875 44.28125 53.078125 
" id="DejaVuSans-73"/>
    </defs>
    <g style="fill:#262626;" transform="translate(116.490037 44.4)scale(0.156 -0.156)">
     <use xlink:href="#DejaVuSans-70"/>
     <use x="63.476562" xlink:href="#DejaVuSans-61"/>
     <use x="124.755859" xlink:href="#DejaVuSans-72"/>
     <use x="165.869141" xlink:href="#DejaVuSans-69"/>
     <use x="193.652344" xlink:href="#DejaVuSans-73"/>
    </g>
   </g>
   <g id="legend_1">
    <g id="line2d_13">
     <path d="M 139.895198 58.498437 
L 159.895198 58.498437 
" style="fill:none;opacity:0.4;stroke:#000000;stroke-linecap:round;stroke-width:2;"/>
    </g>
    <g id="line2d_14"/>
    <g id="text_8">
     <!-- bldg -->
     <defs>
      <path d="M 48.6875 27.296875 
Q 48.6875 37.203125 44.609375 42.84375 
Q 40.53125 48.484375 33.40625 48.484375 
Q 26.265625 48.484375 22.1875 42.84375 
Q 18.109375 37.203125 18.109375 27.296875 
Q 18.109375 17.390625 22.1875 11.75 
Q 26.265625 6.109375 33.40625 6.109375 
Q 40.53125 6.109375 44.609375 11.75 
Q 48.6875 17.390625 48.6875 27.296875 
M 18.109375 46.390625 
Q 20.953125 51.265625 25.265625 53.625 
Q 29.59375 56 35.59375 56 
Q 45.5625 56 51.78125 48.09375 
Q 58.015625 40.1875 58.015625 27.296875 
Q 58.015625 14.40625 51.78125 6.484375 
Q 45.5625 -1.421875 35.59375 -1.421875 
Q 29.59375 -1.421875 25.265625 0.953125 
Q 20.953125 3.328125 18.109375 8.203125 
L 18.109375 0 
L 9.078125 0 
L 9.078125 75.984375 
L 18.109375 75.984375 
z
" id="DejaVuSans-62"/>
      <path d="M 9.421875 75.984375 
L 18.40625 75.984375 
L 18.40625 0 
L 9.421875 0 
z
" id="DejaVuSans-6c"/>
      <path d="M 45.40625 46.390625 
L 45.40625 75.984375 
L 54.390625 75.984375 
L 54.390625 0 
L 45.40625 0 
L 45.40625 8.203125 
Q 42.578125 3.328125 38.25 0.953125 
Q 33.9375 -1.421875 27.875 -1.421875 
Q 17.96875 -1.421875 11.734375 6.484375 
Q 5.515625 14.40625 5.515625 27.296875 
Q 5.515625 40.1875 11.734375 48.09375 
Q 17.96875 56 27.875 56 
Q 33.9375 56 38.25 53.625 
Q 42.578125 51.265625 45.40625 46.390625 
M 14.796875 27.296875 
Q 14.796875 17.390625 18.875 11.75 
Q 22.953125 6.109375 30.078125 6.109375 
Q 37.203125 6.109375 41.296875 11.75 
Q 45.40625 17.390625 45.40625 27.296875 
Q 45.40625 37.203125 41.296875 42.84375 
Q 37.203125 48.484375 30.078125 48.484375 
Q 22.953125 48.484375 18.875 42.84375 
Q 14.796875 37.203125 14.796875 27.296875 
" id="DejaVuSans-64"/>
      <path d="M 45.40625 27.984375 
Q 45.40625 37.75 41.375 43.109375 
Q 37.359375 48.484375 30.078125 48.484375 
Q 22.859375 48.484375 18.828125 43.109375 
Q 14.796875 37.75 14.796875 27.984375 
Q 14.796875 18.265625 18.828125 12.890625 
Q 22.859375 7.515625 30.078125 7.515625 
Q 37.359375 7.515625 41.375 12.890625 
Q 45.40625 18.265625 45.40625 27.984375 
M 54.390625 6.78125 
Q 54.390625 -7.171875 48.1875 -13.984375 
Q 42 -20.796875 29.203125 -20.796875 
Q 24.46875 -20.796875 20.265625 -20.09375 
Q 16.0625 -19.390625 12.109375 -17.921875 
L 12.109375 -9.1875 
Q 16.0625 -11.328125 19.921875 -12.34375 
Q 23.78125 -13.375 27.78125 -13.375 
Q 36.625 -13.375 41.015625 -8.765625 
Q 45.40625 -4.15625 45.40625 5.171875 
L 45.40625 9.625 
Q 42.625 4.78125 38.28125 2.390625 
Q 33.9375 0 27.875 0 
Q 17.828125 0 11.671875 7.65625 
Q 5.515625 15.328125 5.515625 27.984375 
Q 5.515625 40.671875 11.671875 48.328125 
Q 17.828125 56 27.875 56 
Q 33.9375 56 38.28125 53.609375 
Q 42.625 51.21875 45.40625 46.390625 
L 45.40625 54.6875 
L 54.390625 54.6875 
z
" id="DejaVuSans-67"/>
     </defs>
     <g style="fill:#262626;" transform="translate(167.895198 61.998437)scale(0.1 -0.1)">
      <use xlink:href="#DejaVuSans-62"/>
      <use x="63.476562" xlink:href="#DejaVuSans-6c"/>
      <use x="91.259766" xlink:href="#DejaVuSans-64"/>
      <use x="154.736328" xlink:href="#DejaVuSans-67"/>
     </g>
    </g>
    <g id="line2d_15">
     <path d="M 139.895198 73.176562 
L 159.895198 73.176562 
" style="fill:none;opacity:0.4;stroke:#008000;stroke-linecap:round;stroke-width:2;"/>
    </g>
    <g id="line2d_16"/>
    <g id="text_9">
     <!-- pop -->
     <defs>
      <path d="M 30.609375 48.390625 
Q 23.390625 48.390625 19.1875 42.75 
Q 14.984375 37.109375 14.984375 27.296875 
Q 14.984375 17.484375 19.15625 11.84375 
Q 23.34375 6.203125 30.609375 6.203125 
Q 37.796875 6.203125 41.984375 11.859375 
Q 46.1875 17.53125 46.1875 27.296875 
Q 46.1875 37.015625 41.984375 42.703125 
Q 37.796875 48.390625 30.609375 48.390625 
M 30.609375 56 
Q 42.328125 56 49.015625 48.375 
Q 55.71875 40.765625 55.71875 27.296875 
Q 55.71875 13.875 49.015625 6.21875 
Q 42.328125 -1.421875 30.609375 -1.421875 
Q 18.84375 -1.421875 12.171875 6.21875 
Q 5.515625 13.875 5.515625 27.296875 
Q 5.515625 40.765625 12.171875 48.375 
Q 18.84375 56 30.609375 56 
" id="DejaVuSans-6f"/>
     </defs>
     <g style="fill:#262626;" transform="translate(167.895198 76.676562)scale(0.1 -0.1)">
      <use xlink:href="#DejaVuSans-70"/>
      <use x="63.476562" xlink:href="#DejaVuSans-6f"/>
      <use x="124.658203" xlink:href="#DejaVuSans-70"/>
     </g>
    </g>
    <g id="line2d_17">
     <path d="M 139.895198 87.854687 
L 159.895198 87.854687 
" style="fill:none;opacity:0.9;stroke:#ffa500;stroke-linecap:round;stroke-width:2;"/>
    </g>
    <g id="line2d_18"/>
    <g id="text_10">
     <!-- lum -->
     <defs>
      <path d="M 8.5 21.578125 
L 8.5 54.6875 
L 17.484375 54.6875 
L 17.484375 21.921875 
Q 17.484375 14.15625 20.5 10.265625 
Q 23.53125 6.390625 29.59375 6.390625 
Q 36.859375 6.390625 41.078125 11.03125 
Q 45.3125 15.671875 45.3125 23.6875 
L 45.3125 54.6875 
L 54.296875 54.6875 
L 54.296875 0 
L 45.3125 0 
L 45.3125 8.40625 
Q 42.046875 3.421875 37.71875 1 
Q 33.40625 -1.421875 27.6875 -1.421875 
Q 18.265625 -1.421875 13.375 4.4375 
Q 8.5 10.296875 8.5 21.578125 
M 31.109375 56 
z
" id="DejaVuSans-75"/>
      <path d="M 52 44.1875 
Q 55.375 50.25 60.0625 53.125 
Q 64.75 56 71.09375 56 
Q 79.640625 56 84.28125 50.015625 
Q 88.921875 44.046875 88.921875 33.015625 
L 88.921875 0 
L 79.890625 0 
L 79.890625 32.71875 
Q 79.890625 40.578125 77.09375 44.375 
Q 74.3125 48.1875 68.609375 48.1875 
Q 61.625 48.1875 57.5625 43.546875 
Q 53.515625 38.921875 53.515625 30.90625 
L 53.515625 0 
L 44.484375 0 
L 44.484375 32.71875 
Q 44.484375 40.625 41.703125 44.40625 
Q 38.921875 48.1875 33.109375 48.1875 
Q 26.21875 48.1875 22.15625 43.53125 
Q 18.109375 38.875 18.109375 30.90625 
L 18.109375 0 
L 9.078125 0 
L 9.078125 54.6875 
L 18.109375 54.6875 
L 18.109375 46.1875 
Q 21.1875 51.21875 25.484375 53.609375 
Q 29.78125 56 35.6875 56 
Q 41.65625 56 45.828125 52.96875 
Q 50 49.953125 52 44.1875 
" id="DejaVuSans-6d"/>
     </defs>
     <g style="fill:#262626;" transform="translate(167.895198 91.354687)scale(0.1 -0.1)">
      <use xlink:href="#DejaVuSans-6c"/>
      <use x="27.783203" xlink:href="#DejaVuSans-75"/>
      <use x="91.162109" xlink:href="#DejaVuSans-6d"/>
     </g>
    </g>
    <g id="line2d_19">
     <path d="M 139.895198 102.532812 
L 159.895198 102.532812 
" style="fill:none;stroke:#ffa500;stroke-dasharray:8.4,3.6;stroke-dashoffset:0;stroke-width:3;"/>
    </g>
    <g id="line2d_20"/>
    <g id="text_11">
     <!-- lum-pred -->
     <defs>
      <path d="M 4.890625 31.390625 
L 31.203125 31.390625 
L 31.203125 23.390625 
L 4.890625 23.390625 
z
" id="DejaVuSans-2d"/>
      <path d="M 56.203125 29.59375 
L 56.203125 25.203125 
L 14.890625 25.203125 
Q 15.484375 15.921875 20.484375 11.0625 
Q 25.484375 6.203125 34.421875 6.203125 
Q 39.59375 6.203125 44.453125 7.46875 
Q 49.3125 8.734375 54.109375 11.28125 
L 54.109375 2.78125 
Q 49.265625 0.734375 44.1875 -0.34375 
Q 39.109375 -1.421875 33.890625 -1.421875 
Q 20.796875 -1.421875 13.15625 6.1875 
Q 5.515625 13.8125 5.515625 26.8125 
Q 5.515625 40.234375 12.765625 48.109375 
Q 20.015625 56 32.328125 56 
Q 43.359375 56 49.78125 48.890625 
Q 56.203125 41.796875 56.203125 29.59375 
M 47.21875 32.234375 
Q 47.125 39.59375 43.09375 43.984375 
Q 39.0625 48.390625 32.421875 48.390625 
Q 24.90625 48.390625 20.390625 44.140625 
Q 15.875 39.890625 15.1875 32.171875 
z
" id="DejaVuSans-65"/>
     </defs>
     <g style="fill:#262626;" transform="translate(167.895198 106.032812)scale(0.1 -0.1)">
      <use xlink:href="#DejaVuSans-6c"/>
      <use x="27.783203" xlink:href="#DejaVuSans-75"/>
      <use x="91.162109" xlink:href="#DejaVuSans-6d"/>
      <use x="188.574219" xlink:href="#DejaVuSans-2d"/>
      <use x="224.658203" xlink:href="#DejaVuSans-70"/>
      <use x="288.134766" xlink:href="#DejaVuSans-72"/>
      <use x="329.216797" xlink:href="#DejaVuSans-65"/>
      <use x="390.740234" xlink:href="#DejaVuSans-64"/>
     </g>
    </g>
   </g>
  </g>
  <g id="axes_2">
   <g id="patch_7">
    <path d="M 225.482927 184.8 
L 388.8 184.8 
L 388.8 50.4 
L 225.482927 50.4 
z
" style="fill:#ffffff;"/>
   </g>
   <g id="matplotlib.axis_3">
    <g id="xtick_4">
     <g id="line2d_21">
      <g>
       <use style="fill:#262626;stroke:#262626;" x="232.90643" xlink:href="#m2ba24d24f7" y="184.8"/>
      </g>
     </g>
    </g>
    <g id="xtick_5">
     <g id="line2d_22">
      <g>
       <use style="fill:#262626;stroke:#262626;" x="296.085182" xlink:href="#m2ba24d24f7" y="184.8"/>
      </g>
     </g>
    </g>
    <g id="xtick_6">
     <g id="line2d_23">
      <g>
       <use style="fill:#262626;stroke:#262626;" x="359.263934" xlink:href="#m2ba24d24f7" y="184.8"/>
      </g>
     </g>
    </g>
   </g>
   <g id="matplotlib.axis_4">
    <g id="ytick_6">
     <g id="line2d_24">
      <g>
       <use style="fill:#262626;stroke:#262626;" x="225.482927" xlink:href="#mf54fde6c64" y="178.690909"/>
      </g>
     </g>
    </g>
    <g id="ytick_7">
     <g id="line2d_25">
      <g>
       <use style="fill:#262626;stroke:#262626;" x="225.482927" xlink:href="#mf54fde6c64" y="148.145455"/>
      </g>
     </g>
    </g>
    <g id="ytick_8">
     <g id="line2d_26">
      <g>
       <use style="fill:#262626;stroke:#262626;" x="225.482927" xlink:href="#mf54fde6c64" y="117.6"/>
      </g>
     </g>
    </g>
    <g id="ytick_9">
     <g id="line2d_27">
      <g>
       <use style="fill:#262626;stroke:#262626;" x="225.482927" xlink:href="#mf54fde6c64" y="87.054545"/>
      </g>
     </g>
    </g>
    <g id="ytick_10">
     <g id="line2d_28">
      <g>
       <use style="fill:#262626;stroke:#262626;" x="225.482927" xlink:href="#mf54fde6c64" y="56.509091"/>
      </g>
     </g>
    </g>
   </g>
   <g id="line2d_29">
    <path clip-path="url(#pc13fe45cd0)" d="M 232.90643 178.690909 
L 236.065368 178.690909 
L 239.224305 122.167683 
L 242.383243 178.690909 
L 245.54218 178.690909 
L 248.701118 178.690909 
L 251.860056 136.273571 
L 255.018993 166.702553 
L 258.177931 99.555939 
L 261.336868 112.188129 
L 264.495806 56.509091 
L 267.654744 99.290723 
L 270.813681 82.787416 
L 273.972619 74.173008 
L 277.131556 109.179731 
L 280.290494 117.372128 
L 283.449432 172.764208 
L 286.608369 146.010662 
L 289.767307 159.600992 
L 292.926244 146.8814 
L 296.085182 151.768527 
L 299.244119 157.245818 
L 302.403057 147.866072 
L 305.561995 169.544492 
L 308.720932 176.069598 
L 311.87987 174.430118 
L 315.038807 164.642215 
L 318.197745 166.282042 
L 321.356683 169.975018 
L 324.51562 178.690909 
L 327.674558 178.690909 
L 330.833495 178.625406 
L 333.992433 167.21774 
L 337.15137 167.349606 
L 340.310308 165.816108 
L 343.469246 170.368691 
L 346.628183 166.348352 
L 349.787121 172.291436 
L 352.946058 169.054125 
L 356.104996 177.64804 
L 359.263934 167.226764 
L 362.422871 172.858729 
L 365.581809 168.332448 
L 368.740746 178.630998 
L 371.899684 178.416118 
L 375.058622 178.690909 
L 378.217559 178.511961 
L 381.376497 158.961914 
" style="fill:none;opacity:0.4;stroke:#000000;stroke-linecap:round;stroke-width:2;"/>
   </g>
   <g id="line2d_30">
    <path clip-path="url(#pc13fe45cd0)" d="M 232.90643 178.690909 
L 236.065368 178.690909 
L 239.224305 178.690909 
L 242.383243 108.146218 
L 245.54218 56.509091 
L 248.701118 120.905722 
L 251.860056 60.381584 
L 255.018993 110.146961 
L 258.177931 158.220351 
L 261.336868 150.757841 
L 264.495806 140.710151 
L 267.654744 64.324062 
L 270.813681 69.244206 
L 273.972619 75.753248 
L 277.131556 108.313614 
L 280.290494 116.434298 
L 283.449432 122.958773 
L 286.608369 166.249992 
L 289.767307 154.613156 
L 292.926244 150.473033 
L 296.085182 163.271142 
L 299.244119 148.479842 
L 302.403057 152.651221 
L 305.561995 160.027336 
L 308.720932 177.423107 
L 311.87987 167.729158 
L 315.038807 161.303133 
L 318.197745 175.46969 
L 321.356683 177.820892 
L 324.51562 178.010501 
L 327.674558 174.725806 
L 330.833495 145.623085 
L 333.992433 168.844969 
L 337.15137 175.155138 
L 340.310308 178.245038 
L 343.469246 178.081364 
L 346.628183 178.280355 
L 349.787121 177.989219 
L 352.946058 167.279323 
L 356.104996 150.026013 
L 359.263934 161.620289 
L 362.422871 178.012738 
L 365.581809 172.948038 
L 368.740746 170.750325 
L 371.899684 171.796005 
L 375.058622 169.720428 
L 378.217559 160.475262 
L 381.376497 168.762831 
" style="fill:none;opacity:0.4;stroke:#008000;stroke-linecap:round;stroke-width:2;"/>
   </g>
   <g id="line2d_31">
    <path clip-path="url(#pc13fe45cd0)" d="M 232.90643 178.690909 
L 236.065368 178.690909 
L 239.224305 164.462779 
L 242.383243 175.264463 
L 245.54218 178.690909 
L 248.701118 177.962936 
L 251.860056 167.252025 
L 255.018993 154.380476 
L 258.177931 90.251974 
L 261.336868 107.405497 
L 264.495806 66.973259 
L 267.654744 56.509091 
L 270.813681 81.034627 
L 273.972619 80.411031 
L 277.131556 102.007884 
L 280.290494 99.736051 
L 283.449432 127.265779 
L 286.608369 158.50119 
L 289.767307 157.060547 
L 292.926244 173.62162 
L 296.085182 172.11567 
L 299.244119 156.947827 
L 302.403057 155.170009 
L 305.561995 160.517405 
L 308.720932 176.617175 
L 311.87987 176.619877 
L 315.038807 173.3336 
L 318.197745 171.312087 
L 321.356683 171.538951 
L 324.51562 173.72972 
L 327.674558 176.079454 
L 330.833495 174.457343 
L 333.992433 169.874982 
L 337.15137 170.001913 
L 340.310308 170.150969 
L 343.469246 176.855803 
L 346.628183 175.747882 
L 349.787121 175.885357 
L 352.946058 167.019344 
L 356.104996 175.36376 
L 359.263934 174.167158 
L 362.422871 165.712603 
L 365.581809 158.755415 
L 368.740746 176.129874 
L 371.899684 174.587658 
L 375.058622 174.9981 
L 378.217559 174.576858 
L 381.376497 170.863295 
" style="fill:none;opacity:0.9;stroke:#ffa500;stroke-linecap:round;stroke-width:2;"/>
   </g>
   <g id="line2d_32">
    <path clip-path="url(#pc13fe45cd0)" d="M 232.90643 56.509091 
L 236.065368 56.509091 
L 239.224305 156.615753 
L 242.383243 169.895673 
L 245.54218 90.410663 
L 248.701118 175.430027 
L 251.860056 163.176598 
L 255.018993 151.796369 
L 258.177931 125.346278 
L 261.336868 130.309231 
L 264.495806 85.247958 
L 267.654744 87.292181 
L 270.813681 104.361721 
L 273.972619 109.977717 
L 277.131556 113.607501 
L 280.290494 119.341212 
L 283.449432 140.576582 
L 286.608369 158.295196 
L 289.767307 158.66333 
L 292.926244 169.465717 
L 296.085182 170.067014 
L 299.244119 159.196937 
L 302.403057 160.606814 
L 305.561995 163.819205 
L 308.720932 175.813511 
L 311.87987 175.128894 
L 315.038807 173.141836 
L 318.197745 172.174656 
L 321.356683 173.763637 
L 324.51562 174.240774 
L 327.674558 175.641569 
L 330.833495 173.902658 
L 333.992433 171.918457 
L 337.15137 172.540687 
L 340.310308 172.721434 
L 343.469246 176.491261 
L 346.628183 175.875877 
L 349.787121 175.604465 
L 352.946058 170.128556 
L 356.104996 175.095614 
L 359.263934 174.274036 
L 362.422871 168.617428 
L 365.581809 167.951837 
L 368.740746 176.140274 
L 371.899684 174.71414 
L 375.058622 174.570321 
L 378.217559 175.02424 
L 381.376497 172.827332 
" style="fill:none;stroke:#ffa500;stroke-dasharray:8.4,3.6;stroke-dashoffset:0;stroke-width:3;"/>
   </g>
   <g id="patch_8">
    <path d="M 225.482927 184.8 
L 225.482927 50.4 
" style="fill:none;stroke:#262626;stroke-linecap:square;stroke-linejoin:miter;stroke-width:1.25;"/>
   </g>
   <g id="patch_9">
    <path d="M 388.8 184.8 
L 388.8 50.4 
" style="fill:none;stroke:#262626;stroke-linecap:square;stroke-linejoin:miter;stroke-width:1.25;"/>
   </g>
   <g id="patch_10">
    <path d="M 225.482927 184.8 
L 388.8 184.8 
" style="fill:none;stroke:#262626;stroke-linecap:square;stroke-linejoin:miter;stroke-width:1.25;"/>
   </g>
   <g id="patch_11">
    <path d="M 225.482927 50.4 
L 388.8 50.4 
" style="fill:none;stroke:#262626;stroke-linecap:square;stroke-linejoin:miter;stroke-width:1.25;"/>
   </g>
   <g id="text_12">
    <!-- barcelona -->
    <defs>
     <path d="M 48.78125 52.59375 
L 48.78125 44.1875 
Q 44.96875 46.296875 41.140625 47.34375 
Q 37.3125 48.390625 33.40625 48.390625 
Q 24.65625 48.390625 19.8125 42.84375 
Q 14.984375 37.3125 14.984375 27.296875 
Q 14.984375 17.28125 19.8125 11.734375 
Q 24.65625 6.203125 33.40625 6.203125 
Q 37.3125 6.203125 41.140625 7.25 
Q 44.96875 8.296875 48.78125 10.40625 
L 48.78125 2.09375 
Q 45.015625 0.34375 40.984375 -0.53125 
Q 36.96875 -1.421875 32.421875 -1.421875 
Q 20.0625 -1.421875 12.78125 6.34375 
Q 5.515625 14.109375 5.515625 27.296875 
Q 5.515625 40.671875 12.859375 48.328125 
Q 20.21875 56 33.015625 56 
Q 37.15625 56 41.109375 55.140625 
Q 45.0625 54.296875 48.78125 52.59375 
" id="DejaVuSans-63"/>
     <path d="M 54.890625 33.015625 
L 54.890625 0 
L 45.90625 0 
L 45.90625 32.71875 
Q 45.90625 40.484375 42.875 44.328125 
Q 39.84375 48.1875 33.796875 48.1875 
Q 26.515625 48.1875 22.3125 43.546875 
Q 18.109375 38.921875 18.109375 30.90625 
L 18.109375 0 
L 9.078125 0 
L 9.078125 54.6875 
L 18.109375 54.6875 
L 18.109375 46.1875 
Q 21.34375 51.125 25.703125 53.5625 
Q 30.078125 56 35.796875 56 
Q 45.21875 56 50.046875 50.171875 
Q 54.890625 44.34375 54.890625 33.015625 
" id="DejaVuSans-6e"/>
    </defs>
    <g style="fill:#262626;" transform="translate(268.454682 44.4)scale(0.156 -0.156)">
     <use xlink:href="#DejaVuSans-62"/>
     <use x="63.476562" xlink:href="#DejaVuSans-61"/>
     <use x="124.755859" xlink:href="#DejaVuSans-72"/>
     <use x="165.837891" xlink:href="#DejaVuSans-63"/>
     <use x="220.818359" xlink:href="#DejaVuSans-65"/>
     <use x="282.341797" xlink:href="#DejaVuSans-6c"/>
     <use x="310.125" xlink:href="#DejaVuSans-6f"/>
     <use x="371.306641" xlink:href="#DejaVuSans-6e"/>
     <use x="434.685547" xlink:href="#DejaVuSans-61"/>
    </g>
   </g>
  </g>
  <g id="axes_3">
   <g id="patch_12">
    <path d="M 54 352.8 
L 217.317073 352.8 
L 217.317073 218.4 
L 54 218.4 
z
" style="fill:#ffffff;"/>
   </g>
   <g id="matplotlib.axis_5">
    <g id="xtick_7">
     <g id="line2d_33">
      <g>
       <use style="fill:#262626;stroke:#262626;" x="61.423503" xlink:href="#m2ba24d24f7" y="352.8"/>
      </g>
     </g>
     <g id="text_13">
      <!-- 0 -->
      <g style="fill:#262626;" transform="translate(57.287878 375.677969)scale(0.13 -0.13)">
       <use xlink:href="#DejaVuSans-30"/>
      </g>
     </g>
    </g>
    <g id="xtick_8">
     <g id="line2d_34">
      <g>
       <use style="fill:#262626;stroke:#262626;" x="124.602255" xlink:href="#m2ba24d24f7" y="352.8"/>
      </g>
     </g>
     <g id="text_14">
      <!-- 20 -->
      <g style="fill:#262626;" transform="translate(116.331005 375.677969)scale(0.13 -0.13)">
       <use xlink:href="#DejaVuSans-32"/>
       <use x="63.623047" xlink:href="#DejaVuSans-30"/>
      </g>
     </g>
    </g>
    <g id="xtick_9">
     <g id="line2d_35">
      <g>
       <use style="fill:#262626;stroke:#262626;" x="187.781007" xlink:href="#m2ba24d24f7" y="352.8"/>
      </g>
     </g>
     <g id="text_15">
      <!-- 40 -->
      <defs>
       <path d="M 37.796875 64.3125 
L 12.890625 25.390625 
L 37.796875 25.390625 
z
M 35.203125 72.90625 
L 47.609375 72.90625 
L 47.609375 25.390625 
L 58.015625 25.390625 
L 58.015625 17.1875 
L 47.609375 17.1875 
L 47.609375 0 
L 37.796875 0 
L 37.796875 17.1875 
L 4.890625 17.1875 
L 4.890625 26.703125 
z
" id="DejaVuSans-34"/>
      </defs>
      <g style="fill:#262626;" transform="translate(179.509757 375.677969)scale(0.13 -0.13)">
       <use xlink:href="#DejaVuSans-34"/>
       <use x="63.623047" xlink:href="#DejaVuSans-30"/>
      </g>
     </g>
    </g>
    <g id="text_16">
     <!-- $d \ [km]$ -->
     <defs>
      <path d="M 8.59375 75.984375 
L 29.296875 75.984375 
L 29.296875 69 
L 17.578125 69 
L 17.578125 -6.203125 
L 29.296875 -6.203125 
L 29.296875 -13.1875 
L 8.59375 -13.1875 
z
" id="DejaVuSans-5b"/>
      <path d="M 18.3125 75.984375 
L 27.296875 75.984375 
L 18.703125 31.6875 
L 49.515625 54.6875 
L 61.1875 54.6875 
L 26.8125 28.515625 
L 51.90625 0 
L 41.015625 0 
L 17.671875 26.703125 
L 12.5 0 
L 3.515625 0 
z
" id="DejaVuSans-Oblique-6b"/>
      <path d="M 89.796875 33.015625 
L 83.40625 0 
L 74.421875 0 
L 80.71875 32.71875 
Q 81.109375 34.8125 81.296875 36.328125 
Q 81.5 37.84375 81.5 38.921875 
Q 81.5 43.3125 79.046875 45.75 
Q 76.609375 48.1875 72.21875 48.1875 
Q 65.671875 48.1875 60.546875 43.28125 
Q 55.421875 38.375 53.90625 30.515625 
L 47.90625 0 
L 38.921875 0 
L 45.3125 32.71875 
Q 45.703125 34.515625 45.890625 36.046875 
Q 46.09375 37.59375 46.09375 38.8125 
Q 46.09375 43.265625 43.65625 45.71875 
Q 41.21875 48.1875 36.921875 48.1875 
Q 30.28125 48.1875 25.140625 43.28125 
Q 20.015625 38.375 18.5 30.515625 
L 12.5 0 
L 3.515625 0 
L 14.203125 54.6875 
L 23.1875 54.6875 
L 21.484375 46.1875 
Q 25.140625 50.984375 30.046875 53.484375 
Q 34.96875 56 40.578125 56 
Q 46.53125 56 50.359375 52.875 
Q 54.203125 49.75 54.984375 44.1875 
Q 59.078125 49.953125 64.46875 52.96875 
Q 69.875 56 75.875 56 
Q 82.90625 56 86.734375 51.953125 
Q 90.578125 47.90625 90.578125 40.484375 
Q 90.578125 38.875 90.375 36.9375 
Q 90.1875 35.015625 89.796875 33.015625 
" id="DejaVuSans-Oblique-6d"/>
      <path d="M 30.421875 75.984375 
L 30.421875 -13.1875 
L 9.71875 -13.1875 
L 9.71875 -6.203125 
L 21.390625 -6.203125 
L 21.390625 69 
L 9.71875 69 
L 9.71875 75.984375 
z
" id="DejaVuSans-5d"/>
     </defs>
     <g style="fill:#262626;" transform="translate(112.063537 393.247328)scale(0.143 -0.143)">
      <use transform="translate(0 0.015625)" xlink:href="#DejaVuSans-Oblique-64"/>
      <use transform="translate(95.946941 0.015625)" xlink:href="#DejaVuSans-5b"/>
      <use transform="translate(134.960613 0.015625)" xlink:href="#DejaVuSans-Oblique-6b"/>
      <use transform="translate(192.870769 0.015625)" xlink:href="#DejaVuSans-Oblique-6d"/>
      <use transform="translate(290.282878 0.015625)" xlink:href="#DejaVuSans-5d"/>
     </g>
    </g>
   </g>
   <g id="matplotlib.axis_6">
    <g id="ytick_11">
     <g id="line2d_36">
      <g>
       <use style="fill:#262626;stroke:#262626;" x="54" xlink:href="#mf54fde6c64" y="346.690909"/>
      </g>
     </g>
     <g id="text_17">
      <!-- 0.00 -->
      <g style="fill:#262626;" transform="translate(12.054688 351.629893)scale(0.13 -0.13)">
       <use xlink:href="#DejaVuSans-30"/>
       <use x="63.623047" xlink:href="#DejaVuSans-2e"/>
       <use x="95.410156" xlink:href="#DejaVuSans-30"/>
       <use x="159.033203" xlink:href="#DejaVuSans-30"/>
      </g>
     </g>
    </g>
    <g id="ytick_12">
     <g id="line2d_37">
      <g>
       <use style="fill:#262626;stroke:#262626;" x="54" xlink:href="#mf54fde6c64" y="316.145455"/>
      </g>
     </g>
     <g id="text_18">
      <!-- 0.25 -->
      <g style="fill:#262626;" transform="translate(12.054688 321.084439)scale(0.13 -0.13)">
       <use xlink:href="#DejaVuSans-30"/>
       <use x="63.623047" xlink:href="#DejaVuSans-2e"/>
       <use x="95.410156" xlink:href="#DejaVuSans-32"/>
       <use x="159.033203" xlink:href="#DejaVuSans-35"/>
      </g>
     </g>
    </g>
    <g id="ytick_13">
     <g id="line2d_38">
      <g>
       <use style="fill:#262626;stroke:#262626;" x="54" xlink:href="#mf54fde6c64" y="285.6"/>
      </g>
     </g>
     <g id="text_19">
      <!-- 0.50 -->
      <g style="fill:#262626;" transform="translate(12.054688 290.538984)scale(0.13 -0.13)">
       <use xlink:href="#DejaVuSans-30"/>
       <use x="63.623047" xlink:href="#DejaVuSans-2e"/>
       <use x="95.410156" xlink:href="#DejaVuSans-35"/>
       <use x="159.033203" xlink:href="#DejaVuSans-30"/>
      </g>
     </g>
    </g>
    <g id="ytick_14">
     <g id="line2d_39">
      <g>
       <use style="fill:#262626;stroke:#262626;" x="54" xlink:href="#mf54fde6c64" y="255.054545"/>
      </g>
     </g>
     <g id="text_20">
      <!-- 0.75 -->
      <g style="fill:#262626;" transform="translate(12.054688 259.99353)scale(0.13 -0.13)">
       <use xlink:href="#DejaVuSans-30"/>
       <use x="63.623047" xlink:href="#DejaVuSans-2e"/>
       <use x="95.410156" xlink:href="#DejaVuSans-37"/>
       <use x="159.033203" xlink:href="#DejaVuSans-35"/>
      </g>
     </g>
    </g>
    <g id="ytick_15">
     <g id="line2d_40">
      <g>
       <use style="fill:#262626;stroke:#262626;" x="54" xlink:href="#mf54fde6c64" y="224.509091"/>
      </g>
     </g>
     <g id="text_21">
      <!-- 1.00 -->
      <g style="fill:#262626;" transform="translate(12.054688 229.448075)scale(0.13 -0.13)">
       <use xlink:href="#DejaVuSans-31"/>
       <use x="63.623047" xlink:href="#DejaVuSans-2e"/>
       <use x="95.410156" xlink:href="#DejaVuSans-30"/>
       <use x="159.033203" xlink:href="#DejaVuSans-30"/>
      </g>
     </g>
    </g>
    <g id="text_22">
     <!-- $\hat x_{\cdot}(d)$ -->
     <g style="fill:#262626;" transform="translate(5.080734 302.1165)rotate(-90)scale(0.143 -0.143)">
      <use transform="translate(64.226562 12.015625)" xlink:href="#DejaVuSans-302"/>
      <use transform="translate(0 0.828125)" xlink:href="#DejaVuSans-Oblique-78"/>
      <use transform="translate(63.550781 -15.578125)scale(0.7)" xlink:href="#DejaVuSans-22c5"/>
      <use transform="translate(88.536133 0.828125)" xlink:href="#DejaVuSans-28"/>
      <use transform="translate(127.549805 0.828125)" xlink:href="#DejaVuSans-Oblique-64"/>
      <use transform="translate(191.026367 0.828125)" xlink:href="#DejaVuSans-29"/>
     </g>
    </g>
   </g>
   <g id="line2d_41">
    <path clip-path="url(#p3ca4f48dd7)" d="M 61.423503 346.690909 
L 64.582441 346.690909 
L 67.741378 346.690909 
L 70.900316 346.690909 
L 74.059254 326.327273 
L 77.218191 278.783271 
L 80.377129 224.509091 
L 83.536066 248.745597 
L 86.695004 230.939713 
L 89.853942 239.397925 
L 93.012879 244.018359 
L 96.171817 292.641016 
L 99.330754 280.74558 
L 102.489692 274.50522 
L 105.64863 296.79132 
L 108.807567 303.900608 
L 111.966505 300.529687 
L 115.125442 315.495551 
L 118.28438 281.120015 
L 121.443317 238.869631 
L 124.602255 245.995509 
L 127.761193 268.36653 
L 130.92013 300.998997 
L 134.079068 291.892506 
L 137.238005 303.562698 
L 140.396943 310.303403 
L 143.555881 307.711676 
L 146.714818 316.48972 
L 149.873756 334.152387 
L 153.032693 331.962571 
L 156.191631 322.867929 
L 159.350568 327.244247 
L 162.509506 322.848457 
L 165.668444 331.028554 
L 168.827381 331.905678 
L 171.986319 335.250677 
L 175.145256 330.938473 
L 178.304194 326.670182 
L 181.463132 339.03214 
L 184.622069 344.427845 
L 187.781007 344.40391 
L 190.939944 340.686448 
L 194.098882 344.537063 
L 197.25782 339.190983 
L 200.416757 344.612446 
L 203.575695 346.690909 
L 206.734632 345.224727 
L 209.89357 346.006737 
" style="fill:none;opacity:0.4;stroke:#000000;stroke-linecap:round;stroke-width:2;"/>
   </g>
   <g id="line2d_42">
    <path clip-path="url(#p3ca4f48dd7)" d="M 61.423503 346.690909 
L 64.582441 346.690909 
L 67.741378 346.690909 
L 70.900316 346.458899 
L 74.059254 332.496424 
L 77.218191 294.8743 
L 80.377129 252.590414 
L 83.536066 241.056103 
L 86.695004 235.832798 
L 89.853942 224.509091 
L 93.012879 259.334164 
L 96.171817 290.88706 
L 99.330754 291.131605 
L 102.489692 292.480381 
L 105.64863 301.507305 
L 108.807567 299.32741 
L 111.966505 308.81225 
L 115.125442 304.791476 
L 118.28438 298.24769 
L 121.443317 293.803925 
L 124.602255 302.161727 
L 127.761193 315.301844 
L 130.92013 325.539085 
L 134.079068 313.605071 
L 137.238005 323.817975 
L 140.396943 326.047768 
L 143.555881 327.409949 
L 146.714818 333.948499 
L 149.873756 341.330401 
L 153.032693 342.317901 
L 156.191631 340.940893 
L 159.350568 336.968513 
L 162.509506 333.648129 
L 165.668444 339.807502 
L 168.827381 341.960085 
L 171.986319 343.436653 
L 175.145256 342.680809 
L 178.304194 343.482309 
L 181.463132 346.009683 
L 184.622069 346.104949 
L 187.781007 345.444477 
L 190.939944 343.853057 
L 194.098882 345.185921 
L 197.25782 345.178994 
L 200.416757 345.918973 
L 203.575695 346.145126 
L 206.734632 345.842913 
L 209.89357 345.868084 
" style="fill:none;opacity:0.4;stroke:#008000;stroke-linecap:round;stroke-width:2;"/>
   </g>
   <g id="line2d_43">
    <path clip-path="url(#p3ca4f48dd7)" d="M 61.423503 346.690909 
L 64.582441 346.690909 
L 67.741378 342.356324 
L 70.900316 341.256486 
L 74.059254 327.291702 
L 77.218191 295.829207 
L 80.377129 248.921121 
L 83.536066 224.509091 
L 86.695004 226.838273 
L 89.853942 252.601567 
L 93.012879 243.699924 
L 96.171817 267.485768 
L 99.330754 279.785254 
L 102.489692 270.593686 
L 105.64863 287.889348 
L 108.807567 300.587514 
L 111.966505 300.964846 
L 115.125442 307.298043 
L 118.28438 294.155899 
L 121.443317 287.050785 
L 124.602255 273.933177 
L 127.761193 286.698101 
L 130.92013 307.641189 
L 134.079068 312.943566 
L 137.238005 311.421934 
L 140.396943 313.304304 
L 143.555881 313.216988 
L 146.714818 318.396371 
L 149.873756 325.960417 
L 153.032693 324.64026 
L 156.191631 325.447596 
L 159.350568 328.040117 
L 162.509506 330.455659 
L 165.668444 335.67003 
L 168.827381 335.36199 
L 171.986319 338.016091 
L 175.145256 339.34083 
L 178.304194 337.46447 
L 181.463132 340.667265 
L 184.622069 342.849057 
L 187.781007 343.971032 
L 190.939944 344.764719 
L 194.098882 344.934185 
L 197.25782 344.891362 
L 200.416757 344.508307 
L 203.575695 345.638616 
L 206.734632 345.592749 
L 209.89357 345.461715 
" style="fill:none;opacity:0.9;stroke:#ffa500;stroke-linecap:round;stroke-width:2;"/>
   </g>
   <g id="line2d_44">
    <path clip-path="url(#p3ca4f48dd7)" d="M 61.423503 224.509091 
L 64.582441 224.509091 
L 67.741378 335.354024 
L 70.900316 337.704015 
L 74.059254 327.077228 
L 77.218191 288.772762 
L 80.377129 249.284796 
L 83.536066 232.412261 
L 86.695004 236.984191 
L 89.853942 249.922792 
L 93.012879 248.810276 
L 96.171817 272.14904 
L 99.330754 279.882657 
L 102.489692 279.630952 
L 105.64863 290.803355 
L 108.807567 295.097865 
L 111.966505 297.132392 
L 115.125442 309.683025 
L 118.28438 294.16784 
L 121.443317 286.263926 
L 124.602255 282.668017 
L 127.761193 288.796924 
L 130.92013 305.830959 
L 134.079068 312.112047 
L 137.238005 315.341343 
L 140.396943 318.116437 
L 143.555881 316.687957 
L 146.714818 324.016844 
L 149.873756 328.901575 
L 153.032693 329.257081 
L 156.191631 329.24794 
L 159.350568 331.285514 
L 162.509506 332.677816 
L 165.668444 336.13319 
L 168.827381 336.813211 
L 171.986319 338.145378 
L 175.145256 339.443078 
L 178.304194 338.679242 
L 181.463132 341.543448 
L 184.622069 343.172412 
L 187.781007 343.57313 
L 190.939944 344.360921 
L 194.098882 344.593135 
L 197.25782 344.501457 
L 200.416757 344.29248 
L 203.575695 345.563497 
L 206.734632 345.428706 
L 209.89357 345.531555 
" style="fill:none;stroke:#ffa500;stroke-dasharray:8.4,3.6;stroke-dashoffset:0;stroke-width:3;"/>
   </g>
   <g id="patch_13">
    <path d="M 54 352.8 
L 54 218.4 
" style="fill:none;stroke:#262626;stroke-linecap:square;stroke-linejoin:miter;stroke-width:1.25;"/>
   </g>
   <g id="patch_14">
    <path d="M 217.317073 352.8 
L 217.317073 218.4 
" style="fill:none;stroke:#262626;stroke-linecap:square;stroke-linejoin:miter;stroke-width:1.25;"/>
   </g>
   <g id="patch_15">
    <path d="M 54 352.8 
L 217.317073 352.8 
" style="fill:none;stroke:#262626;stroke-linecap:square;stroke-linejoin:miter;stroke-width:1.25;"/>
   </g>
   <g id="patch_16">
    <path d="M 54 218.4 
L 217.317073 218.4 
" style="fill:none;stroke:#262626;stroke-linecap:square;stroke-linejoin:miter;stroke-width:1.25;"/>
   </g>
   <g id="text_23">
    <!-- rio de janeiro -->
    <defs>
     <path id="DejaVuSans-20"/>
     <path d="M 9.421875 54.6875 
L 18.40625 54.6875 
L 18.40625 -0.984375 
Q 18.40625 -11.421875 14.421875 -16.109375 
Q 10.453125 -20.796875 1.609375 -20.796875 
L -1.8125 -20.796875 
L -1.8125 -13.1875 
L 0.59375 -13.1875 
Q 5.71875 -13.1875 7.5625 -10.8125 
Q 9.421875 -8.453125 9.421875 -0.984375 
z
M 9.421875 75.984375 
L 18.40625 75.984375 
L 18.40625 64.59375 
L 9.421875 64.59375 
z
" id="DejaVuSans-6a"/>
    </defs>
    <g style="fill:#262626;" transform="translate(83.97013 212.4)scale(0.156 -0.156)">
     <use xlink:href="#DejaVuSans-72"/>
     <use x="41.113281" xlink:href="#DejaVuSans-69"/>
     <use x="68.896484" xlink:href="#DejaVuSans-6f"/>
     <use x="130.078125" xlink:href="#DejaVuSans-20"/>
     <use x="161.865234" xlink:href="#DejaVuSans-64"/>
     <use x="225.341797" xlink:href="#DejaVuSans-65"/>
     <use x="286.865234" xlink:href="#DejaVuSans-20"/>
     <use x="318.652344" xlink:href="#DejaVuSans-6a"/>
     <use x="346.435547" xlink:href="#DejaVuSans-61"/>
     <use x="407.714844" xlink:href="#DejaVuSans-6e"/>
     <use x="471.09375" xlink:href="#DejaVuSans-65"/>
     <use x="532.617188" xlink:href="#DejaVuSans-69"/>
     <use x="560.400391" xlink:href="#DejaVuSans-72"/>
     <use x="601.482422" xlink:href="#DejaVuSans-6f"/>
    </g>
   </g>
  </g>
  <g id="axes_4">
   <g id="patch_17">
    <path d="M 225.482927 352.8 
L 388.8 352.8 
L 388.8 218.4 
L 225.482927 218.4 
z
" style="fill:#ffffff;"/>
   </g>
   <g id="matplotlib.axis_7">
    <g id="xtick_10">
     <g id="line2d_45">
      <g>
       <use style="fill:#262626;stroke:#262626;" x="232.90643" xlink:href="#m2ba24d24f7" y="352.8"/>
      </g>
     </g>
     <g id="text_24">
      <!-- 0 -->
      <g style="fill:#262626;" transform="translate(228.770805 375.677969)scale(0.13 -0.13)">
       <use xlink:href="#DejaVuSans-30"/>
      </g>
     </g>
    </g>
    <g id="xtick_11">
     <g id="line2d_46">
      <g>
       <use style="fill:#262626;stroke:#262626;" x="296.085182" xlink:href="#m2ba24d24f7" y="352.8"/>
      </g>
     </g>
     <g id="text_25">
      <!-- 20 -->
      <g style="fill:#262626;" transform="translate(287.813932 375.677969)scale(0.13 -0.13)">
       <use xlink:href="#DejaVuSans-32"/>
       <use x="63.623047" xlink:href="#DejaVuSans-30"/>
      </g>
     </g>
    </g>
    <g id="xtick_12">
     <g id="line2d_47">
      <g>
       <use style="fill:#262626;stroke:#262626;" x="359.263934" xlink:href="#m2ba24d24f7" y="352.8"/>
      </g>
     </g>
     <g id="text_26">
      <!-- 40 -->
      <g style="fill:#262626;" transform="translate(350.992684 375.677969)scale(0.13 -0.13)">
       <use xlink:href="#DejaVuSans-34"/>
       <use x="63.623047" xlink:href="#DejaVuSans-30"/>
      </g>
     </g>
    </g>
    <g id="text_27">
     <!-- $d \ [km]$ -->
     <g style="fill:#262626;" transform="translate(283.546463 393.247328)scale(0.143 -0.143)">
      <use transform="translate(0 0.015625)" xlink:href="#DejaVuSans-Oblique-64"/>
      <use transform="translate(95.946941 0.015625)" xlink:href="#DejaVuSans-5b"/>
      <use transform="translate(134.960613 0.015625)" xlink:href="#DejaVuSans-Oblique-6b"/>
      <use transform="translate(192.870769 0.015625)" xlink:href="#DejaVuSans-Oblique-6d"/>
      <use transform="translate(290.282878 0.015625)" xlink:href="#DejaVuSans-5d"/>
     </g>
    </g>
   </g>
   <g id="matplotlib.axis_8">
    <g id="ytick_16">
     <g id="line2d_48">
      <g>
       <use style="fill:#262626;stroke:#262626;" x="225.482927" xlink:href="#mf54fde6c64" y="346.690909"/>
      </g>
     </g>
    </g>
    <g id="ytick_17">
     <g id="line2d_49">
      <g>
       <use style="fill:#262626;stroke:#262626;" x="225.482927" xlink:href="#mf54fde6c64" y="316.145455"/>
      </g>
     </g>
    </g>
    <g id="ytick_18">
     <g id="line2d_50">
      <g>
       <use style="fill:#262626;stroke:#262626;" x="225.482927" xlink:href="#mf54fde6c64" y="285.6"/>
      </g>
     </g>
    </g>
    <g id="ytick_19">
     <g id="line2d_51">
      <g>
       <use style="fill:#262626;stroke:#262626;" x="225.482927" xlink:href="#mf54fde6c64" y="255.054545"/>
      </g>
     </g>
    </g>
    <g id="ytick_20">
     <g id="line2d_52">
      <g>
       <use style="fill:#262626;stroke:#262626;" x="225.482927" xlink:href="#mf54fde6c64" y="224.509091"/>
      </g>
     </g>
    </g>
   </g>
   <g id="line2d_53">
    <path clip-path="url(#p524d4c5517)" d="M 232.90643 346.690909 
L 236.065368 346.690909 
L 239.224305 244.096971 
L 242.383243 225.578742 
L 245.54218 224.509091 
L 248.701118 250.18875 
L 251.860056 259.954392 
L 255.018993 296.456186 
L 258.177931 346.690909 
L 261.336868 346.690909 
L 264.495806 346.690909 
L 267.654744 346.690909 
L 270.813681 329.430765 
L 273.972619 340.870255 
L 277.131556 328.062704 
L 280.290494 336.183908 
L 283.449432 324.885806 
L 286.608369 303.380116 
L 289.767307 303.098482 
L 292.926244 306.867677 
L 296.085182 334.274175 
L 299.244119 319.823692 
L 302.403057 314.746545 
L 305.561995 312.336151 
L 308.720932 328.446976 
L 311.87987 305.93403 
L 315.038807 324.804619 
L 318.197745 342.671763 
L 321.356683 325.045373 
L 324.51562 330.533565 
L 327.674558 333.748677 
L 330.833495 337.386036 
L 333.992433 340.403619 
L 337.15137 333.461996 
L 340.310308 341.361683 
L 343.469246 335.362205 
L 346.628183 340.5627 
L 349.787121 338.896885 
L 352.946058 334.928533 
L 356.104996 332.586092 
L 359.263934 332.692079 
L 362.422871 329.92485 
L 365.581809 340.382344 
L 368.740746 343.737339 
L 371.899684 346.690909 
L 375.058622 346.55959 
L 378.217559 345.162311 
L 381.376497 346.690909 
" style="fill:none;opacity:0.4;stroke:#000000;stroke-linecap:round;stroke-width:2;"/>
   </g>
   <g id="line2d_54">
    <path clip-path="url(#p524d4c5517)" d="M 232.90643 346.690909 
L 236.065368 346.690909 
L 239.224305 244.879464 
L 242.383243 224.509091 
L 245.54218 240.174705 
L 248.701118 282.280924 
L 251.860056 307.212379 
L 255.018993 331.213466 
L 258.177931 346.559155 
L 261.336868 346.690909 
L 264.495806 346.039881 
L 267.654744 344.678067 
L 270.813681 343.812648 
L 273.972619 343.403744 
L 277.131556 341.500633 
L 280.290494 343.246253 
L 283.449432 342.277693 
L 286.608369 338.186825 
L 289.767307 337.249521 
L 292.926244 338.333776 
L 296.085182 340.022621 
L 299.244119 340.792283 
L 302.403057 340.671187 
L 305.561995 336.424725 
L 308.720932 337.072172 
L 311.87987 337.538201 
L 315.038807 342.325761 
L 318.197745 342.301974 
L 321.356683 340.884616 
L 324.51562 340.251043 
L 327.674558 343.218594 
L 330.833495 344.772176 
L 333.992433 344.563984 
L 337.15137 345.035226 
L 340.310308 344.806293 
L 343.469246 344.398193 
L 346.628183 345.029149 
L 349.787121 344.93027 
L 352.946058 344.289647 
L 356.104996 344.316881 
L 359.263934 343.772808 
L 362.422871 344.356864 
L 365.581809 345.172865 
L 368.740746 346.542054 
L 371.899684 346.506972 
L 375.058622 346.616801 
L 378.217559 346.481497 
L 381.376497 346.620843 
" style="fill:none;opacity:0.4;stroke:#008000;stroke-linecap:round;stroke-width:2;"/>
   </g>
   <g id="line2d_55">
    <path clip-path="url(#p524d4c5517)" d="M 232.90643 346.690909 
L 236.065368 346.690909 
L 239.224305 258.598245 
L 242.383243 224.509091 
L 245.54218 233.971977 
L 248.701118 270.31179 
L 251.860056 290.328637 
L 255.018993 322.358912 
L 258.177931 342.813245 
L 261.336868 345.1169 
L 264.495806 342.274973 
L 267.654744 343.690905 
L 270.813681 341.976237 
L 273.972619 342.214006 
L 277.131556 336.353183 
L 280.290494 338.230818 
L 283.449432 340.74287 
L 286.608369 335.784085 
L 289.767307 335.224939 
L 292.926244 336.851579 
L 296.085182 333.01162 
L 299.244119 331.081223 
L 302.403057 324.540913 
L 305.561995 326.062828 
L 308.720932 329.415851 
L 311.87987 327.076619 
L 315.038807 339.658117 
L 318.197745 341.50299 
L 321.356683 337.345923 
L 324.51562 334.446373 
L 327.674558 340.264881 
L 330.833495 343.624896 
L 333.992433 343.719866 
L 337.15137 341.869714 
L 340.310308 342.59285 
L 343.469246 341.474635 
L 346.628183 342.511807 
L 349.787121 344.212405 
L 352.946058 342.603333 
L 356.104996 341.950287 
L 359.263934 342.234881 
L 362.422871 344.095435 
L 365.581809 344.105681 
L 368.740746 345.869508 
L 371.899684 346.229004 
L 375.058622 346.200341 
L 378.217559 346.255275 
L 381.376497 346.47977 
" style="fill:none;opacity:0.9;stroke:#ffa500;stroke-linecap:round;stroke-width:2;"/>
   </g>
   <g id="line2d_56">
    <path clip-path="url(#p524d4c5517)" d="M 232.90643 224.509091 
L 236.065368 224.509091 
L 239.224305 251.360547 
L 242.383243 229.4173 
L 245.54218 238.590829 
L 248.701118 266.51439 
L 251.860056 288.07599 
L 255.018993 319.0737 
L 258.177931 342.628558 
L 261.336868 341.701379 
L 264.495806 341.625604 
L 267.654744 341.30464 
L 270.813681 340.818376 
L 273.972619 340.917529 
L 277.131556 336.139547 
L 280.290494 337.433387 
L 283.449432 338.554671 
L 286.608369 332.166935 
L 289.767307 332.290915 
L 292.926244 333.480316 
L 296.085182 332.042982 
L 299.244119 330.742056 
L 302.403057 324.693788 
L 305.561995 327.127672 
L 308.720932 332.940587 
L 311.87987 327.880124 
L 315.038807 337.860772 
L 318.197745 341.039272 
L 321.356683 337.130072 
L 324.51562 335.364767 
L 327.674558 340.276878 
L 330.833495 342.717996 
L 333.992433 342.73909 
L 337.15137 341.210575 
L 340.310308 342.408485 
L 343.469246 341.403585 
L 346.628183 342.293594 
L 349.787121 343.26997 
L 352.946058 342.355852 
L 356.104996 341.81317 
L 359.263934 342.132787 
L 362.422871 343.261082 
L 365.581809 343.678275 
L 368.740746 345.505075 
L 371.899684 346.120959 
L 375.058622 346.069061 
L 378.217559 346.022191 
L 381.376497 346.296886 
" style="fill:none;stroke:#ffa500;stroke-dasharray:8.4,3.6;stroke-dashoffset:0;stroke-width:3;"/>
   </g>
   <g id="patch_18">
    <path d="M 225.482927 352.8 
L 225.482927 218.4 
" style="fill:none;stroke:#262626;stroke-linecap:square;stroke-linejoin:miter;stroke-width:1.25;"/>
   </g>
   <g id="patch_19">
    <path d="M 388.8 352.8 
L 388.8 218.4 
" style="fill:none;stroke:#262626;stroke-linecap:square;stroke-linejoin:miter;stroke-width:1.25;"/>
   </g>
   <g id="patch_20">
    <path d="M 225.482927 352.8 
L 388.8 352.8 
" style="fill:none;stroke:#262626;stroke-linecap:square;stroke-linejoin:miter;stroke-width:1.25;"/>
   </g>
   <g id="patch_21">
    <path d="M 225.482927 218.4 
L 388.8 218.4 
" style="fill:none;stroke:#262626;stroke-linecap:square;stroke-linejoin:miter;stroke-width:1.25;"/>
   </g>
   <g id="text_28">
    <!-- san francisco -->
    <defs>
     <path d="M 37.109375 75.984375 
L 37.109375 68.5 
L 28.515625 68.5 
Q 23.6875 68.5 21.796875 66.546875 
Q 19.921875 64.59375 19.921875 59.515625 
L 19.921875 54.6875 
L 34.71875 54.6875 
L 34.71875 47.703125 
L 19.921875 47.703125 
L 19.921875 0 
L 10.890625 0 
L 10.890625 47.703125 
L 2.296875 47.703125 
L 2.296875 54.6875 
L 10.890625 54.6875 
L 10.890625 58.5 
Q 10.890625 67.625 15.140625 71.796875 
Q 19.390625 75.984375 28.609375 75.984375 
z
" id="DejaVuSans-66"/>
    </defs>
    <g style="fill:#262626;" transform="translate(255.620026 212.4)scale(0.156 -0.156)">
     <use xlink:href="#DejaVuSans-73"/>
     <use x="52.099609" xlink:href="#DejaVuSans-61"/>
     <use x="113.378906" xlink:href="#DejaVuSans-6e"/>
     <use x="176.757812" xlink:href="#DejaVuSans-20"/>
     <use x="208.544922" xlink:href="#DejaVuSans-66"/>
     <use x="243.75" xlink:href="#DejaVuSans-72"/>
     <use x="284.863281" xlink:href="#DejaVuSans-61"/>
     <use x="346.142578" xlink:href="#DejaVuSans-6e"/>
     <use x="409.521484" xlink:href="#DejaVuSans-63"/>
     <use x="464.501953" xlink:href="#DejaVuSans-69"/>
     <use x="492.285156" xlink:href="#DejaVuSans-73"/>
     <use x="544.384766" xlink:href="#DejaVuSans-63"/>
     <use x="599.365234" xlink:href="#DejaVuSans-6f"/>
    </g>
   </g>
  </g>
  <g id="text_29">
   <!-- Benchmark luminosity profile -->
   <defs>
    <path d="M 19.671875 34.8125 
L 19.671875 8.109375 
L 35.5 8.109375 
Q 43.453125 8.109375 47.28125 11.40625 
Q 51.125 14.703125 51.125 21.484375 
Q 51.125 28.328125 47.28125 31.5625 
Q 43.453125 34.8125 35.5 34.8125 
z
M 19.671875 64.796875 
L 19.671875 42.828125 
L 34.28125 42.828125 
Q 41.5 42.828125 45.03125 45.53125 
Q 48.578125 48.25 48.578125 53.8125 
Q 48.578125 59.328125 45.03125 62.0625 
Q 41.5 64.796875 34.28125 64.796875 
z
M 9.8125 72.90625 
L 35.015625 72.90625 
Q 46.296875 72.90625 52.390625 68.21875 
Q 58.5 63.53125 58.5 54.890625 
Q 58.5 48.1875 55.375 44.234375 
Q 52.25 40.28125 46.1875 39.3125 
Q 53.46875 37.75 57.5 32.78125 
Q 61.53125 27.828125 61.53125 20.40625 
Q 61.53125 10.640625 54.890625 5.3125 
Q 48.25 0 35.984375 0 
L 9.8125 0 
z
" id="DejaVuSans-42"/>
    <path d="M 54.890625 33.015625 
L 54.890625 0 
L 45.90625 0 
L 45.90625 32.71875 
Q 45.90625 40.484375 42.875 44.328125 
Q 39.84375 48.1875 33.796875 48.1875 
Q 26.515625 48.1875 22.3125 43.546875 
Q 18.109375 38.921875 18.109375 30.90625 
L 18.109375 0 
L 9.078125 0 
L 9.078125 75.984375 
L 18.109375 75.984375 
L 18.109375 46.1875 
Q 21.34375 51.125 25.703125 53.5625 
Q 30.078125 56 35.796875 56 
Q 45.21875 56 50.046875 50.171875 
Q 54.890625 44.34375 54.890625 33.015625 
" id="DejaVuSans-68"/>
    <path d="M 9.078125 75.984375 
L 18.109375 75.984375 
L 18.109375 31.109375 
L 44.921875 54.6875 
L 56.390625 54.6875 
L 27.390625 29.109375 
L 57.625 0 
L 45.90625 0 
L 18.109375 26.703125 
L 18.109375 0 
L 9.078125 0 
z
" id="DejaVuSans-6b"/>
    <path d="M 18.3125 70.21875 
L 18.3125 54.6875 
L 36.8125 54.6875 
L 36.8125 47.703125 
L 18.3125 47.703125 
L 18.3125 18.015625 
Q 18.3125 11.328125 20.140625 9.421875 
Q 21.96875 7.515625 27.59375 7.515625 
L 36.8125 7.515625 
L 36.8125 0 
L 27.59375 0 
Q 17.1875 0 13.234375 3.875 
Q 9.28125 7.765625 9.28125 18.015625 
L 9.28125 47.703125 
L 2.6875 47.703125 
L 2.6875 54.6875 
L 9.28125 54.6875 
L 9.28125 70.21875 
z
" id="DejaVuSans-74"/>
    <path d="M 32.171875 -5.078125 
Q 28.375 -14.84375 24.75 -17.8125 
Q 21.140625 -20.796875 15.09375 -20.796875 
L 7.90625 -20.796875 
L 7.90625 -13.28125 
L 13.1875 -13.28125 
Q 16.890625 -13.28125 18.9375 -11.515625 
Q 21 -9.765625 23.484375 -3.21875 
L 25.09375 0.875 
L 2.984375 54.6875 
L 12.5 54.6875 
L 29.59375 11.921875 
L 46.6875 54.6875 
L 56.203125 54.6875 
z
" id="DejaVuSans-79"/>
   </defs>
   <g style="fill:#262626;" transform="translate(98.37125 22.2375)scale(0.16 -0.16)">
    <use xlink:href="#DejaVuSans-42"/>
    <use x="68.603516" xlink:href="#DejaVuSans-65"/>
    <use x="130.126953" xlink:href="#DejaVuSans-6e"/>
    <use x="193.505859" xlink:href="#DejaVuSans-63"/>
    <use x="248.486328" xlink:href="#DejaVuSans-68"/>
    <use x="311.865234" xlink:href="#DejaVuSans-6d"/>
    <use x="409.277344" xlink:href="#DejaVuSans-61"/>
    <use x="470.556641" xlink:href="#DejaVuSans-72"/>
    <use x="511.669922" xlink:href="#DejaVuSans-6b"/>
    <use x="569.580078" xlink:href="#DejaVuSans-20"/>
    <use x="601.367188" xlink:href="#DejaVuSans-6c"/>
    <use x="629.150391" xlink:href="#DejaVuSans-75"/>
    <use x="692.529297" xlink:href="#DejaVuSans-6d"/>
    <use x="789.941406" xlink:href="#DejaVuSans-69"/>
    <use x="817.724609" xlink:href="#DejaVuSans-6e"/>
    <use x="881.103516" xlink:href="#DejaVuSans-6f"/>
    <use x="942.285156" xlink:href="#DejaVuSans-73"/>
    <use x="994.384766" xlink:href="#DejaVuSans-69"/>
    <use x="1022.167969" xlink:href="#DejaVuSans-74"/>
    <use x="1061.376953" xlink:href="#DejaVuSans-79"/>
    <use x="1120.556641" xlink:href="#DejaVuSans-20"/>
    <use x="1152.34375" xlink:href="#DejaVuSans-70"/>
    <use x="1215.820312" xlink:href="#DejaVuSans-72"/>
    <use x="1256.902344" xlink:href="#DejaVuSans-6f"/>
    <use x="1318.083984" xlink:href="#DejaVuSans-66"/>
    <use x="1353.289062" xlink:href="#DejaVuSans-69"/>
    <use x="1381.072266" xlink:href="#DejaVuSans-6c"/>
    <use x="1408.855469" xlink:href="#DejaVuSans-65"/>
   </g>
  </g>
 </g>
 <defs>
  <clipPath id="p8b6e539f36">
   <rect height="134.4" width="163.317073" x="54" y="50.4"/>
  </clipPath>
  <clipPath id="pc13fe45cd0">
   <rect height="134.4" width="163.317073" x="225.482927" y="50.4"/>
  </clipPath>
  <clipPath id="p3ca4f48dd7">
   <rect height="134.4" width="163.317073" x="54" y="218.4"/>
  </clipPath>
  <clipPath id="p524d4c5517">
   <rect height="134.4" width="163.317073" x="225.482927" y="218.4"/>
  </clipPath>
 </defs>
</svg>
