<?xml version="1.0" encoding="utf-8" standalone="no"?>
<!DOCTYPE svg PUBLIC "-//W3C//DTD SVG 1.1//EN"
  "http://www.w3.org/Graphics/SVG/1.1/DTD/svg11.dtd">
<!-- Created with matplotlib (http://matplotlib.org/) -->
<svg height="432pt" version="1.1" viewBox="0 0 432 432" width="432pt" xmlns="http://www.w3.org/2000/svg" xmlns:xlink="http://www.w3.org/1999/xlink">
 <defs>
  <style type="text/css">
*{stroke-linecap:butt;stroke-linejoin:round;}
  </style>
 </defs>
 <g id="figure_1">
  <g id="patch_1">
   <path d="M 0 432 
L 432 432 
L 432 0 
L 0 0 
z
" style="fill:#ffffff;"/>
  </g>
  <g id="axes_1">
   <g id="patch_2">
    <path d="M 54 153.497872 
L 217.317073 153.497872 
L 217.317073 43.2 
L 54 43.2 
z
" style="fill:#ffffff;"/>
   </g>
   <g id="matplotlib.axis_1">
    <g id="xtick_1">
     <g id="line2d_1">
      <defs>
       <path d="M 0 0 
L 0 6 
" id="m5bbe6bc171" style="stroke:#262626;"/>
      </defs>
      <g>
       <use style="fill:#262626;stroke:#262626;" x="61.423503" xlink:href="#m5bbe6bc171" y="153.497872"/>
      </g>
     </g>
    </g>
    <g id="xtick_2">
     <g id="line2d_2">
      <g>
       <use style="fill:#262626;stroke:#262626;" x="124.602255" xlink:href="#m5bbe6bc171" y="153.497872"/>
      </g>
     </g>
    </g>
    <g id="xtick_3">
     <g id="line2d_3">
      <g>
       <use style="fill:#262626;stroke:#262626;" x="187.781007" xlink:href="#m5bbe6bc171" y="153.497872"/>
      </g>
     </g>
    </g>
    <g id="text_1">
     <!-- $d \ [km]$ -->
     <defs>
      <path d="M 41.796875 8.203125 
Q 38.1875 3.46875 33.25 1.015625 
Q 28.328125 -1.421875 22.3125 -1.421875 
Q 14.109375 -1.421875 9.34375 4.171875 
Q 4.59375 9.765625 4.59375 19.484375 
Q 4.59375 27.59375 7.46875 34.9375 
Q 10.359375 42.28125 15.828125 48.09375 
Q 19.4375 51.953125 23.96875 53.96875 
Q 28.515625 56 33.5 56 
Q 38.765625 56 42.796875 53.453125 
Q 46.828125 50.921875 49.03125 46.1875 
L 54.890625 75.984375 
L 63.921875 75.984375 
L 49.125 0 
L 40.09375 0 
z
M 13.921875 21.09375 
Q 13.921875 14.015625 17.109375 10.0625 
Q 20.3125 6.109375 25.984375 6.109375 
Q 30.171875 6.109375 33.765625 8.125 
Q 37.359375 10.15625 40.09375 14.109375 
Q 42.96875 18.21875 44.625 23.578125 
Q 46.296875 28.953125 46.296875 34.1875 
Q 46.296875 40.96875 43.09375 44.765625 
Q 39.890625 48.578125 34.28125 48.578125 
Q 30.03125 48.578125 26.359375 46.578125 
Q 22.703125 44.578125 20.125 40.828125 
Q 17.28125 36.765625 15.59375 31.390625 
Q 13.921875 26.03125 13.921875 21.09375 
" id="DejaVuSans-Oblique-64"/>
      <path d="M 8.59375 75.984375 
L 29.296875 75.984375 
L 29.296875 69 
L 17.578125 69 
L 17.578125 -6.203125 
L 29.296875 -6.203125 
L 29.296875 -13.1875 
L 8.59375 -13.1875 
z
" id="DejaVuSans-5b"/>
      <path d="M 18.3125 75.984375 
L 27.296875 75.984375 
L 18.703125 31.6875 
L 49.515625 54.6875 
L 61.1875 54.6875 
L 26.8125 28.515625 
L 51.90625 0 
L 41.015625 0 
L 17.671875 26.703125 
L 12.5 0 
L 3.515625 0 
z
" id="DejaVuSans-Oblique-6b"/>
      <path d="M 89.796875 33.015625 
L 83.40625 0 
L 74.421875 0 
L 80.71875 32.71875 
Q 81.109375 34.8125 81.296875 36.328125 
Q 81.5 37.84375 81.5 38.921875 
Q 81.5 43.3125 79.046875 45.75 
Q 76.609375 48.1875 72.21875 48.1875 
Q 65.671875 48.1875 60.546875 43.28125 
Q 55.421875 38.375 53.90625 30.515625 
L 47.90625 0 
L 38.921875 0 
L 45.3125 32.71875 
Q 45.703125 34.515625 45.890625 36.046875 
Q 46.09375 37.59375 46.09375 38.8125 
Q 46.09375 43.265625 43.65625 45.71875 
Q 41.21875 48.1875 36.921875 48.1875 
Q 30.28125 48.1875 25.140625 43.28125 
Q 20.015625 38.375 18.5 30.515625 
L 12.5 0 
L 3.515625 0 
L 14.203125 54.6875 
L 23.1875 54.6875 
L 21.484375 46.1875 
Q 25.140625 50.984375 30.046875 53.484375 
Q 34.96875 56 40.578125 56 
Q 46.53125 56 50.359375 52.875 
Q 54.203125 49.75 54.984375 44.1875 
Q 59.078125 49.953125 64.46875 52.96875 
Q 69.875 56 75.875 56 
Q 82.90625 56 86.734375 51.953125 
Q 90.578125 47.90625 90.578125 40.484375 
Q 90.578125 38.875 90.375 36.9375 
Q 90.1875 35.015625 89.796875 33.015625 
" id="DejaVuSans-Oblique-6d"/>
      <path d="M 30.421875 75.984375 
L 30.421875 -13.1875 
L 9.71875 -13.1875 
L 9.71875 -6.203125 
L 21.390625 -6.203125 
L 21.390625 69 
L 9.71875 69 
L 9.71875 75.984375 
z
" id="DejaVuSans-5d"/>
     </defs>
     <g style="fill:#262626;" transform="translate(112.063537 168.363638)scale(0.143 -0.143)">
      <use transform="translate(0 0.015625)" xlink:href="#DejaVuSans-Oblique-64"/>
      <use transform="translate(95.946941 0.015625)" xlink:href="#DejaVuSans-5b"/>
      <use transform="translate(134.960613 0.015625)" xlink:href="#DejaVuSans-Oblique-6b"/>
      <use transform="translate(192.870769 0.015625)" xlink:href="#DejaVuSans-Oblique-6d"/>
      <use transform="translate(290.282878 0.015625)" xlink:href="#DejaVuSans-5d"/>
     </g>
    </g>
   </g>
   <g id="matplotlib.axis_2">
    <g id="ytick_1">
     <g id="line2d_4">
      <defs>
       <path d="M 0 0 
L -6 0 
" id="mf1b7a9332d" style="stroke:#262626;"/>
      </defs>
      <g>
       <use style="fill:#262626;stroke:#262626;" x="54" xlink:href="#mf1b7a9332d" y="148.484333"/>
      </g>
     </g>
     <g id="text_2">
      <!-- 0.0 -->
      <defs>
       <path d="M 31.78125 66.40625 
Q 24.171875 66.40625 20.328125 58.90625 
Q 16.5 51.421875 16.5 36.375 
Q 16.5 21.390625 20.328125 13.890625 
Q 24.171875 6.390625 31.78125 6.390625 
Q 39.453125 6.390625 43.28125 13.890625 
Q 47.125 21.390625 47.125 36.375 
Q 47.125 51.421875 43.28125 58.90625 
Q 39.453125 66.40625 31.78125 66.40625 
M 31.78125 74.21875 
Q 44.046875 74.21875 50.515625 64.515625 
Q 56.984375 54.828125 56.984375 36.375 
Q 56.984375 17.96875 50.515625 8.265625 
Q 44.046875 -1.421875 31.78125 -1.421875 
Q 19.53125 -1.421875 13.0625 8.265625 
Q 6.59375 17.96875 6.59375 36.375 
Q 6.59375 54.828125 13.0625 64.515625 
Q 19.53125 74.21875 31.78125 74.21875 
" id="DejaVuSans-30"/>
       <path d="M 10.6875 12.40625 
L 21 12.40625 
L 21 0 
L 10.6875 0 
z
" id="DejaVuSans-2e"/>
      </defs>
      <g style="fill:#262626;" transform="translate(20.325937 153.423317)scale(0.13 -0.13)">
       <use xlink:href="#DejaVuSans-30"/>
       <use x="63.623047" xlink:href="#DejaVuSans-2e"/>
       <use x="95.410156" xlink:href="#DejaVuSans-30"/>
      </g>
     </g>
    </g>
    <g id="ytick_2">
     <g id="line2d_5">
      <g>
       <use style="fill:#262626;stroke:#262626;" x="54" xlink:href="#mf1b7a9332d" y="98.348936"/>
      </g>
     </g>
     <g id="text_3">
      <!-- 0.5 -->
      <defs>
       <path d="M 10.796875 72.90625 
L 49.515625 72.90625 
L 49.515625 64.59375 
L 19.828125 64.59375 
L 19.828125 46.734375 
Q 21.96875 47.46875 24.109375 47.828125 
Q 26.265625 48.1875 28.421875 48.1875 
Q 40.625 48.1875 47.75 41.5 
Q 54.890625 34.8125 54.890625 23.390625 
Q 54.890625 11.625 47.5625 5.09375 
Q 40.234375 -1.421875 26.90625 -1.421875 
Q 22.3125 -1.421875 17.546875 -0.640625 
Q 12.796875 0.140625 7.71875 1.703125 
L 7.71875 11.625 
Q 12.109375 9.234375 16.796875 8.0625 
Q 21.484375 6.890625 26.703125 6.890625 
Q 35.15625 6.890625 40.078125 11.328125 
Q 45.015625 15.765625 45.015625 23.390625 
Q 45.015625 31 40.078125 35.4375 
Q 35.15625 39.890625 26.703125 39.890625 
Q 22.75 39.890625 18.8125 39.015625 
Q 14.890625 38.140625 10.796875 36.28125 
z
" id="DejaVuSans-35"/>
      </defs>
      <g style="fill:#262626;" transform="translate(20.325937 103.287921)scale(0.13 -0.13)">
       <use xlink:href="#DejaVuSans-30"/>
       <use x="63.623047" xlink:href="#DejaVuSans-2e"/>
       <use x="95.410156" xlink:href="#DejaVuSans-35"/>
      </g>
     </g>
    </g>
    <g id="ytick_3">
     <g id="line2d_6">
      <g>
       <use style="fill:#262626;stroke:#262626;" x="54" xlink:href="#mf1b7a9332d" y="48.21354"/>
      </g>
     </g>
     <g id="text_4">
      <!-- 1.0 -->
      <defs>
       <path d="M 12.40625 8.296875 
L 28.515625 8.296875 
L 28.515625 63.921875 
L 10.984375 60.40625 
L 10.984375 69.390625 
L 28.421875 72.90625 
L 38.28125 72.90625 
L 38.28125 8.296875 
L 54.390625 8.296875 
L 54.390625 0 
L 12.40625 0 
z
" id="DejaVuSans-31"/>
      </defs>
      <g style="fill:#262626;" transform="translate(20.325937 53.152524)scale(0.13 -0.13)">
       <use xlink:href="#DejaVuSans-31"/>
       <use x="63.623047" xlink:href="#DejaVuSans-2e"/>
       <use x="95.410156" xlink:href="#DejaVuSans-30"/>
      </g>
     </g>
    </g>
    <g id="text_5">
     <!-- $\hat x_{\cdot}(d)$ -->
     <defs>
      <path d="M -28.609375 79.984375 
L -21.390625 79.984375 
L -9.421875 61.625 
L -16.21875 61.625 
L -25 73.578125 
L -33.796875 61.625 
L -40.578125 61.625 
z
M -25 56 
z
" id="DejaVuSans-302"/>
      <path d="M 60.015625 54.6875 
L 34.90625 27.875 
L 50.296875 0 
L 39.984375 0 
L 28.421875 21.6875 
L 8.296875 0 
L -2.59375 0 
L 24.3125 28.8125 
L 10.015625 54.6875 
L 20.3125 54.6875 
L 30.8125 34.90625 
L 49.125 54.6875 
z
" id="DejaVuSans-Oblique-78"/>
      <path d="M 10.6875 40.921875 
L 21 40.921875 
L 21 28.515625 
L 10.6875 28.515625 
z
" id="DejaVuSans-22c5"/>
      <path d="M 31 75.875 
Q 24.46875 64.65625 21.28125 53.65625 
Q 18.109375 42.671875 18.109375 31.390625 
Q 18.109375 20.125 21.3125 9.0625 
Q 24.515625 -2 31 -13.1875 
L 23.1875 -13.1875 
Q 15.875 -1.703125 12.234375 9.375 
Q 8.59375 20.453125 8.59375 31.390625 
Q 8.59375 42.28125 12.203125 53.3125 
Q 15.828125 64.359375 23.1875 75.875 
z
" id="DejaVuSans-28"/>
      <path d="M 8.015625 75.875 
L 15.828125 75.875 
Q 23.140625 64.359375 26.78125 53.3125 
Q 30.421875 42.28125 30.421875 31.390625 
Q 30.421875 20.453125 26.78125 9.375 
Q 23.140625 -1.703125 15.828125 -13.1875 
L 8.015625 -13.1875 
Q 14.5 -2 17.703125 9.0625 
Q 20.90625 20.125 20.90625 31.390625 
Q 20.90625 42.671875 17.703125 53.65625 
Q 14.5 64.65625 8.015625 75.875 
" id="DejaVuSans-29"/>
     </defs>
     <g style="fill:#262626;" transform="translate(13.351984 114.865436)rotate(-90)scale(0.143 -0.143)">
      <use transform="translate(64.226562 12.015625)" xlink:href="#DejaVuSans-302"/>
      <use transform="translate(0 0.828125)" xlink:href="#DejaVuSans-Oblique-78"/>
      <use transform="translate(63.550781 -15.578125)scale(0.7)" xlink:href="#DejaVuSans-22c5"/>
      <use transform="translate(88.536133 0.828125)" xlink:href="#DejaVuSans-28"/>
      <use transform="translate(127.549805 0.828125)" xlink:href="#DejaVuSans-Oblique-64"/>
      <use transform="translate(191.026367 0.828125)" xlink:href="#DejaVuSans-29"/>
     </g>
    </g>
   </g>
   <g id="line2d_7">
    <path clip-path="url(#p64a6542335)" d="M 61.423503 148.484333 
L 64.582441 148.484333 
L 67.741378 81.247687 
L 70.900316 60.214245 
L 74.059254 51.695138 
L 77.218191 48.21354 
L 80.377129 57.944819 
L 83.536066 71.241925 
L 86.695004 84.134211 
L 89.853942 63.583771 
L 93.012879 57.424341 
L 96.171817 58.481273 
L 99.330754 62.104362 
L 102.489692 65.978199 
L 105.64863 67.156121 
L 108.807567 68.085816 
L 111.966505 82.323475 
L 115.125442 94.514731 
L 118.28438 102.150586 
L 121.443317 98.80103 
L 124.602255 103.133073 
L 127.761193 116.700543 
L 130.92013 131.268742 
L 134.079068 108.703267 
L 137.238005 116.857421 
L 140.396943 119.591463 
L 143.555881 118.413529 
L 146.714818 113.674444 
L 149.873756 120.24332 
L 153.032693 124.584045 
L 156.191631 124.645291 
L 159.350568 123.253071 
L 162.509506 126.700583 
L 165.668444 135.614778 
L 168.827381 132.651482 
L 171.986319 131.564463 
L 175.145256 139.131682 
L 178.304194 137.370659 
L 181.463132 136.275286 
L 184.622069 139.369188 
L 187.781007 140.080765 
L 190.939944 136.428882 
L 194.098882 143.870679 
L 197.25782 142.724011 
L 200.416757 140.67165 
L 203.575695 143.234788 
L 206.734632 138.526051 
L 209.89357 140.256405 
" style="fill:none;opacity:0.4;stroke:#000000;stroke-linecap:round;stroke-width:2;"/>
   </g>
   <g id="line2d_8">
    <path clip-path="url(#p64a6542335)" d="M 61.423503 148.484333 
L 64.582441 148.484333 
L 67.741378 81.295722 
L 70.900316 48.21354 
L 74.059254 56.966443 
L 77.218191 59.42321 
L 80.377129 95.596016 
L 83.536066 114.497091 
L 86.695004 115.067538 
L 89.853942 115.595319 
L 93.012879 116.176552 
L 96.171817 126.712228 
L 99.330754 129.252686 
L 102.489692 129.765079 
L 105.64863 133.403561 
L 108.807567 135.581636 
L 111.966505 135.701933 
L 115.125442 137.485193 
L 118.28438 141.295448 
L 121.443317 142.379723 
L 124.602255 144.034528 
L 127.761193 146.060538 
L 130.92013 146.957784 
L 134.079068 144.744034 
L 137.238005 145.144972 
L 140.396943 145.393433 
L 143.555881 145.735474 
L 146.714818 145.601991 
L 149.873756 145.622912 
L 153.032693 146.074205 
L 156.191631 146.54668 
L 159.350568 146.686997 
L 162.509506 147.338168 
L 165.668444 147.451735 
L 168.827381 147.225359 
L 171.986319 147.256789 
L 175.145256 147.863511 
L 178.304194 147.923471 
L 181.463132 147.869374 
L 184.622069 147.979369 
L 187.781007 147.90155 
L 190.939944 147.895752 
L 194.098882 148.115788 
L 197.25782 148.132738 
L 200.416757 148.015789 
L 203.575695 147.990793 
L 206.734632 147.685226 
L 209.89357 147.596733 
" style="fill:none;opacity:0.4;stroke:#008000;stroke-linecap:round;stroke-width:2;"/>
   </g>
   <g id="line2d_9">
    <path clip-path="url(#p64a6542335)" d="M 61.423503 148.484333 
L 64.582441 148.484333 
L 67.741378 84.138218 
L 70.900316 48.21354 
L 74.059254 67.259334 
L 77.218191 67.299594 
L 80.377129 71.966785 
L 83.536066 90.658535 
L 86.695004 95.412254 
L 89.853942 85.962194 
L 93.012879 87.144768 
L 96.171817 89.172435 
L 99.330754 99.99336 
L 102.489692 102.618325 
L 105.64863 112.671675 
L 108.807567 114.416802 
L 111.966505 116.237786 
L 115.125442 121.049932 
L 118.28438 124.680648 
L 121.443317 129.237846 
L 124.602255 133.396335 
L 127.761193 137.02626 
L 130.92013 138.001331 
L 134.079068 130.975682 
L 137.238005 131.931446 
L 140.396943 134.569204 
L 143.555881 134.52416 
L 146.714818 134.914091 
L 149.873756 135.676721 
L 153.032693 137.659868 
L 156.191631 138.537611 
L 159.350568 138.180686 
L 162.509506 139.364817 
L 165.668444 142.998028 
L 168.827381 142.64342 
L 171.986319 143.703067 
L 175.145256 145.032952 
L 178.304194 143.759111 
L 181.463132 144.507331 
L 184.622069 145.487739 
L 187.781007 145.709208 
L 190.939944 145.299021 
L 194.098882 146.1544 
L 197.25782 145.866247 
L 200.416757 145.127907 
L 203.575695 145.929456 
L 206.734632 144.983331 
L 209.89357 144.800167 
" style="fill:none;opacity:0.9;stroke:#ffa500;stroke-linecap:round;stroke-width:2;"/>
   </g>
   <g id="line2d_10">
    <path clip-path="url(#p64a6542335)" d="M 61.423503 48.21354 
L 64.582441 48.21354 
L 67.741378 78.472918 
L 70.900316 52.157314 
L 74.059254 69.986484 
L 77.218191 72.596181 
L 80.377129 81.085949 
L 83.536066 87.926034 
L 86.695004 95.53316 
L 89.853942 88.654239 
L 93.012879 90.400693 
L 96.171817 97.942611 
L 99.330754 104.334072 
L 102.489692 106.814467 
L 105.64863 113.530797 
L 108.807567 114.176181 
L 111.966505 116.581931 
L 115.125442 119.576024 
L 118.28438 124.668052 
L 121.443317 127.720186 
L 124.602255 131.963352 
L 127.761193 134.701025 
L 130.92013 137.748956 
L 134.079068 131.497498 
L 137.238005 132.434744 
L 140.396943 134.516678 
L 143.555881 134.877291 
L 146.714818 134.707113 
L 149.873756 135.363621 
L 153.032693 137.899316 
L 156.191631 139.276565 
L 159.350568 138.760092 
L 162.509506 139.706282 
L 165.668444 142.806091 
L 168.827381 141.715997 
L 171.986319 143.768782 
L 175.145256 145.298314 
L 178.304194 144.244927 
L 181.463132 144.498779 
L 184.622069 144.78475 
L 187.781007 145.688516 
L 190.939944 144.882385 
L 194.098882 146.055246 
L 197.25782 145.663065 
L 200.416757 145.229358 
L 203.575695 146.201276 
L 206.734632 145.29566 
L 209.89357 144.922092 
" style="fill:none;stroke:#ffa500;stroke-dasharray:8.4,3.6;stroke-dashoffset:0;stroke-width:3;"/>
   </g>
   <g id="patch_3">
    <path d="M 54 153.497872 
L 54 43.2 
" style="fill:none;stroke:#262626;stroke-linecap:square;stroke-linejoin:miter;stroke-width:1.25;"/>
   </g>
   <g id="patch_4">
    <path d="M 217.317073 153.497872 
L 217.317073 43.2 
" style="fill:none;stroke:#262626;stroke-linecap:square;stroke-linejoin:miter;stroke-width:1.25;"/>
   </g>
   <g id="patch_5">
    <path d="M 54 153.497872 
L 217.317073 153.497872 
" style="fill:none;stroke:#262626;stroke-linecap:square;stroke-linejoin:miter;stroke-width:1.25;"/>
   </g>
   <g id="patch_6">
    <path d="M 54 43.2 
L 217.317073 43.2 
" style="fill:none;stroke:#262626;stroke-linecap:square;stroke-linejoin:miter;stroke-width:1.25;"/>
   </g>
   <g id="text_6">
    <!-- paris -->
    <defs>
     <path d="M 18.109375 8.203125 
L 18.109375 -20.796875 
L 9.078125 -20.796875 
L 9.078125 54.6875 
L 18.109375 54.6875 
L 18.109375 46.390625 
Q 20.953125 51.265625 25.265625 53.625 
Q 29.59375 56 35.59375 56 
Q 45.5625 56 51.78125 48.09375 
Q 58.015625 40.1875 58.015625 27.296875 
Q 58.015625 14.40625 51.78125 6.484375 
Q 45.5625 -1.421875 35.59375 -1.421875 
Q 29.59375 -1.421875 25.265625 0.953125 
Q 20.953125 3.328125 18.109375 8.203125 
M 48.6875 27.296875 
Q 48.6875 37.203125 44.609375 42.84375 
Q 40.53125 48.484375 33.40625 48.484375 
Q 26.265625 48.484375 22.1875 42.84375 
Q 18.109375 37.203125 18.109375 27.296875 
Q 18.109375 17.390625 22.1875 11.75 
Q 26.265625 6.109375 33.40625 6.109375 
Q 40.53125 6.109375 44.609375 11.75 
Q 48.6875 17.390625 48.6875 27.296875 
" id="DejaVuSans-70"/>
     <path d="M 34.28125 27.484375 
Q 23.390625 27.484375 19.1875 25 
Q 14.984375 22.515625 14.984375 16.5 
Q 14.984375 11.71875 18.140625 8.90625 
Q 21.296875 6.109375 26.703125 6.109375 
Q 34.1875 6.109375 38.703125 11.40625 
Q 43.21875 16.703125 43.21875 25.484375 
L 43.21875 27.484375 
z
M 52.203125 31.203125 
L 52.203125 0 
L 43.21875 0 
L 43.21875 8.296875 
Q 40.140625 3.328125 35.546875 0.953125 
Q 30.953125 -1.421875 24.3125 -1.421875 
Q 15.921875 -1.421875 10.953125 3.296875 
Q 6 8.015625 6 15.921875 
Q 6 25.140625 12.171875 29.828125 
Q 18.359375 34.515625 30.609375 34.515625 
L 43.21875 34.515625 
L 43.21875 35.40625 
Q 43.21875 41.609375 39.140625 45 
Q 35.0625 48.390625 27.6875 48.390625 
Q 23 48.390625 18.546875 47.265625 
Q 14.109375 46.140625 10.015625 43.890625 
L 10.015625 52.203125 
Q 14.9375 54.109375 19.578125 55.046875 
Q 24.21875 56 28.609375 56 
Q 40.484375 56 46.34375 49.84375 
Q 52.203125 43.703125 52.203125 31.203125 
" id="DejaVuSans-61"/>
     <path d="M 41.109375 46.296875 
Q 39.59375 47.171875 37.8125 47.578125 
Q 36.03125 48 33.890625 48 
Q 26.265625 48 22.1875 43.046875 
Q 18.109375 38.09375 18.109375 28.8125 
L 18.109375 0 
L 9.078125 0 
L 9.078125 54.6875 
L 18.109375 54.6875 
L 18.109375 46.1875 
Q 20.953125 51.171875 25.484375 53.578125 
Q 30.03125 56 36.53125 56 
Q 37.453125 56 38.578125 55.875 
Q 39.703125 55.765625 41.0625 55.515625 
z
" id="DejaVuSans-72"/>
     <path d="M 9.421875 54.6875 
L 18.40625 54.6875 
L 18.40625 0 
L 9.421875 0 
z
M 9.421875 75.984375 
L 18.40625 75.984375 
L 18.40625 64.59375 
L 9.421875 64.59375 
z
" id="DejaVuSans-69"/>
     <path d="M 44.28125 53.078125 
L 44.28125 44.578125 
Q 40.484375 46.53125 36.375 47.5 
Q 32.28125 48.484375 27.875 48.484375 
Q 21.1875 48.484375 17.84375 46.4375 
Q 14.5 44.390625 14.5 40.28125 
Q 14.5 37.15625 16.890625 35.375 
Q 19.28125 33.59375 26.515625 31.984375 
L 29.59375 31.296875 
Q 39.15625 29.25 43.1875 25.515625 
Q 47.21875 21.78125 47.21875 15.09375 
Q 47.21875 7.46875 41.1875 3.015625 
Q 35.15625 -1.421875 24.609375 -1.421875 
Q 20.21875 -1.421875 15.453125 -0.5625 
Q 10.6875 0.296875 5.421875 2 
L 5.421875 11.28125 
Q 10.40625 8.6875 15.234375 7.390625 
Q 20.0625 6.109375 24.8125 6.109375 
Q 31.15625 6.109375 34.5625 8.28125 
Q 37.984375 10.453125 37.984375 14.40625 
Q 37.984375 18.0625 35.515625 20.015625 
Q 33.0625 21.96875 24.703125 23.78125 
L 21.578125 24.515625 
Q 13.234375 26.265625 9.515625 29.90625 
Q 5.8125 33.546875 5.8125 39.890625 
Q 5.8125 47.609375 11.28125 51.796875 
Q 16.75 56 26.8125 56 
Q 31.78125 56 36.171875 55.265625 
Q 40.578125 54.546875 44.28125 53.078125 
" id="DejaVuSans-73"/>
    </defs>
    <g style="fill:#262626;" transform="translate(116.490037 37.2)scale(0.156 -0.156)">
     <use xlink:href="#DejaVuSans-70"/>
     <use x="63.476562" xlink:href="#DejaVuSans-61"/>
     <use x="124.755859" xlink:href="#DejaVuSans-72"/>
     <use x="165.869141" xlink:href="#DejaVuSans-69"/>
     <use x="193.652344" xlink:href="#DejaVuSans-73"/>
    </g>
   </g>
   <g id="legend_1">
    <g id="line2d_11">
     <path d="M 139.895198 51.298438 
L 159.895198 51.298438 
" style="fill:none;opacity:0.4;stroke:#000000;stroke-linecap:round;stroke-width:2;"/>
    </g>
    <g id="line2d_12"/>
    <g id="text_7">
     <!-- bldg -->
     <defs>
      <path d="M 48.6875 27.296875 
Q 48.6875 37.203125 44.609375 42.84375 
Q 40.53125 48.484375 33.40625 48.484375 
Q 26.265625 48.484375 22.1875 42.84375 
Q 18.109375 37.203125 18.109375 27.296875 
Q 18.109375 17.390625 22.1875 11.75 
Q 26.265625 6.109375 33.40625 6.109375 
Q 40.53125 6.109375 44.609375 11.75 
Q 48.6875 17.390625 48.6875 27.296875 
M 18.109375 46.390625 
Q 20.953125 51.265625 25.265625 53.625 
Q 29.59375 56 35.59375 56 
Q 45.5625 56 51.78125 48.09375 
Q 58.015625 40.1875 58.015625 27.296875 
Q 58.015625 14.40625 51.78125 6.484375 
Q 45.5625 -1.421875 35.59375 -1.421875 
Q 29.59375 -1.421875 25.265625 0.953125 
Q 20.953125 3.328125 18.109375 8.203125 
L 18.109375 0 
L 9.078125 0 
L 9.078125 75.984375 
L 18.109375 75.984375 
z
" id="DejaVuSans-62"/>
      <path d="M 9.421875 75.984375 
L 18.40625 75.984375 
L 18.40625 0 
L 9.421875 0 
z
" id="DejaVuSans-6c"/>
      <path d="M 45.40625 46.390625 
L 45.40625 75.984375 
L 54.390625 75.984375 
L 54.390625 0 
L 45.40625 0 
L 45.40625 8.203125 
Q 42.578125 3.328125 38.25 0.953125 
Q 33.9375 -1.421875 27.875 -1.421875 
Q 17.96875 -1.421875 11.734375 6.484375 
Q 5.515625 14.40625 5.515625 27.296875 
Q 5.515625 40.1875 11.734375 48.09375 
Q 17.96875 56 27.875 56 
Q 33.9375 56 38.25 53.625 
Q 42.578125 51.265625 45.40625 46.390625 
M 14.796875 27.296875 
Q 14.796875 17.390625 18.875 11.75 
Q 22.953125 6.109375 30.078125 6.109375 
Q 37.203125 6.109375 41.296875 11.75 
Q 45.40625 17.390625 45.40625 27.296875 
Q 45.40625 37.203125 41.296875 42.84375 
Q 37.203125 48.484375 30.078125 48.484375 
Q 22.953125 48.484375 18.875 42.84375 
Q 14.796875 37.203125 14.796875 27.296875 
" id="DejaVuSans-64"/>
      <path d="M 45.40625 27.984375 
Q 45.40625 37.75 41.375 43.109375 
Q 37.359375 48.484375 30.078125 48.484375 
Q 22.859375 48.484375 18.828125 43.109375 
Q 14.796875 37.75 14.796875 27.984375 
Q 14.796875 18.265625 18.828125 12.890625 
Q 22.859375 7.515625 30.078125 7.515625 
Q 37.359375 7.515625 41.375 12.890625 
Q 45.40625 18.265625 45.40625 27.984375 
M 54.390625 6.78125 
Q 54.390625 -7.171875 48.1875 -13.984375 
Q 42 -20.796875 29.203125 -20.796875 
Q 24.46875 -20.796875 20.265625 -20.09375 
Q 16.0625 -19.390625 12.109375 -17.921875 
L 12.109375 -9.1875 
Q 16.0625 -11.328125 19.921875 -12.34375 
Q 23.78125 -13.375 27.78125 -13.375 
Q 36.625 -13.375 41.015625 -8.765625 
Q 45.40625 -4.15625 45.40625 5.171875 
L 45.40625 9.625 
Q 42.625 4.78125 38.28125 2.390625 
Q 33.9375 0 27.875 0 
Q 17.828125 0 11.671875 7.65625 
Q 5.515625 15.328125 5.515625 27.984375 
Q 5.515625 40.671875 11.671875 48.328125 
Q 17.828125 56 27.875 56 
Q 33.9375 56 38.28125 53.609375 
Q 42.625 51.21875 45.40625 46.390625 
L 45.40625 54.6875 
L 54.390625 54.6875 
z
" id="DejaVuSans-67"/>
     </defs>
     <g style="fill:#262626;" transform="translate(167.895198 54.798438)scale(0.1 -0.1)">
      <use xlink:href="#DejaVuSans-62"/>
      <use x="63.476562" xlink:href="#DejaVuSans-6c"/>
      <use x="91.259766" xlink:href="#DejaVuSans-64"/>
      <use x="154.736328" xlink:href="#DejaVuSans-67"/>
     </g>
    </g>
    <g id="line2d_13">
     <path d="M 139.895198 65.976563 
L 159.895198 65.976563 
" style="fill:none;opacity:0.4;stroke:#008000;stroke-linecap:round;stroke-width:2;"/>
    </g>
    <g id="line2d_14"/>
    <g id="text_8">
     <!-- pop -->
     <defs>
      <path d="M 30.609375 48.390625 
Q 23.390625 48.390625 19.1875 42.75 
Q 14.984375 37.109375 14.984375 27.296875 
Q 14.984375 17.484375 19.15625 11.84375 
Q 23.34375 6.203125 30.609375 6.203125 
Q 37.796875 6.203125 41.984375 11.859375 
Q 46.1875 17.53125 46.1875 27.296875 
Q 46.1875 37.015625 41.984375 42.703125 
Q 37.796875 48.390625 30.609375 48.390625 
M 30.609375 56 
Q 42.328125 56 49.015625 48.375 
Q 55.71875 40.765625 55.71875 27.296875 
Q 55.71875 13.875 49.015625 6.21875 
Q 42.328125 -1.421875 30.609375 -1.421875 
Q 18.84375 -1.421875 12.171875 6.21875 
Q 5.515625 13.875 5.515625 27.296875 
Q 5.515625 40.765625 12.171875 48.375 
Q 18.84375 56 30.609375 56 
" id="DejaVuSans-6f"/>
     </defs>
     <g style="fill:#262626;" transform="translate(167.895198 69.476563)scale(0.1 -0.1)">
      <use xlink:href="#DejaVuSans-70"/>
      <use x="63.476562" xlink:href="#DejaVuSans-6f"/>
      <use x="124.658203" xlink:href="#DejaVuSans-70"/>
     </g>
    </g>
    <g id="line2d_15">
     <path d="M 139.895198 80.654688 
L 159.895198 80.654688 
" style="fill:none;opacity:0.9;stroke:#ffa500;stroke-linecap:round;stroke-width:2;"/>
    </g>
    <g id="line2d_16"/>
    <g id="text_9">
     <!-- lum -->
     <defs>
      <path d="M 8.5 21.578125 
L 8.5 54.6875 
L 17.484375 54.6875 
L 17.484375 21.921875 
Q 17.484375 14.15625 20.5 10.265625 
Q 23.53125 6.390625 29.59375 6.390625 
Q 36.859375 6.390625 41.078125 11.03125 
Q 45.3125 15.671875 45.3125 23.6875 
L 45.3125 54.6875 
L 54.296875 54.6875 
L 54.296875 0 
L 45.3125 0 
L 45.3125 8.40625 
Q 42.046875 3.421875 37.71875 1 
Q 33.40625 -1.421875 27.6875 -1.421875 
Q 18.265625 -1.421875 13.375 4.4375 
Q 8.5 10.296875 8.5 21.578125 
M 31.109375 56 
z
" id="DejaVuSans-75"/>
      <path d="M 52 44.1875 
Q 55.375 50.25 60.0625 53.125 
Q 64.75 56 71.09375 56 
Q 79.640625 56 84.28125 50.015625 
Q 88.921875 44.046875 88.921875 33.015625 
L 88.921875 0 
L 79.890625 0 
L 79.890625 32.71875 
Q 79.890625 40.578125 77.09375 44.375 
Q 74.3125 48.1875 68.609375 48.1875 
Q 61.625 48.1875 57.5625 43.546875 
Q 53.515625 38.921875 53.515625 30.90625 
L 53.515625 0 
L 44.484375 0 
L 44.484375 32.71875 
Q 44.484375 40.625 41.703125 44.40625 
Q 38.921875 48.1875 33.109375 48.1875 
Q 26.21875 48.1875 22.15625 43.53125 
Q 18.109375 38.875 18.109375 30.90625 
L 18.109375 0 
L 9.078125 0 
L 9.078125 54.6875 
L 18.109375 54.6875 
L 18.109375 46.1875 
Q 21.1875 51.21875 25.484375 53.609375 
Q 29.78125 56 35.6875 56 
Q 41.65625 56 45.828125 52.96875 
Q 50 49.953125 52 44.1875 
" id="DejaVuSans-6d"/>
     </defs>
     <g style="fill:#262626;" transform="translate(167.895198 84.154688)scale(0.1 -0.1)">
      <use xlink:href="#DejaVuSans-6c"/>
      <use x="27.783203" xlink:href="#DejaVuSans-75"/>
      <use x="91.162109" xlink:href="#DejaVuSans-6d"/>
     </g>
    </g>
    <g id="line2d_17">
     <path d="M 139.895198 95.332813 
L 159.895198 95.332813 
" style="fill:none;stroke:#ffa500;stroke-dasharray:8.4,3.6;stroke-dashoffset:0;stroke-width:3;"/>
    </g>
    <g id="line2d_18"/>
    <g id="text_10">
     <!-- lum-pred -->
     <defs>
      <path d="M 4.890625 31.390625 
L 31.203125 31.390625 
L 31.203125 23.390625 
L 4.890625 23.390625 
z
" id="DejaVuSans-2d"/>
      <path d="M 56.203125 29.59375 
L 56.203125 25.203125 
L 14.890625 25.203125 
Q 15.484375 15.921875 20.484375 11.0625 
Q 25.484375 6.203125 34.421875 6.203125 
Q 39.59375 6.203125 44.453125 7.46875 
Q 49.3125 8.734375 54.109375 11.28125 
L 54.109375 2.78125 
Q 49.265625 0.734375 44.1875 -0.34375 
Q 39.109375 -1.421875 33.890625 -1.421875 
Q 20.796875 -1.421875 13.15625 6.1875 
Q 5.515625 13.8125 5.515625 26.8125 
Q 5.515625 40.234375 12.765625 48.109375 
Q 20.015625 56 32.328125 56 
Q 43.359375 56 49.78125 48.890625 
Q 56.203125 41.796875 56.203125 29.59375 
M 47.21875 32.234375 
Q 47.125 39.59375 43.09375 43.984375 
Q 39.0625 48.390625 32.421875 48.390625 
Q 24.90625 48.390625 20.390625 44.140625 
Q 15.875 39.890625 15.1875 32.171875 
z
" id="DejaVuSans-65"/>
     </defs>
     <g style="fill:#262626;" transform="translate(167.895198 98.832813)scale(0.1 -0.1)">
      <use xlink:href="#DejaVuSans-6c"/>
      <use x="27.783203" xlink:href="#DejaVuSans-75"/>
      <use x="91.162109" xlink:href="#DejaVuSans-6d"/>
      <use x="188.574219" xlink:href="#DejaVuSans-2d"/>
      <use x="224.658203" xlink:href="#DejaVuSans-70"/>
      <use x="288.134766" xlink:href="#DejaVuSans-72"/>
      <use x="329.216797" xlink:href="#DejaVuSans-65"/>
      <use x="390.740234" xlink:href="#DejaVuSans-64"/>
     </g>
    </g>
   </g>
  </g>
  <g id="axes_2">
   <g id="patch_7">
    <path d="M 225.482927 153.497872 
L 388.8 153.497872 
L 388.8 43.2 
L 225.482927 43.2 
z
" style="fill:#ffffff;"/>
   </g>
   <g id="matplotlib.axis_3">
    <g id="xtick_4">
     <g id="line2d_19">
      <g>
       <use style="fill:#262626;stroke:#262626;" x="232.90643" xlink:href="#m5bbe6bc171" y="153.497872"/>
      </g>
     </g>
    </g>
    <g id="xtick_5">
     <g id="line2d_20">
      <g>
       <use style="fill:#262626;stroke:#262626;" x="296.085182" xlink:href="#m5bbe6bc171" y="153.497872"/>
      </g>
     </g>
    </g>
    <g id="xtick_6">
     <g id="line2d_21">
      <g>
       <use style="fill:#262626;stroke:#262626;" x="359.263934" xlink:href="#m5bbe6bc171" y="153.497872"/>
      </g>
     </g>
    </g>
    <g id="text_11">
     <!-- $d \ [km]$ -->
     <g style="fill:#262626;" transform="translate(283.546463 168.363638)scale(0.143 -0.143)">
      <use transform="translate(0 0.015625)" xlink:href="#DejaVuSans-Oblique-64"/>
      <use transform="translate(95.946941 0.015625)" xlink:href="#DejaVuSans-5b"/>
      <use transform="translate(134.960613 0.015625)" xlink:href="#DejaVuSans-Oblique-6b"/>
      <use transform="translate(192.870769 0.015625)" xlink:href="#DejaVuSans-Oblique-6d"/>
      <use transform="translate(290.282878 0.015625)" xlink:href="#DejaVuSans-5d"/>
     </g>
    </g>
   </g>
   <g id="matplotlib.axis_4">
    <g id="ytick_4">
     <g id="line2d_22">
      <g>
       <use style="fill:#262626;stroke:#262626;" x="225.482927" xlink:href="#mf1b7a9332d" y="148.484333"/>
      </g>
     </g>
    </g>
    <g id="ytick_5">
     <g id="line2d_23">
      <g>
       <use style="fill:#262626;stroke:#262626;" x="225.482927" xlink:href="#mf1b7a9332d" y="98.348936"/>
      </g>
     </g>
    </g>
    <g id="ytick_6">
     <g id="line2d_24">
      <g>
       <use style="fill:#262626;stroke:#262626;" x="225.482927" xlink:href="#mf1b7a9332d" y="48.21354"/>
      </g>
     </g>
    </g>
   </g>
   <g id="line2d_25">
    <path clip-path="url(#p40404853d1)" d="M 232.90643 148.484333 
L 236.065368 148.484333 
L 239.224305 102.09749 
L 242.383243 148.484333 
L 245.54218 148.484333 
L 248.701118 148.484333 
L 251.860056 113.673751 
L 255.018993 138.645864 
L 258.177931 83.54074 
L 261.336868 93.907583 
L 264.495806 48.21354 
L 267.654744 83.323086 
L 270.813681 69.779339 
L 273.972619 62.709764 
L 277.131556 91.438685 
L 280.290494 98.161929 
L 283.449432 143.620474 
L 286.608369 121.664677 
L 289.767307 132.817835 
L 292.926244 122.379265 
L 296.085182 126.389977 
L 299.244119 130.885018 
L 302.403057 123.187354 
L 305.561995 140.978155 
L 308.720932 146.333105 
L 311.87987 144.987635 
L 315.038807 136.955009 
L 318.197745 138.300764 
L 321.356683 141.331473 
L 324.51562 148.484333 
L 327.674558 148.484333 
L 330.833495 148.430576 
L 333.992433 139.068662 
L 337.15137 139.17688 
L 340.310308 137.918387 
L 343.469246 141.654549 
L 346.628183 138.355182 
L 349.787121 143.232486 
L 352.946058 140.575725 
L 356.104996 147.628483 
L 359.263934 139.076067 
L 362.422871 143.698045 
L 365.581809 139.983468 
L 368.740746 148.435166 
L 371.899684 148.25882 
L 375.058622 148.484333 
L 378.217559 148.337476 
L 381.376497 132.293364 
" style="fill:none;opacity:0.4;stroke:#000000;stroke-linecap:round;stroke-width:2;"/>
   </g>
   <g id="line2d_26">
    <path clip-path="url(#p40404853d1)" d="M 232.90643 148.484333 
L 236.065368 148.484333 
L 239.224305 148.484333 
L 242.383243 90.590513 
L 245.54218 48.21354 
L 248.701118 101.061839 
L 251.860056 51.391573 
L 255.018993 92.23246 
L 258.177931 131.684787 
L 261.336868 125.560538 
L 264.495806 117.314714 
L 267.654744 54.627041 
L 270.813681 58.66485 
L 273.972619 64.006617 
L 277.131556 90.72789 
L 280.290494 97.392281 
L 283.449432 102.746713 
L 286.608369 138.274461 
L 289.767307 128.724474 
L 292.926244 125.326805 
L 296.085182 135.829813 
L 299.244119 123.691056 
L 302.403057 127.114376 
L 305.561995 133.167723 
L 308.720932 147.443887 
L 311.87987 139.488366 
L 315.038807 134.214729 
L 318.197745 145.840779 
L 321.356683 147.770337 
L 324.51562 147.925943 
L 327.674558 145.230296 
L 330.833495 121.346605 
L 333.992433 140.404078 
L 337.15137 145.582636 
L 340.310308 148.11842 
L 343.469246 147.984098 
L 346.628183 148.147403 
L 349.787121 147.908478 
L 352.946058 139.119201 
L 356.104996 124.95995 
L 359.263934 134.475009 
L 362.422871 147.927779 
L 365.581809 143.771338 
L 368.740746 141.967744 
L 371.899684 142.825901 
L 375.058622 141.122539 
L 378.217559 133.535322 
L 381.376497 140.33667 
" style="fill:none;opacity:0.4;stroke:#008000;stroke-linecap:round;stroke-width:2;"/>
   </g>
   <g id="line2d_27">
    <path clip-path="url(#p40404853d1)" d="M 232.90643 148.484333 
L 236.065368 148.484333 
L 239.224305 136.807752 
L 242.383243 145.672356 
L 245.54218 148.484333 
L 248.701118 147.886908 
L 251.860056 139.096799 
L 255.018993 128.533521 
L 258.177931 75.905267 
L 261.336868 89.982627 
L 264.495806 56.801155 
L 267.654744 48.21354 
L 270.813681 68.340879 
L 273.972619 67.829113 
L 277.131556 85.552974 
L 280.290494 83.688553 
L 283.449432 106.281338 
L 286.608369 131.915262 
L 289.767307 130.732972 
L 292.926244 144.324126 
L 296.085182 143.08824 
L 299.244119 130.640466 
L 302.403057 129.181466 
L 305.561995 133.569907 
L 308.720932 146.782484 
L 311.87987 146.784702 
L 315.038807 144.087757 
L 318.197745 142.428764 
L 321.356683 142.614944 
L 324.51562 144.41284 
L 327.674558 146.341193 
L 330.833495 145.009978 
L 333.992433 141.249378 
L 337.15137 141.353545 
L 340.310308 141.475871 
L 343.469246 146.978319 
L 346.628183 146.069082 
L 349.787121 146.181904 
L 352.946058 138.905845 
L 356.104996 145.753846 
L 359.263934 144.771832 
L 362.422871 137.833443 
L 365.581809 132.123897 
L 368.740746 146.382571 
L 371.899684 145.116923 
L 375.058622 145.45376 
L 378.217559 145.108059 
L 381.376497 142.060455 
" style="fill:none;opacity:0.9;stroke:#ffa500;stroke-linecap:round;stroke-width:2;"/>
   </g>
   <g id="line2d_28">
    <path clip-path="url(#p40404853d1)" d="M 232.90643 48.21354 
L 236.065368 48.21354 
L 239.224305 130.367943 
L 242.383243 141.266358 
L 245.54218 76.035498 
L 248.701118 145.808229 
L 251.860056 135.752223 
L 255.018993 126.412825 
L 258.177931 104.706064 
L 261.336868 108.779005 
L 264.495806 71.798628 
L 267.654744 73.476258 
L 270.813681 87.484695 
L 273.972619 92.093567 
L 277.131556 95.072417 
L 280.290494 99.777894 
L 283.449432 117.205098 
L 286.608369 131.74621 
L 289.767307 132.048326 
L 292.926244 140.913506 
L 296.085182 141.406972 
L 299.244119 132.48624 
L 302.403057 133.643282 
L 305.561995 136.279591 
L 308.720932 146.122942 
L 311.87987 145.561098 
L 315.038807 143.930382 
L 318.197745 143.136648 
L 321.356683 144.440675 
L 324.51562 144.832246 
L 327.674558 145.981835 
L 330.833495 144.554765 
L 333.992433 142.926394 
L 337.15137 143.437038 
L 340.310308 143.585371 
L 343.469246 146.67915 
L 346.628183 146.174124 
L 349.787121 145.951384 
L 352.946058 141.457478 
L 356.104996 145.533786 
L 359.263934 144.859543 
L 362.422871 140.217342 
L 365.581809 139.671112 
L 368.740746 146.391107 
L 371.899684 145.220723 
L 375.058622 145.102695 
L 378.217559 145.475212 
L 381.376497 143.672278 
" style="fill:none;stroke:#ffa500;stroke-dasharray:8.4,3.6;stroke-dashoffset:0;stroke-width:3;"/>
   </g>
   <g id="patch_8">
    <path d="M 225.482927 153.497872 
L 225.482927 43.2 
" style="fill:none;stroke:#262626;stroke-linecap:square;stroke-linejoin:miter;stroke-width:1.25;"/>
   </g>
   <g id="patch_9">
    <path d="M 388.8 153.497872 
L 388.8 43.2 
" style="fill:none;stroke:#262626;stroke-linecap:square;stroke-linejoin:miter;stroke-width:1.25;"/>
   </g>
   <g id="patch_10">
    <path d="M 225.482927 153.497872 
L 388.8 153.497872 
" style="fill:none;stroke:#262626;stroke-linecap:square;stroke-linejoin:miter;stroke-width:1.25;"/>
   </g>
   <g id="patch_11">
    <path d="M 225.482927 43.2 
L 388.8 43.2 
" style="fill:none;stroke:#262626;stroke-linecap:square;stroke-linejoin:miter;stroke-width:1.25;"/>
   </g>
   <g id="text_12">
    <!-- barcelona -->
    <defs>
     <path d="M 48.78125 52.59375 
L 48.78125 44.1875 
Q 44.96875 46.296875 41.140625 47.34375 
Q 37.3125 48.390625 33.40625 48.390625 
Q 24.65625 48.390625 19.8125 42.84375 
Q 14.984375 37.3125 14.984375 27.296875 
Q 14.984375 17.28125 19.8125 11.734375 
Q 24.65625 6.203125 33.40625 6.203125 
Q 37.3125 6.203125 41.140625 7.25 
Q 44.96875 8.296875 48.78125 10.40625 
L 48.78125 2.09375 
Q 45.015625 0.34375 40.984375 -0.53125 
Q 36.96875 -1.421875 32.421875 -1.421875 
Q 20.0625 -1.421875 12.78125 6.34375 
Q 5.515625 14.109375 5.515625 27.296875 
Q 5.515625 40.671875 12.859375 48.328125 
Q 20.21875 56 33.015625 56 
Q 37.15625 56 41.109375 55.140625 
Q 45.0625 54.296875 48.78125 52.59375 
" id="DejaVuSans-63"/>
     <path d="M 54.890625 33.015625 
L 54.890625 0 
L 45.90625 0 
L 45.90625 32.71875 
Q 45.90625 40.484375 42.875 44.328125 
Q 39.84375 48.1875 33.796875 48.1875 
Q 26.515625 48.1875 22.3125 43.546875 
Q 18.109375 38.921875 18.109375 30.90625 
L 18.109375 0 
L 9.078125 0 
L 9.078125 54.6875 
L 18.109375 54.6875 
L 18.109375 46.1875 
Q 21.34375 51.125 25.703125 53.5625 
Q 30.078125 56 35.796875 56 
Q 45.21875 56 50.046875 50.171875 
Q 54.890625 44.34375 54.890625 33.015625 
" id="DejaVuSans-6e"/>
    </defs>
    <g style="fill:#262626;" transform="translate(268.454682 37.2)scale(0.156 -0.156)">
     <use xlink:href="#DejaVuSans-62"/>
     <use x="63.476562" xlink:href="#DejaVuSans-61"/>
     <use x="124.755859" xlink:href="#DejaVuSans-72"/>
     <use x="165.837891" xlink:href="#DejaVuSans-63"/>
     <use x="220.818359" xlink:href="#DejaVuSans-65"/>
     <use x="282.341797" xlink:href="#DejaVuSans-6c"/>
     <use x="310.125" xlink:href="#DejaVuSans-6f"/>
     <use x="371.306641" xlink:href="#DejaVuSans-6e"/>
     <use x="434.685547" xlink:href="#DejaVuSans-61"/>
    </g>
   </g>
  </g>
  <g id="axes_3">
   <g id="patch_12">
    <path d="M 54 302.4 
L 217.317073 302.4 
L 217.317073 192.102128 
L 54 192.102128 
z
" style="fill:#ffffff;"/>
   </g>
   <g id="matplotlib.axis_5">
    <g id="xtick_7">
     <g id="line2d_29">
      <g>
       <use style="fill:#262626;stroke:#262626;" x="61.423503" xlink:href="#m5bbe6bc171" y="302.4"/>
      </g>
     </g>
     <g id="text_13">
      <!-- 0 -->
      <g style="fill:#262626;" transform="translate(57.287878 325.277969)scale(0.13 -0.13)">
       <use xlink:href="#DejaVuSans-30"/>
      </g>
     </g>
    </g>
    <g id="xtick_8">
     <g id="line2d_30">
      <g>
       <use style="fill:#262626;stroke:#262626;" x="124.602255" xlink:href="#m5bbe6bc171" y="302.4"/>
      </g>
     </g>
     <g id="text_14">
      <!-- 20 -->
      <defs>
       <path d="M 19.1875 8.296875 
L 53.609375 8.296875 
L 53.609375 0 
L 7.328125 0 
L 7.328125 8.296875 
Q 12.9375 14.109375 22.625 23.890625 
Q 32.328125 33.6875 34.8125 36.53125 
Q 39.546875 41.84375 41.421875 45.53125 
Q 43.3125 49.21875 43.3125 52.78125 
Q 43.3125 58.59375 39.234375 62.25 
Q 35.15625 65.921875 28.609375 65.921875 
Q 23.96875 65.921875 18.8125 64.3125 
Q 13.671875 62.703125 7.8125 59.421875 
L 7.8125 69.390625 
Q 13.765625 71.78125 18.9375 73 
Q 24.125 74.21875 28.421875 74.21875 
Q 39.75 74.21875 46.484375 68.546875 
Q 53.21875 62.890625 53.21875 53.421875 
Q 53.21875 48.921875 51.53125 44.890625 
Q 49.859375 40.875 45.40625 35.40625 
Q 44.1875 33.984375 37.640625 27.21875 
Q 31.109375 20.453125 19.1875 8.296875 
" id="DejaVuSans-32"/>
      </defs>
      <g style="fill:#262626;" transform="translate(116.331005 325.277969)scale(0.13 -0.13)">
       <use xlink:href="#DejaVuSans-32"/>
       <use x="63.623047" xlink:href="#DejaVuSans-30"/>
      </g>
     </g>
    </g>
    <g id="xtick_9">
     <g id="line2d_31">
      <g>
       <use style="fill:#262626;stroke:#262626;" x="187.781007" xlink:href="#m5bbe6bc171" y="302.4"/>
      </g>
     </g>
     <g id="text_15">
      <!-- 40 -->
      <defs>
       <path d="M 37.796875 64.3125 
L 12.890625 25.390625 
L 37.796875 25.390625 
z
M 35.203125 72.90625 
L 47.609375 72.90625 
L 47.609375 25.390625 
L 58.015625 25.390625 
L 58.015625 17.1875 
L 47.609375 17.1875 
L 47.609375 0 
L 37.796875 0 
L 37.796875 17.1875 
L 4.890625 17.1875 
L 4.890625 26.703125 
z
" id="DejaVuSans-34"/>
      </defs>
      <g style="fill:#262626;" transform="translate(179.509757 325.277969)scale(0.13 -0.13)">
       <use xlink:href="#DejaVuSans-34"/>
       <use x="63.623047" xlink:href="#DejaVuSans-30"/>
      </g>
     </g>
    </g>
    <g id="text_16">
     <!-- $d \ [km]$ -->
     <g style="fill:#262626;" transform="translate(112.063537 342.847328)scale(0.143 -0.143)">
      <use transform="translate(0 0.015625)" xlink:href="#DejaVuSans-Oblique-64"/>
      <use transform="translate(95.946941 0.015625)" xlink:href="#DejaVuSans-5b"/>
      <use transform="translate(134.960613 0.015625)" xlink:href="#DejaVuSans-Oblique-6b"/>
      <use transform="translate(192.870769 0.015625)" xlink:href="#DejaVuSans-Oblique-6d"/>
      <use transform="translate(290.282878 0.015625)" xlink:href="#DejaVuSans-5d"/>
     </g>
    </g>
   </g>
   <g id="matplotlib.axis_6">
    <g id="ytick_7">
     <g id="line2d_32">
      <g>
       <use style="fill:#262626;stroke:#262626;" x="54" xlink:href="#mf1b7a9332d" y="297.38646"/>
      </g>
     </g>
     <g id="text_17">
      <!-- 0.0 -->
      <g style="fill:#262626;" transform="translate(20.325937 302.325445)scale(0.13 -0.13)">
       <use xlink:href="#DejaVuSans-30"/>
       <use x="63.623047" xlink:href="#DejaVuSans-2e"/>
       <use x="95.410156" xlink:href="#DejaVuSans-30"/>
      </g>
     </g>
    </g>
    <g id="ytick_8">
     <g id="line2d_33">
      <g>
       <use style="fill:#262626;stroke:#262626;" x="54" xlink:href="#mf1b7a9332d" y="247.251064"/>
      </g>
     </g>
     <g id="text_18">
      <!-- 0.5 -->
      <g style="fill:#262626;" transform="translate(20.325937 252.190048)scale(0.13 -0.13)">
       <use xlink:href="#DejaVuSans-30"/>
       <use x="63.623047" xlink:href="#DejaVuSans-2e"/>
       <use x="95.410156" xlink:href="#DejaVuSans-35"/>
      </g>
     </g>
    </g>
    <g id="ytick_9">
     <g id="line2d_34">
      <g>
       <use style="fill:#262626;stroke:#262626;" x="54" xlink:href="#mf1b7a9332d" y="197.115667"/>
      </g>
     </g>
     <g id="text_19">
      <!-- 1.0 -->
      <g style="fill:#262626;" transform="translate(20.325937 202.054652)scale(0.13 -0.13)">
       <use xlink:href="#DejaVuSans-31"/>
       <use x="63.623047" xlink:href="#DejaVuSans-2e"/>
       <use x="95.410156" xlink:href="#DejaVuSans-30"/>
      </g>
     </g>
    </g>
   </g>
   <g id="line2d_35">
    <path clip-path="url(#p39a63e28d2)" d="M 61.423503 297.38646 
L 64.582441 297.38646 
L 67.741378 297.38646 
L 70.900316 297.38646 
L 74.059254 280.674662 
L 77.218191 241.656788 
L 80.377129 197.115667 
L 83.536066 217.005809 
L 86.695004 202.393077 
L 89.853942 209.334467 
L 93.012879 213.126313 
L 96.171817 253.029405 
L 99.330754 243.267194 
L 102.489692 238.145925 
L 105.64863 256.43543 
L 108.807567 262.2698 
L 111.966505 259.503391 
L 115.125442 271.785407 
L 118.28438 243.57448 
L 121.443317 208.900913 
L 124.602255 214.748898 
L 127.761193 233.108095 
L 130.92013 259.888539 
L 134.079068 252.415126 
L 137.238005 261.992488 
L 140.396943 267.524373 
L 143.555881 265.397424 
L 146.714818 272.60129 
L 149.873756 287.096487 
L 153.032693 285.299374 
L 156.191631 277.835686 
L 159.350568 281.427193 
L 162.509506 277.819706 
L 165.668444 284.532856 
L 168.827381 285.252684 
L 171.986319 287.99782 
L 175.145256 284.458929 
L 178.304194 280.956076 
L 181.463132 291.101148 
L 184.622069 295.529235 
L 187.781007 295.509592 
L 190.939944 292.458787 
L 194.098882 295.618866 
L 197.25782 291.231506 
L 200.416757 295.680731 
L 203.575695 297.38646 
L 206.734632 296.183211 
L 209.89357 296.824982 
" style="fill:none;opacity:0.4;stroke:#000000;stroke-linecap:round;stroke-width:2;"/>
   </g>
   <g id="line2d_36">
    <path clip-path="url(#p39a63e28d2)" d="M 61.423503 297.38646 
L 64.582441 297.38646 
L 67.741378 297.38646 
L 70.900316 297.196057 
L 74.059254 285.737491 
L 77.218191 254.862192 
L 80.377129 220.16113 
L 83.536066 210.695282 
L 86.695004 206.408679 
L 89.853942 197.115667 
L 93.012879 225.695514 
L 96.171817 251.589988 
L 99.330754 251.790679 
L 102.489692 252.897577 
L 105.64863 260.305691 
L 108.807567 258.516719 
L 111.966505 266.300631 
L 115.125442 263.000907 
L 118.28438 257.630627 
L 121.443317 253.983768 
L 124.602255 260.842755 
L 127.761193 271.626438 
L 130.92013 280.027821 
L 134.079068 270.233949 
L 137.238005 278.615359 
L 140.396943 280.445281 
L 143.555881 281.56318 
L 146.714818 286.929163 
L 149.873756 292.987259 
L 153.032693 293.79767 
L 156.191631 292.667602 
L 159.350568 289.407594 
L 162.509506 286.682659 
L 165.668444 291.737463 
L 168.827381 293.504021 
L 171.986319 294.715794 
L 175.145256 294.095496 
L 178.304194 294.753263 
L 181.463132 296.8274 
L 184.622069 296.905582 
L 187.781007 296.363553 
L 190.939944 295.057524 
L 194.098882 296.151364 
L 197.25782 296.145679 
L 200.416757 296.752957 
L 203.575695 296.938553 
L 206.734632 296.690537 
L 209.89357 296.711193 
" style="fill:none;opacity:0.4;stroke:#008000;stroke-linecap:round;stroke-width:2;"/>
   </g>
   <g id="line2d_37">
    <path clip-path="url(#p39a63e28d2)" d="M 61.423503 297.38646 
L 64.582441 297.38646 
L 67.741378 293.829202 
L 70.900316 292.926599 
L 74.059254 281.466138 
L 77.218191 255.645854 
L 80.377129 217.149856 
L 83.536066 197.115667 
L 86.695004 199.027154 
L 89.853942 220.170283 
L 93.012879 212.864983 
L 96.171817 232.38528 
L 99.330754 242.479084 
L 102.489692 234.935852 
L 105.64863 249.12986 
L 108.807567 259.550848 
L 111.966505 259.860512 
L 115.125442 265.057968 
L 118.28438 254.272622 
L 121.443317 248.441678 
L 124.602255 237.676468 
L 127.761193 248.152241 
L 130.92013 265.339577 
L 134.079068 269.691072 
L 137.238005 268.442317 
L 140.396943 269.987118 
L 143.555881 269.915461 
L 146.714818 274.166019 
L 149.873756 280.373595 
L 153.032693 279.290183 
L 156.191631 279.952738 
L 159.350568 282.080339 
L 162.509506 284.062699 
L 165.668444 288.34197 
L 168.827381 288.089171 
L 171.986319 290.267309 
L 175.145256 291.35448 
L 178.304194 289.814611 
L 181.463132 292.443044 
L 184.622069 294.233572 
L 187.781007 295.154342 
L 190.939944 295.805697 
L 194.098882 295.944772 
L 197.25782 295.909629 
L 200.416757 295.595267 
L 203.575695 296.522877 
L 206.734632 296.485235 
L 209.89357 296.3777 
" style="fill:none;opacity:0.9;stroke:#ffa500;stroke-linecap:round;stroke-width:2;"/>
   </g>
   <g id="line2d_38">
    <path clip-path="url(#p39a63e28d2)" d="M 61.423503 197.115667 
L 64.582441 197.115667 
L 67.741378 288.082634 
L 70.900316 290.011198 
L 74.059254 281.290126 
L 77.218191 249.85485 
L 80.377129 217.448313 
L 83.536066 203.601551 
L 86.695004 207.353591 
L 89.853942 217.971896 
L 93.012879 217.058889 
L 96.171817 236.212282 
L 99.330754 242.559019 
L 102.489692 242.352453 
L 105.64863 251.521295 
L 108.807567 255.045664 
L 111.966505 256.715337 
L 115.125442 267.015248 
L 118.28438 254.282422 
L 121.443317 247.795927 
L 124.602255 244.844877 
L 127.761193 249.874679 
L 130.92013 263.853979 
L 134.079068 269.00867 
L 137.238005 271.658853 
L 140.396943 273.936285 
L 143.555881 272.763977 
L 146.714818 278.778565 
L 149.873756 282.787311 
L 153.032693 283.079063 
L 156.191631 283.071561 
L 159.350568 284.743735 
L 162.509506 285.886353 
L 165.668444 288.722071 
L 168.827381 289.280143 
L 171.986319 290.373411 
L 175.145256 291.438392 
L 178.304194 290.811536 
L 181.463132 293.1621 
L 184.622069 294.49894 
L 187.781007 294.827797 
L 190.939944 295.474312 
L 194.098882 295.664883 
L 197.25782 295.589645 
L 200.416757 295.418145 
L 203.575695 296.461229 
L 206.734632 296.35061 
L 209.89357 296.435015 
" style="fill:none;stroke:#ffa500;stroke-dasharray:8.4,3.6;stroke-dashoffset:0;stroke-width:3;"/>
   </g>
   <g id="patch_13">
    <path d="M 54 302.4 
L 54 192.102128 
" style="fill:none;stroke:#262626;stroke-linecap:square;stroke-linejoin:miter;stroke-width:1.25;"/>
   </g>
   <g id="patch_14">
    <path d="M 217.317073 302.4 
L 217.317073 192.102128 
" style="fill:none;stroke:#262626;stroke-linecap:square;stroke-linejoin:miter;stroke-width:1.25;"/>
   </g>
   <g id="patch_15">
    <path d="M 54 302.4 
L 217.317073 302.4 
" style="fill:none;stroke:#262626;stroke-linecap:square;stroke-linejoin:miter;stroke-width:1.25;"/>
   </g>
   <g id="patch_16">
    <path d="M 54 192.102128 
L 217.317073 192.102128 
" style="fill:none;stroke:#262626;stroke-linecap:square;stroke-linejoin:miter;stroke-width:1.25;"/>
   </g>
   <g id="text_20">
    <!-- rio de janeiro -->
    <defs>
     <path id="DejaVuSans-20"/>
     <path d="M 9.421875 54.6875 
L 18.40625 54.6875 
L 18.40625 -0.984375 
Q 18.40625 -11.421875 14.421875 -16.109375 
Q 10.453125 -20.796875 1.609375 -20.796875 
L -1.8125 -20.796875 
L -1.8125 -13.1875 
L 0.59375 -13.1875 
Q 5.71875 -13.1875 7.5625 -10.8125 
Q 9.421875 -8.453125 9.421875 -0.984375 
z
M 9.421875 75.984375 
L 18.40625 75.984375 
L 18.40625 64.59375 
L 9.421875 64.59375 
z
" id="DejaVuSans-6a"/>
    </defs>
    <g style="fill:#262626;" transform="translate(83.97013 186.102128)scale(0.156 -0.156)">
     <use xlink:href="#DejaVuSans-72"/>
     <use x="41.113281" xlink:href="#DejaVuSans-69"/>
     <use x="68.896484" xlink:href="#DejaVuSans-6f"/>
     <use x="130.078125" xlink:href="#DejaVuSans-20"/>
     <use x="161.865234" xlink:href="#DejaVuSans-64"/>
     <use x="225.341797" xlink:href="#DejaVuSans-65"/>
     <use x="286.865234" xlink:href="#DejaVuSans-20"/>
     <use x="318.652344" xlink:href="#DejaVuSans-6a"/>
     <use x="346.435547" xlink:href="#DejaVuSans-61"/>
     <use x="407.714844" xlink:href="#DejaVuSans-6e"/>
     <use x="471.09375" xlink:href="#DejaVuSans-65"/>
     <use x="532.617188" xlink:href="#DejaVuSans-69"/>
     <use x="560.400391" xlink:href="#DejaVuSans-72"/>
     <use x="601.482422" xlink:href="#DejaVuSans-6f"/>
    </g>
   </g>
  </g>
  <g id="axes_4">
   <g id="patch_17">
    <path d="M 225.482927 302.4 
L 388.8 302.4 
L 388.8 192.102128 
L 225.482927 192.102128 
z
" style="fill:#ffffff;"/>
   </g>
   <g id="matplotlib.axis_7">
    <g id="xtick_10">
     <g id="line2d_39">
      <g>
       <use style="fill:#262626;stroke:#262626;" x="232.90643" xlink:href="#m5bbe6bc171" y="302.4"/>
      </g>
     </g>
     <g id="text_21">
      <!-- 0 -->
      <g style="fill:#262626;" transform="translate(228.770805 325.277969)scale(0.13 -0.13)">
       <use xlink:href="#DejaVuSans-30"/>
      </g>
     </g>
    </g>
    <g id="xtick_11">
     <g id="line2d_40">
      <g>
       <use style="fill:#262626;stroke:#262626;" x="296.085182" xlink:href="#m5bbe6bc171" y="302.4"/>
      </g>
     </g>
     <g id="text_22">
      <!-- 20 -->
      <g style="fill:#262626;" transform="translate(287.813932 325.277969)scale(0.13 -0.13)">
       <use xlink:href="#DejaVuSans-32"/>
       <use x="63.623047" xlink:href="#DejaVuSans-30"/>
      </g>
     </g>
    </g>
    <g id="xtick_12">
     <g id="line2d_41">
      <g>
       <use style="fill:#262626;stroke:#262626;" x="359.263934" xlink:href="#m5bbe6bc171" y="302.4"/>
      </g>
     </g>
     <g id="text_23">
      <!-- 40 -->
      <g style="fill:#262626;" transform="translate(350.992684 325.277969)scale(0.13 -0.13)">
       <use xlink:href="#DejaVuSans-34"/>
       <use x="63.623047" xlink:href="#DejaVuSans-30"/>
      </g>
     </g>
    </g>
    <g id="text_24">
     <!-- $d \ [km]$ -->
     <g style="fill:#262626;" transform="translate(283.546463 342.847328)scale(0.143 -0.143)">
      <use transform="translate(0 0.015625)" xlink:href="#DejaVuSans-Oblique-64"/>
      <use transform="translate(95.946941 0.015625)" xlink:href="#DejaVuSans-5b"/>
      <use transform="translate(134.960613 0.015625)" xlink:href="#DejaVuSans-Oblique-6b"/>
      <use transform="translate(192.870769 0.015625)" xlink:href="#DejaVuSans-Oblique-6d"/>
      <use transform="translate(290.282878 0.015625)" xlink:href="#DejaVuSans-5d"/>
     </g>
    </g>
   </g>
   <g id="matplotlib.axis_8">
    <g id="ytick_10">
     <g id="line2d_42">
      <g>
       <use style="fill:#262626;stroke:#262626;" x="225.482927" xlink:href="#mf1b7a9332d" y="297.38646"/>
      </g>
     </g>
    </g>
    <g id="ytick_11">
     <g id="line2d_43">
      <g>
       <use style="fill:#262626;stroke:#262626;" x="225.482927" xlink:href="#mf1b7a9332d" y="247.251064"/>
      </g>
     </g>
    </g>
    <g id="ytick_12">
     <g id="line2d_44">
      <g>
       <use style="fill:#262626;stroke:#262626;" x="225.482927" xlink:href="#mf1b7a9332d" y="197.115667"/>
      </g>
     </g>
    </g>
   </g>
   <g id="line2d_45">
    <path clip-path="url(#p3383aa654e)" d="M 232.90643 297.38646 
L 236.065368 297.38646 
L 239.224305 213.190828 
L 242.383243 197.993496 
L 245.54218 197.115667 
L 248.701118 218.19016 
L 251.860056 226.204516 
L 255.018993 256.160396 
L 258.177931 297.38646 
L 261.336868 297.38646 
L 264.495806 297.38646 
L 267.654744 297.38646 
L 270.813681 283.2216 
L 273.972619 292.609632 
L 277.131556 282.098876 
L 280.290494 288.763694 
L 283.449432 279.491695 
L 286.608369 261.842648 
L 289.767307 261.61152 
L 292.926244 264.704781 
L 296.085182 287.196436 
L 299.244119 275.337376 
L 302.403057 271.170721 
L 305.561995 269.192586 
L 308.720932 282.414236 
L 311.87987 263.938566 
L 315.038807 279.425067 
L 318.197745 294.088073 
L 321.356683 279.622646 
L 324.51562 284.126634 
L 327.674558 286.765175 
L 330.833495 289.750242 
L 333.992433 292.226678 
L 337.15137 286.529906 
L 340.310308 293.012932 
L 343.469246 288.089348 
L 346.628183 292.357231 
L 349.787121 290.990149 
L 352.946058 287.733446 
L 356.104996 285.811079 
L 359.263934 285.898059 
L 362.422871 283.62708 
L 365.581809 292.209218 
L 368.740746 294.962558 
L 371.899684 297.38646 
L 375.058622 297.278691 
L 378.217559 296.131988 
L 381.376497 297.38646 
" style="fill:none;opacity:0.4;stroke:#000000;stroke-linecap:round;stroke-width:2;"/>
   </g>
   <g id="line2d_46">
    <path clip-path="url(#p3383aa654e)" d="M 232.90643 297.38646 
L 236.065368 297.38646 
L 239.224305 213.832995 
L 242.383243 197.115667 
L 245.54218 209.971946 
L 248.701118 244.527202 
L 251.860056 264.987667 
L 255.018993 284.684607 
L 258.177931 297.278334 
L 261.336868 297.38646 
L 264.495806 296.852182 
L 267.654744 295.734584 
L 270.813681 295.024361 
L 273.972619 294.688787 
L 277.131556 293.126964 
L 280.290494 294.559539 
L 283.449432 293.764672 
L 286.608369 290.407425 
L 289.767307 289.638209 
L 292.926244 290.528023 
L 296.085182 291.914005 
L 299.244119 292.545642 
L 302.403057 292.446263 
L 305.561995 288.961324 
L 308.720932 289.492664 
L 311.87987 289.87512 
L 315.038807 293.80412 
L 318.197745 293.784599 
L 321.356683 292.621417 
L 324.51562 292.101464 
L 327.674558 294.53684 
L 330.833495 295.811816 
L 333.992433 295.64096 
L 337.15137 296.027693 
L 340.310308 295.839815 
L 343.469246 295.5049 
L 346.628183 296.022706 
L 349.787121 295.941559 
L 352.946058 295.415819 
L 356.104996 295.43817 
L 359.263934 294.991666 
L 362.422871 295.470982 
L 365.581809 296.140649 
L 368.740746 297.264299 
L 371.899684 297.235509 
L 375.058622 297.325642 
L 378.217559 297.214602 
L 381.376497 297.328959 
" style="fill:none;opacity:0.4;stroke:#008000;stroke-linecap:round;stroke-width:2;"/>
   </g>
   <g id="line2d_47">
    <path clip-path="url(#p3383aa654e)" d="M 232.90643 297.38646 
L 236.065368 297.38646 
L 239.224305 225.091569 
L 242.383243 197.115667 
L 245.54218 204.881562 
L 248.701118 234.704509 
L 251.860056 251.131708 
L 255.018993 277.417952 
L 258.177931 294.204183 
L 261.336868 296.09472 
L 264.495806 293.76244 
L 267.654744 294.924451 
L 270.813681 293.517277 
L 273.972619 293.712406 
L 277.131556 288.902612 
L 280.290494 290.443529 
L 283.449432 292.505091 
L 286.608369 288.435571 
L 289.767307 287.976698 
L 292.926244 289.31163 
L 296.085182 286.160296 
L 299.244119 284.57608 
L 302.403057 279.208652 
L 305.561995 280.45764 
L 308.720932 283.209361 
L 311.87987 281.289627 
L 315.038807 291.614868 
L 318.197745 293.128898 
L 321.356683 289.717323 
L 324.51562 287.337753 
L 327.674558 292.11282 
L 330.833495 294.87028 
L 333.992433 294.948218 
L 337.15137 293.429856 
L 340.310308 294.023312 
L 343.469246 293.105627 
L 346.628183 293.956802 
L 349.787121 295.35243 
L 352.946058 294.031914 
L 356.104996 293.49598 
L 359.263934 293.729538 
L 362.422871 295.256436 
L 365.581809 295.264844 
L 368.740746 296.712362 
L 371.899684 297.00739 
L 375.058622 296.983867 
L 378.217559 297.028949 
L 381.376497 297.213185 
" style="fill:none;opacity:0.9;stroke:#ffa500;stroke-linecap:round;stroke-width:2;"/>
   </g>
   <g id="line2d_48">
    <path clip-path="url(#p3383aa654e)" d="M 232.90643 197.115667 
L 236.065368 197.115667 
L 239.224305 219.151817 
L 242.383243 201.143681 
L 245.54218 208.672109 
L 248.701118 231.588101 
L 251.860056 249.283031 
L 255.018993 274.721882 
L 258.177931 294.052616 
L 261.336868 293.291709 
L 264.495806 293.229523 
L 267.654744 292.966118 
L 270.813681 292.567056 
L 273.972619 292.648428 
L 277.131556 288.727288 
L 280.290494 289.789102 
L 283.449432 290.709305 
L 286.608369 285.467089 
L 289.767307 285.568836 
L 292.926244 286.54494 
L 296.085182 285.365365 
L 299.244119 284.297736 
L 302.403057 279.334112 
L 305.561995 281.331524 
L 308.720932 286.102002 
L 311.87987 281.949038 
L 315.038807 290.139843 
L 318.197745 292.748339 
L 321.356683 289.540181 
L 324.51562 288.09145 
L 327.674558 292.122666 
L 330.833495 294.126015 
L 333.992433 294.143326 
L 337.15137 292.888922 
L 340.310308 293.872009 
L 343.469246 293.047319 
L 346.628183 293.777722 
L 349.787121 294.579003 
L 352.946058 293.828815 
L 356.104996 293.383453 
L 359.263934 293.645752 
L 362.422871 294.571709 
L 365.581809 294.914086 
L 368.740746 296.413283 
L 371.899684 296.91872 
L 375.058622 296.876129 
L 378.217559 296.837664 
L 381.376497 297.063098 
" style="fill:none;stroke:#ffa500;stroke-dasharray:8.4,3.6;stroke-dashoffset:0;stroke-width:3;"/>
   </g>
   <g id="patch_18">
    <path d="M 225.482927 302.4 
L 225.482927 192.102128 
" style="fill:none;stroke:#262626;stroke-linecap:square;stroke-linejoin:miter;stroke-width:1.25;"/>
   </g>
   <g id="patch_19">
    <path d="M 388.8 302.4 
L 388.8 192.102128 
" style="fill:none;stroke:#262626;stroke-linecap:square;stroke-linejoin:miter;stroke-width:1.25;"/>
   </g>
   <g id="patch_20">
    <path d="M 225.482927 302.4 
L 388.8 302.4 
" style="fill:none;stroke:#262626;stroke-linecap:square;stroke-linejoin:miter;stroke-width:1.25;"/>
   </g>
   <g id="patch_21">
    <path d="M 225.482927 192.102128 
L 388.8 192.102128 
" style="fill:none;stroke:#262626;stroke-linecap:square;stroke-linejoin:miter;stroke-width:1.25;"/>
   </g>
   <g id="text_25">
    <!-- san francisco -->
    <defs>
     <path d="M 37.109375 75.984375 
L 37.109375 68.5 
L 28.515625 68.5 
Q 23.6875 68.5 21.796875 66.546875 
Q 19.921875 64.59375 19.921875 59.515625 
L 19.921875 54.6875 
L 34.71875 54.6875 
L 34.71875 47.703125 
L 19.921875 47.703125 
L 19.921875 0 
L 10.890625 0 
L 10.890625 47.703125 
L 2.296875 47.703125 
L 2.296875 54.6875 
L 10.890625 54.6875 
L 10.890625 58.5 
Q 10.890625 67.625 15.140625 71.796875 
Q 19.390625 75.984375 28.609375 75.984375 
z
" id="DejaVuSans-66"/>
    </defs>
    <g style="fill:#262626;" transform="translate(255.620026 186.102128)scale(0.156 -0.156)">
     <use xlink:href="#DejaVuSans-73"/>
     <use x="52.099609" xlink:href="#DejaVuSans-61"/>
     <use x="113.378906" xlink:href="#DejaVuSans-6e"/>
     <use x="176.757812" xlink:href="#DejaVuSans-20"/>
     <use x="208.544922" xlink:href="#DejaVuSans-66"/>
     <use x="243.75" xlink:href="#DejaVuSans-72"/>
     <use x="284.863281" xlink:href="#DejaVuSans-61"/>
     <use x="346.142578" xlink:href="#DejaVuSans-6e"/>
     <use x="409.521484" xlink:href="#DejaVuSans-63"/>
     <use x="464.501953" xlink:href="#DejaVuSans-69"/>
     <use x="492.285156" xlink:href="#DejaVuSans-73"/>
     <use x="544.384766" xlink:href="#DejaVuSans-63"/>
     <use x="599.365234" xlink:href="#DejaVuSans-6f"/>
    </g>
   </g>
  </g>
  <g id="text_26">
   <!-- Benchmark luminosity profile -->
   <defs>
    <path d="M 19.671875 34.8125 
L 19.671875 8.109375 
L 35.5 8.109375 
Q 43.453125 8.109375 47.28125 11.40625 
Q 51.125 14.703125 51.125 21.484375 
Q 51.125 28.328125 47.28125 31.5625 
Q 43.453125 34.8125 35.5 34.8125 
z
M 19.671875 64.796875 
L 19.671875 42.828125 
L 34.28125 42.828125 
Q 41.5 42.828125 45.03125 45.53125 
Q 48.578125 48.25 48.578125 53.8125 
Q 48.578125 59.328125 45.03125 62.0625 
Q 41.5 64.796875 34.28125 64.796875 
z
M 9.8125 72.90625 
L 35.015625 72.90625 
Q 46.296875 72.90625 52.390625 68.21875 
Q 58.5 63.53125 58.5 54.890625 
Q 58.5 48.1875 55.375 44.234375 
Q 52.25 40.28125 46.1875 39.3125 
Q 53.46875 37.75 57.5 32.78125 
Q 61.53125 27.828125 61.53125 20.40625 
Q 61.53125 10.640625 54.890625 5.3125 
Q 48.25 0 35.984375 0 
L 9.8125 0 
z
" id="DejaVuSans-42"/>
    <path d="M 54.890625 33.015625 
L 54.890625 0 
L 45.90625 0 
L 45.90625 32.71875 
Q 45.90625 40.484375 42.875 44.328125 
Q 39.84375 48.1875 33.796875 48.1875 
Q 26.515625 48.1875 22.3125 43.546875 
Q 18.109375 38.921875 18.109375 30.90625 
L 18.109375 0 
L 9.078125 0 
L 9.078125 75.984375 
L 18.109375 75.984375 
L 18.109375 46.1875 
Q 21.34375 51.125 25.703125 53.5625 
Q 30.078125 56 35.796875 56 
Q 45.21875 56 50.046875 50.171875 
Q 54.890625 44.34375 54.890625 33.015625 
" id="DejaVuSans-68"/>
    <path d="M 9.078125 75.984375 
L 18.109375 75.984375 
L 18.109375 31.109375 
L 44.921875 54.6875 
L 56.390625 54.6875 
L 27.390625 29.109375 
L 57.625 0 
L 45.90625 0 
L 18.109375 26.703125 
L 18.109375 0 
L 9.078125 0 
z
" id="DejaVuSans-6b"/>
    <path d="M 18.3125 70.21875 
L 18.3125 54.6875 
L 36.8125 54.6875 
L 36.8125 47.703125 
L 18.3125 47.703125 
L 18.3125 18.015625 
Q 18.3125 11.328125 20.140625 9.421875 
Q 21.96875 7.515625 27.59375 7.515625 
L 36.8125 7.515625 
L 36.8125 0 
L 27.59375 0 
Q 17.1875 0 13.234375 3.875 
Q 9.28125 7.765625 9.28125 18.015625 
L 9.28125 47.703125 
L 2.6875 47.703125 
L 2.6875 54.6875 
L 9.28125 54.6875 
L 9.28125 70.21875 
z
" id="DejaVuSans-74"/>
    <path d="M 32.171875 -5.078125 
Q 28.375 -14.84375 24.75 -17.8125 
Q 21.140625 -20.796875 15.09375 -20.796875 
L 7.90625 -20.796875 
L 7.90625 -13.28125 
L 13.1875 -13.28125 
Q 16.890625 -13.28125 18.9375 -11.515625 
Q 21 -9.765625 23.484375 -3.21875 
L 25.09375 0.875 
L 2.984375 54.6875 
L 12.5 54.6875 
L 29.59375 11.921875 
L 46.6875 54.6875 
L 56.203125 54.6875 
z
" id="DejaVuSans-79"/>
   </defs>
   <g style="fill:#262626;" transform="translate(98.37125 20.7975)scale(0.16 -0.16)">
    <use xlink:href="#DejaVuSans-42"/>
    <use x="68.603516" xlink:href="#DejaVuSans-65"/>
    <use x="130.126953" xlink:href="#DejaVuSans-6e"/>
    <use x="193.505859" xlink:href="#DejaVuSans-63"/>
    <use x="248.486328" xlink:href="#DejaVuSans-68"/>
    <use x="311.865234" xlink:href="#DejaVuSans-6d"/>
    <use x="409.277344" xlink:href="#DejaVuSans-61"/>
    <use x="470.556641" xlink:href="#DejaVuSans-72"/>
    <use x="511.669922" xlink:href="#DejaVuSans-6b"/>
    <use x="569.580078" xlink:href="#DejaVuSans-20"/>
    <use x="601.367188" xlink:href="#DejaVuSans-6c"/>
    <use x="629.150391" xlink:href="#DejaVuSans-75"/>
    <use x="692.529297" xlink:href="#DejaVuSans-6d"/>
    <use x="789.941406" xlink:href="#DejaVuSans-69"/>
    <use x="817.724609" xlink:href="#DejaVuSans-6e"/>
    <use x="881.103516" xlink:href="#DejaVuSans-6f"/>
    <use x="942.285156" xlink:href="#DejaVuSans-73"/>
    <use x="994.384766" xlink:href="#DejaVuSans-69"/>
    <use x="1022.167969" xlink:href="#DejaVuSans-74"/>
    <use x="1061.376953" xlink:href="#DejaVuSans-79"/>
    <use x="1120.556641" xlink:href="#DejaVuSans-20"/>
    <use x="1152.34375" xlink:href="#DejaVuSans-70"/>
    <use x="1215.820312" xlink:href="#DejaVuSans-72"/>
    <use x="1256.902344" xlink:href="#DejaVuSans-6f"/>
    <use x="1318.083984" xlink:href="#DejaVuSans-66"/>
    <use x="1353.289062" xlink:href="#DejaVuSans-69"/>
    <use x="1381.072266" xlink:href="#DejaVuSans-6c"/>
    <use x="1408.855469" xlink:href="#DejaVuSans-65"/>
   </g>
  </g>
 </g>
 <defs>
  <clipPath id="p64a6542335">
   <rect height="110.297872" width="163.317073" x="54" y="43.2"/>
  </clipPath>
  <clipPath id="p40404853d1">
   <rect height="110.297872" width="163.317073" x="225.482927" y="43.2"/>
  </clipPath>
  <clipPath id="p39a63e28d2">
   <rect height="110.297872" width="163.317073" x="54" y="192.102128"/>
  </clipPath>
  <clipPath id="p3383aa654e">
   <rect height="110.297872" width="163.317073" x="225.482927" y="192.102128"/>
  </clipPath>
 </defs>
</svg>
