<?xml version="1.0" encoding="utf-8" standalone="no"?>
<!DOCTYPE svg PUBLIC "-//W3C//DTD SVG 1.1//EN"
  "http://www.w3.org/Graphics/SVG/1.1/DTD/svg11.dtd">
<!-- Created with matplotlib (http://matplotlib.org/) -->
<svg height="502pt" version="1.1" viewBox="0 0 291 502" width="291pt" xmlns="http://www.w3.org/2000/svg" xmlns:xlink="http://www.w3.org/1999/xlink">
 <defs>
  <style type="text/css">
*{stroke-linecap:butt;stroke-linejoin:round;}
  </style>
 </defs>
 <g id="figure_1">
  <g id="patch_1">
   <path d="M 0 502.777188 
L 291.914687 502.777188 
L 291.914687 0 
L 0 0 
z
" style="fill:#ffffff;"/>
  </g>
  <g id="axes_1">
   <g id="patch_2">
    <path d="M 44.054688 222.258261 
L 267.254687 222.258261 
L 267.254687 33.18 
L 44.054688 33.18 
z
" style="fill:#ffffff;"/>
   </g>
   <g id="matplotlib.axis_1">
    <g id="xtick_1">
     <g id="line2d_1">
      <defs>
       <path d="M 0 0 
L 0 6 
" id="m925fcd1d55" style="stroke:#262626;"/>
      </defs>
      <g>
       <use style="fill:#262626;stroke:#262626;" x="71.596547" xlink:href="#m925fcd1d55" y="222.258261"/>
      </g>
     </g>
     <g id="text_1">
      <!-- −1 -->
      <defs>
       <path d="M 10.59375 35.5 
L 73.1875 35.5 
L 73.1875 27.203125 
L 10.59375 27.203125 
z
" id="DejaVuSans-2212"/>
       <path d="M 12.40625 8.296875 
L 28.515625 8.296875 
L 28.515625 63.921875 
L 10.984375 60.40625 
L 10.984375 69.390625 
L 28.421875 72.90625 
L 38.28125 72.90625 
L 38.28125 8.296875 
L 54.390625 8.296875 
L 54.390625 0 
L 12.40625 0 
z
" id="DejaVuSans-31"/>
      </defs>
      <g style="fill:#262626;" transform="translate(60.539906 246.655917)scale(0.15 -0.15)">
       <use xlink:href="#DejaVuSans-2212"/>
       <use x="83.789062" xlink:href="#DejaVuSans-31"/>
      </g>
     </g>
    </g>
    <g id="xtick_2">
     <g id="line2d_2">
      <g>
       <use style="fill:#262626;stroke:#262626;" x="178.887436" xlink:href="#m925fcd1d55" y="222.258261"/>
      </g>
     </g>
     <g id="text_2">
      <!-- 0 -->
      <defs>
       <path d="M 31.78125 66.40625 
Q 24.171875 66.40625 20.328125 58.90625 
Q 16.5 51.421875 16.5 36.375 
Q 16.5 21.390625 20.328125 13.890625 
Q 24.171875 6.390625 31.78125 6.390625 
Q 39.453125 6.390625 43.28125 13.890625 
Q 47.125 21.390625 47.125 36.375 
Q 47.125 51.421875 43.28125 58.90625 
Q 39.453125 66.40625 31.78125 66.40625 
M 31.78125 74.21875 
Q 44.046875 74.21875 50.515625 64.515625 
Q 56.984375 54.828125 56.984375 36.375 
Q 56.984375 17.96875 50.515625 8.265625 
Q 44.046875 -1.421875 31.78125 -1.421875 
Q 19.53125 -1.421875 13.0625 8.265625 
Q 6.59375 17.96875 6.59375 36.375 
Q 6.59375 54.828125 13.0625 64.515625 
Q 19.53125 74.21875 31.78125 74.21875 
" id="DejaVuSans-30"/>
      </defs>
      <g style="fill:#262626;" transform="translate(174.115561 246.655917)scale(0.15 -0.15)">
       <use xlink:href="#DejaVuSans-30"/>
      </g>
     </g>
    </g>
   </g>
   <g id="matplotlib.axis_2">
    <g id="ytick_1">
     <g id="line2d_3">
      <defs>
       <path d="M 0 0 
L -6 0 
" id="m4f2533e910" style="stroke:#262626;"/>
      </defs>
      <g>
       <use style="fill:#262626;stroke:#262626;" x="44.054688" xlink:href="#m4f2533e910" y="222.258261"/>
      </g>
     </g>
     <g id="text_3">
      <!-- 0.0 -->
      <defs>
       <path d="M 10.6875 12.40625 
L 21 12.40625 
L 21 0 
L 10.6875 0 
z
" id="DejaVuSans-2e"/>
      </defs>
      <g style="fill:#262626;" transform="translate(7.2 227.957089)scale(0.15 -0.15)">
       <use xlink:href="#DejaVuSans-30"/>
       <use x="63.623047" xlink:href="#DejaVuSans-2e"/>
       <use x="95.410156" xlink:href="#DejaVuSans-30"/>
      </g>
     </g>
    </g>
    <g id="ytick_2">
     <g id="line2d_4">
      <g>
       <use style="fill:#262626;stroke:#262626;" x="44.054688" xlink:href="#m4f2533e910" y="164.20407"/>
      </g>
     </g>
     <g id="text_4">
      <!-- 0.5 -->
      <defs>
       <path d="M 10.796875 72.90625 
L 49.515625 72.90625 
L 49.515625 64.59375 
L 19.828125 64.59375 
L 19.828125 46.734375 
Q 21.96875 47.46875 24.109375 47.828125 
Q 26.265625 48.1875 28.421875 48.1875 
Q 40.625 48.1875 47.75 41.5 
Q 54.890625 34.8125 54.890625 23.390625 
Q 54.890625 11.625 47.5625 5.09375 
Q 40.234375 -1.421875 26.90625 -1.421875 
Q 22.3125 -1.421875 17.546875 -0.640625 
Q 12.796875 0.140625 7.71875 1.703125 
L 7.71875 11.625 
Q 12.109375 9.234375 16.796875 8.0625 
Q 21.484375 6.890625 26.703125 6.890625 
Q 35.15625 6.890625 40.078125 11.328125 
Q 45.015625 15.765625 45.015625 23.390625 
Q 45.015625 31 40.078125 35.4375 
Q 35.15625 39.890625 26.703125 39.890625 
Q 22.75 39.890625 18.8125 39.015625 
Q 14.890625 38.140625 10.796875 36.28125 
z
" id="DejaVuSans-35"/>
      </defs>
      <g style="fill:#262626;" transform="translate(7.2 169.902898)scale(0.15 -0.15)">
       <use xlink:href="#DejaVuSans-30"/>
       <use x="63.623047" xlink:href="#DejaVuSans-2e"/>
       <use x="95.410156" xlink:href="#DejaVuSans-35"/>
      </g>
     </g>
    </g>
    <g id="ytick_3">
     <g id="line2d_5">
      <g>
       <use style="fill:#262626;stroke:#262626;" x="44.054688" xlink:href="#m4f2533e910" y="106.14988"/>
      </g>
     </g>
     <g id="text_5">
      <!-- 1.0 -->
      <g style="fill:#262626;" transform="translate(7.2 111.848708)scale(0.15 -0.15)">
       <use xlink:href="#DejaVuSans-31"/>
       <use x="63.623047" xlink:href="#DejaVuSans-2e"/>
       <use x="95.410156" xlink:href="#DejaVuSans-30"/>
      </g>
     </g>
    </g>
    <g id="ytick_4">
     <g id="line2d_6">
      <g>
       <use style="fill:#262626;stroke:#262626;" x="44.054688" xlink:href="#m4f2533e910" y="48.095689"/>
      </g>
     </g>
     <g id="text_6">
      <!-- 1.5 -->
      <g style="fill:#262626;" transform="translate(7.2 53.794517)scale(0.15 -0.15)">
       <use xlink:href="#DejaVuSans-31"/>
       <use x="63.623047" xlink:href="#DejaVuSans-2e"/>
       <use x="95.410156" xlink:href="#DejaVuSans-35"/>
      </g>
     </g>
    </g>
   </g>
   <g id="patch_3">
    <path clip-path="url(#pc9f5375a81)" d="M 73.838781 222.258261 
L 80.132313 222.258261 
L 80.132313 102.113445 
L 73.838781 102.113445 
z
" style="fill:#4c72b0;opacity:0.4;"/>
   </g>
   <g id="patch_4">
    <path clip-path="url(#pc9f5375a81)" d="M 80.132313 222.258261 
L 86.425844 222.258261 
L 86.425844 106.964898 
L 80.132313 106.964898 
z
" style="fill:#4c72b0;opacity:0.4;"/>
   </g>
   <g id="patch_5">
    <path clip-path="url(#pc9f5375a81)" d="M 86.425844 222.258261 
L 92.719375 222.258261 
L 92.719375 139.783553 
L 86.425844 139.783553 
z
" style="fill:#4c72b0;opacity:0.4;"/>
   </g>
   <g id="patch_6">
    <path clip-path="url(#pc9f5375a81)" d="M 92.719375 222.258261 
L 99.012906 222.258261 
L 99.012906 145.776525 
L 92.719375 145.776525 
z
" style="fill:#4c72b0;opacity:0.4;"/>
   </g>
   <g id="patch_7">
    <path clip-path="url(#pc9f5375a81)" d="M 99.012906 222.258261 
L 105.306438 222.258261 
L 105.306438 159.760126 
L 99.012906 159.760126 
z
" style="fill:#4c72b0;opacity:0.4;"/>
   </g>
   <g id="patch_8">
    <path clip-path="url(#pc9f5375a81)" d="M 105.306438 222.258261 
L 111.599969 222.258261 
L 111.599969 168.321515 
L 105.306438 168.321515 
z
" style="fill:#4c72b0;opacity:0.4;"/>
   </g>
   <g id="patch_9">
    <path clip-path="url(#pc9f5375a81)" d="M 111.599969 222.258261 
L 117.8935 222.258261 
L 117.8935 166.609237 
L 111.599969 166.609237 
z
" style="fill:#4c72b0;opacity:0.4;"/>
   </g>
   <g id="patch_10">
    <path clip-path="url(#pc9f5375a81)" d="M 117.8935 222.258261 
L 124.187031 222.258261 
L 124.187031 165.182339 
L 117.8935 165.182339 
z
" style="fill:#4c72b0;opacity:0.4;"/>
   </g>
   <g id="patch_11">
    <path clip-path="url(#pc9f5375a81)" d="M 124.187031 222.258261 
L 130.480563 222.258261 
L 130.480563 155.764812 
L 124.187031 155.764812 
z
" style="fill:#4c72b0;opacity:0.4;"/>
   </g>
   <g id="patch_12">
    <path clip-path="url(#pc9f5375a81)" d="M 130.480563 222.258261 
L 136.774094 222.258261 
L 136.774094 152.054877 
L 130.480563 152.054877 
z
" style="fill:#4c72b0;opacity:0.4;"/>
   </g>
   <g id="patch_13">
    <path clip-path="url(#pc9f5375a81)" d="M 136.774094 222.258261 
L 143.067625 222.258261 
L 143.067625 112.387111 
L 136.774094 112.387111 
z
" style="fill:#4c72b0;opacity:0.4;"/>
   </g>
   <g id="patch_14">
    <path clip-path="url(#pc9f5375a81)" d="M 143.067625 222.258261 
L 149.361156 222.258261 
L 149.361156 116.382425 
L 143.067625 116.382425 
z
" style="fill:#4c72b0;opacity:0.4;"/>
   </g>
   <g id="patch_15">
    <path clip-path="url(#pc9f5375a81)" d="M 149.361156 222.258261 
L 155.654687 222.258261 
L 155.654687 92.695918 
L 149.361156 92.695918 
z
" style="fill:#4c72b0;opacity:0.4;"/>
   </g>
   <g id="patch_16">
    <path clip-path="url(#pc9f5375a81)" d="M 155.654687 222.258261 
L 161.948219 222.258261 
L 161.948219 64.443336 
L 155.654687 64.443336 
z
" style="fill:#4c72b0;opacity:0.4;"/>
   </g>
   <g id="patch_17">
    <path clip-path="url(#pc9f5375a81)" d="M 161.948219 222.258261 
L 168.24175 222.258261 
L 168.24175 63.872577 
L 161.948219 63.872577 
z
" style="fill:#4c72b0;opacity:0.4;"/>
   </g>
   <g id="patch_18">
    <path clip-path="url(#pc9f5375a81)" d="M 168.24175 222.258261 
L 174.535281 222.258261 
L 174.535281 42.183727 
L 168.24175 42.183727 
z
" style="fill:#4c72b0;opacity:0.4;"/>
   </g>
   <g id="patch_19">
    <path clip-path="url(#pc9f5375a81)" d="M 174.535281 222.258261 
L 180.828812 222.258261 
L 180.828812 70.721688 
L 174.535281 70.721688 
z
" style="fill:#4c72b0;opacity:0.4;"/>
   </g>
   <g id="patch_20">
    <path clip-path="url(#pc9f5375a81)" d="M 180.828812 222.258261 
L 187.122344 222.258261 
L 187.122344 124.373055 
L 180.828812 124.373055 
z
" style="fill:#4c72b0;opacity:0.4;"/>
   </g>
   <g id="patch_21">
    <path clip-path="url(#pc9f5375a81)" d="M 187.122344 222.258261 
L 193.415875 222.258261 
L 193.415875 162.043163 
L 187.122344 162.043163 
z
" style="fill:#4c72b0;opacity:0.4;"/>
   </g>
   <g id="patch_22">
    <path clip-path="url(#pc9f5375a81)" d="M 193.415875 222.258261 
L 199.709406 222.258261 
L 199.709406 191.151883 
L 193.415875 191.151883 
z
" style="fill:#4c72b0;opacity:0.4;"/>
   </g>
   <g id="patch_23">
    <path clip-path="url(#pc9f5375a81)" d="M 199.709406 222.258261 
L 206.002937 222.258261 
L 206.002937 202.852447 
L 199.709406 202.852447 
z
" style="fill:#4c72b0;opacity:0.4;"/>
   </g>
   <g id="patch_24">
    <path clip-path="url(#pc9f5375a81)" d="M 206.002937 222.258261 
L 212.296469 222.258261 
L 212.296469 210.557697 
L 206.002937 210.557697 
z
" style="fill:#4c72b0;opacity:0.4;"/>
   </g>
   <g id="patch_25">
    <path clip-path="url(#pc9f5375a81)" d="M 212.296469 222.258261 
L 218.59 222.258261 
L 218.59 219.119085 
L 212.296469 219.119085 
z
" style="fill:#4c72b0;opacity:0.4;"/>
   </g>
   <g id="patch_26">
    <path clip-path="url(#pc9f5375a81)" d="M 218.59 222.258261 
L 224.883531 222.258261 
L 224.883531 221.116742 
L 218.59 221.116742 
z
" style="fill:#4c72b0;opacity:0.4;"/>
   </g>
   <g id="patch_27">
    <path clip-path="url(#pc9f5375a81)" d="M 224.883531 222.258261 
L 231.177062 222.258261 
L 231.177062 221.687502 
L 224.883531 221.687502 
z
" style="fill:#4c72b0;opacity:0.4;"/>
   </g>
   <g id="patch_28">
    <path clip-path="url(#pc9f5375a81)" d="M 231.177062 222.258261 
L 237.470594 222.258261 
L 237.470594 221.402122 
L 231.177062 221.402122 
z
" style="fill:#4c72b0;opacity:0.4;"/>
   </g>
   <g id="line2d_7">
    <path clip-path="url(#pc9f5375a81)" d="M 54.200142 222.078224 
L 55.797851 221.874999 
L 57.395561 221.483209 
L 58.99327 220.771377 
L 60.59098 219.551545 
L 62.188689 217.579677 
L 63.786398 214.573021 
L 65.384108 210.249403 
L 66.981817 204.387384 
L 68.579526 196.897274 
L 70.177236 187.884598 
L 73.372655 166.845635 
L 74.970364 156.070735 
L 76.568073 146.105732 
L 78.165783 137.622786 
L 79.763492 131.11551 
L 81.361201 126.834794 
L 82.958911 124.775799 
L 84.55662 124.712408 
L 86.15433 126.26446 
L 87.752039 128.978549 
L 89.349748 132.404425 
L 94.142876 143.557712 
L 95.740586 146.928008 
L 97.338295 150.014794 
L 98.936005 152.824776 
L 100.533714 155.376913 
L 102.131423 157.686263 
L 103.729133 159.756808 
L 105.326842 161.580967 
L 106.924551 163.142732 
L 108.522261 164.421947 
L 110.11997 165.398306 
L 111.71768 166.05449 
L 113.315389 166.378333 
L 114.913098 166.363985 
L 116.510808 166.012065 
L 118.108517 165.328647 
L 119.706227 164.322731 
L 121.303936 163.001999 
L 122.901645 161.367298 
L 124.499355 159.407544 
L 126.097064 157.097865 
L 127.694773 154.403963 
L 129.292483 151.294002 
L 130.890192 147.756107 
L 132.487902 143.815933 
L 135.68332 135.065648 
L 140.476448 121.687895 
L 143.671867 113.521121 
L 148.464995 101.349209 
L 151.660414 92.448172 
L 156.453542 78.93901 
L 158.051252 74.893318 
L 159.648961 71.244088 
L 161.24667 68.045264 
L 162.84438 65.336286 
L 164.442089 63.167866 
L 166.039798 61.625913 
L 167.637508 60.843359 
L 169.235217 60.993799 
L 170.832927 62.267328 
L 172.430636 64.835005 
L 174.028345 68.811734 
L 175.626055 74.227101 
L 177.223764 81.01064 
L 178.821473 88.993886 
L 180.419183 97.927738 
L 183.614602 117.424317 
L 186.81002 137.064481 
L 190.005439 154.990786 
L 191.603148 162.982482 
L 193.200858 170.254118 
L 194.798567 176.797104 
L 196.396277 182.628163 
L 197.993986 187.78369 
L 199.591695 192.3164 
L 201.189405 196.292134 
L 202.787114 199.785063 
L 204.384824 202.870731 
L 205.982533 205.617972 
L 207.580242 208.081748 
L 209.177952 210.299031 
L 210.775661 212.288993 
L 212.37337 214.057283 
L 213.97108 215.602831 
L 215.568789 216.924872 
L 217.166499 218.02814 
L 218.764208 218.925141 
L 220.361917 219.635644 
L 221.959627 220.184433 
L 225.155045 220.905233 
L 228.350464 221.296113 
L 234.741302 221.709379 
L 244.327558 222.138131 
L 252.316105 222.242205 
L 257.109233 222.177216 
L 257.109233 222.177216 
" style="fill:none;stroke:#4c72b0;stroke-linecap:round;stroke-width:1.75;"/>
   </g>
   <g id="patch_29">
    <path d="M 44.054688 222.258261 
L 44.054688 33.18 
" style="fill:none;stroke:#262626;stroke-linecap:square;stroke-linejoin:miter;stroke-width:1.25;"/>
   </g>
   <g id="patch_30">
    <path d="M 267.254687 222.258261 
L 267.254687 33.18 
" style="fill:none;stroke:#262626;stroke-linecap:square;stroke-linejoin:miter;stroke-width:1.25;"/>
   </g>
   <g id="patch_31">
    <path d="M 44.054688 222.258261 
L 267.254687 222.258261 
" style="fill:none;stroke:#262626;stroke-linecap:square;stroke-linejoin:miter;stroke-width:1.25;"/>
   </g>
   <g id="patch_32">
    <path d="M 44.054688 33.18 
L 267.254687 33.18 
" style="fill:none;stroke:#262626;stroke-linecap:square;stroke-linejoin:miter;stroke-width:1.25;"/>
   </g>
   <g id="text_7">
    <!-- discrepancy $\hat \delta_{lum}$ distribution -->
    <defs>
     <path d="M 45.40625 46.390625 
L 45.40625 75.984375 
L 54.390625 75.984375 
L 54.390625 0 
L 45.40625 0 
L 45.40625 8.203125 
Q 42.578125 3.328125 38.25 0.953125 
Q 33.9375 -1.421875 27.875 -1.421875 
Q 17.96875 -1.421875 11.734375 6.484375 
Q 5.515625 14.40625 5.515625 27.296875 
Q 5.515625 40.1875 11.734375 48.09375 
Q 17.96875 56 27.875 56 
Q 33.9375 56 38.25 53.625 
Q 42.578125 51.265625 45.40625 46.390625 
M 14.796875 27.296875 
Q 14.796875 17.390625 18.875 11.75 
Q 22.953125 6.109375 30.078125 6.109375 
Q 37.203125 6.109375 41.296875 11.75 
Q 45.40625 17.390625 45.40625 27.296875 
Q 45.40625 37.203125 41.296875 42.84375 
Q 37.203125 48.484375 30.078125 48.484375 
Q 22.953125 48.484375 18.875 42.84375 
Q 14.796875 37.203125 14.796875 27.296875 
" id="DejaVuSans-64"/>
     <path d="M 9.421875 54.6875 
L 18.40625 54.6875 
L 18.40625 0 
L 9.421875 0 
z
M 9.421875 75.984375 
L 18.40625 75.984375 
L 18.40625 64.59375 
L 9.421875 64.59375 
z
" id="DejaVuSans-69"/>
     <path d="M 44.28125 53.078125 
L 44.28125 44.578125 
Q 40.484375 46.53125 36.375 47.5 
Q 32.28125 48.484375 27.875 48.484375 
Q 21.1875 48.484375 17.84375 46.4375 
Q 14.5 44.390625 14.5 40.28125 
Q 14.5 37.15625 16.890625 35.375 
Q 19.28125 33.59375 26.515625 31.984375 
L 29.59375 31.296875 
Q 39.15625 29.25 43.1875 25.515625 
Q 47.21875 21.78125 47.21875 15.09375 
Q 47.21875 7.46875 41.1875 3.015625 
Q 35.15625 -1.421875 24.609375 -1.421875 
Q 20.21875 -1.421875 15.453125 -0.5625 
Q 10.6875 0.296875 5.421875 2 
L 5.421875 11.28125 
Q 10.40625 8.6875 15.234375 7.390625 
Q 20.0625 6.109375 24.8125 6.109375 
Q 31.15625 6.109375 34.5625 8.28125 
Q 37.984375 10.453125 37.984375 14.40625 
Q 37.984375 18.0625 35.515625 20.015625 
Q 33.0625 21.96875 24.703125 23.78125 
L 21.578125 24.515625 
Q 13.234375 26.265625 9.515625 29.90625 
Q 5.8125 33.546875 5.8125 39.890625 
Q 5.8125 47.609375 11.28125 51.796875 
Q 16.75 56 26.8125 56 
Q 31.78125 56 36.171875 55.265625 
Q 40.578125 54.546875 44.28125 53.078125 
" id="DejaVuSans-73"/>
     <path d="M 48.78125 52.59375 
L 48.78125 44.1875 
Q 44.96875 46.296875 41.140625 47.34375 
Q 37.3125 48.390625 33.40625 48.390625 
Q 24.65625 48.390625 19.8125 42.84375 
Q 14.984375 37.3125 14.984375 27.296875 
Q 14.984375 17.28125 19.8125 11.734375 
Q 24.65625 6.203125 33.40625 6.203125 
Q 37.3125 6.203125 41.140625 7.25 
Q 44.96875 8.296875 48.78125 10.40625 
L 48.78125 2.09375 
Q 45.015625 0.34375 40.984375 -0.53125 
Q 36.96875 -1.421875 32.421875 -1.421875 
Q 20.0625 -1.421875 12.78125 6.34375 
Q 5.515625 14.109375 5.515625 27.296875 
Q 5.515625 40.671875 12.859375 48.328125 
Q 20.21875 56 33.015625 56 
Q 37.15625 56 41.109375 55.140625 
Q 45.0625 54.296875 48.78125 52.59375 
" id="DejaVuSans-63"/>
     <path d="M 41.109375 46.296875 
Q 39.59375 47.171875 37.8125 47.578125 
Q 36.03125 48 33.890625 48 
Q 26.265625 48 22.1875 43.046875 
Q 18.109375 38.09375 18.109375 28.8125 
L 18.109375 0 
L 9.078125 0 
L 9.078125 54.6875 
L 18.109375 54.6875 
L 18.109375 46.1875 
Q 20.953125 51.171875 25.484375 53.578125 
Q 30.03125 56 36.53125 56 
Q 37.453125 56 38.578125 55.875 
Q 39.703125 55.765625 41.0625 55.515625 
z
" id="DejaVuSans-72"/>
     <path d="M 56.203125 29.59375 
L 56.203125 25.203125 
L 14.890625 25.203125 
Q 15.484375 15.921875 20.484375 11.0625 
Q 25.484375 6.203125 34.421875 6.203125 
Q 39.59375 6.203125 44.453125 7.46875 
Q 49.3125 8.734375 54.109375 11.28125 
L 54.109375 2.78125 
Q 49.265625 0.734375 44.1875 -0.34375 
Q 39.109375 -1.421875 33.890625 -1.421875 
Q 20.796875 -1.421875 13.15625 6.1875 
Q 5.515625 13.8125 5.515625 26.8125 
Q 5.515625 40.234375 12.765625 48.109375 
Q 20.015625 56 32.328125 56 
Q 43.359375 56 49.78125 48.890625 
Q 56.203125 41.796875 56.203125 29.59375 
M 47.21875 32.234375 
Q 47.125 39.59375 43.09375 43.984375 
Q 39.0625 48.390625 32.421875 48.390625 
Q 24.90625 48.390625 20.390625 44.140625 
Q 15.875 39.890625 15.1875 32.171875 
z
" id="DejaVuSans-65"/>
     <path d="M 18.109375 8.203125 
L 18.109375 -20.796875 
L 9.078125 -20.796875 
L 9.078125 54.6875 
L 18.109375 54.6875 
L 18.109375 46.390625 
Q 20.953125 51.265625 25.265625 53.625 
Q 29.59375 56 35.59375 56 
Q 45.5625 56 51.78125 48.09375 
Q 58.015625 40.1875 58.015625 27.296875 
Q 58.015625 14.40625 51.78125 6.484375 
Q 45.5625 -1.421875 35.59375 -1.421875 
Q 29.59375 -1.421875 25.265625 0.953125 
Q 20.953125 3.328125 18.109375 8.203125 
M 48.6875 27.296875 
Q 48.6875 37.203125 44.609375 42.84375 
Q 40.53125 48.484375 33.40625 48.484375 
Q 26.265625 48.484375 22.1875 42.84375 
Q 18.109375 37.203125 18.109375 27.296875 
Q 18.109375 17.390625 22.1875 11.75 
Q 26.265625 6.109375 33.40625 6.109375 
Q 40.53125 6.109375 44.609375 11.75 
Q 48.6875 17.390625 48.6875 27.296875 
" id="DejaVuSans-70"/>
     <path d="M 34.28125 27.484375 
Q 23.390625 27.484375 19.1875 25 
Q 14.984375 22.515625 14.984375 16.5 
Q 14.984375 11.71875 18.140625 8.90625 
Q 21.296875 6.109375 26.703125 6.109375 
Q 34.1875 6.109375 38.703125 11.40625 
Q 43.21875 16.703125 43.21875 25.484375 
L 43.21875 27.484375 
z
M 52.203125 31.203125 
L 52.203125 0 
L 43.21875 0 
L 43.21875 8.296875 
Q 40.140625 3.328125 35.546875 0.953125 
Q 30.953125 -1.421875 24.3125 -1.421875 
Q 15.921875 -1.421875 10.953125 3.296875 
Q 6 8.015625 6 15.921875 
Q 6 25.140625 12.171875 29.828125 
Q 18.359375 34.515625 30.609375 34.515625 
L 43.21875 34.515625 
L 43.21875 35.40625 
Q 43.21875 41.609375 39.140625 45 
Q 35.0625 48.390625 27.6875 48.390625 
Q 23 48.390625 18.546875 47.265625 
Q 14.109375 46.140625 10.015625 43.890625 
L 10.015625 52.203125 
Q 14.9375 54.109375 19.578125 55.046875 
Q 24.21875 56 28.609375 56 
Q 40.484375 56 46.34375 49.84375 
Q 52.203125 43.703125 52.203125 31.203125 
" id="DejaVuSans-61"/>
     <path d="M 54.890625 33.015625 
L 54.890625 0 
L 45.90625 0 
L 45.90625 32.71875 
Q 45.90625 40.484375 42.875 44.328125 
Q 39.84375 48.1875 33.796875 48.1875 
Q 26.515625 48.1875 22.3125 43.546875 
Q 18.109375 38.921875 18.109375 30.90625 
L 18.109375 0 
L 9.078125 0 
L 9.078125 54.6875 
L 18.109375 54.6875 
L 18.109375 46.1875 
Q 21.34375 51.125 25.703125 53.5625 
Q 30.078125 56 35.796875 56 
Q 45.21875 56 50.046875 50.171875 
Q 54.890625 44.34375 54.890625 33.015625 
" id="DejaVuSans-6e"/>
     <path d="M 32.171875 -5.078125 
Q 28.375 -14.84375 24.75 -17.8125 
Q 21.140625 -20.796875 15.09375 -20.796875 
L 7.90625 -20.796875 
L 7.90625 -13.28125 
L 13.1875 -13.28125 
Q 16.890625 -13.28125 18.9375 -11.515625 
Q 21 -9.765625 23.484375 -3.21875 
L 25.09375 0.875 
L 2.984375 54.6875 
L 12.5 54.6875 
L 29.59375 11.921875 
L 46.6875 54.6875 
L 56.203125 54.6875 
z
" id="DejaVuSans-79"/>
     <path id="DejaVuSans-20"/>
     <path d="M -28.609375 79.984375 
L -21.390625 79.984375 
L -9.421875 61.625 
L -16.21875 61.625 
L -25 73.578125 
L -33.796875 61.625 
L -40.578125 61.625 
z
M -25 56 
z
" id="DejaVuSans-302"/>
     <path d="M 54.25 63.328125 
Q 49.953125 66.75 38.28125 66.75 
Q 25.921875 66.75 24.8125 61.03125 
Q 23.921875 56.546875 36.375 54.203125 
Q 46.140625 52.390625 50.828125 46.921875 
Q 56.5 40.328125 53.859375 26.8125 
Q 51.3125 13.875 43.171875 6.25 
Q 34.96875 -1.421875 23.25 -1.421875 
Q 11.578125 -1.421875 6.34375 6.25 
Q 1.125 13.875 3.765625 27.296875 
Q 5.671875 37.25 13.921875 45.3125 
Q 17.140625 48.4375 21.140625 50.203125 
Q 14.265625 54.046875 15.625 60.9375 
Q 18.21875 74.21875 39.75 74.21875 
Q 50.53125 74.21875 55.71875 70.796875 
z
M 27.390625 47.75 
Q 23.828125 46.34375 20.40625 42.78125 
Q 15.140625 37.25 13.234375 27.296875 
Q 11.28125 17.390625 14.359375 11.8125 
Q 17.484375 6.203125 24.75 6.203125 
Q 31.9375 6.203125 37.203125 11.859375 
Q 42.53125 17.53125 44.34375 26.8125 
Q 46.1875 36.53125 42.671875 41.21875 
Q 38.921875 46.234375 32.859375 46.78125 
Q 29.78125 47.078125 27.390625 47.75 
" id="DejaVuSans-Oblique-3b4"/>
     <path d="M 18.3125 75.984375 
L 27.296875 75.984375 
L 12.5 0 
L 3.515625 0 
z
" id="DejaVuSans-Oblique-6c"/>
     <path d="M 6.6875 21.6875 
L 13.09375 54.6875 
L 22.125 54.6875 
L 15.71875 22.015625 
Q 15.234375 19.625 15.015625 17.921875 
Q 14.796875 16.21875 14.796875 15.09375 
Q 14.796875 10.9375 17.328125 8.65625 
Q 19.875 6.390625 24.515625 6.390625 
Q 31.734375 6.390625 37 11.265625 
Q 42.28125 16.15625 43.890625 24.421875 
L 49.90625 54.6875 
L 58.890625 54.6875 
L 48.296875 0 
L 39.3125 0 
L 41.109375 8.59375 
Q 37.3125 3.8125 32.0625 1.1875 
Q 26.8125 -1.421875 20.90625 -1.421875 
Q 13.71875 -1.421875 9.71875 2.515625 
Q 5.71875 6.453125 5.71875 13.484375 
Q 5.71875 14.9375 5.953125 17.140625 
Q 6.203125 19.34375 6.6875 21.6875 
" id="DejaVuSans-Oblique-75"/>
     <path d="M 89.796875 33.015625 
L 83.40625 0 
L 74.421875 0 
L 80.71875 32.71875 
Q 81.109375 34.8125 81.296875 36.328125 
Q 81.5 37.84375 81.5 38.921875 
Q 81.5 43.3125 79.046875 45.75 
Q 76.609375 48.1875 72.21875 48.1875 
Q 65.671875 48.1875 60.546875 43.28125 
Q 55.421875 38.375 53.90625 30.515625 
L 47.90625 0 
L 38.921875 0 
L 45.3125 32.71875 
Q 45.703125 34.515625 45.890625 36.046875 
Q 46.09375 37.59375 46.09375 38.8125 
Q 46.09375 43.265625 43.65625 45.71875 
Q 41.21875 48.1875 36.921875 48.1875 
Q 30.28125 48.1875 25.140625 43.28125 
Q 20.015625 38.375 18.5 30.515625 
L 12.5 0 
L 3.515625 0 
L 14.203125 54.6875 
L 23.1875 54.6875 
L 21.484375 46.1875 
Q 25.140625 50.984375 30.046875 53.484375 
Q 34.96875 56 40.578125 56 
Q 46.53125 56 50.359375 52.875 
Q 54.203125 49.75 54.984375 44.1875 
Q 59.078125 49.953125 64.46875 52.96875 
Q 69.875 56 75.875 56 
Q 82.90625 56 86.734375 51.953125 
Q 90.578125 47.90625 90.578125 40.484375 
Q 90.578125 38.875 90.375 36.9375 
Q 90.1875 35.015625 89.796875 33.015625 
" id="DejaVuSans-Oblique-6d"/>
     <path d="M 18.3125 70.21875 
L 18.3125 54.6875 
L 36.8125 54.6875 
L 36.8125 47.703125 
L 18.3125 47.703125 
L 18.3125 18.015625 
Q 18.3125 11.328125 20.140625 9.421875 
Q 21.96875 7.515625 27.59375 7.515625 
L 36.8125 7.515625 
L 36.8125 0 
L 27.59375 0 
Q 17.1875 0 13.234375 3.875 
Q 9.28125 7.765625 9.28125 18.015625 
L 9.28125 47.703125 
L 2.6875 47.703125 
L 2.6875 54.6875 
L 9.28125 54.6875 
L 9.28125 70.21875 
z
" id="DejaVuSans-74"/>
     <path d="M 48.6875 27.296875 
Q 48.6875 37.203125 44.609375 42.84375 
Q 40.53125 48.484375 33.40625 48.484375 
Q 26.265625 48.484375 22.1875 42.84375 
Q 18.109375 37.203125 18.109375 27.296875 
Q 18.109375 17.390625 22.1875 11.75 
Q 26.265625 6.109375 33.40625 6.109375 
Q 40.53125 6.109375 44.609375 11.75 
Q 48.6875 17.390625 48.6875 27.296875 
M 18.109375 46.390625 
Q 20.953125 51.265625 25.265625 53.625 
Q 29.59375 56 35.59375 56 
Q 45.5625 56 51.78125 48.09375 
Q 58.015625 40.1875 58.015625 27.296875 
Q 58.015625 14.40625 51.78125 6.484375 
Q 45.5625 -1.421875 35.59375 -1.421875 
Q 29.59375 -1.421875 25.265625 0.953125 
Q 20.953125 3.328125 18.109375 8.203125 
L 18.109375 0 
L 9.078125 0 
L 9.078125 75.984375 
L 18.109375 75.984375 
z
" id="DejaVuSans-62"/>
     <path d="M 8.5 21.578125 
L 8.5 54.6875 
L 17.484375 54.6875 
L 17.484375 21.921875 
Q 17.484375 14.15625 20.5 10.265625 
Q 23.53125 6.390625 29.59375 6.390625 
Q 36.859375 6.390625 41.078125 11.03125 
Q 45.3125 15.671875 45.3125 23.6875 
L 45.3125 54.6875 
L 54.296875 54.6875 
L 54.296875 0 
L 45.3125 0 
L 45.3125 8.40625 
Q 42.046875 3.421875 37.71875 1 
Q 33.40625 -1.421875 27.6875 -1.421875 
Q 18.265625 -1.421875 13.375 4.4375 
Q 8.5 10.296875 8.5 21.578125 
M 31.109375 56 
z
" id="DejaVuSans-75"/>
     <path d="M 30.609375 48.390625 
Q 23.390625 48.390625 19.1875 42.75 
Q 14.984375 37.109375 14.984375 27.296875 
Q 14.984375 17.484375 19.15625 11.84375 
Q 23.34375 6.203125 30.609375 6.203125 
Q 37.796875 6.203125 41.984375 11.859375 
Q 46.1875 17.53125 46.1875 27.296875 
Q 46.1875 37.015625 41.984375 42.703125 
Q 37.796875 48.390625 30.609375 48.390625 
M 30.609375 56 
Q 42.328125 56 49.015625 48.375 
Q 55.71875 40.765625 55.71875 27.296875 
Q 55.71875 13.875 49.015625 6.21875 
Q 42.328125 -1.421875 30.609375 -1.421875 
Q 18.84375 -1.421875 12.171875 6.21875 
Q 5.515625 13.875 5.515625 27.296875 
Q 5.515625 40.765625 12.171875 48.375 
Q 18.84375 56 30.609375 56 
" id="DejaVuSans-6f"/>
    </defs>
    <g style="fill:#262626;" transform="translate(26.594687 27.18)scale(0.18 -0.18)">
     <use transform="translate(0 0.296875)" xlink:href="#DejaVuSans-64"/>
     <use transform="translate(63.476562 0.296875)" xlink:href="#DejaVuSans-69"/>
     <use transform="translate(91.259766 0.296875)" xlink:href="#DejaVuSans-73"/>
     <use transform="translate(143.359375 0.296875)" xlink:href="#DejaVuSans-63"/>
     <use transform="translate(198.339844 0.296875)" xlink:href="#DejaVuSans-72"/>
     <use transform="translate(239.453125 0.296875)" xlink:href="#DejaVuSans-65"/>
     <use transform="translate(300.976562 0.296875)" xlink:href="#DejaVuSans-70"/>
     <use transform="translate(364.453125 0.296875)" xlink:href="#DejaVuSans-61"/>
     <use transform="translate(425.732422 0.296875)" xlink:href="#DejaVuSans-6e"/>
     <use transform="translate(489.111328 0.296875)" xlink:href="#DejaVuSans-63"/>
     <use transform="translate(544.091797 0.296875)" xlink:href="#DejaVuSans-79"/>
     <use transform="translate(603.271484 0.296875)" xlink:href="#DejaVuSans-20"/>
     <use transform="translate(694.476562 31.015625)" xlink:href="#DejaVuSans-302"/>
     <use transform="translate(635.058594 0.296875)" xlink:href="#DejaVuSans-Oblique-3b4"/>
     <use transform="translate(697.197266 -16.109375)scale(0.7)" xlink:href="#DejaVuSans-Oblique-6c"/>
     <use transform="translate(716.645508 -16.109375)scale(0.7)" xlink:href="#DejaVuSans-Oblique-75"/>
     <use transform="translate(761.010742 -16.109375)scale(0.7)" xlink:href="#DejaVuSans-Oblique-6d"/>
     <use transform="translate(831.933594 0.296875)" xlink:href="#DejaVuSans-20"/>
     <use transform="translate(863.720703 0.296875)" xlink:href="#DejaVuSans-64"/>
     <use transform="translate(927.197266 0.296875)" xlink:href="#DejaVuSans-69"/>
     <use transform="translate(954.980469 0.296875)" xlink:href="#DejaVuSans-73"/>
     <use transform="translate(1007.080078 0.296875)" xlink:href="#DejaVuSans-74"/>
     <use transform="translate(1046.289062 0.296875)" xlink:href="#DejaVuSans-72"/>
     <use transform="translate(1087.402344 0.296875)" xlink:href="#DejaVuSans-69"/>
     <use transform="translate(1115.185547 0.296875)" xlink:href="#DejaVuSans-62"/>
     <use transform="translate(1178.662109 0.296875)" xlink:href="#DejaVuSans-75"/>
     <use transform="translate(1242.041016 0.296875)" xlink:href="#DejaVuSans-74"/>
     <use transform="translate(1281.25 0.296875)" xlink:href="#DejaVuSans-69"/>
     <use transform="translate(1309.033203 0.296875)" xlink:href="#DejaVuSans-6f"/>
     <use transform="translate(1370.214844 0.296875)" xlink:href="#DejaVuSans-6e"/>
    </g>
   </g>
  </g>
  <g id="axes_2">
   <g id="patch_33">
    <path d="M 44.054688 468.06 
L 267.254687 468.06 
L 267.254687 278.981739 
L 44.054688 278.981739 
z
" style="fill:#ffffff;"/>
   </g>
   <g id="matplotlib.axis_3">
    <g id="xtick_3">
     <g id="line2d_8">
      <g>
       <use style="fill:#262626;stroke:#262626;" x="95.947774" xlink:href="#m925fcd1d55" y="468.06"/>
      </g>
     </g>
     <g id="text_8">
      <!-- −4 -->
      <defs>
       <path d="M 37.796875 64.3125 
L 12.890625 25.390625 
L 37.796875 25.390625 
z
M 35.203125 72.90625 
L 47.609375 72.90625 
L 47.609375 25.390625 
L 58.015625 25.390625 
L 58.015625 17.1875 
L 47.609375 17.1875 
L 47.609375 0 
L 37.796875 0 
L 37.796875 17.1875 
L 4.890625 17.1875 
L 4.890625 26.703125 
z
" id="DejaVuSans-34"/>
      </defs>
      <g style="fill:#262626;" transform="translate(84.891133 492.457656)scale(0.15 -0.15)">
       <use xlink:href="#DejaVuSans-2212"/>
       <use x="83.789062" xlink:href="#DejaVuSans-34"/>
      </g>
     </g>
    </g>
    <g id="xtick_4">
     <g id="line2d_9">
      <g>
       <use style="fill:#262626;stroke:#262626;" x="166.530752" xlink:href="#m925fcd1d55" y="468.06"/>
      </g>
     </g>
     <g id="text_9">
      <!-- −2 -->
      <defs>
       <path d="M 19.1875 8.296875 
L 53.609375 8.296875 
L 53.609375 0 
L 7.328125 0 
L 7.328125 8.296875 
Q 12.9375 14.109375 22.625 23.890625 
Q 32.328125 33.6875 34.8125 36.53125 
Q 39.546875 41.84375 41.421875 45.53125 
Q 43.3125 49.21875 43.3125 52.78125 
Q 43.3125 58.59375 39.234375 62.25 
Q 35.15625 65.921875 28.609375 65.921875 
Q 23.96875 65.921875 18.8125 64.3125 
Q 13.671875 62.703125 7.8125 59.421875 
L 7.8125 69.390625 
Q 13.765625 71.78125 18.9375 73 
Q 24.125 74.21875 28.421875 74.21875 
Q 39.75 74.21875 46.484375 68.546875 
Q 53.21875 62.890625 53.21875 53.421875 
Q 53.21875 48.921875 51.53125 44.890625 
Q 49.859375 40.875 45.40625 35.40625 
Q 44.1875 33.984375 37.640625 27.21875 
Q 31.109375 20.453125 19.1875 8.296875 
" id="DejaVuSans-32"/>
      </defs>
      <g style="fill:#262626;" transform="translate(155.474111 492.457656)scale(0.15 -0.15)">
       <use xlink:href="#DejaVuSans-2212"/>
       <use x="83.789062" xlink:href="#DejaVuSans-32"/>
      </g>
     </g>
    </g>
    <g id="xtick_5">
     <g id="line2d_10">
      <g>
       <use style="fill:#262626;stroke:#262626;" x="237.11373" xlink:href="#m925fcd1d55" y="468.06"/>
      </g>
     </g>
     <g id="text_10">
      <!-- 0 -->
      <g style="fill:#262626;" transform="translate(232.341855 492.457656)scale(0.15 -0.15)">
       <use xlink:href="#DejaVuSans-30"/>
      </g>
     </g>
    </g>
   </g>
   <g id="matplotlib.axis_4">
    <g id="ytick_5">
     <g id="line2d_11">
      <g>
       <use style="fill:#262626;stroke:#262626;" x="44.054688" xlink:href="#m4f2533e910" y="468.06"/>
      </g>
     </g>
     <g id="text_11">
      <!-- 0.0 -->
      <g style="fill:#262626;" transform="translate(7.2 473.758828)scale(0.15 -0.15)">
       <use xlink:href="#DejaVuSans-30"/>
       <use x="63.623047" xlink:href="#DejaVuSans-2e"/>
       <use x="95.410156" xlink:href="#DejaVuSans-30"/>
      </g>
     </g>
    </g>
    <g id="ytick_6">
     <g id="line2d_12">
      <g>
       <use style="fill:#262626;stroke:#262626;" x="44.054688" xlink:href="#m4f2533e910" y="412.159182"/>
      </g>
     </g>
     <g id="text_12">
      <!-- 0.2 -->
      <g style="fill:#262626;" transform="translate(7.2 417.85801)scale(0.15 -0.15)">
       <use xlink:href="#DejaVuSans-30"/>
       <use x="63.623047" xlink:href="#DejaVuSans-2e"/>
       <use x="95.410156" xlink:href="#DejaVuSans-32"/>
      </g>
     </g>
    </g>
    <g id="ytick_7">
     <g id="line2d_13">
      <g>
       <use style="fill:#262626;stroke:#262626;" x="44.054688" xlink:href="#m4f2533e910" y="356.258363"/>
      </g>
     </g>
     <g id="text_13">
      <!-- 0.4 -->
      <g style="fill:#262626;" transform="translate(7.2 361.957191)scale(0.15 -0.15)">
       <use xlink:href="#DejaVuSans-30"/>
       <use x="63.623047" xlink:href="#DejaVuSans-2e"/>
       <use x="95.410156" xlink:href="#DejaVuSans-34"/>
      </g>
     </g>
    </g>
    <g id="ytick_8">
     <g id="line2d_14">
      <g>
       <use style="fill:#262626;stroke:#262626;" x="44.054688" xlink:href="#m4f2533e910" y="300.357545"/>
      </g>
     </g>
     <g id="text_14">
      <!-- 0.6 -->
      <defs>
       <path d="M 33.015625 40.375 
Q 26.375 40.375 22.484375 35.828125 
Q 18.609375 31.296875 18.609375 23.390625 
Q 18.609375 15.53125 22.484375 10.953125 
Q 26.375 6.390625 33.015625 6.390625 
Q 39.65625 6.390625 43.53125 10.953125 
Q 47.40625 15.53125 47.40625 23.390625 
Q 47.40625 31.296875 43.53125 35.828125 
Q 39.65625 40.375 33.015625 40.375 
M 52.59375 71.296875 
L 52.59375 62.3125 
Q 48.875 64.0625 45.09375 64.984375 
Q 41.3125 65.921875 37.59375 65.921875 
Q 27.828125 65.921875 22.671875 59.328125 
Q 17.53125 52.734375 16.796875 39.40625 
Q 19.671875 43.65625 24.015625 45.921875 
Q 28.375 48.1875 33.59375 48.1875 
Q 44.578125 48.1875 50.953125 41.515625 
Q 57.328125 34.859375 57.328125 23.390625 
Q 57.328125 12.15625 50.6875 5.359375 
Q 44.046875 -1.421875 33.015625 -1.421875 
Q 20.359375 -1.421875 13.671875 8.265625 
Q 6.984375 17.96875 6.984375 36.375 
Q 6.984375 53.65625 15.1875 63.9375 
Q 23.390625 74.21875 37.203125 74.21875 
Q 40.921875 74.21875 44.703125 73.484375 
Q 48.484375 72.75 52.59375 71.296875 
" id="DejaVuSans-36"/>
      </defs>
      <g style="fill:#262626;" transform="translate(7.2 306.056373)scale(0.15 -0.15)">
       <use xlink:href="#DejaVuSans-30"/>
       <use x="63.623047" xlink:href="#DejaVuSans-2e"/>
       <use x="95.410156" xlink:href="#DejaVuSans-36"/>
      </g>
     </g>
    </g>
   </g>
   <g id="patch_34">
    <path clip-path="url(#ped04becb49)" d="M 75.051479 468.06 
L 81.022087 468.06 
L 81.022087 467.821806 
L 75.051479 467.821806 
z
" style="fill:#4c72b0;opacity:0.4;"/>
   </g>
   <g id="patch_35">
    <path clip-path="url(#ped04becb49)" d="M 81.022087 468.06 
L 86.992695 468.06 
L 86.992695 467.107225 
L 81.022087 467.107225 
z
" style="fill:#4c72b0;opacity:0.4;"/>
   </g>
   <g id="patch_36">
    <path clip-path="url(#ped04becb49)" d="M 86.992695 468.06 
L 92.963303 468.06 
L 92.963303 464.725286 
L 86.992695 464.725286 
z
" style="fill:#4c72b0;opacity:0.4;"/>
   </g>
   <g id="patch_37">
    <path clip-path="url(#ped04becb49)" d="M 92.963303 468.06 
L 98.933911 468.06 
L 98.933911 456.86489 
L 92.963303 456.86489 
z
" style="fill:#4c72b0;opacity:0.4;"/>
   </g>
   <g id="patch_38">
    <path clip-path="url(#ped04becb49)" d="M 98.933911 468.06 
L 104.904519 468.06 
L 104.904519 422.326785 
L 98.933911 422.326785 
z
" style="fill:#4c72b0;opacity:0.4;"/>
   </g>
   <g id="patch_39">
    <path clip-path="url(#ped04becb49)" d="M 104.904519 468.06 
L 110.875127 468.06 
L 110.875127 368.018592 
L 104.904519 368.018592 
z
" style="fill:#4c72b0;opacity:0.4;"/>
   </g>
   <g id="patch_40">
    <path clip-path="url(#ped04becb49)" d="M 110.875127 468.06 
L 116.845735 468.06 
L 116.845735 316.806919 
L 110.875127 316.806919 
z
" style="fill:#4c72b0;opacity:0.4;"/>
   </g>
   <g id="patch_41">
    <path clip-path="url(#ped04becb49)" d="M 116.845735 468.06 
L 122.816343 468.06 
L 122.816343 287.985466 
L 116.845735 287.985466 
z
" style="fill:#4c72b0;opacity:0.4;"/>
   </g>
   <g id="patch_42">
    <path clip-path="url(#ped04becb49)" d="M 122.816343 468.06 
L 128.786951 468.06 
L 128.786951 294.893087 
L 122.816343 294.893087 
z
" style="fill:#4c72b0;opacity:0.4;"/>
   </g>
   <g id="patch_43">
    <path clip-path="url(#ped04becb49)" d="M 128.786951 468.06 
L 134.757559 468.06 
L 134.757559 338.482557 
L 128.786951 338.482557 
z
" style="fill:#4c72b0;opacity:0.4;"/>
   </g>
   <g id="patch_44">
    <path clip-path="url(#ped04becb49)" d="M 134.757559 468.06 
L 140.728167 468.06 
L 140.728167 367.304011 
L 134.757559 367.304011 
z
" style="fill:#4c72b0;opacity:0.4;"/>
   </g>
   <g id="patch_45">
    <path clip-path="url(#ped04becb49)" d="M 140.728167 468.06 
L 146.698775 468.06 
L 146.698775 396.840045 
L 140.728167 396.840045 
z
" style="fill:#4c72b0;opacity:0.4;"/>
   </g>
   <g id="patch_46">
    <path clip-path="url(#ped04becb49)" d="M 146.698775 468.06 
L 152.669383 468.06 
L 152.669383 399.221984 
L 146.698775 399.221984 
z
" style="fill:#4c72b0;opacity:0.4;"/>
   </g>
   <g id="patch_47">
    <path clip-path="url(#ped04becb49)" d="M 152.669383 468.06 
L 158.639992 468.06 
L 158.639992 418.039296 
L 152.669383 418.039296 
z
" style="fill:#4c72b0;opacity:0.4;"/>
   </g>
   <g id="patch_48">
    <path clip-path="url(#ped04becb49)" d="M 158.639992 468.06 
L 164.6106 468.06 
L 164.6106 416.133745 
L 158.639992 416.133745 
z
" style="fill:#4c72b0;opacity:0.4;"/>
   </g>
   <g id="patch_49">
    <path clip-path="url(#ped04becb49)" d="M 164.6106 468.06 
L 170.581208 468.06 
L 170.581208 423.041366 
L 164.6106 423.041366 
z
" style="fill:#4c72b0;opacity:0.4;"/>
   </g>
   <g id="patch_50">
    <path clip-path="url(#ped04becb49)" d="M 170.581208 468.06 
L 176.551816 468.06 
L 176.551816 426.37608 
L 170.581208 426.37608 
z
" style="fill:#4c72b0;opacity:0.4;"/>
   </g>
   <g id="patch_51">
    <path clip-path="url(#ped04becb49)" d="M 176.551816 468.06 
L 182.522424 468.06 
L 182.522424 428.758018 
L 176.551816 428.758018 
z
" style="fill:#4c72b0;opacity:0.4;"/>
   </g>
   <g id="patch_52">
    <path clip-path="url(#ped04becb49)" d="M 182.522424 468.06 
L 188.493032 468.06 
L 188.493032 431.854538 
L 182.522424 431.854538 
z
" style="fill:#4c72b0;opacity:0.4;"/>
   </g>
   <g id="patch_53">
    <path clip-path="url(#ped04becb49)" d="M 188.493032 468.06 
L 194.46364 468.06 
L 194.46364 422.564979 
L 188.493032 422.564979 
z
" style="fill:#4c72b0;opacity:0.4;"/>
   </g>
   <g id="patch_54">
    <path clip-path="url(#ped04becb49)" d="M 194.46364 468.06 
L 200.434248 468.06 
L 200.434248 429.4726 
L 194.46364 429.4726 
z
" style="fill:#4c72b0;opacity:0.4;"/>
   </g>
   <g id="patch_55">
    <path clip-path="url(#ped04becb49)" d="M 200.434248 468.06 
L 206.404856 468.06 
L 206.404856 425.185111 
L 200.434248 425.185111 
z
" style="fill:#4c72b0;opacity:0.4;"/>
   </g>
   <g id="patch_56">
    <path clip-path="url(#ped04becb49)" d="M 206.404856 468.06 
L 212.375464 468.06 
L 212.375464 426.852468 
L 206.404856 426.852468 
z
" style="fill:#4c72b0;opacity:0.4;"/>
   </g>
   <g id="patch_57">
    <path clip-path="url(#ped04becb49)" d="M 212.375464 468.06 
L 218.346072 468.06 
L 218.346072 430.425375 
L 212.375464 430.425375 
z
" style="fill:#4c72b0;opacity:0.4;"/>
   </g>
   <g id="patch_58">
    <path clip-path="url(#ped04becb49)" d="M 218.346072 468.06 
L 224.31668 468.06 
L 224.31668 420.183041 
L 218.346072 420.183041 
z
" style="fill:#4c72b0;opacity:0.4;"/>
   </g>
   <g id="patch_59">
    <path clip-path="url(#ped04becb49)" d="M 224.31668 468.06 
L 230.287288 468.06 
L 230.287288 416.133745 
L 224.31668 416.133745 
z
" style="fill:#4c72b0;opacity:0.4;"/>
   </g>
   <g id="patch_60">
    <path clip-path="url(#ped04becb49)" d="M 230.287288 468.06 
L 236.257896 468.06 
L 236.257896 422.088591 
L 230.287288 422.088591 
z
" style="fill:#4c72b0;opacity:0.4;"/>
   </g>
   <g id="line2d_15">
    <path clip-path="url(#ped04becb49)" d="M 54.200142 468.033569 
L 65.384108 468.021556 
L 73.372655 467.826002 
L 76.568073 467.573269 
L 79.763492 467.042395 
L 81.361201 466.599154 
L 82.958911 465.979628 
L 84.55662 465.124454 
L 86.15433 463.957955 
L 87.752039 462.386015 
L 89.349748 460.295918 
L 90.947458 457.559387 
L 92.545167 454.039681 
L 94.142876 449.602858 
L 95.740586 444.132391 
L 97.338295 437.545339 
L 98.936005 429.807718 
L 100.533714 420.946582 
L 102.131423 411.056828 
L 105.326842 388.906456 
L 110.11997 353.812954 
L 111.71768 342.907867 
L 113.315389 332.952322 
L 114.913098 324.252745 
L 116.510808 317.08095 
L 118.108517 311.660591 
L 119.706227 308.151844 
L 121.303936 306.635347 
L 122.901645 307.098601 
L 124.499355 309.429423 
L 126.097064 313.420796 
L 127.694773 318.789062 
L 129.292483 325.203629 
L 132.487902 339.826072 
L 137.28103 362.201757 
L 140.476448 375.487059 
L 142.074158 381.383303 
L 143.671867 386.723771 
L 145.269577 391.491905 
L 146.867286 395.696845 
L 148.464995 399.374243 
L 150.062705 402.581725 
L 151.660414 405.389466 
L 153.258123 407.868795 
L 154.855833 410.082633 
L 156.453542 412.080462 
L 159.648961 415.562687 
L 162.84438 418.513282 
L 166.039798 421.082338 
L 169.235217 423.368125 
L 172.430636 425.342877 
L 174.028345 426.166589 
L 175.626055 426.848498 
L 177.223764 427.368838 
L 178.821473 427.71799 
L 180.419183 427.899825 
L 182.016892 427.93264 
L 185.212311 427.685119 
L 190.005439 427.153 
L 193.200858 427.03414 
L 205.982533 427.132286 
L 209.177952 426.877303 
L 212.37337 426.282061 
L 213.97108 425.80643 
L 217.166499 424.536296 
L 220.361917 423.210532 
L 221.959627 422.776183 
L 223.557336 422.674616 
L 225.155045 423.053632 
L 226.752755 424.051229 
L 228.350464 425.773699 
L 229.948174 428.272195 
L 231.545883 431.52315 
L 233.143592 435.418903 
L 236.339011 444.344979 
L 239.53443 453.103198 
L 241.132139 456.851878 
L 242.729849 459.997201 
L 244.327558 462.499419 
L 245.925267 464.387673 
L 247.522977 465.739799 
L 249.120686 466.658764 
L 250.718395 467.251665 
L 252.316105 467.61484 
L 255.511524 467.942606 
L 257.109233 468.003564 
L 257.109233 468.003564 
" style="fill:none;stroke:#4c72b0;stroke-linecap:round;stroke-width:1.75;"/>
   </g>
   <g id="patch_61">
    <path d="M 44.054688 468.06 
L 44.054688 278.981739 
" style="fill:none;stroke:#262626;stroke-linecap:square;stroke-linejoin:miter;stroke-width:1.25;"/>
   </g>
   <g id="patch_62">
    <path d="M 267.254687 468.06 
L 267.254687 278.981739 
" style="fill:none;stroke:#262626;stroke-linecap:square;stroke-linejoin:miter;stroke-width:1.25;"/>
   </g>
   <g id="patch_63">
    <path d="M 44.054688 468.06 
L 267.254687 468.06 
" style="fill:none;stroke:#262626;stroke-linecap:square;stroke-linejoin:miter;stroke-width:1.25;"/>
   </g>
   <g id="patch_64">
    <path d="M 44.054688 278.981739 
L 267.254687 278.981739 
" style="fill:none;stroke:#262626;stroke-linecap:square;stroke-linejoin:miter;stroke-width:1.25;"/>
   </g>
   <g id="text_15">
    <!-- effort log $\hat \eta_{lum}$ distribution -->
    <defs>
     <path d="M 37.109375 75.984375 
L 37.109375 68.5 
L 28.515625 68.5 
Q 23.6875 68.5 21.796875 66.546875 
Q 19.921875 64.59375 19.921875 59.515625 
L 19.921875 54.6875 
L 34.71875 54.6875 
L 34.71875 47.703125 
L 19.921875 47.703125 
L 19.921875 0 
L 10.890625 0 
L 10.890625 47.703125 
L 2.296875 47.703125 
L 2.296875 54.6875 
L 10.890625 54.6875 
L 10.890625 58.5 
Q 10.890625 67.625 15.140625 71.796875 
Q 19.390625 75.984375 28.609375 75.984375 
z
" id="DejaVuSans-66"/>
     <path d="M 9.421875 75.984375 
L 18.40625 75.984375 
L 18.40625 0 
L 9.421875 0 
z
" id="DejaVuSans-6c"/>
     <path d="M 45.40625 27.984375 
Q 45.40625 37.75 41.375 43.109375 
Q 37.359375 48.484375 30.078125 48.484375 
Q 22.859375 48.484375 18.828125 43.109375 
Q 14.796875 37.75 14.796875 27.984375 
Q 14.796875 18.265625 18.828125 12.890625 
Q 22.859375 7.515625 30.078125 7.515625 
Q 37.359375 7.515625 41.375 12.890625 
Q 45.40625 18.265625 45.40625 27.984375 
M 54.390625 6.78125 
Q 54.390625 -7.171875 48.1875 -13.984375 
Q 42 -20.796875 29.203125 -20.796875 
Q 24.46875 -20.796875 20.265625 -20.09375 
Q 16.0625 -19.390625 12.109375 -17.921875 
L 12.109375 -9.1875 
Q 16.0625 -11.328125 19.921875 -12.34375 
Q 23.78125 -13.375 27.78125 -13.375 
Q 36.625 -13.375 41.015625 -8.765625 
Q 45.40625 -4.15625 45.40625 5.171875 
L 45.40625 9.625 
Q 42.625 4.78125 38.28125 2.390625 
Q 33.9375 0 27.875 0 
Q 17.828125 0 11.671875 7.65625 
Q 5.515625 15.328125 5.515625 27.984375 
Q 5.515625 40.671875 11.671875 48.328125 
Q 17.828125 56 27.875 56 
Q 33.9375 56 38.28125 53.609375 
Q 42.625 51.21875 45.40625 46.390625 
L 45.40625 54.6875 
L 54.390625 54.6875 
z
" id="DejaVuSans-67"/>
     <path d="M 57.859375 33.015625 
L 47.40625 -20.796875 
L 38.421875 -20.796875 
L 48.828125 32.71875 
Q 50.34375 40.484375 48.046875 44.34375 
Q 45.796875 48.1875 39.75 48.1875 
Q 32.46875 48.1875 27.34375 43.5625 
Q 22.265625 38.921875 20.703125 30.90625 
L 14.703125 0 
L 5.671875 0 
L 16.3125 54.6875 
L 25.34375 54.6875 
L 23.6875 46.1875 
Q 27.828125 51.125 32.71875 53.5625 
Q 37.546875 56 43.265625 56 
Q 52.6875 56 56.390625 50.203125 
Q 60.0625 44.34375 57.859375 33.015625 
" id="DejaVuSans-Oblique-3b7"/>
    </defs>
    <g style="fill:#262626;" transform="translate(39.464687 272.981739)scale(0.18 -0.18)">
     <use transform="translate(0 0.515625)" xlink:href="#DejaVuSans-65"/>
     <use transform="translate(61.523438 0.515625)" xlink:href="#DejaVuSans-66"/>
     <use transform="translate(96.728516 0.515625)" xlink:href="#DejaVuSans-66"/>
     <use transform="translate(131.933594 0.515625)" xlink:href="#DejaVuSans-6f"/>
     <use transform="translate(193.115234 0.515625)" xlink:href="#DejaVuSans-72"/>
     <use transform="translate(234.228516 0.515625)" xlink:href="#DejaVuSans-74"/>
     <use transform="translate(273.4375 0.515625)" xlink:href="#DejaVuSans-20"/>
     <use transform="translate(305.224609 0.515625)" xlink:href="#DejaVuSans-6c"/>
     <use transform="translate(333.007812 0.515625)" xlink:href="#DejaVuSans-6f"/>
     <use transform="translate(394.189453 0.515625)" xlink:href="#DejaVuSans-67"/>
     <use transform="translate(457.666016 0.515625)" xlink:href="#DejaVuSans-20"/>
     <use transform="translate(548.628906 13.015625)" xlink:href="#DejaVuSans-302"/>
     <use transform="translate(489.453125 0.515625)" xlink:href="#DejaVuSans-Oblique-3b7"/>
     <use transform="translate(553.789062 -15.890625)scale(0.7)" xlink:href="#DejaVuSans-Oblique-6c"/>
     <use transform="translate(573.237305 -15.890625)scale(0.7)" xlink:href="#DejaVuSans-Oblique-75"/>
     <use transform="translate(617.602539 -15.890625)scale(0.7)" xlink:href="#DejaVuSans-Oblique-6d"/>
     <use transform="translate(688.525391 0.515625)" xlink:href="#DejaVuSans-20"/>
     <use transform="translate(720.3125 0.515625)" xlink:href="#DejaVuSans-64"/>
     <use transform="translate(783.789062 0.515625)" xlink:href="#DejaVuSans-69"/>
     <use transform="translate(811.572266 0.515625)" xlink:href="#DejaVuSans-73"/>
     <use transform="translate(863.671875 0.515625)" xlink:href="#DejaVuSans-74"/>
     <use transform="translate(902.880859 0.515625)" xlink:href="#DejaVuSans-72"/>
     <use transform="translate(943.994141 0.515625)" xlink:href="#DejaVuSans-69"/>
     <use transform="translate(971.777344 0.515625)" xlink:href="#DejaVuSans-62"/>
     <use transform="translate(1035.253906 0.515625)" xlink:href="#DejaVuSans-75"/>
     <use transform="translate(1098.632812 0.515625)" xlink:href="#DejaVuSans-74"/>
     <use transform="translate(1137.841797 0.515625)" xlink:href="#DejaVuSans-69"/>
     <use transform="translate(1165.625 0.515625)" xlink:href="#DejaVuSans-6f"/>
     <use transform="translate(1226.806641 0.515625)" xlink:href="#DejaVuSans-6e"/>
    </g>
   </g>
  </g>
 </g>
 <defs>
  <clipPath id="pc9f5375a81">
   <rect height="189.078261" width="223.2" x="44.054688" y="33.18"/>
  </clipPath>
  <clipPath id="ped04becb49">
   <rect height="189.078261" width="223.2" x="44.054688" y="278.981739"/>
  </clipPath>
 </defs>
</svg>
