<?xml version="1.0" encoding="utf-8" standalone="no"?>
<!DOCTYPE svg PUBLIC "-//W3C//DTD SVG 1.1//EN"
  "http://www.w3.org/Graphics/SVG/1.1/DTD/svg11.dtd">
<!-- Created with matplotlib (http://matplotlib.org/) -->
<svg height="431pt" version="1.1" viewBox="0 0 535 431" width="535pt" xmlns="http://www.w3.org/2000/svg" xmlns:xlink="http://www.w3.org/1999/xlink">
 <defs>
  <style type="text/css">
*{stroke-linecap:butt;stroke-linejoin:round;}
  </style>
 </defs>
 <g id="figure_1">
  <g id="patch_1">
   <path d="M 0 431.246094 
L 535.183437 431.246094 
L 535.183437 0 
L 0 0 
z
" style="fill:#ffffff;"/>
  </g>
  <g id="axes_1">
   <g id="patch_2">
    <path d="M 75.583438 207 
L 298.783437 207 
L 298.783437 37.44 
L 75.583438 37.44 
z
" style="fill:#ffffff;"/>
   </g>
   <g id="matplotlib.axis_1"/>
   <g id="matplotlib.axis_2">
    <g id="ytick_1">
     <g id="line2d_1">
      <defs>
       <path d="M 0 0 
L -6 0 
" id="md6749352a5" style="stroke:#262626;"/>
      </defs>
      <g>
       <use style="fill:#262626;stroke:#262626;" x="75.583438" xlink:href="#md6749352a5" y="199.292727"/>
      </g>
     </g>
     <g id="text_1">
      <!-- 0.00 -->
      <defs>
       <path d="M 31.78125 66.40625 
Q 24.171875 66.40625 20.328125 58.90625 
Q 16.5 51.421875 16.5 36.375 
Q 16.5 21.390625 20.328125 13.890625 
Q 24.171875 6.390625 31.78125 6.390625 
Q 39.453125 6.390625 43.28125 13.890625 
Q 47.125 21.390625 47.125 36.375 
Q 47.125 51.421875 43.28125 58.90625 
Q 39.453125 66.40625 31.78125 66.40625 
M 31.78125 74.21875 
Q 44.046875 74.21875 50.515625 64.515625 
Q 56.984375 54.828125 56.984375 36.375 
Q 56.984375 17.96875 50.515625 8.265625 
Q 44.046875 -1.421875 31.78125 -1.421875 
Q 19.53125 -1.421875 13.0625 8.265625 
Q 6.59375 17.96875 6.59375 36.375 
Q 6.59375 54.828125 13.0625 64.515625 
Q 19.53125 74.21875 31.78125 74.21875 
" id="DejaVuSans-30"/>
       <path d="M 10.6875 12.40625 
L 21 12.40625 
L 21 0 
L 10.6875 0 
z
" id="DejaVuSans-2e"/>
      </defs>
      <g style="fill:#262626;" transform="translate(29.185 204.991555)scale(0.15 -0.15)">
       <use xlink:href="#DejaVuSans-30"/>
       <use x="63.623047" xlink:href="#DejaVuSans-2e"/>
       <use x="95.410156" xlink:href="#DejaVuSans-30"/>
       <use x="159.033203" xlink:href="#DejaVuSans-30"/>
      </g>
     </g>
    </g>
    <g id="ytick_2">
     <g id="line2d_2">
      <g>
       <use style="fill:#262626;stroke:#262626;" x="75.583438" xlink:href="#md6749352a5" y="160.756364"/>
      </g>
     </g>
     <g id="text_2">
      <!-- 0.25 -->
      <defs>
       <path d="M 19.1875 8.296875 
L 53.609375 8.296875 
L 53.609375 0 
L 7.328125 0 
L 7.328125 8.296875 
Q 12.9375 14.109375 22.625 23.890625 
Q 32.328125 33.6875 34.8125 36.53125 
Q 39.546875 41.84375 41.421875 45.53125 
Q 43.3125 49.21875 43.3125 52.78125 
Q 43.3125 58.59375 39.234375 62.25 
Q 35.15625 65.921875 28.609375 65.921875 
Q 23.96875 65.921875 18.8125 64.3125 
Q 13.671875 62.703125 7.8125 59.421875 
L 7.8125 69.390625 
Q 13.765625 71.78125 18.9375 73 
Q 24.125 74.21875 28.421875 74.21875 
Q 39.75 74.21875 46.484375 68.546875 
Q 53.21875 62.890625 53.21875 53.421875 
Q 53.21875 48.921875 51.53125 44.890625 
Q 49.859375 40.875 45.40625 35.40625 
Q 44.1875 33.984375 37.640625 27.21875 
Q 31.109375 20.453125 19.1875 8.296875 
" id="DejaVuSans-32"/>
       <path d="M 10.796875 72.90625 
L 49.515625 72.90625 
L 49.515625 64.59375 
L 19.828125 64.59375 
L 19.828125 46.734375 
Q 21.96875 47.46875 24.109375 47.828125 
Q 26.265625 48.1875 28.421875 48.1875 
Q 40.625 48.1875 47.75 41.5 
Q 54.890625 34.8125 54.890625 23.390625 
Q 54.890625 11.625 47.5625 5.09375 
Q 40.234375 -1.421875 26.90625 -1.421875 
Q 22.3125 -1.421875 17.546875 -0.640625 
Q 12.796875 0.140625 7.71875 1.703125 
L 7.71875 11.625 
Q 12.109375 9.234375 16.796875 8.0625 
Q 21.484375 6.890625 26.703125 6.890625 
Q 35.15625 6.890625 40.078125 11.328125 
Q 45.015625 15.765625 45.015625 23.390625 
Q 45.015625 31 40.078125 35.4375 
Q 35.15625 39.890625 26.703125 39.890625 
Q 22.75 39.890625 18.8125 39.015625 
Q 14.890625 38.140625 10.796875 36.28125 
z
" id="DejaVuSans-35"/>
      </defs>
      <g style="fill:#262626;" transform="translate(29.185 166.455192)scale(0.15 -0.15)">
       <use xlink:href="#DejaVuSans-30"/>
       <use x="63.623047" xlink:href="#DejaVuSans-2e"/>
       <use x="95.410156" xlink:href="#DejaVuSans-32"/>
       <use x="159.033203" xlink:href="#DejaVuSans-35"/>
      </g>
     </g>
    </g>
    <g id="ytick_3">
     <g id="line2d_3">
      <g>
       <use style="fill:#262626;stroke:#262626;" x="75.583438" xlink:href="#md6749352a5" y="122.22"/>
      </g>
     </g>
     <g id="text_3">
      <!-- 0.50 -->
      <g style="fill:#262626;" transform="translate(29.185 127.918828)scale(0.15 -0.15)">
       <use xlink:href="#DejaVuSans-30"/>
       <use x="63.623047" xlink:href="#DejaVuSans-2e"/>
       <use x="95.410156" xlink:href="#DejaVuSans-35"/>
       <use x="159.033203" xlink:href="#DejaVuSans-30"/>
      </g>
     </g>
    </g>
    <g id="ytick_4">
     <g id="line2d_4">
      <g>
       <use style="fill:#262626;stroke:#262626;" x="75.583438" xlink:href="#md6749352a5" y="83.683636"/>
      </g>
     </g>
     <g id="text_4">
      <!-- 0.75 -->
      <defs>
       <path d="M 8.203125 72.90625 
L 55.078125 72.90625 
L 55.078125 68.703125 
L 28.609375 0 
L 18.3125 0 
L 43.21875 64.59375 
L 8.203125 64.59375 
z
" id="DejaVuSans-37"/>
      </defs>
      <g style="fill:#262626;" transform="translate(29.185 89.382464)scale(0.15 -0.15)">
       <use xlink:href="#DejaVuSans-30"/>
       <use x="63.623047" xlink:href="#DejaVuSans-2e"/>
       <use x="95.410156" xlink:href="#DejaVuSans-37"/>
       <use x="159.033203" xlink:href="#DejaVuSans-35"/>
      </g>
     </g>
    </g>
    <g id="ytick_5">
     <g id="line2d_5">
      <g>
       <use style="fill:#262626;stroke:#262626;" x="75.583438" xlink:href="#md6749352a5" y="45.147273"/>
      </g>
     </g>
     <g id="text_5">
      <!-- 1.00 -->
      <defs>
       <path d="M 12.40625 8.296875 
L 28.515625 8.296875 
L 28.515625 63.921875 
L 10.984375 60.40625 
L 10.984375 69.390625 
L 28.421875 72.90625 
L 38.28125 72.90625 
L 38.28125 8.296875 
L 54.390625 8.296875 
L 54.390625 0 
L 12.40625 0 
z
" id="DejaVuSans-31"/>
      </defs>
      <g style="fill:#262626;" transform="translate(29.185 50.846101)scale(0.15 -0.15)">
       <use xlink:href="#DejaVuSans-31"/>
       <use x="63.623047" xlink:href="#DejaVuSans-2e"/>
       <use x="95.410156" xlink:href="#DejaVuSans-30"/>
       <use x="159.033203" xlink:href="#DejaVuSans-30"/>
      </g>
     </g>
    </g>
    <g id="text_6">
     <!-- $\hat x_{\cdot}(d)$ -->
     <defs>
      <path d="M -28.609375 79.984375 
L -21.390625 79.984375 
L -9.421875 61.625 
L -16.21875 61.625 
L -25 73.578125 
L -33.796875 61.625 
L -40.578125 61.625 
z
M -25 56 
z
" id="DejaVuSans-302"/>
      <path d="M 60.015625 54.6875 
L 34.90625 27.875 
L 50.296875 0 
L 39.984375 0 
L 28.421875 21.6875 
L 8.296875 0 
L -2.59375 0 
L 24.3125 28.8125 
L 10.015625 54.6875 
L 20.3125 54.6875 
L 30.8125 34.90625 
L 49.125 54.6875 
z
" id="DejaVuSans-Oblique-78"/>
      <path d="M 10.6875 40.921875 
L 21 40.921875 
L 21 28.515625 
L 10.6875 28.515625 
z
" id="DejaVuSans-22c5"/>
      <path d="M 31 75.875 
Q 24.46875 64.65625 21.28125 53.65625 
Q 18.109375 42.671875 18.109375 31.390625 
Q 18.109375 20.125 21.3125 9.0625 
Q 24.515625 -2 31 -13.1875 
L 23.1875 -13.1875 
Q 15.875 -1.703125 12.234375 9.375 
Q 8.59375 20.453125 8.59375 31.390625 
Q 8.59375 42.28125 12.203125 53.3125 
Q 15.828125 64.359375 23.1875 75.875 
z
" id="DejaVuSans-28"/>
      <path d="M 41.796875 8.203125 
Q 38.1875 3.46875 33.25 1.015625 
Q 28.328125 -1.421875 22.3125 -1.421875 
Q 14.109375 -1.421875 9.34375 4.171875 
Q 4.59375 9.765625 4.59375 19.484375 
Q 4.59375 27.59375 7.46875 34.9375 
Q 10.359375 42.28125 15.828125 48.09375 
Q 19.4375 51.953125 23.96875 53.96875 
Q 28.515625 56 33.5 56 
Q 38.765625 56 42.796875 53.453125 
Q 46.828125 50.921875 49.03125 46.1875 
L 54.890625 75.984375 
L 63.921875 75.984375 
L 49.125 0 
L 40.09375 0 
z
M 13.921875 21.09375 
Q 13.921875 14.015625 17.109375 10.0625 
Q 20.3125 6.109375 25.984375 6.109375 
Q 30.171875 6.109375 33.765625 8.125 
Q 37.359375 10.15625 40.09375 14.109375 
Q 42.96875 18.21875 44.625 23.578125 
Q 46.296875 28.953125 46.296875 34.1875 
Q 46.296875 40.96875 43.09375 44.765625 
Q 39.890625 48.578125 34.28125 48.578125 
Q 30.03125 48.578125 26.359375 46.578125 
Q 22.703125 44.578125 20.125 40.828125 
Q 17.28125 36.765625 15.59375 31.390625 
Q 13.921875 26.03125 13.921875 21.09375 
" id="DejaVuSans-Oblique-64"/>
      <path d="M 8.015625 75.875 
L 15.828125 75.875 
Q 23.140625 64.359375 26.78125 53.3125 
Q 30.421875 42.28125 30.421875 31.390625 
Q 30.421875 20.453125 26.78125 9.375 
Q 23.140625 -1.703125 15.828125 -13.1875 
L 8.015625 -13.1875 
Q 14.5 -2 17.703125 9.0625 
Q 20.90625 20.125 20.90625 31.390625 
Q 20.90625 42.671875 17.703125 53.65625 
Q 14.5 64.65625 8.015625 75.875 
" id="DejaVuSans-29"/>
     </defs>
     <g style="fill:#262626;" transform="translate(21.753516 141.2775)rotate(-90)scale(0.165 -0.165)">
      <use transform="translate(64.226562 12.015625)" xlink:href="#DejaVuSans-302"/>
      <use transform="translate(0 0.828125)" xlink:href="#DejaVuSans-Oblique-78"/>
      <use transform="translate(63.550781 -15.578125)scale(0.7)" xlink:href="#DejaVuSans-22c5"/>
      <use transform="translate(88.536133 0.828125)" xlink:href="#DejaVuSans-28"/>
      <use transform="translate(127.549805 0.828125)" xlink:href="#DejaVuSans-Oblique-64"/>
      <use transform="translate(191.026367 0.828125)" xlink:href="#DejaVuSans-29"/>
     </g>
    </g>
   </g>
   <g id="PolyCollection_1">
    <path clip-path="url(#pe16e6278c2)" d="M 85.728892 199.292727 
L 85.728892 199.292727 
L 85.728892 199.292727 
L 85.728892 199.292727 
z
" style="fill:#6495ed;fill-opacity:0.4;"/>
   </g>
   <g id="PolyCollection_2">
    <path clip-path="url(#pe16e6278c2)" d="M 90.046107 199.292727 
L 90.046107 199.292727 
L 94.363321 45.147273 
L 94.363321 45.147273 
L 94.363321 45.147273 
L 90.046107 199.292727 
z
" style="fill:#6495ed;fill-opacity:0.4;"/>
   </g>
   <g id="PolyCollection_3">
    <path clip-path="url(#pe16e6278c2)" d="M 98.680536 126.774462 
L 98.680536 126.774462 
L 98.680536 126.774462 
L 98.680536 154.895256 
z
" style="fill:#6495ed;fill-opacity:0.4;"/>
   </g>
   <g id="PolyCollection_4">
    <path clip-path="url(#pe16e6278c2)" d="M 102.997751 153.051919 
L 102.997751 153.051919 
L 107.314966 151.824904 
L 111.63218 163.224297 
L 115.949395 175.788302 
L 120.26661 180.255113 
L 120.26661 180.255113 
L 120.26661 177.214125 
L 115.949395 174.758807 
L 111.63218 158.988894 
L 107.314966 128.827203 
L 102.997751 152.988174 
z
" style="fill:#ff0000;fill-opacity:0.4;"/>
   </g>
   <g id="PolyCollection_5">
    <path clip-path="url(#pe16e6278c2)" d="M 124.583824 176.257378 
L 124.583824 176.257378 
L 128.901039 188.688466 
L 133.218254 193.273343 
L 137.535468 190.271138 
L 141.852683 194.700188 
L 146.169898 198.103845 
L 146.169898 198.103845 
L 146.169898 198.885089 
L 141.852683 197.807484 
L 137.535468 193.931559 
L 133.218254 195.256443 
L 128.901039 188.779657 
L 124.583824 177.491927 
z
" style="fill:#6495ed;fill-opacity:0.4;"/>
   </g>
   <g id="PolyCollection_6">
    <path clip-path="url(#pe16e6278c2)" d="M 150.487113 199.179465 
L 150.487113 199.179465 
L 154.804327 199.292727 
L 159.121542 199.292727 
L 163.438757 199.255707 
L 167.755971 199.277541 
L 172.073186 199.292727 
L 176.390401 199.292727 
L 180.707615 199.292727 
L 185.02483 199.292727 
L 189.342045 199.292727 
L 193.65926 199.292727 
L 197.976474 199.292727 
L 202.293689 199.292727 
L 206.610904 199.292727 
L 210.928118 199.292727 
L 215.245333 199.292727 
L 219.562548 199.292727 
L 223.879762 199.292727 
L 228.196977 199.292727 
L 232.514192 199.292727 
L 236.831407 199.292727 
L 241.148621 199.292727 
L 245.465836 199.292727 
L 249.783051 199.292727 
L 254.100265 199.292727 
L 258.41748 199.292727 
L 262.734695 199.292727 
L 267.051909 199.283004 
L 271.369124 199.292727 
L 275.686339 199.292727 
L 280.003554 199.292727 
L 284.320768 199.292727 
L 284.320768 199.292727 
L 284.320768 199.256923 
L 280.003554 199.222319 
L 275.686339 199.203395 
L 271.369124 198.949984 
L 267.051909 198.63625 
L 262.734695 198.829527 
L 258.41748 199.179629 
L 254.100265 199.1791 
L 249.783051 199.187432 
L 245.465836 199.165527 
L 241.148621 199.268134 
L 236.831407 199.210675 
L 232.514192 199.218857 
L 228.196977 199.174691 
L 223.879762 199.156985 
L 219.562548 199.10346 
L 215.245333 199.155495 
L 210.928118 199.046296 
L 206.610904 199.148038 
L 202.293689 199.208734 
L 197.976474 199.216769 
L 193.65926 199.222675 
L 189.342045 199.234889 
L 185.02483 199.211287 
L 180.707615 199.140255 
L 176.390401 199.214589 
L 172.073186 199.177883 
L 167.755971 199.166964 
L 163.438757 199.109896 
L 159.121542 199.025623 
L 154.804327 198.994357 
L 150.487113 198.92595 
z
" style="fill:#ff0000;fill-opacity:0.4;"/>
   </g>
   <g id="line2d_6">
    <path clip-path="url(#pe16e6278c2)" d="M 94.363321 45.147273 
L 98.680536 168.463636 
L 102.997751 89.538207 
L 107.314966 45.147273 
L 111.63218 122.846279 
L 115.949395 189.560403 
L 120.26661 180.12977 
L 124.583824 155.18011 
L 128.901039 194.313671 
L 133.218254 189.250421 
L 137.535468 189.950579 
L 141.852683 195.490702 
L 146.169898 199.292727 
L 150.487113 199.292727 
L 154.804327 199.292727 
L 159.121542 199.292727 
L 163.438757 196.192395 
L 167.755971 199.292727 
L 172.073186 199.292727 
L 176.390401 199.292727 
L 180.707615 199.292727 
L 185.02483 199.292727 
L 189.342045 199.292727 
L 193.65926 199.292727 
L 197.976474 199.292727 
L 202.293689 199.292727 
L 206.610904 199.292727 
L 210.928118 199.292727 
L 215.245333 199.292727 
L 219.562548 199.292727 
L 223.879762 199.292727 
L 228.196977 199.292727 
L 232.514192 199.292727 
L 236.831407 199.292727 
L 241.148621 199.292727 
L 245.465836 199.292727 
L 249.783051 199.292727 
L 254.100265 199.292727 
L 258.41748 199.292727 
L 262.734695 199.292727 
L 267.051909 199.292727 
L 271.369124 199.292727 
L 275.686339 199.292727 
L 280.003554 198.812981 
L 284.320768 199.292727 
L 288.637983 199.292727 
" style="fill:none;stroke:#000000;stroke-linecap:round;stroke-width:3;"/>
   </g>
   <g id="line2d_7">
    <path clip-path="url(#pe16e6278c2)" d="M 94.363321 45.147273 
L 98.680536 154.895256 
L 102.997751 152.988174 
L 107.314966 128.827203 
L 111.63218 158.988894 
L 115.949395 174.758807 
L 120.26661 177.214125 
L 124.583824 177.491927 
L 128.901039 188.779657 
L 133.218254 195.256443 
L 137.535468 193.931559 
L 141.852683 197.807484 
L 146.169898 198.885089 
L 150.487113 198.92595 
L 154.804327 198.994357 
L 159.121542 199.025623 
L 163.438757 199.109896 
L 167.755971 199.166964 
L 172.073186 199.177883 
L 176.390401 199.214589 
L 180.707615 199.140255 
L 185.02483 199.211287 
L 189.342045 199.234889 
L 193.65926 199.222675 
L 197.976474 199.216769 
L 202.293689 199.208734 
L 206.610904 199.148038 
L 210.928118 199.046296 
L 215.245333 199.155495 
L 219.562548 199.10346 
L 223.879762 199.156985 
L 228.196977 199.174691 
L 232.514192 199.218857 
L 236.831407 199.210675 
L 241.148621 199.268134 
L 245.465836 199.165527 
L 249.783051 199.187432 
L 254.100265 199.1791 
L 258.41748 199.179629 
L 262.734695 198.829527 
L 267.051909 198.63625 
L 271.369124 198.949984 
L 275.686339 199.203395 
L 280.003554 199.222319 
L 284.320768 199.256923 
L 288.637983 199.171818 
" style="fill:none;stroke:#008000;stroke-linecap:round;stroke-width:3;"/>
   </g>
   <g id="line2d_8">
    <path clip-path="url(#pe16e6278c2)" d="M 94.363321 45.147273 
L 98.680536 126.774462 
L 102.997751 153.051919 
L 107.314966 151.824904 
L 111.63218 163.224297 
L 115.949395 175.788302 
L 120.26661 180.255113 
L 124.583824 176.257378 
L 128.901039 188.688466 
L 133.218254 193.273343 
L 137.535468 190.271138 
L 141.852683 194.700188 
L 146.169898 198.103845 
L 150.487113 199.179465 
L 154.804327 199.292727 
L 159.121542 199.292727 
L 163.438757 199.255707 
L 167.755971 199.277541 
L 172.073186 199.292727 
L 176.390401 199.292727 
L 180.707615 199.292727 
L 185.02483 199.292727 
L 189.342045 199.292727 
L 193.65926 199.292727 
L 197.976474 199.292727 
L 202.293689 199.292727 
L 206.610904 199.292727 
L 210.928118 199.292727 
L 215.245333 199.292727 
L 219.562548 199.292727 
L 223.879762 199.292727 
L 228.196977 199.292727 
L 232.514192 199.292727 
L 236.831407 199.292727 
L 241.148621 199.292727 
L 245.465836 199.292727 
L 249.783051 199.292727 
L 254.100265 199.292727 
L 258.41748 199.292727 
L 262.734695 199.292727 
L 267.051909 199.283004 
L 271.369124 199.292727 
L 275.686339 199.292727 
L 280.003554 199.292727 
L 284.320768 199.292727 
L 288.637983 199.292727 
" style="fill:none;stroke:#ffa500;stroke-linecap:round;stroke-width:3;"/>
   </g>
   <g id="patch_3">
    <path d="M 75.583438 207 
L 75.583438 37.44 
" style="fill:none;stroke:#262626;stroke-linecap:square;stroke-linejoin:miter;stroke-width:1.25;"/>
   </g>
   <g id="patch_4">
    <path d="M 298.783437 207 
L 298.783437 37.44 
" style="fill:none;stroke:#262626;stroke-linecap:square;stroke-linejoin:miter;stroke-width:1.25;"/>
   </g>
   <g id="patch_5">
    <path d="M 75.583438 207 
L 298.783437 207 
" style="fill:none;stroke:#262626;stroke-linecap:square;stroke-linejoin:miter;stroke-width:1.25;"/>
   </g>
   <g id="patch_6">
    <path d="M 75.583438 37.44 
L 298.783437 37.44 
" style="fill:none;stroke:#262626;stroke-linecap:square;stroke-linejoin:miter;stroke-width:1.25;"/>
   </g>
   <g id="text_7">
    <!-- brazzaville -->
    <defs>
     <path d="M 48.6875 27.296875 
Q 48.6875 37.203125 44.609375 42.84375 
Q 40.53125 48.484375 33.40625 48.484375 
Q 26.265625 48.484375 22.1875 42.84375 
Q 18.109375 37.203125 18.109375 27.296875 
Q 18.109375 17.390625 22.1875 11.75 
Q 26.265625 6.109375 33.40625 6.109375 
Q 40.53125 6.109375 44.609375 11.75 
Q 48.6875 17.390625 48.6875 27.296875 
M 18.109375 46.390625 
Q 20.953125 51.265625 25.265625 53.625 
Q 29.59375 56 35.59375 56 
Q 45.5625 56 51.78125 48.09375 
Q 58.015625 40.1875 58.015625 27.296875 
Q 58.015625 14.40625 51.78125 6.484375 
Q 45.5625 -1.421875 35.59375 -1.421875 
Q 29.59375 -1.421875 25.265625 0.953125 
Q 20.953125 3.328125 18.109375 8.203125 
L 18.109375 0 
L 9.078125 0 
L 9.078125 75.984375 
L 18.109375 75.984375 
z
" id="DejaVuSans-62"/>
     <path d="M 41.109375 46.296875 
Q 39.59375 47.171875 37.8125 47.578125 
Q 36.03125 48 33.890625 48 
Q 26.265625 48 22.1875 43.046875 
Q 18.109375 38.09375 18.109375 28.8125 
L 18.109375 0 
L 9.078125 0 
L 9.078125 54.6875 
L 18.109375 54.6875 
L 18.109375 46.1875 
Q 20.953125 51.171875 25.484375 53.578125 
Q 30.03125 56 36.53125 56 
Q 37.453125 56 38.578125 55.875 
Q 39.703125 55.765625 41.0625 55.515625 
z
" id="DejaVuSans-72"/>
     <path d="M 34.28125 27.484375 
Q 23.390625 27.484375 19.1875 25 
Q 14.984375 22.515625 14.984375 16.5 
Q 14.984375 11.71875 18.140625 8.90625 
Q 21.296875 6.109375 26.703125 6.109375 
Q 34.1875 6.109375 38.703125 11.40625 
Q 43.21875 16.703125 43.21875 25.484375 
L 43.21875 27.484375 
z
M 52.203125 31.203125 
L 52.203125 0 
L 43.21875 0 
L 43.21875 8.296875 
Q 40.140625 3.328125 35.546875 0.953125 
Q 30.953125 -1.421875 24.3125 -1.421875 
Q 15.921875 -1.421875 10.953125 3.296875 
Q 6 8.015625 6 15.921875 
Q 6 25.140625 12.171875 29.828125 
Q 18.359375 34.515625 30.609375 34.515625 
L 43.21875 34.515625 
L 43.21875 35.40625 
Q 43.21875 41.609375 39.140625 45 
Q 35.0625 48.390625 27.6875 48.390625 
Q 23 48.390625 18.546875 47.265625 
Q 14.109375 46.140625 10.015625 43.890625 
L 10.015625 52.203125 
Q 14.9375 54.109375 19.578125 55.046875 
Q 24.21875 56 28.609375 56 
Q 40.484375 56 46.34375 49.84375 
Q 52.203125 43.703125 52.203125 31.203125 
" id="DejaVuSans-61"/>
     <path d="M 5.515625 54.6875 
L 48.1875 54.6875 
L 48.1875 46.484375 
L 14.40625 7.171875 
L 48.1875 7.171875 
L 48.1875 0 
L 4.296875 0 
L 4.296875 8.203125 
L 38.09375 47.515625 
L 5.515625 47.515625 
z
" id="DejaVuSans-7a"/>
     <path d="M 2.984375 54.6875 
L 12.5 54.6875 
L 29.59375 8.796875 
L 46.6875 54.6875 
L 56.203125 54.6875 
L 35.6875 0 
L 23.484375 0 
z
" id="DejaVuSans-76"/>
     <path d="M 9.421875 54.6875 
L 18.40625 54.6875 
L 18.40625 0 
L 9.421875 0 
z
M 9.421875 75.984375 
L 18.40625 75.984375 
L 18.40625 64.59375 
L 9.421875 64.59375 
z
" id="DejaVuSans-69"/>
     <path d="M 9.421875 75.984375 
L 18.40625 75.984375 
L 18.40625 0 
L 9.421875 0 
z
" id="DejaVuSans-6c"/>
     <path d="M 56.203125 29.59375 
L 56.203125 25.203125 
L 14.890625 25.203125 
Q 15.484375 15.921875 20.484375 11.0625 
Q 25.484375 6.203125 34.421875 6.203125 
Q 39.59375 6.203125 44.453125 7.46875 
Q 49.3125 8.734375 54.109375 11.28125 
L 54.109375 2.78125 
Q 49.265625 0.734375 44.1875 -0.34375 
Q 39.109375 -1.421875 33.890625 -1.421875 
Q 20.796875 -1.421875 13.15625 6.1875 
Q 5.515625 13.8125 5.515625 26.8125 
Q 5.515625 40.234375 12.765625 48.109375 
Q 20.015625 56 32.328125 56 
Q 43.359375 56 49.78125 48.890625 
Q 56.203125 41.796875 56.203125 29.59375 
M 47.21875 32.234375 
Q 47.125 39.59375 43.09375 43.984375 
Q 39.0625 48.390625 32.421875 48.390625 
Q 24.90625 48.390625 20.390625 44.140625 
Q 15.875 39.890625 15.1875 32.171875 
z
" id="DejaVuSans-65"/>
    </defs>
    <g style="fill:#262626;" transform="translate(150.487113 60.299426)scale(0.14 -0.14)">
     <use xlink:href="#DejaVuSans-62"/>
     <use x="63.476562" xlink:href="#DejaVuSans-72"/>
     <use x="104.589844" xlink:href="#DejaVuSans-61"/>
     <use x="165.869141" xlink:href="#DejaVuSans-7a"/>
     <use x="218.359375" xlink:href="#DejaVuSans-7a"/>
     <use x="270.849609" xlink:href="#DejaVuSans-61"/>
     <use x="332.128906" xlink:href="#DejaVuSans-76"/>
     <use x="391.308594" xlink:href="#DejaVuSans-69"/>
     <use x="419.091797" xlink:href="#DejaVuSans-6c"/>
     <use x="446.875" xlink:href="#DejaVuSans-6c"/>
     <use x="474.658203" xlink:href="#DejaVuSans-65"/>
    </g>
    <!-- (pop 1.3M) -->
    <defs>
     <path d="M 18.109375 8.203125 
L 18.109375 -20.796875 
L 9.078125 -20.796875 
L 9.078125 54.6875 
L 18.109375 54.6875 
L 18.109375 46.390625 
Q 20.953125 51.265625 25.265625 53.625 
Q 29.59375 56 35.59375 56 
Q 45.5625 56 51.78125 48.09375 
Q 58.015625 40.1875 58.015625 27.296875 
Q 58.015625 14.40625 51.78125 6.484375 
Q 45.5625 -1.421875 35.59375 -1.421875 
Q 29.59375 -1.421875 25.265625 0.953125 
Q 20.953125 3.328125 18.109375 8.203125 
M 48.6875 27.296875 
Q 48.6875 37.203125 44.609375 42.84375 
Q 40.53125 48.484375 33.40625 48.484375 
Q 26.265625 48.484375 22.1875 42.84375 
Q 18.109375 37.203125 18.109375 27.296875 
Q 18.109375 17.390625 22.1875 11.75 
Q 26.265625 6.109375 33.40625 6.109375 
Q 40.53125 6.109375 44.609375 11.75 
Q 48.6875 17.390625 48.6875 27.296875 
" id="DejaVuSans-70"/>
     <path d="M 30.609375 48.390625 
Q 23.390625 48.390625 19.1875 42.75 
Q 14.984375 37.109375 14.984375 27.296875 
Q 14.984375 17.484375 19.15625 11.84375 
Q 23.34375 6.203125 30.609375 6.203125 
Q 37.796875 6.203125 41.984375 11.859375 
Q 46.1875 17.53125 46.1875 27.296875 
Q 46.1875 37.015625 41.984375 42.703125 
Q 37.796875 48.390625 30.609375 48.390625 
M 30.609375 56 
Q 42.328125 56 49.015625 48.375 
Q 55.71875 40.765625 55.71875 27.296875 
Q 55.71875 13.875 49.015625 6.21875 
Q 42.328125 -1.421875 30.609375 -1.421875 
Q 18.84375 -1.421875 12.171875 6.21875 
Q 5.515625 13.875 5.515625 27.296875 
Q 5.515625 40.765625 12.171875 48.375 
Q 18.84375 56 30.609375 56 
" id="DejaVuSans-6f"/>
     <path id="DejaVuSans-20"/>
     <path d="M 40.578125 39.3125 
Q 47.65625 37.796875 51.625 33 
Q 55.609375 28.21875 55.609375 21.1875 
Q 55.609375 10.40625 48.1875 4.484375 
Q 40.765625 -1.421875 27.09375 -1.421875 
Q 22.515625 -1.421875 17.65625 -0.515625 
Q 12.796875 0.390625 7.625 2.203125 
L 7.625 11.71875 
Q 11.71875 9.328125 16.59375 8.109375 
Q 21.484375 6.890625 26.8125 6.890625 
Q 36.078125 6.890625 40.9375 10.546875 
Q 45.796875 14.203125 45.796875 21.1875 
Q 45.796875 27.640625 41.28125 31.265625 
Q 36.765625 34.90625 28.71875 34.90625 
L 20.21875 34.90625 
L 20.21875 43.015625 
L 29.109375 43.015625 
Q 36.375 43.015625 40.234375 45.921875 
Q 44.09375 48.828125 44.09375 54.296875 
Q 44.09375 59.90625 40.109375 62.90625 
Q 36.140625 65.921875 28.71875 65.921875 
Q 24.65625 65.921875 20.015625 65.03125 
Q 15.375 64.15625 9.8125 62.3125 
L 9.8125 71.09375 
Q 15.4375 72.65625 20.34375 73.4375 
Q 25.25 74.21875 29.59375 74.21875 
Q 40.828125 74.21875 47.359375 69.109375 
Q 53.90625 64.015625 53.90625 55.328125 
Q 53.90625 49.265625 50.4375 45.09375 
Q 46.96875 40.921875 40.578125 39.3125 
" id="DejaVuSans-33"/>
     <path d="M 9.8125 72.90625 
L 24.515625 72.90625 
L 43.109375 23.296875 
L 61.8125 72.90625 
L 76.515625 72.90625 
L 76.515625 0 
L 66.890625 0 
L 66.890625 64.015625 
L 48.09375 14.015625 
L 38.1875 14.015625 
L 19.390625 64.015625 
L 19.390625 0 
L 9.8125 0 
z
" id="DejaVuSans-4d"/>
    </defs>
    <g style="fill:#262626;" transform="translate(150.487113 75.976364)scale(0.14 -0.14)">
     <use xlink:href="#DejaVuSans-28"/>
     <use x="39.013672" xlink:href="#DejaVuSans-70"/>
     <use x="102.490234" xlink:href="#DejaVuSans-6f"/>
     <use x="163.671875" xlink:href="#DejaVuSans-70"/>
     <use x="227.148438" xlink:href="#DejaVuSans-20"/>
     <use x="258.935547" xlink:href="#DejaVuSans-31"/>
     <use x="322.558594" xlink:href="#DejaVuSans-2e"/>
     <use x="354.345703" xlink:href="#DejaVuSans-33"/>
     <use x="417.96875" xlink:href="#DejaVuSans-4d"/>
     <use x="504.248047" xlink:href="#DejaVuSans-29"/>
    </g>
   </g>
   <g id="legend_1">
    <g id="line2d_9">
     <path d="M 228.195312 53.158125 
L 252.195312 53.158125 
" style="fill:none;stroke:#000000;stroke-linecap:round;stroke-width:3;"/>
    </g>
    <g id="line2d_10"/>
    <g id="text_8">
     <!-- bldg -->
     <defs>
      <path d="M 45.40625 46.390625 
L 45.40625 75.984375 
L 54.390625 75.984375 
L 54.390625 0 
L 45.40625 0 
L 45.40625 8.203125 
Q 42.578125 3.328125 38.25 0.953125 
Q 33.9375 -1.421875 27.875 -1.421875 
Q 17.96875 -1.421875 11.734375 6.484375 
Q 5.515625 14.40625 5.515625 27.296875 
Q 5.515625 40.1875 11.734375 48.09375 
Q 17.96875 56 27.875 56 
Q 33.9375 56 38.25 53.625 
Q 42.578125 51.265625 45.40625 46.390625 
M 14.796875 27.296875 
Q 14.796875 17.390625 18.875 11.75 
Q 22.953125 6.109375 30.078125 6.109375 
Q 37.203125 6.109375 41.296875 11.75 
Q 45.40625 17.390625 45.40625 27.296875 
Q 45.40625 37.203125 41.296875 42.84375 
Q 37.203125 48.484375 30.078125 48.484375 
Q 22.953125 48.484375 18.875 42.84375 
Q 14.796875 37.203125 14.796875 27.296875 
" id="DejaVuSans-64"/>
      <path d="M 45.40625 27.984375 
Q 45.40625 37.75 41.375 43.109375 
Q 37.359375 48.484375 30.078125 48.484375 
Q 22.859375 48.484375 18.828125 43.109375 
Q 14.796875 37.75 14.796875 27.984375 
Q 14.796875 18.265625 18.828125 12.890625 
Q 22.859375 7.515625 30.078125 7.515625 
Q 37.359375 7.515625 41.375 12.890625 
Q 45.40625 18.265625 45.40625 27.984375 
M 54.390625 6.78125 
Q 54.390625 -7.171875 48.1875 -13.984375 
Q 42 -20.796875 29.203125 -20.796875 
Q 24.46875 -20.796875 20.265625 -20.09375 
Q 16.0625 -19.390625 12.109375 -17.921875 
L 12.109375 -9.1875 
Q 16.0625 -11.328125 19.921875 -12.34375 
Q 23.78125 -13.375 27.78125 -13.375 
Q 36.625 -13.375 41.015625 -8.765625 
Q 45.40625 -4.15625 45.40625 5.171875 
L 45.40625 9.625 
Q 42.625 4.78125 38.28125 2.390625 
Q 33.9375 0 27.875 0 
Q 17.828125 0 11.671875 7.65625 
Q 5.515625 15.328125 5.515625 27.984375 
Q 5.515625 40.671875 11.671875 48.328125 
Q 17.828125 56 27.875 56 
Q 33.9375 56 38.28125 53.609375 
Q 42.625 51.21875 45.40625 46.390625 
L 45.40625 54.6875 
L 54.390625 54.6875 
z
" id="DejaVuSans-67"/>
     </defs>
     <g style="fill:#262626;" transform="translate(261.795313 57.358125)scale(0.12 -0.12)">
      <use xlink:href="#DejaVuSans-62"/>
      <use x="63.476562" xlink:href="#DejaVuSans-6c"/>
      <use x="91.259766" xlink:href="#DejaVuSans-64"/>
      <use x="154.736328" xlink:href="#DejaVuSans-67"/>
     </g>
    </g>
    <g id="line2d_11">
     <path d="M 228.195312 70.771875 
L 252.195312 70.771875 
" style="fill:none;stroke:#008000;stroke-linecap:round;stroke-width:3;"/>
    </g>
    <g id="line2d_12"/>
    <g id="text_9">
     <!-- pop -->
     <g style="fill:#262626;" transform="translate(261.795313 74.971875)scale(0.12 -0.12)">
      <use xlink:href="#DejaVuSans-70"/>
      <use x="63.476562" xlink:href="#DejaVuSans-6f"/>
      <use x="124.658203" xlink:href="#DejaVuSans-70"/>
     </g>
    </g>
    <g id="line2d_13">
     <path d="M 228.195312 88.385625 
L 252.195312 88.385625 
" style="fill:none;stroke:#ffa500;stroke-linecap:round;stroke-width:3;"/>
    </g>
    <g id="line2d_14"/>
    <g id="text_10">
     <!-- lum -->
     <defs>
      <path d="M 8.5 21.578125 
L 8.5 54.6875 
L 17.484375 54.6875 
L 17.484375 21.921875 
Q 17.484375 14.15625 20.5 10.265625 
Q 23.53125 6.390625 29.59375 6.390625 
Q 36.859375 6.390625 41.078125 11.03125 
Q 45.3125 15.671875 45.3125 23.6875 
L 45.3125 54.6875 
L 54.296875 54.6875 
L 54.296875 0 
L 45.3125 0 
L 45.3125 8.40625 
Q 42.046875 3.421875 37.71875 1 
Q 33.40625 -1.421875 27.6875 -1.421875 
Q 18.265625 -1.421875 13.375 4.4375 
Q 8.5 10.296875 8.5 21.578125 
M 31.109375 56 
z
" id="DejaVuSans-75"/>
      <path d="M 52 44.1875 
Q 55.375 50.25 60.0625 53.125 
Q 64.75 56 71.09375 56 
Q 79.640625 56 84.28125 50.015625 
Q 88.921875 44.046875 88.921875 33.015625 
L 88.921875 0 
L 79.890625 0 
L 79.890625 32.71875 
Q 79.890625 40.578125 77.09375 44.375 
Q 74.3125 48.1875 68.609375 48.1875 
Q 61.625 48.1875 57.5625 43.546875 
Q 53.515625 38.921875 53.515625 30.90625 
L 53.515625 0 
L 44.484375 0 
L 44.484375 32.71875 
Q 44.484375 40.625 41.703125 44.40625 
Q 38.921875 48.1875 33.109375 48.1875 
Q 26.21875 48.1875 22.15625 43.53125 
Q 18.109375 38.875 18.109375 30.90625 
L 18.109375 0 
L 9.078125 0 
L 9.078125 54.6875 
L 18.109375 54.6875 
L 18.109375 46.1875 
Q 21.1875 51.21875 25.484375 53.609375 
Q 29.78125 56 35.6875 56 
Q 41.65625 56 45.828125 52.96875 
Q 50 49.953125 52 44.1875 
" id="DejaVuSans-6d"/>
     </defs>
     <g style="fill:#262626;" transform="translate(261.795313 92.585625)scale(0.12 -0.12)">
      <use xlink:href="#DejaVuSans-6c"/>
      <use x="27.783203" xlink:href="#DejaVuSans-75"/>
      <use x="91.162109" xlink:href="#DejaVuSans-6d"/>
     </g>
    </g>
   </g>
  </g>
  <g id="axes_2">
   <g id="patch_7">
    <path d="M 298.783437 207 
L 521.983437 207 
L 521.983437 37.44 
L 298.783437 37.44 
z
" style="fill:#ffffff;"/>
   </g>
   <g id="matplotlib.axis_3"/>
   <g id="matplotlib.axis_4"/>
   <g id="PolyCollection_7">
    <path clip-path="url(#pdd892f5114)" d="M 308.928892 199.292727 
L 308.928892 199.292727 
L 308.928892 199.292727 
L 308.928892 199.292727 
z
" style="fill:#6495ed;fill-opacity:0.4;"/>
   </g>
   <g id="PolyCollection_8">
    <path clip-path="url(#pdd892f5114)" d="M 313.246107 199.292727 
L 313.246107 199.292727 
L 313.246107 199.292727 
L 313.246107 199.292727 
z
" style="fill:#6495ed;fill-opacity:0.4;"/>
   </g>
   <g id="PolyCollection_9">
    <path clip-path="url(#pdd892f5114)" d="M 317.563321 102.877386 
L 317.563321 102.877386 
L 317.563321 102.877386 
L 317.563321 45.147273 
z
" style="fill:#ff0000;fill-opacity:0.4;"/>
   </g>
   <g id="PolyCollection_10">
    <path clip-path="url(#pdd892f5114)" d="M 321.880536 131.604967 
L 321.880536 131.604967 
L 326.197751 123.363667 
L 330.514966 55.059929 
L 334.83218 45.147273 
L 339.149395 64.961328 
L 343.46661 99.915791 
L 347.783824 142.401097 
L 352.101039 172.935273 
L 356.418254 186.487187 
L 360.735468 193.626649 
L 365.052683 196.723713 
L 369.369898 196.76192 
L 373.687113 195.830494 
L 373.687113 195.830494 
L 373.687113 197.953957 
L 369.369898 198.83779 
L 365.052683 198.944748 
L 360.735468 197.887622 
L 356.418254 196.946446 
L 352.101039 193.963887 
L 347.783824 176.790804 
L 343.46661 153.510575 
L 339.149395 121.073782 
L 334.83218 105.01378 
L 330.514966 145.545936 
L 326.197751 163.013624 
L 321.880536 158.636697 
z
" style="fill:#6495ed;fill-opacity:0.4;"/>
   </g>
   <g id="PolyCollection_11">
    <path clip-path="url(#pdd892f5114)" d="M 378.004327 196.057129 
L 378.004327 196.057129 
L 382.321542 194.240282 
L 382.321542 194.240282 
L 382.321542 191.801086 
L 378.004327 194.479676 
z
" style="fill:#ff0000;fill-opacity:0.4;"/>
   </g>
   <g id="PolyCollection_12">
    <path clip-path="url(#pdd892f5114)" d="M 386.638757 194.809413 
L 386.638757 194.809413 
L 386.638757 194.809413 
L 386.638757 195.041829 
z
" style="fill:#6495ed;fill-opacity:0.4;"/>
   </g>
   <g id="PolyCollection_13">
    <path clip-path="url(#pdd892f5114)" d="M 390.955971 195.110194 
L 390.955971 195.110194 
L 390.955971 195.110194 
L 390.955971 194.259682 
z
" style="fill:#ff0000;fill-opacity:0.4;"/>
   </g>
   <g id="PolyCollection_14">
    <path clip-path="url(#pdd892f5114)" d="M 395.273186 196.570273 
L 395.273186 196.570273 
L 399.590401 197.263104 
L 403.907615 198.189831 
L 408.22483 198.653142 
L 412.542045 198.687986 
L 416.85926 198.947346 
L 421.176474 199.180586 
L 421.176474 199.180586 
L 421.176474 199.186361 
L 416.85926 199.159743 
L 412.542045 199.162708 
L 408.22483 199.201986 
L 403.907615 199.143122 
L 399.590401 198.861204 
L 395.273186 198.469246 
z
" style="fill:#6495ed;fill-opacity:0.4;"/>
   </g>
   <g id="PolyCollection_15">
    <path clip-path="url(#pdd892f5114)" d="M 425.493689 199.245896 
L 425.493689 199.245896 
L 429.810904 199.264221 
L 434.128118 199.292727 
L 438.445333 199.277437 
L 442.762548 199.249185 
L 442.762548 199.249185 
L 442.762548 199.20216 
L 438.445333 199.188275 
L 434.128118 199.194642 
L 429.810904 199.154472 
L 425.493689 199.144067 
z
" style="fill:#ff0000;fill-opacity:0.4;"/>
   </g>
   <g id="PolyCollection_16">
    <path clip-path="url(#pdd892f5114)" d="M 447.079762 199.195328 
L 447.079762 199.195328 
L 451.396977 198.997761 
L 455.714192 198.979064 
L 460.031407 199.117861 
L 460.031407 199.117861 
L 460.031407 199.232082 
L 455.714192 199.230956 
L 451.396977 199.222402 
L 447.079762 199.220579 
z
" style="fill:#6495ed;fill-opacity:0.4;"/>
   </g>
   <g id="PolyCollection_17">
    <path clip-path="url(#pdd892f5114)" d="M 464.348621 199.05745 
L 464.348621 199.05745 
L 468.665836 199.198709 
L 472.983051 199.292727 
L 477.300265 199.292727 
L 481.61748 199.292727 
L 485.934695 199.292727 
L 490.251909 199.292727 
L 494.569124 199.292727 
L 498.886339 199.292727 
L 503.203554 199.292727 
L 507.520768 199.292727 
L 507.520768 199.292727 
L 507.520768 199.220298 
L 503.203554 199.236085 
L 498.886339 199.218482 
L 494.569124 199.199302 
L 490.251909 199.165949 
L 485.934695 199.202176 
L 481.61748 199.201252 
L 477.300265 199.172617 
L 472.983051 199.217815 
L 468.665836 199.062881 
L 464.348621 198.994589 
z
" style="fill:#ff0000;fill-opacity:0.4;"/>
   </g>
   <g id="line2d_15">
    <path clip-path="url(#pdd892f5114)" d="M 317.563321 45.147273 
L 321.880536 118.473205 
L 326.197751 150.205121 
L 330.514966 83.968254 
L 334.83218 62.73185 
L 339.149395 92.984517 
L 343.46661 88.941398 
L 347.783824 169.315886 
L 352.101039 165.072897 
L 356.418254 189.310592 
L 360.735468 190.352575 
L 365.052683 195.859549 
L 369.369898 190.34106 
L 373.687113 195.378174 
L 378.004327 195.429586 
L 382.321542 192.953482 
L 386.638757 189.061335 
L 390.955971 193.367641 
L 395.273186 191.956241 
L 399.590401 194.329042 
L 403.907615 197.64415 
L 408.22483 196.739723 
L 412.542045 199.292727 
L 416.85926 199.120139 
L 421.176474 199.292727 
L 425.493689 199.292727 
L 429.810904 199.292727 
L 434.128118 197.592995 
L 438.445333 199.292727 
L 442.762548 199.292727 
L 447.079762 199.292727 
L 451.396977 199.292727 
L 455.714192 199.292727 
L 460.031407 198.026281 
L 464.348621 199.292727 
L 468.665836 199.292727 
L 472.983051 199.292727 
L 477.300265 199.166667 
L 481.61748 199.292727 
L 485.934695 199.292727 
L 490.251909 199.292727 
L 494.569124 198.43644 
L 498.886339 199.292727 
L 503.203554 199.292727 
L 507.520768 199.292727 
L 511.837983 199.292727 
" style="fill:none;stroke:#000000;stroke-linecap:round;stroke-width:3;"/>
   </g>
   <g id="line2d_16">
    <path clip-path="url(#pdd892f5114)" d="M 317.563321 45.147273 
L 321.880536 158.636697 
L 326.197751 163.013624 
L 330.514966 145.545936 
L 334.83218 105.01378 
L 339.149395 121.073782 
L 343.46661 153.510575 
L 347.783824 176.790804 
L 352.101039 193.963887 
L 356.418254 196.946446 
L 360.735468 197.887622 
L 365.052683 198.944748 
L 369.369898 198.83779 
L 373.687113 197.953957 
L 378.004327 194.479676 
L 382.321542 191.801086 
L 386.638757 195.041829 
L 390.955971 194.259682 
L 395.273186 198.469246 
L 399.590401 198.861204 
L 403.907615 199.143122 
L 408.22483 199.201986 
L 412.542045 199.162708 
L 416.85926 199.159743 
L 421.176474 199.186361 
L 425.493689 199.144067 
L 429.810904 199.154472 
L 434.128118 199.194642 
L 438.445333 199.188275 
L 442.762548 199.20216 
L 447.079762 199.220579 
L 451.396977 199.222402 
L 455.714192 199.230956 
L 460.031407 199.232082 
L 464.348621 198.994589 
L 468.665836 199.062881 
L 472.983051 199.217815 
L 477.300265 199.172617 
L 481.61748 199.201252 
L 485.934695 199.202176 
L 490.251909 199.165949 
L 494.569124 199.199302 
L 498.886339 199.218482 
L 503.203554 199.236085 
L 507.520768 199.220298 
L 511.837983 199.227417 
" style="fill:none;stroke:#008000;stroke-linecap:round;stroke-width:3;"/>
   </g>
   <g id="line2d_17">
    <path clip-path="url(#pdd892f5114)" d="M 317.563321 102.877386 
L 321.880536 131.604967 
L 326.197751 123.363667 
L 330.514966 55.059929 
L 334.83218 45.147273 
L 339.149395 64.961328 
L 343.46661 99.915791 
L 347.783824 142.401097 
L 352.101039 172.935273 
L 356.418254 186.487187 
L 360.735468 193.626649 
L 365.052683 196.723713 
L 369.369898 196.76192 
L 373.687113 195.830494 
L 378.004327 196.057129 
L 382.321542 194.240282 
L 386.638757 194.809413 
L 390.955971 195.110194 
L 395.273186 196.570273 
L 399.590401 197.263104 
L 403.907615 198.189831 
L 408.22483 198.653142 
L 412.542045 198.687986 
L 416.85926 198.947346 
L 421.176474 199.180586 
L 425.493689 199.245896 
L 429.810904 199.264221 
L 434.128118 199.292727 
L 438.445333 199.277437 
L 442.762548 199.249185 
L 447.079762 199.195328 
L 451.396977 198.997761 
L 455.714192 198.979064 
L 460.031407 199.117861 
L 464.348621 199.05745 
L 468.665836 199.198709 
L 472.983051 199.292727 
L 477.300265 199.292727 
L 481.61748 199.292727 
L 485.934695 199.292727 
L 490.251909 199.292727 
L 494.569124 199.292727 
L 498.886339 199.292727 
L 503.203554 199.292727 
L 507.520768 199.292727 
L 511.837983 199.292727 
" style="fill:none;stroke:#ffa500;stroke-linecap:round;stroke-width:3;"/>
   </g>
   <g id="patch_8">
    <path d="M 298.783437 207 
L 298.783437 37.44 
" style="fill:none;stroke:#262626;stroke-linecap:square;stroke-linejoin:miter;stroke-width:1.25;"/>
   </g>
   <g id="patch_9">
    <path d="M 521.983437 207 
L 521.983437 37.44 
" style="fill:none;stroke:#262626;stroke-linecap:square;stroke-linejoin:miter;stroke-width:1.25;"/>
   </g>
   <g id="patch_10">
    <path d="M 298.783437 207 
L 521.983437 207 
" style="fill:none;stroke:#262626;stroke-linecap:square;stroke-linejoin:miter;stroke-width:1.25;"/>
   </g>
   <g id="patch_11">
    <path d="M 298.783437 37.44 
L 521.983437 37.44 
" style="fill:none;stroke:#262626;stroke-linecap:square;stroke-linejoin:miter;stroke-width:1.25;"/>
   </g>
   <g id="text_11">
    <!-- bamako -->
    <defs>
     <path d="M 9.078125 75.984375 
L 18.109375 75.984375 
L 18.109375 31.109375 
L 44.921875 54.6875 
L 56.390625 54.6875 
L 27.390625 29.109375 
L 57.625 0 
L 45.90625 0 
L 18.109375 26.703125 
L 18.109375 0 
L 9.078125 0 
z
" id="DejaVuSans-6b"/>
    </defs>
    <g style="fill:#262626;" transform="translate(373.687113 60.299426)scale(0.14 -0.14)">
     <use xlink:href="#DejaVuSans-62"/>
     <use x="63.476562" xlink:href="#DejaVuSans-61"/>
     <use x="124.755859" xlink:href="#DejaVuSans-6d"/>
     <use x="222.167969" xlink:href="#DejaVuSans-61"/>
     <use x="283.447266" xlink:href="#DejaVuSans-6b"/>
     <use x="341.310547" xlink:href="#DejaVuSans-6f"/>
    </g>
    <!-- (pop 2.0M) -->
    <g style="fill:#262626;" transform="translate(373.687113 75.976364)scale(0.14 -0.14)">
     <use xlink:href="#DejaVuSans-28"/>
     <use x="39.013672" xlink:href="#DejaVuSans-70"/>
     <use x="102.490234" xlink:href="#DejaVuSans-6f"/>
     <use x="163.671875" xlink:href="#DejaVuSans-70"/>
     <use x="227.148438" xlink:href="#DejaVuSans-20"/>
     <use x="258.935547" xlink:href="#DejaVuSans-32"/>
     <use x="322.558594" xlink:href="#DejaVuSans-2e"/>
     <use x="354.345703" xlink:href="#DejaVuSans-30"/>
     <use x="417.96875" xlink:href="#DejaVuSans-4d"/>
     <use x="504.248047" xlink:href="#DejaVuSans-29"/>
    </g>
   </g>
  </g>
  <g id="axes_3">
   <g id="patch_12">
    <path d="M 75.583438 376.56 
L 298.783437 376.56 
L 298.783437 207 
L 75.583438 207 
z
" style="fill:#ffffff;"/>
   </g>
   <g id="matplotlib.axis_5">
    <g id="xtick_1">
     <g id="line2d_18">
      <defs>
       <path d="M 0 0 
L 0 6 
" id="m8843f3edd0" style="stroke:#262626;"/>
      </defs>
      <g>
       <use style="fill:#262626;stroke:#262626;" x="85.728892" xlink:href="#m8843f3edd0" y="376.56"/>
      </g>
     </g>
     <g id="text_12">
      <!-- 0 -->
      <g style="fill:#262626;" transform="translate(80.957017 400.957656)scale(0.15 -0.15)">
       <use xlink:href="#DejaVuSans-30"/>
      </g>
     </g>
    </g>
    <g id="xtick_2">
     <g id="line2d_19">
      <g>
       <use style="fill:#262626;stroke:#262626;" x="172.073186" xlink:href="#m8843f3edd0" y="376.56"/>
      </g>
     </g>
     <g id="text_13">
      <!-- 20 -->
      <g style="fill:#262626;" transform="translate(162.529436 400.957656)scale(0.15 -0.15)">
       <use xlink:href="#DejaVuSans-32"/>
       <use x="63.623047" xlink:href="#DejaVuSans-30"/>
      </g>
     </g>
    </g>
    <g id="xtick_3">
     <g id="line2d_20">
      <g>
       <use style="fill:#262626;stroke:#262626;" x="258.41748" xlink:href="#m8843f3edd0" y="376.56"/>
      </g>
     </g>
     <g id="text_14">
      <!-- 40 -->
      <defs>
       <path d="M 37.796875 64.3125 
L 12.890625 25.390625 
L 37.796875 25.390625 
z
M 35.203125 72.90625 
L 47.609375 72.90625 
L 47.609375 25.390625 
L 58.015625 25.390625 
L 58.015625 17.1875 
L 47.609375 17.1875 
L 47.609375 0 
L 37.796875 0 
L 37.796875 17.1875 
L 4.890625 17.1875 
L 4.890625 26.703125 
z
" id="DejaVuSans-34"/>
      </defs>
      <g style="fill:#262626;" transform="translate(248.87373 400.957656)scale(0.15 -0.15)">
       <use xlink:href="#DejaVuSans-34"/>
       <use x="63.623047" xlink:href="#DejaVuSans-30"/>
      </g>
     </g>
    </g>
    <g id="text_15">
     <!-- $d \ [km]$ -->
     <defs>
      <path d="M 8.59375 75.984375 
L 29.296875 75.984375 
L 29.296875 69 
L 17.578125 69 
L 17.578125 -6.203125 
L 29.296875 -6.203125 
L 29.296875 -13.1875 
L 8.59375 -13.1875 
z
" id="DejaVuSans-5b"/>
      <path d="M 18.3125 75.984375 
L 27.296875 75.984375 
L 18.703125 31.6875 
L 49.515625 54.6875 
L 61.1875 54.6875 
L 26.8125 28.515625 
L 51.90625 0 
L 41.015625 0 
L 17.671875 26.703125 
L 12.5 0 
L 3.515625 0 
z
" id="DejaVuSans-Oblique-6b"/>
      <path d="M 89.796875 33.015625 
L 83.40625 0 
L 74.421875 0 
L 80.71875 32.71875 
Q 81.109375 34.8125 81.296875 36.328125 
Q 81.5 37.84375 81.5 38.921875 
Q 81.5 43.3125 79.046875 45.75 
Q 76.609375 48.1875 72.21875 48.1875 
Q 65.671875 48.1875 60.546875 43.28125 
Q 55.421875 38.375 53.90625 30.515625 
L 47.90625 0 
L 38.921875 0 
L 45.3125 32.71875 
Q 45.703125 34.515625 45.890625 36.046875 
Q 46.09375 37.59375 46.09375 38.8125 
Q 46.09375 43.265625 43.65625 45.71875 
Q 41.21875 48.1875 36.921875 48.1875 
Q 30.28125 48.1875 25.140625 43.28125 
Q 20.015625 38.375 18.5 30.515625 
L 12.5 0 
L 3.515625 0 
L 14.203125 54.6875 
L 23.1875 54.6875 
L 21.484375 46.1875 
Q 25.140625 50.984375 30.046875 53.484375 
Q 34.96875 56 40.578125 56 
Q 46.53125 56 50.359375 52.875 
Q 54.203125 49.75 54.984375 44.1875 
Q 59.078125 49.953125 64.46875 52.96875 
Q 69.875 56 75.875 56 
Q 82.90625 56 86.734375 51.953125 
Q 90.578125 47.90625 90.578125 40.484375 
Q 90.578125 38.875 90.375 36.9375 
Q 90.1875 35.015625 89.796875 33.015625 
" id="DejaVuSans-Oblique-6d"/>
      <path d="M 30.421875 75.984375 
L 30.421875 -13.1875 
L 9.71875 -13.1875 
L 9.71875 -6.203125 
L 21.390625 -6.203125 
L 21.390625 69 
L 9.71875 69 
L 9.71875 75.984375 
z
" id="DejaVuSans-5d"/>
     </defs>
     <g style="fill:#262626;" transform="translate(159.958438 420.614609)scale(0.165 -0.165)">
      <use transform="translate(0 0.015625)" xlink:href="#DejaVuSans-Oblique-64"/>
      <use transform="translate(95.946941 0.015625)" xlink:href="#DejaVuSans-5b"/>
      <use transform="translate(134.960613 0.015625)" xlink:href="#DejaVuSans-Oblique-6b"/>
      <use transform="translate(192.870769 0.015625)" xlink:href="#DejaVuSans-Oblique-6d"/>
      <use transform="translate(290.282878 0.015625)" xlink:href="#DejaVuSans-5d"/>
     </g>
    </g>
   </g>
   <g id="matplotlib.axis_6">
    <g id="ytick_6">
     <g id="line2d_21">
      <g>
       <use style="fill:#262626;stroke:#262626;" x="75.583438" xlink:href="#md6749352a5" y="368.852727"/>
      </g>
     </g>
     <g id="text_16">
      <!-- 0.00 -->
      <g style="fill:#262626;" transform="translate(29.185 374.551555)scale(0.15 -0.15)">
       <use xlink:href="#DejaVuSans-30"/>
       <use x="63.623047" xlink:href="#DejaVuSans-2e"/>
       <use x="95.410156" xlink:href="#DejaVuSans-30"/>
       <use x="159.033203" xlink:href="#DejaVuSans-30"/>
      </g>
     </g>
    </g>
    <g id="ytick_7">
     <g id="line2d_22">
      <g>
       <use style="fill:#262626;stroke:#262626;" x="75.583438" xlink:href="#md6749352a5" y="330.316364"/>
      </g>
     </g>
     <g id="text_17">
      <!-- 0.25 -->
      <g style="fill:#262626;" transform="translate(29.185 336.015192)scale(0.15 -0.15)">
       <use xlink:href="#DejaVuSans-30"/>
       <use x="63.623047" xlink:href="#DejaVuSans-2e"/>
       <use x="95.410156" xlink:href="#DejaVuSans-32"/>
       <use x="159.033203" xlink:href="#DejaVuSans-35"/>
      </g>
     </g>
    </g>
    <g id="ytick_8">
     <g id="line2d_23">
      <g>
       <use style="fill:#262626;stroke:#262626;" x="75.583438" xlink:href="#md6749352a5" y="291.78"/>
      </g>
     </g>
     <g id="text_18">
      <!-- 0.50 -->
      <g style="fill:#262626;" transform="translate(29.185 297.478828)scale(0.15 -0.15)">
       <use xlink:href="#DejaVuSans-30"/>
       <use x="63.623047" xlink:href="#DejaVuSans-2e"/>
       <use x="95.410156" xlink:href="#DejaVuSans-35"/>
       <use x="159.033203" xlink:href="#DejaVuSans-30"/>
      </g>
     </g>
    </g>
    <g id="ytick_9">
     <g id="line2d_24">
      <g>
       <use style="fill:#262626;stroke:#262626;" x="75.583438" xlink:href="#md6749352a5" y="253.243636"/>
      </g>
     </g>
     <g id="text_19">
      <!-- 0.75 -->
      <g style="fill:#262626;" transform="translate(29.185 258.942464)scale(0.15 -0.15)">
       <use xlink:href="#DejaVuSans-30"/>
       <use x="63.623047" xlink:href="#DejaVuSans-2e"/>
       <use x="95.410156" xlink:href="#DejaVuSans-37"/>
       <use x="159.033203" xlink:href="#DejaVuSans-35"/>
      </g>
     </g>
    </g>
    <g id="ytick_10">
     <g id="line2d_25">
      <g>
       <use style="fill:#262626;stroke:#262626;" x="75.583438" xlink:href="#md6749352a5" y="214.707273"/>
      </g>
     </g>
     <g id="text_20">
      <!-- 1.00 -->
      <g style="fill:#262626;" transform="translate(29.185 220.406101)scale(0.15 -0.15)">
       <use xlink:href="#DejaVuSans-31"/>
       <use x="63.623047" xlink:href="#DejaVuSans-2e"/>
       <use x="95.410156" xlink:href="#DejaVuSans-30"/>
       <use x="159.033203" xlink:href="#DejaVuSans-30"/>
      </g>
     </g>
    </g>
    <g id="text_21">
     <!-- $\hat x_{\cdot}(d)$ -->
     <g style="fill:#262626;" transform="translate(21.753516 310.8375)rotate(-90)scale(0.165 -0.165)">
      <use transform="translate(64.226562 12.015625)" xlink:href="#DejaVuSans-302"/>
      <use transform="translate(0 0.828125)" xlink:href="#DejaVuSans-Oblique-78"/>
      <use transform="translate(63.550781 -15.578125)scale(0.7)" xlink:href="#DejaVuSans-22c5"/>
      <use transform="translate(88.536133 0.828125)" xlink:href="#DejaVuSans-28"/>
      <use transform="translate(127.549805 0.828125)" xlink:href="#DejaVuSans-Oblique-64"/>
      <use transform="translate(191.026367 0.828125)" xlink:href="#DejaVuSans-29"/>
     </g>
    </g>
   </g>
   <g id="PolyCollection_18">
    <path clip-path="url(#p2c05dec86a)" d="M 85.728892 368.852727 
L 85.728892 368.852727 
L 85.728892 368.852727 
L 85.728892 368.852727 
z
" style="fill:#6495ed;fill-opacity:0.4;"/>
   </g>
   <g id="PolyCollection_19">
    <path clip-path="url(#p2c05dec86a)" d="M 90.046107 368.852727 
L 90.046107 368.852727 
L 90.046107 368.852727 
L 90.046107 368.852727 
z
" style="fill:#6495ed;fill-opacity:0.4;"/>
   </g>
   <g id="PolyCollection_20">
    <path clip-path="url(#p2c05dec86a)" d="M 94.363321 269.933981 
L 94.363321 269.933981 
L 98.680536 214.707273 
L 102.997751 243.986213 
L 107.314966 244.048104 
L 107.314966 244.048104 
L 107.314966 231.939806 
L 102.997751 228.163038 
L 98.680536 214.707273 
L 94.363321 265.564236 
z
" style="fill:#ff0000;fill-opacity:0.4;"/>
   </g>
   <g id="PolyCollection_21">
    <path clip-path="url(#p2c05dec86a)" d="M 111.63218 251.222939 
L 111.63218 251.222939 
L 115.949395 279.95761 
L 120.26661 287.265462 
L 124.583824 272.737965 
L 128.901039 274.555926 
L 133.218254 277.673041 
L 137.535468 294.307959 
L 141.852683 298.343296 
L 146.169898 313.798226 
L 150.487113 316.480996 
L 154.804327 319.280379 
L 159.121542 326.678052 
L 163.438757 332.259521 
L 167.755971 339.265264 
L 172.073186 345.658075 
L 176.390401 351.238327 
L 180.707615 352.737297 
L 185.02483 341.936824 
L 189.342045 343.406113 
L 193.65926 347.461116 
L 197.976474 347.391871 
L 202.293689 347.991308 
L 206.610904 349.163692 
L 210.928118 352.212367 
L 215.245333 353.561715 
L 219.562548 353.013017 
L 223.879762 354.833372 
L 228.196977 360.418677 
L 232.514192 359.873541 
L 236.831407 361.502527 
L 241.148621 363.546948 
L 245.465836 361.588683 
L 249.783051 362.738916 
L 254.100265 364.246089 
L 258.41748 364.586551 
L 262.734695 363.955974 
L 267.051909 365.270941 
L 271.369124 364.827967 
L 275.686339 363.692922 
L 280.003554 364.925136 
L 284.320768 363.470666 
L 284.320768 363.470666 
L 284.320768 367.624267 
L 280.003554 368.094013 
L 275.686339 368.132438 
L 271.369124 368.312223 
L 267.051909 368.286167 
L 262.734695 367.947907 
L 258.41748 367.956821 
L 254.100265 368.07645 
L 249.783051 367.907357 
L 245.465836 367.99052 
L 241.148621 367.898343 
L 236.831407 366.965634 
L 232.514192 366.917318 
L 228.196977 367.265323 
L 223.879762 367.090738 
L 219.562548 366.089698 
L 215.245333 365.87399 
L 210.928118 365.147658 
L 206.610904 364.453889 
L 202.293689 364.421728 
L 197.976474 364.62693 
L 193.65926 364.101113 
L 189.342045 363.719156 
L 185.02483 363.102797 
L 180.707615 366.505977 
L 176.390401 365.126648 
L 172.073186 362.01208 
L 167.755971 359.468161 
L 163.438757 357.801315 
L 159.121542 351.943841 
L 154.804327 349.20245 
L 150.487113 349.017519 
L 146.169898 345.669182 
L 141.852683 340.075774 
L 137.535468 339.288076 
L 133.218254 335.382652 
L 128.901039 319.186246 
L 124.583824 318.292721 
L 120.26661 317.481367 
L 115.949395 316.604423 
L 111.63218 287.547959 
z
" style="fill:#6495ed;fill-opacity:0.4;"/>
   </g>
   <g id="line2d_26">
    <path clip-path="url(#p2c05dec86a)" d="M 94.363321 265.490392 
L 98.680536 233.155857 
L 102.997751 220.059505 
L 107.314966 214.707273 
L 111.63218 229.667088 
L 115.949395 250.108617 
L 120.26661 269.927822 
L 124.583824 238.335802 
L 128.901039 228.866961 
L 133.218254 230.491774 
L 137.535468 236.061519 
L 141.852683 242.016735 
L 146.169898 243.827545 
L 150.487113 245.256757 
L 154.804327 267.144192 
L 159.121542 285.885709 
L 163.438757 297.624245 
L 167.755971 292.475 
L 172.073186 299.134613 
L 176.390401 319.991773 
L 180.707615 342.387343 
L 185.02483 307.697626 
L 189.342045 320.232939 
L 193.65926 324.43596 
L 197.976474 322.625131 
L 202.293689 315.339776 
L 206.610904 325.438054 
L 210.928118 332.111014 
L 215.245333 332.205167 
L 219.562548 330.064918 
L 223.879762 335.36475 
L 228.196977 349.068467 
L 232.514192 344.513018 
L 236.831407 342.841953 
L 241.148621 354.474975 
L 245.465836 351.76777 
L 249.783051 350.083861 
L 254.100265 354.840091 
L 258.41748 355.933993 
L 262.734695 350.319983 
L 267.051909 361.760196 
L 271.369124 359.997433 
L 275.686339 356.842355 
L 280.003554 360.782646 
L 284.320768 353.543943 
L 288.637983 356.204003 
" style="fill:none;stroke:#000000;stroke-linecap:round;stroke-width:3;"/>
   </g>
   <g id="line2d_27">
    <path clip-path="url(#p2c05dec86a)" d="M 94.363321 265.564236 
L 98.680536 214.707273 
L 102.997751 228.163038 
L 107.314966 231.939806 
L 111.63218 287.547959 
L 115.949395 316.604423 
L 120.26661 317.481367 
L 124.583824 318.292721 
L 128.901039 319.186246 
L 133.218254 335.382652 
L 137.535468 339.288076 
L 141.852683 340.075774 
L 146.169898 345.669182 
L 150.487113 349.017519 
L 154.804327 349.20245 
L 159.121542 351.943841 
L 163.438757 357.801315 
L 167.755971 359.468161 
L 172.073186 362.01208 
L 176.390401 365.126648 
L 180.707615 366.505977 
L 185.02483 363.102797 
L 189.342045 363.719156 
L 193.65926 364.101113 
L 197.976474 364.62693 
L 202.293689 364.421728 
L 206.610904 364.453889 
L 210.928118 365.147658 
L 215.245333 365.87399 
L 219.562548 366.089698 
L 223.879762 367.090738 
L 228.196977 367.265323 
L 232.514192 366.917318 
L 236.831407 366.965634 
L 241.148621 367.898343 
L 245.465836 367.99052 
L 249.783051 367.907357 
L 254.100265 368.07645 
L 258.41748 367.956821 
L 262.734695 367.947907 
L 267.051909 368.286167 
L 271.369124 368.312223 
L 275.686339 368.132438 
L 280.003554 368.094013 
L 284.320768 367.624267 
L 288.637983 367.488227 
" style="fill:none;stroke:#008000;stroke-linecap:round;stroke-width:3;"/>
   </g>
   <g id="line2d_28">
    <path clip-path="url(#p2c05dec86a)" d="M 94.363321 269.933981 
L 98.680536 214.707273 
L 102.997751 243.986213 
L 107.314966 244.048104 
L 111.63218 251.222939 
L 115.949395 279.95761 
L 120.26661 287.265462 
L 124.583824 272.737965 
L 128.901039 274.555926 
L 133.218254 277.673041 
L 137.535468 294.307959 
L 141.852683 298.343296 
L 146.169898 313.798226 
L 150.487113 316.480996 
L 154.804327 319.280379 
L 159.121542 326.678052 
L 163.438757 332.259521 
L 167.755971 339.265264 
L 172.073186 345.658075 
L 176.390401 351.238327 
L 180.707615 352.737297 
L 185.02483 341.936824 
L 189.342045 343.406113 
L 193.65926 347.461116 
L 197.976474 347.391871 
L 202.293689 347.991308 
L 206.610904 349.163692 
L 210.928118 352.212367 
L 215.245333 353.561715 
L 219.562548 353.013017 
L 223.879762 354.833372 
L 228.196977 360.418677 
L 232.514192 359.873541 
L 236.831407 361.502527 
L 241.148621 363.546948 
L 245.465836 361.588683 
L 249.783051 362.738916 
L 254.100265 364.246089 
L 258.41748 364.586551 
L 262.734695 363.955974 
L 267.051909 365.270941 
L 271.369124 364.827967 
L 275.686339 363.692922 
L 280.003554 364.925136 
L 284.320768 363.470666 
L 288.637983 363.18909 
" style="fill:none;stroke:#ffa500;stroke-linecap:round;stroke-width:3;"/>
   </g>
   <g id="patch_13">
    <path d="M 75.583438 376.56 
L 75.583438 207 
" style="fill:none;stroke:#262626;stroke-linecap:square;stroke-linejoin:miter;stroke-width:1.25;"/>
   </g>
   <g id="patch_14">
    <path d="M 298.783437 376.56 
L 298.783437 207 
" style="fill:none;stroke:#262626;stroke-linecap:square;stroke-linejoin:miter;stroke-width:1.25;"/>
   </g>
   <g id="patch_15">
    <path d="M 75.583438 376.56 
L 298.783437 376.56 
" style="fill:none;stroke:#262626;stroke-linecap:square;stroke-linejoin:miter;stroke-width:1.25;"/>
   </g>
   <g id="patch_16">
    <path d="M 75.583438 207 
L 298.783437 207 
" style="fill:none;stroke:#262626;stroke-linecap:square;stroke-linejoin:miter;stroke-width:1.25;"/>
   </g>
   <g id="text_22">
    <!-- paris -->
    <defs>
     <path d="M 44.28125 53.078125 
L 44.28125 44.578125 
Q 40.484375 46.53125 36.375 47.5 
Q 32.28125 48.484375 27.875 48.484375 
Q 21.1875 48.484375 17.84375 46.4375 
Q 14.5 44.390625 14.5 40.28125 
Q 14.5 37.15625 16.890625 35.375 
Q 19.28125 33.59375 26.515625 31.984375 
L 29.59375 31.296875 
Q 39.15625 29.25 43.1875 25.515625 
Q 47.21875 21.78125 47.21875 15.09375 
Q 47.21875 7.46875 41.1875 3.015625 
Q 35.15625 -1.421875 24.609375 -1.421875 
Q 20.21875 -1.421875 15.453125 -0.5625 
Q 10.6875 0.296875 5.421875 2 
L 5.421875 11.28125 
Q 10.40625 8.6875 15.234375 7.390625 
Q 20.0625 6.109375 24.8125 6.109375 
Q 31.15625 6.109375 34.5625 8.28125 
Q 37.984375 10.453125 37.984375 14.40625 
Q 37.984375 18.0625 35.515625 20.015625 
Q 33.0625 21.96875 24.703125 23.78125 
L 21.578125 24.515625 
Q 13.234375 26.265625 9.515625 29.90625 
Q 5.8125 33.546875 5.8125 39.890625 
Q 5.8125 47.609375 11.28125 51.796875 
Q 16.75 56 26.8125 56 
Q 31.78125 56 36.171875 55.265625 
Q 40.578125 54.546875 44.28125 53.078125 
" id="DejaVuSans-73"/>
    </defs>
    <g style="fill:#262626;" transform="translate(150.487113 229.859426)scale(0.14 -0.14)">
     <use xlink:href="#DejaVuSans-70"/>
     <use x="63.476562" xlink:href="#DejaVuSans-61"/>
     <use x="124.755859" xlink:href="#DejaVuSans-72"/>
     <use x="165.869141" xlink:href="#DejaVuSans-69"/>
     <use x="193.652344" xlink:href="#DejaVuSans-73"/>
    </g>
    <!-- (pop 2.5M) -->
    <g style="fill:#262626;" transform="translate(150.487113 245.536364)scale(0.14 -0.14)">
     <use xlink:href="#DejaVuSans-28"/>
     <use x="39.013672" xlink:href="#DejaVuSans-70"/>
     <use x="102.490234" xlink:href="#DejaVuSans-6f"/>
     <use x="163.671875" xlink:href="#DejaVuSans-70"/>
     <use x="227.148438" xlink:href="#DejaVuSans-20"/>
     <use x="258.935547" xlink:href="#DejaVuSans-32"/>
     <use x="322.558594" xlink:href="#DejaVuSans-2e"/>
     <use x="354.345703" xlink:href="#DejaVuSans-35"/>
     <use x="417.96875" xlink:href="#DejaVuSans-4d"/>
     <use x="504.248047" xlink:href="#DejaVuSans-29"/>
    </g>
   </g>
  </g>
  <g id="axes_4">
   <g id="patch_17">
    <path d="M 298.783437 376.56 
L 521.983437 376.56 
L 521.983437 207 
L 298.783437 207 
z
" style="fill:#ffffff;"/>
   </g>
   <g id="matplotlib.axis_7">
    <g id="xtick_4">
     <g id="line2d_29">
      <g>
       <use style="fill:#262626;stroke:#262626;" x="308.928892" xlink:href="#m8843f3edd0" y="376.56"/>
      </g>
     </g>
     <g id="text_23">
      <!-- 0 -->
      <g style="fill:#262626;" transform="translate(304.157017 400.957656)scale(0.15 -0.15)">
       <use xlink:href="#DejaVuSans-30"/>
      </g>
     </g>
    </g>
    <g id="xtick_5">
     <g id="line2d_30">
      <g>
       <use style="fill:#262626;stroke:#262626;" x="395.273186" xlink:href="#m8843f3edd0" y="376.56"/>
      </g>
     </g>
     <g id="text_24">
      <!-- 20 -->
      <g style="fill:#262626;" transform="translate(385.729436 400.957656)scale(0.15 -0.15)">
       <use xlink:href="#DejaVuSans-32"/>
       <use x="63.623047" xlink:href="#DejaVuSans-30"/>
      </g>
     </g>
    </g>
    <g id="xtick_6">
     <g id="line2d_31">
      <g>
       <use style="fill:#262626;stroke:#262626;" x="481.61748" xlink:href="#m8843f3edd0" y="376.56"/>
      </g>
     </g>
     <g id="text_25">
      <!-- 40 -->
      <g style="fill:#262626;" transform="translate(472.07373 400.957656)scale(0.15 -0.15)">
       <use xlink:href="#DejaVuSans-34"/>
       <use x="63.623047" xlink:href="#DejaVuSans-30"/>
      </g>
     </g>
    </g>
    <g id="text_26">
     <!-- $d \ [km]$ -->
     <g style="fill:#262626;" transform="translate(383.158437 420.614609)scale(0.165 -0.165)">
      <use transform="translate(0 0.015625)" xlink:href="#DejaVuSans-Oblique-64"/>
      <use transform="translate(95.946941 0.015625)" xlink:href="#DejaVuSans-5b"/>
      <use transform="translate(134.960613 0.015625)" xlink:href="#DejaVuSans-Oblique-6b"/>
      <use transform="translate(192.870769 0.015625)" xlink:href="#DejaVuSans-Oblique-6d"/>
      <use transform="translate(290.282878 0.015625)" xlink:href="#DejaVuSans-5d"/>
     </g>
    </g>
   </g>
   <g id="matplotlib.axis_8"/>
   <g id="PolyCollection_22">
    <path clip-path="url(#pc1dd58b387)" d="M 308.928892 368.852727 
L 308.928892 368.852727 
L 308.928892 368.852727 
L 308.928892 368.852727 
z
" style="fill:#6495ed;fill-opacity:0.4;"/>
   </g>
   <g id="PolyCollection_23">
    <path clip-path="url(#pc1dd58b387)" d="M 313.246107 368.852727 
L 313.246107 368.852727 
L 313.246107 368.852727 
L 313.246107 368.852727 
z
" style="fill:#6495ed;fill-opacity:0.4;"/>
   </g>
   <g id="PolyCollection_24">
    <path clip-path="url(#pc1dd58b387)" d="M 317.563321 261.376314 
L 317.563321 261.376314 
L 321.880536 259.27574 
L 321.880536 259.27574 
L 321.880536 237.416369 
L 317.563321 232.19042 
z
" style="fill:#ff0000;fill-opacity:0.4;"/>
   </g>
   <g id="PolyCollection_25">
    <path clip-path="url(#pc1dd58b387)" d="M 326.197751 227.540633 
L 326.197751 227.540633 
L 326.197751 227.540633 
L 326.197751 235.04493 
z
" style="fill:#6495ed;fill-opacity:0.4;"/>
   </g>
   <g id="PolyCollection_26">
    <path clip-path="url(#pc1dd58b387)" d="M 330.514966 241.606312 
L 330.514966 241.606312 
L 330.514966 241.606312 
L 330.514966 214.707273 
z
" style="fill:#ff0000;fill-opacity:0.4;"/>
   </g>
   <g id="PolyCollection_27">
    <path clip-path="url(#pc1dd58b387)" d="M 334.83218 214.707273 
L 334.83218 214.707273 
L 339.149395 238.126972 
L 343.46661 238.900754 
L 347.783824 230.328168 
L 352.101039 232.660314 
L 352.101039 232.660314 
L 352.101039 235.161377 
L 347.783824 258.668777 
L 343.46661 273.703274 
L 339.149395 258.825566 
L 334.83218 237.358287 
z
" style="fill:#6495ed;fill-opacity:0.4;"/>
   </g>
   <g id="PolyCollection_28">
    <path clip-path="url(#pc1dd58b387)" d="M 356.418254 232.211434 
L 356.418254 232.211434 
L 360.735468 242.605919 
L 365.052683 265.754439 
L 369.369898 262.23588 
L 369.369898 262.23588 
L 369.369898 247.308735 
L 365.052683 236.223971 
L 360.735468 242.09846 
L 356.418254 228.594541 
z
" style="fill:#ff0000;fill-opacity:0.4;"/>
   </g>
   <g id="PolyCollection_29">
    <path clip-path="url(#pc1dd58b387)" d="M 373.687113 258.77525 
L 373.687113 258.77525 
L 373.687113 258.77525 
L 373.687113 267.447234 
z
" style="fill:#6495ed;fill-opacity:0.4;"/>
   </g>
   <g id="PolyCollection_30">
    <path clip-path="url(#pc1dd58b387)" d="M 378.004327 269.067081 
L 378.004327 269.067081 
L 382.321542 283.306407 
L 386.638757 287.936721 
L 390.955971 294.765302 
L 395.273186 298.768748 
L 399.590401 305.558442 
L 403.907615 308.250724 
L 403.907615 308.250724 
L 403.907615 304.690908 
L 399.590401 286.508315 
L 395.273186 288.700998 
L 390.955971 283.349183 
L 386.638757 259.780648 
L 382.321542 250.871702 
L 378.004327 263.345385 
z
" style="fill:#ff0000;fill-opacity:0.4;"/>
   </g>
   <g id="PolyCollection_31">
    <path clip-path="url(#pc1dd58b387)" d="M 408.22483 304.917685 
L 408.22483 304.917685 
L 412.542045 302.337544 
L 416.85926 300.45881 
L 421.176474 303.769276 
L 425.493689 305.686779 
L 429.810904 309.755989 
L 434.128118 301.32259 
L 438.445333 304.701777 
L 442.762548 307.355616 
L 447.079762 320.642452 
L 451.396977 322.104765 
L 455.714192 325.001574 
L 460.031407 328.977416 
L 460.031407 328.977416 
L 460.031407 331.787255 
L 455.714192 341.074098 
L 451.396977 339.655336 
L 447.079762 338.122046 
L 442.762548 337.414337 
L 438.445333 335.850244 
L 434.128118 330.78299 
L 429.810904 329.600111 
L 425.493689 335.04446 
L 421.176474 326.413497 
L 416.85926 323.059851 
L 412.542045 321.98036 
L 408.22483 318.767421 
z
" style="fill:#6495ed;fill-opacity:0.4;"/>
   </g>
   <g id="PolyCollection_32">
    <path clip-path="url(#pc1dd58b387)" d="M 464.348621 334.328066 
L 464.348621 334.328066 
L 464.348621 334.328066 
L 464.348621 330.518815 
z
" style="fill:#ff0000;fill-opacity:0.4;"/>
   </g>
   <g id="PolyCollection_33">
    <path clip-path="url(#pc1dd58b387)" d="M 468.665836 335.995516 
L 468.665836 335.995516 
L 472.983051 330.658661 
L 477.300265 316.886669 
L 481.61748 319.669303 
L 485.934695 315.828602 
L 490.251909 307.782306 
L 494.569124 308.633417 
L 498.886339 313.937904 
L 503.203554 314.16526 
L 507.520768 314.63359 
L 507.520768 314.63359 
L 507.520768 356.329166 
L 503.203554 353.249562 
L 498.886339 357.105545 
L 494.569124 355.644798 
L 490.251909 352.021082 
L 485.934695 351.42198 
L 481.61748 356.896871 
L 477.300265 352.175513 
L 472.983051 343.235717 
L 468.665836 336.114684 
z
" style="fill:#6495ed;fill-opacity:0.4;"/>
   </g>
   <g id="line2d_32">
    <path clip-path="url(#pc1dd58b387)" d="M 317.563321 214.707273 
L 321.880536 222.58954 
L 326.197751 231.692376 
L 330.514966 216.562417 
L 334.83218 216.762044 
L 339.149395 215.678541 
L 343.46661 242.903924 
L 347.783824 222.748499 
L 352.101039 229.456464 
L 356.418254 220.909776 
L 360.735468 250.35301 
L 365.052683 232.977638 
L 369.369898 240.370805 
L 373.687113 236.173094 
L 378.004327 252.458165 
L 382.321542 256.915673 
L 386.638757 249.418865 
L 390.955971 253.021789 
L 395.273186 260.964116 
L 399.590401 257.838122 
L 403.907615 271.973951 
L 408.22483 261.05221 
L 412.542045 268.077328 
L 416.85926 271.546991 
L 421.176474 297.458355 
L 425.493689 301.879279 
L 429.810904 289.964599 
L 434.128118 293.506167 
L 438.445333 286.616192 
L 442.762548 293.99691 
L 447.079762 320.344958 
L 451.396977 310.956634 
L 455.714192 315.369922 
L 460.031407 319.79681 
L 464.348621 333.164447 
L 468.665836 344.064811 
L 472.983051 332.948169 
L 477.300265 328.182587 
L 481.61748 326.067247 
L 485.934695 321.456077 
L 490.251909 303.821373 
L 494.569124 316.337443 
L 498.886339 317.409092 
L 503.203554 318.720715 
L 507.520768 323.345593 
L 511.837983 315.737122 
" style="fill:none;stroke:#000000;stroke-linecap:round;stroke-width:3;"/>
   </g>
   <g id="line2d_33">
    <path clip-path="url(#pc1dd58b387)" d="M 317.563321 232.19042 
L 321.880536 237.416369 
L 326.197751 235.04493 
L 330.514966 214.707273 
L 334.83218 237.358287 
L 339.149395 258.825566 
L 343.46661 273.703274 
L 347.783824 258.668777 
L 352.101039 235.161377 
L 356.418254 228.594541 
L 360.735468 242.09846 
L 365.052683 236.223971 
L 369.369898 247.308735 
L 373.687113 267.447234 
L 378.004327 263.345385 
L 382.321542 250.871702 
L 386.638757 259.780648 
L 390.955971 283.349183 
L 395.273186 288.700998 
L 399.590401 286.508315 
L 403.907615 304.690908 
L 408.22483 318.767421 
L 412.542045 321.98036 
L 416.85926 323.059851 
L 421.176474 326.413497 
L 425.493689 335.04446 
L 429.810904 329.600111 
L 434.128118 330.78299 
L 438.445333 335.850244 
L 442.762548 337.414337 
L 447.079762 338.122046 
L 451.396977 339.655336 
L 455.714192 341.074098 
L 460.031407 331.787255 
L 464.348621 330.518815 
L 468.665836 336.114684 
L 472.983051 343.235717 
L 477.300265 352.175513 
L 481.61748 356.896871 
L 485.934695 351.42198 
L 490.251909 352.021082 
L 494.569124 355.644798 
L 498.886339 357.105545 
L 503.203554 353.249562 
L 507.520768 356.329166 
L 511.837983 347.320994 
" style="fill:none;stroke:#008000;stroke-linecap:round;stroke-width:3;"/>
   </g>
   <g id="line2d_34">
    <path clip-path="url(#pc1dd58b387)" d="M 317.563321 261.376314 
L 321.880536 259.27574 
L 326.197751 227.540633 
L 330.514966 241.606312 
L 334.83218 214.707273 
L 339.149395 238.126972 
L 343.46661 238.900754 
L 347.783824 230.328168 
L 352.101039 232.660314 
L 356.418254 232.211434 
L 360.735468 242.605919 
L 365.052683 265.754439 
L 369.369898 262.23588 
L 373.687113 258.77525 
L 378.004327 269.067081 
L 382.321542 283.306407 
L 386.638757 287.936721 
L 390.955971 294.765302 
L 395.273186 298.768748 
L 399.590401 305.558442 
L 403.907615 308.250724 
L 408.22483 304.917685 
L 412.542045 302.337544 
L 416.85926 300.45881 
L 421.176474 303.769276 
L 425.493689 305.686779 
L 429.810904 309.755989 
L 434.128118 301.32259 
L 438.445333 304.701777 
L 442.762548 307.355616 
L 447.079762 320.642452 
L 451.396977 322.104765 
L 455.714192 325.001574 
L 460.031407 328.977416 
L 464.348621 334.328066 
L 468.665836 335.995516 
L 472.983051 330.658661 
L 477.300265 316.886669 
L 481.61748 319.669303 
L 485.934695 315.828602 
L 490.251909 307.782306 
L 494.569124 308.633417 
L 498.886339 313.937904 
L 503.203554 314.16526 
L 507.520768 314.63359 
L 511.837983 317.970467 
" style="fill:none;stroke:#ffa500;stroke-linecap:round;stroke-width:3;"/>
   </g>
   <g id="patch_18">
    <path d="M 298.783437 376.56 
L 298.783437 207 
" style="fill:none;stroke:#262626;stroke-linecap:square;stroke-linejoin:miter;stroke-width:1.25;"/>
   </g>
   <g id="patch_19">
    <path d="M 521.983437 376.56 
L 521.983437 207 
" style="fill:none;stroke:#262626;stroke-linecap:square;stroke-linejoin:miter;stroke-width:1.25;"/>
   </g>
   <g id="patch_20">
    <path d="M 298.783437 376.56 
L 521.983437 376.56 
" style="fill:none;stroke:#262626;stroke-linecap:square;stroke-linejoin:miter;stroke-width:1.25;"/>
   </g>
   <g id="patch_21">
    <path d="M 298.783437 207 
L 521.983437 207 
" style="fill:none;stroke:#262626;stroke-linecap:square;stroke-linejoin:miter;stroke-width:1.25;"/>
   </g>
   <g id="text_27">
    <!-- shanghai -->
    <defs>
     <path d="M 54.890625 33.015625 
L 54.890625 0 
L 45.90625 0 
L 45.90625 32.71875 
Q 45.90625 40.484375 42.875 44.328125 
Q 39.84375 48.1875 33.796875 48.1875 
Q 26.515625 48.1875 22.3125 43.546875 
Q 18.109375 38.921875 18.109375 30.90625 
L 18.109375 0 
L 9.078125 0 
L 9.078125 75.984375 
L 18.109375 75.984375 
L 18.109375 46.1875 
Q 21.34375 51.125 25.703125 53.5625 
Q 30.078125 56 35.796875 56 
Q 45.21875 56 50.046875 50.171875 
Q 54.890625 44.34375 54.890625 33.015625 
" id="DejaVuSans-68"/>
     <path d="M 54.890625 33.015625 
L 54.890625 0 
L 45.90625 0 
L 45.90625 32.71875 
Q 45.90625 40.484375 42.875 44.328125 
Q 39.84375 48.1875 33.796875 48.1875 
Q 26.515625 48.1875 22.3125 43.546875 
Q 18.109375 38.921875 18.109375 30.90625 
L 18.109375 0 
L 9.078125 0 
L 9.078125 54.6875 
L 18.109375 54.6875 
L 18.109375 46.1875 
Q 21.34375 51.125 25.703125 53.5625 
Q 30.078125 56 35.796875 56 
Q 45.21875 56 50.046875 50.171875 
Q 54.890625 44.34375 54.890625 33.015625 
" id="DejaVuSans-6e"/>
    </defs>
    <g style="fill:#262626;" transform="translate(373.687113 229.859426)scale(0.14 -0.14)">
     <use xlink:href="#DejaVuSans-73"/>
     <use x="52.099609" xlink:href="#DejaVuSans-68"/>
     <use x="115.478516" xlink:href="#DejaVuSans-61"/>
     <use x="176.757812" xlink:href="#DejaVuSans-6e"/>
     <use x="240.136719" xlink:href="#DejaVuSans-67"/>
     <use x="303.613281" xlink:href="#DejaVuSans-68"/>
     <use x="366.992188" xlink:href="#DejaVuSans-61"/>
     <use x="428.271484" xlink:href="#DejaVuSans-69"/>
    </g>
    <!-- (pop 22.5M) -->
    <g style="fill:#262626;" transform="translate(373.687113 245.536364)scale(0.14 -0.14)">
     <use xlink:href="#DejaVuSans-28"/>
     <use x="39.013672" xlink:href="#DejaVuSans-70"/>
     <use x="102.490234" xlink:href="#DejaVuSans-6f"/>
     <use x="163.671875" xlink:href="#DejaVuSans-70"/>
     <use x="227.148438" xlink:href="#DejaVuSans-20"/>
     <use x="258.935547" xlink:href="#DejaVuSans-32"/>
     <use x="322.558594" xlink:href="#DejaVuSans-32"/>
     <use x="386.181641" xlink:href="#DejaVuSans-2e"/>
     <use x="417.96875" xlink:href="#DejaVuSans-35"/>
     <use x="481.591797" xlink:href="#DejaVuSans-4d"/>
     <use x="567.871094" xlink:href="#DejaVuSans-29"/>
    </g>
   </g>
  </g>
  <g id="text_28">
   <!-- normalized profiles $\hat x_{\cdot}(d)$ -->
   <defs>
    <path d="M 37.109375 75.984375 
L 37.109375 68.5 
L 28.515625 68.5 
Q 23.6875 68.5 21.796875 66.546875 
Q 19.921875 64.59375 19.921875 59.515625 
L 19.921875 54.6875 
L 34.71875 54.6875 
L 34.71875 47.703125 
L 19.921875 47.703125 
L 19.921875 0 
L 10.890625 0 
L 10.890625 47.703125 
L 2.296875 47.703125 
L 2.296875 54.6875 
L 10.890625 54.6875 
L 10.890625 58.5 
Q 10.890625 67.625 15.140625 71.796875 
Q 19.390625 75.984375 28.609375 75.984375 
z
" id="DejaVuSans-66"/>
   </defs>
   <g style="fill:#262626;" transform="translate(159.607438 27.072)scale(0.216 -0.216)">
    <use transform="translate(0 0.828125)" xlink:href="#DejaVuSans-6e"/>
    <use transform="translate(63.378906 0.828125)" xlink:href="#DejaVuSans-6f"/>
    <use transform="translate(124.560547 0.828125)" xlink:href="#DejaVuSans-72"/>
    <use transform="translate(165.673828 0.828125)" xlink:href="#DejaVuSans-6d"/>
    <use transform="translate(263.085938 0.828125)" xlink:href="#DejaVuSans-61"/>
    <use transform="translate(324.365234 0.828125)" xlink:href="#DejaVuSans-6c"/>
    <use transform="translate(352.148438 0.828125)" xlink:href="#DejaVuSans-69"/>
    <use transform="translate(379.931641 0.828125)" xlink:href="#DejaVuSans-7a"/>
    <use transform="translate(432.421875 0.828125)" xlink:href="#DejaVuSans-65"/>
    <use transform="translate(493.945312 0.828125)" xlink:href="#DejaVuSans-64"/>
    <use transform="translate(557.421875 0.828125)" xlink:href="#DejaVuSans-20"/>
    <use transform="translate(589.208984 0.828125)" xlink:href="#DejaVuSans-70"/>
    <use transform="translate(652.685547 0.828125)" xlink:href="#DejaVuSans-72"/>
    <use transform="translate(693.798828 0.828125)" xlink:href="#DejaVuSans-6f"/>
    <use transform="translate(754.980469 0.828125)" xlink:href="#DejaVuSans-66"/>
    <use transform="translate(790.185547 0.828125)" xlink:href="#DejaVuSans-69"/>
    <use transform="translate(817.96875 0.828125)" xlink:href="#DejaVuSans-6c"/>
    <use transform="translate(845.751953 0.828125)" xlink:href="#DejaVuSans-65"/>
    <use transform="translate(907.275391 0.828125)" xlink:href="#DejaVuSans-73"/>
    <use transform="translate(959.375 0.828125)" xlink:href="#DejaVuSans-20"/>
    <use transform="translate(1055.388672 12.015625)" xlink:href="#DejaVuSans-302"/>
    <use transform="translate(991.162109 0.828125)" xlink:href="#DejaVuSans-Oblique-78"/>
    <use transform="translate(1054.712891 -15.578125)scale(0.7)" xlink:href="#DejaVuSans-22c5"/>
    <use transform="translate(1079.698242 0.828125)" xlink:href="#DejaVuSans-28"/>
    <use transform="translate(1118.711914 0.828125)" xlink:href="#DejaVuSans-Oblique-64"/>
    <use transform="translate(1182.188477 0.828125)" xlink:href="#DejaVuSans-29"/>
   </g>
  </g>
 </g>
 <defs>
  <clipPath id="pe16e6278c2">
   <rect height="169.56" width="223.2" x="75.583438" y="37.44"/>
  </clipPath>
  <clipPath id="pdd892f5114">
   <rect height="169.56" width="223.2" x="298.783437" y="37.44"/>
  </clipPath>
  <clipPath id="p2c05dec86a">
   <rect height="169.56" width="223.2" x="75.583438" y="207"/>
  </clipPath>
  <clipPath id="pc1dd58b387">
   <rect height="169.56" width="223.2" x="298.783437" y="207"/>
  </clipPath>
 </defs>
</svg>
