<?xml version="1.0" encoding="utf-8" standalone="no"?>
<!DOCTYPE svg PUBLIC "-//W3C//DTD SVG 1.1//EN"
  "http://www.w3.org/Graphics/SVG/1.1/DTD/svg11.dtd">
<!-- Created with matplotlib (http://matplotlib.org/) -->
<svg height="432pt" version="1.1" viewBox="0 0 648 432" width="648pt" xmlns="http://www.w3.org/2000/svg" xmlns:xlink="http://www.w3.org/1999/xlink">
 <defs>
  <style type="text/css">
*{stroke-linecap:butt;stroke-linejoin:round;}
  </style>
 </defs>
 <g id="figure_1">
  <g id="patch_1">
   <path d="M 0 432 
L 648 432 
L 648 0 
L 0 0 
z
" style="fill:#ffffff;"/>
  </g>
  <g id="axes_1">
   <g id="patch_2">
    <path d="M 81 135.771429 
L 237.9375 135.771429 
L 237.9375 51.84 
L 81 51.84 
z
" style="fill:#ffffff;"/>
   </g>
   <g id="matplotlib.axis_1">
    <g id="xtick_1">
     <g id="line2d_1"/>
    </g>
    <g id="xtick_2">
     <g id="line2d_2"/>
    </g>
    <g id="xtick_3">
     <g id="line2d_3"/>
    </g>
    <g id="xtick_4">
     <g id="line2d_4"/>
    </g>
    <g id="xtick_5">
     <g id="line2d_5"/>
    </g>
   </g>
   <g id="matplotlib.axis_2">
    <g id="ytick_1">
     <g id="line2d_6"/>
     <g id="text_1">
      <!-- 0.0 -->
      <defs>
       <path d="M 31.78125 66.40625 
Q 24.171875 66.40625 20.328125 58.90625 
Q 16.5 51.421875 16.5 36.375 
Q 16.5 21.390625 20.328125 13.890625 
Q 24.171875 6.390625 31.78125 6.390625 
Q 39.453125 6.390625 43.28125 13.890625 
Q 47.125 21.390625 47.125 36.375 
Q 47.125 51.421875 43.28125 58.90625 
Q 39.453125 66.40625 31.78125 66.40625 
M 31.78125 74.21875 
Q 44.046875 74.21875 50.515625 64.515625 
Q 56.984375 54.828125 56.984375 36.375 
Q 56.984375 17.96875 50.515625 8.265625 
Q 44.046875 -1.421875 31.78125 -1.421875 
Q 19.53125 -1.421875 13.0625 8.265625 
Q 6.59375 17.96875 6.59375 36.375 
Q 6.59375 54.828125 13.0625 64.515625 
Q 19.53125 74.21875 31.78125 74.21875 
" id="DejaVuSans-30"/>
       <path d="M 10.6875 12.40625 
L 21 12.40625 
L 21 0 
L 10.6875 0 
z
" id="DejaVuSans-2e"/>
      </defs>
      <g style="fill:#262626;" transform="translate(50.145313 141.470257)scale(0.15 -0.15)">
       <use xlink:href="#DejaVuSans-30"/>
       <use x="63.623047" xlink:href="#DejaVuSans-2e"/>
       <use x="95.410156" xlink:href="#DejaVuSans-30"/>
      </g>
     </g>
    </g>
    <g id="ytick_2">
     <g id="line2d_7"/>
     <g id="text_2">
      <!-- 0.5 -->
      <defs>
       <path d="M 10.796875 72.90625 
L 49.515625 72.90625 
L 49.515625 64.59375 
L 19.828125 64.59375 
L 19.828125 46.734375 
Q 21.96875 47.46875 24.109375 47.828125 
Q 26.265625 48.1875 28.421875 48.1875 
Q 40.625 48.1875 47.75 41.5 
Q 54.890625 34.8125 54.890625 23.390625 
Q 54.890625 11.625 47.5625 5.09375 
Q 40.234375 -1.421875 26.90625 -1.421875 
Q 22.3125 -1.421875 17.546875 -0.640625 
Q 12.796875 0.140625 7.71875 1.703125 
L 7.71875 11.625 
Q 12.109375 9.234375 16.796875 8.0625 
Q 21.484375 6.890625 26.703125 6.890625 
Q 35.15625 6.890625 40.078125 11.328125 
Q 45.015625 15.765625 45.015625 23.390625 
Q 45.015625 31 40.078125 35.4375 
Q 35.15625 39.890625 26.703125 39.890625 
Q 22.75 39.890625 18.8125 39.015625 
Q 14.890625 38.140625 10.796875 36.28125 
z
" id="DejaVuSans-35"/>
      </defs>
      <g style="fill:#262626;" transform="translate(50.145313 99.504542)scale(0.15 -0.15)">
       <use xlink:href="#DejaVuSans-30"/>
       <use x="63.623047" xlink:href="#DejaVuSans-2e"/>
       <use x="95.410156" xlink:href="#DejaVuSans-35"/>
      </g>
     </g>
    </g>
    <g id="ytick_3">
     <g id="line2d_8"/>
     <g id="text_3">
      <!-- 1.0 -->
      <defs>
       <path d="M 12.40625 8.296875 
L 28.515625 8.296875 
L 28.515625 63.921875 
L 10.984375 60.40625 
L 10.984375 69.390625 
L 28.421875 72.90625 
L 38.28125 72.90625 
L 38.28125 8.296875 
L 54.390625 8.296875 
L 54.390625 0 
L 12.40625 0 
z
" id="DejaVuSans-31"/>
      </defs>
      <g style="fill:#262626;" transform="translate(50.145313 57.538828)scale(0.15 -0.15)">
       <use xlink:href="#DejaVuSans-31"/>
       <use x="63.623047" xlink:href="#DejaVuSans-2e"/>
       <use x="95.410156" xlink:href="#DejaVuSans-30"/>
      </g>
     </g>
    </g>
    <g id="text_4">
     <!-- lum: hi -->
     <defs>
      <path d="M 9.421875 75.984375 
L 18.40625 75.984375 
L 18.40625 0 
L 9.421875 0 
z
" id="DejaVuSans-6c"/>
      <path d="M 8.5 21.578125 
L 8.5 54.6875 
L 17.484375 54.6875 
L 17.484375 21.921875 
Q 17.484375 14.15625 20.5 10.265625 
Q 23.53125 6.390625 29.59375 6.390625 
Q 36.859375 6.390625 41.078125 11.03125 
Q 45.3125 15.671875 45.3125 23.6875 
L 45.3125 54.6875 
L 54.296875 54.6875 
L 54.296875 0 
L 45.3125 0 
L 45.3125 8.40625 
Q 42.046875 3.421875 37.71875 1 
Q 33.40625 -1.421875 27.6875 -1.421875 
Q 18.265625 -1.421875 13.375 4.4375 
Q 8.5 10.296875 8.5 21.578125 
M 31.109375 56 
z
" id="DejaVuSans-75"/>
      <path d="M 52 44.1875 
Q 55.375 50.25 60.0625 53.125 
Q 64.75 56 71.09375 56 
Q 79.640625 56 84.28125 50.015625 
Q 88.921875 44.046875 88.921875 33.015625 
L 88.921875 0 
L 79.890625 0 
L 79.890625 32.71875 
Q 79.890625 40.578125 77.09375 44.375 
Q 74.3125 48.1875 68.609375 48.1875 
Q 61.625 48.1875 57.5625 43.546875 
Q 53.515625 38.921875 53.515625 30.90625 
L 53.515625 0 
L 44.484375 0 
L 44.484375 32.71875 
Q 44.484375 40.625 41.703125 44.40625 
Q 38.921875 48.1875 33.109375 48.1875 
Q 26.21875 48.1875 22.15625 43.53125 
Q 18.109375 38.875 18.109375 30.90625 
L 18.109375 0 
L 9.078125 0 
L 9.078125 54.6875 
L 18.109375 54.6875 
L 18.109375 46.1875 
Q 21.1875 51.21875 25.484375 53.609375 
Q 29.78125 56 35.6875 56 
Q 41.65625 56 45.828125 52.96875 
Q 50 49.953125 52 44.1875 
" id="DejaVuSans-6d"/>
      <path d="M 11.71875 12.40625 
L 22.015625 12.40625 
L 22.015625 0 
L 11.71875 0 
z
M 11.71875 51.703125 
L 22.015625 51.703125 
L 22.015625 39.3125 
L 11.71875 39.3125 
z
" id="DejaVuSans-3a"/>
      <path id="DejaVuSans-20"/>
      <path d="M 54.890625 33.015625 
L 54.890625 0 
L 45.90625 0 
L 45.90625 32.71875 
Q 45.90625 40.484375 42.875 44.328125 
Q 39.84375 48.1875 33.796875 48.1875 
Q 26.515625 48.1875 22.3125 43.546875 
Q 18.109375 38.921875 18.109375 30.90625 
L 18.109375 0 
L 9.078125 0 
L 9.078125 75.984375 
L 18.109375 75.984375 
L 18.109375 46.1875 
Q 21.34375 51.125 25.703125 53.5625 
Q 30.078125 56 35.796875 56 
Q 45.21875 56 50.046875 50.171875 
Q 54.890625 44.34375 54.890625 33.015625 
" id="DejaVuSans-68"/>
      <path d="M 9.421875 54.6875 
L 18.40625 54.6875 
L 18.40625 0 
L 9.421875 0 
z
M 9.421875 75.984375 
L 18.40625 75.984375 
L 18.40625 64.59375 
L 9.421875 64.59375 
z
" id="DejaVuSans-69"/>
     </defs>
     <g style="fill:#262626;" transform="translate(42.713828 122.283683)rotate(-90)scale(0.165 -0.165)">
      <use xlink:href="#DejaVuSans-6c"/>
      <use x="27.783203" xlink:href="#DejaVuSans-75"/>
      <use x="91.162109" xlink:href="#DejaVuSans-6d"/>
      <use x="188.574219" xlink:href="#DejaVuSans-3a"/>
      <use x="222.265625" xlink:href="#DejaVuSans-20"/>
      <use x="254.052734" xlink:href="#DejaVuSans-68"/>
      <use x="317.431641" xlink:href="#DejaVuSans-69"/>
     </g>
    </g>
   </g>
   <g id="patch_3">
    <path clip-path="url(#pb8cfea0f68)" d="M 84.13875 135.771429 
L 109.24875 135.771429 
L 109.24875 111.79102 
L 84.13875 111.79102 
z
" style="fill:#a5595a;"/>
   </g>
   <g id="patch_4">
    <path clip-path="url(#pb8cfea0f68)" d="M 115.52625 135.771429 
L 140.63625 135.771429 
L 140.63625 111.79102 
L 115.52625 111.79102 
z
" style="fill:#5f7a90;"/>
   </g>
   <g id="patch_5">
    <path clip-path="url(#pb8cfea0f68)" d="M 146.91375 135.771429 
L 172.02375 135.771429 
L 172.02375 99.800816 
L 146.91375 99.800816 
z
" style="fill:#6b8f6a;"/>
   </g>
   <g id="patch_6">
    <path clip-path="url(#pb8cfea0f68)" d="z
" style="fill:#846988;"/>
   </g>
   <g id="patch_7">
    <path clip-path="url(#pb8cfea0f68)" d="z
" style="fill:#af7f50;"/>
   </g>
   <g id="line2d_9">
    <path clip-path="url(#pb8cfea0f68)" d="M 0 0 
" style="fill:none;stroke:#424242;stroke-linecap:round;stroke-width:3.15;"/>
   </g>
   <g id="line2d_10">
    <path clip-path="url(#pb8cfea0f68)" d="M 0 0 
" style="fill:none;stroke:#424242;stroke-linecap:round;stroke-width:3.15;"/>
   </g>
   <g id="line2d_11">
    <path clip-path="url(#pb8cfea0f68)" d="M 0 0 
" style="fill:none;stroke:#424242;stroke-linecap:round;stroke-width:3.15;"/>
   </g>
   <g id="line2d_12">
    <path clip-path="url(#pb8cfea0f68)" d="M 0 0 
" style="fill:none;stroke:#424242;stroke-linecap:round;stroke-width:3.15;"/>
   </g>
   <g id="line2d_13">
    <path clip-path="url(#pb8cfea0f68)" d="M 0 0 
" style="fill:none;stroke:#424242;stroke-linecap:round;stroke-width:3.15;"/>
   </g>
   <g id="patch_8">
    <path d="M 81 135.771429 
L 81 51.84 
" style="fill:none;stroke:#cccccc;stroke-linecap:square;stroke-linejoin:miter;"/>
   </g>
   <g id="patch_9">
    <path d="M 237.9375 135.771429 
L 237.9375 51.84 
" style="fill:none;stroke:#cccccc;stroke-linecap:square;stroke-linejoin:miter;"/>
   </g>
   <g id="patch_10">
    <path d="M 81 135.771429 
L 237.9375 135.771429 
" style="fill:none;stroke:#cccccc;stroke-linecap:square;stroke-linejoin:miter;"/>
   </g>
   <g id="patch_11">
    <path d="M 81 51.84 
L 237.9375 51.84 
" style="fill:none;stroke:#cccccc;stroke-linecap:square;stroke-linejoin:miter;"/>
   </g>
   <g id="text_5">
    <!-- bldg: low -->
    <defs>
     <path d="M 48.6875 27.296875 
Q 48.6875 37.203125 44.609375 42.84375 
Q 40.53125 48.484375 33.40625 48.484375 
Q 26.265625 48.484375 22.1875 42.84375 
Q 18.109375 37.203125 18.109375 27.296875 
Q 18.109375 17.390625 22.1875 11.75 
Q 26.265625 6.109375 33.40625 6.109375 
Q 40.53125 6.109375 44.609375 11.75 
Q 48.6875 17.390625 48.6875 27.296875 
M 18.109375 46.390625 
Q 20.953125 51.265625 25.265625 53.625 
Q 29.59375 56 35.59375 56 
Q 45.5625 56 51.78125 48.09375 
Q 58.015625 40.1875 58.015625 27.296875 
Q 58.015625 14.40625 51.78125 6.484375 
Q 45.5625 -1.421875 35.59375 -1.421875 
Q 29.59375 -1.421875 25.265625 0.953125 
Q 20.953125 3.328125 18.109375 8.203125 
L 18.109375 0 
L 9.078125 0 
L 9.078125 75.984375 
L 18.109375 75.984375 
z
" id="DejaVuSans-62"/>
     <path d="M 45.40625 46.390625 
L 45.40625 75.984375 
L 54.390625 75.984375 
L 54.390625 0 
L 45.40625 0 
L 45.40625 8.203125 
Q 42.578125 3.328125 38.25 0.953125 
Q 33.9375 -1.421875 27.875 -1.421875 
Q 17.96875 -1.421875 11.734375 6.484375 
Q 5.515625 14.40625 5.515625 27.296875 
Q 5.515625 40.1875 11.734375 48.09375 
Q 17.96875 56 27.875 56 
Q 33.9375 56 38.25 53.625 
Q 42.578125 51.265625 45.40625 46.390625 
M 14.796875 27.296875 
Q 14.796875 17.390625 18.875 11.75 
Q 22.953125 6.109375 30.078125 6.109375 
Q 37.203125 6.109375 41.296875 11.75 
Q 45.40625 17.390625 45.40625 27.296875 
Q 45.40625 37.203125 41.296875 42.84375 
Q 37.203125 48.484375 30.078125 48.484375 
Q 22.953125 48.484375 18.875 42.84375 
Q 14.796875 37.203125 14.796875 27.296875 
" id="DejaVuSans-64"/>
     <path d="M 45.40625 27.984375 
Q 45.40625 37.75 41.375 43.109375 
Q 37.359375 48.484375 30.078125 48.484375 
Q 22.859375 48.484375 18.828125 43.109375 
Q 14.796875 37.75 14.796875 27.984375 
Q 14.796875 18.265625 18.828125 12.890625 
Q 22.859375 7.515625 30.078125 7.515625 
Q 37.359375 7.515625 41.375 12.890625 
Q 45.40625 18.265625 45.40625 27.984375 
M 54.390625 6.78125 
Q 54.390625 -7.171875 48.1875 -13.984375 
Q 42 -20.796875 29.203125 -20.796875 
Q 24.46875 -20.796875 20.265625 -20.09375 
Q 16.0625 -19.390625 12.109375 -17.921875 
L 12.109375 -9.1875 
Q 16.0625 -11.328125 19.921875 -12.34375 
Q 23.78125 -13.375 27.78125 -13.375 
Q 36.625 -13.375 41.015625 -8.765625 
Q 45.40625 -4.15625 45.40625 5.171875 
L 45.40625 9.625 
Q 42.625 4.78125 38.28125 2.390625 
Q 33.9375 0 27.875 0 
Q 17.828125 0 11.671875 7.65625 
Q 5.515625 15.328125 5.515625 27.984375 
Q 5.515625 40.671875 11.671875 48.328125 
Q 17.828125 56 27.875 56 
Q 33.9375 56 38.28125 53.609375 
Q 42.625 51.21875 45.40625 46.390625 
L 45.40625 54.6875 
L 54.390625 54.6875 
z
" id="DejaVuSans-67"/>
     <path d="M 30.609375 48.390625 
Q 23.390625 48.390625 19.1875 42.75 
Q 14.984375 37.109375 14.984375 27.296875 
Q 14.984375 17.484375 19.15625 11.84375 
Q 23.34375 6.203125 30.609375 6.203125 
Q 37.796875 6.203125 41.984375 11.859375 
Q 46.1875 17.53125 46.1875 27.296875 
Q 46.1875 37.015625 41.984375 42.703125 
Q 37.796875 48.390625 30.609375 48.390625 
M 30.609375 56 
Q 42.328125 56 49.015625 48.375 
Q 55.71875 40.765625 55.71875 27.296875 
Q 55.71875 13.875 49.015625 6.21875 
Q 42.328125 -1.421875 30.609375 -1.421875 
Q 18.84375 -1.421875 12.171875 6.21875 
Q 5.515625 13.875 5.515625 27.296875 
Q 5.515625 40.765625 12.171875 48.375 
Q 18.84375 56 30.609375 56 
" id="DejaVuSans-6f"/>
     <path d="M 4.203125 54.6875 
L 13.1875 54.6875 
L 24.421875 12.015625 
L 35.59375 54.6875 
L 46.1875 54.6875 
L 57.421875 12.015625 
L 68.609375 54.6875 
L 77.59375 54.6875 
L 63.28125 0 
L 52.6875 0 
L 40.921875 44.828125 
L 29.109375 0 
L 18.5 0 
z
" id="DejaVuSans-77"/>
    </defs>
    <g style="fill:#262626;" transform="translate(118.567969 45.84)scale(0.18 -0.18)">
     <use xlink:href="#DejaVuSans-62"/>
     <use x="63.476562" xlink:href="#DejaVuSans-6c"/>
     <use x="91.259766" xlink:href="#DejaVuSans-64"/>
     <use x="154.736328" xlink:href="#DejaVuSans-67"/>
     <use x="218.212891" xlink:href="#DejaVuSans-3a"/>
     <use x="251.904297" xlink:href="#DejaVuSans-20"/>
     <use x="283.691406" xlink:href="#DejaVuSans-6c"/>
     <use x="311.474609" xlink:href="#DejaVuSans-6f"/>
     <use x="372.65625" xlink:href="#DejaVuSans-77"/>
    </g>
   </g>
  </g>
  <g id="axes_2">
   <g id="patch_12">
    <path d="M 253.63125 135.771429 
L 410.56875 135.771429 
L 410.56875 51.84 
L 253.63125 51.84 
z
" style="fill:#ffffff;"/>
   </g>
   <g id="matplotlib.axis_3">
    <g id="xtick_6">
     <g id="line2d_14"/>
    </g>
    <g id="xtick_7">
     <g id="line2d_15"/>
    </g>
    <g id="xtick_8">
     <g id="line2d_16"/>
    </g>
    <g id="xtick_9">
     <g id="line2d_17"/>
    </g>
    <g id="xtick_10">
     <g id="line2d_18"/>
    </g>
   </g>
   <g id="matplotlib.axis_4">
    <g id="ytick_4">
     <g id="line2d_19"/>
    </g>
    <g id="ytick_5">
     <g id="line2d_20"/>
    </g>
    <g id="ytick_6">
     <g id="line2d_21"/>
    </g>
   </g>
   <g id="patch_13">
    <path clip-path="url(#p754c0a97b9)" d="M 256.77 135.771429 
L 281.88 135.771429 
L 281.88 112.170324 
L 256.77 112.170324 
z
" style="fill:#a5595a;"/>
   </g>
   <g id="patch_14">
    <path clip-path="url(#p754c0a97b9)" d="M 288.1575 135.771429 
L 313.2675 135.771429 
L 313.2675 104.204951 
L 288.1575 104.204951 
z
" style="fill:#5f7a90;"/>
   </g>
   <g id="patch_15">
    <path clip-path="url(#p754c0a97b9)" d="M 319.545 135.771429 
L 344.655 135.771429 
L 344.655 119.250655 
L 319.545 119.250655 
z
" style="fill:#6b8f6a;"/>
   </g>
   <g id="patch_16">
    <path clip-path="url(#p754c0a97b9)" d="M 350.9325 135.771429 
L 376.0425 135.771429 
L 376.0425 124.413397 
L 350.9325 124.413397 
z
" style="fill:#846988;"/>
   </g>
   <g id="patch_17">
    <path clip-path="url(#p754c0a97b9)" d="M 382.32 135.771429 
L 407.43 135.771429 
L 407.43 134.886387 
L 382.32 134.886387 
z
" style="fill:#af7f50;"/>
   </g>
   <g id="line2d_22">
    <path clip-path="url(#p754c0a97b9)" d="M 0 0 
" style="fill:none;stroke:#424242;stroke-linecap:round;stroke-width:3.15;"/>
   </g>
   <g id="line2d_23">
    <path clip-path="url(#p754c0a97b9)" d="M 0 0 
" style="fill:none;stroke:#424242;stroke-linecap:round;stroke-width:3.15;"/>
   </g>
   <g id="line2d_24">
    <path clip-path="url(#p754c0a97b9)" d="M 0 0 
" style="fill:none;stroke:#424242;stroke-linecap:round;stroke-width:3.15;"/>
   </g>
   <g id="line2d_25">
    <path clip-path="url(#p754c0a97b9)" d="M 0 0 
" style="fill:none;stroke:#424242;stroke-linecap:round;stroke-width:3.15;"/>
   </g>
   <g id="line2d_26">
    <path clip-path="url(#p754c0a97b9)" d="M 0 0 
" style="fill:none;stroke:#424242;stroke-linecap:round;stroke-width:3.15;"/>
   </g>
   <g id="patch_18">
    <path d="M 253.63125 135.771429 
L 253.63125 51.84 
" style="fill:none;stroke:#cccccc;stroke-linecap:square;stroke-linejoin:miter;"/>
   </g>
   <g id="patch_19">
    <path d="M 410.56875 135.771429 
L 410.56875 51.84 
" style="fill:none;stroke:#cccccc;stroke-linecap:square;stroke-linejoin:miter;"/>
   </g>
   <g id="patch_20">
    <path d="M 253.63125 135.771429 
L 410.56875 135.771429 
" style="fill:none;stroke:#cccccc;stroke-linecap:square;stroke-linejoin:miter;"/>
   </g>
   <g id="patch_21">
    <path d="M 253.63125 51.84 
L 410.56875 51.84 
" style="fill:none;stroke:#cccccc;stroke-linecap:square;stroke-linejoin:miter;"/>
   </g>
   <g id="text_6">
    <!-- bldg: med -->
    <defs>
     <path d="M 56.203125 29.59375 
L 56.203125 25.203125 
L 14.890625 25.203125 
Q 15.484375 15.921875 20.484375 11.0625 
Q 25.484375 6.203125 34.421875 6.203125 
Q 39.59375 6.203125 44.453125 7.46875 
Q 49.3125 8.734375 54.109375 11.28125 
L 54.109375 2.78125 
Q 49.265625 0.734375 44.1875 -0.34375 
Q 39.109375 -1.421875 33.890625 -1.421875 
Q 20.796875 -1.421875 13.15625 6.1875 
Q 5.515625 13.8125 5.515625 26.8125 
Q 5.515625 40.234375 12.765625 48.109375 
Q 20.015625 56 32.328125 56 
Q 43.359375 56 49.78125 48.890625 
Q 56.203125 41.796875 56.203125 29.59375 
M 47.21875 32.234375 
Q 47.125 39.59375 43.09375 43.984375 
Q 39.0625 48.390625 32.421875 48.390625 
Q 24.90625 48.390625 20.390625 44.140625 
Q 15.875 39.890625 15.1875 32.171875 
z
" id="DejaVuSans-65"/>
    </defs>
    <g style="fill:#262626;" transform="translate(286.54875 45.84)scale(0.18 -0.18)">
     <use xlink:href="#DejaVuSans-62"/>
     <use x="63.476562" xlink:href="#DejaVuSans-6c"/>
     <use x="91.259766" xlink:href="#DejaVuSans-64"/>
     <use x="154.736328" xlink:href="#DejaVuSans-67"/>
     <use x="218.212891" xlink:href="#DejaVuSans-3a"/>
     <use x="251.904297" xlink:href="#DejaVuSans-20"/>
     <use x="283.691406" xlink:href="#DejaVuSans-6d"/>
     <use x="381.103516" xlink:href="#DejaVuSans-65"/>
     <use x="442.626953" xlink:href="#DejaVuSans-64"/>
    </g>
   </g>
  </g>
  <g id="axes_3">
   <g id="patch_22">
    <path d="M 426.2625 135.771429 
L 583.2 135.771429 
L 583.2 51.84 
L 426.2625 51.84 
z
" style="fill:#ffffff;"/>
   </g>
   <g id="matplotlib.axis_5">
    <g id="xtick_11">
     <g id="line2d_27"/>
    </g>
    <g id="xtick_12">
     <g id="line2d_28"/>
    </g>
    <g id="xtick_13">
     <g id="line2d_29"/>
    </g>
    <g id="xtick_14">
     <g id="line2d_30"/>
    </g>
    <g id="xtick_15">
     <g id="line2d_31"/>
    </g>
   </g>
   <g id="matplotlib.axis_6">
    <g id="ytick_7">
     <g id="line2d_32"/>
    </g>
    <g id="ytick_8">
     <g id="line2d_33"/>
    </g>
    <g id="ytick_9">
     <g id="line2d_34"/>
    </g>
   </g>
   <g id="patch_23">
    <path clip-path="url(#pe968bb0ee2)" d="M 429.40125 135.771429 
L 454.51125 135.771429 
L 454.51125 120.913101 
L 429.40125 120.913101 
z
" style="fill:#a5595a;"/>
   </g>
   <g id="patch_24">
    <path clip-path="url(#pe968bb0ee2)" d="M 460.78875 135.771429 
L 485.89875 135.771429 
L 485.89875 108.446603 
L 460.78875 108.446603 
z
" style="fill:#5f7a90;"/>
   </g>
   <g id="patch_25">
    <path clip-path="url(#pe968bb0ee2)" d="M 492.17625 135.771429 
L 517.28625 135.771429 
L 517.28625 113.665137 
L 492.17625 113.665137 
z
" style="fill:#6b8f6a;"/>
   </g>
   <g id="patch_26">
    <path clip-path="url(#pe968bb0ee2)" d="M 523.56375 135.771429 
L 548.67375 135.771429 
L 548.67375 119.318549 
L 523.56375 119.318549 
z
" style="fill:#846988;"/>
   </g>
   <g id="patch_27">
    <path clip-path="url(#pe968bb0ee2)" d="M 554.95125 135.771429 
L 580.06125 135.771429 
L 580.06125 132.582324 
L 554.95125 132.582324 
z
" style="fill:#af7f50;"/>
   </g>
   <g id="line2d_35">
    <path clip-path="url(#pe968bb0ee2)" d="M 0 0 
" style="fill:none;stroke:#424242;stroke-linecap:round;stroke-width:3.15;"/>
   </g>
   <g id="line2d_36">
    <path clip-path="url(#pe968bb0ee2)" d="M 0 0 
" style="fill:none;stroke:#424242;stroke-linecap:round;stroke-width:3.15;"/>
   </g>
   <g id="line2d_37">
    <path clip-path="url(#pe968bb0ee2)" d="M 0 0 
" style="fill:none;stroke:#424242;stroke-linecap:round;stroke-width:3.15;"/>
   </g>
   <g id="line2d_38">
    <path clip-path="url(#pe968bb0ee2)" d="M 0 0 
" style="fill:none;stroke:#424242;stroke-linecap:round;stroke-width:3.15;"/>
   </g>
   <g id="line2d_39">
    <path clip-path="url(#pe968bb0ee2)" d="M 0 0 
" style="fill:none;stroke:#424242;stroke-linecap:round;stroke-width:3.15;"/>
   </g>
   <g id="patch_28">
    <path d="M 426.2625 135.771429 
L 426.2625 51.84 
" style="fill:none;stroke:#cccccc;stroke-linecap:square;stroke-linejoin:miter;"/>
   </g>
   <g id="patch_29">
    <path d="M 583.2 135.771429 
L 583.2 51.84 
" style="fill:none;stroke:#cccccc;stroke-linecap:square;stroke-linejoin:miter;"/>
   </g>
   <g id="patch_30">
    <path d="M 426.2625 135.771429 
L 583.2 135.771429 
" style="fill:none;stroke:#cccccc;stroke-linecap:square;stroke-linejoin:miter;"/>
   </g>
   <g id="patch_31">
    <path d="M 426.2625 51.84 
L 583.2 51.84 
" style="fill:none;stroke:#cccccc;stroke-linecap:square;stroke-linejoin:miter;"/>
   </g>
   <g id="text_7">
    <!-- bldg: hi -->
    <g style="fill:#262626;" transform="translate(470.993906 45.84)scale(0.18 -0.18)">
     <use xlink:href="#DejaVuSans-62"/>
     <use x="63.476562" xlink:href="#DejaVuSans-6c"/>
     <use x="91.259766" xlink:href="#DejaVuSans-64"/>
     <use x="154.736328" xlink:href="#DejaVuSans-67"/>
     <use x="218.212891" xlink:href="#DejaVuSans-3a"/>
     <use x="251.904297" xlink:href="#DejaVuSans-20"/>
     <use x="283.691406" xlink:href="#DejaVuSans-68"/>
     <use x="347.070312" xlink:href="#DejaVuSans-69"/>
    </g>
   </g>
  </g>
  <g id="axes_4">
   <g id="patch_32">
    <path d="M 81 240.685714 
L 237.9375 240.685714 
L 237.9375 156.754286 
L 81 156.754286 
z
" style="fill:#ffffff;"/>
   </g>
   <g id="matplotlib.axis_7">
    <g id="xtick_16">
     <g id="line2d_40"/>
    </g>
    <g id="xtick_17">
     <g id="line2d_41"/>
    </g>
    <g id="xtick_18">
     <g id="line2d_42"/>
    </g>
    <g id="xtick_19">
     <g id="line2d_43"/>
    </g>
    <g id="xtick_20">
     <g id="line2d_44"/>
    </g>
   </g>
   <g id="matplotlib.axis_8">
    <g id="ytick_10">
     <g id="line2d_45"/>
     <g id="text_8">
      <!-- 0.0 -->
      <g style="fill:#262626;" transform="translate(50.145313 246.384542)scale(0.15 -0.15)">
       <use xlink:href="#DejaVuSans-30"/>
       <use x="63.623047" xlink:href="#DejaVuSans-2e"/>
       <use x="95.410156" xlink:href="#DejaVuSans-30"/>
      </g>
     </g>
    </g>
    <g id="ytick_11">
     <g id="line2d_46"/>
     <g id="text_9">
      <!-- 0.5 -->
      <g style="fill:#262626;" transform="translate(50.145313 204.418828)scale(0.15 -0.15)">
       <use xlink:href="#DejaVuSans-30"/>
       <use x="63.623047" xlink:href="#DejaVuSans-2e"/>
       <use x="95.410156" xlink:href="#DejaVuSans-35"/>
      </g>
     </g>
    </g>
    <g id="ytick_12">
     <g id="line2d_47"/>
     <g id="text_10">
      <!-- 1.0 -->
      <g style="fill:#262626;" transform="translate(50.145313 162.453114)scale(0.15 -0.15)">
       <use xlink:href="#DejaVuSans-31"/>
       <use x="63.623047" xlink:href="#DejaVuSans-2e"/>
       <use x="95.410156" xlink:href="#DejaVuSans-30"/>
      </g>
     </g>
    </g>
    <g id="text_11">
     <!-- lum: med -->
     <g style="fill:#262626;" transform="translate(42.713828 238.027383)rotate(-90)scale(0.165 -0.165)">
      <use xlink:href="#DejaVuSans-6c"/>
      <use x="27.783203" xlink:href="#DejaVuSans-75"/>
      <use x="91.162109" xlink:href="#DejaVuSans-6d"/>
      <use x="188.574219" xlink:href="#DejaVuSans-3a"/>
      <use x="222.265625" xlink:href="#DejaVuSans-20"/>
      <use x="254.052734" xlink:href="#DejaVuSans-6d"/>
      <use x="351.464844" xlink:href="#DejaVuSans-65"/>
      <use x="412.988281" xlink:href="#DejaVuSans-64"/>
     </g>
    </g>
   </g>
   <g id="patch_33">
    <path clip-path="url(#p653b54a33b)" d="M 84.13875 240.685714 
L 109.24875 240.685714 
L 109.24875 202.223631 
L 84.13875 202.223631 
z
" style="fill:#a5595a;"/>
   </g>
   <g id="patch_34">
    <path clip-path="url(#p653b54a33b)" d="M 115.52625 240.685714 
L 140.63625 240.685714 
L 140.63625 214.213835 
L 115.52625 214.213835 
z
" style="fill:#5f7a90;"/>
   </g>
   <g id="patch_35">
    <path clip-path="url(#p653b54a33b)" d="M 146.91375 240.685714 
L 172.02375 240.685714 
L 172.02375 234.145603 
L 146.91375 234.145603 
z
" style="fill:#6b8f6a;"/>
   </g>
   <g id="patch_36">
    <path clip-path="url(#p653b54a33b)" d="M 178.30125 240.685714 
L 203.41125 240.685714 
L 203.41125 228.228359 
L 178.30125 228.228359 
z
" style="fill:#846988;"/>
   </g>
   <g id="patch_37">
    <path clip-path="url(#p653b54a33b)" d="z
" style="fill:#af7f50;"/>
   </g>
   <g id="line2d_48">
    <path clip-path="url(#p653b54a33b)" d="M 0 0 
" style="fill:none;stroke:#424242;stroke-linecap:round;stroke-width:3.15;"/>
   </g>
   <g id="line2d_49">
    <path clip-path="url(#p653b54a33b)" d="M 0 0 
" style="fill:none;stroke:#424242;stroke-linecap:round;stroke-width:3.15;"/>
   </g>
   <g id="line2d_50">
    <path clip-path="url(#p653b54a33b)" d="M 0 0 
" style="fill:none;stroke:#424242;stroke-linecap:round;stroke-width:3.15;"/>
   </g>
   <g id="line2d_51">
    <path clip-path="url(#p653b54a33b)" d="M 0 0 
" style="fill:none;stroke:#424242;stroke-linecap:round;stroke-width:3.15;"/>
   </g>
   <g id="line2d_52">
    <path clip-path="url(#p653b54a33b)" d="M 0 0 
" style="fill:none;stroke:#424242;stroke-linecap:round;stroke-width:3.15;"/>
   </g>
   <g id="patch_38">
    <path d="M 81 240.685714 
L 81 156.754286 
" style="fill:none;stroke:#cccccc;stroke-linecap:square;stroke-linejoin:miter;"/>
   </g>
   <g id="patch_39">
    <path d="M 237.9375 240.685714 
L 237.9375 156.754286 
" style="fill:none;stroke:#cccccc;stroke-linecap:square;stroke-linejoin:miter;"/>
   </g>
   <g id="patch_40">
    <path d="M 81 240.685714 
L 237.9375 240.685714 
" style="fill:none;stroke:#cccccc;stroke-linecap:square;stroke-linejoin:miter;"/>
   </g>
   <g id="patch_41">
    <path d="M 81 156.754286 
L 237.9375 156.754286 
" style="fill:none;stroke:#cccccc;stroke-linecap:square;stroke-linejoin:miter;"/>
   </g>
  </g>
  <g id="axes_5">
   <g id="patch_42">
    <path d="M 253.63125 240.685714 
L 410.56875 240.685714 
L 410.56875 156.754286 
L 253.63125 156.754286 
z
" style="fill:#ffffff;"/>
   </g>
   <g id="matplotlib.axis_9">
    <g id="xtick_21">
     <g id="line2d_53"/>
    </g>
    <g id="xtick_22">
     <g id="line2d_54"/>
    </g>
    <g id="xtick_23">
     <g id="line2d_55"/>
    </g>
    <g id="xtick_24">
     <g id="line2d_56"/>
    </g>
    <g id="xtick_25">
     <g id="line2d_57"/>
    </g>
   </g>
   <g id="matplotlib.axis_10">
    <g id="ytick_13">
     <g id="line2d_58"/>
    </g>
    <g id="ytick_14">
     <g id="line2d_59"/>
    </g>
    <g id="ytick_15">
     <g id="line2d_60"/>
    </g>
   </g>
   <g id="patch_43">
    <path clip-path="url(#peac928fff1)" d="M 256.77 240.685714 
L 281.88 240.685714 
L 281.88 208.012026 
L 256.77 208.012026 
z
" style="fill:#a5595a;"/>
   </g>
   <g id="patch_44">
    <path clip-path="url(#peac928fff1)" d="M 288.1575 240.685714 
L 313.2675 240.685714 
L 313.2675 216.965187 
L 288.1575 216.965187 
z
" style="fill:#5f7a90;"/>
   </g>
   <g id="patch_45">
    <path clip-path="url(#peac928fff1)" d="M 319.545 240.685714 
L 344.655 240.685714 
L 344.655 232.053583 
L 319.545 232.053583 
z
" style="fill:#6b8f6a;"/>
   </g>
   <g id="patch_46">
    <path clip-path="url(#peac928fff1)" d="M 350.9325 240.685714 
L 376.0425 240.685714 
L 376.0425 223.029081 
L 350.9325 223.029081 
z
" style="fill:#846988;"/>
   </g>
   <g id="patch_47">
    <path clip-path="url(#peac928fff1)" d="M 382.32 240.685714 
L 407.43 240.685714 
L 407.43 239.437265 
L 382.32 239.437265 
z
" style="fill:#af7f50;"/>
   </g>
   <g id="line2d_61">
    <path clip-path="url(#peac928fff1)" d="M 0 0 
" style="fill:none;stroke:#424242;stroke-linecap:round;stroke-width:3.15;"/>
   </g>
   <g id="line2d_62">
    <path clip-path="url(#peac928fff1)" d="M 0 0 
" style="fill:none;stroke:#424242;stroke-linecap:round;stroke-width:3.15;"/>
   </g>
   <g id="line2d_63">
    <path clip-path="url(#peac928fff1)" d="M 0 0 
" style="fill:none;stroke:#424242;stroke-linecap:round;stroke-width:3.15;"/>
   </g>
   <g id="line2d_64">
    <path clip-path="url(#peac928fff1)" d="M 0 0 
" style="fill:none;stroke:#424242;stroke-linecap:round;stroke-width:3.15;"/>
   </g>
   <g id="line2d_65">
    <path clip-path="url(#peac928fff1)" d="M 0 0 
" style="fill:none;stroke:#424242;stroke-linecap:round;stroke-width:3.15;"/>
   </g>
   <g id="patch_48">
    <path d="M 253.63125 240.685714 
L 253.63125 156.754286 
" style="fill:none;stroke:#cccccc;stroke-linecap:square;stroke-linejoin:miter;"/>
   </g>
   <g id="patch_49">
    <path d="M 410.56875 240.685714 
L 410.56875 156.754286 
" style="fill:none;stroke:#cccccc;stroke-linecap:square;stroke-linejoin:miter;"/>
   </g>
   <g id="patch_50">
    <path d="M 253.63125 240.685714 
L 410.56875 240.685714 
" style="fill:none;stroke:#cccccc;stroke-linecap:square;stroke-linejoin:miter;"/>
   </g>
   <g id="patch_51">
    <path d="M 253.63125 156.754286 
L 410.56875 156.754286 
" style="fill:none;stroke:#cccccc;stroke-linecap:square;stroke-linejoin:miter;"/>
   </g>
  </g>
  <g id="axes_6">
   <g id="patch_52">
    <path d="M 426.2625 240.685714 
L 583.2 240.685714 
L 583.2 156.754286 
L 426.2625 156.754286 
z
" style="fill:#ffffff;"/>
   </g>
   <g id="matplotlib.axis_11">
    <g id="xtick_26">
     <g id="line2d_66"/>
    </g>
    <g id="xtick_27">
     <g id="line2d_67"/>
    </g>
    <g id="xtick_28">
     <g id="line2d_68"/>
    </g>
    <g id="xtick_29">
     <g id="line2d_69"/>
    </g>
    <g id="xtick_30">
     <g id="line2d_70"/>
    </g>
   </g>
   <g id="matplotlib.axis_12">
    <g id="ytick_16">
     <g id="line2d_71"/>
    </g>
    <g id="ytick_17">
     <g id="line2d_72"/>
    </g>
    <g id="ytick_18">
     <g id="line2d_73"/>
    </g>
   </g>
   <g id="patch_53">
    <path clip-path="url(#p76ced211e8)" d="M 429.40125 240.685714 
L 454.51125 240.685714 
L 454.51125 216.497143 
L 429.40125 216.497143 
z
" style="fill:#a5595a;"/>
   </g>
   <g id="patch_54">
    <path clip-path="url(#p76ced211e8)" d="M 460.78875 240.685714 
L 485.89875 240.685714 
L 485.89875 209.94 
L 460.78875 209.94 
z
" style="fill:#5f7a90;"/>
   </g>
   <g id="patch_55">
    <path clip-path="url(#p76ced211e8)" d="M 492.17625 240.685714 
L 517.28625 240.685714 
L 517.28625 232.088571 
L 492.17625 232.088571 
z
" style="fill:#6b8f6a;"/>
   </g>
   <g id="patch_56">
    <path clip-path="url(#p76ced211e8)" d="M 523.56375 240.685714 
L 548.67375 240.685714 
L 548.67375 226.988571 
L 523.56375 226.988571 
z
" style="fill:#846988;"/>
   </g>
   <g id="patch_57">
    <path clip-path="url(#p76ced211e8)" d="M 554.95125 240.685714 
L 580.06125 240.685714 
L 580.06125 233.982857 
L 554.95125 233.982857 
z
" style="fill:#af7f50;"/>
   </g>
   <g id="line2d_74">
    <path clip-path="url(#p76ced211e8)" d="M 0 0 
" style="fill:none;stroke:#424242;stroke-linecap:round;stroke-width:3.15;"/>
   </g>
   <g id="line2d_75">
    <path clip-path="url(#p76ced211e8)" d="M 0 0 
" style="fill:none;stroke:#424242;stroke-linecap:round;stroke-width:3.15;"/>
   </g>
   <g id="line2d_76">
    <path clip-path="url(#p76ced211e8)" d="M 0 0 
" style="fill:none;stroke:#424242;stroke-linecap:round;stroke-width:3.15;"/>
   </g>
   <g id="line2d_77">
    <path clip-path="url(#p76ced211e8)" d="M 0 0 
" style="fill:none;stroke:#424242;stroke-linecap:round;stroke-width:3.15;"/>
   </g>
   <g id="line2d_78">
    <path clip-path="url(#p76ced211e8)" d="M 0 0 
" style="fill:none;stroke:#424242;stroke-linecap:round;stroke-width:3.15;"/>
   </g>
   <g id="patch_58">
    <path d="M 426.2625 240.685714 
L 426.2625 156.754286 
" style="fill:none;stroke:#cccccc;stroke-linecap:square;stroke-linejoin:miter;"/>
   </g>
   <g id="patch_59">
    <path d="M 583.2 240.685714 
L 583.2 156.754286 
" style="fill:none;stroke:#cccccc;stroke-linecap:square;stroke-linejoin:miter;"/>
   </g>
   <g id="patch_60">
    <path d="M 426.2625 240.685714 
L 583.2 240.685714 
" style="fill:none;stroke:#cccccc;stroke-linecap:square;stroke-linejoin:miter;"/>
   </g>
   <g id="patch_61">
    <path d="M 426.2625 156.754286 
L 583.2 156.754286 
" style="fill:none;stroke:#cccccc;stroke-linecap:square;stroke-linejoin:miter;"/>
   </g>
  </g>
  <g id="axes_7">
   <g id="patch_62">
    <path d="M 81 345.6 
L 237.9375 345.6 
L 237.9375 261.668571 
L 81 261.668571 
z
" style="fill:#ffffff;"/>
   </g>
   <g id="matplotlib.axis_13">
    <g id="xtick_31">
     <g id="line2d_79"/>
    </g>
    <g id="xtick_32">
     <g id="line2d_80"/>
    </g>
    <g id="xtick_33">
     <g id="line2d_81"/>
    </g>
    <g id="xtick_34">
     <g id="line2d_82"/>
    </g>
    <g id="xtick_35">
     <g id="line2d_83"/>
    </g>
   </g>
   <g id="matplotlib.axis_14">
    <g id="ytick_19">
     <g id="line2d_84"/>
     <g id="text_12">
      <!-- 0.0 -->
      <g style="fill:#262626;" transform="translate(50.145313 351.298828)scale(0.15 -0.15)">
       <use xlink:href="#DejaVuSans-30"/>
       <use x="63.623047" xlink:href="#DejaVuSans-2e"/>
       <use x="95.410156" xlink:href="#DejaVuSans-30"/>
      </g>
     </g>
    </g>
    <g id="ytick_20">
     <g id="line2d_85"/>
     <g id="text_13">
      <!-- 0.5 -->
      <g style="fill:#262626;" transform="translate(50.145313 309.333114)scale(0.15 -0.15)">
       <use xlink:href="#DejaVuSans-30"/>
       <use x="63.623047" xlink:href="#DejaVuSans-2e"/>
       <use x="95.410156" xlink:href="#DejaVuSans-35"/>
      </g>
     </g>
    </g>
    <g id="ytick_21">
     <g id="line2d_86"/>
     <g id="text_14">
      <!-- 1.0 -->
      <g style="fill:#262626;" transform="translate(50.145313 267.3674)scale(0.15 -0.15)">
       <use xlink:href="#DejaVuSans-31"/>
       <use x="63.623047" xlink:href="#DejaVuSans-2e"/>
       <use x="95.410156" xlink:href="#DejaVuSans-30"/>
      </g>
     </g>
    </g>
    <g id="text_15">
     <!-- lum: low -->
     <g style="fill:#262626;" transform="translate(42.713828 338.678739)rotate(-90)scale(0.165 -0.165)">
      <use xlink:href="#DejaVuSans-6c"/>
      <use x="27.783203" xlink:href="#DejaVuSans-75"/>
      <use x="91.162109" xlink:href="#DejaVuSans-6d"/>
      <use x="188.574219" xlink:href="#DejaVuSans-3a"/>
      <use x="222.265625" xlink:href="#DejaVuSans-20"/>
      <use x="254.052734" xlink:href="#DejaVuSans-6c"/>
      <use x="281.835938" xlink:href="#DejaVuSans-6f"/>
      <use x="343.017578" xlink:href="#DejaVuSans-77"/>
     </g>
    </g>
   </g>
   <g id="patch_63">
    <path clip-path="url(#pdea32ea0a5)" d="M 84.13875 345.6 
L 109.24875 345.6 
L 109.24875 300.878961 
L 84.13875 300.878961 
z
" style="fill:#a5595a;"/>
   </g>
   <g id="patch_64">
    <path clip-path="url(#pdea32ea0a5)" d="M 115.52625 345.6 
L 140.63625 345.6 
L 140.63625 317.552208 
L 115.52625 317.552208 
z
" style="fill:#5f7a90;"/>
   </g>
   <g id="patch_65">
    <path clip-path="url(#pdea32ea0a5)" d="M 146.91375 345.6 
L 172.02375 345.6 
L 172.02375 339.170909 
L 146.91375 339.170909 
z
" style="fill:#6b8f6a;"/>
   </g>
   <g id="patch_66">
    <path clip-path="url(#pdea32ea0a5)" d="M 178.30125 345.6 
L 203.41125 345.6 
L 203.41125 341.078442 
L 178.30125 341.078442 
z
" style="fill:#846988;"/>
   </g>
   <g id="patch_67">
    <path clip-path="url(#pdea32ea0a5)" d="M 209.68875 345.6 
L 234.79875 345.6 
L 234.79875 345.388052 
L 209.68875 345.388052 
z
" style="fill:#af7f50;"/>
   </g>
   <g id="line2d_87">
    <path clip-path="url(#pdea32ea0a5)" d="M 0 0 
" style="fill:none;stroke:#424242;stroke-linecap:round;stroke-width:3.15;"/>
   </g>
   <g id="line2d_88">
    <path clip-path="url(#pdea32ea0a5)" d="M 0 0 
" style="fill:none;stroke:#424242;stroke-linecap:round;stroke-width:3.15;"/>
   </g>
   <g id="line2d_89">
    <path clip-path="url(#pdea32ea0a5)" d="M 0 0 
" style="fill:none;stroke:#424242;stroke-linecap:round;stroke-width:3.15;"/>
   </g>
   <g id="line2d_90">
    <path clip-path="url(#pdea32ea0a5)" d="M 0 0 
" style="fill:none;stroke:#424242;stroke-linecap:round;stroke-width:3.15;"/>
   </g>
   <g id="line2d_91">
    <path clip-path="url(#pdea32ea0a5)" d="M 0 0 
" style="fill:none;stroke:#424242;stroke-linecap:round;stroke-width:3.15;"/>
   </g>
   <g id="patch_68">
    <path d="M 81 345.6 
L 81 261.668571 
" style="fill:none;stroke:#cccccc;stroke-linecap:square;stroke-linejoin:miter;"/>
   </g>
   <g id="patch_69">
    <path d="M 237.9375 345.6 
L 237.9375 261.668571 
" style="fill:none;stroke:#cccccc;stroke-linecap:square;stroke-linejoin:miter;"/>
   </g>
   <g id="patch_70">
    <path d="M 81 345.6 
L 237.9375 345.6 
" style="fill:none;stroke:#cccccc;stroke-linecap:square;stroke-linejoin:miter;"/>
   </g>
   <g id="patch_71">
    <path d="M 81 261.668571 
L 237.9375 261.668571 
" style="fill:none;stroke:#cccccc;stroke-linecap:square;stroke-linejoin:miter;"/>
   </g>
  </g>
  <g id="axes_8">
   <g id="patch_72">
    <path d="M 253.63125 345.6 
L 410.56875 345.6 
L 410.56875 261.668571 
L 253.63125 261.668571 
z
" style="fill:#ffffff;"/>
   </g>
   <g id="matplotlib.axis_15">
    <g id="xtick_36">
     <g id="line2d_92"/>
    </g>
    <g id="xtick_37">
     <g id="line2d_93"/>
    </g>
    <g id="xtick_38">
     <g id="line2d_94"/>
    </g>
    <g id="xtick_39">
     <g id="line2d_95"/>
    </g>
    <g id="xtick_40">
     <g id="line2d_96"/>
    </g>
   </g>
   <g id="matplotlib.axis_16">
    <g id="ytick_22">
     <g id="line2d_97"/>
    </g>
    <g id="ytick_23">
     <g id="line2d_98"/>
    </g>
    <g id="ytick_24">
     <g id="line2d_99"/>
    </g>
   </g>
   <g id="patch_73">
    <path clip-path="url(#p4caa94b673)" d="M 256.77 345.6 
L 281.88 345.6 
L 281.88 304.249168 
L 256.77 304.249168 
z
" style="fill:#a5595a;"/>
   </g>
   <g id="patch_74">
    <path clip-path="url(#p4caa94b673)" d="M 288.1575 345.6 
L 313.2675 345.6 
L 313.2675 314.855887 
L 288.1575 314.855887 
z
" style="fill:#5f7a90;"/>
   </g>
   <g id="patch_75">
    <path clip-path="url(#p4caa94b673)" d="M 319.545 345.6 
L 344.655 345.6 
L 344.655 340.834662 
L 319.545 340.834662 
z
" style="fill:#6b8f6a;"/>
   </g>
   <g id="patch_76">
    <path clip-path="url(#p4caa94b673)" d="M 350.9325 345.6 
L 376.0425 345.6 
L 376.0425 338.990016 
L 350.9325 338.990016 
z
" style="fill:#846988;"/>
   </g>
   <g id="patch_77">
    <path clip-path="url(#p4caa94b673)" d="M 382.32 345.6 
L 407.43 345.6 
L 407.43 345.138838 
L 382.32 345.138838 
z
" style="fill:#af7f50;"/>
   </g>
   <g id="line2d_100">
    <path clip-path="url(#p4caa94b673)" d="M 0 0 
" style="fill:none;stroke:#424242;stroke-linecap:round;stroke-width:3.15;"/>
   </g>
   <g id="line2d_101">
    <path clip-path="url(#p4caa94b673)" d="M 0 0 
" style="fill:none;stroke:#424242;stroke-linecap:round;stroke-width:3.15;"/>
   </g>
   <g id="line2d_102">
    <path clip-path="url(#p4caa94b673)" d="M 0 0 
" style="fill:none;stroke:#424242;stroke-linecap:round;stroke-width:3.15;"/>
   </g>
   <g id="line2d_103">
    <path clip-path="url(#p4caa94b673)" d="M 0 0 
" style="fill:none;stroke:#424242;stroke-linecap:round;stroke-width:3.15;"/>
   </g>
   <g id="line2d_104">
    <path clip-path="url(#p4caa94b673)" d="M 0 0 
" style="fill:none;stroke:#424242;stroke-linecap:round;stroke-width:3.15;"/>
   </g>
   <g id="patch_78">
    <path d="M 253.63125 345.6 
L 253.63125 261.668571 
" style="fill:none;stroke:#cccccc;stroke-linecap:square;stroke-linejoin:miter;"/>
   </g>
   <g id="patch_79">
    <path d="M 410.56875 345.6 
L 410.56875 261.668571 
" style="fill:none;stroke:#cccccc;stroke-linecap:square;stroke-linejoin:miter;"/>
   </g>
   <g id="patch_80">
    <path d="M 253.63125 345.6 
L 410.56875 345.6 
" style="fill:none;stroke:#cccccc;stroke-linecap:square;stroke-linejoin:miter;"/>
   </g>
   <g id="patch_81">
    <path d="M 253.63125 261.668571 
L 410.56875 261.668571 
" style="fill:none;stroke:#cccccc;stroke-linecap:square;stroke-linejoin:miter;"/>
   </g>
  </g>
  <g id="axes_9">
   <g id="patch_82">
    <path d="M 426.2625 345.6 
L 583.2 345.6 
L 583.2 261.668571 
L 426.2625 261.668571 
z
" style="fill:#ffffff;"/>
   </g>
   <g id="matplotlib.axis_17">
    <g id="xtick_41">
     <g id="line2d_105"/>
    </g>
    <g id="xtick_42">
     <g id="line2d_106"/>
    </g>
    <g id="xtick_43">
     <g id="line2d_107"/>
    </g>
    <g id="xtick_44">
     <g id="line2d_108"/>
    </g>
    <g id="xtick_45">
     <g id="line2d_109"/>
    </g>
   </g>
   <g id="matplotlib.axis_18">
    <g id="ytick_25">
     <g id="line2d_110"/>
    </g>
    <g id="ytick_26">
     <g id="line2d_111"/>
    </g>
    <g id="ytick_27">
     <g id="line2d_112"/>
    </g>
   </g>
   <g id="patch_83">
    <path d="M 426.2625 345.6 
L 426.2625 261.668571 
" style="fill:none;stroke:#cccccc;stroke-linecap:square;stroke-linejoin:miter;"/>
   </g>
   <g id="patch_84">
    <path d="M 583.2 345.6 
L 583.2 261.668571 
" style="fill:none;stroke:#cccccc;stroke-linecap:square;stroke-linejoin:miter;"/>
   </g>
   <g id="patch_85">
    <path d="M 426.2625 345.6 
L 583.2 345.6 
" style="fill:none;stroke:#cccccc;stroke-linecap:square;stroke-linejoin:miter;"/>
   </g>
   <g id="patch_86">
    <path d="M 426.2625 261.668571 
L 583.2 261.668571 
" style="fill:none;stroke:#cccccc;stroke-linecap:square;stroke-linejoin:miter;"/>
   </g>
   <g id="legend_1">
    <g id="patch_87">
     <path d="M 477.33 281.586696 
L 501.33 281.586696 
L 501.33 273.186696 
L 477.33 273.186696 
z
" style="fill:#b24d4e;stroke:#b24d4e;stroke-linejoin:miter;stroke-width:0.3;"/>
    </g>
    <g id="text_16">
     <!-- small-1 -->
     <defs>
      <path d="M 44.28125 53.078125 
L 44.28125 44.578125 
Q 40.484375 46.53125 36.375 47.5 
Q 32.28125 48.484375 27.875 48.484375 
Q 21.1875 48.484375 17.84375 46.4375 
Q 14.5 44.390625 14.5 40.28125 
Q 14.5 37.15625 16.890625 35.375 
Q 19.28125 33.59375 26.515625 31.984375 
L 29.59375 31.296875 
Q 39.15625 29.25 43.1875 25.515625 
Q 47.21875 21.78125 47.21875 15.09375 
Q 47.21875 7.46875 41.1875 3.015625 
Q 35.15625 -1.421875 24.609375 -1.421875 
Q 20.21875 -1.421875 15.453125 -0.5625 
Q 10.6875 0.296875 5.421875 2 
L 5.421875 11.28125 
Q 10.40625 8.6875 15.234375 7.390625 
Q 20.0625 6.109375 24.8125 6.109375 
Q 31.15625 6.109375 34.5625 8.28125 
Q 37.984375 10.453125 37.984375 14.40625 
Q 37.984375 18.0625 35.515625 20.015625 
Q 33.0625 21.96875 24.703125 23.78125 
L 21.578125 24.515625 
Q 13.234375 26.265625 9.515625 29.90625 
Q 5.8125 33.546875 5.8125 39.890625 
Q 5.8125 47.609375 11.28125 51.796875 
Q 16.75 56 26.8125 56 
Q 31.78125 56 36.171875 55.265625 
Q 40.578125 54.546875 44.28125 53.078125 
" id="DejaVuSans-73"/>
      <path d="M 34.28125 27.484375 
Q 23.390625 27.484375 19.1875 25 
Q 14.984375 22.515625 14.984375 16.5 
Q 14.984375 11.71875 18.140625 8.90625 
Q 21.296875 6.109375 26.703125 6.109375 
Q 34.1875 6.109375 38.703125 11.40625 
Q 43.21875 16.703125 43.21875 25.484375 
L 43.21875 27.484375 
z
M 52.203125 31.203125 
L 52.203125 0 
L 43.21875 0 
L 43.21875 8.296875 
Q 40.140625 3.328125 35.546875 0.953125 
Q 30.953125 -1.421875 24.3125 -1.421875 
Q 15.921875 -1.421875 10.953125 3.296875 
Q 6 8.015625 6 15.921875 
Q 6 25.140625 12.171875 29.828125 
Q 18.359375 34.515625 30.609375 34.515625 
L 43.21875 34.515625 
L 43.21875 35.40625 
Q 43.21875 41.609375 39.140625 45 
Q 35.0625 48.390625 27.6875 48.390625 
Q 23 48.390625 18.546875 47.265625 
Q 14.109375 46.140625 10.015625 43.890625 
L 10.015625 52.203125 
Q 14.9375 54.109375 19.578125 55.046875 
Q 24.21875 56 28.609375 56 
Q 40.484375 56 46.34375 49.84375 
Q 52.203125 43.703125 52.203125 31.203125 
" id="DejaVuSans-61"/>
      <path d="M 4.890625 31.390625 
L 31.203125 31.390625 
L 31.203125 23.390625 
L 4.890625 23.390625 
z
" id="DejaVuSans-2d"/>
     </defs>
     <g style="fill:#262626;" transform="translate(510.93 281.586696)scale(0.12 -0.12)">
      <use xlink:href="#DejaVuSans-73"/>
      <use x="52.099609" xlink:href="#DejaVuSans-6d"/>
      <use x="149.511719" xlink:href="#DejaVuSans-61"/>
      <use x="210.791016" xlink:href="#DejaVuSans-6c"/>
      <use x="238.574219" xlink:href="#DejaVuSans-6c"/>
      <use x="266.357422" xlink:href="#DejaVuSans-2d"/>
      <use x="302.441406" xlink:href="#DejaVuSans-31"/>
     </g>
    </g>
    <g id="patch_88">
     <path d="M 477.33 293.200446 
L 501.33 293.200446 
L 501.33 284.800446 
L 477.33 284.800446 
z
" style="fill:#577b98;stroke:#577b98;stroke-linejoin:miter;stroke-width:0.3;"/>
    </g>
    <g id="text_17">
     <!-- small-2 -->
     <defs>
      <path d="M 19.1875 8.296875 
L 53.609375 8.296875 
L 53.609375 0 
L 7.328125 0 
L 7.328125 8.296875 
Q 12.9375 14.109375 22.625 23.890625 
Q 32.328125 33.6875 34.8125 36.53125 
Q 39.546875 41.84375 41.421875 45.53125 
Q 43.3125 49.21875 43.3125 52.78125 
Q 43.3125 58.59375 39.234375 62.25 
Q 35.15625 65.921875 28.609375 65.921875 
Q 23.96875 65.921875 18.8125 64.3125 
Q 13.671875 62.703125 7.8125 59.421875 
L 7.8125 69.390625 
Q 13.765625 71.78125 18.9375 73 
Q 24.125 74.21875 28.421875 74.21875 
Q 39.75 74.21875 46.484375 68.546875 
Q 53.21875 62.890625 53.21875 53.421875 
Q 53.21875 48.921875 51.53125 44.890625 
Q 49.859375 40.875 45.40625 35.40625 
Q 44.1875 33.984375 37.640625 27.21875 
Q 31.109375 20.453125 19.1875 8.296875 
" id="DejaVuSans-32"/>
     </defs>
     <g style="fill:#262626;" transform="translate(510.93 293.200446)scale(0.12 -0.12)">
      <use xlink:href="#DejaVuSans-73"/>
      <use x="52.099609" xlink:href="#DejaVuSans-6d"/>
      <use x="149.511719" xlink:href="#DejaVuSans-61"/>
      <use x="210.791016" xlink:href="#DejaVuSans-6c"/>
      <use x="238.574219" xlink:href="#DejaVuSans-6c"/>
      <use x="266.357422" xlink:href="#DejaVuSans-2d"/>
      <use x="302.441406" xlink:href="#DejaVuSans-32"/>
     </g>
    </g>
    <g id="patch_89">
     <path d="M 477.33 304.814196 
L 501.33 304.814196 
L 501.33 296.414196 
L 477.33 296.414196 
z
" style="fill:#659663;stroke:#659663;stroke-linejoin:miter;stroke-width:0.3;"/>
    </g>
    <g id="text_18">
     <!-- medium -->
     <g style="fill:#262626;" transform="translate(510.93 304.814196)scale(0.12 -0.12)">
      <use xlink:href="#DejaVuSans-6d"/>
      <use x="97.412109" xlink:href="#DejaVuSans-65"/>
      <use x="158.935547" xlink:href="#DejaVuSans-64"/>
      <use x="222.412109" xlink:href="#DejaVuSans-69"/>
      <use x="250.195312" xlink:href="#DejaVuSans-75"/>
      <use x="313.574219" xlink:href="#DejaVuSans-6d"/>
     </g>
    </g>
    <g id="patch_90">
     <path d="M 477.33 316.427946 
L 501.33 316.427946 
L 501.33 308.027946 
L 477.33 308.027946 
z
" style="fill:#88638e;stroke:#88638e;stroke-linejoin:miter;stroke-width:0.3;"/>
    </g>
    <g id="text_19">
     <!-- large -->
     <defs>
      <path d="M 41.109375 46.296875 
Q 39.59375 47.171875 37.8125 47.578125 
Q 36.03125 48 33.890625 48 
Q 26.265625 48 22.1875 43.046875 
Q 18.109375 38.09375 18.109375 28.8125 
L 18.109375 0 
L 9.078125 0 
L 9.078125 54.6875 
L 18.109375 54.6875 
L 18.109375 46.1875 
Q 20.953125 51.171875 25.484375 53.578125 
Q 30.03125 56 36.53125 56 
Q 37.453125 56 38.578125 55.875 
Q 39.703125 55.765625 41.0625 55.515625 
z
" id="DejaVuSans-72"/>
     </defs>
     <g style="fill:#262626;" transform="translate(510.93 316.427946)scale(0.12 -0.12)">
      <use xlink:href="#DejaVuSans-6c"/>
      <use x="27.783203" xlink:href="#DejaVuSans-61"/>
      <use x="89.0625" xlink:href="#DejaVuSans-72"/>
      <use x="130.160156" xlink:href="#DejaVuSans-67"/>
      <use x="193.636719" xlink:href="#DejaVuSans-65"/>
     </g>
    </g>
    <g id="patch_91">
     <path d="M 477.33 328.041696 
L 501.33 328.041696 
L 501.33 319.641696 
L 477.33 319.641696 
z
" style="fill:#bf7f40;stroke:#bf7f40;stroke-linejoin:miter;stroke-width:0.3;"/>
    </g>
    <g id="text_20">
     <!-- very-large -->
     <defs>
      <path d="M 2.984375 54.6875 
L 12.5 54.6875 
L 29.59375 8.796875 
L 46.6875 54.6875 
L 56.203125 54.6875 
L 35.6875 0 
L 23.484375 0 
z
" id="DejaVuSans-76"/>
      <path d="M 32.171875 -5.078125 
Q 28.375 -14.84375 24.75 -17.8125 
Q 21.140625 -20.796875 15.09375 -20.796875 
L 7.90625 -20.796875 
L 7.90625 -13.28125 
L 13.1875 -13.28125 
Q 16.890625 -13.28125 18.9375 -11.515625 
Q 21 -9.765625 23.484375 -3.21875 
L 25.09375 0.875 
L 2.984375 54.6875 
L 12.5 54.6875 
L 29.59375 11.921875 
L 46.6875 54.6875 
L 56.203125 54.6875 
z
" id="DejaVuSans-79"/>
     </defs>
     <g style="fill:#262626;" transform="translate(510.93 328.041696)scale(0.12 -0.12)">
      <use xlink:href="#DejaVuSans-76"/>
      <use x="59.179688" xlink:href="#DejaVuSans-65"/>
      <use x="120.703125" xlink:href="#DejaVuSans-72"/>
      <use x="161.816406" xlink:href="#DejaVuSans-79"/>
      <use x="220.980469" xlink:href="#DejaVuSans-2d"/>
      <use x="257.064453" xlink:href="#DejaVuSans-6c"/>
      <use x="284.847656" xlink:href="#DejaVuSans-61"/>
      <use x="346.126953" xlink:href="#DejaVuSans-72"/>
      <use x="387.224609" xlink:href="#DejaVuSans-67"/>
      <use x="450.701172" xlink:href="#DejaVuSans-65"/>
     </g>
    </g>
   </g>
  </g>
 </g>
 <defs>
  <clipPath id="pb8cfea0f68">
   <rect height="83.931429" width="156.9375" x="81" y="51.84"/>
  </clipPath>
  <clipPath id="p754c0a97b9">
   <rect height="83.931429" width="156.9375" x="253.63125" y="51.84"/>
  </clipPath>
  <clipPath id="pe968bb0ee2">
   <rect height="83.931429" width="156.9375" x="426.2625" y="51.84"/>
  </clipPath>
  <clipPath id="p653b54a33b">
   <rect height="83.931429" width="156.9375" x="81" y="156.754286"/>
  </clipPath>
  <clipPath id="peac928fff1">
   <rect height="83.931429" width="156.9375" x="253.63125" y="156.754286"/>
  </clipPath>
  <clipPath id="p76ced211e8">
   <rect height="83.931429" width="156.9375" x="426.2625" y="156.754286"/>
  </clipPath>
  <clipPath id="pdea32ea0a5">
   <rect height="83.931429" width="156.9375" x="81" y="261.668571"/>
  </clipPath>
  <clipPath id="p4caa94b673">
   <rect height="83.931429" width="156.9375" x="253.63125" y="261.668571"/>
  </clipPath>
 </defs>
</svg>
